<svg id="Calque_1" data-name="Calque 1" xmlns="http://www.w3.org/2000/svg" viewBox="0 0 93.17 135"><defs><style>.cls-1{fill:#fff;}.cls-11,.cls-12,.cls-14,.cls-18,.cls-2,.cls-3,.cls-8{isolation:isolate;}.cls-3{font-size:16px;fill:#2b2b2b;font-family:SofiaPro-Bold, Sofia Pro;font-weight:700;}.cls-11,.cls-4{fill:#f7b323;}.cls-5{fill:#6d3303;}.cls-11,.cls-14,.cls-18,.cls-6{opacity:0.5;}.cls-12,.cls-14,.cls-7,.cls-8{fill:#ca8b0d;}.cls-8{opacity:0.7;}.cls-9{fill:#cfbbaa;}.cls-10{fill:#ffeddd;}.cls-12{opacity:0.6;}.cls-13{fill:#bf8206;}.cls-15{fill:#ca8a09;}.cls-16,.cls-18{fill:#c45406;}.cls-17{fill:#7f5204;}.cls-19{fill:#56321f;}.cls-20{fill:#e0c3a8;}.cls-21{fill:#a3733d;}.cls-22{fill:#86888c;}</style></defs><title>app-icon</title><g id="Groupe_1883" data-name="Groupe 1883"><rect id="Rectangle_11-2" data-name="Rectangle 11-2" class="cls-1" x="1.17" width="92" height="135" rx="6"/><g id="moins_de_30_min" data-name="moins de 30 min" class="cls-2"><text class="cls-3" transform="translate(14.28 97)">moins de </text><text class="cls-3" transform="translate(23.07 116)">30 min</text></g><g id="Groupe_79" data-name="Groupe 79"><g id="Groupe_77" data-name="Groupe 77"><g id="Groupe_76" data-name="Groupe 76"><g id="Groupe_38" data-name="Groupe 38"><path id="Tracé_214" data-name="Tracé 214" class="cls-4" d="M51.33,32.81a7.29,7.29,0,0,0,4.32,1.08,7.43,7.43,0,0,0,5.06-3.13c1.16-1.62,2-4,.54-8.12-1.19-2.45-3.44-6.51-1.9-8.61a3.82,3.82,0,0,0,.23.51s.17-1.08.56-1.17.32.43.32.43.37-.66.57-.68.2.34.2.34.36-.46.56-.43.06.37.06.37.91,0,1,.34-.34.57-.34.57a2.94,2.94,0,0,1,.54.74c0,.2-.25.14-.25.14a1.51,1.51,0,0,1,.22.28c0,.09-.25.12-.25.12s.28.14.31.23-.46.28-.46.28.94.2,1,.43-.34.31-.34.31a20.87,20.87,0,0,1,2,7.39c.31,4.2-.23,6.48-2.53,8.81a10.66,10.66,0,0,1-6.68,3.52c-.54,0-.66.2-.66.2l0-.45-.46.31-.14-.54-.48.74Z"/><g id="Groupe_36" data-name="Groupe 36"><g id="Groupe_34" data-name="Groupe 34"><path id="Tracé_215" data-name="Tracé 215" class="cls-5" d="M60.85,31.82s-.51.9.26,1.16.74-.51.56-1S61,31.53,60.85,31.82Z"/><path id="Tracé_216" data-name="Tracé 216" class="cls-5" d="M58,34.49s.31.8-.12.94-1-.09-.68-.57S57.84,34.15,58,34.49Z"/><path id="Tracé_217" data-name="Tracé 217" class="cls-5" d="M55.59,34s.26,1-.17,1-.82-.91-.37-1A.83.83,0,0,1,55.59,34Z"/><path id="Tracé_218" data-name="Tracé 218" class="cls-5" d="M58.07,33.18s.42.62.88.51.2-1.19.2-1.19S58.29,33.07,58.07,33.18Z"/><path id="Tracé_219" data-name="Tracé 219" class="cls-5" d="M59.37,34.89c0,.14-.08.25-.17.25S59,35,59,34.89s.09-.26.17-.26S59.37,34.74,59.37,34.89Z"/><path id="Tracé_220" data-name="Tracé 220" class="cls-5" d="M57,35.91a.24.24,0,0,1-.23.22.22.22,0,0,1-.23-.22h0a.26.26,0,0,1,.23-.23.23.23,0,0,1,.23.22Z"/><path id="Tracé_221" data-name="Tracé 221" class="cls-5" d="M61.7,29.8s.32.31.09.54-.57.14-.54-.08S61.56,29.63,61.7,29.8Z"/><path id="Tracé_222" data-name="Tracé 222" class="cls-5" d="M63.35,30.76s.37.26.2.57-.68.2-.6-.14S63.12,30.59,63.35,30.76Z"/><path id="Tracé_223" data-name="Tracé 223" class="cls-5" d="M65.09,28.21s.08,1.05-.37,1.16-.69-.77-.71-1S65.09,28,65.09,28.21Z"/><path id="Tracé_224" data-name="Tracé 224" class="cls-5" d="M63.18,26.61s0,.94-.25,1.11-.71-.2-.66-.74S63,25.93,63.18,26.61Z"/><path id="Tracé_225" data-name="Tracé 225" class="cls-5" d="M64.18,26.3s0,.54.31.66.37-.54.37-.77S64.4,25.59,64.18,26.3Z"/></g><g id="Groupe_35" data-name="Groupe 35"><path id="Tracé_226" data-name="Tracé 226" class="cls-5" d="M59.69,17.52c.28.6.17.51.48,0s1,0,1.19-.37a1,1,0,0,1,1.28-.43,2.34,2.34,0,0,0,.74.12l0-.06s.43-.08.34-.31-1-.43-1-.43.48-.2.46-.28-.32-.23-.32-.23.29,0,.26-.11a1.28,1.28,0,0,0-.23-.29s.29.06.26-.14a2.94,2.94,0,0,0-.54-.74s.48-.22.34-.57-1-.34-1-.34S62,13,61.79,13s-.57.43-.57.43,0-.37-.2-.34-.57.68-.57.68.09-.51-.31-.42-.57,1.16-.57,1.16a3.27,3.27,0,0,1-.22-.51c-.83,1.11-.6,2.76,0,4.4C59.4,17.83,59.52,17.18,59.69,17.52Z"/><path id="Tracé_227" data-name="Tracé 227" class="cls-5" d="M61.33,21.36c.49.08.37-.23.88-.6a1.61,1.61,0,0,1,1.65-.29c.29.12.63.23.91.32a15.71,15.71,0,0,0-.62-2,2.73,2.73,0,0,0-1.34-.29,4.83,4.83,0,0,1-1.19.18c-.8.05-.37.88-.88.82-.32,0-.6.34-.77.62.28.63.57,1.23.85,1.77C60.94,21.61,61.08,21.33,61.33,21.36Z"/><path id="Tracé_228" data-name="Tracé 228" class="cls-5" d="M65.09,22.29a5.08,5.08,0,0,0-1.34-.17c-.74-.05-.68.57-1.19.46s-.23.71-.57.51-.4.06-.54.26a13.34,13.34,0,0,1,.48,2.1c.2-.37.6-1,1.08-.63.68.46.43-.6,1.42-.17a4.17,4.17,0,0,0,.91.28c0-.22,0-.45,0-.68A12.92,12.92,0,0,0,65.09,22.29Z"/></g></g><g id="Groupe_37" data-name="Groupe 37" class="cls-6"><path id="Tracé_229" data-name="Tracé 229" class="cls-7" d="M59.74,32.81a8.69,8.69,0,0,0,3-9.86c-1.08-2.39-.71-4-2.56-7.56a1.83,1.83,0,0,1,0-2h-.06c-.4.09-.57,1.17-.57,1.17a3.38,3.38,0,0,1-.22-.52c-1.57,2.14.71,6.2,1.9,8.62,1.47,4.09.65,6.5-.54,8.12a7.51,7.51,0,0,1-5.06,3.13,4.13,4.13,0,0,1-.86,0C56.13,34.35,57.64,34.26,59.74,32.81Z"/><path id="Tracé_230" data-name="Tracé 230" class="cls-7" d="M64.86,21.22a2.21,2.21,0,0,0,.06.34,12.61,12.61,0,0,1-2.39,10.77c-2.84,3.38-7.79,4-8.61,2.38a6.24,6.24,0,0,0-.68-1,8.11,8.11,0,0,1-1.9-.85l3,4,.48-.74.15.54.45-.31,0,.45s.11-.14.65-.2A10.63,10.63,0,0,0,62.79,33c2.3-2.33,2.84-4.6,2.53-8.81A16,16,0,0,0,64.86,21.22Z"/></g><path id="Tracé_231" data-name="Tracé 231" class="cls-8" d="M51.33,32.81a7.29,7.29,0,0,0,4.32,1.08,7.43,7.43,0,0,0,5.06-3.13c1.16-1.62,2-4,.54-8.12-1.19-2.45-3.44-6.51-1.9-8.61a3.82,3.82,0,0,0,.23.51s.17-1.08.56-1.17.32.43.32.43.37-.66.57-.68.2.34.2.34.36-.46.56-.43.06.37.06.37.91,0,1,.34-.34.57-.34.57a2.94,2.94,0,0,1,.54.74c0,.2-.25.14-.25.14a1.51,1.51,0,0,1,.22.28c0,.09-.25.12-.25.12s.28.14.31.23-.46.28-.46.28.94.2,1,.43-.34.31-.34.31a20.87,20.87,0,0,1,2,7.39c.31,4.2-.23,6.48-2.53,8.81a10.66,10.66,0,0,1-6.68,3.52c-.54,0-.66.2-.66.2l0-.45-.46.31-.14-.54-.48.74Z"/></g><g id="Groupe_45" data-name="Groupe 45"><g id="Groupe_40" data-name="Groupe 40"><g id="Groupe_39" data-name="Groupe 39"><path id="Tracé_232" data-name="Tracé 232" class="cls-9" d="M51.84,70.69s-.45.91-.17,1.4c.12.17.6-1,.6-1Z"/><path id="Tracé_233" data-name="Tracé 233" class="cls-9" d="M53.41,72.54s-.12.68.17.77.6-1.08.6-1.08Z"/><path id="Tracé_234" data-name="Tracé 234" class="cls-9" d="M55.22,72.48s.09.74.32.74.51-.54.42-1Z"/></g><path id="Tracé_235" data-name="Tracé 235" class="cls-10" d="M51.84,71.26a5.36,5.36,0,0,0-.14.54c0,.2-.11-.11,0-.42S51.87,71.15,51.84,71.26Z"/><path id="Tracé_236" data-name="Tracé 236" class="cls-10" d="M53.52,72.77a2.69,2.69,0,0,0,0,.4c0,.14-.09-.06-.12-.29S53.52,72.68,53.52,72.77Z"/><path id="Tracé_237" data-name="Tracé 237" class="cls-10" d="M55.42,72.71a2.64,2.64,0,0,0,.12.4c.05.14-.12,0-.17-.25S55.4,72.66,55.42,72.71Z"/></g><path id="Tracé_238" data-name="Tracé 238" class="cls-4" d="M38.85,33.63s1.57.52,3.9-1.22,3.58-3.18,6.9-1.08c2.39,1.65,2.82,2,4.89,5.4s3.87,5.46,4.32,6.54-.17,3.35-.85,5.23a35.58,35.58,0,0,0-1.17,6.14c0,.94.32,1,1.11.6s1.11-.8,1.59-.26,1.34,1.28,1.14,2.08a37.49,37.49,0,0,1-1.93,6.73c-1,2.56-1.39,3.75-1.28,4.44s.54,2.36-.37,3.32-2.3,1.71-2.53.43c-.54.68-1.5,1.48-2.27-.57a2,2,0,0,1-.54-2.73A36.69,36.69,0,0,1,54,65.5a14.85,14.85,0,0,0,1.25-2.93,9.58,9.58,0,0,1-1.82-.82C52.35,61.09,51,53,51,48.67S49,43.73,46.19,41.31,39.62,36.62,38.85,33.63Z"/><g id="Groupe_41" data-name="Groupe 41" class="cls-6"><path id="Tracé_239" data-name="Tracé 239" class="cls-7" d="M58,55.23c-.8.43-1.13.35-1.1-.6,0-.51.14-1.27.28-2.13-.48,2.22-1.31,4.32-.74,4.63s.43-.65,1.22-1,1.74-.91,2.33.77-2.38,9-3,10.31a2.26,2.26,0,0,1-3.13.64,2.34,2.34,0,0,1-.31-.24c-.6-.85.88-.82,1.4-2.39s1.42-2.5,2.47-4.37,1.22-3.47-.26-1-2.5-.22-4-5.54,4.15-8.7.23-10.43-3.87-4.32-5.46-5.23c-3.92-2.33-5.77-3.89-4.18-6.48a4.32,4.32,0,0,1,2.9-1.9c-1.39.06-2.41,1-3.89,2.13-2.36,1.74-3.89,1.23-3.89,1.23.76,3,4.57,5.23,7.33,7.67S51,44.38,51,48.67s1.34,12.42,2.44,13.07a7.29,7.29,0,0,0,1.82.83A15,15,0,0,1,54,65.49a38.6,38.6,0,0,0-2.27,3.19,2,2,0,0,0,.54,2.72c.77,2,1.73,1.25,2.27.57.23,1.28,1.62.57,2.53-.42s.48-2.65.37-3.33.31-1.85,1.28-4.43a37.59,37.59,0,0,0,1.93-6.74c.2-.8-.65-1.56-1.13-2.07S58.75,54.84,58,55.23Z"/></g><g id="Groupe_42" data-name="Groupe 42"><path id="Tracé_240" data-name="Tracé 240" class="cls-5" d="M48.38,31.5s-.49.71,0,1,.94,0,.91-.54S48.86,30.88,48.38,31.5Z"/><path id="Tracé_241" data-name="Tracé 241" class="cls-5" d="M47.38,31.22s.14.54,0,.54-.22-.26-.22-.48S47.32,31,47.38,31.22Z"/><path id="Tracé_242" data-name="Tracé 242" class="cls-5" d="M46.41,30.91a.62.62,0,0,1,.23.6c-.06.4-.28.76-.51.45a1.08,1.08,0,0,1-.11-.91.22.22,0,0,1,.21-.23A.21.21,0,0,1,46.41,30.91Z"/><path id="Tracé_243" data-name="Tracé 243" class="cls-5" d="M44.94,33.07s.6.6.51.82-.34.77-.68.57a.79.79,0,0,1-.43-1C44.45,33,44.62,32.78,44.94,33.07Z"/><path id="Tracé_244" data-name="Tracé 244" class="cls-5" d="M45.87,36.05s.09,1-.14,1-.48-.22-.4-.85S45.73,35.57,45.87,36.05Z"/><path id="Tracé_245" data-name="Tracé 245" class="cls-5" d="M43.43,34s0,.8-.17.8-.68-.32-.48-.6S43.37,33.49,43.43,34Z"/><path id="Tracé_246" data-name="Tracé 246" class="cls-5" d="M46.64,35.57s.09.4-.06.45-.28-.2-.22-.45S46.53,35.34,46.64,35.57Z"/><path id="Tracé_247" data-name="Tracé 247" class="cls-5" d="M43.43,35.62s.11.29-.08.32-.35-.29-.23-.49S43.43,35.42,43.43,35.62Z"/><path id="Tracé_248" data-name="Tracé 248" class="cls-5" d="M43.6,36.65a.31.31,0,0,1,0,.44h0a.51.51,0,0,1-.72,0l0,0c-.17-.2.06-.54.23-.57A.52.52,0,0,1,43.6,36.65Z"/><path id="Tracé_249" data-name="Tracé 249" class="cls-5" d="M48.94,34.83a1.06,1.06,0,0,1-.08.8c-.23.28-.34.11-.6-.12s-.34-.34-.09-.65S48.74,34.32,48.94,34.83Z"/><path id="Tracé_250" data-name="Tracé 250" class="cls-5" d="M46.87,37.35a.85.85,0,0,1,.57.83c0,.68-.6.6-.86.08S46.39,37.16,46.87,37.35Z"/><path id="Tracé_251" data-name="Tracé 251" class="cls-5" d="M48.12,33.12s.17.29,0,.29S47.89,32.92,48.12,33.12Z"/><path id="Tracé_252" data-name="Tracé 252" class="cls-5" d="M45.93,32.81s.14.34,0,.34S45.56,32.55,45.93,32.81Z"/><path id="Tracé_253" data-name="Tracé 253" class="cls-5" d="M42,33.29s.22.52,0,.6-.54-.14-.4-.36S42,33.15,42,33.29Z"/><path id="Tracé_254" data-name="Tracé 254" class="cls-5" d="M44.74,31.5s.08.2,0,.26S44.43,31.36,44.74,31.5Z"/><path id="Tracé_255" data-name="Tracé 255" class="cls-5" d="M48.4,37.27s.09.37-.08.37S48,37,48.4,37.27Z"/><path id="Tracé_256" data-name="Tracé 256" class="cls-5" d="M49.74,37.73s.17.31-.06.31S49.51,37.53,49.74,37.73Z"/><path id="Tracé_257" data-name="Tracé 257" class="cls-5" d="M49.8,39a1.57,1.57,0,0,1,.05,1.11c-.22.4-.93.4-.85-.48S49.48,38.41,49.8,39Z"/><path id="Tracé_258" data-name="Tracé 258" class="cls-5" d="M49.51,41.48s.09.6-.17.6-.34-.4-.28-.63S49.37,41.05,49.51,41.48Z"/><path id="Tracé_259" data-name="Tracé 259" class="cls-5" d="M52,40.23s.51.54.48.91-1.45.4-1.28-.34S51.67,40,52,40.23Z"/><path id="Tracé_260" data-name="Tracé 260" class="cls-5" d="M52.47,37.61s-.32,1.06.4,1.06.76-.66.42-1.17S52.67,37,52.47,37.61Z"/><path id="Tracé_261" data-name="Tracé 261" class="cls-5" d="M51.36,35.2s.51.22.43.65-.63.83-.91.57a1.2,1.2,0,0,1-.15-1.17.41.41,0,0,1,.56-.11A.19.19,0,0,1,51.36,35.2Z"/><path id="Tracé_262" data-name="Tracé 262" class="cls-5" d="M50.65,32.67s0,.65-.26.71-.54-.11-.45-.68S50.45,32,50.65,32.67Z"/><path id="Tracé_263" data-name="Tracé 263" class="cls-5" d="M54.77,40.66s.37.71,0,1.05-.74-.26-.63-.71S54.62,40.51,54.77,40.66Z"/><path id="Tracé_264" data-name="Tracé 264" class="cls-5" d="M51.79,43s0,.91-.29.93-.51-.48-.37-.85S51.64,42.44,51.79,43Z"/><path id="Tracé_265" data-name="Tracé 265" class="cls-5" d="M54.17,43.64s.23.65-.14.8-.6-.4-.4-.68S54,43.33,54.17,43.64Z"/><path id="Tracé_266" data-name="Tracé 266" class="cls-5" d="M52.27,33.72s.25.82-.23.91a.5.5,0,0,1-.57-.74C51.64,33.49,52,33,52.27,33.72Z"/><path id="Tracé_267" data-name="Tracé 267" class="cls-5" d="M52.92,45.37s.12.29-.08.34-.71-.31-.54-.45S52.72,45.14,52.92,45.37Z"/><path id="Tracé_268" data-name="Tracé 268" class="cls-5" d="M55.62,45.83a.91.91,0,0,1,0,.85c-.2.57-1,.46-.85-.4S55.42,45.4,55.62,45.83Z"/><path id="Tracé_269" data-name="Tracé 269" class="cls-5" d="M53,47.33A.62.62,0,0,1,53,48c-.23.43-.46.12-.46-.28S52.78,47.13,53,47.33Z"/><path id="Tracé_270" data-name="Tracé 270" class="cls-5" d="M55.08,49.24a1,1,0,0,1,.6.85c0,.6-1,1.19-1.22.48S54.55,49.07,55.08,49.24Z"/><path id="Tracé_271" data-name="Tracé 271" class="cls-5" d="M53.69,49.12a.75.75,0,0,1,0,.71c-.2.37-.85.4-.71-.11S53.55,49,53.69,49.12Z"/><path id="Tracé_272" data-name="Tracé 272" class="cls-5" d="M52.58,50.23s.06.49-.11.54-.32-.28-.23-.45S52.47,50,52.58,50.23Z"/><path id="Tracé_273" data-name="Tracé 273" class="cls-5" d="M53.35,52.42s.17.28,0,.4-.43.09-.37-.17S53.26,52.28,53.35,52.42Z"/><path id="Tracé_274" data-name="Tracé 274" class="cls-5" d="M53.23,53.47a1.61,1.61,0,0,1,.2.88c0,.51-.48.57-.71-.05S52.69,52.93,53.23,53.47Z"/><path id="Tracé_275" data-name="Tracé 275" class="cls-5" d="M56.59,42.7s0,1.25.34,1.36.85-.28.54-1.1S56.67,42,56.59,42.7Z"/><path id="Tracé_276" data-name="Tracé 276" class="cls-5" d="M58,45.51s-.34.71-.06.94.63-.34.63-.88S58.24,45,58,45.51Z"/><path id="Tracé_277" data-name="Tracé 277" class="cls-5" d="M57.3,48s.08.63-.26.63S57,47.62,57.3,48Z"/><path id="Tracé_278" data-name="Tracé 278" class="cls-5" d="M56.73,51.74s.17.85-.31.88-.6-.63-.34-.91S56.59,51.49,56.73,51.74Z"/><path id="Tracé_279" data-name="Tracé 279" class="cls-5" d="M54.6,57s.48.54.34,1-1.08.28-1-.43S54.23,56.66,54.6,57Z"/><path id="Tracé_280" data-name="Tracé 280" class="cls-5" d="M56.82,54.58s0,.85-.23,1-.37-.4-.28-.91S56.7,54.07,56.82,54.58Z"/><path id="Tracé_281" data-name="Tracé 281" class="cls-5" d="M56.56,57.82s.17.88-.17.88-.34-.6-.31-.94S56.45,57.36,56.56,57.82Z"/><path id="Tracé_282" data-name="Tracé 282" class="cls-5" d="M55.37,60.18s.2,1-.23,1-.4-.57-.37-1S55.14,59.55,55.37,60.18Z"/><path id="Tracé_283" data-name="Tracé 283" class="cls-5" d="M53.06,39.77s0,.29-.11.26-.26-.2-.14-.31S53,39.6,53.06,39.77Z"/><path id="Tracé_284" data-name="Tracé 284" class="cls-5" d="M55.48,39.12s.14.43,0,.48-.35-.2-.35-.45S55.34,38.75,55.48,39.12Z"/><path id="Tracé_285" data-name="Tracé 285" class="cls-5" d="M56.81,40.4s.14.43,0,.51-.31-.17-.34-.42S56.61,40.12,56.81,40.4Z"/><path id="Tracé_286" data-name="Tracé 286" class="cls-5" d="M53.92,42.73s0,.17-.06.17S53.69,42.5,53.92,42.73Z"/><path id="Tracé_287" data-name="Tracé 287" class="cls-5" d="M55.79,53.05s.09.42-.14.42-.34-.28-.28-.48S55.68,52.76,55.79,53.05Z"/><path id="Tracé_288" data-name="Tracé 288" class="cls-5" d="M55.74,56.2s.14.4,0,.51-.4-.17-.34-.37S55.59,55.89,55.74,56.2Z"/><path id="Tracé_289" data-name="Tracé 289" class="cls-5" d="M55,54.5s.11.22,0,.22S54.77,54.27,55,54.5Z"/><path id="Tracé_290" data-name="Tracé 290" class="cls-5" d="M59,57.31s-.54,1.28,0,1.56.68-1,.65-1.45S59.32,56.91,59,57.31Z"/><path id="Tracé_291" data-name="Tracé 291" class="cls-5" d="M57.73,60.44s-.66,1.1-.23,1.3.85-.45.85-1.13S57.87,59.92,57.73,60.44Z"/><path id="Tracé_292" data-name="Tracé 292" class="cls-5" d="M59.38,60.21a1,1,0,0,0,0,.82c.23.32.46-.4.49-.76a.27.27,0,0,0-.21-.31.27.27,0,0,0-.3.2Z"/><path id="Tracé_293" data-name="Tracé 293" class="cls-5" d="M57.33,62.88s-.09.48.25.57.4-.23.37-.63S57.35,62.37,57.33,62.88Z"/><path id="Tracé_294" data-name="Tracé 294" class="cls-5" d="M56.13,63.28s-.11,1-.42,1-.37-.57-.2-1S56.08,62.62,56.13,63.28Z"/><path id="Tracé_295" data-name="Tracé 295" class="cls-5" d="M57.87,57c0,.17-.06.28-.14.28s-.15-.12-.15-.28.06-.29.15-.29S57.87,56.83,57.87,57Z"/><path id="Tracé_296" data-name="Tracé 296" class="cls-5" d="M59.49,56.09c0,.17-.09.28-.17.28s-.17-.14-.17-.28.08-.32.17-.32S59.49,56,59.49,56.09Z"/><path id="Tracé_297" data-name="Tracé 297" class="cls-5" d="M55.42,43.9c0,.11-.05.17-.08.17s-.11-.09-.11-.17.05-.2.11-.2A.28.28,0,0,1,55.42,43.9Z"/><path id="Tracé_298" data-name="Tracé 298" class="cls-5" d="M57.22,50.37c0,.17-.06.31-.09.31s-.11-.14-.11-.31,0-.31.11-.31S57.22,50.17,57.22,50.37Z"/><path id="Tracé_299" data-name="Tracé 299" class="cls-5" d="M56.5,62.25s0,.46-.14.49-.28-.15-.2-.37S56.45,62.08,56.5,62.25Z"/></g><path id="Tracé_300" data-name="Tracé 300" class="cls-4" d="M53.15,68.05a7.8,7.8,0,0,1-.65,1.37c-.46.8-.94.62-.77-.15S53.32,67.09,53.15,68.05Z"/><path id="Tracé_301" data-name="Tracé 301" class="cls-4" d="M53.26,68.73a3.66,3.66,0,0,0-.48,2c.17.8,1.31.52,1.45-.45s.06-1.54-.2-1.82S53.43,68.25,53.26,68.73Z"/><path id="Tracé_302" data-name="Tracé 302" class="cls-4" d="M55.31,68.79a4.28,4.28,0,0,0-.43,2c.17.68,1.62.37,1.71-.6s-.06-1.68-.43-1.68S55.56,68.45,55.31,68.79Z"/><g id="Groupe_43" data-name="Groupe 43"><path id="Tracé_303" data-name="Tracé 303" class="cls-7" d="M57.16,69.64c.11,1.68-1.08,2.47-2,2s-.2-2.9-.2-2.9-.12.11-.26.91-.63,2.38-1.54,2-.71-1.36-.11-3c-.43.8-.77,2.14-1.36,1.62a1.06,1.06,0,0,1-.29-.4,1.66,1.66,0,0,0,.83,1.48c.76,2,1.73,1.25,2.27.57.23,1.28,1.62.57,2.53-.43s.48-2.64.37-3.32.31-1.85,1.28-4.44c.25-.6.48-1.19.68-1.81-.46,1.16-1.59,3.72-2,4.71A6.09,6.09,0,0,0,57.16,69.64Z"/></g><g id="Groupe_44" data-name="Groupe 44"><path id="Tracé_304" data-name="Tracé 304" class="cls-7" d="M52.84,45.71c.42-.45-.51-.85-2.33-2.21a25.46,25.46,0,0,1-3-2.79c-.6-.54.54-.6.37-.65s-1-.43-.88-.49,1.11-.31.46-.65a17.09,17.09,0,0,1-5-3.64,2,2,0,0,1-.74-2.21,4,4,0,0,1-2.9.6c.76,3,4.57,5.23,7.33,7.67s4.6,3,4.8,6.76l.94.12A8.76,8.76,0,0,1,52.84,45.71Z"/></g><path id="Tracé_305" data-name="Tracé 305" class="cls-11" d="M45.85,32.53s3.46-.86,6.76,3.81,3.24,3.63,1.76.9-2.44-4.14-4.6-5.57-3.64-.9-4.6-.11S45.22,33,45.85,32.53Z"/><path id="Tracé_306" data-name="Tracé 306" class="cls-12" d="M38.85,33.63s1.57.52,3.9-1.22,3.58-3.18,6.9-1.08c2.39,1.65,2.82,2,4.89,5.4s3.87,5.46,4.32,6.54-.17,3.35-.85,5.23a35.58,35.58,0,0,0-1.17,6.14c0,.94.32,1,1.11.6s1.11-.8,1.59-.26,1.34,1.28,1.14,2.08a37.49,37.49,0,0,1-1.93,6.73c-1,2.56-1.39,3.75-1.28,4.44s.54,2.36-.37,3.32-2.3,1.71-2.53.43c-.54.68-1.5,1.48-2.27-.57a2,2,0,0,1-.54-2.73A36.69,36.69,0,0,1,54,65.5a14.85,14.85,0,0,0,1.25-2.93,9.58,9.58,0,0,1-1.82-.82C52.35,61.09,51,53,51,48.67S49,43.73,46.19,41.31,39.62,36.62,38.85,33.63Z"/></g><g id="Groupe_48" data-name="Groupe 48"><path id="Tracé_307" data-name="Tracé 307" class="cls-4" d="M39.48,60.8a4.24,4.24,0,0,0-.11,2.7c.48,1.17,1,1.51,1.13,2.59s5.66,3.84,5.66,3.84a3.55,3.55,0,0,0-.26-2.42,11.32,11.32,0,0,1-1.33-2.73,17.33,17.33,0,0,0-1.23-3,6,6,0,0,1-.68-1.68A4.73,4.73,0,0,1,39.48,60.8Z"/><g id="Groupe_46" data-name="Groupe 46" class="cls-6"><path id="Tracé_308" data-name="Tracé 308" class="cls-7" d="M45.9,67.48a11.44,11.44,0,0,1-1.33-2.72,17.43,17.43,0,0,0-1.23-3,6,6,0,0,1-.68-1.68,4.69,4.69,0,0,1-3.21.63,4.23,4.23,0,0,0-.11,2.7s-.06-1.59,1.22-1.68,1.68.46,1.08.85a3.88,3.88,0,0,0-1.39,1.51,1.42,1.42,0,0,1-.29.54A3.36,3.36,0,0,1,40.47,66c.18,1.08,5.66,3.84,5.66,3.84A3.35,3.35,0,0,0,45.9,67.48Z"/></g><g id="Groupe_47" data-name="Groupe 47"><path id="Tracé_309" data-name="Tracé 309" class="cls-5" d="M39.45,62.4a2.33,2.33,0,0,0,0,1.05c.11.42.26.31.48,0s.37-.51.23-.77-.23-.54-.43-.51S39.48,62.28,39.45,62.4Z"/><path id="Tracé_310" data-name="Tracé 310" class="cls-5" d="M40.9,61.86s-.06.28.14.28.2-.23.14-.34S41,61.57,40.9,61.86Z"/><path id="Tracé_311" data-name="Tracé 311" class="cls-5" d="M40.19,61.6s.11.26-.11.23-.32-.17-.26-.23S40.1,61.43,40.19,61.6Z"/><path id="Tracé_312" data-name="Tracé 312" class="cls-5" d="M42.83,61.12s.12.31-.11.31a.16.16,0,0,1-.19-.14.15.15,0,0,1,0-.14C42.63,61.09,42.75,61,42.83,61.12Z"/><path id="Tracé_313" data-name="Tracé 313" class="cls-5" d="M41,63.76a5.57,5.57,0,0,0-.37.57c-.08.2-.22-.29-.11-.63S41,63.42,41,63.76Z"/></g><path id="Tracé_314" data-name="Tracé 314" class="cls-7" d="M39.48,60.8a4.24,4.24,0,0,0-.11,2.7c.48,1.17,1,1.51,1.13,2.59s5.66,3.84,5.66,3.84a3.55,3.55,0,0,0-.26-2.42,11.32,11.32,0,0,1-1.33-2.73,17.33,17.33,0,0,0-1.23-3,6,6,0,0,1-.68-1.68A4.73,4.73,0,0,1,39.48,60.8Z"/></g><g id="Groupe_59" data-name="Groupe 59"><g id="Groupe_49" data-name="Groupe 49"><path id="Tracé_315" data-name="Tracé 315" class="cls-9" d="M39.68,74.25s.8,1.3,1.11,1.28.51-1.31.51-1.31Z"/><path id="Tracé_316" data-name="Tracé 316" class="cls-9" d="M42.72,74.16s.48,1,.71.91.46-1.25.46-1.25Z"/><path id="Tracé_317" data-name="Tracé 317" class="cls-9" d="M44.79,73.82s.18.71.4.74.49-.77.49-.77Z"/><path id="Tracé_318" data-name="Tracé 318" class="cls-10" d="M40.33,74.73a5.16,5.16,0,0,0,.4.63c.17.2-.2,0-.42-.35S40.25,74.59,40.33,74.73Z"/><path id="Tracé_319" data-name="Tracé 319" class="cls-10" d="M43.12,74.47a3,3,0,0,0,.28.49c.14.14-.14,0-.31-.29S43.06,74.36,43.12,74.47Z"/><path id="Tracé_320" data-name="Tracé 320" class="cls-10" d="M45.05,74.11a1.07,1.07,0,0,0,.09.34c0,.11-.09,0-.15-.2S45.05,74.05,45.05,74.11Z"/></g><g id="Groupe_50" data-name="Groupe 50"><path id="Tracé_321" data-name="Tracé 321" class="cls-9" d="M29.56,65.32s.71,1.2,1.05,1.2-.14-1.34-.14-1.34Z"/><path id="Tracé_322" data-name="Tracé 322" class="cls-9" d="M31.41,64.76s.62.62.88.62-.2-1.14-.2-1.14Z"/><path id="Tracé_323" data-name="Tracé 323" class="cls-9" d="M32.89,63.71s.37.51.62.45-.06-1-.06-1Z"/></g><path id="Tracé_324" data-name="Tracé 324" class="cls-4" d="M46.27,69.73c.77.85.66,2,.14,3.5s-1.84.8-2.24.45a1.57,1.57,0,0,1-2.17.48L41.78,74c-.14.76-1.53,1-2.33.22-1.28-1.36-1.3-1.59-1.19-2.9.14-1.56,1.22-2.33,1.39-3.18s.54-2.36.85-3.41,1.37-1.73,2.59-2.5,4.6-3.13,4.55-3.44a7.59,7.59,0,0,0-1.2-1.45s-.45.54-.54.51,0-.34,0-.34-.74.88-.85.86S45,58,45,58s-2.3,2.56-2.67,3-.65.34-2.13.29a12.58,12.58,0,0,1-6.37-2l-.14.43a1.33,1.33,0,0,1-.22-.6c-.09.08-.86.62-.86.62l.2-.62a12.88,12.88,0,0,1-1.62-.43l.06.57a1.47,1.47,0,0,1-1-1.22,1.93,1.93,0,0,1-.34.65,5.84,5.84,0,0,1,1.45,1.79c1.45-.31,2.22,1.45,2.25,2.16s-.54,1.65-1.06,1.45c-.25.45-1.16,1.25-1.79,1.14-.2.31-.28.4-1.44.34s-1-2.33-.94-2.7.08-.54-.23-.6a5.77,5.77,0,0,0-1.93-.34,26.22,26.22,0,0,1-2.7,1.36c-1.22.48-2.19-1-2.36-3.95s2.47-6.54,2.41-7.42-.88-2-.82-2.81S25,45.4,25.47,45s0-.71-.11-1,.65-.82.65-.82-.34,0-.34-.12.48-.4.48-.4l-.48-.34.88-.42a3.22,3.22,0,0,1,.43-1.6S39.74,35,41,36.19s5.77,2.81,5.83,3-.57.68-.57.68.77.12.77.2,0,0-.65.34a3.51,3.51,0,0,1,1.44,1.34A11.38,11.38,0,0,0,50.51,44a8,8,0,0,1,2,2.3,12,12,0,0,0,0,8.64,19,19,0,0,1,1.42,4.66c.28,1.88.28,3.5-.06,3.86C52.07,65,46.5,65.55,46,65.57a1.6,1.6,0,0,0-.91.35.71.71,0,0,0-.34.88A5.88,5.88,0,0,1,45,68.25c0,.34.74.73.88,1.16C46,69.3,46.27,69.73,46.27,69.73Z"/><g id="Groupe_51" data-name="Groupe 51"><path id="Tracé_325" data-name="Tracé 325" class="cls-10" d="M33.4,36.65s-.31.54-.74,1.33c.43-.14.85-.31,1.28-.45Z"/><path id="Tracé_326" data-name="Tracé 326" class="cls-10" d="M25.64,51.8c.06-.06.06-.09.06-.09Z"/><path id="Tracé_327" data-name="Tracé 327" class="cls-10" d="M30.24,58.84c-.17-.14-.28-.25-.28-.25A.84.84,0,0,0,30.24,58.84Z"/><path id="Tracé_328" data-name="Tracé 328" class="cls-10" d="M42.63,54.07a11,11,0,0,0-2.18-1.37c-.43-.31-.23-1-.23-1l-.43.37s-.17-.32.2-1.4a5.62,5.62,0,0,1-.8.74,4.24,4.24,0,0,1,.43-1.39c-1-2-3.72-3.89-3.41-5.85.43-1.71-1.36-5.09-2.3-6.68-.43.14-.85.28-1.28.45-1.14,2.16-3.15,6.34-3,8.33.12.85-1.59,1.65-2.44,3.15-.43-.54-1.16,0-1.76.54a5.83,5.83,0,0,0,1.11.17s-1.48.63-1.48,1.77c.34,0,.48-.06.54-.15l.06-.08s0,0-.06.08L25,52.87a4.14,4.14,0,0,0,1.11,0l-.8.62s1.53.74,2,1a1.3,1.3,0,0,0-.37,1l.6-.23a1.09,1.09,0,0,0,.25,1.52l.12.08a9.83,9.83,0,0,1,2,1.79,1.66,1.66,0,0,0,.34-.66,1.43,1.43,0,0,0,1,1.22l-.05-.56A11,11,0,0,0,32.8,59l-.2.63.85-.63a1.63,1.63,0,0,0,.23.6l.14-.42a12.73,12.73,0,0,0,6.36,2c1.45.06,1.77.09,2.14-.28S45,58,45,58s0,.35.08.37.85-.85.85-.85-.08.28,0,.34.54-.51.54-.51C45.76,56.2,43.54,54.92,42.63,54.07Z"/></g><g id="Groupe_52" data-name="Groupe 52"><path id="Tracé_329" data-name="Tracé 329" class="cls-5" d="M27.94,47.56s-.48.17-.48.6.2.63.48.51S28.14,47.47,27.94,47.56Z"/><path id="Tracé_330" data-name="Tracé 330" class="cls-5" d="M26.61,47.85s0,.71-.26.91-.46,0-.37-.4.2-.71.4-.71a.19.19,0,0,1,.22.17A0,0,0,0,1,26.61,47.85Z"/><path id="Tracé_331" data-name="Tracé 331" class="cls-5" d="M25.53,47a2.68,2.68,0,0,1-.32,1.42c-.37.57-.8.35-.74-.25a2.58,2.58,0,0,1,.71-1.48C25.41,46.65,25.53,47,25.53,47Z"/><path id="Tracé_332" data-name="Tracé 332" class="cls-5" d="M26.55,45.65s.08.71-.31.77-.43-.51-.32-.8S26.46,45,26.55,45.65Z"/><path id="Tracé_333" data-name="Tracé 333" class="cls-5" d="M27.6,46.17s-.06.48.11.48.29-.34.2-.54S27.66,45.88,27.6,46.17Z"/><path id="Tracé_334" data-name="Tracé 334" class="cls-5" d="M29.08,46.34a.77.77,0,0,0-.29.54c0,.34.17.57.52.28a.62.62,0,0,0,.22-.74C29.5,46.28,29.33,46.17,29.08,46.34Z"/><path id="Tracé_335" data-name="Tracé 335" class="cls-5" d="M23.56,49.1s.18.08.15.42-.17.54-.34.57-.29-.34-.23-.63S23.42,49,23.56,49.1Z"/><path id="Tracé_336" data-name="Tracé 336" class="cls-5" d="M24.5,50.46s.09.28,0,.37-.31,0-.31-.23S24.39,50.26,24.5,50.46Z"/><path id="Tracé_337" data-name="Tracé 337" class="cls-5" d="M27.15,50.57a.85.85,0,0,1-.57.71c-.51.14-.51-.42-.29-.71S27.15,50.06,27.15,50.57Z"/><path id="Tracé_338" data-name="Tracé 338" class="cls-5" d="M27.6,49.61s.09.2-.11.22-.17-.28-.09-.31S27.6,49.52,27.6,49.61Z"/><path id="Tracé_339" data-name="Tracé 339" class="cls-5" d="M26.89,43s0,.63-.26.74-.4-.28-.25-.65S26.78,42.73,26.89,43Z"/><path id="Tracé_340" data-name="Tracé 340" class="cls-5" d="M27.29,44.24s.06.48-.17.48-.23-.31-.11-.46S27.23,44.12,27.29,44.24Z"/><path id="Tracé_341" data-name="Tracé 341" class="cls-5" d="M27.83,44.46a1,1,0,0,0,0,.71c.14.4.51.2.6-.4S28.11,43.87,27.83,44.46Z"/><path id="Tracé_342" data-name="Tracé 342" class="cls-5" d="M24.28,54s.56.2.48.63-.68,1-.91.6S23.45,53.56,24.28,54Z"/><path id="Tracé_343" data-name="Tracé 343" class="cls-5" d="M25,56.51s.11.57-.09.69-.54-.32-.48-.6S24.7,56,25,56.51Z"/><path id="Tracé_344" data-name="Tracé 344" class="cls-5" d="M23,55.92s0,.6-.2.62-.4-.28-.4-.62S22.94,55.29,23,55.92Z"/><path id="Tracé_345" data-name="Tracé 345" class="cls-5" d="M22.6,58.5s.2.49,0,.6-.49-.17-.49-.54S22.46,58.25,22.6,58.5Z"/><path id="Tracé_346" data-name="Tracé 346" class="cls-5" d="M21.75,57.08s.17.17.08.29a.18.18,0,0,1-.25,0,.17.17,0,0,1-.06-.14C21.55,57.05,21.63,57,21.75,57.08Z"/><path id="Tracé_347" data-name="Tracé 347" class="cls-5" d="M22,60.44s0,.25-.11.28a.21.21,0,0,1-.22-.17.19.19,0,0,1,.05-.14C21.83,60.29,22,60.35,22,60.44Z"/><path id="Tracé_348" data-name="Tracé 348" class="cls-5" d="M23,60.26s0,.94.4,1.14.65-.34.42-.91S23.05,59.55,23,60.26Z"/><path id="Tracé_349" data-name="Tracé 349" class="cls-5" d="M25.13,62a1,1,0,0,0-.46-.51c-.31-.11-.45,0-.42.31s.14.74.45.6S25.16,62.17,25.13,62Z"/><path id="Tracé_350" data-name="Tracé 350" class="cls-5" d="M24.45,58.45s-.12,1,.31,1.08.74-.54.42-.94S24.5,58,24.45,58.45Z"/><path id="Tracé_351" data-name="Tracé 351" class="cls-5" d="M26.12,60.61s.37.34.49.11S26.07,60.18,26.12,60.61Z"/><path id="Tracé_352" data-name="Tracé 352" class="cls-5" d="M26.38,56.71s-.17.66.08.83.54.05.49-.6S26.52,56.34,26.38,56.71Z"/><path id="Tracé_353" data-name="Tracé 353" class="cls-5" d="M27.83,57.85s-.12.76.2.94.54-.32.45-.88S28,57.31,27.83,57.85Z"/><path id="Tracé_354" data-name="Tracé 354" class="cls-5" d="M28.2,60.92a.62.62,0,0,0,.14.65c.28.26.51-.06.34-.51S28.31,60.63,28.2,60.92Z"/><path id="Tracé_355" data-name="Tracé 355" class="cls-5" d="M27.06,58.45s-.06.31.2.36.2-.22.08-.36S27.09,58.25,27.06,58.45Z"/><path id="Tracé_356" data-name="Tracé 356" class="cls-5" d="M26.29,55.06s.12.29.26.15S26.29,54.67,26.29,55.06Z"/><path id="Tracé_357" data-name="Tracé 357" class="cls-5" d="M29.16,56.31s.12.66.49.83.42-.34.2-.77S29,55.8,29.16,56.31Z"/><path id="Tracé_358" data-name="Tracé 358" class="cls-5" d="M22.4,62.57s.54,0,.63.31-.2.31-.43.23S22.12,62.62,22.4,62.57Z"/><path id="Tracé_359" data-name="Tracé 359" class="cls-5" d="M28.29,55.38s0,.28.2.2S28.34,55.09,28.29,55.38Z"/><path id="Tracé_360" data-name="Tracé 360" class="cls-5" d="M25.92,57.05s0,.32-.17.23S25.84,56.88,25.92,57.05Z"/><path id="Tracé_361" data-name="Tracé 361" class="cls-5" d="M29.33,59.81s.09.23,0,.26S29.08,59.7,29.33,59.81Z"/><path id="Tracé_362" data-name="Tracé 362" class="cls-5" d="M31.87,46.91s0,.25.17.31.2-.2.11-.37S31.87,46.76,31.87,46.91Z"/><path id="Tracé_363" data-name="Tracé 363" class="cls-5" d="M35.33,46s-.14.6.09.77.42-.23.37-.69S35.42,45.63,35.33,46Z"/><path id="Tracé_364" data-name="Tracé 364" class="cls-5" d="M39.51,54.18s-.17.6.2.85.74-.48.57-.88S39.62,53.64,39.51,54.18Z"/><path id="Tracé_365" data-name="Tracé 365" class="cls-5" d="M41.78,55.23s-.11.32.09.4.34-.05.25-.28S41.84,55,41.78,55.23Z"/><path id="Tracé_366" data-name="Tracé 366" class="cls-5" d="M42.32,54.72s.09.43.31.4.09-.28,0-.42S42.29,54.58,42.32,54.72Z"/><path id="Tracé_367" data-name="Tracé 367" class="cls-5" d="M41.3,53.76s.06.22.23.22S41.33,53.56,41.3,53.76Z"/><path id="Tracé_368" data-name="Tracé 368" class="cls-5" d="M43.26,50.66s.28,0,.31.23-.11.48-.28.37S43,50.66,43.26,50.66Z"/><path id="Tracé_369" data-name="Tracé 369" class="cls-5" d="M42.12,49a3.89,3.89,0,0,1,.54,1.28c0,.46-.48.51-.82.37s-.85-.08-.85-.91S41.55,48.16,42.12,49Z"/><path id="Tracé_370" data-name="Tracé 370" class="cls-5" d="M43.6,53.36a1,1,0,0,1,.17.57c0,.22.09.54-.05.6a1.35,1.35,0,0,1-.91-.57c-.17-.29,0-.51.22-.66A.44.44,0,0,1,43.6,53.36Z"/><path id="Tracé_371" data-name="Tracé 371" class="cls-5" d="M44.51,52.39a.57.57,0,0,1,.17.46c0,.28-.48,0-.54-.26S44.29,52.19,44.51,52.39Z"/><path id="Tracé_372" data-name="Tracé 372" class="cls-5" d="M45,54.32a1.52,1.52,0,0,1,.14.63c0,.34-.37.4-.54.08a.82.82,0,0,1,0-.73C44.68,54.07,44.91,54,45,54.32Z"/><path id="Tracé_373" data-name="Tracé 373" class="cls-5" d="M38.2,47.74a.66.66,0,0,1,.51.42c.2.4,0,.85-.34.77s-.4-.54-.45-.71S38,47.7,38.2,47.74Z"/><path id="Tracé_374" data-name="Tracé 374" class="cls-5" d="M39.28,46.34s-.23.62,0,.8.57-.26.57-.63S39.48,45.74,39.28,46.34Z"/><path id="Tracé_375" data-name="Tracé 375" class="cls-5" d="M37.46,46.37s0,.31.26.28.11-.28,0-.37S37.41,46.2,37.46,46.37Z"/><path id="Tracé_376" data-name="Tracé 376" class="cls-5" d="M37.38,44.52a.45.45,0,0,0,.29.59h0c.45.14.26-.48.06-.71S37.38,44.29,37.38,44.52Z"/><path id="Tracé_377" data-name="Tracé 377" class="cls-5" d="M39.71,44s-.12.65.37.82.54-.68.28-1S39.74,43.64,39.71,44Z"/><path id="Tracé_378" data-name="Tracé 378" class="cls-5" d="M36.87,42.16s-.06.37.14.4.2-.31.08-.51S36.87,42,36.87,42.16Z"/><path id="Tracé_379" data-name="Tracé 379" class="cls-5" d="M38.4,40.65a1,1,0,0,0-.06.74c.15.28.63.25.6-.43S38.54,40.14,38.4,40.65Z"/><path id="Tracé_380" data-name="Tracé 380" class="cls-5" d="M39.82,42.27c0,.06-.06.12,0,.23s-.2.11,0,.2.46,0,.46-.4S40,42,40,42.1,39.79,42.05,39.82,42.27Z"/><path id="Tracé_381" data-name="Tracé 381" class="cls-5" d="M39.65,39s-.06.55.17.63.6.14.48-.4S39.68,38.47,39.65,39Z"/><path id="Tracé_382" data-name="Tracé 382" class="cls-5" d="M41.36,38.84s-.23.73.14.82a.46.46,0,0,0,.57-.65C41.78,38.58,41.47,38.44,41.36,38.84Z"/><path id="Tracé_383" data-name="Tracé 383" class="cls-5" d="M42,40.94a1.11,1.11,0,0,0,0,.91.48.48,0,0,0,.91-.2C43,41.05,42.21,40.31,42,40.94Z"/><path id="Tracé_384" data-name="Tracé 384" class="cls-5" d="M44.57,40.51s-.37.49-.26.83,1,.54,1,0S45,39.89,44.57,40.51Z"/><path id="Tracé_385" data-name="Tracé 385" class="cls-5" d="M42.63,44.41a2,2,0,0,0-.22.9c.05.35,1.05.15,1.08-.28S42.86,43.9,42.63,44.41Z"/><path id="Tracé_386" data-name="Tracé 386" class="cls-5" d="M43.52,42.84a.23.23,0,0,0,.19.26h0c.23,0,.2-.43,0-.4S43.52,42.7,43.52,42.84Z"/><path id="Tracé_387" data-name="Tracé 387" class="cls-5" d="M42.09,46.28s0,.51-.11.51-.34-.25-.26-.54S42,46,42.09,46.28Z"/><path id="Tracé_388" data-name="Tracé 388" class="cls-5" d="M42.87,46.77s0,.6.17.62.31-.26.22-.57S42.89,46.45,42.87,46.77Z"/><path id="Tracé_389" data-name="Tracé 389" class="cls-5" d="M43.74,39.72s.09.31-.05.31a.2.2,0,0,1-.17-.24.14.14,0,0,1,0-.07C43.63,39.6,43.74,39.57,43.74,39.72Z"/><path id="Tracé_390" data-name="Tracé 390" class="cls-5" d="M43.06,38.64s0,.31-.14.28-.34-.28-.2-.43S43,38.3,43.06,38.64Z"/><path id="Tracé_391" data-name="Tracé 391" class="cls-5" d="M45.11,45.77s-.26.57,0,.85.57-.37.49-.76S45.22,45.4,45.11,45.77Z"/><path id="Tracé_392" data-name="Tracé 392" class="cls-5" d="M44.14,47.9s0,.77.34,1,.83-.15.83-.6-.74-.88-.94-.8A.33.33,0,0,0,44.14,47.9Z"/><path id="Tracé_393" data-name="Tracé 393" class="cls-5" d="M46.41,48.33s-.11.82.26.88.77-.17.54-.65S46.47,47.79,46.41,48.33Z"/><path id="Tracé_394" data-name="Tracé 394" class="cls-5" d="M46.73,45.46s.05.48.42.45.2-.4-.08-.54S46.7,45.29,46.73,45.46Z"/><path id="Tracé_395" data-name="Tracé 395" class="cls-5" d="M46.24,42.67s-.05.49.2.54.43-.37.26-.57S46.27,42.39,46.24,42.67Z"/><path id="Tracé_396" data-name="Tracé 396" class="cls-5" d="M48.38,44.15s-.29.88.08,1.11.63-.48.48-1S48.49,43.89,48.38,44.15Z"/><path id="Tracé_397" data-name="Tracé 397" class="cls-5" d="M45.85,49.47s.11.36.31.22S45.9,49.15,45.85,49.47Z"/><path id="Tracé_398" data-name="Tracé 398" class="cls-5" d="M47.44,50.57s-.37.83,0,.94.51-.2.51-.74S47.67,50.15,47.44,50.57Z"/><path id="Tracé_399" data-name="Tracé 399" class="cls-5" d="M49.23,47.73s-.54,1-.12,1.31.74.4.8-.14S49.68,47.16,49.23,47.73Z"/><path id="Tracé_400" data-name="Tracé 400" class="cls-5" d="M48.43,52.05s.12,1.14.6,1.22.14-.93-.05-1.22S48.43,51.68,48.43,52.05Z"/><path id="Tracé_401" data-name="Tracé 401" class="cls-5" d="M47.07,55a2.66,2.66,0,0,0,.14,1.34c.26.37.71.08.68-.71S47.3,54.15,47.07,55Z"/><path id="Tracé_402" data-name="Tracé 402" class="cls-5" d="M43.24,57.45s.31,1.14-.06,1.31-.54-.71-.43-1.17S43.09,57.08,43.24,57.45Z"/><path id="Tracé_403" data-name="Tracé 403" class="cls-5" d="M44.45,56.85s.12.26,0,.29S44.2,56.74,44.45,56.85Z"/><path id="Tracé_404" data-name="Tracé 404" class="cls-5" d="M47.47,52.05s-.23.23-.43.14a.16.16,0,0,1-.13-.18.16.16,0,0,1,.19-.13h0C47.3,51.88,47.52,52,47.47,52.05Z"/><path id="Tracé_405" data-name="Tracé 405" class="cls-5" d="M49.34,55.6s.29.37,0,.37-.4-.22-.31-.34S49.2,55.52,49.34,55.6Z"/><path id="Tracé_406" data-name="Tracé 406" class="cls-5" d="M47.52,57.54s.2.37,0,.4-.25-.09-.4-.06-.31-.37-.08-.48S47.52,57.54,47.52,57.54Z"/><path id="Tracé_407" data-name="Tracé 407" class="cls-5" d="M51.53,48.24s-.06.83-.34.8-.37-.56-.26-.82S51.53,47.82,51.53,48.24Z"/><path id="Tracé_408" data-name="Tracé 408" class="cls-5" d="M50.65,46.54s.14.37-.11.37S50.51,46.2,50.65,46.54Z"/><path id="Tracé_409" data-name="Tracé 409" class="cls-5" d="M51.76,46.82s.08.37-.17.37-.15-.37-.06-.51S51.7,46.65,51.76,46.82Z"/><path id="Tracé_410" data-name="Tracé 410" class="cls-5" d="M49.57,45.63s0,.2-.09.2S49.37,45.37,49.57,45.63Z"/><path id="Tracé_411" data-name="Tracé 411" class="cls-5" d="M50.54,50.63s0,.23-.12.23-.14-.14-.11-.26S50.51,50.43,50.54,50.63Z"/><path id="Tracé_412" data-name="Tracé 412" class="cls-5" d="M50,51.91s.11.17,0,.26-.28-.09-.2-.12,0-.14,0-.2S50,51.91,50,51.91Z"/><path id="Tracé_413" data-name="Tracé 413" class="cls-5" d="M51.79,52.73a2.36,2.36,0,0,0,.11.6c.06.2-.28.12-.57-.17a.47.47,0,0,1-.09-.66v0C51.36,52.31,51.76,52.59,51.79,52.73Z"/><path id="Tracé_414" data-name="Tracé 414" class="cls-5" d="M51.47,55.72a2.26,2.26,0,0,1,.43,1c0,.43-.54.6-.82,0S51.05,55.23,51.47,55.72Z"/><path id="Tracé_415" data-name="Tracé 415" class="cls-5" d="M49.43,58.19s0,.37-.2.34a.28.28,0,0,1-.15-.45C49.17,58,49.4,58.08,49.43,58.19Z"/><path id="Tracé_416" data-name="Tracé 416" class="cls-5" d="M51.93,60a1.12,1.12,0,0,1,.14,1c-.2.63-.71.37-.77-.25S51.59,59.64,51.93,60Z"/><path id="Tracé_417" data-name="Tracé 417" class="cls-5" d="M49.68,59.75s.09.54-.25.51-.37-.45-.26-.65a.29.29,0,0,1,.41,0A.23.23,0,0,1,49.68,59.75Z"/><path id="Tracé_418" data-name="Tracé 418" class="cls-5" d="M47.69,61s-.34,1.05-1,.93-.2-.71.2-1.16S47.86,60.61,47.69,61Z"/><path id="Tracé_419" data-name="Tracé 419" class="cls-5" d="M46.87,62.88s0,.54-.31.45S46.64,62.54,46.87,62.88Z"/><path id="Tracé_420" data-name="Tracé 420" class="cls-5" d="M43.15,63.13s-.29.83-.71.77-.18-.62.14-.82S43.2,62.88,43.15,63.13Z"/><path id="Tracé_421" data-name="Tracé 421" class="cls-5" d="M41.61,65s.31.49.12.68-.23.49-.46.37-.28-.56-.2-1S41.41,64.7,41.61,65Z"/><path id="Tracé_422" data-name="Tracé 422" class="cls-5" d="M47.1,63.7s-.54.77-.2.86.8-.43.71-.77A.27.27,0,0,0,47.1,63.7Z"/><path id="Tracé_423" data-name="Tracé 423" class="cls-5" d="M49.74,62.85s-.37.71.08.88.77-.54.69-1S49.88,62.42,49.74,62.85Z"/><path id="Tracé_424" data-name="Tracé 424" class="cls-5" d="M44.71,63.9s-.14.31.08.34.29-.25.18-.42S44.71,63.76,44.71,63.9Z"/><path id="Tracé_425" data-name="Tracé 425" class="cls-5" d="M51.59,63.08s-.29,1.11.17,1a.57.57,0,0,0,.52-.62.28.28,0,0,0,0-.09C52.21,63.05,51.73,62.62,51.59,63.08Z"/><path id="Tracé_426" data-name="Tracé 426" class="cls-5" d="M45.36,61.28s-.25.6-.48.49-.14-.32.11-.49S45.33,61.15,45.36,61.28Z"/><path id="Tracé_427" data-name="Tracé 427" class="cls-5" d="M43.4,64.39s.17.25.06.31S43.09,64.27,43.4,64.39Z"/><path id="Tracé_428" data-name="Tracé 428" class="cls-5" d="M48.92,60.29s0,.31-.26.25S48.72,60,48.92,60.29Z"/><path id="Tracé_429" data-name="Tracé 429" class="cls-5" d="M53.18,61.6s.42.4.4.65-.66,0-.74-.31S53,61.43,53.18,61.6Z"/><path id="Tracé_430" data-name="Tracé 430" class="cls-5" d="M53.29,57.28s-.74.34-.6.94a1,1,0,0,0,.85.82C53.75,59,53.52,57.91,53.29,57.28Z"/><path id="Tracé_431" data-name="Tracé 431" class="cls-5" d="M46.24,65.49l-.56,0c-.12,0-.09-.42.28-.48S46.47,65.41,46.24,65.49Z"/><path id="Tracé_432" data-name="Tracé 432" class="cls-5" d="M53,59.3s0,.31-.14.28S52.78,59,53,59.3Z"/><path id="Tracé_433" data-name="Tracé 433" class="cls-5" d="M51.19,54.15s.2,0,.23.12-.2.28-.26.14S51.1,54.15,51.19,54.15Z"/></g><g id="Groupe_53" data-name="Groupe 53"><path id="Tracé_434" data-name="Tracé 434" class="cls-13" d="M27.91,43.89c-.08.63.46.09.46.09s0,.57,0,.8.42-.2.42-.2a4.21,4.21,0,0,0-.05.94c.05.2,1.19.22,1.81-.17,0,.71,1.08.42,1.51.08.17,1,1.39.26,1.31-.48,1.22.6,1.9.2,1.62-.09.82.43,1.11-.31,1.36-1.3s2.79-6,6.42-6.31A8.22,8.22,0,0,1,41,36.11c-1.3-1.19-14.06,4-14.06,4a3.72,3.72,0,0,0-.43,1.42C27.15,42.19,28,43.13,27.91,43.89Z"/></g><g id="Groupe_54" data-name="Groupe 54" class="cls-6"><path id="Tracé_435" data-name="Tracé 435" class="cls-7" d="M31.44,56.43a6.83,6.83,0,0,1,.88-1.31C32.09,56,34.68,57.31,37,58s3.89,0,3.41-3c-.34-2.79-.63-2.48-.63-2.16s-.22-.63-.17-1c-.62.54-.82-.89.2-2.28s.17.57.09.85.48,0,1.11-.54,1.42,1.68,4.09,4.5a33.7,33.7,0,0,0,6.08,5c1.36.86-1.7-.28-3.47.74s-4.54,2.33-6,3.24a1,1,0,0,1-.31.15,12.16,12.16,0,0,1,1.76-1.28c1.22-.77,4.6-3.13,4.54-3.44a7.19,7.19,0,0,0-1.19-1.45s-.45.54-.54.51,0-.34,0-.34-.74.88-.85.85-.09-.37-.09-.37-2.3,2.56-2.67,3-.65.34-2.13.28a12.54,12.54,0,0,1-6.37-2l-.14.42a1.42,1.42,0,0,1-.23-.6c-.08.09-.85.63-.85.63l.2-.63a11.34,11.34,0,0,1-1.62-.42l.06.56a1.45,1.45,0,0,1-1-1.22,2.07,2.07,0,0,1-.34.66,5.72,5.72,0,0,1,1.45,1.79c1.45-.32,2.22,1.44,2.24,2.16s-.54,1.64-1,1.44c-.25.46-1.16,1.25-1.79,1.14-.2.31-.28.4-1.45.34s-1-2.33-.93-2.7.08-.54-.23-.6a6.08,6.08,0,0,0-1.93-.34,26.32,26.32,0,0,1-2.7,1.37c-1.23.48-2.19-1.06-2.36-3.95a6.65,6.65,0,0,1,0-1c.15.68.94,4.15,2.87,3.07,2.16-1.19,2.36-2.7,3.61-1.71s2.05,1.17,2.48.8-1.37-2.7-3.21-3.63c-1.54-.83-1.94-.66-2.45.08-.85,1.2-.88,2-1.28,1.9s.32-1.7,1-3c.57-1.14,1.53-.77,2.33-.51a2.48,2.48,0,0,1,.34-.8l-2.05-.91.71-.46-.91-.17.63-.62s-1.08-1.31.94-2h-.94s.14-.68,1.28-.83c-.51.32-.51.49-.51.49l.76.14s-2.18,1.14-.45,2.73C29.19,55.29,30.87,57,31.44,56.43Z"/><path id="Tracé_436" data-name="Tracé 436" class="cls-7" d="M45,65.89a1.41,1.41,0,0,1,.91-.34c.54,0,6.14-.54,7.88-2.16.34-.37.34-2,0-3.86a18.27,18.27,0,0,0-1.42-4.67,12,12,0,0,1-.57-6.53A10.34,10.34,0,0,0,51,50.89c-.57,3.06,1.11,5.8,1.79,8.7s.23,3.63-2.42,4.32-7.22.6-6.9,1.47.6,2.73,0,3-.68,0-1.64.06c-1.6.14-1.48-3.19-1.48-3.19h0c-.28,1-.56,2.14-.71,2.87s-1.25,1.62-1.39,3.19c-.11,1.3-.08,1.53,1.19,2.9.77.76,2.16.54,2.33-.23a1.58,1.58,0,0,0,2.23-.1,1.66,1.66,0,0,0,.16-.21c.4.34,1.74,1,2.25-.46s.65-2.64-.15-3.5c0,0-.31-.4-.51-.34-.17-.45-.88-.82-.88-1.16a6.38,6.38,0,0,0-.25-1.45A.67.67,0,0,1,45,65.89Z"/></g><path id="Tracé_437" data-name="Tracé 437" class="cls-4" d="M39.54,69.3A3.36,3.36,0,0,0,39,71.89a1.3,1.3,0,0,0,2.58-.2C41.67,69.93,40.61,68.08,39.54,69.3Z"/><path id="Tracé_438" data-name="Tracé 438" class="cls-4" d="M42.49,69.87s-.17,2.62.51,2.79,1.23-.4,1-2.16S42.49,69,42.49,69.87Z"/><path id="Tracé_439" data-name="Tracé 439" class="cls-4" d="M45.08,69.93a3.38,3.38,0,0,1,.08,1.64c-.2.77.23,1.14.6.89a1.58,1.58,0,0,0,.51-2.18l0,0C45.85,69.47,44.91,69.13,45.08,69.93Z"/><g id="Groupe_55" data-name="Groupe 55"><path id="Tracé_440" data-name="Tracé 440" class="cls-7" d="M31.55,61.6c.68,1.2.93,2.16.2,2.7s-1.51.14-2.36-1.14c.2.86.85,1.65.4,1.77-.68.11-1.2-.54-1.11-1.6s.37-1.44-.65-1.84-1.31-.46-3.41.68-2.87-.23-3.07-.74c.42,1.39,1.13,2,2,1.71a21.38,21.38,0,0,0,2.7-1.37,7.12,7.12,0,0,1,1.93.34c.34.06.31.23.23.6s-.23,2.65.93,2.7,1.25,0,1.45-.34c.63.12,1.51-.68,1.79-1.14.54.2,1.11-.76,1-1.44a2.57,2.57,0,0,0-.2-.72C33.62,63.14,32.6,62.94,31.55,61.6Z"/><path id="Tracé_441" data-name="Tracé 441" class="cls-7" d="M50.31,59.3c-1.22-.6-2.19-.68-2.73-1.34a26.07,26.07,0,0,0-4.41-4c-2.13-1.59-2.41-1.7-2.41-2.38s-.48-.37-.48-.37a5.27,5.27,0,0,0,.14-.69c-1.17.54-1.2,1-1.2,1L40,51l-.26,1.28.57-.71.17,1.13S42.07,54,43.32,55s.88,2.16-.12,3.75-2,2.16-5.6,1.23-4.32-2.39-4.32-2.39,0,1.05-1,.71S30.67,56.51,30.58,57s-.25,1.22-.94.65a19,19,0,0,0-4.09-2.16c-.88-.26-1.45.46-2.16,2.64,1.37-3.18,1.93-2.3,3.18-1.82A12.19,12.19,0,0,1,30,58.61,1.56,1.56,0,0,0,30.3,58a1.44,1.44,0,0,0,1,1.22l-.05-.57a10.18,10.18,0,0,0,1.62.43l-.2.63.85-.63a1.63,1.63,0,0,0,.23.6l.14-.43a12.77,12.77,0,0,0,6.36,2c1.45.06,1.77.09,2.14-.28S45,58,45,58s0,.34.08.37.86-.85.86-.85-.09.28,0,.34.54-.51.54-.51a7.54,7.54,0,0,1,1.19,1.45,8.63,8.63,0,0,1-2.07,1.73,8.41,8.41,0,0,0,1.47-.88C48.37,58.67,49.14,59.1,50.31,59.3Z"/></g><g id="Groupe_56" data-name="Groupe 56"><path id="Tracé_442" data-name="Tracé 442" class="cls-7" d="M45.11,73.08c-.69-.14.11-1.79-.49-2.44,0,1.13-.71,2.73-1.59,2.73s-.57-2.5-1.11-2.68c.2,1.82-.14,3.53-1.93,3-1.48-.48-1.62-2.25-1.62-2.81,0,.14-.06.31-.08.48-.12,1.31-.09,1.53,1.19,2.9.77.77,2.16.54,2.33-.23A1.57,1.57,0,0,0,44,73.9a1.84,1.84,0,0,0,.17-.22c.4.34,1.73,1,2.24-.46a5.38,5.38,0,0,0,.4-2.21C46.7,72.14,45.73,73.22,45.11,73.08Z"/></g><path id="Tracé_443" data-name="Tracé 443" class="cls-11" d="M26.41,45.57s-2.87,2.7-2.05,5.15c-1.28-.69-1.82-1.79-.14-3.61S27.74,43.75,26.41,45.57Z"/><path id="Tracé_444" data-name="Tracé 444" class="cls-11" d="M26.46,57a8.51,8.51,0,0,1,2.87,2.53c.88,1.48.71.15-.34-1S26.46,56.37,26.46,57Z"/><path id="Tracé_445" data-name="Tracé 445" class="cls-11" d="M50.22,60.38s-1.93-.12-6.62,2.73c-1.88,1.59-1.82.45.46-.8S48.86,59.18,50.22,60.38Z"/><path id="Tracé_446" data-name="Tracé 446" class="cls-10" d="M30.13,65.64a6,6,0,0,0,.45.71c.2.22-.22,0-.51-.4S30,65.49,30.13,65.64Z"/><path id="Tracé_447" data-name="Tracé 447" class="cls-10" d="M31.89,64.87a2.18,2.18,0,0,1,.34.4S31.61,64.87,31.89,64.87Z"/><path id="Tracé_448" data-name="Tracé 448" class="cls-10" d="M33.23,63.82s.25.25.25.31S33,63.85,33.23,63.82Z"/><g id="Groupe_57" data-name="Groupe 57"><path id="Tracé_449" data-name="Tracé 449" class="cls-4" d="M31.49,60.63a1.57,1.57,0,0,1,1.45.69c.68.91-.17,1.08-.71.65S31,60.8,31.49,60.63Z"/><path id="Tracé_450" data-name="Tracé 450" class="cls-4" d="M31,61.4s1.08,1.34.77,2.1-1.39.66-2-.54S30,60.49,31,61.4Z"/><path id="Tracé_451" data-name="Tracé 451" class="cls-4" d="M29.19,62.85A3.25,3.25,0,0,0,29.48,64c.28.63-.49.6-.6-.17S29,62.6,29.19,62.85Z"/></g><path id="Tracé_452" data-name="Tracé 452" class="cls-11" d="M39.79,40.51s1.25-2,4.72.17a24.52,24.52,0,0,1,4.72,4.55c1.08,1.14.8,2.56.68,4.15s.46,1.19,1-.85.23-3.47-1.81-5.17-4.27-3.19-3.53-3.24.17-.46-.28-.4-.57-.35-.12-.57-1.47-1.37-3.07-1S38.14,41.48,39.79,40.51Z"/><g id="Groupe_58" data-name="Groupe 58"><path id="Tracé_453" data-name="Tracé 453" class="cls-7" d="M45,65.89a1.41,1.41,0,0,1,.91-.34c.54,0,6.14-.54,7.88-2.16.34-.37.34-2,0-3.86a18.15,18.15,0,0,0-1.42-4.67,11.56,11.56,0,0,1-.74-5.08c-.76,1.82.06,4.46,1,6.73s1.48,5.69.8,6.6-4.26,1.67-6.25,1.9-3,.42-2.76.9a4.51,4.51,0,0,1,.17.52A.81.81,0,0,1,45,65.89Z"/></g></g><g id="Groupe_75" data-name="Groupe 75"><path id="Tracé_454" data-name="Tracé 454" class="cls-4" d="M24.3,33.35s-.51.09-.56-.05.11-.6.11-.6a4.29,4.29,0,0,1-1.79-2.93c-.17-1.88.91-3.44,1.79-3.36a6.51,6.51,0,0,1,2.76,1.17,5.15,5.15,0,0,0,1.3.71,2.74,2.74,0,0,1,2-.4,1.64,1.64,0,0,0-.51-.57,3.67,3.67,0,0,1,1.34.86c-.11-.77.06-.94.06-.94l.48.63s.68-.77,1-.63-.09.82-.09.82a3.82,3.82,0,0,1,2.36.18c.51.14,1.19-.69,1.62-1.43s2-2.18,3.41-1.7c1.05.37,1.9,1.62,1.73,3.47a3.32,3.32,0,0,1-2.87,2.9c.32.2.2.4.2.4l-.48.14.28.37a6.86,6.86,0,0,1,1.65.57,1.49,1.49,0,0,0-.68.2,3.32,3.32,0,0,1,1.56.68l-.48,0A2.32,2.32,0,0,1,42,35.66a1.89,1.89,0,0,0-.77.25s.28,0,.62.4c-.23.06-.45.12-.68.2a1.39,1.39,0,0,1,.51.51c-.82-.14-3.63,1.94-5.51,6-.31.71-.45.91-1.16,1.11.34.26.4.2.42.34s-.62.2-.88.14c.46.29.2.32.14.32s-1.45-.37-1.45-.37a2.27,2.27,0,0,1-.22.8c-.14.14-.4-.63-.4-.63a7.59,7.59,0,0,1-1.22.66c-.2,0,.28-.77.28-.77a3.63,3.63,0,0,1-1.76.65,1.55,1.55,0,0,0,.45-.82,5.88,5.88,0,0,1-1.3.45,2.51,2.51,0,0,1,.56-1s-.76.08-.88.31a6.65,6.65,0,0,1,.51-.65s-.56-.17-.82,0c.09-.14,0-.42,0-.42s-1.13-1.65-2.67-3.67-2.84-2.24-3.24-2.27a9.54,9.54,0,0,1,.57-.85,1.26,1.26,0,0,0-.74.11,1.91,1.91,0,0,1,.4-.74,3.66,3.66,0,0,0-.65.17C22.43,34.85,23.17,34.32,24.3,33.35Z"/><g id="Groupe_60" data-name="Groupe 60"><path id="Tracé_455" data-name="Tracé 455" class="cls-5" d="M27.94,28.86s.17-.48.51-.51.26.11.4.11.15.23.15.51-.06.77-.32.77a.73.73,0,0,1-.75-.71A1,1,0,0,1,27.94,28.86Z"/><path id="Tracé_456" data-name="Tracé 456" class="cls-5" d="M30.21,29.34s-.22.52,0,.63.52-.46.43-.68S30.3,29.12,30.21,29.34Z"/><path id="Tracé_457" data-name="Tracé 457" class="cls-5" d="M31,28.35s0,.37-.31.37-.26-.34-.06-.43S31,28.18,31,28.35Z"/><path id="Tracé_458" data-name="Tracé 458" class="cls-5" d="M31.81,29.29a.28.28,0,0,0-.18.36h0c.08.31.4.11.4-.12S32,29.23,31.81,29.29Z"/><path id="Tracé_459" data-name="Tracé 459" class="cls-5" d="M32.57,29.63s-.08.28.12.4.25-.14.2-.29S32.63,29.49,32.57,29.63Z"/><path id="Tracé_460" data-name="Tracé 460" class="cls-5" d="M31.15,30.4a1.31,1.31,0,0,0,0,.68c.12.28.4.28.4-.17S31.35,30,31.15,30.4Z"/><path id="Tracé_461" data-name="Tracé 461" class="cls-5" d="M30.1,30.65s0,.43-.2.48-.6-.17-.45-.42S30.1,30.34,30.1,30.65Z"/><path id="Tracé_462" data-name="Tracé 462" class="cls-5" d="M33.34,28.69a.51.51,0,0,0,.2.6.59.59,0,0,0,.77-.57.53.53,0,0,0-.69-.29A.55.55,0,0,0,33.34,28.69Z"/><path id="Tracé_463" data-name="Tracé 463" class="cls-5" d="M32.09,28.32s-.11.46.11.6.43-.26.43-.51S32.32,27.89,32.09,28.32Z"/><path id="Tracé_464" data-name="Tracé 464" class="cls-5" d="M32.29,30.54a.84.84,0,0,0-.11.6c.08.28.42.28.6-.14S32.49,30.2,32.29,30.54Z"/><path id="Tracé_465" data-name="Tracé 465" class="cls-5" d="M30,31.84s0,.37.17.4.26-.22.14-.45S30,31.62,30,31.84Z"/><path id="Tracé_466" data-name="Tracé 466" class="cls-5" d="M31.35,32.21s-.08.29.09.32.17-.17.14-.26S31.38,32.07,31.35,32.21Z"/><path id="Tracé_467" data-name="Tracé 467" class="cls-5" d="M31.32,31.62s-.25-.32-.45-.09.11.34.25.32S31.47,31.73,31.32,31.62Z"/><path id="Tracé_468" data-name="Tracé 468" class="cls-5" d="M32.74,31.76a.46.46,0,0,0,.06.45c.17.23.31.15.26-.22S32.8,31.5,32.74,31.76Z"/><path id="Tracé_469" data-name="Tracé 469" class="cls-5" d="M29.19,28.61s-.06.22.12.28S29.31,28.29,29.19,28.61Z"/><path id="Tracé_470" data-name="Tracé 470" class="cls-5" d="M24.3,33.92a.41.41,0,0,0,0,.4c.12.23.26,0,.26-.2S24.42,33.78,24.3,33.92Z"/><path id="Tracé_471" data-name="Tracé 471" class="cls-5" d="M24.87,34.77a1.16,1.16,0,0,0,0,.37c0,.2.23.14.29-.08S25,34.52,24.87,34.77Z"/><path id="Tracé_472" data-name="Tracé 472" class="cls-5" d="M23.48,35.28s-.06.43.17.6.6-.08.54-.48S23.62,34.77,23.48,35.28Z"/><path id="Tracé_473" data-name="Tracé 473" class="cls-5" d="M23.42,34.4s-.28.12-.23.37S23.73,34.4,23.42,34.4Z"/><path id="Tracé_474" data-name="Tracé 474" class="cls-5" d="M24.5,36.45s-.17.37,0,.51.37-.14.34-.37S24.64,36.22,24.5,36.45Z"/><path id="Tracé_475" data-name="Tracé 475" class="cls-5" d="M23.39,36.62s-.22.11,0,.4.51.14.4-.17S23.48,36.53,23.39,36.62Z"/><path id="Tracé_476" data-name="Tracé 476" class="cls-5" d="M25,37.81s-.09.2.08.26.28-.09.17-.2S25,37.7,25,37.81Z"/><path id="Tracé_477" data-name="Tracé 477" class="cls-5" d="M25.33,36.53s0,.23.14.23S25.47,36.28,25.33,36.53Z"/><path id="Tracé_478" data-name="Tracé 478" class="cls-5" d="M37.4,35.68s-.08.62.23.62.23-.48.12-.62S37.43,35.54,37.4,35.68Z"/><path id="Tracé_479" data-name="Tracé 479" class="cls-5" d="M38.83,34.91s-.32.32-.12.52.43,0,.43-.32S38.94,34.77,38.83,34.91Z"/><path id="Tracé_480" data-name="Tracé 480" class="cls-5" d="M37.55,34.6s-.2.23,0,.26S37.72,34.49,37.55,34.6Z"/><path id="Tracé_481" data-name="Tracé 481" class="cls-5" d="M38.6,33.32s-.14.23.06.34.28-.17.2-.31S38.66,33.2,38.6,33.32Z"/><path id="Tracé_482" data-name="Tracé 482" class="cls-5" d="M38.71,36s-.4.22-.37.56.12.2.09.34.2.32.4.2.31-.31.31-.68S38.94,35.88,38.71,36Z"/><path id="Tracé_483" data-name="Tracé 483" class="cls-5" d="M37.86,37.76a.46.46,0,0,0-.09.36c0,.26.29.52.52.26s.2-.54,0-.62S38,37.61,37.86,37.76Z"/><path id="Tracé_484" data-name="Tracé 484" class="cls-5" d="M39.34,38s-.23-.22-.32,0,.09.34.23.25S39.37,38.07,39.34,38Z"/><path id="Tracé_485" data-name="Tracé 485" class="cls-5" d="M39.76,36.93s-.09.26,0,.28a.16.16,0,0,0,.2-.12v0C40,37,39.85,36.76,39.76,36.93Z"/><path id="Tracé_486" data-name="Tracé 486" class="cls-5" d="M40,35.54s-.31.4.09.51.45-.37.34-.54a.25.25,0,0,0-.35-.06Z"/><path id="Tracé_487" data-name="Tracé 487" class="cls-5" d="M40.16,34.37s-.08.32.09.32.11-.26,0-.34S40.19,34.26,40.16,34.37Z"/></g><g id="Groupe_61" data-name="Groupe 61"><path id="Tracé_488" data-name="Tracé 488" class="cls-14" d="M41.9,35.62a2.37,2.37,0,0,0-1.51-1.79l.48,0a3.44,3.44,0,0,0-1.56-.69,1.78,1.78,0,0,1,.68-.2,7.3,7.3,0,0,0-1.65-.56L38.06,32l.48-.15s.12-.2-.2-.4a3.42,3.42,0,0,0,2.67-2c-1.22,1.9-3.24,1-2.27.34,1.53-.94,2.07-3.47,1-4s-1.68-.08-2.47.74-1.45.91-.31-.48a4.09,4.09,0,0,1,1.33-1,4.23,4.23,0,0,0-2.27,1.74c-.43.73-1.11,1.56-1.62,1.42A3.75,3.75,0,0,0,32.09,28s.37-.69.08-.83h-.08a1.1,1.1,0,0,1-.17.85c1.39.09,3.72.29,4.83,2.62.51,1.14.57,3.3-.66,3a12,12,0,0,1,2,1.14,2.14,2.14,0,0,1,2.07-.45c-1.19.19-1.34.54-1.34.54a1.54,1.54,0,0,1,1.45.54c-.37-.06-1.47.65-1.47.65a6.08,6.08,0,0,1-.94,2.24c-.63.69-1.48-.42-1.68-1-.6-1.62-1.11-2.67-.8-3.33s-.51-.34-1,.09-.49.6-.06,1.31,1.31,2.38-.17,1.53a6.3,6.3,0,0,0-4.86-.06c-1.05.46-.86-.14,0-1.3.57-.77.94-1.08,0-1.45-1.31-.49-1.39-.34-.68.22s-.09,1.23-.66,2.25-1.16,3-2.16,1.7-.82-2-.82-2a6.68,6.68,0,0,0-1.25.22c.23-.56,1.34-.88,1.34-.88s-.83-.6-1.37-.25c.06-.2,1.14-1,1.79-.4a3.73,3.73,0,0,1,1.8-1.25c-1,.34-1.65.12-1.53-.8.76-4.43,3.24-5.11,3.24-5.11h0a2.44,2.44,0,0,0-1.11.4,5.71,5.71,0,0,1-1.31-.71c-.31-.2-.6-.37-.85-.52a2.8,2.8,0,0,1,.82,1.08c.34,1.14-.91-.36-1.45-.82s-1.65-1.14-2.36.23.4,3,2.08,3.72c.62.34.23.91.17,1.34s-1-.43-1.76-.91a3.34,3.34,0,0,1-.63-.43,4.78,4.78,0,0,0,1.28,1.37s-.17.45-.11.6.57.05.57.05A6.62,6.62,0,0,0,22,35.77a2.91,2.91,0,0,1,.66-.17,1.75,1.75,0,0,0-.4.73,1.41,1.41,0,0,1,.73-.11s-.2.26-.56.85c.4,0,1.79.34,3.24,2.28S28.34,43,28.34,43s.11.29,0,.43c.25-.2.82,0,.82,0a4.51,4.51,0,0,0-.48.6c.17-.2.85-.25.85-.25a2.53,2.53,0,0,0-.57,1,5.51,5.51,0,0,0,1.31-.46,1.54,1.54,0,0,1-.45.83,3.64,3.64,0,0,0,1.76-.66s-.48.77-.29.77a7.23,7.23,0,0,0,1.23-.65s.25.76.4.62a2.22,2.22,0,0,0,.22-.8s1.37.4,1.45.37.32,0-.14-.31c.26,0,.88,0,.88-.14s-.08-.09-.42-.35c.71-.2.88-.4,1.16-1.1,1.88-4,4.69-6.11,5.51-6a1.39,1.39,0,0,0-.51-.51,5.82,5.82,0,0,1,.68-.2c-.34-.43-.62-.4-.62-.4A2.69,2.69,0,0,1,41.9,35.62Z"/></g><path id="Tracé_489" data-name="Tracé 489" class="cls-15" d="M26.89,34A19.61,19.61,0,0,1,37,34a4.58,4.58,0,0,0-1.65-.62s.23-1.51-.48-1.48-.43,1.31-.43,1.31a19.83,19.83,0,0,0-5.6.08c.15-1.11-.14-1.31-.42-1.28s-.66.54-.37,1.37A3.65,3.65,0,0,0,26.89,34Z"/><g id="Groupe_62" data-name="Groupe 62"><path id="Tracé_490" data-name="Tracé 490" class="cls-10" d="M31.47,37.67a5.28,5.28,0,0,0-4.92,3l1.79,2.47a.66.66,0,0,1,0,.43c.25-.2.82,0,.82,0a4.67,4.67,0,0,0-.48.6c.17-.2.85-.26.85-.26a2.65,2.65,0,0,0-.57,1,6.18,6.18,0,0,0,1.31-.46,1.5,1.5,0,0,1-.46.83,3.64,3.64,0,0,0,1.77-.66s-.49.77-.29.77a7.48,7.48,0,0,0,1.22-.65s.26.76.4.62a2,2,0,0,0,.23-.8s1.37.4,1.45.37.31,0-.14-.31c.25,0,.88,0,.88-.15s-.09-.08-.43-.34c.71-.2.88-.4,1.17-1.1a15.75,15.75,0,0,1,1.31-2.34C36.55,38.69,34.51,37.61,31.47,37.67Z"/><path id="Tracé_491" data-name="Tracé 491" class="cls-4" d="M28.68,44.18l0,0Z"/></g><g id="Groupe_63" data-name="Groupe 63"><path id="Tracé_492" data-name="Tracé 492" d="M28.65,32.9c0,.37-.14.65-.28.62s-.26-.31-.26-.65.14-.66.29-.63S28.65,32.56,28.65,32.9Z"/><path id="Tracé_493" data-name="Tracé 493" class="cls-1" d="M28.57,32.7c0,.14,0,.25-.12.25s-.11-.11-.14-.25,0-.26.11-.26S28.57,32.56,28.57,32.7Z"/></g><g id="Groupe_64" data-name="Groupe 64"><path id="Tracé_494" data-name="Tracé 494" d="M35.1,32.75c0,.37-.14.66-.28.63s-.26-.31-.26-.65.15-.63.29-.63S35.1,32.41,35.1,32.75Z"/><path id="Tracé_495" data-name="Tracé 495" class="cls-1" d="M35,32.56c0,.14,0,.25-.12.25s-.11-.11-.14-.25,0-.26.12-.26S35,32.41,35,32.56Z"/></g><path id="Tracé_496" data-name="Tracé 496" class="cls-15" d="M28.11,34s.43.48.63.68.25.28-.2,1.05a9.26,9.26,0,0,0-1.28,2.89A7.61,7.61,0,0,0,28,40.93,4.19,4.19,0,0,1,28.17,37c1.19-1.95,1.39-2.24,1.19-2.44S28.14,33.75,28.11,34Z"/><path id="Tracé_497" data-name="Tracé 497" class="cls-15" d="M35.47,33.89s-.6.57-.14,1.85,1.28,3.66,1.25,3.81-1.14-3-1.48-3.67-.8-1-.62-1.36S35.73,33.35,35.47,33.89Z"/><path id="Tracé_498" data-name="Tracé 498" class="cls-16" d="M22.88,27.81s.46-1,1-.88,2.39,1.65,2.44,2.44c-.8.23-.88.57-.88.57l.51.2s-.82.4-.54.94c0,0-.22.05-1.39-.68S22.48,28.86,22.88,27.81Z"/><path id="Tracé_499" data-name="Tracé 499" class="cls-16" d="M39.68,26.16a1.3,1.3,0,0,0-1-.31,5.05,5.05,0,0,0-1.88,1.82c-.37.71.26.76.51,1s-.2.48-.2.48.31.23.34.32-.37,0-.28.51C37.23,30.28,40.64,29.06,39.68,26.16Z"/><path id="Tracé_500" data-name="Tracé 500" class="cls-17" d="M22.91,27.75a2.43,2.43,0,0,1,.31-.54.87.87,0,0,1,.23-.2,1.15,1.15,0,0,1,.31-.11h.17a.4.4,0,0,1,.15,0,1,1,0,0,1,.28.11l.26.17a2.09,2.09,0,0,1,.22.2c.09.06.15.14.23.2l.23.2.22.23.23.22c.06.09.14.15.2.23s.14.17.2.26.06.08.09.14.05.08.05.14a.57.57,0,0,1,.06.31v0h0a5.08,5.08,0,0,0-.51.17,1.14,1.14,0,0,0-.23.15l-.08.08s0,0,0,.06,0,0,0,.05l0,0h.12l0,0,.12.06s0,0,.05,0a.83.83,0,0,0,.12.08.22.22,0,0,0-.12-.05s0,0-.05,0,0,0-.06,0,0,0-.06,0l-.06,0h-.14v0s0-.06,0-.06a.05.05,0,0,1,0-.05.83.83,0,0,0,.08-.12l.23-.17a1.87,1.87,0,0,1,.51-.2l0,.06a.93.93,0,0,0-.05-.29c0-.05,0-.08-.06-.14a.44.44,0,0,0-.08-.11,1.3,1.3,0,0,0-.18-.23c-.05-.08-.14-.14-.2-.23l-.42-.42L25,27.67a1.5,1.5,0,0,0-.23-.2c-.08-.06-.14-.14-.22-.2l-.26-.17a.8.8,0,0,0-.25-.11l-.15,0h-.14a.54.54,0,0,0-.28.08.74.74,0,0,0-.23.2A2.83,2.83,0,0,0,22.91,27.75Z"/><path id="Tracé_501" data-name="Tracé 501" class="cls-17" d="M39.68,26.16,39.45,26s-.08,0-.11-.06-.09,0-.12-.05-.08,0-.14,0-.08,0-.14,0H38.8l-.14,0-.12.05a.17.17,0,0,0-.11.06s-.09,0-.12.06l-.11.08a.31.31,0,0,1-.11.09L38,26.3l-.17.2h0l-.37.4c-.11.14-.26.26-.37.4s-.11.14-.17.2a.68.68,0,0,0-.14.23s0,.09-.06.11v.22s0,.09,0,.12h0a.92.92,0,0,0,.26.22,2.83,2.83,0,0,1,.28.2s.06.06.06.09a.08.08,0,0,1,0,.08v.09s0,.06,0,.09,0,.05-.06.08,0,.06-.06.06,0,.06,0,.06-.06,0-.09.05.06,0,.09-.05l0-.06s0-.06.06-.09,0-.05,0-.08,0-.06,0-.09v-.08a.16.16,0,0,0,0-.09l-.06-.05a2,2,0,0,0-.31-.2,1.28,1.28,0,0,1-.29-.23h0c0-.06,0-.08,0-.14V27.9c0-.06,0-.09,0-.15s0-.08.06-.14a1.64,1.64,0,0,1,.14-.22,1.12,1.12,0,0,1,.17-.2c.23-.29.49-.52.74-.8h0l.17-.2.23-.18.11-.08a.34.34,0,0,1,.12-.06.27.27,0,0,1,.14-.05l.14,0,.14,0H39a.17.17,0,0,1,.14,0c.06,0,.08,0,.14,0s.09,0,.11.05l.12.09Z"/><g id="Groupe_65" data-name="Groupe 65" class="cls-6"><path id="Tracé_502" data-name="Tracé 502" class="cls-16" d="M26.32,29.37c-.06-.8-1.93-2.36-2.44-2.44s-.77.48-.91.74l.06-.09s.88-.88,2.16.94c.51,1.05-1.28,2.33-2.39.48A2.6,2.6,0,0,0,24,30.37c1.17.76,1.39.68,1.39.68-.28-.54.54-.94.54-.94l-.51-.2S25.53,29.6,26.32,29.37Z"/></g><g id="Groupe_66" data-name="Groupe 66"><path id="Tracé_503" data-name="Tracé 503" class="cls-18" d="M37.86,27.1c.8-1.05,1.48-1,1.82-.91v0a1.3,1.3,0,0,0-1-.31,5.05,5.05,0,0,0-1.88,1.82c-.37.71.26.76.51,1s-.2.48-.2.48.31.23.34.32-.37,0-.28.51c.06.2,1.7-.31,2.39-1.59C38.43,29.6,37,28.26,37.86,27.1Z"/></g><path id="Tracé_504" data-name="Tracé 504" class="cls-4" d="M27.63,31.22a.78.78,0,0,1,1.07-.29.87.87,0,0,1,.21.17c-.29-.56-.68-.9-.86-.68A4.69,4.69,0,0,0,27.63,31.22Z"/><path id="Tracé_505" data-name="Tracé 505" class="cls-19" d="M27.6,31.05a.77.77,0,0,1,1-.31.71.71,0,0,1,.23.19c-.28-.56-.68-.9-.85-.68A4.73,4.73,0,0,0,27.6,31.05Z"/><path id="Tracé_506" data-name="Tracé 506" class="cls-4" d="M33.91,31a1,1,0,0,1,1.43-.2l.1.09c-.34-.57-.8-.91-1-.68A6.12,6.12,0,0,0,33.91,31Z"/><path id="Tracé_507" data-name="Tracé 507" class="cls-19" d="M33.88,30.79a1,1,0,0,1,1.45-.21l.09.07c-.34-.57-.8-.91-1-.68A4.47,4.47,0,0,0,33.88,30.79Z"/><g id="Groupe_67" data-name="Groupe 67"><path id="Tracé_508" data-name="Tracé 508" class="cls-20" d="M36.47,39.26c-.15,2.39-2.33,3.47-3,3s-1.34-1.2-.69-1.34a4.49,4.49,0,0,0,2.67-2.47,7.9,7.9,0,0,0-3.89-.8,5.62,5.62,0,0,0-3.38,1.1,5,5,0,0,0,2.7,2.08c.57.08,0,1.22-.54,1.48s-2.16-.83-2.67-3.13a5.07,5.07,0,0,0-1,1.42c.86,1.17,1.51,2.08,1.71,2.39.08-.2.14-.34.22-.37.26-.17,1.17,1.42,2.05.74s1.17-.88,2.33-.37,1.79,1,.94,1c.51.32.23.54-.54.23-.57-.23-.14.43-.26,1a2.54,2.54,0,0,0,.17-.71s1.37.4,1.45.37.32,0-.14-.32c.26.06.88,0,.88-.14s-.08-.08-.42-.34c.71-.2.88-.4,1.16-1.11a16.16,16.16,0,0,1,1.31-2.33A6.45,6.45,0,0,0,36.47,39.26Z"/></g><path id="Tracé_509" data-name="Tracé 509" class="cls-21" d="M27.86,40.57a8.83,8.83,0,0,0,1.7,2.33c.63.28,1.51-.54,1.76-.91a2.68,2.68,0,0,0,.23-1.34c.14.8,0,1.06.88,1.6s1.74,1,2.3.48a5.24,5.24,0,0,0,1.77-3A2.8,2.8,0,0,1,36,41.37c-.57.93-1.22,1.64-1.62,1.73a4,4,0,0,1-2.3-.88c-.45-.37-.65-.14-.88.11s-1,.88-1.51.83A4.94,4.94,0,0,1,27.86,40.57Z"/><g id="Groupe_70" data-name="Groupe 70"><g id="Groupe_68" data-name="Groupe 68"><path id="Tracé_510" data-name="Tracé 510" d="M29.25,41.17l-.2.08c-.18.07-.36.14-.54.23a2,2,0,0,1-.34.14,2.64,2.64,0,0,0-.37.2l-.4.2a3,3,0,0,0-.4.23l-.4.25c-.13.08-.25.17-.37.26l-.34.25-.31.23a1.64,1.64,0,0,1-.26.2l-.2.17-.17.14.14-.14.17-.17.23-.23.28-.25.34-.26.37-.25.4-.26a3.55,3.55,0,0,1,.43-.23l.4-.2.4-.17a2.35,2.35,0,0,1,.37-.14,1.63,1.63,0,0,1,.31-.11l.23-.09A.4.4,0,0,1,29.25,41.17Z"/><path id="Tracé_511" data-name="Tracé 511" d="M29.9,41.48l-.14.06a1.09,1.09,0,0,0-.17.05,1.57,1.57,0,0,1-.23.09l-.25.08-.29.12-.62.25a1.75,1.75,0,0,1-.32.12c-.11,0-.2.08-.31.14l-.54.23c-.17.05-.28.11-.4.14l-.14.05.14-.08c.09-.06.23-.11.37-.2l.54-.26.31-.14.32-.11a5,5,0,0,1,.65-.23,1,1,0,0,1,.28-.08l.29-.09c.17-.06.31-.08.4-.11A.2.2,0,0,1,29.9,41.48Z"/><path id="Tracé_512" data-name="Tracé 512" d="M29.53,42.13a.53.53,0,0,0-.14.12c-.08,0-.2.17-.34.25s-.31.23-.51.37l-.6.43c-.2.14-.4.28-.6.4a3.48,3.48,0,0,0-.51.34,3.13,3.13,0,0,0-.37.23l-.15.08a.58.58,0,0,0,.15-.11L26.8,44l.51-.37.6-.42a7,7,0,0,1,.6-.4,4.52,4.52,0,0,0,.51-.34,2.85,2.85,0,0,1,.37-.23Z"/><path id="Tracé_513" data-name="Tracé 513" d="M29.93,42.13a.32.32,0,0,1-.11.12l-.31.31c-.15.11-.29.28-.46.43s-.34.31-.51.48-.37.34-.54.48l-.48.4c-.15.12-.26.23-.35.29l-.14.11a.25.25,0,0,1,.12-.11,2.34,2.34,0,0,1,.31-.32c.14-.11.28-.28.45-.42l.52-.49c.17-.17.37-.34.54-.48l.48-.4a4,4,0,0,1,.34-.28A.53.53,0,0,1,29.93,42.13Z"/></g><g id="Groupe_69" data-name="Groupe 69"><path id="Tracé_514" data-name="Tracé 514" d="M33.6,42.1a.49.49,0,0,0,.17.06l.42.14.63.23c.22.08.45.2.71.28s.48.2.68.32l.6.31.23.11a.66.66,0,0,0,.17.12l.14.08-.17-.08L37,43.58l-.23-.11-.28-.14c-.11-.06-.2-.09-.31-.14S36,43.1,35.85,43a2.13,2.13,0,0,0-.35-.14c-.22-.11-.48-.2-.68-.31s-.4-.18-.6-.29A2.8,2.8,0,0,1,33.6,42.1Z"/><path id="Tracé_515" data-name="Tracé 515" d="M33.91,41.79a.47.47,0,0,1,.17,0,3.34,3.34,0,0,0,.43.08c.17,0,.37.09.6.15s.45.14.68.2.23.08.34.11a1.93,1.93,0,0,1,.34.11l.57.23a2,2,0,0,1,.4.17l.14.06a.85.85,0,0,0-.17-.06L37,42.73l-.6-.2-.68-.23-.34-.11L35,42.07a5,5,0,0,1-.6-.17L34,41.76a.06.06,0,0,1-.08,0Z"/><path id="Tracé_516" data-name="Tracé 516" d="M34.48,41.48h2.19a5.4,5.4,0,0,1,.8,0l.71,0c.2,0,.37,0,.48,0h-2a5.3,5.3,0,0,1-.8,0l-.71,0c-.2,0-.37,0-.49,0Z"/><path id="Tracé_517" data-name="Tracé 517" d="M34.28,41h.23a3.46,3.46,0,0,1,.56,0c.23,0,.52,0,.83.06.14,0,.31,0,.45.06l.49.08.48.09.45.11c.15,0,.29.09.43.11a1.31,1.31,0,0,1,.37.15,1.23,1.23,0,0,1,.31.14c.06,0,.09,0,.12.06s0,0,.08,0l.17.12-.2-.12s0,0-.11,0-.09,0-.12-.06-.2-.09-.31-.12-.23-.08-.37-.11-.25-.08-.42-.11-.29-.09-.46-.12a1.32,1.32,0,0,1-.23,0c-.08,0-.17,0-.22,0l-.49-.09a2.22,2.22,0,0,0-.45,0c-.28,0-.57-.09-.82-.12a3.66,3.66,0,0,0-.57-.05Z"/></g></g><g id="Groupe_73" data-name="Groupe 73"><path id="Tracé_518" data-name="Tracé 518" class="cls-19" d="M29.05,37.59a6.26,6.26,0,0,1,1.28-.37,6.85,6.85,0,0,1,2.78,0c1.53.25,2.84.85,1.22,2.24-1.39,1.14-1.93,1.57-3.07,1.28-.85-.2-3.52-1.53-3-2.56A1.65,1.65,0,0,1,29.05,37.59Z"/><path id="Tracé_519" data-name="Tracé 519" class="cls-19" d="M32.75,40.6a1.39,1.39,0,0,1,.48-1.05c.51-.35.6-.77-.11-.6s-.88.51-.71.9A6.36,6.36,0,0,0,32.75,40.6Z"/><path id="Tracé_520" data-name="Tracé 520" class="cls-19" d="M30.53,40.43a1.26,1.26,0,0,0-.71-.74c-.52-.17-.4-.4,0-.37s.72.71.83,1.16Z"/><g id="Groupe_71" data-name="Groupe 71" class="cls-6"><path id="Tracé_521" data-name="Tracé 521" class="cls-19" d="M33.46,37.24c.73.2,1.59.49,1.44.77-.22.48-2.07.57-2.5,1.05a1.31,1.31,0,0,1-1.84.15c-.66-.52-.88-.26-1.85-.57-.31-.09-.4-.26-.4-.43-.37,1,2.16,2.28,3,2.47,1.14.29,1.68-.14,3.07-1.28S34.85,37.53,33.46,37.24Z"/></g><g id="Groupe_72" data-name="Groupe 72"><path id="Tracé_522" data-name="Tracé 522" class="cls-1" d="M34.11,37.73c0,.06-.17.06-.34,0s-.29-.14-.26-.2.17-.06.34,0S34.14,37.67,34.11,37.73Z"/><path id="Tracé_523" data-name="Tracé 523" class="cls-1" d="M29,37.81a9,9,0,0,1,4.07-.25C33.77,37.7,32.12,36.65,29,37.81Z"/></g></g><path id="Tracé_524" data-name="Tracé 524" class="cls-1" d="M29.11,33.32a18.06,18.06,0,0,1,5.14,0A9.45,9.45,0,0,0,29.11,33.32Z"/><g id="Groupe_74" data-name="Groupe 74"><path id="Tracé_525" data-name="Tracé 525" class="cls-4" d="M28.68,44.18l0,0Z"/></g><path id="Tracé_526" data-name="Tracé 526" class="cls-11" d="M29.93,36.65s.14-3.27,1.76-3.33,1.71,3.33,1.71,3.33A5.71,5.71,0,0,0,29.93,36.65Z"/><path id="Tracé_527" data-name="Tracé 527" class="cls-11" d="M27.6,29.29a5.37,5.37,0,0,0-1.08,4.15C25.81,32.5,26.21,30.42,27.6,29.29Z"/></g></g></g><g id="Groupe_78" data-name="Groupe 78"><path id="Tracé_528" data-name="Tracé 528" class="cls-22" d="M81.26,37.47c-.77.34-1.51.71-2.25,1.11s-1.19.8-1.79,1.16c-.06,0,0,.15.06.12.71-.34,1.36-.77,2.07-1.11a14.14,14.14,0,0,0,2.05-1A.14.14,0,0,0,81.26,37.47Z"/><path id="Tracé_529" data-name="Tracé 529" class="cls-22" d="M84.58,38c-3.64.88-6.88,3-10.09,4.8A52.77,52.77,0,0,0,70.06,46a16.55,16.55,0,0,0-2.13,1.79c-.54.51-1,1.1-1.54,1.62-.06,0,0,.14.06.08.51-.43.88-1,1.39-1.39.71-.6,1.37-1.22,2.13-1.76,1.51-1.08,3-2.19,4.66-3.13a61.43,61.43,0,0,1,10-4.92C84.75,38.18,84.7,38,84.58,38Z"/><path id="Tracé_530" data-name="Tracé 530" class="cls-22" d="M83.73,30a39.3,39.3,0,0,0-5.91,2.78,52.67,52.67,0,0,0-5.69,3.27A64.37,64.37,0,0,0,62,44.58c-.06.06,0,.11.06.08a16.2,16.2,0,0,0,2.24-1.9c.82-.76,1.68-1.5,2.56-2.21,1.73-1.4,3.5-2.7,5.34-3.93a61.16,61.16,0,0,1,6-3.44c.94-.45,1.85-.93,2.79-1.42s2-.82,2.87-1.39a.2.2,0,0,0,0-.28A.2.2,0,0,0,83.73,30Z"/><path id="Tracé_531" data-name="Tracé 531" class="cls-22" d="M77.65,30.11a45.11,45.11,0,0,0-11.57,6.54c-.62.49-1.22,1-1.79,1.56A11.06,11.06,0,0,1,63,39.46s0,.09,0,.06a6.5,6.5,0,0,0,1.05-.83c.63-.45,1.2-1,1.79-1.5a34.46,34.46,0,0,1,3.9-2.67c2.58-1.59,5.28-2.9,8-4.29C77.82,30.22,77.76,30.08,77.65,30.11Z"/><path id="Tracé_532" data-name="Tracé 532" class="cls-22" d="M83.27,40.68A45.42,45.42,0,0,0,76.48,44c-1,.57-2,1.19-2.9,1.82S71.74,47.31,70.77,48c-.06,0,0,.11.06.08.93-.57,1.79-1.3,2.7-1.93a34.38,34.38,0,0,1,3.3-2C79,43,81.15,41.93,83.36,40.91A.12.12,0,0,0,83.27,40.68Z"/></g></g></g></svg>