<svg xmlns="http://www.w3.org/2000/svg" width="466.09" height="455.959" viewBox="0 0 466.09 455.959"><defs><style>.a{opacity:0.1;}.b{fill:#f4b321;}.c{fill:#575d90;}</style></defs><g class="a" transform="translate(-125.69 -144.33)"><g transform="translate(158.051 170.067)"><path class="b" d="M530.455,724.308a8.67,8.67,0,0,0-5.074-4.008c-3.739,10.953,4.273,32.585,4.807,45.405a218.857,218.857,0,0,1-2.938,47.541,222.065,222.065,0,0,1-36.057,90.007c-7.745,11.219-16.559,21.9-26.975,30.449C432.436,960.408,388.9,968.153,347.5,970.289c-7.479.268-16.559,1.87-18.962,8.814-2.137,6.144,1.6,14.958-3.74,18.7-5.075,3.2-11.218-2.673-12.553-8.548s-.267-12.286-3.472-17.36c-4.273-6.942-14.69-7.477-22.168-4.272s-13.354,9.347-20.3,13.621c-14.423,9.081-32.584,10.682-49.411,8.546,1.336,5.876,8.013,8.28,13.888,9.615,41.4,10.15,84.666,16.025,127.132,11.751,42.466-4.54,84.665-19.762,116.448-48.339,31.249-28.044,51.279-67.574,59.559-108.7,8.547-41.133,6.143-84.131-2.136-125.262A15.4,15.4,0,0,0,530.455,724.308Z" transform="translate(-105.553 -582.343)"/><path class="b" d="M307,801.669h0v0Z" transform="translate(44.988 -446.839)"/><path class="b" d="M296.6,807.769h0l.267-.269Z" transform="translate(27.612 -436.646)"/><path class="b" d="M334.1,1046.714c.267,0,.267-.269,0,0-58.224-18.166-106.566-67.574-121.79-126.866s4.274-126.6,49.41-167.73c27.51-25.1,63.566-40.328,100.424-44.87,38.994-4.806,79.59,2.4,113.51,22.172S536.546,781.5,547.5,819.157c12.019,41.665,4.274,88.137-16.826,126.063-14.957,26.975-36.857,50.746-65.168,62.765-6.41,2.67-16.292,3.471-18.161-3.205-1.87-5.878,4.807-10.684,10.416-13.889,42.466-23.5,73.18-68.372,77.454-116.982s-19.5-98.821-60.628-124.727c-16.559-10.418-35.255-16.826-54.485-20.565-56.087-10.684-118.852,4.274-157.312,46.738-21.1,23.238-33.919,53.153-37.124,84.4a158.685,158.685,0,0,0,117.516,170.132c6.143-13.086,3.473-28.311-1.869-41.665-5.609-13.086-13.888-25.106-19.5-38.192-15.491-34.721-12.82-74.25-9.348-112.176q2.4-24.437,4.807-48.876c.535-4.806,1.069-9.884,4.541-13.623,3.205-3.471,10.149-4.272,12.552,0,1.069,1.6,1.069,3.74,1.069,5.609.267,52.882-19.5,108.439,1.068,157.046,10.95,25.906,33.385,50.211,28.043,77.987-1.335,7.745-2.937,18.7,4.541,20.3,4.273.8,8.28-2.939,9.615-6.945,1.335-4.274.534-8.546.534-13.086-1.068-30.446,22.7-55.823,30.714-85.467,4.808-17.895,4.006-36.859,3.2-55.555-1.335-30.981-1.6-62.228-1.335-93.48,0-4.54,1.869-10.682,6.41-10.15,3.205.269,4.808,4.274,5.875,7.479,13.889,53.685,25.641,112.444,3.472,163.456-6.41,14.421-15.224,27.776-21.634,42.2s-10.149,30.981-5.875,46.2a9.485,9.485,0,0,0,3.472,5.878c1.87,1.333,4.274,1.6,6.677,1.6,47.274,1.335,96.15-15.225,128.467-49.943,42.732-45.673,51.013-114.849,38.46-176.01-8.814-42.732-27.777-85.2-62.23-111.9-28.044-21.637-63.833-30.715-99.088-31.784-76.385-2.136-157.846,19.5-200.846,87.068-22.168,34.723-33.119,75.585-37.658,116.714-3.74,32.585-3.472,66.507,8.814,96.951,13.621,33.92,41.665,61.164,74.516,77.455C283.619,1059.263,314.868,1064.34,334.1,1046.714Zm33.919-260.141c0,2.939-.267,6.144-.534,9.08a566.71,566.71,0,0,0-2.938,102.026c.267,5.875.8,12.286-2.136,17.629-2.938,5.075-10.416,8.28-14.957,4.274-3.205-2.939-3.472-7.748-3.472-12.019q.4-54.088.8-108.17c0-2.936,2.4-20.3,4.808-21.632,6.944-4.008,13.355-9.618,17.628,2.4A23.364,23.364,0,0,1,368.017,786.572Zm30.448,132.207a16.269,16.269,0,0,1-3.205,1.335c-5.876,1.338-11.752-2.937-14.423-8.28s-2.671-11.485-2.671-17.626V784.17c0-8.282,9.081-18.964,16.025-8.548,2.136,3.205,2.67,7.479,2.67,11.219C397.93,800.461,404.073,914.773,398.465,918.779Z" transform="translate(-175.21 -668.647)"/></g><g transform="translate(125.69 144.33)"><path class="c" d="M426.188,1073.5a7.934,7.934,0,0,0-8.013,7.479c-.267,3.737-.534,6.674-1.6,9.346a16.6,16.6,0,0,1-3.74,5.073,7.9,7.9,0,0,1-10.95,0c-1.6-1.6-2.938-3.2-3.2-4.806-2.137-8.277,3.2-19.5-12.82-20.563-10.149-.805-16.292,1.867-23.5,8.278-14.156,12.82-31.783,16.826-50.479,13.889-43.535-6.678-77.187-29.914-103.9-64.369-61.162-79.054-59.56-213.13,3.205-290.851a186.591,186.591,0,0,1,83.063-59.294c52.615-18.962,106.833-23.768,161.585-13.084,85.2,16.826,139.951,75.583,156.243,167.726,7.211,40.865,7.211,82-6.41,122.057-24.3,72.112-84.932,114.844-168,119.12Zm-8.28-28.044a8.043,8.043,0,0,0,7.479,7.479c71.578,4,131.671-33.12,156.243-89.475C598.456,925,599.257,884.935,594.983,843.8,585.9,758.606,530.35,695.04,449.691,680.35a278.442,278.442,0,0,0-137.28,8.815c-66.5,21.366-108.97,66.5-125.529,134.609-11.485,47.006-10.149,94.816,6.41,140.218,18.7,51.28,51.013,91.608,106.566,106.832,11.484,3.205,22.969,4.543,34.721.8a7.928,7.928,0,0,0,.534-14.958,28.256,28.256,0,0,0-2.671-1.069c-112.709-45.137-127.665-173.067-90.007-241.175,37.125-67.037,96.684-92.677,170.666-90.807,70.51,1.6,139.151,52.081,153.573,112.442,17.628,73.181-17.36,153.306-82.528,187.493a15.684,15.684,0,0,1-6.143,1.067,7.836,7.836,0,0,1-6.677-11.482,24.212,24.212,0,0,1,3.472-5.075c17.895-18.429,40.063-33.651,54.485-54.217,32.851-47.543,39.795-137.015-35.789-184.556C433.4,731.364,370.9,732.165,311.075,768.218c-65.7,39.53-85.466,120.19-51.546,195.238,18.7,40.865,51.012,64.1,92.143,78.524a7.961,7.961,0,0,0,10.416-6.144c2.67-17.092-.267-32.585-9.615-44.6-26.441-33.917-29.112-72.378-26.174-112.439,1.869-24.036,3.739-48.344,7.211-72.38.267-2.139,1.336-4.008,2.4-6.144,3.472-5.607,13.621-5.341,15.758.8.8,2.136,0,11.751-.267,13.889-2.4,33.117-6.409,66.234-6.409,99.619,0,15.491,4.006,33.386,12.286,46.206,15.758,25.374,26.441,51.014,23.5,81.461a8.128,8.128,0,0,0,6.41,8.548h.267a7.734,7.734,0,0,0,9.348-8.014,50.52,50.52,0,0,1,.534-12.82c4.274-18.43,6.143-38.995,16.025-53.951,17.36-25.638,22.168-52.615,19.764-81.727-2.136-28.579-5.609-57.156-7.211-86-.267-2.67.8-5.609,2.137-8.549a7.917,7.917,0,0,1,13.355-1.333,13.568,13.568,0,0,1,2.937,6.676c3.206,37.125,7.479,74.516,6.945,111.641a111.875,111.875,0,0,1-16.826,58.222C421.38,996.842,416.306,1019.546,417.908,1045.452Z" transform="translate(-163.094 -659.01)"/><path class="c" d="M272.9,773.8v.535c0,24.3.8,43.532-.534,62.5a5.02,5.02,0,0,1-.534,2.136c-2.672,8.014-14.155,8.548-17.628.8a19.621,19.621,0,0,1-1.069-3.74c-1.869-39.53-2.67-78.791-2.938-118.318a4.543,4.543,0,0,1,.267-1.87c2.4-8.014,14.155-8.814,17.627-1.067a4.924,4.924,0,0,1,.535,1.87C271.3,737.476,272.1,758.31,272.9,773.8Z" transform="translate(-17.554 -574.852)"/><path class="c" d="M240.771,718.314a9.9,9.9,0,0,1,1.069-3.737c3.739-6.942,13.888-6.41,17.093.8a8.214,8.214,0,0,1,.8,3.471c-.267,39.8-1.335,79.859-3.205,119.653a6.087,6.087,0,0,1-.8,2.939c-3.472,6.676-13.354,6.41-16.826-.266a7.113,7.113,0,0,1-.8-3.205C237.3,817.939,239.7,738.082,240.771,718.314Z" transform="translate(-38.038 -574.386)"/></g></g></svg>