<svg xmlns="http://www.w3.org/2000/svg" width="214.497" height="209.835" viewBox="0 0 214.497 209.835"><defs><style>.a{opacity:0.2;}.b{fill:#f4b321;}.c{fill:#575d90;}</style></defs><g class="a" transform="translate(-125.69 -144.33)"><g transform="translate(140.583 156.174)"><path class="b" d="M361.2,722.144a3.99,3.99,0,0,0-2.335-1.845c-1.721,5.041,1.966,15,2.212,20.9a100.72,100.72,0,0,1-1.352,21.878A102.2,102.2,0,0,1,343.132,804.5a67.654,67.654,0,0,1-12.414,14.013C316.091,830.8,296.056,834.363,277,835.346c-3.442.124-7.621.86-8.727,4.056-.983,2.828.737,6.884-1.721,8.6-2.336,1.474-5.162-1.23-5.777-3.934s-.123-5.654-1.6-7.989c-1.967-3.195-6.76-3.441-10.2-1.966s-6.146,4.3-9.341,6.268c-6.637,4.179-15,4.916-22.739,3.933.615,2.7,3.687,3.81,6.391,4.425,19.052,4.671,38.964,7.375,58.507,5.408,19.543-2.089,38.963-9.095,53.59-22.246,14.381-12.906,23.6-31.1,27.409-50.026,3.933-18.93,2.827-38.718-.983-57.646A7.089,7.089,0,0,0,361.2,722.144Z" transform="translate(-165.658 -656.811)"/><path class="b" d="M307,801.524h0v0Z" transform="translate(-145.013 -638.229)"/><path class="b" d="M296.6,807.624h0l.123-.124Z" transform="translate(-147.396 -636.831)"/><path class="b" d="M248.331,842.635c.123,0,.123-.124,0,0-26.795-8.36-49.042-31.1-56.048-58.384s1.967-58.261,22.739-77.19c12.66-11.553,29.253-18.559,46.215-20.65,17.945-2.212,36.628,1.107,52.238,10.2s28.024,23.967,33.063,41.3c5.531,19.174,1.967,40.561-7.743,58.015-6.883,12.414-16.962,23.354-29.991,28.885-2.95,1.229-7.5,1.6-8.358-1.475-.861-2.705,2.212-4.917,4.794-6.392,19.543-10.817,33.678-31.465,35.645-53.836s-8.973-45.478-27.9-57.4a72.966,72.966,0,0,0-25.074-9.464c-25.812-4.917-54.7,1.967-72.4,21.509A68.213,68.213,0,0,0,198.429,756.6a73.027,73.027,0,0,0,54.081,78.3c2.827-6.022,1.6-13.029-.86-19.175-2.581-6.022-6.391-11.554-8.973-17.576-7.129-15.979-5.9-34.17-4.3-51.624q1.106-11.246,2.212-22.493c.246-2.212.492-4.548,2.09-6.269,1.475-1.6,4.671-1.966,5.777,0a4.644,4.644,0,0,1,.492,2.581c.123,24.336-8.973,49.9.492,72.273,5.039,11.922,15.364,23.107,12.906,35.89-.614,3.564-1.352,8.6,2.09,9.342,1.966.368,3.81-1.353,4.425-3.2.614-1.967.246-3.933.246-6.022-.491-14.012,10.448-25.69,14.135-39.332,2.212-8.235,1.844-16.963,1.475-25.566-.614-14.258-.737-28.638-.614-43.02,0-2.089.86-4.916,2.95-4.671,1.475.124,2.212,1.967,2.7,3.442,6.392,24.706,11.8,51.747,1.6,75.223-2.95,6.637-7.006,12.783-9.956,19.421s-4.671,14.258-2.7,21.263a4.365,4.365,0,0,0,1.6,2.705,5.212,5.212,0,0,0,3.073.737c21.756.615,44.249-7.006,59.121-22.984,19.666-21.019,23.476-52.854,17.7-81-4.056-19.665-12.783-39.209-28.639-51.5-12.906-9.958-29.376-14.135-45.6-14.627-35.153-.983-72.642,8.972-92.43,40.069-10.2,15.98-15.241,34.785-17.331,53.712-1.721,15-1.6,30.607,4.056,44.617,6.268,15.61,19.174,28.148,34.292,35.645C225.1,848.411,239.481,850.747,248.331,842.635Zm15.61-119.718c0,1.353-.123,2.827-.246,4.179a260.8,260.8,0,0,0-1.352,46.953c.123,2.7.369,5.654-.983,8.113-1.352,2.335-4.794,3.81-6.883,1.967-1.475-1.352-1.6-3.565-1.6-5.531q.184-24.891.368-49.781c0-1.351,1.107-9.342,2.212-9.955,3.2-1.845,6.146-4.426,8.112,1.105A10.753,10.753,0,0,1,263.941,722.917Zm14.012,60.842a7.487,7.487,0,0,1-1.475.615c-2.7.616-5.408-1.351-6.637-3.81s-1.229-5.285-1.229-8.112v-50.64c0-3.812,4.179-8.727,7.375-3.934a9.454,9.454,0,0,1,1.229,5.163C277.707,729.309,280.534,781.916,277.953,783.759Z" transform="translate(-175.21 -668.647)"/></g><g transform="translate(125.69 144.33)"><path class="c" d="M284.171,849.759a3.651,3.651,0,0,0-3.687,3.442,14.247,14.247,0,0,1-.737,4.3,7.637,7.637,0,0,1-1.721,2.334,3.637,3.637,0,0,1-5.039,0,4.656,4.656,0,0,1-1.475-2.212c-.984-3.809,1.475-8.972-5.9-9.463-4.671-.371-7.5.859-10.816,3.809-6.515,5.9-14.627,7.743-23.23,6.392-20.035-3.073-35.522-13.767-47.813-29.623-28.147-36.381-27.41-98.084,1.475-133.851A85.87,85.87,0,0,1,223.452,667.6a138.208,138.208,0,0,1,74.362-6.021c39.209,7.743,64.406,34.784,71.9,77.188,3.319,18.806,3.319,37.735-2.95,56.171-11.185,33.186-39.086,52.852-77.312,54.82Zm-3.81-12.906a3.7,3.7,0,0,0,3.442,3.442c32.941,1.842,60.6-15.242,71.9-41.177,7.744-17.7,8.112-36.136,6.146-55.065-4.179-39.209-29.745-68.462-66.864-75.222a128.141,128.141,0,0,0-63.177,4.057c-30.605,9.833-50.149,30.6-57.769,61.948-5.285,21.632-4.671,43.635,2.95,64.529,8.6,23.6,23.476,42.159,49.042,49.165,5.285,1.475,10.57,2.091,15.979.37a3.649,3.649,0,0,0,.246-6.884,13.028,13.028,0,0,0-1.229-.492c-51.869-20.772-58.752-79.646-41.422-110.99,17.085-30.851,44.495-42.651,78.541-41.79,32.449.738,64.038,23.968,70.675,51.746,8.112,33.678-7.989,70.552-37.98,86.285a7.219,7.219,0,0,1-2.827.491,3.606,3.606,0,0,1-3.073-5.284,11.142,11.142,0,0,1,1.6-2.335c8.235-8.481,18.437-15.487,25.074-24.951,15.118-21.88,18.314-63.055-16.47-84.934-27.655-17.452-56.417-17.084-83.95-.492-30.236,18.192-39.332,55.312-23.722,89.849,8.6,18.806,23.476,29.5,42.4,36.137a3.664,3.664,0,0,0,4.794-2.828c1.229-7.866-.123-15-4.425-20.527-12.168-15.609-13.4-33.309-12.045-51.745.86-11.062,1.721-22.248,3.318-33.31a8.992,8.992,0,0,1,1.106-2.828c1.6-2.58,6.269-2.458,7.252.37.369.983,0,5.408-.123,6.392-1.106,15.241-2.95,30.481-2.95,45.845,0,7.129,1.843,15.364,5.654,21.264,7.252,11.677,12.168,23.477,10.816,37.489a3.74,3.74,0,0,0,2.95,3.934h.123a3.559,3.559,0,0,0,4.3-3.688,23.25,23.25,0,0,1,.246-5.9c1.967-8.481,2.827-17.946,7.375-24.828,7.989-11.8,10.2-24.214,9.1-37.611-.983-13.152-2.581-26.3-3.319-39.578a8.1,8.1,0,0,1,.983-3.934,3.643,3.643,0,0,1,6.146-.613,6.244,6.244,0,0,1,1.352,3.072c1.475,17.085,3.442,34.293,3.2,51.378a51.486,51.486,0,0,1-7.744,26.794C281.958,814.482,279.623,824.931,280.36,836.853Z" transform="translate(-163.094 -659.01)"/><path class="c" d="M260.648,739.027v.246c0,11.184.369,20.034-.246,28.761a2.31,2.31,0,0,1-.246.983,4.389,4.389,0,0,1-8.112.37,9.029,9.029,0,0,1-.492-1.721c-.86-18.192-1.229-36.26-1.352-54.45a2.091,2.091,0,0,1,.123-.86,4.391,4.391,0,0,1,8.112-.491,2.266,2.266,0,0,1,.246.861C259.91,722.31,260.279,731.9,260.648,739.027Z" transform="translate(-143.135 -647.469)"/><path class="c" d="M239.243,713.642a4.555,4.555,0,0,1,.492-1.72,4.394,4.394,0,0,1,7.866.368,3.78,3.78,0,0,1,.369,1.6c-.123,18.314-.614,36.752-1.475,55.065a2.8,2.8,0,0,1-.369,1.353,4.406,4.406,0,0,1-7.744-.122,3.274,3.274,0,0,1-.368-1.475C237.645,759.49,238.751,722.739,239.243,713.642Z" transform="translate(-145.944 -647.405)"/></g></g></svg>