<svg id="Calque_1" data-name="Calque 1" xmlns="http://www.w3.org/2000/svg" xmlns:xlink="http://www.w3.org/1999/xlink" viewBox="0 0 147.31 109.99"><defs><style>.cls-1{fill:none;}.cls-2{fill:#fff;}.cls-3{clip-path:url(#clip-path);}.cls-4{fill:#f59435;}.cls-5{fill:#ffd48f;}.cls-6{fill:#d86f21;}.cls-7{fill:#feb55e;}.cls-8{fill:#efbf7f;}.cls-9{fill:#993917;}.cls-10{clip-path:url(#clip-path-2);}.cls-11{fill:#892c10;}.cls-12{fill:#70230b;}.cls-13{fill:#c94c27;}.cls-14{fill:#7c270d;}.cls-15{fill:#ffe815;}.cls-16{clip-path:url(#clip-path-3);}.cls-17{fill:#d6bc00;}.cls-18{fill:#fff8c5;}.cls-19{clip-path:url(#clip-path-4);}.cls-20{fill:#ffd071;}.cls-21,.cls-22{isolation:isolate;}.cls-22{font-size:22px;font-family:SofiaProSemiBold, Sofia Pro;}.cls-23{letter-spacing:-0.01em;}</style><clipPath id="clip-path"><rect class="cls-1" y="-0.01" width="147" height="110" rx="6"/></clipPath><clipPath id="clip-path-2"><path class="cls-1" d="M109.11,73.48c2,4.7,1,14.27-6.19,16.2s-37,3.85-57.73,8.24S.88,110.5-7.38,107.76-17.23,94-7.34,88,50.78,71.28,71.92,68.25,103.69,60.83,109.11,73.48Z"/></clipPath><clipPath id="clip-path-3"><path class="cls-1" d="M87.12,81.13v.4c0,.11,0,.34,0,.61s0,.54,0,.86A15.9,15.9,0,0,1,87,85.39a9.12,9.12,0,0,1-.34,1.55,7.92,7.92,0,0,1-.7,1.74,7.35,7.35,0,0,1-3.18,3.11,9.26,9.26,0,0,1-4.63.89,15.65,15.65,0,0,1-2.36-.27l-.69-.18L74.52,92c-.42-.13-.81-.29-1.2-.44-1.54-.65-3-1.42-4.34-2.1a13.8,13.8,0,0,0-3.67-1.38,3.39,3.39,0,0,0-.64,0l-.27,0h0l.12,0-.08,0-.16,0-.16,0H64c.08,0,0,0,0,0s0-.14,0-.08a1.63,1.63,0,0,0-.3.51,9.88,9.88,0,0,0-.31,1.06c-.2.84-.36,1.86-.7,3a7.94,7.94,0,0,1-.82,1.92,5,5,0,0,1-1.72,1.74,5.68,5.68,0,0,1-2.11.75,7.26,7.26,0,0,1-2,0,12.24,12.24,0,0,1-3.5-1c-1.05-.45-2-1-2.94-1.45s-1.82-1-2.67-1.38a10.69,10.69,0,0,0-2.27-.85l-.35-.07-.25,0-.48,0c-.27,0-.41.06-.15,0a1,1,0,0,0,.36-.33c.08-.13.08-.19.06-.16a2.4,2.4,0,0,0-.14.8c0,.82,0,1.88,0,3,0,.58,0,1.18-.07,1.83a7.87,7.87,0,0,1-.46,2.14,4.41,4.41,0,0,1-.66,1.18,3.57,3.57,0,0,1-.5.53l-.14.12-.07.06-.14.1-.17.11-.08,0-.16.09-.35.18a6.37,6.37,0,0,1-.61.23,5.92,5.92,0,0,1-1.18.19,9.6,9.6,0,0,1-3.82-.71,53.3,53.3,0,0,1-6-2.86c-.46-.25-.88-.46-1.32-.66l-1.4-.71a8.49,8.49,0,0,0-2.16-.84c-.25,0-.35,0-.26,0l.08,0h0l.08,0,0,0-.12.08.09-.07,0,0,.06-.08c.09-.15,0-.2,0,0a4.44,4.44,0,0,0,.07,1c.07.4.15.86.27,1.37a14.42,14.42,0,0,1,.3,1.86,10.16,10.16,0,0,1-.12,1.91,4.35,4.35,0,0,1-1.08,2.3,3.43,3.43,0,0,1-1.16.83,4.46,4.46,0,0,1-1.19.32,6.64,6.64,0,0,1-1.94,0,18,18,0,0,1-3-.86,45,45,0,0,1-5.08-2.23,22.84,22.84,0,0,0-4-1.77L7,101a2,2,0,0,0-.24,0s0,0,.09,0a.92.92,0,0,0,.4-.3c.23-.31.09-.3.07-.09s-.08.53-.11.87c-.07.69-.11,1.47-.25,2.3A7.3,7.3,0,0,1,6.58,105a4.32,4.32,0,0,1-.81,1.45,2.89,2.89,0,0,1-1.83.94,3.77,3.77,0,0,1-1.53-.17,8.72,8.72,0,0,1-1.92-.87c-1-.6-1.9-1.16-2.67-1.59A5.32,5.32,0,0,0-3.94,104c-.08,0-.12,0-.12,0h0c-.07,0,.1,0,.08,0H-4s-.1,0-.09,0,.07,0,0,0a2,2,0,0,0-.23.18,3.2,3.2,0,0,0-.59.73,2,2,0,0,1-2.84.28A2,2,0,0,1-8,102.43l.06-.07.38-.35a7.57,7.57,0,0,1,1.31-.93A4.52,4.52,0,0,1-5,100.59a4,4,0,0,1,.5-.08h.2s.17,0,.11,0h.09a4.08,4.08,0,0,1,.92.13A9.65,9.65,0,0,1-.5,102c.83.54,1.66,1.15,2.54,1.68a6.4,6.4,0,0,0,1.24.59.48.48,0,0,0,.29,0,.73.73,0,0,0-.19.07s0-.11.05-.3a4.26,4.26,0,0,0,0-.71c0-.55-.09-1.18-.17-1.94a7.39,7.39,0,0,1,0-1.33,4.85,4.85,0,0,1,.15-.94,3.35,3.35,0,0,1,.65-1.24A3.19,3.19,0,0,1,5.42,97a3.66,3.66,0,0,1,1.23-.22,5.79,5.79,0,0,1,.92.07c.27,0,.6.12.75.15a19.09,19.09,0,0,1,5,2.37,42.6,42.6,0,0,0,4.48,2.37,10.59,10.59,0,0,0,2.28.71,3.16,3.16,0,0,0,.87,0c.21,0,.2-.1.15-.08s0-.07,0-.32a6.78,6.78,0,0,0-.19-1l-.41-1c-.18-.43-.41-.91-.6-1.47a7.53,7.53,0,0,1-.43-2,4.67,4.67,0,0,1,.67-2.89,4.89,4.89,0,0,1,.52-.68l.3-.3.39-.31.2-.13,0,0,.16-.09.18-.1a4.47,4.47,0,0,1,.79-.31,5.42,5.42,0,0,1,2.77,0,11,11,0,0,1,3.47,1.65l1.26.88c.47.32.93.66,1.35,1a27,27,0,0,0,5,3.26,5.42,5.42,0,0,0,2.34.54.91.91,0,0,0,.61-.23l.16-.12-.06,0v0l0-.07a1.44,1.44,0,0,0,0-.24A8.06,8.06,0,0,0,39.34,96a26.18,26.18,0,0,1-.69-3.28,7.15,7.15,0,0,1,.1-2.35,4.61,4.61,0,0,1,.69-1.59A4.26,4.26,0,0,1,41,87.48,5.49,5.49,0,0,1,43.92,87c.36,0,.72.09,1.07.16a4.94,4.94,0,0,1,.52.13l.41.12a12.2,12.2,0,0,1,3.41,1.69c.94.64,1.76,1.29,2.56,1.89a22,22,0,0,0,2.35,1.59,6.37,6.37,0,0,0,2.19.81A2.11,2.11,0,0,0,58,93.05a.7.7,0,0,0,.2-.4,3.71,3.71,0,0,0,.08-.81c0-.71-.13-1.58-.19-2.61a10.71,10.71,0,0,1,0-1.7,6.67,6.67,0,0,1,.52-2.11,5.53,5.53,0,0,1,1.65-2.18,6.19,6.19,0,0,1,2.42-1.17l.16,0h.09l.16,0,.16,0,.08,0,.21,0h.06a7.27,7.27,0,0,1,1-.07,8.94,8.94,0,0,1,1.93.24,11.13,11.13,0,0,1,3,1.27,20.12,20.12,0,0,1,2.24,1.53c1.32,1,2.43,2,3.48,2.61.25.15.5.29.77.42s.24.11.36.17l.3.11a7.4,7.4,0,0,0,1.6.3A4,4,0,0,0,80.75,88a2.1,2.1,0,0,0,.93-1.3,4.34,4.34,0,0,0-.35-2.77,3.42,3.42,0,0,0-.21-.43c-.06-.1-.12-.18-.19-.32l-.19-.35a3.39,3.39,0,1,1,5.93-3.3A3.51,3.51,0,0,1,87.12,81.13Z"/></clipPath><clipPath id="clip-path-4"><path class="cls-1" d="M95.55,64.65c0,6.07-6.13,11.83-18.1,14.57s-36.35,4.16-48.76,7-36.63,12.54-43,7.71-9-18.44,5.35-27.66S23.66,50,51.31,47.92,95.65,51.57,95.55,64.65Z"/></clipPath></defs><title>app-icon</title><g id="Groupe_1708" data-name="Groupe 1708"><rect id="Rectangle_17-3" data-name="Rectangle 17-3" class="cls-2" y="-0.01" width="147" height="110" rx="6"/><g class="cls-3"><g id="Groupe_de_masques_4" data-name="Groupe de masques 4"><g id="Groupe_461" data-name="Groupe 461"><g id="Groupe_439" data-name="Groupe 439"><path id="Tracé_2433" data-name="Tracé 2433" class="cls-4" d="M90.59,68.58c7.24.25,16.54,4.64,17.25,13.11s-1.34,15.89-17.32,21.94-51,11.43-63,11.89-28.24,0-31-11.33S1.7,85.58,10,82.11,54.05,67.32,90.59,68.58Z"/><path id="Tracé_2434" data-name="Tracé 2434" class="cls-5" d="M49.82,105.85C69.28,103,90.2,97.55,95.07,95.12s8.67-10.14,7.72-15.8S97.79,69,92.72,68.77,70.34,68,44.6,72.58-2.94,83.54-4,98,9.32,111.84,49.82,105.85Z"/><path id="Tracé_2435" data-name="Tracé 2435" class="cls-6" d="M104.17,94.27c-1.68,3.81-14,8.81-20.66,11.11s-32.78,6.07-44.41,8.11a94.09,94.09,0,0,1-28.18.69c-5.59-.87-8.08-2.7-7.2-3S17.5,113.92,28,112.25s47.14-6.39,54.36-8.81C91.59,100.35,105,92.44,104.17,94.27Z"/><path id="Tracé_2436" data-name="Tracé 2436" class="cls-7" d="M5.43,109.57c8.24,1.68,17.35.68,25.66-.16,8.72-.87,17.34-2.61,26-4.2,8.78-1.63,17.32-3.92,26-5.95C88.61,98,96.56,96.35,99.78,91c.13-.21-.18-.38-.34-.23-5.57,5-12,6.38-19.08,8-8.28,1.92-16.43,4-24.8,5.6-8.14,1.52-16.28,3.07-24.53,4a181.88,181.88,0,0,1-25.57.69C5.19,109.1,5.17,109.52,5.43,109.57Z"/><g id="Groupe_438" data-name="Groupe 438"><path id="Tracé_2437" data-name="Tracé 2437" class="cls-8" d="M50.94,102.08a.54.54,0,0,0,0,.22,3.32,3.32,0,0,0-.06.44.81.81,0,0,0,.86.77c1.57-.06,3.24-.41,4-1.91a.79.79,0,0,0-.53-1.13l-.48,0a3.52,3.52,0,0,0-2.33-.11,2.16,2.16,0,0,0-1.32,1.29A1.25,1.25,0,0,0,50.94,102.08Z"/><path id="Tracé_2438" data-name="Tracé 2438" class="cls-8" d="M47.66,102.48a2.91,2.91,0,0,0,1.77-.48.55.55,0,0,0,.3.16,1.21,1.21,0,0,0,1.43-.64c.17-.4-.09-1.07-.63-1a10.29,10.29,0,0,0-3.21.88C46.78,101.72,47.13,102.47,47.66,102.48Z"/><path id="Tracé_2439" data-name="Tracé 2439" class="cls-8" d="M58.34,101.57a.19.19,0,0,0,0,.07.25.25,0,0,0,.11.18.5.5,0,0,0,.29.18.53.53,0,1,0,.22-1,.54.54,0,0,0-.39.07s-.37.31-.1.11A.38.38,0,0,0,58.34,101.57Z"/><path id="Tracé_2440" data-name="Tracé 2440" class="cls-8" d="M58.63,98.91a4.56,4.56,0,0,0,3,.34,3.19,3.19,0,0,0,1.7-.91,4.69,4.69,0,0,0,.75-.58.77.77,0,0,0-.07-1.09l0,0a1,1,0,0,0,0-.17.75.75,0,0,0-.76-.53,7.33,7.33,0,0,0-2.83.7,3.62,3.62,0,0,0-2,1.22.68.68,0,0,0,.05.95A.42.42,0,0,0,58.63,98.91Z"/><path id="Tracé_2441" data-name="Tracé 2441" class="cls-8" d="M64.2,101.39c.4.08,1.16.12,1.34-.37a.5.5,0,0,0-.21-.66l-.12-.07a.33.33,0,0,0-.45.08h-.08a.76.76,0,0,1-.26,0,.53.53,0,0,0-.62.41A.52.52,0,0,0,64.2,101.39Z"/><path id="Tracé_2442" data-name="Tracé 2442" class="cls-8" d="M68.27,97.16a.76.76,0,0,0,.38.82,5.06,5.06,0,0,0,5.2-1,.48.48,0,0,0,0-.67.54.54,0,0,0-.27-.11,2,2,0,0,0,.07-.26A.77.77,0,0,0,73,95C71.19,94.8,68.74,95,68.27,97.16Zm3.21-.71a3.86,3.86,0,0,0-.65.39,3.38,3.38,0,0,1-.71,0,2.35,2.35,0,0,1,1.36-.4Z"/><g id="Groupe_437" data-name="Groupe 437"><path id="Tracé_2444" data-name="Tracé 2444" class="cls-8" d="M40.55,101.05h0l0,0,0-.05a.4.4,0,0,0,.25.72h0l0,0a1.56,1.56,0,0,0,.47.22,2.46,2.46,0,0,0,.45.11,1.31,1.31,0,0,0,1.35-.81.72.72,0,0,0-.68-1,5.14,5.14,0,0,0-1.09.28,1,1,0,0,0-.66.28.4.4,0,0,0-.14.22Z"/></g><path id="Tracé_2445" data-name="Tracé 2445" class="cls-8" d="M48,99.15a.39.39,0,0,0,.54.12.35.35,0,0,0,.15-.17l.2.05a.51.51,0,0,0,.6-.4.49.49,0,0,0-.06-.36A1,1,0,0,0,48.12,98,.76.76,0,0,0,48,99.15Z"/><path id="Tracé_2446" data-name="Tracé 2446" class="cls-8" d="M33,105.33a.7.7,0,0,0,.55,1.12,8,8,0,0,0,2.17-.26c.57-.14,1.22-.34,1.4-1a.47.47,0,0,0-.37-.55h-.11a2.63,2.63,0,0,0-.39.06.58.58,0,0,0-.53-.43l-.2,0h0a3.72,3.72,0,0,0-1.2.07h-.23a1.14,1.14,0,0,0-.66-.05.75.75,0,0,0-.45,1Z"/><path id="Tracé_2447" data-name="Tracé 2447" class="cls-8" d="M28.88,103.69c.1.34.46.34.75.35s.41-.32.29-.55a.43.43,0,0,0-.4-.45h-.06C29.12,103.07,28.75,103.29,28.88,103.69Z"/><path id="Tracé_2448" data-name="Tracé 2448" class="cls-8" d="M42.16,105.37l-.08,0a.63.63,0,0,0,.88-.74,1.47,1.47,0,0,0-.1-.22.66.66,0,1,0-1.12.7.65.65,0,0,0,.42.29Z"/><path id="Tracé_2449" data-name="Tracé 2449" class="cls-8" d="M24.1,107.11a6.28,6.28,0,0,0,3.62-.59.71.71,0,0,0,.19-1,.64.64,0,0,0-.29-.25.64.64,0,0,0-.21-.47c-1.11-1-2.95.08-3.73,1C23.34,106.21,23.46,107.06,24.1,107.11Z"/><path id="Tracé_2450" data-name="Tracé 2450" class="cls-8" d="M41.42,104.54a1.61,1.61,0,0,0,1.55.28,4.28,4.28,0,0,0,1.52-.69c.31-.2.08-.75-.28-.61a5.67,5.67,0,0,1-1.41.39c-.45.06-1,0-1.35.3A.26.26,0,0,0,41.42,104.54Z"/><path id="Tracé_2451" data-name="Tracé 2451" class="cls-8" d="M33.39,103.32a.56.56,0,0,0,.31.06.4.4,0,0,0,.49.22c.19-.06.45-.13.54-.36a.64.64,0,0,0-.13-.76,1.4,1.4,0,0,0-1-.25.58.58,0,0,0-.56.6A.57.57,0,0,0,33.39,103.32Z"/><path id="Tracé_2452" data-name="Tracé 2452" class="cls-8" d="M81.72,96a4.35,4.35,0,0,0,3.06-.46.6.6,0,0,0-.52-1.07v0l-.11,0a2.56,2.56,0,0,1-.47,0,.36.36,0,0,0-.38.21h-.08a.67.67,0,0,0-.47-.19,1.91,1.91,0,0,0-1.39.46.65.65,0,0,0,0,.92A.71.71,0,0,0,81.72,96Z"/><path id="Tracé_2453" data-name="Tracé 2453" class="cls-8" d="M76.64,98.48A3.14,3.14,0,0,0,79.13,98a.41.41,0,0,0,.21-.38,2.51,2.51,0,0,0,.74-.49.63.63,0,0,0,0-.89.65.65,0,0,0-.44-.16,6.43,6.43,0,0,0-3.15,1.27.62.62,0,0,0,.2,1.13Z"/><path id="Tracé_2454" data-name="Tracé 2454" class="cls-8" d="M76.4,95.3a1,1,0,0,0,.25.08.24.24,0,0,0,.26-.14c.12,0,.24-.12.24-.26,0-.35-.56-.39-.77-.22S76.16,95.2,76.4,95.3Z"/><path id="Tracé_2455" data-name="Tracé 2455" class="cls-8" d="M89,93.85a2.76,2.76,0,0,0,3.89-.36,2.64,2.64,0,0,0,.21-.29.4.4,0,0,0-.19-.55.39.39,0,0,0-.3,0q-.32.12-.63.27c-.51-1-2-.53-2.88-.09a.68.68,0,0,0-.2.93A.4.4,0,0,0,89,93.85Z"/><path id="Tracé_2456" data-name="Tracé 2456" class="cls-8" d="M84,93.35l.66-.09h0A1,1,0,0,0,85.86,93l.07,0a.31.31,0,0,0,.2-.39.36.36,0,0,0-.1-.14.57.57,0,0,0-.48-.5c-.3,0-.59-.12-.9-.13s-.77.37-1.06.62A.54.54,0,0,0,84,93.35Z"/><path id="Tracé_2457" data-name="Tracé 2457" class="cls-8" d="M77.06,94.33l0,0a.42.42,0,0,0,.59.13.44.44,0,0,0,.15-.12.5.5,0,0,0-.06-.7l-.12-.08,0,0a1,1,0,0,0-.23-.07C76.91,93.4,76.63,94.13,77.06,94.33Z"/><path id="Tracé_2458" data-name="Tracé 2458" class="cls-8" d="M13.56,106.85a3.48,3.48,0,0,0,2.82.23.49.49,0,0,0-.29-.93,2.6,2.6,0,0,1-.56.06.47.47,0,0,0,0-.17c-.3-1-1.58-.57-2.12-.09a.58.58,0,0,0,0,.82Z"/><path id="Tracé_2459" data-name="Tracé 2459" class="cls-8" d="M30.78,102.89a2,2,0,0,0,.82-.27.62.62,0,0,0,.18-.83.58.58,0,0,0-.19-.19c-.42-.43-.93-.29-1.35.13S30.17,103,30.78,102.89Z"/></g></g><g id="Groupe_455" data-name="Groupe 455"><g id="Groupe_448" data-name="Groupe 448"><g id="Groupe_441" data-name="Groupe 441"><path id="Tracé_2460" data-name="Tracé 2460" class="cls-9" d="M109.11,73.48c2,4.7,1,14.27-6.19,16.2s-37,3.85-57.73,8.24S.88,110.5-7.38,107.76-17.23,94-7.34,88,50.78,71.28,71.92,68.25,103.69,60.83,109.11,73.48Z"/><g class="cls-10"><g id="Groupe_440" data-name="Groupe 440"><path id="Tracé_2461" data-name="Tracé 2461" class="cls-11" d="M93.15,64.26c5.45.06,12.15,1,14.38,6.23,0,0-3.14-2.7-5.72-2.49S92.44,71.87,89,75.82,80,81.63,71.21,82.46,22.27,90.59,12.75,93.33s-26.78,3.25-27.2,7.55-3-5,2.2-10.08S52.66,63.83,93.15,64.26Z"/></g></g></g><g id="Groupe_442" data-name="Groupe 442"><path id="Tracé_2463" data-name="Tracé 2463" class="cls-12" d="M102.66,77.18v.22a3.36,3.36,0,0,1-.06.63,3.84,3.84,0,0,1-1,2.06,5.39,5.39,0,0,1-2.83,1.57,8.57,8.57,0,0,1-3.6,0l.92-.16A17.17,17.17,0,0,0,98.32,81a8,8,0,0,0,2.58-1.3A5.87,5.87,0,0,0,102.66,77.18Z"/></g><g id="Groupe_443" data-name="Groupe 443"><path id="Tracé_2464" data-name="Tracé 2464" class="cls-12" d="M100,85.65a4.77,4.77,0,0,0,.73-.42,6.06,6.06,0,0,0,1.51-1.52,10.16,10.16,0,0,0,1.34-2.7,5.93,5.93,0,0,0,.12-3.44l.14.21a2.59,2.59,0,0,1,.33.64,4.94,4.94,0,0,1,.2,2.5A6.36,6.36,0,0,1,103,84,4.23,4.23,0,0,1,100,85.65Z"/></g><g id="Groupe_444" data-name="Groupe 444"><path id="Tracé_2465" data-name="Tracé 2465" class="cls-12" d="M108.27,80.82s-.13-.14-.33-.39-.54-.56-.94-.93a18.21,18.21,0,0,0-3.11-2.41,5.21,5.21,0,0,1,.59,0,4.17,4.17,0,0,1,1.44.49,5,5,0,0,1,1.55,1.28A3.49,3.49,0,0,1,108.27,80.82Z"/></g><g id="Groupe_445" data-name="Groupe 445"><path id="Tracé_2466" data-name="Tracé 2466" class="cls-12" d="M102,76.48a4.54,4.54,0,0,0-.39-.48,4.69,4.69,0,0,0-1.23-.93,9.63,9.63,0,0,0-4.55-1.15l.16-.08a2.26,2.26,0,0,1,.49-.19,4.58,4.58,0,0,1,1.84-.16,5,5,0,0,1,2.32.84A3,3,0,0,1,102,76.48Z"/></g><g id="Groupe_446" data-name="Groupe 446"><path id="Tracé_2467" data-name="Tracé 2467" class="cls-12" d="M102.91,76.06s0-.23,0-.61a5.23,5.23,0,0,0-.07-.68,5.14,5.14,0,0,0-.14-.86,14.72,14.72,0,0,0-.6-2.06c-.32-.79-.67-1.56-1.06-2.31,0,0,.2.15.54.44a6,6,0,0,1,1.12,1.38,7.08,7.08,0,0,1,.48,1,5.73,5.73,0,0,1,.26,1.23A4.15,4.15,0,0,1,102.91,76.06Z"/></g><g id="Groupe_447" data-name="Groupe 447"><path id="Tracé_2468" data-name="Tracé 2468" class="cls-12" d="M103.51,76.2l.43-.29a4.07,4.07,0,0,0,.48-.33A5.1,5.1,0,0,0,106,73.77a15.45,15.45,0,0,0,.77-2,5.72,5.72,0,0,1,.09.59,2.51,2.51,0,0,1,0,.67,2.8,2.8,0,0,1-.13.86,2.92,2.92,0,0,1-.41.94,3.16,3.16,0,0,1-.79.8A3.24,3.24,0,0,1,103.51,76.2Z"/></g><path id="Tracé_2469" data-name="Tracé 2469" class="cls-13" d="M-6.43,106c4.78.28,9.58-.77,14.2-1.9,5.46-1.33,10.88-2.72,16.36-3.92,12.22-2.7,24.35-5.81,36.67-8,11-1.93,21.84-1.67,32.89-2.5,4.41-.33,14.7-1.3,14-7.74a.78.78,0,0,0-.84-.73.8.8,0,0,0-.71.61c-1.56,6.31-14,5.83-19,6a210.6,210.6,0,0,0-31.59,3.11c-10.79,2-21.43,4.75-32.14,7.15-10,2.24-19.77,5.53-30,6C-7.77,104.12-7.62,105.89-6.43,106Z"/><path id="Tracé_2470" data-name="Tracé 2470" class="cls-13" d="M95.14,84.24c.64,1.17,2.73.7,3.8.5a6.69,6.69,0,0,0,3.88-2.38c.42-.55-.18-1.42-.81-1A9.87,9.87,0,0,1,98.72,83c-1.08.27-2.7-.2-3.52.59A.56.56,0,0,0,95.14,84.24Z"/><path id="Tracé_2471" data-name="Tracé 2471" class="cls-13" d="M93.36,75.93A.76.76,0,0,0,93.13,77a.8.8,0,0,0,.29.26,4.69,4.69,0,0,0,2,.32,16.06,16.06,0,0,1,2.59.3c.86.16,1.41-1.16.54-1.5"/></g><g id="Groupe_454" data-name="Groupe 454"><g id="Groupe_449" data-name="Groupe 449"><path id="Tracé_2472" data-name="Tracé 2472" class="cls-14" d="M65.12,85.5c4.56.47,9.06,4.15,13.71,3.44a4.13,4.13,0,0,0,3.37-3.2,6.29,6.29,0,0,0,0-2.83c-.3-1.75-.2-2.59,1.24-3.75a.42.42,0,0,0,.12-.6.19.19,0,0,0-.06-.07c-1.11-1-2.3-.73-3.33.31-1.36,1.39-.55,4-.73,5.69-.28,2.6-4.09.9-5.45.34a27,27,0,0,0-8.18-2.46C63.78,82.21,63.06,85.29,65.12,85.5Z"/><path id="Tracé_2473" data-name="Tracé 2473" class="cls-14" d="M-8.06,102.12c-.17,1.06,1.06,2.2,2.06,1.43,2.58-2,6.67.07,9.43.74a2,2,0,0,0,2.3-1.5c1.39-5.51,7.63-2,11-.6s5.86-1,5.43-4.56c-.11-1-1-2.56,0-3.38,1.26-1,3.61-.56,5-.28,2.79.56,4.9,2.78,7.36,4.06,3.17,1.65,6.37.27,6.54-3.48.11-2.34-1-5.8,2.38-6.15,1.63-.16,3.52,1.19,4.85,1.95,2.26,1.29,5.4,3.69,8.21,2.87a4.41,4.41,0,0,0,2.58-2.12c1.07-1.7.31-4.51,1.94-5.83,2.15-1.75,7.2,1.46,9.73,1.27.65-.05,1.12-1,.52-1.43a18.23,18.23,0,0,0-9.42-3.6c-4.77-.21-4.56,4.95-6,7.93-.55,1.15-7.63-3.42-8.58-3.86-3.21-1.47-8.27-1.28-9.52,2.75-.22.73-.42,6.72-.83,6.65-2.29-.42-4.5-2.84-6.58-3.86-4-2-11-2.06-12.32,3.17a5.81,5.81,0,0,0,.12,2.49c.38,1.85.93,2.28-.81,1.47a17.85,17.85,0,0,0-5.29-2,13.35,13.35,0,0,0-6.31.35A5,5,0,0,0,2.54,100C-1.26,98.89-7.29,97.31-8.06,102.12Z"/><path id="Tracé_2474" data-name="Tracé 2474" class="cls-14" d="M58.58,85a1.77,1.77,0,0,0,2.5-.09c3.25-4.54,9.5,2.44,13.18,2.89.73.09,1.63-.58,1.27-1.4-1.22-2.81-5.85-4.76-8.49-5.8-3.39-1.32-7.65-1.25-9,2.74A1.7,1.7,0,0,0,58.58,85Z"/><path id="Tracé_2475" data-name="Tracé 2475" class="cls-14" d="M53.66,94.17a3.28,3.28,0,0,0,2,.7,5.13,5.13,0,0,0,2.2-.53c1.53-.68,3.32-2.29,2.69-4.16a1.53,1.53,0,0,0-1.94-1,1.58,1.58,0,0,0-.62.4c-.27.32-.42.79-.63,1.07a2.84,2.84,0,0,1-1.07.84,9.49,9.49,0,0,1-1.17.4c-.47.16-.87.47-1.32.64a.88.88,0,0,0-.56,1.12A.85.85,0,0,0,53.66,94.17Z"/></g><g id="Groupe_453" data-name="Groupe 453"><path id="Tracé_2476" data-name="Tracé 2476" class="cls-15" d="M87.12,81.13v.4c0,.11,0,.34,0,.61s0,.54,0,.86A15.9,15.9,0,0,1,87,85.39a9.12,9.12,0,0,1-.34,1.55,7.92,7.92,0,0,1-.7,1.74,7.35,7.35,0,0,1-3.18,3.11,9.26,9.26,0,0,1-4.63.89,15.65,15.65,0,0,1-2.36-.27l-.69-.18L74.52,92c-.42-.13-.81-.29-1.2-.44-1.54-.65-3-1.42-4.34-2.1a13.8,13.8,0,0,0-3.67-1.38,3.39,3.39,0,0,0-.64,0l-.27,0h0l.12,0-.08,0-.16,0-.16,0H64c.08,0,0,0,0,0s0-.14,0-.08a1.63,1.63,0,0,0-.3.51,9.88,9.88,0,0,0-.31,1.06c-.2.84-.36,1.86-.7,3a7.94,7.94,0,0,1-.82,1.92,5,5,0,0,1-1.72,1.74,5.68,5.68,0,0,1-2.11.75,7.26,7.26,0,0,1-2,0,12.24,12.24,0,0,1-3.5-1c-1.05-.45-2-1-2.94-1.45s-1.82-1-2.67-1.38a10.69,10.69,0,0,0-2.27-.85l-.35-.07-.25,0-.48,0c-.27,0-.41.06-.15,0a1,1,0,0,0,.36-.33c.08-.13.08-.19.06-.16a2.4,2.4,0,0,0-.14.8c0,.82,0,1.88,0,3,0,.58,0,1.18-.07,1.83a7.87,7.87,0,0,1-.46,2.14,4.41,4.41,0,0,1-.66,1.18,3.57,3.57,0,0,1-.5.53l-.14.12-.07.06-.14.1-.17.11-.08,0-.16.09-.35.18a6.37,6.37,0,0,1-.61.23,5.92,5.92,0,0,1-1.18.19,9.6,9.6,0,0,1-3.82-.71,53.3,53.3,0,0,1-6-2.86c-.46-.25-.88-.46-1.32-.66l-1.4-.71a8.49,8.49,0,0,0-2.16-.84c-.25,0-.35,0-.26,0l.08,0h0l.08,0,0,0-.12.08.09-.07,0,0,.06-.08c.09-.15,0-.2,0,0a4.44,4.44,0,0,0,.07,1c.07.4.15.86.27,1.37a14.42,14.42,0,0,1,.3,1.86,10.16,10.16,0,0,1-.12,1.91,4.35,4.35,0,0,1-1.08,2.3,3.43,3.43,0,0,1-1.16.83,4.46,4.46,0,0,1-1.19.32,6.64,6.64,0,0,1-1.94,0,18,18,0,0,1-3-.86,45,45,0,0,1-5.08-2.23,22.84,22.84,0,0,0-4-1.77L7,101a2,2,0,0,0-.24,0s0,0,.09,0a.92.92,0,0,0,.4-.3c.23-.31.09-.3.07-.09s-.08.53-.11.87c-.07.69-.11,1.47-.25,2.3A7.3,7.3,0,0,1,6.58,105a4.32,4.32,0,0,1-.81,1.45,2.89,2.89,0,0,1-1.83.94,3.77,3.77,0,0,1-1.53-.17,8.72,8.72,0,0,1-1.92-.87c-1-.6-1.9-1.16-2.67-1.59A5.32,5.32,0,0,0-3.94,104c-.08,0-.12,0-.12,0h0c-.07,0,.1,0,.08,0H-4s-.1,0-.09,0,.07,0,0,0a2,2,0,0,0-.23.18,3.2,3.2,0,0,0-.59.73,2,2,0,0,1-2.84.28A2,2,0,0,1-8,102.43l.06-.07.38-.35a7.57,7.57,0,0,1,1.31-.93A4.52,4.52,0,0,1-5,100.59a4,4,0,0,1,.5-.08h.2s.17,0,.11,0h.09a4.08,4.08,0,0,1,.92.13A9.65,9.65,0,0,1-.5,102c.83.54,1.66,1.15,2.54,1.68a6.4,6.4,0,0,0,1.24.59.48.48,0,0,0,.29,0,.73.73,0,0,0-.19.07s0-.11.05-.3a4.26,4.26,0,0,0,0-.71c0-.55-.09-1.18-.17-1.94a7.39,7.39,0,0,1,0-1.33,4.85,4.85,0,0,1,.15-.94,3.35,3.35,0,0,1,.65-1.24A3.19,3.19,0,0,1,5.42,97a3.66,3.66,0,0,1,1.23-.22,5.79,5.79,0,0,1,.92.07c.27,0,.6.12.75.15a19.09,19.09,0,0,1,5,2.37,42.6,42.6,0,0,0,4.48,2.37,10.59,10.59,0,0,0,2.28.71,3.16,3.16,0,0,0,.87,0c.21,0,.2-.1.15-.08s0-.07,0-.32a6.78,6.78,0,0,0-.19-1l-.41-1c-.18-.43-.41-.91-.6-1.47a7.53,7.53,0,0,1-.43-2,4.67,4.67,0,0,1,.67-2.89,4.89,4.89,0,0,1,.52-.68l.3-.3.39-.31.2-.13,0,0,.16-.09.18-.1a4.47,4.47,0,0,1,.79-.31,5.42,5.42,0,0,1,2.77,0,11,11,0,0,1,3.47,1.65l1.26.88c.47.32.93.66,1.35,1a27,27,0,0,0,5,3.26,5.42,5.42,0,0,0,2.34.54.91.91,0,0,0,.61-.23l.16-.12-.06,0v0l0-.07a1.44,1.44,0,0,0,0-.24A8.06,8.06,0,0,0,39.34,96a26.18,26.18,0,0,1-.69-3.28,7.15,7.15,0,0,1,.1-2.35,4.61,4.61,0,0,1,.69-1.59A4.26,4.26,0,0,1,41,87.48,5.49,5.49,0,0,1,43.92,87c.36,0,.72.09,1.07.16a4.94,4.94,0,0,1,.52.13l.41.12a12.2,12.2,0,0,1,3.41,1.69c.94.64,1.76,1.29,2.56,1.89a22,22,0,0,0,2.35,1.59,6.37,6.37,0,0,0,2.19.81A2.11,2.11,0,0,0,58,93.05a.7.7,0,0,0,.2-.4,3.71,3.71,0,0,0,.08-.81c0-.71-.13-1.58-.19-2.61a10.71,10.71,0,0,1,0-1.7,6.67,6.67,0,0,1,.52-2.11,5.53,5.53,0,0,1,1.65-2.18,6.19,6.19,0,0,1,2.42-1.17l.16,0h.09l.16,0,.16,0,.08,0,.21,0h.06a7.27,7.27,0,0,1,1-.07,8.94,8.94,0,0,1,1.93.24,11.13,11.13,0,0,1,3,1.27,20.12,20.12,0,0,1,2.24,1.53c1.32,1,2.43,2,3.48,2.61.25.15.5.29.77.42s.24.11.36.17l.3.11a7.4,7.4,0,0,0,1.6.3A4,4,0,0,0,80.75,88a2.1,2.1,0,0,0,.93-1.3,4.34,4.34,0,0,0-.35-2.77,3.42,3.42,0,0,0-.21-.43c-.06-.1-.12-.18-.19-.32l-.19-.35a3.39,3.39,0,1,1,5.93-3.3A3.51,3.51,0,0,1,87.12,81.13Z"/><g class="cls-16"><g id="Groupe_452" data-name="Groupe 452"><g id="Groupe_450" data-name="Groupe 450"><path id="Tracé_2477" data-name="Tracé 2477" class="cls-17" d="M79.34,81.25a1.09,1.09,0,0,0,1.16,1,1.1,1.1,0,0,0,.71-.33,5.74,5.74,0,0,1,2.39-1.67,20.23,20.23,0,0,1,2-.5l.82.26a.69.69,0,0,0,.82-.55.65.65,0,0,0,0-.34,3.18,3.18,0,0,0-.14-.37,1,1,0,0,0-.75-1.21.77.77,0,0,0-.26,0,4.1,4.1,0,0,0-.61,0,6.85,6.85,0,0,0-2.85-.06C80.84,77.83,79.17,79.29,79.34,81.25Z"/><path id="Tracé_2478" data-name="Tracé 2478" class="cls-17" d="M57.2,89.78a.53.53,0,0,0,1,.21c1.59-2.75,2.92-5.72,6.52-6.1,2.14-.24,4.53,2,6.17,3.12,2.71,1.88,5.42,2.82,8.29.84a.33.33,0,0,0,.09-.47.34.34,0,0,0-.29-.16c-1.43,0-2.66.37-4.09-.15a18,18,0,0,1-4.3-2.76c-1.5-1.13-3.24-2.38-5.18-2.5C61.14,81.53,56.7,85.39,57.2,89.78Z"/><path id="Tracé_2479" data-name="Tracé 2479" class="cls-17" d="M58.78,85.72a.4.4,0,0,0,.51.25l.09,0c1.23-.66,1.69-2,3.08-2.63a7.29,7.29,0,0,1,4.48,0c2.85.64,4.84,2.5,7.3,3.87.5.28.89-.31.69-.74-1.46-3.1-6.18-4.9-9.34-5.29C63.11,80.82,57.88,82.27,58.78,85.72Z"/><path id="Tracé_2480" data-name="Tracé 2480" class="cls-17" d="M37.16,93.85a.3.3,0,0,0,.37.19.32.32,0,0,0,.12-.08c2.74-3.64,5.14-6.42,10.05-4.63,2.91,1.07,4.69,4,8,3.89a.54.54,0,0,0,.09-1.06c-2.72-.73-4.66-3.29-7.17-4.54a9.62,9.62,0,0,0-5.18-.87C40.27,87,36.06,90.46,37.16,93.85Z"/><path id="Tracé_2481" data-name="Tracé 2481" class="cls-17" d="M18.57,98.11c.21.37.91.29.94-.17.89-10.91,12.78-.26,17.36.64a.53.53,0,0,0,.63-.44.52.52,0,0,0-.27-.57c-3.89-2.28-7.75-5.8-12.33-6.51C21.31,90.5,16.48,94.4,18.57,98.11Z"/><path id="Tracé_2482" data-name="Tracé 2482" class="cls-17" d="M1.92,100.66a.66.66,0,0,0,.84.41.7.7,0,0,0,.43-.47C6,92.4,14,105,18.77,101.49a.48.48,0,0,0-.16-.86,15.59,15.59,0,0,1-6-2.19,17.49,17.49,0,0,0-5.08-2.57C4.92,95.21.82,97.7,1.92,100.66Z"/><path id="Tracé_2483" data-name="Tracé 2483" class="cls-17" d="M-9.81,104.5c.07.46.36,1.47,1.06,1.18,1-.4,1.2-1.74,1.86-2.49A6.52,6.52,0,0,1-3.23,101c1.43-.22,2.49,1.06,3.91.73a.39.39,0,0,0,.26-.5.36.36,0,0,0,0-.09A5,5,0,0,0-5.26,99.6C-6.77,100.25-10.11,102.46-9.81,104.5Z"/></g><g id="Groupe_451" data-name="Groupe 451"><path id="Tracé_2484" data-name="Tracé 2484" class="cls-18" d="M82.79,90.47c1.41-.58,2.07-2.09,2.5-3.46.36-1.15.81-3.32-.29-4.19a.31.31,0,0,0-.43,0c-.64.79-.48,2-.62,3a12.33,12.33,0,0,1-1.69,4,.45.45,0,0,0,.21.6A.44.44,0,0,0,82.79,90.47Z"/><path id="Tracé_2485" data-name="Tracé 2485" class="cls-18" d="M57.25,95.87c1.42.35,2.86-.91,3.6-2a10,10,0,0,0,1.59-5.35A.42.42,0,0,0,62,88.1a.4.4,0,0,0-.34.21c-.51,1.26-.77,2.58-1.33,3.82a5.55,5.55,0,0,1-1.64,2.05,7.72,7.72,0,0,0-1.59,1.2.3.3,0,0,0,0,.42A.33.33,0,0,0,57.25,95.87Z"/><path id="Tracé_2486" data-name="Tracé 2486" class="cls-18" d="M38.89,100.48a.44.44,0,0,0,0,.61.56.56,0,0,0,.2.11A3,3,0,0,0,42.06,99,8.31,8.31,0,0,0,42,93.77a.3.3,0,0,0-.39-.19.32.32,0,0,0-.2.22,32,32,0,0,0-.2,3.53,3.63,3.63,0,0,1-.74,2C40,99.84,39.35,100,38.89,100.48Z"/><path id="Tracé_2487" data-name="Tracé 2487" class="cls-18" d="M22.83,98.62a13.63,13.63,0,0,1,.22,3.55c-.19,1.38-1.37,1.65-2,2.68a.39.39,0,0,0,.18.52.11.11,0,0,0,.08,0c1.34.38,2.53-1.17,2.85-2.33a6,6,0,0,0-.67-4.66.37.37,0,0,0-.67.21Z"/><path id="Tracé_2488" data-name="Tracé 2488" class="cls-18" d="M3.22,107c2.49,1,3.3-2.8,2.49-4.47a.34.34,0,0,0-.46-.1.35.35,0,0,0-.11.13,10.59,10.59,0,0,0-.41,2.09A1.34,1.34,0,0,1,3.44,106C3,106,2.64,106.78,3.22,107Z"/></g></g></g></g></g></g><g id="Groupe_460" data-name="Groupe 460"><g id="Groupe_458" data-name="Groupe 458"><g id="Groupe_457" data-name="Groupe 457"><path id="Tracé_2490" data-name="Tracé 2490" class="cls-4" d="M95.55,64.65c0,6.07-6.13,11.83-18.1,14.57s-36.35,4.16-48.76,7-36.63,12.54-43,7.71-9-18.44,5.35-27.66S23.66,50,51.31,47.92,95.65,51.57,95.55,64.65Z"/><g class="cls-19"><g id="Groupe_456" data-name="Groupe 456"><path id="Tracé_2491" data-name="Tracé 2491" class="cls-7" d="M93.89,55.75c2,4.23.32,7.67-2.64,11-2.54,2.84-5.59,3.13-8.85,4.68-1.51.73-4.37,3.44-6.11,3.5C74.22,75,72.21,73,70.13,73c-5.1-.07-6.54,2.91-11.88,2.28a20,20,0,0,0-10.49,1.37c-2.6,1.08-5.56,3.7-8.47,3.78C37,80.51,35,79,32.66,79c-3.11,0-5.61,1.63-8.12,3.25-4.36,2.82-9.89,3-14.81,4.6C4,88.73-4.25,92-10.08,93.47a9.54,9.54,0,0,1-9.57-2.56c-3.85-3.72-5.85-5.64-7-10.13-.21-.76-.42-1.51-.65-2.27,1.62,6.85,3.15,19.11,11.87,20.37C-12,99.38-8.34,98.53-5,98c5.54-.83,11.08-1.78,16.57-2.93C26.06,92,40.13,87,54.73,84.73c10.5-1.63,21.52-.4,31.53-4.57C90.88,78.22,96.1,75,98,70.12c1.6-4.19-.2-8.2-2.15-11.92Z"/><path id="Tracé_2492" data-name="Tracé 2492" class="cls-5" d="M95.83,58.2c2,4.22-1.52,7.74-4.47,11-2.54,2.84-5.6,3.13-8.85,4.69-1.51.72-2.91,2.51-4.65,2.58-2.07.07-4.4.11-6.48.09-5.1-.07-7.95,2.59-13.29,2-3.72-.44-6.73-.84-10.22.62C45.26,80.27,40,82.61,37,82.69c-2.27.06-3.32-1-5.66-1-3.11,0-3.68,2.11-6.19,3.73-4.36,2.83-11,1.61-15.95,3.24C3.53,90.53.87,92.76-5,94.21c-4,1-10.52-.08-14.58-.78-5.28-.91-5.86-5.63-7.06-10.12-.2-.76-.41-1.52-.64-2.27,1.62,6.85,3.14,19.1,11.87,20.36,3.42.5,7.14-.35,10.51-.86C.69,99.7,6.22,98.76,11.72,97.6c14.45-3,28.51-8.08,43.12-10.34,10.5-1.64,21.52-.4,31.52-4.58,4.63-1.93,9.84-5.12,11.72-10,1.6-4.19-.2-8.2-2.14-11.91Z"/></g></g></g><path id="Tracé_2494" data-name="Tracé 2494" class="cls-6" d="M26.89,52.84c11.69-3.15,41.69-6.45,52.29-1.77s2.6,13.58-7.37,16.2-26.12,1.23-33,3.55-14.22,4.44-18.87,4.87S-5,84.33-8.73,85.07c-5.16,1-12.56-4.45-3.88-13.16S12.33,56.77,26.89,52.84Z"/></g><g id="Groupe_459" data-name="Groupe 459"><path id="Tracé_2495" data-name="Tracé 2495" class="cls-20" d="M38.78,60.89a.61.61,0,0,0,.46.42c.51.12.86-.25,1.21-.55a3.34,3.34,0,0,0,.94-1,.63.63,0,0,0-.59-.91,2.73,2.73,0,0,0-1.33.7C39,59.92,38.62,60.3,38.78,60.89Z"/><path id="Tracé_2496" data-name="Tracé 2496" class="cls-20" d="M31,66.7a.47.47,0,0,0,.65,0,.45.45,0,0,0,.05-.55c-.15-.29-.33-.57-.46-.87s-.31-.74-.74-.84a.44.44,0,0,0-.49.23C29.54,65.31,30.52,66.3,31,66.7Z"/><path id="Tracé_2497" data-name="Tracé 2497" class="cls-20" d="M24,62.43a.71.71,0,0,0,.58.83.69.69,0,0,0,.32,0c.36-.08.55-.46.89-.54a.6.6,0,0,0-.06-1.16,2.22,2.22,0,0,0-1,0A1.07,1.07,0,0,0,24,62.43Z"/><path id="Tracé_2498" data-name="Tracé 2498" class="cls-20" d="M32,58a.47.47,0,0,0,.38.55.48.48,0,0,0,.5-.24,4.63,4.63,0,0,1,.67-.86c.26-.29.59-.76.18-1.09s-1,0-1.28.39A2.43,2.43,0,0,0,32,58Z"/><path id="Tracé_2499" data-name="Tracé 2499" class="cls-20" d="M24,71.44a4.1,4.1,0,0,1,.05.86c-.09.51.7.84.89.32a1.69,1.69,0,0,0-.05-1.47C24.65,70.71,24,71,24,71.44Z"/><path id="Tracé_2500" data-name="Tracé 2500" class="cls-20" d="M12.23,68.6a1.13,1.13,0,0,0,1.32-.08,3.57,3.57,0,0,0,1-.84.51.51,0,0,0-.39-.85,3,3,0,0,0-1.16.42c-.39.19-.88.36-1,.85A.53.53,0,0,0,12.23,68.6Z"/><path id="Tracé_2501" data-name="Tracé 2501" class="cls-20" d="M3.71,72.9a3,3,0,0,0,.78-1.67.4.4,0,0,0-.42-.36.35.35,0,0,0-.18,0,3.54,3.54,0,0,0-1.08,1.35C2.46,72.79,3.34,73.4,3.71,72.9Z"/><path id="Tracé_2502" data-name="Tracé 2502" class="cls-20" d="M6.65,63.51c.77.13,1.44-.38,2.17-.56s.51-1.41-.24-1.3a3.64,3.64,0,0,0-2.21,1,.54.54,0,0,0,0,.76A.55.55,0,0,0,6.65,63.51Z"/><path id="Tracé_2507" data-name="Tracé 2507" class="cls-20" d="M14.23,55.66a.42.42,0,0,0,.33.38c.83.15,1.28-.76,1.5-1.41a.67.67,0,0,0-.51-.8.68.68,0,0,0-.8.52C14.6,54.81,14.21,55.14,14.23,55.66Z"/><path id="Tracé_2508" data-name="Tracé 2508" class="cls-20" d="M21.67,56.32c-.16.63.83,1,1.08.39a8.85,8.85,0,0,0,.71-1.45.61.61,0,0,0-.48-.71.62.62,0,0,0-.55.18A3.15,3.15,0,0,0,21.67,56.32Z"/><path id="Tracé_2509" data-name="Tracé 2509" class="cls-20" d="M48.46,52.41a2.84,2.84,0,0,1,.92,0c.93.24,1.23-1.2.31-1.45-.65-.18-1.78-.2-2,.63a.7.7,0,0,0,.61.79Z"/><path id="Tracé_2510" data-name="Tracé 2510" class="cls-20" d="M50.19,62.24a2.69,2.69,0,0,0,1.43-2.15.66.66,0,0,0-.71-.62.6.6,0,0,0-.31.1,3.93,3.93,0,0,0-1.22,1.94.63.63,0,0,0,.5.74A.65.65,0,0,0,50.19,62.24Z"/><path id="Tracé_2511" data-name="Tracé 2511" class="cls-20" d="M42.14,69.55a3.17,3.17,0,0,0,.7-.76.62.62,0,0,0,0-.87.63.63,0,0,0-.87,0,2.75,2.75,0,0,0-.64.83.61.61,0,0,0,.29.8A.62.62,0,0,0,42.14,69.55Z"/><path id="Tracé_2512" data-name="Tracé 2512" class="cls-20" d="M60.43,53.21c.29-.38.91-.7,1-1.21a.37.37,0,0,0-.28-.44c-.6-.06-1.09.51-1.43.95S60,53.74,60.43,53.21Z"/><path id="Tracé_2513" data-name="Tracé 2513" class="cls-20" d="M63.81,59.84a.55.55,0,0,0,.94.48,6.8,6.8,0,0,0,.67-1,2.29,2.29,0,0,0,.46-1.18.45.45,0,0,0-.49-.43l-.1,0C64.52,58,64,59.13,63.81,59.84Z"/><path id="Tracé_2514" data-name="Tracé 2514" class="cls-20" d="M72.17,53.24a1.67,1.67,0,0,0,.91-1.54.56.56,0,0,0-.45-.64.54.54,0,0,0-.57.27,6,6,0,0,0-.63,1.24.59.59,0,0,0,.46.69A.67.67,0,0,0,72.17,53.24Z"/><path id="Tracé_2515" data-name="Tracé 2515" class="cls-20" d="M75.84,60.22a5.46,5.46,0,0,1,.11,1,.54.54,0,0,0,1.06.08,3.14,3.14,0,0,0-.2-2.27.61.61,0,0,0-.84-.16.58.58,0,0,0-.24.35A2.32,2.32,0,0,0,75.84,60.22Z"/><path id="Tracé_2516" data-name="Tracé 2516" class="cls-20" d="M68.12,64.74a.54.54,0,0,0,.59.49.55.55,0,0,0,.5-.59.36.36,0,0,0,0-.1c0-.22,0-.45-.06-.68a.48.48,0,0,0-.52-.45.51.51,0,0,0-.39.25A1.67,1.67,0,0,0,68.12,64.74Z"/><path id="Tracé_2517" data-name="Tracé 2517" class="cls-20" d="M86,59.86a2.45,2.45,0,0,0,.62-2.36.56.56,0,0,0-.73-.36.57.57,0,0,0-.32.27c-.33.51-.32,1.17-.64,1.7S85.54,60.39,86,59.86Z"/><path id="Tracé_2518" data-name="Tracé 2518" class="cls-20" d="M80.6,50.7A4,4,0,0,0,82,50.27a.4.4,0,0,0-.23-.75,2.27,2.27,0,0,0-1.37.84C80.27,50.52,80.44,50.7,80.6,50.7Z"/></g></g></g></g></g><g id="Américain" class="cls-21"><text class="cls-22" transform="translate(34 31.99)">Améri<tspan class="cls-23" x="60.19" y="0">c</tspan><tspan x="71.3" y="0">ain</tspan></text></g></g></svg>