<svg id="Calque_1" data-name="Calque 1" xmlns="http://www.w3.org/2000/svg" viewBox="0 0 138 132"><defs><style>.cls-1{fill:#fff;}.cls-2{fill:#ed861f;}.cls-3{fill:#de7812;}.cls-4{fill:#fbb03b;}.cls-5{fill:#fcee21;}.cls-6,.cls-7{isolation:isolate;}.cls-7{font-size:16px;fill:#2b2b2b;font-family:SofiaPro-Bold, Sofia Pro;font-weight:700;}</style></defs><title>app-icon</title><g id="Groupe_1887" data-name="Groupe 1887"><rect id="Rectangle_45-2" data-name="Rectangle 45-2" class="cls-1" width="138" height="132" rx="6"/><g id="Groupe_1861" data-name="Groupe 1861"><g id="Groupe_1727" data-name="Groupe 1727"><path id="Tracé_8601" data-name="Tracé 8601" class="cls-2" d="M47.84,50.66l0,1.9c.29,1.59,3.47,2.84,7.67,2.74s7.35-1.53,7.44-3.09L63,50.43"/><path id="Tracé_8602" data-name="Tracé 8602" class="cls-3" d="M63,52.21,63,50.46c-1.46.64-4.83,2.1-6.77,2.84a8.58,8.58,0,0,1-.13,2C60.05,55.08,62.92,53.71,63,52.21Z"/><path id="Tracé_8603" data-name="Tracé 8603" class="cls-4" d="M63.07,50.47c0,1.68-3.34,3.08-7.54,3.18s-7.63-1.21-7.66-2.9,3.34-3.08,7.54-3.18S63,48.78,63.07,50.47Z"/><path id="Tracé_8604" data-name="Tracé 8604" class="cls-2" d="M61.74,50.18c0,1.14-2.77,2.13-6.24,2.19s-6.3-.82-6.33-2,2.77-2.13,6.24-2.19S61.71,49,61.74,50.18Z"/><path id="Tracé_8605" data-name="Tracé 8605" class="cls-3" d="M55.41,48.53c3.34-.07,6.07.76,6.3,1.84,0-.06,0-.1,0-.16,0-1.14-2.86-2-6.33-2s-6.27,1-6.23,2.19a.15.15,0,0,0,0,.13C49.43,49.48,52.1,48.59,55.41,48.53Z"/><path id="Tracé_8606" data-name="Tracé 8606" class="cls-3" d="M60.18,50.24H59v-.1c-.1-.35-.38-.8-1.33-.86a2,2,0,0,0-1.91.8l-.13.13H53a.78.78,0,0,1,.23-.25.3.3,0,0,0,0-.42.3.3,0,0,0-.41,0,1.52,1.52,0,0,0-.44.7h-.8a.29.29,0,0,0,0,.58h.8a1.47,1.47,0,0,1,.1.22,1.83,1.83,0,0,0,2.25.48,3,3,0,0,0,1.15-.7h2.45a2,2,0,0,1-.48.73.29.29,0,0,0-.1.41h0a.33.33,0,0,0,.26.16.2.2,0,0,0,.15,0A2.75,2.75,0,0,0,59,50.88h1.21a.29.29,0,0,0,.29-.28h0a.3.3,0,0,0-.22-.35Zm-2.54-.35c.44,0,.69.16.8.35h-2a1.28,1.28,0,0,1,1.18-.35ZM54.55,51a1.45,1.45,0,0,1-1.49-.12H54.9a2.06,2.06,0,0,0-.35.12Z"/><g id="Groupe_1726" data-name="Groupe 1726"><g id="Groupe_1724" data-name="Groupe 1724"><path id="Tracé_8607" data-name="Tracé 8607" class="cls-4" d="M60.12,50.66H51.5a.29.29,0,0,1,0-.58h8.62a.29.29,0,0,1,.28.29h0A.31.31,0,0,1,60.12,50.66Z"/></g><g id="Groupe_1725" data-name="Groupe 1725"><path id="Tracé_8608" data-name="Tracé 8608" class="cls-4" d="M58,51.89a.29.29,0,0,1-.25-.15.32.32,0,0,1,.1-.42c.16-.1.7-.82.57-1.27-.06-.22-.32-.35-.8-.38a1.42,1.42,0,0,0-1.43.6,3,3,0,0,1-1.46,1c-1.15.38-2,0-2.26-.48a1.18,1.18,0,0,1,.32-1.5.3.3,0,0,1,.41,0,.29.29,0,0,1,0,.42.6.6,0,0,0-.22.76c.19.32.76.51,1.59.22a2.31,2.31,0,0,0,1.21-.85,1.89,1.89,0,0,1,1.91-.8c1,.06,1.24.5,1.33.85a2.21,2.21,0,0,1-.86,1.91A.19.19,0,0,1,58,51.89Z"/></g></g><path id="Tracé_8609" data-name="Tracé 8609" class="cls-5" d="M59.61,52.66c.44.1,4-1.15,2.86-2.7C62.63,50.76,61.71,51.9,59.61,52.66Z"/><path id="Tracé_8610" data-name="Tracé 8610" class="cls-5" d="M49.68,48.94c-1.43.44-2.1,1.72-.73,2.64C48.32,50.5,48.67,49.77,49.68,48.94Z"/></g><g id="Groupe_1731" data-name="Groupe 1731"><path id="Tracé_8611" data-name="Tracé 8611" class="cls-2" d="M47.84,48.27l0,1.91c.29,1.59,3.47,2.83,7.67,2.73s7.35-1.52,7.44-3.08L63,48.05"/><path id="Tracé_8612" data-name="Tracé 8612" class="cls-3" d="M63,49.83,63,48.08c-1.46.64-4.83,2.1-6.77,2.83a8.67,8.67,0,0,1-.13,2C60.05,52.69,62.92,51.32,63,49.83Z"/><path id="Tracé_8613" data-name="Tracé 8613" class="cls-4" d="M63.07,48.05c0,1.68-3.34,3.08-7.54,3.18S47.9,50,47.87,48.33s3.34-3.08,7.54-3.18S63,46.39,63.07,48.05Z"/><path id="Tracé_8614" data-name="Tracé 8614" class="cls-2" d="M61.74,47.79c0,1.15-2.77,2.13-6.24,2.2s-6.3-.83-6.33-2,2.77-2.13,6.24-2.2S61.71,46.65,61.74,47.79Z"/><path id="Tracé_8615" data-name="Tracé 8615" class="cls-3" d="M55.41,46.11c3.34-.07,6.07.76,6.3,1.84,0-.06,0-.1,0-.16,0-1.14-2.86-2-6.33-2s-6.27,1-6.23,2.2a.13.13,0,0,0,0,.12C49.43,47.09,52.1,46.17,55.41,46.11Z"/><path id="Tracé_8616" data-name="Tracé 8616" class="cls-3" d="M60.18,47.86H59v-.1c-.1-.35-.38-.8-1.33-.86a2,2,0,0,0-1.91.8l-.13.13H53a.82.82,0,0,1,.23-.26.29.29,0,0,0,0-.41.28.28,0,0,0-.41,0,1.52,1.52,0,0,0-.44.7h-.8a.29.29,0,1,0,0,.57h.8a2.14,2.14,0,0,1,.1.22,1.83,1.83,0,0,0,2.25.48,2.9,2.9,0,0,0,1.15-.7h2.45a1.9,1.9,0,0,1-.48.73.31.31,0,0,0-.1.42h0a.33.33,0,0,0,.26.16.26.26,0,0,0,.15,0A2.75,2.75,0,0,0,59,48.49h1.21a.28.28,0,0,0,.29-.28h0a.3.3,0,0,0-.22-.35Zm-2.54-.38c.44,0,.69.15.8.35h-2a1.41,1.41,0,0,1,1.18-.35Zm-3.09,1.08a1.48,1.48,0,0,1-1.49-.13H54.9c-.09,0-.23.1-.35.13Z"/><g id="Groupe_1730" data-name="Groupe 1730"><g id="Groupe_1728" data-name="Groupe 1728"><path id="Tracé_8617" data-name="Tracé 8617" class="cls-4" d="M60.12,48.24H51.5a.29.29,0,0,1-.29-.29.28.28,0,0,1,.29-.28h8.62a.27.27,0,0,1,.28.28A.28.28,0,0,1,60.12,48.24Z"/></g><g id="Groupe_1729" data-name="Groupe 1729"><path id="Tracé_8618" data-name="Tracé 8618" class="cls-4" d="M58,49.51a.33.33,0,0,1-.25-.16.31.31,0,0,1,.1-.41c.16-.1.7-.83.57-1.28-.06-.22-.32-.35-.8-.38a1.42,1.42,0,0,0-1.43.6,2.89,2.89,0,0,1-1.46,1c-1.15.38-2,0-2.26-.48a1.16,1.16,0,0,1,.32-1.49.29.29,0,0,1,.41.41.61.61,0,0,0-.22.77c.19.31.76.5,1.59.22a2.38,2.38,0,0,0,1.21-.86,1.91,1.91,0,0,1,1.91-.8c1,.06,1.24.51,1.33.86a2.22,2.22,0,0,1-.86,1.91A.22.22,0,0,1,58,49.51Z"/></g></g><path id="Tracé_8619" data-name="Tracé 8619" class="cls-5" d="M59.61,50.27c.44.1,4-1.14,2.86-2.7C62.63,48.37,61.71,49.51,59.61,50.27Z"/><path id="Tracé_8620" data-name="Tracé 8620" class="cls-5" d="M49.68,46.55c-1.43.45-2.1,1.72-.73,2.64C48.32,48.08,48.67,47.35,49.68,46.55Z"/></g><g id="Groupe_1735" data-name="Groupe 1735"><path id="Tracé_8621" data-name="Tracé 8621" class="cls-2" d="M48.48,45.85l0,1.91c.28,1.59,3.46,2.83,7.66,2.74s7.35-1.53,7.45-3.09l.06-1.78"/><path id="Tracé_8622" data-name="Tracé 8622" class="cls-3" d="M63.62,47.44l.06-1.75c-1.47.64-4.84,2.1-6.78,2.84a8.61,8.61,0,0,1-.12,2C60.69,50.27,63.52,48.91,63.62,47.44Z"/><path id="Tracé_8623" data-name="Tracé 8623" class="cls-4" d="M63.68,45.66c0,1.69-3.34,3.09-7.54,3.18S48.5,47.63,48.47,46s3.34-3.09,7.54-3.18S63.65,44,63.68,45.66Z"/><path id="Tracé_8624" data-name="Tracé 8624" class="cls-2" d="M62.34,45.41c0,1.14-2.76,2.13-6.23,2.19s-6.3-.82-6.33-2S52.55,43.5,56,43.44,62.31,44.23,62.34,45.41Z"/><path id="Tracé_8625" data-name="Tracé 8625" class="cls-3" d="M56,43.72c3.34-.06,6.08.76,6.3,1.85,0-.07,0-.1,0-.16,0-1.15-2.87-2-6.33-2s-6.27,1.05-6.24,2.19a.31.31,0,0,0,0,.13C50,44.68,52.74,43.79,56,43.72Z"/><path id="Tracé_8626" data-name="Tracé 8626" class="cls-3" d="M60.82,45.44H59.64v-.1c-.1-.35-.38-.8-1.34-.86a2,2,0,0,0-1.9.8l-.13.13H53.63a.78.78,0,0,1,.22-.26.28.28,0,0,0,0-.41.29.29,0,0,0-.41,0,1.54,1.54,0,0,0-.45.7h-.8a.29.29,0,0,0,0,.57H53a.94.94,0,0,1,.1.23,1.86,1.86,0,0,0,2.26.47A3,3,0,0,0,56.5,46h2.44a1.77,1.77,0,0,1-.47.73.31.31,0,0,0-.1.42h0a.33.33,0,0,0,.25.16.41.41,0,0,0,.16,0,2.8,2.8,0,0,0,.83-1.21h1.21a.29.29,0,0,0,.28-.29h0C61.1,45.57,61,45.44,60.82,45.44Zm-2.55-.35c.45,0,.7.16.8.35h-2c.22-.25.5-.38,1.17-.35Zm-3.08,1.08a1.5,1.5,0,0,1-1.5-.13h1.85c-.13,0-.23.1-.35.13Z"/><g id="Groupe_1734" data-name="Groupe 1734"><g id="Groupe_1732" data-name="Groupe 1732"><path id="Tracé_8627" data-name="Tracé 8627" class="cls-4" d="M60.75,45.85H52.13a.29.29,0,0,1,0-.57h8.62a.29.29,0,1,1,0,.57Z"/></g><g id="Groupe_1733" data-name="Groupe 1733"><path id="Tracé_8628" data-name="Tracé 8628" class="cls-4" d="M58.56,47.12A.35.35,0,0,1,58.3,47a.32.32,0,0,1,.1-.41c.16-.1.7-.83.58-1.27-.07-.22-.32-.35-.8-.38a1.39,1.39,0,0,0-1.43.6,2.86,2.86,0,0,1-1.47,1c-1.14.39-2,0-2.26-.47a1.19,1.19,0,0,1,.32-1.5.3.3,0,0,1,.42.42.6.6,0,0,0-.23.76c.19.32.77.51,1.59.22a2.34,2.34,0,0,0,1.21-.86,1.91,1.91,0,0,1,1.91-.8c.95.07,1.24.51,1.34.86a2.28,2.28,0,0,1-.86,1.91C58.65,47.09,58.62,47.12,58.56,47.12Z"/></g></g><path id="Tracé_8629" data-name="Tracé 8629" class="cls-5" d="M60.24,47.89c.45.1,4-1.15,2.87-2.7C63.23,46,62.31,47.09,60.24,47.89Z"/><path id="Tracé_8630" data-name="Tracé 8630" class="cls-5" d="M50.32,44.17c-1.43.44-2.1,1.72-.73,2.64C49,45.69,49.27,45,50.32,44.17Z"/></g><g id="Groupe_1739" data-name="Groupe 1739"><path id="Tracé_8631" data-name="Tracé 8631" class="cls-2" d="M47.84,43.47l0,1.91c.29,1.59,3.47,2.83,7.67,2.73S62.89,46.58,63,45L63,43.25"/><path id="Tracé_8632" data-name="Tracé 8632" class="cls-3" d="M63,45,63,43.28c-1.46.63-4.83,2.1-6.77,2.83a8.67,8.67,0,0,1-.13,2C60.05,47.89,62.92,46.52,63,45Z"/><path id="Tracé_8633" data-name="Tracé 8633" class="cls-4" d="M63.07,43.28c0,1.68-3.34,3.08-7.54,3.18s-7.63-1.21-7.66-2.9,3.34-3.08,7.54-3.18S63,41.59,63.07,43.28Z"/><path id="Tracé_8634" data-name="Tracé 8634" class="cls-2" d="M61.74,43c0,1.15-2.77,2.13-6.24,2.2s-6.3-.83-6.33-2,2.77-2.13,6.24-2.19S61.71,41.85,61.74,43Z"/><path id="Tracé_8635" data-name="Tracé 8635" class="cls-3" d="M55.41,41.34c3.34-.07,6.07.76,6.3,1.84,0-.06,0-.1,0-.16,0-1.14-2.86-2-6.33-2s-6.27,1.05-6.23,2.2a.14.14,0,0,0,0,.12C49.43,42.29,52.1,41.4,55.41,41.34Z"/><path id="Tracé_8636" data-name="Tracé 8636" class="cls-3" d="M60.18,43.05H59V43c-.1-.35-.38-.8-1.33-.85a2,2,0,0,0-1.91.8l-.13.12H53a.78.78,0,0,1,.23-.25.3.3,0,0,0,0-.42.29.29,0,0,0-.41,0h0a1.47,1.47,0,0,0-.44.7h-.8a.28.28,0,0,0-.29.28.29.29,0,0,0,.29.29h.8a1.47,1.47,0,0,1,.1.22,1.83,1.83,0,0,0,2.25.48,2.9,2.9,0,0,0,1.15-.7h2.45a1.9,1.9,0,0,1-.48.73.3.3,0,0,0-.1.41h0a.33.33,0,0,0,.26.16.2.2,0,0,0,.15,0A2.75,2.75,0,0,0,59,43.69h1.21a.29.29,0,0,0,.29-.28h0a.3.3,0,0,0-.22-.35Zm-2.54-.35c.44,0,.69.16.8.35h-2a1.28,1.28,0,0,1,1.18-.35Zm-3.09,1.09a1.48,1.48,0,0,1-1.49-.13H54.9a1.48,1.48,0,0,0-.35.13Z"/><g id="Groupe_1738" data-name="Groupe 1738"><g id="Groupe_1736" data-name="Groupe 1736"><path id="Tracé_8637" data-name="Tracé 8637" class="cls-4" d="M60.12,43.47H51.5a.29.29,0,0,1-.29-.29.28.28,0,0,1,.29-.28h8.62a.27.27,0,0,1,.28.28A.28.28,0,0,1,60.12,43.47Z"/></g><g id="Groupe_1737" data-name="Groupe 1737"><path id="Tracé_8638" data-name="Tracé 8638" class="cls-4" d="M58,44.71a.33.33,0,0,1-.25-.16.32.32,0,0,1,.1-.42c.16-.1.7-.83.57-1.27-.06-.22-.32-.35-.8-.38a1.42,1.42,0,0,0-1.43.6,3,3,0,0,1-1.46,1c-1.15.38-2,0-2.26-.48a1.18,1.18,0,0,1,.32-1.5.3.3,0,0,1,.41,0,.29.29,0,0,1,0,.42h0a.6.6,0,0,0-.22.76c.19.32.76.51,1.59.22a2.33,2.33,0,0,0,1.21-.86,1.91,1.91,0,0,1,1.91-.8c1,.07,1.24.51,1.33.86a2.21,2.21,0,0,1-.86,1.91A.19.19,0,0,1,58,44.71Z"/></g></g><path id="Tracé_8639" data-name="Tracé 8639" class="cls-5" d="M59.61,45.47c.44.1,4-1.15,2.86-2.7C62.63,43.57,61.71,44.71,59.61,45.47Z"/><path id="Tracé_8640" data-name="Tracé 8640" class="cls-5" d="M49.68,41.78c-1.43.45-2.1,1.72-.73,2.64C48.32,43.31,48.67,42.58,49.68,41.78Z"/></g><g id="Groupe_1743" data-name="Groupe 1743"><path id="Tracé_8641" data-name="Tracé 8641" class="cls-2" d="M47.24,41.08l0,1.91c.28,1.59,3.46,2.83,7.66,2.73s7.35-1.52,7.45-3.08l.06-1.78"/><path id="Tracé_8642" data-name="Tracé 8642" class="cls-3" d="M62.38,42.64l.06-1.75c-1.47.64-4.84,2.1-6.78,2.83a8.67,8.67,0,0,1-.12,2C59.45,45.5,62.28,44.14,62.38,42.64Z"/><path id="Tracé_8643" data-name="Tracé 8643" class="cls-4" d="M62.44,40.86c0,1.68-3.34,3.08-7.54,3.18s-7.64-1.21-7.67-2.89,3.34-3.09,7.54-3.19S62.41,39.21,62.44,40.86Z"/><path id="Tracé_8644" data-name="Tracé 8644" class="cls-2" d="M61.1,40.6c0,1.15-2.76,2.14-6.23,2.2s-6.3-.83-6.33-2,2.77-2.13,6.23-2.2S61.07,39.46,61.1,40.6Z"/><path id="Tracé_8645" data-name="Tracé 8645" class="cls-3" d="M54.81,39c3.34-.06,6.07.76,6.3,1.85,0-.07,0-.1,0-.16,0-1.15-2.87-2-6.33-2s-6.27,1.05-6.24,2.2a.22.22,0,0,0,0,.13C48.83,39.9,51.5,39,54.81,39Z"/><path id="Tracé_8646" data-name="Tracé 8646" class="cls-3" d="M59.58,40.67H58.4v-.1c-.1-.35-.38-.8-1.34-.86a2,2,0,0,0-1.9.8l-.13.13H52.39a.78.78,0,0,1,.22-.26A.29.29,0,1,0,52.2,40a1.54,1.54,0,0,0-.45.7H51a.29.29,0,0,0,0,.57h.8a1.07,1.07,0,0,1,.1.22,1.85,1.85,0,0,0,2.26.48,3,3,0,0,0,1.15-.7H57.7a1.77,1.77,0,0,1-.47.73.31.31,0,0,0-.1.42h0a.33.33,0,0,0,.25.16.29.29,0,0,0,.16,0,2.75,2.75,0,0,0,.83-1.21h1.21a.28.28,0,0,0,.28-.28h0C59.86,40.8,59.74,40.67,59.58,40.67ZM57,40.29c.45,0,.7.15.8.35h-2A1.36,1.36,0,0,1,57,40.29ZM54,41.37a1.5,1.5,0,0,1-1.5-.13H54.3a1.66,1.66,0,0,1-.35.13Z"/><g id="Groupe_1742" data-name="Groupe 1742"><g id="Groupe_1740" data-name="Groupe 1740"><path id="Tracé_8647" data-name="Tracé 8647" class="cls-4" d="M59.51,41.05H50.89a.29.29,0,0,1,0-.57h8.62a.29.29,0,1,1,0,.57Z"/></g><g id="Groupe_1741" data-name="Groupe 1741"><path id="Tracé_8648" data-name="Tracé 8648" class="cls-4" d="M57.32,42.32a.35.35,0,0,1-.26-.16.32.32,0,0,1,.1-.41c.16-.1.7-.83.58-1.28-.07-.22-.32-.35-.8-.38a1.4,1.4,0,0,0-1.43.6,2.88,2.88,0,0,1-1.47,1,1.84,1.84,0,0,1-2.26-.48,1.18,1.18,0,0,1,.32-1.49.29.29,0,0,1,.42,0,.3.3,0,0,1,0,.41.61.61,0,0,0-.23.76c.19.32.77.51,1.59.23a2.34,2.34,0,0,0,1.21-.86,1.91,1.91,0,0,1,1.91-.8c1,.06,1.24.51,1.34.86a2.28,2.28,0,0,1-.86,1.91A.15.15,0,0,1,57.32,42.32Z"/></g></g><path id="Tracé_8649" data-name="Tracé 8649" class="cls-5" d="M59,43.08c.45.1,4-1.14,2.87-2.7C62,41.18,61.07,42.32,59,43.08Z"/><path id="Tracé_8650" data-name="Tracé 8650" class="cls-5" d="M49.08,39.36c-1.43.45-2.1,1.72-.73,2.64C47.71,40.92,48,40.19,49.08,39.36Z"/></g><g id="Groupe_1747" data-name="Groupe 1747"><path id="Tracé_8651" data-name="Tracé 8651" class="cls-2" d="M74.33,54.57l0,1.91c.28,1.59,3.46,2.83,7.66,2.73s7.35-1.52,7.45-3.08l.06-1.78"/><path id="Tracé_8652" data-name="Tracé 8652" class="cls-3" d="M89.51,56.13l.06-1.75c-1.46.63-4.83,2.1-6.77,2.83a8.67,8.67,0,0,1-.13,2C86.55,59,89.41,57.62,89.51,56.13Z"/><path id="Tracé_8653" data-name="Tracé 8653" class="cls-4" d="M89.57,54.38c0,1.68-3.34,3.08-7.54,3.18s-7.64-1.21-7.67-2.9,3.34-3.08,7.54-3.18S89.54,52.69,89.57,54.38Z"/><path id="Tracé_8654" data-name="Tracé 8654" class="cls-2" d="M88.23,54.09c0,1.15-2.76,2.13-6.23,2.2s-6.3-.83-6.33-2,2.77-2.13,6.23-2.19S88.2,53,88.23,54.09Z"/><path id="Tracé_8655" data-name="Tracé 8655" class="cls-3" d="M81.91,52.44c3.34-.07,6.07.76,6.3,1.84,0-.06,0-.1,0-.16,0-1.14-2.87-2-6.33-2s-6.27,1.05-6.24,2.2a.17.17,0,0,0,0,.12C75.93,53.39,78.63,52.5,81.91,52.44Z"/><path id="Tracé_8656" data-name="Tracé 8656" class="cls-3" d="M86.71,54.15H85.53v-.1c-.1-.35-.38-.8-1.34-.85a2,2,0,0,0-1.9.8l-.13.12H79.52a.88.88,0,0,1,.22-.25.29.29,0,0,0-.41-.41,1.47,1.47,0,0,0-.44.7h-.81a.28.28,0,0,0-.28.28.29.29,0,0,0,.28.29h.81L79,55a1.83,1.83,0,0,0,2.25.48,2.9,2.9,0,0,0,1.15-.7h2.45a1.9,1.9,0,0,1-.48.73.3.3,0,0,0-.1.41h0a.29.29,0,0,0,.25.15.22.22,0,0,0,.16,0,2.75,2.75,0,0,0,.83-1.21h1.21a.27.27,0,0,0,.28-.28h0C87,54.28,86.87,54.15,86.71,54.15Zm-2.55-.35c.45,0,.7.16.8.35H83a1.19,1.19,0,0,1,1.17-.34Zm-3.11,1.09a1.5,1.5,0,0,1-1.5-.13H81.4a2.09,2.09,0,0,0-.35.13Z"/><g id="Groupe_1746" data-name="Groupe 1746"><g id="Groupe_1744" data-name="Groupe 1744"><path id="Tracé_8657" data-name="Tracé 8657" class="cls-4" d="M86.61,54.57H78a.28.28,0,0,1-.28-.29A.27.27,0,0,1,78,54h8.62a.28.28,0,0,1,.29.28h0C86.93,54.44,86.77,54.57,86.61,54.57Z"/></g><g id="Groupe_1745" data-name="Groupe 1745"><path id="Tracé_8658" data-name="Tracé 8658" class="cls-4" d="M84.45,55.81a.33.33,0,0,1-.25-.16.32.32,0,0,1,.1-.42c.16-.1.7-.82.57-1.27-.06-.22-.32-.35-.8-.38a1.41,1.41,0,0,0-1.43.6,2.9,2.9,0,0,1-1.47,1c-1.14.38-2,0-2.25-.48a1.15,1.15,0,0,1,.35-1.5.3.3,0,0,1,.41,0,.31.31,0,0,1,0,.42.6.6,0,0,0-.22.76c.19.32.76.51,1.59.22a2.33,2.33,0,0,0,1.21-.86,1.9,1.9,0,0,1,1.9-.8c1,.07,1.24.51,1.34.86a2.21,2.21,0,0,1-.86,1.91A.26.26,0,0,1,84.45,55.81Z"/></g></g><path id="Tracé_8659" data-name="Tracé 8659" class="cls-5" d="M86.1,56.57c.45.1,4-1.15,2.87-2.7C89.13,54.67,88.2,55.81,86.1,56.57Z"/><path id="Tracé_8660" data-name="Tracé 8660" class="cls-5" d="M76.18,52.85c-1.43.45-2.1,1.72-.73,2.64C74.84,54.41,75.16,53.68,76.18,52.85Z"/></g><g id="Groupe_1751" data-name="Groupe 1751"><path id="Tracé_8661" data-name="Tracé 8661" class="cls-2" d="M74.33,52.18l0,1.91c.28,1.59,3.46,2.83,7.66,2.74s7.35-1.53,7.45-3.09L89.54,52"/><path id="Tracé_8662" data-name="Tracé 8662" class="cls-3" d="M89.51,53.74,89.57,52c-1.46.64-4.83,2.1-6.77,2.83a8.8,8.8,0,0,1-.13,2C86.55,56.6,89.41,55.24,89.51,53.74Z"/><path id="Tracé_8663" data-name="Tracé 8663" class="cls-4" d="M89.57,52c0,1.69-3.34,3.09-7.54,3.18s-7.64-1.21-7.67-2.89,3.34-3.09,7.54-3.18S89.54,50.31,89.57,52Z"/><path id="Tracé_8664" data-name="Tracé 8664" class="cls-2" d="M88.23,51.71c0,1.14-2.76,2.13-6.23,2.19s-6.3-.8-6.33-2,2.77-2.13,6.23-2.2S88.2,50.56,88.23,51.71Z"/><path id="Tracé_8665" data-name="Tracé 8665" class="cls-3" d="M81.91,50.05c3.34-.06,6.07.76,6.3,1.85,0-.07,0-.1,0-.16,0-1.15-2.87-2-6.33-2s-6.27,1-6.24,2.19a.22.22,0,0,0,0,.13C75.93,51,78.63,50.12,81.91,50.05Z"/><path id="Tracé_8666" data-name="Tracé 8666" class="cls-3" d="M86.71,51.77H85.53v-.1c-.1-.35-.38-.8-1.34-.86a2,2,0,0,0-1.9.8l-.13.13H79.52a.92.92,0,0,1,.22-.26.28.28,0,0,0,0-.41.29.29,0,0,0-.41,0,1.52,1.52,0,0,0-.44.7h-.81a.29.29,0,0,0,0,.57h.81c0,.07.07.15.1.23a1.84,1.84,0,0,0,2.25.47,2.9,2.9,0,0,0,1.15-.7h2.45a1.9,1.9,0,0,1-.48.73.31.31,0,0,0-.1.42h0a.33.33,0,0,0,.25.16.41.41,0,0,0,.16,0,2.8,2.8,0,0,0,.83-1.21h1.21a.28.28,0,0,0,.28-.29h0C87,51.9,86.87,51.77,86.71,51.77Zm-2.55-.38c.45,0,.7.16.8.35H83a1.34,1.34,0,0,1,1.17-.35Zm-3.11,1.08a1.5,1.5,0,0,1-1.5-.13H81.4a1.14,1.14,0,0,1-.35.13Z"/><g id="Groupe_1750" data-name="Groupe 1750"><g id="Groupe_1748" data-name="Groupe 1748"><path id="Tracé_8667" data-name="Tracé 8667" class="cls-4" d="M86.61,52.15H78a.29.29,0,0,1,0-.57h8.62a.28.28,0,0,1,.29.28h0C86.93,52,86.77,52.15,86.61,52.15Z"/></g><g id="Groupe_1749" data-name="Groupe 1749"><path id="Tracé_8668" data-name="Tracé 8668" class="cls-4" d="M84.45,53.42a.33.33,0,0,1-.25-.16.31.31,0,0,1,.1-.41c.16-.1.7-.83.57-1.27-.06-.23-.32-.36-.8-.39a1.43,1.43,0,0,0-1.43.6,2.84,2.84,0,0,1-1.46,1c-1.15.38-2,0-2.26-.48a1.15,1.15,0,0,1,.35-1.49.29.29,0,0,1,.41.41.61.61,0,0,0-.22.77c.19.31.76.5,1.59.22a2.38,2.38,0,0,0,1.21-.86,1.91,1.91,0,0,1,1.91-.8c1,.06,1.24.51,1.33.86a2.22,2.22,0,0,1-.86,1.91A.32.32,0,0,1,84.45,53.42Z"/></g></g><path id="Tracé_8669" data-name="Tracé 8669" class="cls-5" d="M86.1,54.18c.45.1,4-1.14,2.87-2.7C89.13,52.28,88.2,53.42,86.1,54.18Z"/><path id="Tracé_8670" data-name="Tracé 8670" class="cls-5" d="M76.18,50.46c-1.43.45-2.1,1.72-.73,2.64C74.84,52,75.16,51.29,76.18,50.46Z"/></g><g id="Groupe_1755" data-name="Groupe 1755"><path id="Tracé_8671" data-name="Tracé 8671" class="cls-2" d="M74.33,49.77l0,1.9c.28,1.59,3.46,2.84,7.66,2.74s7.35-1.53,7.45-3.09l.06-1.78"/><path id="Tracé_8672" data-name="Tracé 8672" class="cls-3" d="M89.51,51.36l.06-1.75c-1.46.63-4.83,2.1-6.77,2.83a8.67,8.67,0,0,1-.13,2C86.55,54.19,89.41,52.82,89.51,51.36Z"/><path id="Tracé_8673" data-name="Tracé 8673" class="cls-4" d="M89.57,49.58c0,1.68-3.34,3.08-7.54,3.18s-7.64-1.21-7.67-2.9,3.34-3.08,7.54-3.18S89.54,47.89,89.57,49.58Z"/><path id="Tracé_8674" data-name="Tracé 8674" class="cls-2" d="M88.23,49.32c0,1.15-2.76,2.13-6.23,2.2s-6.3-.83-6.33-2,2.77-2.13,6.23-2.19S88.2,48.17,88.23,49.32Z"/><path id="Tracé_8675" data-name="Tracé 8675" class="cls-3" d="M81.91,47.63c3.34-.06,6.07.77,6.3,1.85,0-.06,0-.1,0-.16,0-1.15-2.87-2-6.33-2s-6.27,1-6.24,2.19a.2.2,0,0,0,0,.13C75.93,48.59,78.63,47.7,81.91,47.63Z"/><path id="Tracé_8676" data-name="Tracé 8676" class="cls-3" d="M86.71,49.35H85.53v-.1c-.1-.35-.38-.8-1.34-.86a2,2,0,0,0-1.9.8l-.13.13H79.52a.88.88,0,0,1,.22-.25.29.29,0,0,0,0-.42.3.3,0,0,0-.41,0,1.52,1.52,0,0,0-.44.7h-.81a.29.29,0,0,0-.28.29.28.28,0,0,0,.28.28h.81c0,.08.07.15.1.23a1.84,1.84,0,0,0,2.25.48,3.15,3.15,0,0,0,1.15-.7h2.45a2.06,2.06,0,0,1-.48.73.29.29,0,0,0-.1.41h0a.33.33,0,0,0,.25.16.41.41,0,0,0,.16,0A2.75,2.75,0,0,0,85.5,50h1.21A.28.28,0,0,0,87,49.7h0A.32.32,0,0,0,86.71,49.35ZM84.16,49c.45,0,.7.16.8.35H83c.22-.25.51-.38,1.17-.35Zm-3.11,1.08a1.47,1.47,0,0,1-1.5-.12H81.4c-.1,0-.23.09-.35.12Z"/><g id="Groupe_1754" data-name="Groupe 1754"><g id="Groupe_1752" data-name="Groupe 1752"><path id="Tracé_8677" data-name="Tracé 8677" class="cls-4" d="M86.61,49.77H78a.29.29,0,0,1,0-.58h8.62a.29.29,0,0,1,.29.29h0C86.93,49.64,86.77,49.77,86.61,49.77Z"/></g><g id="Groupe_1753" data-name="Groupe 1753"><path id="Tracé_8678" data-name="Tracé 8678" class="cls-4" d="M84.45,51a.33.33,0,0,1-.25-.16.32.32,0,0,1,.1-.42c.16-.1.7-.82.57-1.27-.06-.22-.32-.35-.8-.38a1.41,1.41,0,0,0-1.43.6,2.82,2.82,0,0,1-1.47,1c-1.14.39-2,0-2.25-.47a1.15,1.15,0,0,1,.35-1.5.3.3,0,0,1,.41,0,.31.31,0,0,1,0,.42.6.6,0,0,0-.22.76c.19.32.76.51,1.59.22A2.33,2.33,0,0,0,82.26,49a1.9,1.9,0,0,1,1.9-.8c1,.07,1.24.51,1.34.86A2.21,2.21,0,0,1,84.64,51,.5.5,0,0,1,84.45,51Z"/></g></g><path id="Tracé_8679" data-name="Tracé 8679" class="cls-5" d="M86.1,51.8c.45.1,4-1.15,2.87-2.7C89.13,49.86,88.2,51,86.1,51.8Z"/><path id="Tracé_8680" data-name="Tracé 8680" class="cls-5" d="M76.18,48.08c-1.43.45-2.1,1.72-.73,2.64C74.84,49.61,75.16,48.88,76.18,48.08Z"/></g><g id="Groupe_1759" data-name="Groupe 1759"><path id="Tracé_8681" data-name="Tracé 8681" class="cls-2" d="M74.33,47.38l0,1.91c.28,1.59,3.46,2.83,7.66,2.73s7.35-1.52,7.45-3.08l.06-1.78"/><path id="Tracé_8682" data-name="Tracé 8682" class="cls-3" d="M89.51,48.94l.06-1.75c-1.46.64-4.83,2.1-6.77,2.83a8.67,8.67,0,0,1-.13,2C86.55,51.8,89.41,50.43,89.51,48.94Z"/><path id="Tracé_8683" data-name="Tracé 8683" class="cls-4" d="M89.57,47.19c0,1.69-3.34,3.08-7.54,3.18s-7.64-1.21-7.67-2.89,3.34-3.09,7.54-3.19S89.54,45.5,89.57,47.19Z"/><path id="Tracé_8684" data-name="Tracé 8684" class="cls-2" d="M88.23,46.9c0,1.15-2.76,2.13-6.23,2.2s-6.3-.8-6.33-2,2.77-2.14,6.23-2.2S88.2,45.76,88.23,46.9Z"/><path id="Tracé_8685" data-name="Tracé 8685" class="cls-3" d="M81.91,45.25c3.34-.07,6.07.76,6.3,1.84,0-.06,0-.1,0-.16,0-1.14-2.87-2-6.33-2s-6.27,1-6.24,2.2a.17.17,0,0,0,0,.12C75.93,46.2,78.63,45.31,81.91,45.25Z"/><path id="Tracé_8686" data-name="Tracé 8686" class="cls-3" d="M86.71,47H85.53v-.1c-.1-.35-.38-.8-1.34-.86a2,2,0,0,0-1.9.8l-.13.12H79.52a1,1,0,0,1,.22-.25.29.29,0,0,0-.41-.41,1.52,1.52,0,0,0-.44.7h-.81a.29.29,0,0,0,0,.57h.81l.1.22a1.83,1.83,0,0,0,2.25.48,2.9,2.9,0,0,0,1.15-.7h2.45a1.9,1.9,0,0,1-.48.73.3.3,0,0,0-.1.41h0a.33.33,0,0,0,.25.16.29.29,0,0,0,.16,0,2.75,2.75,0,0,0,.83-1.21h1.21a.27.27,0,0,0,.28-.28h0C87,47.09,86.87,47,86.71,47Zm-2.55-.35c.45,0,.7.15.8.35H83a1.18,1.18,0,0,1,1.17-.35ZM81.05,47.7a1.5,1.5,0,0,1-1.5-.13H81.4a2.09,2.09,0,0,0-.35.13Z"/><g id="Groupe_1758" data-name="Groupe 1758"><g id="Groupe_1756" data-name="Groupe 1756"><path id="Tracé_8687" data-name="Tracé 8687" class="cls-4" d="M86.61,47.38H78a.29.29,0,0,1,0-.57h8.62a.28.28,0,0,1,.29.28h0C86.93,47.25,86.77,47.38,86.61,47.38Z"/></g><g id="Groupe_1757" data-name="Groupe 1757"><path id="Tracé_8688" data-name="Tracé 8688" class="cls-4" d="M84.45,48.62a.33.33,0,0,1-.25-.16.3.3,0,0,1,.1-.41c.16-.1.7-.83.57-1.28-.06-.22-.32-.35-.8-.38a1.41,1.41,0,0,0-1.43.6,2.89,2.89,0,0,1-1.46,1c-1.15.38-2,0-2.26-.48A1.15,1.15,0,0,1,79.27,46a.29.29,0,0,1,.41.41.6.6,0,0,0-.22.76c.19.32.76.51,1.59.23a2.38,2.38,0,0,0,1.21-.86,1.89,1.89,0,0,1,1.91-.8c1,.06,1.24.51,1.33.86a2.21,2.21,0,0,1-.86,1.9A.27.27,0,0,1,84.45,48.62Z"/></g></g><path id="Tracé_8689" data-name="Tracé 8689" class="cls-5" d="M86.1,49.38c.45.1,4-1.14,2.87-2.7C89.13,47.48,88.2,48.62,86.1,49.38Z"/><path id="Tracé_8690" data-name="Tracé 8690" class="cls-5" d="M76.18,45.69c-1.43.45-2.1,1.72-.73,2.64C74.84,47.22,75.16,46.49,76.18,45.69Z"/></g><g id="Groupe_1763" data-name="Groupe 1763"><path id="Tracé_8691" data-name="Tracé 8691" class="cls-2" d="M74.33,45l0,1.9c.28,1.59,3.46,2.83,7.66,2.74s7.35-1.53,7.45-3.09l.06-1.78"/><path id="Tracé_8692" data-name="Tracé 8692" class="cls-3" d="M89.51,46.55l.06-1.75c-1.46.64-4.83,2.1-6.77,2.83a8.72,8.72,0,0,1-.13,2C86.55,49.42,89.41,48.05,89.51,46.55Z"/><path id="Tracé_8693" data-name="Tracé 8693" class="cls-4" d="M89.57,44.77c0,1.69-3.34,3.09-7.54,3.18s-7.64-1.21-7.67-2.89S77.7,42,81.9,41.88,89.54,43.12,89.57,44.77Z"/><path id="Tracé_8694" data-name="Tracé 8694" class="cls-2" d="M88.23,44.52c0,1.14-2.76,2.13-6.23,2.19s-6.3-.82-6.33-2,2.77-2.13,6.23-2.19S88.2,43.37,88.23,44.52Z"/><path id="Tracé_8695" data-name="Tracé 8695" class="cls-3" d="M81.91,42.86c3.34-.06,6.07.77,6.3,1.85,0-.07,0-.1,0-.16,0-1.15-2.87-2-6.33-2s-6.27,1.05-6.24,2.19a.2.2,0,0,0,0,.13C75.93,43.82,78.63,42.93,81.91,42.86Z"/><path id="Tracé_8696" data-name="Tracé 8696" class="cls-3" d="M86.71,44.58H85.53v-.1c-.1-.35-.38-.8-1.34-.86a2,2,0,0,0-1.9.8l-.13.13H79.52a.76.76,0,0,1,.22-.25.29.29,0,0,0,0-.42.3.3,0,0,0-.41,0,1.52,1.52,0,0,0-.44.7h-.81a.29.29,0,0,0,0,.58h.81c0,.07.07.14.1.22a1.84,1.84,0,0,0,2.25.48,3.15,3.15,0,0,0,1.15-.7h2.45a2.06,2.06,0,0,1-.48.73.29.29,0,0,0-.1.41h0a.33.33,0,0,0,.25.16.41.41,0,0,0,.16,0,2.75,2.75,0,0,0,.83-1.21h1.21a.28.28,0,0,0,.28-.29h0C87,44.71,86.87,44.58,86.71,44.58Zm-2.55-.38c.45,0,.7.16.8.35H83a1.34,1.34,0,0,1,1.17-.35Zm-3.11,1.08a1.5,1.5,0,0,1-1.5-.13H81.4a1.14,1.14,0,0,1-.35.13Z"/><g id="Groupe_1762" data-name="Groupe 1762"><g id="Groupe_1760" data-name="Groupe 1760"><path id="Tracé_8697" data-name="Tracé 8697" class="cls-4" d="M86.61,45H78a.29.29,0,0,1,0-.57h8.62a.29.29,0,0,1,.29.28h0C86.93,44.83,86.77,45,86.61,45Z"/></g><g id="Groupe_1761" data-name="Groupe 1761"><path id="Tracé_8698" data-name="Tracé 8698" class="cls-4" d="M84.45,46.23a.33.33,0,0,1-.25-.16.31.31,0,0,1,.1-.41c.16-.1.7-.83.57-1.27-.06-.22-.32-.35-.8-.38a1.39,1.39,0,0,0-1.43.6,2.88,2.88,0,0,1-1.46,1c-1.15.39-2,0-2.26-.47a1.16,1.16,0,0,1,.35-1.5.3.3,0,0,1,.41,0,.29.29,0,0,1,0,.42.6.6,0,0,0-.22.76c.19.32.76.51,1.59.22a2.33,2.33,0,0,0,1.21-.86,1.91,1.91,0,0,1,1.91-.8c1,.07,1.24.51,1.33.86a2.21,2.21,0,0,1-.86,1.91A.26.26,0,0,1,84.45,46.23Z"/></g></g><path id="Tracé_8699" data-name="Tracé 8699" class="cls-5" d="M86.1,47c.45.11,4-1.14,2.87-2.7C89.13,45.1,88.2,46.24,86.1,47Z"/><path id="Tracé_8700" data-name="Tracé 8700" class="cls-5" d="M76.18,43.28c-1.43.44-2.1,1.72-.73,2.64C74.84,44.84,75.16,44.1,76.18,43.28Z"/></g><g id="Groupe_1767" data-name="Groupe 1767"><path id="Tracé_8701" data-name="Tracé 8701" class="cls-2" d="M74.33,42.58l0,1.91c.28,1.59,3.46,2.83,7.66,2.73s7.35-1.53,7.45-3.09l.06-1.78"/><path id="Tracé_8702" data-name="Tracé 8702" class="cls-3" d="M89.51,44.17l.06-1.75c-1.46.63-4.83,2.1-6.77,2.83a8.67,8.67,0,0,1-.13,2C86.55,47,89.41,45.63,89.51,44.17Z"/><path id="Tracé_8703" data-name="Tracé 8703" class="cls-4" d="M89.57,42.39c0,1.68-3.34,3.08-7.54,3.18s-7.64-1.21-7.67-2.9,3.34-3.08,7.54-3.18S89.54,40.73,89.57,42.39Z"/><path id="Tracé_8704" data-name="Tracé 8704" class="cls-2" d="M88.23,42.13c0,1.15-2.76,2.13-6.23,2.2s-6.3-.83-6.33-2,2.77-2.13,6.23-2.19S88.2,41,88.23,42.13Z"/><path id="Tracé_8705" data-name="Tracé 8705" class="cls-3" d="M81.91,40.45c3.34-.07,6.07.76,6.3,1.84,0-.06,0-.1,0-.16,0-1.14-2.87-2-6.33-2s-6.27,1.05-6.24,2.19a.2.2,0,0,0,0,.13C75.93,41.43,78.63,40.51,81.91,40.45Z"/><path id="Tracé_8706" data-name="Tracé 8706" class="cls-3" d="M86.71,42.16H85.53v-.1c-.1-.35-.38-.8-1.34-.86a2,2,0,0,0-1.9.8l-.13.13H79.52a.88.88,0,0,1,.22-.25.29.29,0,0,0,0-.42.3.3,0,0,0-.41,0,1.52,1.52,0,0,0-.44.7h-.81a.29.29,0,0,0,0,.58h.81c0,.07.07.14.1.22a1.83,1.83,0,0,0,2.25.48,3,3,0,0,0,1.15-.7h2.45a2,2,0,0,1-.48.73.3.3,0,0,0-.1.41h0a.33.33,0,0,0,.25.16.29.29,0,0,0,.16,0,2.75,2.75,0,0,0,.83-1.21h1.21a.28.28,0,0,0,.28-.28h0A.32.32,0,0,0,86.71,42.16Zm-2.55-.35c.45,0,.7.16.8.35H83c.22-.25.51-.38,1.17-.35Zm-3.11,1.08a1.47,1.47,0,0,1-1.5-.12H81.4l-.35.13Z"/><g id="Groupe_1766" data-name="Groupe 1766"><g id="Groupe_1764" data-name="Groupe 1764"><path id="Tracé_8707" data-name="Tracé 8707" class="cls-4" d="M86.61,42.58H78A.29.29,0,0,1,78,42h8.62a.29.29,0,0,1,.29.29h0C86.93,42.45,86.77,42.58,86.61,42.58Z"/></g><g id="Groupe_1765" data-name="Groupe 1765"><path id="Tracé_8708" data-name="Tracé 8708" class="cls-4" d="M84.45,43.85a.33.33,0,0,1-.25-.16.32.32,0,0,1,.1-.42c.16-.1.7-.82.57-1.27-.06-.22-.32-.35-.8-.38a1.41,1.41,0,0,0-1.43.6,2.89,2.89,0,0,1-1.46,1c-1.15.38-2,0-2.26-.48a1.15,1.15,0,0,1,.35-1.49.29.29,0,0,1,.41.41h0a.6.6,0,0,0-.22.76c.19.32.76.51,1.59.23a2.38,2.38,0,0,0,1.21-.86,1.89,1.89,0,0,1,1.91-.8c1,.06,1.24.51,1.33.86a2.21,2.21,0,0,1-.86,1.9C84.55,43.82,84.51,43.85,84.45,43.85Z"/></g></g><path id="Tracé_8709" data-name="Tracé 8709" class="cls-5" d="M86.1,44.61c.45.1,4-1.15,2.87-2.7C89.13,42.67,88.2,43.82,86.1,44.61Z"/><path id="Tracé_8710" data-name="Tracé 8710" class="cls-5" d="M76.18,40.89c-1.43.45-2.1,1.72-.73,2.64C74.84,42.42,75.16,41.69,76.18,40.89Z"/></g><g id="Groupe_1771" data-name="Groupe 1771"><path id="Tracé_8711" data-name="Tracé 8711" class="cls-2" d="M74.33,40.19l0,1.91c.28,1.59,3.46,2.83,7.66,2.73s7.35-1.52,7.45-3.08L89.54,40"/><path id="Tracé_8712" data-name="Tracé 8712" class="cls-3" d="M89.51,41.78,89.57,40c-1.46.64-4.83,2.1-6.77,2.83a8.76,8.76,0,0,1-.13,2C86.55,44.61,89.41,43.25,89.51,41.78Z"/><path id="Tracé_8713" data-name="Tracé 8713" class="cls-4" d="M89.57,40c0,1.69-3.34,3.09-7.54,3.18S74.39,42,74.36,40.29s3.34-3.09,7.54-3.18S89.54,38.31,89.57,40Z"/><path id="Tracé_8714" data-name="Tracé 8714" class="cls-2" d="M88.23,39.75c0,1.14-2.76,2.13-6.23,2.19s-6.3-.83-6.33-2,2.77-2.13,6.23-2.2S88.2,38.57,88.23,39.75Z"/><path id="Tracé_8715" data-name="Tracé 8715" class="cls-3" d="M81.91,38.06c3.34-.06,6.07.76,6.3,1.85,0-.07,0-.1,0-.16,0-1.15-2.87-2-6.33-2s-6.27,1-6.24,2.2a.22.22,0,0,0,0,.13C75.93,39,78.63,38.12,81.91,38.06Z"/><path id="Tracé_8716" data-name="Tracé 8716" class="cls-3" d="M86.71,39.78H85.53v-.1c-.1-.35-.38-.8-1.34-.86a2,2,0,0,0-1.9.8l-.13.13H79.52a.92.92,0,0,1,.22-.26.29.29,0,1,0-.41-.41,1.52,1.52,0,0,0-.44.7h-.81a.29.29,0,0,0,0,.57h.81l.1.22a1.83,1.83,0,0,0,2.25.48,2.9,2.9,0,0,0,1.15-.7h2.45a1.9,1.9,0,0,1-.48.73.31.31,0,0,0-.1.42h0a.33.33,0,0,0,.25.16.29.29,0,0,0,.16,0,2.72,2.72,0,0,0,.83-1.2h1.21a.28.28,0,0,0,.28-.29h0C87,39.9,86.87,39.78,86.71,39.78Zm-2.55-.35c.45,0,.7.16.8.35H83a1.2,1.2,0,0,1,1.17-.35Zm-3.11,1.08a1.5,1.5,0,0,1-1.5-.13H81.4c-.1,0-.23.1-.35.13Z"/><g id="Groupe_1770" data-name="Groupe 1770"><g id="Groupe_1768" data-name="Groupe 1768"><path id="Tracé_8717" data-name="Tracé 8717" class="cls-4" d="M86.61,40.19H78a.29.29,0,0,1,0-.57h8.62a.29.29,0,0,1,.29.28h0C86.93,40.06,86.77,40.19,86.61,40.19Z"/></g><g id="Groupe_1769" data-name="Groupe 1769"><path id="Tracé_8718" data-name="Tracé 8718" class="cls-4" d="M84.45,41.46a.33.33,0,0,1-.25-.16.31.31,0,0,1,.1-.41c.16-.1.7-.83.57-1.27-.06-.23-.32-.35-.8-.38a1.39,1.39,0,0,0-1.43.6,2.88,2.88,0,0,1-1.46,1c-1.15.39-2,0-2.26-.47a1.16,1.16,0,0,1,.35-1.5.3.3,0,0,1,.41,0,.28.28,0,0,1,0,.41.61.61,0,0,0-.22.77c.19.32.76.51,1.59.22a2.38,2.38,0,0,0,1.21-.86,1.91,1.91,0,0,1,1.91-.8c1,.06,1.24.51,1.33.86a2.22,2.22,0,0,1-.86,1.91A.5.5,0,0,1,84.45,41.46Z"/></g></g><path id="Tracé_8719" data-name="Tracé 8719" class="cls-5" d="M86.1,42.22c.45.1,4-1.14,2.87-2.7C89.13,40.29,88.2,41.43,86.1,42.22Z"/><path id="Tracé_8720" data-name="Tracé 8720" class="cls-5" d="M76.18,38.51c-1.43.44-2.1,1.71-.73,2.64C74.84,40,75.16,39.31,76.18,38.51Z"/></g><g id="Groupe_1775" data-name="Groupe 1775"><path id="Tracé_8721" data-name="Tracé 8721" class="cls-2" d="M74.33,37.81l0,1.9c.28,1.59,3.46,2.84,7.66,2.74s7.35-1.53,7.45-3.09l.06-1.78"/><path id="Tracé_8722" data-name="Tracé 8722" class="cls-3" d="M89.51,39.36l.06-1.75c-1.46.64-4.83,2.1-6.77,2.84a8.67,8.67,0,0,1-.13,2C86.55,42.23,89.41,40.86,89.51,39.36Z"/><path id="Tracé_8723" data-name="Tracé 8723" class="cls-4" d="M89.57,37.61c0,1.69-3.34,3.09-7.54,3.18s-7.64-1.2-7.67-2.89,3.34-3.08,7.54-3.18S89.54,35.93,89.57,37.61Z"/><path id="Tracé_8724" data-name="Tracé 8724" class="cls-2" d="M88.23,37.33c0,1.14-2.76,2.13-6.23,2.19s-6.3-.82-6.33-2,2.77-2.13,6.23-2.19S88.2,36.18,88.23,37.33Z"/><path id="Tracé_8725" data-name="Tracé 8725" class="cls-3" d="M81.91,35.67c3.34-.06,6.07.77,6.3,1.85,0-.06,0-.1,0-.16,0-1.14-2.87-2-6.33-2s-6.27,1-6.24,2.19a.2.2,0,0,0,0,.13C75.93,36.63,78.63,35.74,81.91,35.67Z"/><path id="Tracé_8726" data-name="Tracé 8726" class="cls-3" d="M86.71,37.39H85.53v-.1c-.1-.35-.38-.8-1.34-.86a2,2,0,0,0-1.9.8l-.13.13H79.52a.88.88,0,0,1,.22-.25.29.29,0,0,0,0-.42.3.3,0,0,0-.41,0,1.52,1.52,0,0,0-.44.7h-.81a.29.29,0,0,0,0,.58h.81c0,.07.07.14.1.22a1.83,1.83,0,0,0,2.25.48,3.15,3.15,0,0,0,1.15-.7h2.45a2.06,2.06,0,0,1-.48.73.29.29,0,0,0-.1.41h0a.33.33,0,0,0,.25.16.41.41,0,0,0,.16,0A2.75,2.75,0,0,0,85.5,38h1.21a.28.28,0,0,0,.28-.29h0C87,37.52,86.87,37.39,86.71,37.39ZM84.16,37c.45,0,.7.16.8.35H83A1.4,1.4,0,0,1,84.16,37Zm-3.11,1.11a1.47,1.47,0,0,1-1.5-.12H81.4a2.06,2.06,0,0,0-.35.12Z"/><g id="Groupe_1774" data-name="Groupe 1774"><g id="Groupe_1772" data-name="Groupe 1772"><path id="Tracé_8727" data-name="Tracé 8727" class="cls-4" d="M86.61,37.81H78a.29.29,0,0,1,0-.58h8.62a.29.29,0,0,1,.29.29h0C86.93,37.65,86.77,37.81,86.61,37.81Z"/></g><g id="Groupe_1773" data-name="Groupe 1773"><path id="Tracé_8728" data-name="Tracé 8728" class="cls-4" d="M84.45,39a.31.31,0,0,1-.15-.57c.16-.1.7-.83.57-1.27-.06-.22-.32-.35-.8-.38a1.39,1.39,0,0,0-1.43.6,2.88,2.88,0,0,1-1.46,1c-1.15.39-2,0-2.26-.47a1.16,1.16,0,0,1,.35-1.5.3.3,0,0,1,.41,0,.29.29,0,0,1,0,.42.6.6,0,0,0-.22.76c.19.32.76.51,1.59.22A2.33,2.33,0,0,0,82.26,37a1.91,1.91,0,0,1,1.91-.8c1,.07,1.24.51,1.33.86A2.21,2.21,0,0,1,84.64,39,.26.26,0,0,1,84.45,39Z"/></g></g><path id="Tracé_8729" data-name="Tracé 8729" class="cls-5" d="M86.1,39.81c.45.09,4-1.15,2.87-2.7C89.13,37.9,88.2,39,86.1,39.81Z"/><path id="Tracé_8730" data-name="Tracé 8730" class="cls-5" d="M76.18,36.09c-1.43.44-2.1,1.72-.73,2.64C74.84,37.65,75.16,36.92,76.18,36.09Z"/></g><g id="Groupe_1779" data-name="Groupe 1779"><path id="Tracé_8731" data-name="Tracé 8731" class="cls-2" d="M74.33,35.42l0,1.91c.28,1.59,3.46,2.83,7.66,2.73s7.35-1.52,7.45-3.08l.06-1.78"/><path id="Tracé_8732" data-name="Tracé 8732" class="cls-3" d="M89.51,37l.06-1.75c-1.46.64-4.84,2.1-6.78,2.83a8.67,8.67,0,0,1-.12,2C86.55,39.84,89.41,38.47,89.51,37Z"/><path id="Tracé_8733" data-name="Tracé 8733" class="cls-4" d="M89.57,35.2c0,1.68-3.34,3.08-7.54,3.18s-7.64-1.21-7.67-2.89S77.7,32.4,81.9,32.3,89.54,33.54,89.57,35.2Z"/><path id="Tracé_8734" data-name="Tracé 8734" class="cls-2" d="M88.23,34.94c0,1.15-2.76,2.14-6.23,2.2s-6.3-.83-6.33-2S78.44,33,81.9,33,88.2,33.8,88.23,34.94Z"/><path id="Tracé_8735" data-name="Tracé 8735" class="cls-3" d="M81.91,33.26c3.34-.07,6.07.76,6.3,1.84,0-.06,0-.1,0-.16,0-1.14-2.87-2-6.33-2s-6.27,1.05-6.24,2.2a.17.17,0,0,0,0,.12C75.93,34.24,78.63,33.32,81.91,33.26Z"/><path id="Tracé_8736" data-name="Tracé 8736" class="cls-3" d="M86.71,35H85.53v-.1c-.1-.35-.38-.8-1.34-.86a2,2,0,0,0-1.9.8l-.13.12H79.52a1,1,0,0,1,.22-.25.29.29,0,0,0-.41-.41,1.52,1.52,0,0,0-.44.7h-.81a.29.29,0,0,0,0,.57h.81l.1.22a1.83,1.83,0,0,0,2.25.48,2.9,2.9,0,0,0,1.15-.7h2.45a1.9,1.9,0,0,1-.48.73.31.31,0,0,0-.1.42h0a.29.29,0,0,0,.25.15.22.22,0,0,0,.16,0,2.75,2.75,0,0,0,.83-1.21h1.21a.28.28,0,0,0,.29-.28h0C87,35.13,86.87,35,86.71,35Zm-2.55-.39c.45,0,.7.16.8.35H83a1.4,1.4,0,0,1,1.17-.35Zm-3.11,1.09a1.5,1.5,0,0,1-1.5-.13H81.4l-.35.13Z"/><g id="Groupe_1778" data-name="Groupe 1778"><g id="Groupe_1776" data-name="Groupe 1776"><path id="Tracé_8737" data-name="Tracé 8737" class="cls-4" d="M86.61,35.39H78a.28.28,0,0,1-.28-.29.27.27,0,0,1,.28-.28h8.62a.28.28,0,0,1,.29.28h0C86.93,35.26,86.77,35.39,86.61,35.39Z"/></g><g id="Groupe_1777" data-name="Groupe 1777"><path id="Tracé_8738" data-name="Tracé 8738" class="cls-4" d="M84.45,36.66a.33.33,0,0,1-.25-.16.31.31,0,0,1,.1-.41c.16-.1.7-.83.57-1.28-.06-.22-.32-.35-.8-.38a1.41,1.41,0,0,0-1.43.6,2.89,2.89,0,0,1-1.46,1c-1.15.38-2,0-2.26-.48a1.15,1.15,0,0,1,.35-1.49.29.29,0,0,1,.41.41h0a.6.6,0,0,0-.22.76c.19.32.76.51,1.59.23a2.38,2.38,0,0,0,1.21-.86,1.91,1.91,0,0,1,1.91-.8c1,.06,1.24.51,1.33.86a2.22,2.22,0,0,1-.86,1.91A.32.32,0,0,1,84.45,36.66Z"/></g></g><path id="Tracé_8739" data-name="Tracé 8739" class="cls-5" d="M86.1,37.42c.45.1,4-1.14,2.87-2.7C89.13,35.52,88.2,36.63,86.1,37.42Z"/><path id="Tracé_8740" data-name="Tracé 8740" class="cls-5" d="M76.18,33.7c-1.43.45-2.1,1.72-.73,2.64C74.84,35.23,75.16,34.5,76.18,33.7Z"/></g><g id="Groupe_1783" data-name="Groupe 1783"><path id="Tracé_8741" data-name="Tracé 8741" class="cls-2" d="M74.33,33l0,1.91c.28,1.59,3.46,2.83,7.66,2.74s7.35-1.53,7.45-3.09l.06-1.78"/><path id="Tracé_8742" data-name="Tracé 8742" class="cls-3" d="M89.51,34.59l.06-1.75c-1.46.64-4.84,2.1-6.78,2.84a8.08,8.08,0,0,1-.12,2C86.55,37.42,89.41,36.06,89.51,34.59Z"/><path id="Tracé_8743" data-name="Tracé 8743" class="cls-4" d="M89.57,32.81C89.6,34.5,86.23,35.9,82,36s-7.64-1.21-7.67-2.89S77.7,30,81.9,29.92,89.54,31.12,89.57,32.81Z"/><path id="Tracé_8744" data-name="Tracé 8744" class="cls-2" d="M88.23,32.56c0,1.14-2.76,2.13-6.23,2.19s-6.3-.83-6.33-2,2.77-2.13,6.23-2.19S88.2,31.38,88.23,32.56Z"/><path id="Tracé_8745" data-name="Tracé 8745" class="cls-3" d="M81.91,30.87c3.34-.06,6.07.76,6.3,1.85,0-.07,0-.1,0-.16,0-1.15-2.87-2-6.33-2s-6.27,1.05-6.24,2.19a.22.22,0,0,0,0,.13C75.93,31.83,78.63,30.94,81.91,30.87Z"/><path id="Tracé_8746" data-name="Tracé 8746" class="cls-3" d="M86.71,32.59H85.53v-.1c-.1-.35-.38-.8-1.34-.86a2,2,0,0,0-1.9.8l-.13.13H79.52a.92.92,0,0,1,.22-.26.28.28,0,0,0,0-.41.3.3,0,0,0-.41,0,1.52,1.52,0,0,0-.44.7h-.81a.29.29,0,0,0,0,.57h.81c0,.07.07.15.1.23a1.84,1.84,0,0,0,2.25.47,2.9,2.9,0,0,0,1.15-.7h2.45a2,2,0,0,1-.48.74.29.29,0,0,0-.1.41h0a.33.33,0,0,0,.25.16.41.41,0,0,0,.16,0,2.8,2.8,0,0,0,.83-1.21h1.21a.29.29,0,0,0,.29-.29h0C87,32.72,86.87,32.59,86.71,32.59Zm-2.55-.35c.45,0,.7.16.8.35H83c.22-.25.51-.38,1.17-.35Zm-3.11,1.08a1.5,1.5,0,0,1-1.5-.13H81.4a2.84,2.84,0,0,1-.35.13Z"/><g id="Groupe_1782" data-name="Groupe 1782"><g id="Groupe_1780" data-name="Groupe 1780"><path id="Tracé_8747" data-name="Tracé 8747" class="cls-4" d="M86.61,33H78a.29.29,0,0,1,0-.57h8.62a.29.29,0,0,1,.29.28h0A.3.3,0,0,1,86.61,33Z"/></g><g id="Groupe_1781" data-name="Groupe 1781"><path id="Tracé_8748" data-name="Tracé 8748" class="cls-4" d="M84.45,34.27a.31.31,0,0,1-.25-.16.3.3,0,0,1,.1-.41c.16-.1.7-.83.57-1.27-.06-.22-.32-.35-.8-.38a1.39,1.39,0,0,0-1.43.6,2.88,2.88,0,0,1-1.46,1c-1.15.39-2,0-2.26-.47a1.15,1.15,0,0,1,.35-1.5.3.3,0,0,1,.41,0,.31.31,0,0,1,0,.42h0a.6.6,0,0,0-.22.76c.19.32.76.51,1.59.22a2.33,2.33,0,0,0,1.21-.86,1.9,1.9,0,0,1,1.9-.8c1,.07,1.24.51,1.34.86a2.21,2.21,0,0,1-.86,1.91C84.54,34.24,84.51,34.27,84.45,34.27Z"/></g></g><path id="Tracé_8749" data-name="Tracé 8749" class="cls-5" d="M86.1,35c.45.1,4-1.14,2.87-2.69C89.13,33.1,88.2,34.24,86.1,35Z"/><path id="Tracé_8750" data-name="Tracé 8750" class="cls-5" d="M76.18,31.32c-1.43.44-2.1,1.72-.73,2.64C74.84,32.84,75.16,32.12,76.18,31.32Z"/></g><g id="Groupe_1787" data-name="Groupe 1787"><path id="Tracé_8751" data-name="Tracé 8751" class="cls-2" d="M61.45,57.56l0,1.91c.29,1.59,3.47,2.83,7.67,2.73s7.35-1.52,7.44-3.08l.07-1.78"/><path id="Tracé_8752" data-name="Tracé 8752" class="cls-3" d="M76.63,59.12l.06-1.75c-1.47.63-4.84,2.1-6.78,2.83a8.13,8.13,0,0,1-.13,2C73.67,62,76.53,60.61,76.63,59.12Z"/><path id="Tracé_8753" data-name="Tracé 8753" class="cls-4" d="M76.68,57.37c0,1.68-3.34,3.08-7.53,3.18s-7.63-1.21-7.67-2.9,3.34-3.08,7.54-3.18S76.66,55.68,76.68,57.37Z"/><path id="Tracé_8754" data-name="Tracé 8754" class="cls-2" d="M75.35,57.08c0,1.15-2.76,2.13-6.23,2.2s-6.3-.83-6.33-2,2.76-2.13,6.23-2.19S75.32,55.94,75.35,57.08Z"/><path id="Tracé_8755" data-name="Tracé 8755" class="cls-3" d="M69,55.43c3.34-.07,6.08.76,6.3,1.84,0-.06,0-.1,0-.16,0-1.14-2.86-2-6.33-2s-6.26,1-6.23,2.2a.24.24,0,0,0,0,.12C63,56.38,65.75,55.49,69,55.43Z"/><path id="Tracé_8756" data-name="Tracé 8756" class="cls-3" d="M73.83,57.15H72.65V57c-.1-.35-.38-.8-1.34-.85a2,2,0,0,0-1.9.8l-.13.12H66.64a.75.75,0,0,1,.22-.25.29.29,0,0,0-.41-.41h0a1.49,1.49,0,0,0-.45.7h-.8a.27.27,0,0,0-.28.28.28.28,0,0,0,.28.29H66a1.47,1.47,0,0,1,.1.22,1.85,1.85,0,0,0,2.26.48,3,3,0,0,0,1.15-.7H72a1.88,1.88,0,0,1-.47.73.3.3,0,0,0-.1.41h0a.33.33,0,0,0,.25.16.22.22,0,0,0,.16,0,2.75,2.75,0,0,0,.83-1.21h1.21a.29.29,0,0,0,.28-.28h0C74.11,57.27,74,57.15,73.83,57.15Zm-2.55-.39c.45,0,.7.16.8.35h-2a1.39,1.39,0,0,1,1.17-.35ZM68.2,57.88a1.5,1.5,0,0,1-1.5-.13h1.85a1.33,1.33,0,0,0-.35.13Z"/><g id="Groupe_1786" data-name="Groupe 1786"><g id="Groupe_1784" data-name="Groupe 1784"><path id="Tracé_8757" data-name="Tracé 8757" class="cls-4" d="M73.76,57.56H65.14a.28.28,0,0,1-.28-.29.27.27,0,0,1,.28-.28h8.62a.28.28,0,0,1,.29.28h0A.3.3,0,0,1,73.76,57.56Z"/></g><g id="Groupe_1785" data-name="Groupe 1785"><path id="Tracé_8758" data-name="Tracé 8758" class="cls-4" d="M71.57,58.8a.35.35,0,0,1-.26-.16.33.33,0,0,1,.1-.42c.16-.1.7-.82.58-1.27-.07-.22-.32-.35-.8-.38a1.43,1.43,0,0,0-1.44.6,2.81,2.81,0,0,1-1.46,1A1.84,1.84,0,0,1,66,57.71a1.18,1.18,0,0,1,.32-1.49.28.28,0,0,1,.41,0,.29.29,0,0,1,0,.41.61.61,0,0,0-.23.76c.19.32.77.51,1.59.23a2.34,2.34,0,0,0,1.21-.86,1.89,1.89,0,0,1,1.91-.8c1,.06,1.24.51,1.33.86a2.22,2.22,0,0,1-.85,1.9A.21.21,0,0,1,71.57,58.8Z"/></g></g><path id="Tracé_8759" data-name="Tracé 8759" class="cls-5" d="M73.22,59.56c.45.1,4-1.15,2.87-2.7C76.24,57.66,75.32,58.8,73.22,59.56Z"/><path id="Tracé_8760" data-name="Tracé 8760" class="cls-5" d="M63.3,55.84c-1.43.45-2.1,1.72-.73,2.64C62,57.4,62.28,56.67,63.3,55.84Z"/></g><g id="Groupe_1791" data-name="Groupe 1791"><path id="Tracé_8761" data-name="Tracé 8761" class="cls-2" d="M61.45,55.17l0,1.91c.29,1.59,3.47,2.83,7.67,2.74s7.35-1.53,7.44-3.09L76.65,55"/><path id="Tracé_8762" data-name="Tracé 8762" class="cls-3" d="M76.63,56.73,76.69,55c-1.47.64-4.84,2.1-6.78,2.83a8.13,8.13,0,0,1-.13,2C73.67,59.59,76.53,58.23,76.63,56.73Z"/><path id="Tracé_8763" data-name="Tracé 8763" class="cls-4" d="M76.68,55c0,1.69-3.34,3.08-7.53,3.18s-7.64-1.21-7.67-2.89,3.34-3.09,7.54-3.19S76.66,53.3,76.68,55Z"/><path id="Tracé_8764" data-name="Tracé 8764" class="cls-2" d="M75.35,54.69c0,1.15-2.76,2.14-6.23,2.2s-6.3-.83-6.33-2,2.76-2.13,6.23-2.2S75.32,53.55,75.35,54.69Z"/><path id="Tracé_8765" data-name="Tracé 8765" class="cls-3" d="M69,53c3.34-.06,6.08.76,6.3,1.84,0-.06,0-.1,0-.15,0-1.15-2.86-2-6.33-2s-6.26,1.05-6.23,2.2a.31.31,0,0,0,0,.13C63,54,65.75,53.07,69,53Z"/><path id="Tracé_8766" data-name="Tracé 8766" class="cls-3" d="M73.83,54.76H72.65v-.1c-.1-.35-.38-.8-1.34-.86a2,2,0,0,0-1.9.8l-.13.13H66.64a.78.78,0,0,1,.22-.26.29.29,0,0,0,0-.41.3.3,0,0,0-.41,0h0a1.54,1.54,0,0,0-.45.7h-.8a.29.29,0,0,0,0,.57H66a1.6,1.6,0,0,1,.1.23,1.86,1.86,0,0,0,2.26.47,3,3,0,0,0,1.15-.7H72a2,2,0,0,1-.47.74.29.29,0,0,0-.1.41h0a.33.33,0,0,0,.25.16.41.41,0,0,0,.16,0,2.8,2.8,0,0,0,.83-1.21h1.21a.29.29,0,0,0,.28-.29h0C74.11,54.89,74,54.76,73.83,54.76Zm-2.55-.38c.45,0,.7.16.8.35h-2a1.33,1.33,0,0,1,1.17-.35ZM68.2,55.46a1.5,1.5,0,0,1-1.5-.13h1.85c-.13,0-.23.1-.35.13Z"/><g id="Groupe_1790" data-name="Groupe 1790"><g id="Groupe_1788" data-name="Groupe 1788"><path id="Tracé_8767" data-name="Tracé 8767" class="cls-4" d="M73.76,55.14H65.14a.29.29,0,0,1,0-.57h8.62a.29.29,0,1,1,0,.57Z"/></g><g id="Groupe_1789" data-name="Groupe 1789"><path id="Tracé_8768" data-name="Tracé 8768" class="cls-4" d="M71.57,56.41a.35.35,0,0,1-.26-.16.32.32,0,0,1,.1-.41c.16-.1.7-.83.58-1.27-.07-.23-.32-.36-.8-.39a1.45,1.45,0,0,0-1.44.6,2.76,2.76,0,0,1-1.46,1A1.84,1.84,0,0,1,66,55.32a1.18,1.18,0,0,1,.32-1.49.29.29,0,1,1,.42.41h0a.62.62,0,0,0-.23.77c.19.31.77.51,1.59.22a2.34,2.34,0,0,0,1.21-.86,1.91,1.91,0,0,1,1.91-.8c1,.06,1.24.51,1.33.86a2.24,2.24,0,0,1-.85,1.91A.17.17,0,0,1,71.57,56.41Z"/></g></g><path id="Tracé_8769" data-name="Tracé 8769" class="cls-5" d="M73.22,57.17c.45.1,4-1.14,2.87-2.7C76.24,55.27,75.32,56.41,73.22,57.17Z"/><path id="Tracé_8770" data-name="Tracé 8770" class="cls-5" d="M63.3,53.46c-1.43.44-2.1,1.71-.73,2.64C62,55,62.28,54.26,63.3,53.46Z"/></g><g id="Groupe_1795" data-name="Groupe 1795"><path id="Tracé_8771" data-name="Tracé 8771" class="cls-2" d="M61.45,52.76l0,1.9c.29,1.59,3.47,2.84,7.67,2.74s7.35-1.53,7.44-3.09l.07-1.78"/><path id="Tracé_8772" data-name="Tracé 8772" class="cls-3" d="M76.63,54.35l.06-1.75c-1.47.63-4.84,2.1-6.78,2.83a8.13,8.13,0,0,1-.13,2C73.67,57.18,76.53,55.81,76.63,54.35Z"/><path id="Tracé_8773" data-name="Tracé 8773" class="cls-4" d="M76.68,52.56c0,1.69-3.34,3.09-7.53,3.19s-7.64-1.21-7.67-2.9,3.34-3.08,7.54-3.18S76.66,50.88,76.68,52.56Z"/><path id="Tracé_8774" data-name="Tracé 8774" class="cls-2" d="M75.35,52.31c0,1.15-2.76,2.13-6.23,2.2s-6.3-.83-6.33-2S65.55,50.4,69,50.34,75.32,51.13,75.35,52.31Z"/><path id="Tracé_8775" data-name="Tracé 8775" class="cls-3" d="M69,50.62c3.34-.06,6.08.77,6.3,1.85,0-.06,0-.1,0-.16,0-1.14-2.86-2-6.33-2s-6.26,1-6.23,2.19a.28.28,0,0,0,0,.13C63,51.58,65.75,50.69,69,50.62Z"/><path id="Tracé_8776" data-name="Tracé 8776" class="cls-3" d="M73.83,52.34H72.65v-.1c-.1-.35-.38-.8-1.34-.86a2,2,0,0,0-1.9.8l-.13.13H66.64a.75.75,0,0,1,.22-.25.29.29,0,1,0-.41-.42h0a1.54,1.54,0,0,0-.45.7h-.8a.29.29,0,0,0,0,.58H66a1.47,1.47,0,0,1,.1.22,1.85,1.85,0,0,0,2.26.48,3.24,3.24,0,0,0,1.15-.7H72a2,2,0,0,1-.47.73.29.29,0,0,0-.1.41h0a.33.33,0,0,0,.25.16.29.29,0,0,0,.16,0A2.75,2.75,0,0,0,72.62,53h1.21a.29.29,0,0,0,.28-.28h0C74.11,52.47,74,52.34,73.83,52.34ZM71.28,52c.45,0,.7.16.8.35h-2c.22-.25.5-.38,1.17-.35ZM68.2,53.07A1.47,1.47,0,0,1,66.7,53h1.85c-.13,0-.23.09-.35.12Z"/><g id="Groupe_1794" data-name="Groupe 1794"><g id="Groupe_1792" data-name="Groupe 1792"><path id="Tracé_8777" data-name="Tracé 8777" class="cls-4" d="M73.76,52.76H65.14a.29.29,0,0,1,0-.58h8.62a.29.29,0,1,1,0,.58Z"/></g><g id="Groupe_1793" data-name="Groupe 1793"><path id="Tracé_8778" data-name="Tracé 8778" class="cls-4" d="M71.57,54a.35.35,0,0,1-.26-.16.33.33,0,0,1,.1-.42c.16-.1.7-.82.58-1.27-.07-.22-.32-.35-.8-.38a1.43,1.43,0,0,0-1.44.6,2.87,2.87,0,0,1-1.46,1A1.84,1.84,0,0,1,66,52.94a1.18,1.18,0,0,1,.32-1.49.28.28,0,0,1,.41,0,.29.29,0,0,1,0,.41.61.61,0,0,0-.23.76c.19.32.77.51,1.59.22A2.27,2.27,0,0,0,69.34,52a1.89,1.89,0,0,1,1.91-.8c1,.06,1.24.5,1.33.85A2.23,2.23,0,0,1,71.73,54C71.66,54,71.63,54,71.57,54Z"/></g></g><path id="Tracé_8779" data-name="Tracé 8779" class="cls-5" d="M73.22,54.79c.45.1,4-1.15,2.87-2.7C76.24,52.85,75.32,54,73.22,54.79Z"/><path id="Tracé_8780" data-name="Tracé 8780" class="cls-5" d="M63.3,51.07c-1.43.45-2.1,1.72-.73,2.64C62,52.6,62.28,51.87,63.3,51.07Z"/></g><g id="Groupe_1799" data-name="Groupe 1799"><path id="Tracé_8781" data-name="Tracé 8781" class="cls-2" d="M61.45,50.37l0,1.91c.29,1.59,3.47,2.83,7.67,2.73s7.35-1.52,7.44-3.08l.07-1.78"/><path id="Tracé_8782" data-name="Tracé 8782" class="cls-3" d="M76.63,51.93l.06-1.75c-1.47.64-4.84,2.1-6.78,2.83a8.13,8.13,0,0,1-.13,2C73.67,54.79,76.53,53.42,76.63,51.93Z"/><path id="Tracé_8783" data-name="Tracé 8783" class="cls-4" d="M76.68,50.18c0,1.68-3.34,3.08-7.53,3.18s-7.64-1.21-7.67-2.89,3.34-3.09,7.54-3.19S76.66,48.49,76.68,50.18Z"/><path id="Tracé_8784" data-name="Tracé 8784" class="cls-2" d="M75.35,49.89c0,1.15-2.76,2.13-6.23,2.2s-6.3-.83-6.33-2S65.55,48,69,47.92,75.32,48.75,75.35,49.89Z"/><path id="Tracé_8785" data-name="Tracé 8785" class="cls-3" d="M69,48.24c3.34-.07,6.08.76,6.3,1.84,0-.06,0-.1,0-.16,0-1.14-2.86-2-6.33-2s-6.26,1-6.23,2.2a.24.24,0,0,0,0,.12C63,49.19,65.75,48.3,69,48.24Z"/><path id="Tracé_8786" data-name="Tracé 8786" class="cls-3" d="M73.83,50H72.65v-.1c-.1-.35-.38-.8-1.34-.86a2,2,0,0,0-1.9.8l-.13.12H66.64a.86.86,0,0,1,.22-.25.29.29,0,0,0,0-.41.28.28,0,0,0-.41,0h0A1.54,1.54,0,0,0,66,50h-.8a.29.29,0,0,0,0,.57H66a2.14,2.14,0,0,1,.1.22,1.85,1.85,0,0,0,2.26.48,3,3,0,0,0,1.15-.7H72a1.88,1.88,0,0,1-.47.73.3.3,0,0,0-.1.41h0a.29.29,0,0,0,.25.15.22.22,0,0,0,.16,0,2.75,2.75,0,0,0,.83-1.21h1.21a.28.28,0,0,0,.28-.28h0C74.11,50.08,74,50,73.83,50Zm-2.55-.35c.45,0,.7.15.8.35h-2a1.18,1.18,0,0,1,1.17-.35ZM68.2,50.69a1.5,1.5,0,0,1-1.5-.13h1.85a1.33,1.33,0,0,0-.35.13Z"/><g id="Groupe_1798" data-name="Groupe 1798"><g id="Groupe_1796" data-name="Groupe 1796"><path id="Tracé_8787" data-name="Tracé 8787" class="cls-4" d="M73.76,50.37H65.14a.29.29,0,0,1,0-.57h8.62a.29.29,0,1,1,0,.57Z"/></g><g id="Groupe_1797" data-name="Groupe 1797"><path id="Tracé_8788" data-name="Tracé 8788" class="cls-4" d="M71.57,51.61a.35.35,0,0,1-.26-.16.33.33,0,0,1,.1-.42c.16-.1.7-.82.58-1.27-.07-.22-.32-.35-.8-.38a1.43,1.43,0,0,0-1.44.6,2.81,2.81,0,0,1-1.46,1A1.84,1.84,0,0,1,66,50.52,1.18,1.18,0,0,1,66.35,49a.29.29,0,0,1,.42,0,.3.3,0,0,1,0,.41h0a.61.61,0,0,0-.23.76c.19.32.77.51,1.59.23a2.34,2.34,0,0,0,1.21-.86,1.89,1.89,0,0,1,1.91-.8c1,.06,1.24.51,1.33.86a2.22,2.22,0,0,1-.85,1.9A.21.21,0,0,1,71.57,51.61Z"/></g></g><path id="Tracé_8789" data-name="Tracé 8789" class="cls-5" d="M73.22,52.37c.45.1,4-1.14,2.87-2.7C76.24,50.47,75.32,51.61,73.22,52.37Z"/><path id="Tracé_8790" data-name="Tracé 8790" class="cls-5" d="M63.3,48.65c-1.43.45-2.1,1.72-.73,2.64C62,50.21,62.28,49.48,63.3,48.65Z"/></g><g id="Groupe_1803" data-name="Groupe 1803"><path id="Tracé_8791" data-name="Tracé 8791" class="cls-2" d="M61.45,48l0,1.9c.29,1.59,3.47,2.83,7.67,2.74s7.35-1.53,7.44-3.09l.07-1.78"/><path id="Tracé_8792" data-name="Tracé 8792" class="cls-3" d="M76.63,49.54l.06-1.75c-1.47.64-4.84,2.1-6.78,2.83a8.18,8.18,0,0,1-.13,2C73.67,52.41,76.53,51,76.63,49.54Z"/><path id="Tracé_8793" data-name="Tracé 8793" class="cls-4" d="M76.68,47.76c0,1.69-3.34,3.09-7.53,3.18s-7.64-1.21-7.67-2.89S64.82,45,69,44.87,76.66,46.11,76.68,47.76Z"/><path id="Tracé_8794" data-name="Tracé 8794" class="cls-2" d="M75.35,47.51c0,1.14-2.76,2.13-6.23,2.19s-6.3-.8-6.33-2S65.55,45.6,69,45.54,75.32,46.36,75.35,47.51Z"/><path id="Tracé_8795" data-name="Tracé 8795" class="cls-3" d="M69,45.85c3.34-.06,6.08.77,6.3,1.85,0-.07,0-.1,0-.16,0-1.15-2.86-2-6.33-2s-6.26,1-6.23,2.19a.28.28,0,0,0,0,.13C63,46.81,65.75,45.92,69,45.85Z"/><path id="Tracé_8796" data-name="Tracé 8796" class="cls-3" d="M73.83,47.57H72.65v-.1c-.1-.35-.38-.8-1.34-.86a2,2,0,0,0-1.9.8l-.13.13H66.64a.67.67,0,0,1,.22-.25.29.29,0,1,0-.41-.42h0a1.54,1.54,0,0,0-.45.7h-.8a.29.29,0,0,0,0,.58H66a1.47,1.47,0,0,1,.1.22,1.86,1.86,0,0,0,2.26.48,3.24,3.24,0,0,0,1.15-.7H72a2,2,0,0,1-.47.73.29.29,0,0,0-.1.41h0a.33.33,0,0,0,.25.16.41.41,0,0,0,.16,0,2.75,2.75,0,0,0,.83-1.21h1.21a.29.29,0,0,0,.28-.29h0C74.11,47.7,74,47.57,73.83,47.57Zm-2.55-.38c.45,0,.7.16.8.35h-2a1.33,1.33,0,0,1,1.17-.35ZM68.2,48.27a1.5,1.5,0,0,1-1.5-.13h1.85a1.66,1.66,0,0,1-.35.13Z"/><g id="Groupe_1802" data-name="Groupe 1802"><g id="Groupe_1800" data-name="Groupe 1800"><path id="Tracé_8797" data-name="Tracé 8797" class="cls-4" d="M73.76,48H65.14a.29.29,0,0,1,0-.57h8.62a.29.29,0,1,1,0,.57Z"/></g><g id="Groupe_1801" data-name="Groupe 1801"><path id="Tracé_8798" data-name="Tracé 8798" class="cls-4" d="M71.57,49.22a.35.35,0,0,1-.26-.16.32.32,0,0,1,.1-.41c.16-.1.7-.83.58-1.27-.07-.23-.32-.35-.8-.38a1.41,1.41,0,0,0-1.44.6,2.8,2.8,0,0,1-1.46,1c-1.14.39-2,0-2.26-.47a1.19,1.19,0,0,1,.32-1.5.3.3,0,0,1,.41,0,.3.3,0,0,1,0,.42.6.6,0,0,0-.23.76c.19.32.77.51,1.59.22a2.34,2.34,0,0,0,1.21-.86,1.91,1.91,0,0,1,1.91-.8c1,.07,1.24.51,1.33.86a2.24,2.24,0,0,1-.85,1.91A.17.17,0,0,1,71.57,49.22Z"/></g></g><path id="Tracé_8799" data-name="Tracé 8799" class="cls-5" d="M73.22,50c.45.1,4-1.15,2.87-2.7C76.24,48.09,75.32,49.23,73.22,50Z"/><path id="Tracé_8800" data-name="Tracé 8800" class="cls-5" d="M63.3,46.27c-1.43.44-2.1,1.72-.73,2.64C62,47.83,62.28,47.09,63.3,46.27Z"/></g><g id="Groupe_1807" data-name="Groupe 1807"><path id="Tracé_8801" data-name="Tracé 8801" class="cls-2" d="M61.45,45.57l0,1.91c.29,1.59,3.47,2.83,7.67,2.73s7.35-1.53,7.44-3.09l.07-1.78"/><path id="Tracé_8802" data-name="Tracé 8802" class="cls-3" d="M76.63,47.16l.06-1.75c-1.47.63-4.84,2.1-6.78,2.83a8.13,8.13,0,0,1-.13,2C73.67,50,76.53,48.62,76.63,47.16Z"/><path id="Tracé_8803" data-name="Tracé 8803" class="cls-4" d="M76.68,45.38c0,1.68-3.34,3.08-7.53,3.18s-7.64-1.21-7.67-2.9,3.34-3.08,7.54-3.18S76.66,43.72,76.68,45.38Z"/><path id="Tracé_8804" data-name="Tracé 8804" class="cls-2" d="M75.35,45.12c0,1.15-2.76,2.13-6.23,2.2s-6.3-.83-6.33-2,2.76-2.13,6.23-2.19S75.32,44,75.35,45.12Z"/><path id="Tracé_8805" data-name="Tracé 8805" class="cls-3" d="M69,43.44c3.34-.07,6.08.76,6.3,1.84,0-.06,0-.1,0-.16,0-1.14-2.86-2-6.33-2s-6.26,1.05-6.23,2.19a.28.28,0,0,0,0,.13C63,44.39,65.75,43.5,69,43.44Z"/><path id="Tracé_8806" data-name="Tracé 8806" class="cls-3" d="M73.83,45.15H72.65v-.1c-.1-.35-.38-.8-1.34-.86a2,2,0,0,0-1.9.8l-.13.13H66.64a.75.75,0,0,1,.22-.25.29.29,0,1,0-.41-.42h0a1.54,1.54,0,0,0-.45.7h-.8a.29.29,0,0,0,0,.58H66a1.47,1.47,0,0,1,.1.22,1.85,1.85,0,0,0,2.26.48,3.1,3.1,0,0,0,1.15-.7H72a2,2,0,0,1-.47.73.29.29,0,0,0-.1.41h0a.33.33,0,0,0,.25.16.22.22,0,0,0,.16,0,2.75,2.75,0,0,0,.83-1.21h1.21a.29.29,0,0,0,.28-.28h0A.33.33,0,0,0,73.83,45.15Zm-2.55-.35c.45,0,.7.16.8.35h-2c.22-.25.5-.38,1.17-.35ZM68.2,45.88a1.47,1.47,0,0,1-1.5-.12h1.85a3.62,3.62,0,0,0-.35.13Z"/><g id="Groupe_1806" data-name="Groupe 1806"><g id="Groupe_1804" data-name="Groupe 1804"><path id="Tracé_8807" data-name="Tracé 8807" class="cls-4" d="M73.76,45.57H65.14a.29.29,0,0,1,0-.58h8.62a.29.29,0,1,1,0,.58Z"/></g><g id="Groupe_1805" data-name="Groupe 1805"><path id="Tracé_8808" data-name="Tracé 8808" class="cls-4" d="M71.57,46.84a.35.35,0,0,1-.26-.16.33.33,0,0,1,.1-.42c.16-.1.7-.82.58-1.27-.07-.22-.32-.35-.8-.38a1.43,1.43,0,0,0-1.44.6,2.87,2.87,0,0,1-1.46,1A1.84,1.84,0,0,1,66,45.75a1.19,1.19,0,0,1,.32-1.5.3.3,0,0,1,.42,0,.3.3,0,0,1,0,.41.61.61,0,0,0-.23.76c.19.32.77.51,1.59.23a2.34,2.34,0,0,0,1.21-.86,1.89,1.89,0,0,1,1.91-.8c1,.06,1.24.51,1.33.86a2.22,2.22,0,0,1-.85,1.9C71.66,46.81,71.63,46.84,71.57,46.84Z"/></g></g><path id="Tracé_8809" data-name="Tracé 8809" class="cls-5" d="M73.22,47.6c.45.1,4-1.15,2.87-2.7C76.24,45.66,75.32,46.81,73.22,47.6Z"/><path id="Tracé_8810" data-name="Tracé 8810" class="cls-5" d="M63.3,43.88c-1.43.45-2.1,1.72-.73,2.64C62,45.41,62.28,44.68,63.3,43.88Z"/></g><g id="Groupe_1811" data-name="Groupe 1811"><path id="Tracé_8811" data-name="Tracé 8811" class="cls-2" d="M61.45,43.18l0,1.91c.29,1.59,3.47,2.83,7.67,2.74s7.35-1.53,7.44-3.09L76.66,43"/><path id="Tracé_8812" data-name="Tracé 8812" class="cls-3" d="M76.63,44.74,76.69,43c-1.47.64-4.84,2.1-6.78,2.83a8.13,8.13,0,0,1-.13,2C73.67,47.6,76.53,46.24,76.63,44.74Z"/><path id="Tracé_8813" data-name="Tracé 8813" class="cls-4" d="M76.68,43c0,1.69-3.34,3.09-7.53,3.18S61.51,45,61.48,43.28,64.82,40.19,69,40.1,76.66,41.3,76.68,43Z"/><path id="Tracé_8814" data-name="Tracé 8814" class="cls-2" d="M75.35,42.7c0,1.15-2.76,2.13-6.23,2.2s-6.3-.83-6.33-2,2.76-2.13,6.23-2.2S75.32,41.56,75.35,42.7Z"/><path id="Tracé_8815" data-name="Tracé 8815" class="cls-3" d="M69,41.05c3.34-.06,6.08.76,6.3,1.85,0-.07,0-.1,0-.16,0-1.15-2.86-2-6.33-2s-6.26,1.05-6.23,2.2a.31.31,0,0,0,0,.13C63,42,65.75,41.11,69,41.05Z"/><path id="Tracé_8816" data-name="Tracé 8816" class="cls-3" d="M73.83,42.77H72.65v-.1c-.1-.35-.38-.8-1.34-.86a2,2,0,0,0-1.9.8l-.13.13H66.64a.78.78,0,0,1,.22-.26.29.29,0,0,0,0-.41.28.28,0,0,0-.41,0,1.54,1.54,0,0,0-.45.7h-.8a.29.29,0,0,0,0,.57H66a2.14,2.14,0,0,1,.1.22,1.85,1.85,0,0,0,2.26.48,3,3,0,0,0,1.15-.7H72a1.88,1.88,0,0,1-.47.73.31.31,0,0,0-.1.42h0a.33.33,0,0,0,.25.16.29.29,0,0,0,.16,0,2.69,2.69,0,0,0,.83-1.21h1.21a.27.27,0,0,0,.28-.28h0C74.11,42.89,74,42.77,73.83,42.77Zm-2.55-.35c.45,0,.7.16.8.35h-2a1.2,1.2,0,0,1,1.17-.35ZM68.2,43.5a1.5,1.5,0,0,1-1.5-.13h1.85a1.33,1.33,0,0,0-.35.13Z"/><g id="Groupe_1810" data-name="Groupe 1810"><g id="Groupe_1808" data-name="Groupe 1808"><path id="Tracé_8817" data-name="Tracé 8817" class="cls-4" d="M73.76,43.18H65.14a.29.29,0,0,1,0-.57h8.62a.29.29,0,1,1,0,.57Z"/></g><g id="Groupe_1809" data-name="Groupe 1809"><path id="Tracé_8818" data-name="Tracé 8818" class="cls-4" d="M71.57,44.42a.35.35,0,0,1-.26-.16.32.32,0,0,1,.1-.41c.16-.1.7-.83.58-1.27-.07-.23-.32-.35-.8-.39a1.45,1.45,0,0,0-1.44.6,2.76,2.76,0,0,1-1.46,1A1.84,1.84,0,0,1,66,43.33a1.18,1.18,0,0,1,.32-1.49.29.29,0,0,1,.42,0,.3.3,0,0,1,0,.41h0a.61.61,0,0,0-.23.76c.19.32.77.51,1.59.23a2.34,2.34,0,0,0,1.21-.86,1.91,1.91,0,0,1,1.91-.8c1,.06,1.24.51,1.33.86a2.24,2.24,0,0,1-.85,1.91A.2.2,0,0,1,71.57,44.42Z"/></g></g><path id="Tracé_8819" data-name="Tracé 8819" class="cls-5" d="M73.22,45.18c.45.1,4-1.14,2.87-2.7C76.24,43.28,75.32,44.42,73.22,45.18Z"/><path id="Tracé_8820" data-name="Tracé 8820" class="cls-5" d="M63.3,41.5c-1.43.44-2.1,1.71-.73,2.64C62,43,62.28,42.3,63.3,41.5Z"/></g><g id="Groupe_1815" data-name="Groupe 1815"><path id="Tracé_8821" data-name="Tracé 8821" class="cls-2" d="M61.45,40.8l0,1.9c.29,1.59,3.47,2.84,7.67,2.74s7.35-1.53,7.44-3.09l.07-1.78"/><path id="Tracé_8822" data-name="Tracé 8822" class="cls-3" d="M76.63,42.35l.06-1.74c-1.47.63-4.84,2.1-6.78,2.83a8.13,8.13,0,0,1-.13,2C73.67,45.22,76.53,43.85,76.63,42.35Z"/><path id="Tracé_8823" data-name="Tracé 8823" class="cls-4" d="M76.68,40.57c0,1.69-3.34,3.09-7.53,3.18s-7.64-1.21-7.67-2.89,3.34-3.09,7.54-3.18S76.66,38.92,76.68,40.57Z"/><path id="Tracé_8824" data-name="Tracé 8824" class="cls-2" d="M75.35,40.32c0,1.14-2.76,2.13-6.23,2.19s-6.3-.82-6.33-2,2.76-2.13,6.23-2.19S75.32,39.17,75.35,40.32Z"/><path id="Tracé_8825" data-name="Tracé 8825" class="cls-3" d="M69,38.66c3.34-.06,6.08.77,6.3,1.85,0-.07,0-.1,0-.16,0-1.14-2.86-2-6.33-2s-6.26,1-6.23,2.19a.28.28,0,0,0,0,.13C63,39.62,65.75,38.73,69,38.66Z"/><path id="Tracé_8826" data-name="Tracé 8826" class="cls-3" d="M73.83,40.38H72.65v-.1c-.1-.35-.38-.8-1.34-.86a2,2,0,0,0-1.9.8l-.13.13H66.64a.75.75,0,0,1,.22-.25.29.29,0,1,0-.41-.42,1.54,1.54,0,0,0-.45.7h-.8a.29.29,0,0,0,0,.58H66a1.47,1.47,0,0,1,.1.22,1.85,1.85,0,0,0,2.26.48,3.24,3.24,0,0,0,1.15-.7H72a2,2,0,0,1-.47.73.29.29,0,0,0-.1.41h0a.33.33,0,0,0,.25.16.41.41,0,0,0,.16,0A2.75,2.75,0,0,0,72.62,41h1.21a.29.29,0,0,0,.28-.28h0C74.11,40.51,74,40.38,73.83,40.38ZM71.28,40c.45,0,.7.16.8.35h-2A1.39,1.39,0,0,1,71.28,40ZM68.2,41.08A1.47,1.47,0,0,1,66.7,41h1.85a1.66,1.66,0,0,1-.35.13Z"/><g id="Groupe_1814" data-name="Groupe 1814"><g id="Groupe_1812" data-name="Groupe 1812"><path id="Tracé_8827" data-name="Tracé 8827" class="cls-4" d="M73.76,40.76H65.14a.27.27,0,0,1-.28-.28.28.28,0,0,1,.28-.29h8.62a.29.29,0,0,1,.29.29A.28.28,0,0,1,73.76,40.76Z"/></g><g id="Groupe_1813" data-name="Groupe 1813"><path id="Tracé_8828" data-name="Tracé 8828" class="cls-4" d="M71.57,42a.32.32,0,0,1-.26-.16.32.32,0,0,1,.1-.41c.16-.1.7-.83.58-1.27-.07-.22-.32-.35-.8-.38a1.41,1.41,0,0,0-1.44.6,2.8,2.8,0,0,1-1.46,1c-1.14.39-2,0-2.26-.47a1.19,1.19,0,0,1,.32-1.5.3.3,0,1,1,.42.42h0a.61.61,0,0,0-.23.76c.19.32.77.51,1.59.22A2.29,2.29,0,0,0,69.34,40a1.91,1.91,0,0,1,1.91-.8c1,.07,1.24.51,1.33.86A2.23,2.23,0,0,1,71.73,42,.17.17,0,0,1,71.57,42Z"/></g></g><path id="Tracé_8829" data-name="Tracé 8829" class="cls-5" d="M73.22,42.8c.45.1,4-1.15,2.87-2.7C76.24,40.9,75.32,42,73.22,42.8Z"/><path id="Tracé_8830" data-name="Tracé 8830" class="cls-5" d="M63.3,39.08c-1.43.44-2.1,1.72-.73,2.64C62,40.64,62.28,39.91,63.3,39.08Z"/></g><g id="Groupe_1819" data-name="Groupe 1819"><path id="Tracé_8831" data-name="Tracé 8831" class="cls-2" d="M61.45,38.38l0,1.91c.29,1.59,3.47,2.83,7.67,2.73s7.35-1.53,7.44-3.08l.07-1.78"/><path id="Tracé_8832" data-name="Tracé 8832" class="cls-3" d="M76.63,40l.06-1.75c-1.47.64-4.84,2.1-6.78,2.83a8.13,8.13,0,0,1-.13,2C73.67,42.83,76.53,41.43,76.63,40Z"/><path id="Tracé_8833" data-name="Tracé 8833" class="cls-4" d="M76.68,38.19c0,1.68-3.34,3.08-7.53,3.18s-7.64-1.21-7.67-2.9,3.34-3.08,7.54-3.18S76.66,36.53,76.68,38.19Z"/><path id="Tracé_8834" data-name="Tracé 8834" class="cls-2" d="M75.35,37.93c0,1.15-2.76,2.13-6.23,2.2s-6.3-.83-6.33-2S65.55,36,69,36,75.32,36.79,75.35,37.93Z"/><path id="Tracé_8835" data-name="Tracé 8835" class="cls-3" d="M69,36.25c3.34-.07,6.08.76,6.3,1.84,0-.06,0-.1,0-.16,0-1.14-2.86-2-6.33-2s-6.26,1-6.23,2.2a.24.24,0,0,0,0,.12C63,37.23,65.75,36.31,69,36.25Z"/><path id="Tracé_8836" data-name="Tracé 8836" class="cls-3" d="M73.83,38H72.65v-.1c-.1-.35-.38-.8-1.34-.86a2,2,0,0,0-1.9.8l-.13.13H66.64a.78.78,0,0,1,.22-.26.29.29,0,0,0,0-.41.28.28,0,0,0-.41,0h0A1.54,1.54,0,0,0,66,38h-.8a.29.29,0,0,0,0,.57H66a2.14,2.14,0,0,1,.1.22,1.85,1.85,0,0,0,2.26.48,3,3,0,0,0,1.15-.7H72a1.88,1.88,0,0,1-.47.73.31.31,0,0,0-.1.42h0a.33.33,0,0,0,.25.16.29.29,0,0,0,.16,0,2.75,2.75,0,0,0,.83-1.21h1.21a.28.28,0,0,0,.28-.28h0C74.11,38.12,74,38,73.83,38Zm-2.55-.39c.45,0,.7.16.8.35h-2c.22-.25.5-.38,1.17-.34ZM68.2,38.7a1.5,1.5,0,0,1-1.5-.13h1.85c-.13,0-.23.1-.35.13Z"/><g id="Groupe_1818" data-name="Groupe 1818"><g id="Groupe_1816" data-name="Groupe 1816"><path id="Tracé_8837" data-name="Tracé 8837" class="cls-4" d="M73.76,38.38H65.14a.28.28,0,0,1-.28-.29.27.27,0,0,1,.28-.28h8.62a.28.28,0,0,1,.29.28A.29.29,0,0,1,73.76,38.38Z"/></g><g id="Groupe_1817" data-name="Groupe 1817"><path id="Tracé_8838" data-name="Tracé 8838" class="cls-4" d="M71.57,39.65a.35.35,0,0,1-.26-.16.32.32,0,0,1,.1-.41c.16-.1.7-.83.58-1.28-.07-.22-.32-.35-.8-.38a1.43,1.43,0,0,0-1.44.6,2.81,2.81,0,0,1-1.46,1A1.84,1.84,0,0,1,66,38.56a1.18,1.18,0,0,1,.32-1.49.29.29,0,0,1,.42,0,.3.3,0,0,1,0,.41h0a.61.61,0,0,0-.23.76c.19.32.77.51,1.59.23a2.34,2.34,0,0,0,1.21-.86,1.91,1.91,0,0,1,1.91-.8c1,.06,1.24.51,1.33.86a2.24,2.24,0,0,1-.85,1.91C71.66,39.62,71.63,39.65,71.57,39.65Z"/></g></g><path id="Tracé_8839" data-name="Tracé 8839" class="cls-5" d="M73.22,40.41c.45.1,4-1.14,2.87-2.7C76.24,38.47,75.32,39.62,73.22,40.41Z"/><path id="Tracé_8840" data-name="Tracé 8840" class="cls-5" d="M63.3,36.69c-1.43.45-2.1,1.72-.73,2.64C62,38.22,62.28,37.49,63.3,36.69Z"/></g><g id="Groupe_1823" data-name="Groupe 1823"><path id="Tracé_8841" data-name="Tracé 8841" class="cls-2" d="M60.53,36l0,1.91c.29,1.59,3.47,2.83,7.67,2.74s7.35-1.53,7.44-3.09l.07-1.78"/><path id="Tracé_8842" data-name="Tracé 8842" class="cls-3" d="M75.7,37.58l.07-1.75c-1.47.64-4.84,2.1-6.78,2.84a8.67,8.67,0,0,1-.12,2C72.75,40.41,75.61,39.05,75.7,37.58Z"/><path id="Tracé_8843" data-name="Tracé 8843" class="cls-4" d="M75.76,35.8c0,1.69-3.34,3.09-7.54,3.18s-7.63-1.21-7.66-2.89S63.9,33,68.1,32.91,75.73,34.11,75.76,35.8Z"/><path id="Tracé_8844" data-name="Tracé 8844" class="cls-2" d="M74.43,35.55c0,1.14-2.77,2.13-6.23,2.19s-6.3-.83-6.33-2,2.76-2.13,6.23-2.19S74.4,34.37,74.43,35.55Z"/><path id="Tracé_8845" data-name="Tracé 8845" class="cls-3" d="M68.1,33.86c3.34-.06,6.07.76,6.3,1.85,0-.07,0-.1,0-.16,0-1.15-2.86-2-6.33-2s-6.26,1.05-6.23,2.19a.16.16,0,0,0,0,.13C62.12,34.82,64.82,33.92,68.1,33.86Z"/><path id="Tracé_8846" data-name="Tracé 8846" class="cls-3" d="M72.9,35.58H71.73v-.1c-.1-.35-.39-.8-1.34-.86a2,2,0,0,0-1.91.8l-.12.13H65.72a.78.78,0,0,1,.22-.26.3.3,0,0,0,0-.41.29.29,0,0,0-.42,0,1.52,1.52,0,0,0-.44.7h-.8a.29.29,0,1,0,0,.57h.8a1.6,1.6,0,0,1,.1.23,1.86,1.86,0,0,0,2.26.47,2.87,2.87,0,0,0,1.14-.7H71a1.79,1.79,0,0,1-.48.73.32.32,0,0,0-.1.42h0a.35.35,0,0,0,.26.16.32.32,0,0,0,.16,0,2.69,2.69,0,0,0,.82-1.2H72.9a.29.29,0,0,0,.29-.29h0C73.19,35.71,73.06,35.58,72.9,35.58Zm-2.54-.35c.44,0,.7.16.8.35h-2a1.18,1.18,0,0,1,1.17-.35Zm-3.12,1.08a1.48,1.48,0,0,1-1.49-.13h1.84a2,2,0,0,1-.35.13Z"/><g id="Groupe_1822" data-name="Groupe 1822"><g id="Groupe_1820" data-name="Groupe 1820"><path id="Tracé_8847" data-name="Tracé 8847" class="cls-4" d="M72.81,36H64.19a.29.29,0,1,1,0-.57h8.62a.28.28,0,0,1,.28.28h0C73.13,35.87,73,36,72.81,36Z"/></g><g id="Groupe_1821" data-name="Groupe 1821"><path id="Tracé_8848" data-name="Tracé 8848" class="cls-4" d="M70.65,37.26a.35.35,0,0,1-.26-.16.31.31,0,0,1,.1-.41c.16-.1.7-.83.57-1.27-.06-.23-.31-.35-.8-.38a1.41,1.41,0,0,0-1.43.59,2.8,2.8,0,0,1-1.46,1,1.84,1.84,0,0,1-2.26-.47,1.16,1.16,0,0,1,.35-1.5.31.31,0,0,1,.42,0,.3.3,0,0,1,0,.41h0a.62.62,0,0,0-.23.77c.19.32.77.51,1.59.22a2.34,2.34,0,0,0,1.21-.86,1.91,1.91,0,0,1,1.91-.8c1,.07,1.24.51,1.34.86a2.28,2.28,0,0,1-.86,1.91C70.74,37.23,70.71,37.26,70.65,37.26Z"/></g></g><path id="Tracé_8849" data-name="Tracé 8849" class="cls-5" d="M72.3,38c.44.1,4-1.15,2.86-2.7C75.32,36.09,74.4,37.23,72.3,38Z"/><path id="Tracé_8850" data-name="Tracé 8850" class="cls-5" d="M62.37,34.31c-1.43.44-2.1,1.72-.73,2.64C61,35.83,61.36,35.11,62.37,34.31Z"/></g><g id="Groupe_1827" data-name="Groupe 1827"><path id="Tracé_8851" data-name="Tracé 8851" class="cls-2" d="M61.45,33.61l0,1.91c.29,1.59,3.47,2.83,7.67,2.73s7.35-1.53,7.44-3.08l.06-1.79"/><path id="Tracé_8852" data-name="Tracé 8852" class="cls-3" d="M76.63,35.17l.06-1.75c-1.47.63-4.84,2.1-6.78,2.83a8.13,8.13,0,0,1-.13,2C73.67,38,76.53,36.66,76.63,35.17Z"/><path id="Tracé_8853" data-name="Tracé 8853" class="cls-4" d="M76.68,33.42c0,1.68-3.34,3.08-7.53,3.18s-7.63-1.21-7.67-2.9,3.34-3.08,7.54-3.18S76.66,31.73,76.68,33.42Z"/><path id="Tracé_8854" data-name="Tracé 8854" class="cls-2" d="M75.35,33.13c0,1.14-2.76,2.13-6.23,2.2s-6.3-.83-6.33-2,2.76-2.13,6.23-2.19S75.32,32,75.35,33.13Z"/><path id="Tracé_8855" data-name="Tracé 8855" class="cls-3" d="M69,31.48c3.34-.07,6.08.76,6.3,1.84,0-.06,0-.1,0-.16,0-1.14-2.86-2-6.33-2s-6.26,1.05-6.23,2.2a.27.27,0,0,0,0,.12C63,32.43,65.75,31.54,69,31.48Z"/><path id="Tracé_8856" data-name="Tracé 8856" class="cls-3" d="M73.83,33.19H72.65v-.1c-.1-.35-.38-.8-1.34-.85a2,2,0,0,0-1.9.8l-.13.12H66.64a.75.75,0,0,1,.22-.25.29.29,0,0,0,0-.42.3.3,0,0,0-.41,0h0a1.54,1.54,0,0,0-.45.7h-.8a.29.29,0,0,0,0,.58H66a1.47,1.47,0,0,1,.1.22,1.85,1.85,0,0,0,2.26.48,3.1,3.1,0,0,0,1.15-.7H72a2,2,0,0,1-.47.73.3.3,0,0,0-.1.41h0a.33.33,0,0,0,.25.16.29.29,0,0,0,.16,0,2.75,2.75,0,0,0,.83-1.21h1.21a.29.29,0,0,0,.28-.28h0C74.11,33.32,74,33.19,73.83,33.19Zm-2.55-.35c.45,0,.7.16.8.35h-2a1.22,1.22,0,0,1,1.17-.35ZM68.2,33.93a1.5,1.5,0,0,1-1.5-.13h1.85a1.33,1.33,0,0,0-.35.13Z"/><g id="Groupe_1826" data-name="Groupe 1826"><g id="Groupe_1824" data-name="Groupe 1824"><path id="Tracé_8857" data-name="Tracé 8857" class="cls-4" d="M73.76,33.61H65.14a.28.28,0,0,1-.28-.29.27.27,0,0,1,.28-.28h8.62a.28.28,0,0,1,.29.28h0A.31.31,0,0,1,73.76,33.61Z"/></g><g id="Groupe_1825" data-name="Groupe 1825"><path id="Tracé_8858" data-name="Tracé 8858" class="cls-4" d="M71.57,34.84a.31.31,0,0,1-.26-.15.33.33,0,0,1,.1-.42c.16-.1.7-.83.58-1.27-.07-.22-.32-.35-.8-.38a1.43,1.43,0,0,0-1.44.6,2.87,2.87,0,0,1-1.46,1A1.84,1.84,0,0,1,66,33.76a1.19,1.19,0,0,1,.32-1.5.3.3,0,1,1,.42.42.61.61,0,0,0-.23.76c.19.32.77.51,1.59.22a2.29,2.29,0,0,0,1.21-.86,1.91,1.91,0,0,1,1.91-.8c1,.07,1.24.51,1.33.86a2.23,2.23,0,0,1-.85,1.91A.17.17,0,0,1,71.57,34.84Z"/></g></g><path id="Tracé_8859" data-name="Tracé 8859" class="cls-5" d="M73.22,35.61c.45.1,4-1.15,2.87-2.7C76.24,33.71,75.32,34.85,73.22,35.61Z"/><path id="Tracé_8860" data-name="Tracé 8860" class="cls-5" d="M63.3,31.89c-1.43.45-2.1,1.72-.73,2.64C62,33.45,62.28,32.72,63.3,31.89Z"/></g><g id="Groupe_1831" data-name="Groupe 1831"><path id="Tracé_8861" data-name="Tracé 8861" class="cls-2" d="M61.45,31.22l0,1.91c.29,1.59,3.47,2.83,7.67,2.73s7.35-1.52,7.44-3.08L76.65,31"/><path id="Tracé_8862" data-name="Tracé 8862" class="cls-3" d="M76.63,32.78,76.69,31c-1.47.64-4.84,2.1-6.78,2.83a8.67,8.67,0,0,1-.12,2C73.67,35.64,76.53,34.28,76.63,32.78Z"/><path id="Tracé_8863" data-name="Tracé 8863" class="cls-4" d="M76.68,31c0,1.68-3.34,3.08-7.53,3.18S61.52,33,61.48,31.29,64.82,28.2,69,28.1,76.66,29.35,76.68,31Z"/><path id="Tracé_8864" data-name="Tracé 8864" class="cls-2" d="M75.35,30.74c0,1.15-2.76,2.14-6.23,2.2s-6.3-.83-6.33-2,2.76-2.13,6.23-2.2S75.32,29.6,75.35,30.74Z"/><path id="Tracé_8865" data-name="Tracé 8865" class="cls-3" d="M69,29.06c3.34-.07,6.08.76,6.3,1.84,0-.06,0-.1,0-.16,0-1.14-2.86-2-6.33-2s-6.26,1.05-6.23,2.2a.24.24,0,0,0,0,.12C63,30,65.75,29.12,69,29.06Z"/><path id="Tracé_8866" data-name="Tracé 8866" class="cls-3" d="M73.83,30.81H72.65v-.1c-.1-.35-.38-.8-1.34-.86a2,2,0,0,0-1.9.8l-.13.13H66.64a.78.78,0,0,1,.22-.26.29.29,0,1,0-.41-.41,1.54,1.54,0,0,0-.45.7h-.8a.29.29,0,0,0,0,.57H66a2.14,2.14,0,0,1,.1.22,1.85,1.85,0,0,0,2.26.48,3,3,0,0,0,1.15-.7H72a1.88,1.88,0,0,1-.47.73.31.31,0,0,0-.1.42h0a.33.33,0,0,0,.25.16.29.29,0,0,0,.16,0,2.75,2.75,0,0,0,.83-1.21h1.21a.28.28,0,0,0,.28-.28h0C74.11,31,74,30.81,73.83,30.81Zm-2.55-.38c.45,0,.7.15.8.35h-2a1.33,1.33,0,0,1,1.17-.35ZM68.2,31.51a1.5,1.5,0,0,1-1.5-.13h1.85c-.13,0-.23.1-.35.13Z"/><g id="Groupe_1830" data-name="Groupe 1830"><g id="Groupe_1828" data-name="Groupe 1828"><path id="Tracé_8867" data-name="Tracé 8867" class="cls-4" d="M73.76,31.19H65.14a.29.29,0,0,1,0-.57h8.62a.29.29,0,1,1,0,.57Z"/></g><g id="Groupe_1829" data-name="Groupe 1829"><path id="Tracé_8868" data-name="Tracé 8868" class="cls-4" d="M71.57,32.46a.35.35,0,0,1-.26-.16.32.32,0,0,1,.1-.41c.16-.1.7-.83.58-1.28-.07-.22-.32-.35-.8-.38a1.43,1.43,0,0,0-1.44.6,2.81,2.81,0,0,1-1.46,1A1.84,1.84,0,0,1,66,31.37a1.18,1.18,0,0,1,.32-1.49.29.29,0,0,1,.42,0,.3.3,0,0,1,0,.41h0a.61.61,0,0,0-.23.76c.19.32.77.51,1.59.23a2.34,2.34,0,0,0,1.21-.86,1.89,1.89,0,0,1,1.91-.8c1,.06,1.24.51,1.33.86a2.21,2.21,0,0,1-.85,1.9A.18.18,0,0,1,71.57,32.46Z"/></g></g><path id="Tracé_8869" data-name="Tracé 8869" class="cls-5" d="M73.22,33.22c.45.1,4-1.14,2.87-2.7C76.24,31.32,75.32,32.46,73.22,33.22Z"/><path id="Tracé_8870" data-name="Tracé 8870" class="cls-5" d="M63.3,29.5c-1.43.45-2.1,1.72-.73,2.64C62,31,62.28,30.3,63.3,29.5Z"/></g><g id="Groupe_1835" data-name="Groupe 1835"><path id="Tracé_8871" data-name="Tracé 8871" class="cls-2" d="M61.45,28.8l0,1.91c.29,1.59,3.47,2.83,7.67,2.74s7.35-1.53,7.44-3.09l.06-1.78"/><path id="Tracé_8872" data-name="Tracé 8872" class="cls-3" d="M76.63,30.39l.06-1.74c-1.47.63-4.84,2.1-6.78,2.83a8.58,8.58,0,0,1-.12,2C73.67,33.22,76.53,31.86,76.63,30.39Z"/><path id="Tracé_8873" data-name="Tracé 8873" class="cls-4" d="M76.68,28.61c0,1.69-3.34,3.09-7.53,3.18s-7.63-1.21-7.67-2.89,3.34-3.09,7.54-3.18S76.66,26.92,76.68,28.61Z"/><path id="Tracé_8874" data-name="Tracé 8874" class="cls-2" d="M75.35,28.36c0,1.14-2.76,2.13-6.23,2.19s-6.3-.82-6.33-2,2.76-2.13,6.23-2.19S75.32,27.18,75.35,28.36Z"/><path id="Tracé_8875" data-name="Tracé 8875" class="cls-3" d="M69,26.67c3.34-.06,6.08.76,6.3,1.85,0-.07,0-.1,0-.16,0-1.15-2.86-2-6.33-2s-6.26,1.05-6.23,2.19a.28.28,0,0,0,0,.13C63,27.63,65.75,26.74,69,26.67Z"/><path id="Tracé_8876" data-name="Tracé 8876" class="cls-3" d="M73.83,28.39H72.65v-.1c-.1-.35-.38-.8-1.34-.86a2,2,0,0,0-1.9.8l-.13.13H66.64a.78.78,0,0,1,.22-.26.29.29,0,0,0,0-.41.3.3,0,0,0-.41,0h0a1.54,1.54,0,0,0-.45.7h-.8a.28.28,0,0,0-.28.29.27.27,0,0,0,.28.28H66a2.29,2.29,0,0,1,.1.23,1.84,1.84,0,0,0,2.26.47,3,3,0,0,0,1.15-.7H72a2,2,0,0,1-.47.74.29.29,0,0,0-.1.41h0a.33.33,0,0,0,.25.16.41.41,0,0,0,.16,0A2.75,2.75,0,0,0,72.62,29h1.21a.29.29,0,0,0,.28-.29h0C74.11,28.52,74,28.39,73.83,28.39ZM71.28,28c.45,0,.7.16.8.35h-2c.22-.25.5-.38,1.17-.35ZM68.2,29.12A1.47,1.47,0,0,1,66.7,29h1.85c-.13,0-.23.1-.35.13Z"/><g id="Groupe_1834" data-name="Groupe 1834"><g id="Groupe_1832" data-name="Groupe 1832"><path id="Tracé_8877" data-name="Tracé 8877" class="cls-4" d="M73.76,28.8H65.14a.27.27,0,0,1-.28-.28.28.28,0,0,1,.28-.29h8.62a.29.29,0,0,1,.29.29A.28.28,0,0,1,73.76,28.8Z"/></g><g id="Groupe_1833" data-name="Groupe 1833"><path id="Tracé_8878" data-name="Tracé 8878" class="cls-4" d="M71.57,30.07a.32.32,0,0,1-.26-.16.32.32,0,0,1,.1-.41c.16-.1.7-.83.58-1.27-.07-.22-.32-.35-.8-.38a1.41,1.41,0,0,0-1.44.6,2.8,2.8,0,0,1-1.46,1c-1.14.39-2,0-2.26-.47a1.19,1.19,0,0,1,.32-1.5.3.3,0,1,1,.42.42.6.6,0,0,0-.23.76c.19.32.77.51,1.59.22A2.29,2.29,0,0,0,69.34,28a1.91,1.91,0,0,1,1.91-.8c1,.07,1.24.51,1.33.86A2.23,2.23,0,0,1,71.73,30C71.66,30,71.63,30.07,71.57,30.07Z"/></g></g><path id="Tracé_8879" data-name="Tracé 8879" class="cls-5" d="M73.22,30.84c.45.1,4-1.15,2.87-2.7C76.24,28.9,75.32,30,73.22,30.84Z"/><path id="Tracé_8880" data-name="Tracé 8880" class="cls-5" d="M63.3,27.12c-1.43.44-2.1,1.72-.73,2.64C62,28.65,62.28,27.92,63.3,27.12Z"/></g><g id="Groupe_1839" data-name="Groupe 1839"><path id="Tracé_8881" data-name="Tracé 8881" class="cls-2" d="M61.45,26.42l0,1.91c.29,1.59,3.47,2.83,7.67,2.73S76.5,29.53,76.59,28l.06-1.78"/><path id="Tracé_8882" data-name="Tracé 8882" class="cls-3" d="M76.63,28l.06-1.75c-1.47.63-4.84,2.1-6.78,2.83a8.67,8.67,0,0,1-.12,2C73.67,30.84,76.53,29.47,76.63,28Z"/><path id="Tracé_8883" data-name="Tracé 8883" class="cls-4" d="M76.68,26.23c0,1.68-3.34,3.08-7.53,3.18s-7.63-1.21-7.67-2.9,3.34-3.08,7.54-3.18S76.66,24.54,76.68,26.23Z"/><path id="Tracé_8884" data-name="Tracé 8884" class="cls-2" d="M75.35,25.94c0,1.15-2.76,2.13-6.23,2.2s-6.3-.83-6.33-2S65.55,24,69,24,75.32,24.8,75.35,25.94Z"/><path id="Tracé_8885" data-name="Tracé 8885" class="cls-3" d="M69,24.29c3.34-.07,6.08.76,6.3,1.84,0-.06,0-.1,0-.16,0-1.14-2.86-2-6.33-2s-6.26,1.05-6.23,2.2a.24.24,0,0,0,0,.12C63,25.24,65.75,24.35,69,24.29Z"/><path id="Tracé_8886" data-name="Tracé 8886" class="cls-3" d="M73.83,26H72.65v-.1c-.1-.35-.38-.8-1.34-.86a2,2,0,0,0-1.9.8l-.13.12H66.64a.75.75,0,0,1,.22-.25.29.29,0,0,0-.41-.41A1.49,1.49,0,0,0,66,26h-.8a.27.27,0,0,0-.28.28.28.28,0,0,0,.28.29H66a1.47,1.47,0,0,1,.1.22,1.85,1.85,0,0,0,2.26.48,3,3,0,0,0,1.15-.7H72a1.88,1.88,0,0,1-.47.73.3.3,0,0,0-.1.41h0a.3.3,0,0,0,.25.16.22.22,0,0,0,.16,0,2.75,2.75,0,0,0,.83-1.21h1.21a.28.28,0,0,0,.28-.28h0C74.11,26.13,74,26,73.83,26Zm-2.55-.35c.45,0,.7.15.8.35h-2a1.18,1.18,0,0,1,1.17-.35ZM68.2,26.74a1.5,1.5,0,0,1-1.5-.13h1.85a1.33,1.33,0,0,0-.35.13Z"/><g id="Groupe_1838" data-name="Groupe 1838"><g id="Groupe_1836" data-name="Groupe 1836"><path id="Tracé_8887" data-name="Tracé 8887" class="cls-4" d="M73.76,26.42H65.14a.28.28,0,0,1-.28-.29.27.27,0,0,1,.28-.28h8.62a.28.28,0,0,1,.29.28A.29.29,0,0,1,73.76,26.42Z"/></g><g id="Groupe_1837" data-name="Groupe 1837"><path id="Tracé_8888" data-name="Tracé 8888" class="cls-4" d="M71.57,27.66a.35.35,0,0,1-.26-.16.33.33,0,0,1,.1-.42c.16-.1.7-.82.58-1.27-.07-.22-.32-.35-.8-.38a1.43,1.43,0,0,0-1.44.6,2.81,2.81,0,0,1-1.46,1A1.84,1.84,0,0,1,66,26.57a1.18,1.18,0,0,1,.32-1.49.29.29,0,0,1,.42,0,.3.3,0,0,1,0,.41h0a.61.61,0,0,0-.23.76c.19.32.77.51,1.59.23a2.34,2.34,0,0,0,1.21-.86,1.89,1.89,0,0,1,1.91-.8c1,.06,1.24.51,1.33.86a2.22,2.22,0,0,1-.85,1.9A.21.21,0,0,1,71.57,27.66Z"/></g></g><path id="Tracé_8889" data-name="Tracé 8889" class="cls-5" d="M73.22,28.42c.45.1,4-1.15,2.87-2.7C76.24,26.52,75.32,27.66,73.22,28.42Z"/><path id="Tracé_8890" data-name="Tracé 8890" class="cls-5" d="M63.3,24.7c-1.43.45-2.1,1.72-.73,2.64C62,26.26,62.28,25.53,63.3,24.7Z"/></g><g id="Groupe_1843" data-name="Groupe 1843"><path id="Tracé_8891" data-name="Tracé 8891" class="cls-2" d="M62.09,24l0,1.91c.29,1.59,3.47,2.83,7.67,2.74s7.34-1.53,7.44-3.09l.06-1.78"/><path id="Tracé_8892" data-name="Tracé 8892" class="cls-3" d="M77.23,25.59l.06-1.75c-1.46.64-4.83,2.1-6.77,2.83a8.67,8.67,0,0,1-.13,2C74.3,28.46,77.17,27.09,77.23,25.59Z"/><path id="Tracé_8893" data-name="Tracé 8893" class="cls-4" d="M77.29,23.81c0,1.69-3.34,3.09-7.54,3.18s-7.63-1.21-7.66-2.89,3.34-3.09,7.53-3.18S77.26,22.16,77.29,23.81Z"/><path id="Tracé_8894" data-name="Tracé 8894" class="cls-2" d="M76,23.56c0,1.14-2.77,2.13-6.24,2.19s-6.3-.83-6.33-2,2.77-2.13,6.24-2.2S76,22.41,76,23.56Z"/><path id="Tracé_8895" data-name="Tracé 8895" class="cls-3" d="M69.66,21.9c3.34-.06,6.07.77,6.3,1.85,0-.07,0-.1,0-.16,0-1.15-2.86-2-6.33-2s-6.26,1.05-6.23,2.19a.15.15,0,0,0,0,.13C63.68,22.86,66.35,22,69.66,21.9Z"/><path id="Tracé_8896" data-name="Tracé 8896" class="cls-3" d="M74.43,23.62H73.25v-.1c-.1-.35-.38-.8-1.33-.86a2,2,0,0,0-1.91.8l-.13.13H67.24a.82.82,0,0,1,.23-.26.29.29,0,0,0,0-.41.3.3,0,0,0-.41,0h0a1.52,1.52,0,0,0-.44.7h-.8a.29.29,0,0,0-.29.29.28.28,0,0,0,.29.28h.8a2.29,2.29,0,0,1,.1.23,1.83,1.83,0,0,0,2.25.47,2.9,2.9,0,0,0,1.15-.7h2.45a2,2,0,0,1-.48.74.29.29,0,0,0-.1.41h0a.33.33,0,0,0,.26.16.37.37,0,0,0,.15,0,2.75,2.75,0,0,0,.83-1.21h1.21a.29.29,0,0,0,.29-.29h0C74.72,23.75,74.59,23.62,74.43,23.62Zm-2.54-.38c.44,0,.7.16.8.35h-2a1.45,1.45,0,0,1,1.18-.35ZM68.8,24.32a1.48,1.48,0,0,1-1.49-.13h1.84a1.14,1.14,0,0,1-.35.13Z"/><g id="Groupe_1842" data-name="Groupe 1842"><g id="Groupe_1840" data-name="Groupe 1840"><path id="Tracé_8897" data-name="Tracé 8897" class="cls-4" d="M74.37,24H65.75a.29.29,0,1,1,0-.57h8.62a.29.29,0,0,1,0,.57Z"/></g><g id="Groupe_1841" data-name="Groupe 1841"><path id="Tracé_8898" data-name="Tracé 8898" class="cls-4" d="M72.2,25.27a.33.33,0,0,1-.25-.16.31.31,0,0,1,.1-.41c.16-.1.7-.83.57-1.27-.06-.23-.31-.35-.8-.38a1.4,1.4,0,0,0-1.43.6,2.91,2.91,0,0,1-1.46,1c-1.15.38-2,0-2.26-.48A1.17,1.17,0,0,1,67,22.7a.29.29,0,0,1,.41.41.61.61,0,0,0-.22.77c.19.31.76.5,1.59.22A2.38,2.38,0,0,0,70,23.24a1.9,1.9,0,0,1,1.9-.8c1,.06,1.25.51,1.34.86a2.22,2.22,0,0,1-.86,1.91A.23.23,0,0,1,72.2,25.27Z"/></g></g><path id="Tracé_8899" data-name="Tracé 8899" class="cls-5" d="M73.86,26c.44.1,4-1.14,2.86-2.7C76.88,24.13,75.92,25.27,73.86,26Z"/><path id="Tracé_8900" data-name="Tracé 8900" class="cls-5" d="M63.93,22.32c-1.43.44-2.1,1.71-.73,2.64C62.57,23.88,62.92,23.14,63.93,22.32Z"/></g><g id="Groupe_1847" data-name="Groupe 1847"><path id="Tracé_8901" data-name="Tracé 8901" class="cls-2" d="M61.17,21.62l0,1.9c.28,1.59,3.47,2.84,7.66,2.74s7.35-1.53,7.45-3.09l.06-1.78"/><path id="Tracé_8902" data-name="Tracé 8902" class="cls-3" d="M76.31,23.21l.06-1.75c-1.5.63-4.84,2.1-6.78,2.83a8.67,8.67,0,0,1-.12,2C73.38,26,76.21,24.67,76.31,23.21Z"/><path id="Tracé_8903" data-name="Tracé 8903" class="cls-4" d="M76.37,21.43c0,1.68-3.34,3.08-7.54,3.18s-7.63-1.21-7.66-2.9,3.34-3.08,7.54-3.18S76.34,19.77,76.37,21.43Z"/><path id="Tracé_8904" data-name="Tracé 8904" class="cls-2" d="M75,21.17c0,1.15-2.76,2.13-6.23,2.2s-6.3-.83-6.33-2,2.77-2.13,6.23-2.19S75,20,75,21.17Z"/><path id="Tracé_8905" data-name="Tracé 8905" class="cls-3" d="M68.74,19.48c3.34-.06,6.07.77,6.3,1.85,0-.06,0-.1,0-.16,0-1.14-2.86-2-6.33-2s-6.27,1.05-6.24,2.19a.2.2,0,0,0,0,.13C62.76,20.44,65.43,19.55,68.74,19.48Z"/><path id="Tracé_8906" data-name="Tracé 8906" class="cls-3" d="M73.51,21.2H72.33v-.1c-.1-.35-.38-.8-1.34-.86a2,2,0,0,0-1.9.8l-.13.13H66.32a.88.88,0,0,1,.22-.25.29.29,0,0,0,0-.42.3.3,0,0,0-.41,0h0a1.63,1.63,0,0,0-.45.7h-.8a.29.29,0,0,0,0,.58h.8a.88.88,0,0,1,.1.22,1.86,1.86,0,0,0,2.26.48,3.24,3.24,0,0,0,1.15-.7h2.45a2.06,2.06,0,0,1-.48.73.29.29,0,0,0-.1.41h0a.33.33,0,0,0,.25.16.41.41,0,0,0,.16,0,2.75,2.75,0,0,0,.83-1.21h1.21a.28.28,0,0,0,.28-.29h0A.32.32,0,0,0,73.51,21.2ZM71,20.85c.45,0,.7.16.8.35h-2c.22-.25.51-.38,1.17-.35Zm-3.08,1.08a1.47,1.47,0,0,1-1.5-.12h1.85c-.13,0-.23.09-.35.12Z"/><g id="Groupe_1846" data-name="Groupe 1846"><g id="Groupe_1844" data-name="Groupe 1844"><path id="Tracé_8907" data-name="Tracé 8907" class="cls-4" d="M73.44,21.62H64.82a.29.29,0,0,1,0-.58h8.62a.29.29,0,0,1,0,.58Z"/></g><g id="Groupe_1845" data-name="Groupe 1845"><path id="Tracé_8908" data-name="Tracé 8908" class="cls-4" d="M71.25,22.89a.31.31,0,0,1-.25-.16.31.31,0,0,1,.1-.42c.15-.1.7-.82.57-1.27-.07-.22-.32-.35-.8-.38a1.41,1.41,0,0,0-1.43.6,2.94,2.94,0,0,1-1.47,1c-1.14.38-2,0-2.25-.48a1.14,1.14,0,0,1,.35-1.49.29.29,0,1,1,.41.41.6.6,0,0,0-.22.76c.19.32.76.51,1.59.23a2.38,2.38,0,0,0,1.21-.86,1.88,1.88,0,0,1,1.9-.8c1,.06,1.25.51,1.34.86a2.21,2.21,0,0,1-.86,1.9A.46.46,0,0,1,71.25,22.89Z"/></g></g><path id="Tracé_8909" data-name="Tracé 8909" class="cls-5" d="M72.93,23.65c.45.1,4-1.15,2.87-2.7C76,21.71,75,22.86,72.93,23.65Z"/><path id="Tracé_8910" data-name="Tracé 8910" class="cls-5" d="M63,19.93c-1.43.45-2.1,1.72-.73,2.64C61.64,21.46,62,20.73,63,19.93Z"/></g><g id="Groupe_1851" data-name="Groupe 1851"><path id="Tracé_8911" data-name="Tracé 8911" class="cls-2" d="M43.32,60.58l0,2c.28,1.69,3.65,3,8.07,2.9s7.77-1.59,7.86-3.25l.06-1.87"/><path id="Tracé_8912" data-name="Tracé 8912" class="cls-3" d="M59.32,62.23l.07-1.84c-1.56.67-5.12,2.23-7.13,3a9.6,9.6,0,0,1-.12,2.07C56.2,65.22,59.23,63.79,59.32,62.23Z"/><path id="Tracé_8913" data-name="Tracé 8913" class="cls-4" d="M59.39,60.36c0,1.75-3.53,3.24-8,3.34s-8-1.28-8.07-3,3.53-3.25,8-3.34S59.36,58.61,59.39,60.36Z"/><path id="Tracé_8914" data-name="Tracé 8914" class="cls-2" d="M58,60.07c0,1.21-2.93,2.26-6.59,2.32s-6.65-.86-6.65-2.06,2.93-2.26,6.59-2.33S58,58.86,58,60.07Z"/><path id="Tracé_8915" data-name="Tracé 8915" class="cls-3" d="M51.31,58.32c3.53-.06,6.39.8,6.64,1.94a1.24,1.24,0,0,1,0-.16C58,58.89,55,58,51.34,58s-6.59,1.11-6.59,2.32a.17.17,0,0,0,0,.12C45,59.34,47.84,58.39,51.31,58.32Z"/><path id="Tracé_8916" data-name="Tracé 8916" class="cls-3" d="M56.36,60.14H55.12a.11.11,0,0,0,0-.11c-.1-.38-.41-.82-1.4-.89a2,2,0,0,0-2,.86c0,.07-.1.1-.13.16h-2.8a1.56,1.56,0,0,1,.23-.28.32.32,0,0,0,0-.45.32.32,0,0,0-.43,0,1.68,1.68,0,0,0-.47.73h-.83a.32.32,0,0,0-.32.32.32.32,0,0,0,.32.32h.86a2.14,2.14,0,0,0,.1.22,1.91,1.91,0,0,0,2.38.51,3,3,0,0,0,1.21-.73h2.58a2.6,2.6,0,0,1-.51.76.3.3,0,0,0-.15.4.28.28,0,0,0,.28.17.23.23,0,0,0,.16,0A2.42,2.42,0,0,0,55,60.8h1.27a.33.33,0,0,0,.32-.32.25.25,0,0,0-.14-.32A.12.12,0,0,0,56.36,60.14Zm-2.7-.39c.48,0,.74.16.83.39h-2.1a1.6,1.6,0,0,1,1.27-.39ZM50.42,60.9c-.8.25-1.34.13-1.59-.16h1.94A1.58,1.58,0,0,1,50.42,60.9Z"/><g id="Groupe_1850" data-name="Groupe 1850"><g id="Groupe_1848" data-name="Groupe 1848"><path id="Tracé_8917" data-name="Tracé 8917" class="cls-4" d="M56.27,60.58H47.2a.31.31,0,0,1-.31-.32.32.32,0,0,1,.31-.32h9.07a.33.33,0,0,1,.32.32A.32.32,0,0,1,56.27,60.58Z"/></g><g id="Groupe_1849" data-name="Groupe 1849"><path id="Tracé_8918" data-name="Tracé 8918" class="cls-4" d="M54,61.88a.29.29,0,0,1-.3-.29.28.28,0,0,1,.17-.28c.16-.1.73-.86.6-1.33-.06-.26-.35-.39-.83-.42a1.45,1.45,0,0,0-1.49.64,3.35,3.35,0,0,1-1.56,1.08,1.93,1.93,0,0,1-2.39-.51,1.24,1.24,0,0,1,.35-1.56.35.35,0,0,1,.45,0,.32.32,0,0,1,0,.44h0c-.29.28-.39.57-.26.8s.8.54,1.66.25a2.45,2.45,0,0,0,1.27-.92,2.14,2.14,0,0,1,2-.86c1,.06,1.3.54,1.4.89a2.29,2.29,0,0,1-.89,2C54.11,61.88,54,61.88,54,61.88Z"/></g></g><path id="Tracé_8919" data-name="Tracé 8919" class="cls-5" d="M55.73,62.71c.47.1,4.2-1.21,3-2.83C58.91,60.68,57.92,61.88,55.73,62.71Z"/><path id="Tracé_8920" data-name="Tracé 8920" class="cls-5" d="M45.3,58.8c-1.5.48-2.2,1.81-.77,2.77C43.86,60.42,44.21,59.63,45.3,58.8Z"/></g><g id="Groupe_1855" data-name="Groupe 1855"><path id="Tracé_8921" data-name="Tracé 8921" class="cls-2" d="M90.08,44.55l-1.91.63c-1.53.77-1.81,4.36-.44,8.56s3.78,7,5.37,6.58l1.82-.47"/><path id="Tracé_8922" data-name="Tracé 8922" class="cls-3" d="M93.1,60.33l1.78-.48c-1.11-1.3-3.59-4.26-4.93-6a8.83,8.83,0,0,1-2,.48C89.35,58.23,91.61,60.68,93.1,60.33Z"/><path id="Tracé_8923" data-name="Tracé 8923" class="cls-4" d="M94.92,59.85c-1.69.54-4.14-2.45-5.5-6.65s-1.12-8.08.57-8.62,4.13,2.45,5.5,6.65S96.6,59.31,94.92,59.85Z"/><path id="Tracé_8924" data-name="Tracé 8924" class="cls-2" d="M94.79,58.42c-1.15.38-3-2.13-4.14-5.63s-1.08-6.59.07-7,3,2.13,4.13,5.63S95.93,58,94.79,58.42Z"/><path id="Tracé_8925" data-name="Tracé 8925" class="cls-3" d="M94.56,51.55c1.09,3.34,1.09,6.36.07,6.9a.32.32,0,0,0,.16,0c1.14-.38,1.17-3.5.06-7s-3-6-4.13-5.63a.26.26,0,0,0-.13.06C91.77,45.79,93.48,48.24,94.56,51.55Z"/><path id="Tracé_8926" data-name="Tracé 8926" class="cls-3" d="M94.28,56.89l-.35-1.18s.06,0,.1,0c.32-.19.67-.63.44-1.59a2,2,0,0,0-1.4-1.68l-.19-.1-.8-2.68a1.27,1.27,0,0,1,.32.13.29.29,0,0,0,.41-.1.29.29,0,0,0-.09-.41h0a1.44,1.44,0,0,0-.83-.22l-.25-.8h0a.32.32,0,0,0-.41-.18.3.3,0,0,0-.19.34l.25.82-.19.16a2,2,0,0,0,.19,2.45,3.12,3.12,0,0,0,1,1l.73,2.48a1.7,1.7,0,0,1-.86-.29.33.33,0,0,0-.44,0,.34.34,0,0,0-.07.29c0,.06,0,.1.11.12a2.64,2.64,0,0,0,1.49.45l.38,1.24h0a.34.34,0,0,0,.38.22A.39.39,0,0,0,94.28,56.89Zm-.42-2.67c.11.44.07.76-.12.89l-.6-2A1.45,1.45,0,0,1,93.86,54.22Zm-2-2.8a1.5,1.5,0,0,1-.32-1.56l.57,1.88a1.31,1.31,0,0,1-.25-.32Z"/><g id="Groupe_1854" data-name="Groupe 1854"><g id="Groupe_1852" data-name="Groupe 1852"><path id="Tracé_8927" data-name="Tracé 8927" class="cls-4" d="M93.83,57h0l-2.6-8.68a.29.29,0,0,1,.15-.39.3.3,0,0,1,.4.15.24.24,0,0,1,0,.08h0l2.61,8.68a.3.3,0,0,1-.16.37l-.07,0A.35.35,0,0,1,93.83,57Z"/></g><g id="Groupe_1853" data-name="Groupe 1853"><path id="Tracé_8928" data-name="Tracé 8928" class="cls-4" d="M91.89,55.14a.31.31,0,0,1,.21-.37.28.28,0,0,1,.3.09,1.89,1.89,0,0,0,1.47.19c.22-.13.25-.45.15-.93a1.49,1.49,0,0,0-1-1.27,3.15,3.15,0,0,1-1.49-1.18c-.73-1.05-.64-2-.19-2.44a1.23,1.23,0,0,1,1.59-.13.3.3,0,0,1-.32.51c-.35-.19-.64-.19-.83,0s-.28.92.26,1.65a2.37,2.37,0,0,0,1.24,1,2.12,2.12,0,0,1,1.4,1.68c.22,1-.13,1.4-.45,1.59A2.32,2.32,0,0,1,92,55.21S91.93,55.17,91.89,55.14Z"/></g></g><path id="Tracé_8929" data-name="Tracé 8929" class="cls-5" d="M91.64,57.05c0,.48,2.35,3.66,3.59,2.07C94.5,59.5,93.07,58.89,91.64,57.05Z"/><path id="Tracé_8930" data-name="Tracé 8930" class="cls-5" d="M92.37,45.89c-.89-1.31-2.39-1.59-2.9.06C90.4,45,91.26,45.09,92.37,45.89Z"/></g><g id="Groupe_1856" data-name="Groupe 1856"><circle id="Ellipse_41" data-name="Ellipse 41" class="cls-4" cx="74.05" cy="57.91" r="7.67"/><circle id="Ellipse_42" data-name="Ellipse 42" class="cls-2" cx="74.05" cy="57.91" r="6.11"/><path id="Tracé_8931" data-name="Tracé 8931" class="cls-3" d="M68.26,58.26a6.12,6.12,0,0,1,10.4-4.36,6.1,6.1,0,0,0-9.25,7.94,4.68,4.68,0,0,0,.38.39A5.87,5.87,0,0,1,68.26,58.26Z"/><path id="Tracé_8932" data-name="Tracé 8932" class="cls-3" d="M74.91,57.81h0V55.24a2.44,2.44,0,0,1,1,.25.31.31,0,0,0,.42-.12.31.31,0,0,0-.13-.42h0a3.35,3.35,0,0,0-1.24-.32V54a.33.33,0,0,0-.32-.32.32.32,0,0,0-.32.32v.7a2.2,2.2,0,0,0-1.46.7,1.37,1.37,0,0,0,0,1.75,3.43,3.43,0,0,0,1.46,1.15V60.8a4.08,4.08,0,0,1-1.72-.54.31.31,0,0,0-.44.45l0,0a4.6,4.6,0,0,0,2.1.67v.85a.32.32,0,0,0,.32.32.32.32,0,0,0,.32-.32v-.89a2.8,2.8,0,0,0,.5-.12,1.48,1.48,0,0,0,1-1.28C76.65,58.61,75.73,58.19,74.91,57.81Zm-1.59-1.08a.78.78,0,0,1,0-1,1.7,1.7,0,0,1,1-.47v2.25a2.14,2.14,0,0,1-1-.76Zm2.48,3.18a1,1,0,0,1-.92.86V58.51c.73.32,1.07.57.92,1.4Z"/><path id="Tracé_8933" data-name="Tracé 8933" class="cls-4" d="M74.68,57.62h0V55a2.63,2.63,0,0,1,1,.26.3.3,0,0,0,.41-.12.3.3,0,0,0-.12-.42h0a3.3,3.3,0,0,0-1.24-.32v-.67a.32.32,0,1,0-.63,0h0v.7a2.2,2.2,0,0,0-1.46.7,1.37,1.37,0,0,0,0,1.75,3.37,3.37,0,0,0,1.46,1.15v2.54a4,4,0,0,1-1.72-.54.32.32,0,0,0-.41.48,4.44,4.44,0,0,0,2.1.66v.86a.32.32,0,1,0,.63,0v-.89a2.71,2.71,0,0,0,.51-.12,1.48,1.48,0,0,0,1-1.28C76.47,58.38,75.51,58,74.68,57.62Zm-1.55-1.11a.78.78,0,0,1,0-1,1.78,1.78,0,0,1,1-.48V57.3a2.1,2.1,0,0,1-1-.79Zm2.48,3.18a1,1,0,0,1-.93.86V58.29c.74.32,1,.6.93,1.4Z"/><path id="Tracé_8934" data-name="Tracé 8934" class="cls-5" d="M67.66,54.79c.25-1.34,2.73-4,5.69-4.1C70.74,51.42,69.56,52.37,67.66,54.79Z"/><path id="Tracé_8935" data-name="Tracé 8935" class="cls-5" d="M80.89,60.07c0,1.37-1.94,4.26-4.87,4.77C78.47,63.7,79.36,62.71,80.89,60.07Z"/></g><g id="Groupe_1860" data-name="Groupe 1860"><path id="Tracé_8936" data-name="Tracé 8936" class="cls-2" d="M41,57.37l0,2c.29,1.68,3.66,3,8.08,2.89S56.87,60.67,57,59L57,57.18"/><path id="Tracé_8937" data-name="Tracé 8937" class="cls-3" d="M57,59.05,57,57.21c-1.56.67-5.12,2.23-7.12,3a9.61,9.61,0,0,1-.13,2.07C53.88,62,56.87,60.61,57,59.05Z"/><path id="Tracé_8938" data-name="Tracé 8938" class="cls-4" d="M57,57.18c0,1.74-3.53,3.24-8,3.34s-8-1.28-8.08-3,3.53-3.24,8-3.34S57,55.39,57,57.18Z"/><path id="Tracé_8939" data-name="Tracé 8939" class="cls-2" d="M55.63,56.89c0,1.21-2.92,2.26-6.58,2.32s-6.65-.86-6.65-2.07,2.93-2.25,6.58-2.32S55.6,55.68,55.63,56.89Z"/><path id="Tracé_8940" data-name="Tracé 8940" class="cls-3" d="M49,55.14c3.53-.06,6.4.8,6.65,1.94l0-.16c0-1.21-3-2.13-6.64-2.06S42.43,56,42.43,57.18a.24.24,0,0,0,0,.12C42.66,56.16,45.49,55.2,49,55.14Z"/><path id="Tracé_8941" data-name="Tracé 8941" class="cls-3" d="M54,57H52.77a.19.19,0,0,0,0-.1c-.1-.38-.42-.82-1.4-.89a2,2,0,0,0-2,.86c0,.07-.1.1-.13.16h-2.8a2,2,0,0,1,.22-.29.32.32,0,0,0,0-.44.3.3,0,0,0-.43,0h0a1.43,1.43,0,0,0-.45.73H45a.32.32,0,0,0,0,.64h.86a2.14,2.14,0,0,0,.1.22,1.91,1.91,0,0,0,2.38.51,3.12,3.12,0,0,0,1.21-.73h2.58a2.6,2.6,0,0,1-.51.76.3.3,0,0,0-.15.4.28.28,0,0,0,.28.17.2.2,0,0,0,.15,0,2.31,2.31,0,0,0,.86-1.3H54a.31.31,0,0,0,.31-.32.28.28,0,0,0-.22-.34Zm-2.67-.38c.47,0,.73.16.82.38h-2.1A1.35,1.35,0,0,1,51.34,56.57Zm-3.28,1.15c-.8.25-1.34.12-1.59-.16h1.94A2.21,2.21,0,0,1,48.06,57.72Z"/><g id="Groupe_1859" data-name="Groupe 1859"><g id="Groupe_1857" data-name="Groupe 1857"><path id="Tracé_8942" data-name="Tracé 8942" class="cls-4" d="M54,57.37H44.88a.33.33,0,0,1-.32-.32.32.32,0,0,1,.32-.32H54a.31.31,0,0,1,.31.32A.33.33,0,0,1,54,57.37Z"/></g><g id="Groupe_1858" data-name="Groupe 1858"><path id="Tracé_8943" data-name="Tracé 8943" class="cls-4" d="M51.66,58.7a.3.3,0,0,1-.31-.29.31.31,0,0,1,.18-.28c.16-.1.73-.86.6-1.34-.07-.25-.35-.38-.83-.41a1.45,1.45,0,0,0-1.49.64,3.4,3.4,0,0,1-1.56,1.08,1.92,1.92,0,0,1-2.39-.51A1.24,1.24,0,0,1,46.21,56a.35.35,0,0,1,.45,0,.31.31,0,0,1,0,.44h0c-.28.28-.38.57-.25.8s.8.54,1.65.25a2.43,2.43,0,0,0,1.28-.92,2.13,2.13,0,0,1,2-.86c1,.06,1.3.54,1.4.89a2.31,2.31,0,0,1-.89,2A.22.22,0,0,1,51.66,58.7Z"/></g></g><path id="Tracé_8944" data-name="Tracé 8944" class="cls-5" d="M53.4,59.5c.48.1,4.2-1.21,3-2.83C56.59,57.5,55.6,58.7,53.4,59.5Z"/><path id="Tracé_8945" data-name="Tracé 8945" class="cls-5" d="M42.94,55.59c-1.49.47-2.19,1.81-.76,2.76C41.51,57.21,41.86,56.44,42.94,55.59Z"/></g><path id="Tracé_8946" data-name="Tracé 8946" class="cls-1" d="M76.15,22.41a3,3,0,0,0-2.51,2.51,3,3,0,0,0-2.52-2.51,3,3,0,0,0,2.52-2.51A3,3,0,0,0,76.15,22.41Z"/><path id="Tracé_8947" data-name="Tracé 8947" class="cls-1" d="M59.48,40.89a2.87,2.87,0,0,0-2.35,2.39,2.88,2.88,0,0,0-2.39-2.36,2.86,2.86,0,0,0,2.35-2.35A2.92,2.92,0,0,0,59.48,40.89Z"/><path id="Tracé_8948" data-name="Tracé 8948" class="cls-1" d="M76.69,26.26a1.67,1.67,0,0,0-1.34,1.34A1.69,1.69,0,0,0,74,26.26a1.65,1.65,0,0,0,1.33-1.34A1.55,1.55,0,0,0,76.69,26.26Z"/><path id="Tracé_8949" data-name="Tracé 8949" class="cls-1" d="M88.65,39.14a1.68,1.68,0,0,0-1.34,1.34A1.66,1.66,0,0,0,86,39.14a1.64,1.64,0,0,0,1.33-1.33A1.55,1.55,0,0,0,88.65,39.14Z"/></g><g id="moins_de" data-name="moins de" class="cls-6"><text class="cls-7" transform="translate(47.44 90)">moins </text><text class="cls-7" transform="translate(42.04 109)">de 10 €</text></g></g></svg>