<svg id="Calque_1" data-name="Calque 1" xmlns="http://www.w3.org/2000/svg" viewBox="0 0 42.57 41.57"><defs><style>.cls-1{fill:#575d90;}.cls-2{fill:#949acb;}.cls-3{fill:#32365f;}.cls-4{fill:#565e9e;}.cls-5{fill:#fcc62d;}.cls-6{fill:#e4af18;}.cls-7{fill:#ce9912;}.cls-8{fill:#ffd949;}.cls-9{fill:#f0c41b;}</style></defs><title>app-icon</title><g id="Groupe_1872" data-name="Groupe 1872"><g id="Groupe_1869" data-name="Groupe 1869"><g id="restaurant-2"><circle id="Ellipse_5-2" data-name="Ellipse 5-2" class="cls-1" cx="21.24" cy="20.76" r="20.5"/><circle id="Ellipse_6-2" data-name="Ellipse 6-2" class="cls-2" cx="21.14" cy="20.66" r="13.8"/><path id="Tracé_533-2" data-name="Tracé 533-2" class="cls-3" d="M10.24,20.66A20.42,20.42,0,0,1,25.84.86a20.35,20.35,0,1,0-9.4,39.6,21.3,21.3,0,0,0,9.4,0A20.32,20.32,0,0,1,10.24,20.66Z"/><path id="Tracé_534-2" data-name="Tracé 534-2" class="cls-4" d="M14,32.46a20.27,20.27,0,0,1,0-23.7,13.79,13.79,0,0,0,0,23.7Z"/></g><path class="cls-5" d="M29.74,21.36v.4c0,2.4-4,4.3-9,4.3a14.3,14.3,0,0,1-6.8-1.5c.6,2.2,4.3,3.9,8.9,3.9,5,0,9-2.1,9-4.5a3.51,3.51,0,0,0-2.1-2.6"/><path class="cls-6" d="M22.84,28.56c-5,0-9-2.1-9-4.5V27c0,2.4,4,4.3,9,4.3s9-1.9,9-4.3v-2.9c-.1,2.4-4.1,4.5-9,4.5"/><path class="cls-7" d="M14.84,29a1.84,1.84,0,0,0,.7.5v-2.9c-.2-.2-.5-.4-.7-.6Z"/><path class="cls-7" d="M30,26.66v2.9c.2-.2.5-.3.7-.5v-2.9a4.25,4.25,0,0,1-.7.5"/><path class="cls-7" d="M16.24,30a4.34,4.34,0,0,0,.7.3v-2.8c-.2-.1-.5-.2-.7-.3Z"/><path class="cls-7" d="M28.64,30.26c.2-.1.5-.2.7-.3v-2.9a4.76,4.76,0,0,1-.7.3Z"/><path class="cls-7" d="M17.64,30.46c.2.1.5.1.7.2v-2.8c-.2-.1-.5-.1-.7-.2Z"/><path class="cls-7" d="M27.34,30.76c.2-.1.5-.1.7-.2v-2.8a1.94,1.94,0,0,1-.7.2Z"/><path class="cls-7" d="M19.34,31c.2,0,.5.1.7.1v-2.8c-.2,0-.5-.1-.7-.1Z"/><path class="cls-7" d="M25.54,31.06c.2,0,.5-.1.7-.1v-2.8c-.2,0-.5.1-.7.1Z"/><path class="cls-7" d="M21.44,31.26h.7v-2.8h-.7Z"/><path class="cls-7" d="M23.54,31.26h.7v-2.8h-.7Z"/><path class="cls-6" d="M20.74,23.36c-4.9,0-9-2.1-9-4.5v2.9c0,2.4,4,4.3,9,4.3s9-1.9,9-4.3v-2.9c0,2.4-4,4.5-9,4.5"/><path class="cls-7" d="M12.84,23.86a1.84,1.84,0,0,0,.7.5v-2.9c-.2-.2-.5-.4-.7-.6Z"/><path class="cls-7" d="M27.94,21.46v2.9c.2-.2.5-.3.7-.5V21a1.84,1.84,0,0,1-.7.5"/><path class="cls-7" d="M14.24,24.76a4.34,4.34,0,0,0,.7.3v-2.8c-.2-.1-.5-.2-.7-.3Z"/><path class="cls-7" d="M26.64,25.06c.2-.1.5-.2.7-.3V22a4.76,4.76,0,0,1-.7.3Z"/><path class="cls-7" d="M15.54,25.36c.2.1.5.1.7.2v-2.8c-.2-.1-.5-.1-.7-.2Z"/><path class="cls-7" d="M25.24,25.56c.2-.1.5-.1.7-.2v-2.8a1.94,1.94,0,0,1-.7.2Z"/><path class="cls-7" d="M17.34,25.76c.2,0,.5.1.7.1v-2.8c-.2,0-.5-.1-.7-.1Z"/><path class="cls-7" d="M23.54,26c.2,0,.5-.1.7-.1v-2.8c-.2,0-.5.1-.7.1Z"/><path class="cls-7" d="M19.34,26.06H20v-2.8h-.7Z"/><path class="cls-7" d="M21.44,26.16h.7v-2.8h-.7Z"/><path class="cls-8" d="M29.44,22.76c-.9,1.9-4.4,3.3-8.7,3.3a21.66,21.66,0,0,1-4.4-.5,12.14,12.14,0,0,0,6.4,1.6c4.7,0,7.6-1.8,7.6-3.1a1.57,1.57,0,0,0-.9-1.3"/><path class="cls-8" d="M22.44,22.66c-5,0-9-1.9-9-4.3v-1.9a3,3,0,0,0-1.7,2.5c0,2.4,4,4.5,9,4.5a15.06,15.06,0,0,0,6.2-1.3,22.72,22.72,0,0,1-4.5.5"/><path class="cls-6" d="M22.44,19.86c-4.9,0-9-2.1-9-4.5v2.9c0,2.4,4,4.3,9,4.3s9-1.9,9-4.3v-2.9c0,2.5-4,4.5-9,4.5"/><path class="cls-7" d="M14.54,20.36a1.84,1.84,0,0,0,.7.5v-2.8c-.2-.2-.5-.4-.7-.6Z"/><path class="cls-7" d="M29.74,18.06V21c.2-.2.5-.3.7-.5v-2.9a1.84,1.84,0,0,0-.7.5"/><path class="cls-7" d="M15.94,21.26a4.34,4.34,0,0,0,.7.3v-2.8c-.2-.1-.5-.2-.7-.3Z"/><path class="cls-7" d="M28.34,21.66c.2-.1.5-.2.7-.3v-2.8a4.76,4.76,0,0,1-.7.3Z"/><path class="cls-7" d="M17.34,21.86c.2.1.5.1.7.2v-2.8c-.2-.1-.5-.1-.7-.2Z"/><path class="cls-7" d="M26.94,22.06c.2-.1.5-.1.7-.2v-2.8a1.94,1.94,0,0,1-.7.2Z"/><path class="cls-7" d="M19,22.36c.2,0,.5.1.7.1v-2.8c-.2,0-.5-.1-.7-.1Z"/><path class="cls-7" d="M25.24,22.46c.2,0,.5-.1.7-.1v-2.8c-.2,0-.5.1-.7.1Z"/><path class="cls-7" d="M21,22.66h.7v-2.8H21Z"/><path class="cls-7" d="M23.14,22.66h.7v-2.8h-.7Z"/><path class="cls-5" d="M31.44,15.46c0,2.4-4,4.5-9,4.5s-9-2.1-9-4.5,4-4.1,9-4.1,9,1.7,9,4.1"/><path class="cls-8" d="M22.44,18.56c-4.7,0-7.6-1.8-7.6-3.1s2.9-3.1,7.6-3.1,7.6,1.8,7.6,3.1-2.9,3.1-7.6,3.1"/><path class="cls-9" d="M24.84,15.86c.3-.1.4-.2.4-.4l-.1-.2a.56.56,0,0,0-.5-.3c-.3-.7-1.1-.9-2.3-.9h-.2A3.7,3.7,0,0,1,21,14c-.1,0-.2-.1-.3-.1h-.1v.2c0,.3,0,.2-.3.5a.8.8,0,0,0-.3.5.65.65,0,0,0-.5.4l-.1.2c-.1.2.1.4.4.4a1.49,1.49,0,0,0,1.2,1.2v.4a.22.22,0,0,1-.2.2l-1.5.6a15.15,15.15,0,0,0,6,0l-1.5-.6a.21.21,0,0,1-.2-.2v-.4a2.38,2.38,0,0,0,1.2-1.4"/></g></g></svg>