<svg id="Calque_1" data-name="Calque 1" xmlns="http://www.w3.org/2000/svg" xmlns:xlink="http://www.w3.org/1999/xlink" viewBox="0 0 147 110"><defs><style>.cls-1{fill:none;}.cls-2{fill:#fff;}.cls-3{clip-path:url(#clip-path);}.cls-4{fill:#aab3b8;opacity:0.3;}.cls-12,.cls-16,.cls-17,.cls-4{isolation:isolate;}.cls-5{fill:#f19e28;}.cls-6{fill:#ffe084;}.cls-7{fill:#e25e07;}.cls-8{fill:#b72916;}.cls-9{fill:#d9be70;}.cls-10{fill:#fdf4dc;}.cls-11{fill:#402c1b;}.cls-12,.cls-13{fill:#f2ddc6;}.cls-12{opacity:0.5;}.cls-14{fill:#4a7006;}.cls-15{fill:#7eb023;}.cls-17{font-size:22px;font-family:SofiaProSemiBold, Sofia Pro;}.cls-18{letter-spacing:-0.01em;}</style><clipPath id="clip-path"><rect class="cls-1" width="147" height="110" rx="6"/></clipPath></defs><title>app-icon</title><g id="Groupe_1706" data-name="Groupe 1706"><path id="Tracé_9020-2" data-name="Tracé 9020-2" class="cls-2" d="M6,0H141a6,6,0,0,1,6,6v98a6,6,0,0,1-6,6H6a6,6,0,0,1-6-6V6A6,6,0,0,1,6,0Z"/><g class="cls-3"><g id="Groupe_de_masques_1" data-name="Groupe de masques 1"><g id="Groupe_502" data-name="Groupe 502"><g id="Groupe_462" data-name="Groupe 462"><path id="Tracé_2519" data-name="Tracé 2519" class="cls-4" d="M88.43,82.14c7.78-7.75,5.81-22.35-4.41-32.61S59.2,37.23,51.42,45,45.61,67.33,55.83,77.6,80.64,89.9,88.43,82.14Z"/><path id="Tracé_2520" data-name="Tracé 2520" class="cls-4" d="M114.46,88.66c4.11-7.81-12.26-10.28-33.28-13.57-5.66-.88-27.4,4.62-28.56,13.37-.24,1.8-.7,11.89,18.69,20.68C81.69,113.84,112.64,92.13,114.46,88.66Z"/><path id="Tracé_2521" data-name="Tracé 2521" class="cls-4" d="M56.16,101.92c3.49-1.25-23.74-29.68-41.35-41.62-4.74-3.21-13.58,7-18.36,14.39-1,1.54-5.71,10.46,8.07,26.68C11.91,110.06,52.47,103.24,56.16,101.92Z"/></g><g id="Groupe_492" data-name="Groupe 492"><path id="Tracé_2522" data-name="Tracé 2522" class="cls-5" d="M77.73,44.87c-8.36-9-22.84-11.54-34.46-12.72C18.39,29.64-57,27.49-45.89,70.41-40,93.14-9.65,100.89,10.37,103.18c11,1.25,22,1.32,32.74-1.2,1.83-.43,3.77-1,5.75-1.59a2.69,2.69,0,0,0,2.27-1.58,3.79,3.79,0,0,0,.07-3.9c-1.53-3-5-2.83-7.41-1.27-1.36-1.7-2.71-3.4-4-5.14C36,83.5,32.51,78,28,73.63a33.51,33.51,0,0,1-5.66-6.23,4.91,4.91,0,0,0,2,0c3.16.86,6.64.83,9.78,2,2.29.87,5.06.79,7.43.92,4.4.25,8.82,1.73,13.12,2.57,6.66,1.3,13.06,3.9,19.77,5.18,2.93.56,5.27.92,7-1.52C87.06,66.25,86.09,53.88,77.73,44.87Zm2,30c-2.54,3.22-14.51-1.31-17.77-2.33A136.24,136.24,0,0,0,45.5,68.78c-5-.89-9.9-1.06-14.81-2.3a20.74,20.74,0,0,0-7.48-.64l-.27-.08c-.56-.19-1.12-.33-1.69-.47a.77.77,0,0,1,0-.15.46.46,0,0,1,0-.65.48.48,0,0,1,.32-.15c5.1-.7,11.54,2,16.59,2.84,8.08,1.39,16.2,2.62,24.22,4.4,4.06.9,8.17,1.9,12.27,3a4.89,4.89,0,0,1,3.19-1.71,3.26,3.26,0,0,1,2.56,1.28,3.46,3.46,0,0,1,.29.45.77.77,0,0,0-.93.24Z"/><path id="Tracé_2523" data-name="Tracé 2523" class="cls-6" d="M79.72,72.73a0,0,0,0,1,0,0,25.15,25.15,0,0,0-4.39-28.28C67.24,35.74,53.12,33.3,41.72,32.14,37.56,31.72,29,31,18.45,31,.52,31-31.28,33.22-42.69,48c-4.29,5.53-5.38,12.5-3.26,20.71C-39.84,92.31-5.4,98.74,9.13,100.4a121.58,121.58,0,0,0,13.76.84h0a80,80,0,0,0,18.5-2c1.4-.33,3.37-.84,5.67-1.57l0,0a14.2,14.2,0,0,0,1.9-.76c1.19-.52,2.21-1.45,1.78-2.86s-2.26-1.65-3.55-1.57a7.1,7.1,0,0,0-3.85,1.11,57.5,57.5,0,0,1-11.08,2.34,89.58,89.58,0,0,1-9.55.51,119.92,119.92,0,0,1-29-3.87C-22.74,88.4-33.45,81.9-39.09,72.66S-42.62,53-34.18,46.91c13.73-9.86,33.56-11.13,49.3-11.13,4.69,0,9.13.12,13.43.24,8.15.22,18.87.87,29.47,3.93,8.2,2.38,14.12,6.46,17.6,12.13,3.66,6,3.55,13.37-.27,20.89-4,.36-10-2.39-13.54-3.36a128.29,128.29,0,0,0-16.59-3.36c-5.52-.76-11-1.48-16.53-2.35-2.7-.43-5-1.52-7.8-1.13-2.41.34-1.38,4,1,3.65,3.6-.5,9.14,1.7,12.67,2.37,5.7,1.07,11.52,1.34,17.24,2.36,5.22.93,10.32,2.55,15.42,4a36.18,36.18,0,0,0,6.25,1.48,1.83,1.83,0,0,0,.48.25c.15.05,5.21,2.65,7-1.64C81.22,74.48,80.71,72.87,79.72,72.73Z"/><path id="Tracé_2524" data-name="Tracé 2524" class="cls-7" d="M71.88,70c-.86.69-9.6-2.12-10.78-2.3-4.23-.64-8.41-1.49-12.67-2-5.48-.61-10.79-1.82-16.22-2.7-3.8-.61-7.58-1.74-11.33-.63a1.2,1.2,0,0,0,0,2.3A128.49,128.49,0,0,0,48.43,70a143.57,143.57,0,0,1,18.42,3.3c2.44.56,4.87,1.66,7.32.65a2.33,2.33,0,0,0-1.45-4.43A2.3,2.3,0,0,0,71.88,70Z"/><path id="Tracé_2525" data-name="Tracé 2525" class="cls-7" d="M75.84,54.21C72.08,48.09,65.78,44.64,59,42.69c-9.5-2.76-19.27-3.62-29.11-3.88C10.56,38.28-15.45,37.58-32,49.43c-7.9,5.68-9.66,15.49-4.53,23.89,6.65,10.9,20,16.26,31.89,19.24,12.28,3.09,25.41,4.71,38.07,3.33a56.56,56.56,0,0,0,10.39-2.15C42.47,92,41.1,90.27,39.78,88.5,36,83.5,32.52,78,28,73.63c-2.65-2.52-5.26-4.79-6.7-8.2a.57.57,0,0,1,0-.29.46.46,0,0,1,0-.66.45.45,0,0,1,.31-.14c5.1-.7,11.55,2,16.59,2.84,8.09,1.39,16.21,2.61,24.23,4.39,4,.89,8.08,1.88,12.14,3l.13-.11A2.27,2.27,0,0,1,75.4,74C78.61,67.77,79.72,60.53,75.84,54.21Z"/><g id="Groupe_463" data-name="Groupe 463"><path id="Tracé_2526" data-name="Tracé 2526" class="cls-8" d="M72.29,60.87a13.33,13.33,0,0,0-.54-3.13A19.18,19.18,0,0,0,70,53.55c-1.25-2.29-4-4.9-6.75-3.22a2.06,2.06,0,0,0-.42.35A6.8,6.8,0,0,1,62.46,49a3.47,3.47,0,0,0-3.56-3.38,3.58,3.58,0,0,0-1.46.37,11.19,11.19,0,0,0-4.22-2.11,5.38,5.38,0,0,0-4.38.73,3.71,3.71,0,0,0-.58.54,3,3,0,0,0-2.68-.39c-.82.33-5,2.42-5.5.53-.63-2.74-3.92-3.13-5.81-1.54a2.28,2.28,0,0,1-.57.36L33.56,44c-.27-.24-.4-.36-.47-.41a2.74,2.74,0,0,1-.15-.4c-.11-.44-.17-.91-.26-1.36-.4-2-2.93-2.33-4.25-1.13a6,6,0,0,0-2,2.73C21.27,38.81,12.57,39.72,5.38,41a12.52,12.52,0,0,0-4.52.87l-.11,0v0c-.2.08-.41.14-.62.24a2.11,2.11,0,0,0-1.3,1.66,22.9,22.9,0,0,0-9.43.37,2.64,2.64,0,0,0-3.19-.62A6.2,6.2,0,0,0-16.11,45a2.65,2.65,0,0,0-1.09,2.75,9,9,0,0,1-1.59,1.07,3.15,3.15,0,0,0-.56.26A15.87,15.87,0,0,1-25,50.19a2.79,2.79,0,0,0-1.26.4,2.48,2.48,0,0,0-2,.26,23.83,23.83,0,0,0-6.54,5.58,3.29,3.29,0,0,0-.13,4.41c-3.73,2.46-1.64,8.73-.31,12.17a3,3,0,0,0,3.55,2,7.79,7.79,0,0,1,3.08,0,6.34,6.34,0,0,0,2.45,2.73A10.36,10.36,0,0,0-22,79a5.53,5.53,0,0,0-1.62,1.14A2,2,0,0,0-23.62,83a2,2,0,0,0,1.36.56,2.71,2.71,0,0,1,.4,0h.1l.16,0a6.85,6.85,0,0,0,1.69.08,4.89,4.89,0,0,0,2-.5,2.47,2.47,0,0,0,.65-.6c2.67,2.38,5.35,4.6,8.17,5.48,1.68.53,3.68,0,5.35-.29,3.05-.57,4.26,1.26,7,2.42,3.54,1.48,10.29-2.5,12.37-.09a2.87,2.87,0,0,0,3.59.37,1,1,0,0,0,.49.4c2.11.82,3.86,2.47,6.11,3a2.5,2.5,0,0,0,2.9-2,2.59,2.59,0,0,0,0-.48,1.87,1.87,0,0,0,.77-.56c.18-.23.9-1,.33-.4l.19-.23a1.21,1.21,0,0,0,.59-.77c0-.1,0-.21.07-.31l.37.11a8.29,8.29,0,0,0,3.93.11,3.19,3.19,0,0,0,.51,1.32,1.38,1.38,0,0,0,1.85.48,1.9,1.9,0,0,0,.43-.21,4.6,4.6,0,0,0,.46-.33l.47-.3a4,4,0,0,0,.7-.06c-1.06.18.07,0,.43-.07a2.34,2.34,0,0,0,.8-.37c-.31-.4-.63-.81-.93-1.22-3.06-4.09-6-8.53-9.42-12.38a3,3,0,0,0,.47,4c-.28.06-.55.14-.82.21-.57-1-.9-2.28-1.4-3.3a6.26,6.26,0,0,0-5.37-3.15,16.52,16.52,0,0,0-4.57.77,2.57,2.57,0,0,0-.83-1.22c.17-.08.33-.18.5-.28a2.32,2.32,0,0,0,1.08.77,4.26,4.26,0,0,0,2.24,0,2.54,2.54,0,0,0,.46-.17l.37-.15a1.82,1.82,0,0,0,.86-1.44,2.21,2.21,0,0,0-.92-1.88c.4-.35.78-.71,1.15-1.09a15.2,15.2,0,0,1-2.32-3.74.7.7,0,0,1,0-.29.46.46,0,0,1,0-.65.42.42,0,0,1,.31-.15c5.1-.7,11.55,2,16.59,2.84l4.2.71a5.77,5.77,0,0,0-1.24-5,63.42,63.42,0,0,1,6.8,2.21,2.37,2.37,0,0,0,1,.49A13.08,13.08,0,0,1,51.12,67c-.78.64-1.55,1.31-2.38,2l0,0c4.55.78,9.1,1.6,13.62,2.6q3.88.87,7.82,1.85a23.54,23.54,0,0,0,6-8C77.34,62.84,74.67,59.81,72.29,60.87ZM-28.47,68.69a4.62,4.62,0,0,0-.35.55,13.55,13.55,0,0,0-1.8-.07,1.34,1.34,0,0,0-.07-.18c-.46-1.15-2.67-3.4-.35-2.38a9.21,9.21,0,0,0,3.95.62A10,10,0,0,0-28.47,68.69Zm4-7.3a15.31,15.31,0,0,1-2.79.08A30.92,30.92,0,0,0-23,59.55a21.78,21.78,0,0,0-1.49,1.84ZM13,49.66a6.51,6.51,0,0,1,1.1,1.55,34.14,34.14,0,0,0-2.45,2.52,34.5,34.5,0,0,0-6.55-3.47A74.59,74.59,0,0,1,13,49.66ZM-.71,58.21l0-.11a3.41,3.41,0,0,0,.18-.48A4,4,0,0,1,.83,60a4.34,4.34,0,0,0-1.48-.55,10.32,10.32,0,0,0-1.24-.08A2.44,2.44,0,0,0-.71,58.21Zm-9.22-4.44c.68.15,1.4.32,2.13.51a2.69,2.69,0,0,0,1.17,3.08,3,3,0,0,0,.75.35,2.69,2.69,0,0,0,1.23,1.54,3.49,3.49,0,0,0,.34.15c-1.65.06-3.3,0-4.45-.73-.3-.29-.6-.59-.88-.9a3.47,3.47,0,0,0-.55-.6c-.3-.35-.61-.72-.91-1.09a14.31,14.31,0,0,0,1.17-2.31ZM-16.58,70.3c.62-1.74.2-3.91-1.56-4.65a40.05,40.05,0,0,0,5.51-2.78,8.8,8.8,0,0,0,2.14,1.43l.68.54c-1.63,1.25-3.18,2.62-4.73,3.91C-15.2,69.3-15.88,69.81-16.58,70.3Zm7.23,11.52a21.38,21.38,0,0,1-3.82-2.34l1.05-.23h0c-.42.08-.13.13.13.13l.33.37c1.47,1.72,4,.83,5-.77a3,3,0,0,0,.72,1.61,2.48,2.48,0,0,0,3.3.37,6.57,6.57,0,0,0,.93.44C-4.25,81.33-6.41,83.18-9.35,81.82Zm18.58-.76c-1.81-.82-2.89-1.72-3.27-2.7a9.46,9.46,0,0,0,.79-1.92l.77-.13c-.48,1.62.2,3.7,2.06,4l.64.1c-.33.22-.65.45-1,.64Zm-8-10.53c-2.69.56-6.75,2.74-6.73,5.94a3.11,3.11,0,0,0-.28.23,2.43,2.43,0,0,0-.41.44A2.53,2.53,0,0,0-6.75,76a6.37,6.37,0,0,0-2.81-2.16C-6.1,71-1.54,67.25-1.1,68c1.06,1.7,4,2.54,5.44.7,2.29-3,3.31-5.59,3.41-7.91a2.23,2.23,0,0,0,.3.2l.16.06a6.7,6.7,0,0,0,.07,1.1c.61,4,3.31,5,6.56,4.77-3.94,2-8.59,2.59-13.66,3.65ZM18,83A9.71,9.71,0,0,1,19.44,82h0a15.36,15.36,0,0,1-1.93,2.18c-.16-.09-.32-.18-.49-.26C17.35,83.61,17.7,83.32,18,83Zm6.64-25.66A36.93,36.93,0,0,0,19.15,59a6.5,6.5,0,0,0,1.36-4.45c.8-.75,1.61-1.5,2.4-2.26.05.33.11.64.17.93a3.47,3.47,0,0,0,2.69,2.51c.08.54.17,1.09.26,1.6a3.83,3.83,0,0,0-1.35,0Zm12,3.24a4.88,4.88,0,0,1-2.38-1,2.38,2.38,0,0,0,.63-1.38,2.29,2.29,0,0,0,.54.38,2,2,0,0,0,.66.21,3.19,3.19,0,0,0,.57,1.74Zm1-6.34-.09-.06a1.9,1.9,0,0,0-2.65,0A2.17,2.17,0,0,0,34,56a2.47,2.47,0,0,0-.63-.53A1.64,1.64,0,0,0,33,55.3a28.21,28.21,0,0,1-.2-3,4.91,4.91,0,0,0-.12-1,9.65,9.65,0,0,0,1.08-.05,7.65,7.65,0,0,0,1.56-.29,6.44,6.44,0,0,0,3.42,1.78,10,10,0,0,0-1.08,1.58ZM52.39,58.4a8.67,8.67,0,0,0-.8,1.11c-.78-.37-1.59-.72-2.42-1,.57-.28,1.15-.55,1.71-.85.54.19,1.08.41,1.64.65l-.13.12Zm-2.7-8c.09-.78.17-1.56.23-2.34V48a4.58,4.58,0,0,1,2.75.64l-3,1.75ZM56,61.6a2.28,2.28,0,0,0,.18-.63,5.14,5.14,0,0,0,.08-.88l1.32.73A2.11,2.11,0,0,0,56,61.6Zm5.41,7.86a3.36,3.36,0,0,0-2-3.45,2.21,2.21,0,0,0,.51-.86A4.19,4.19,0,0,0,59.55,62c2.56,1.5,4.8,2.89,6.12,3.47a4,4,0,0,0,.74.23,47.61,47.61,0,0,0-5,3.79Z"/></g><g id="Groupe_464" data-name="Groupe 464"><path id="Tracé_2527" data-name="Tracé 2527" class="cls-9" d="M52.37,48c.22,1.48-2.7,3.14-6.52,3.7s-7.09-.18-7.31-1.66,2.7-3.15,6.52-3.71S52.15,46.53,52.37,48Z"/><path id="Tracé_2528" data-name="Tracé 2528" class="cls-10" d="M38.56,49.88a12,12,0,0,0,6,.38c3.66-.53,6.47-2.09,6.5-3.52a12,12,0,0,0-6-.39C41.39,46.89,38.59,48.44,38.56,49.88Z"/></g><g id="Groupe_465" data-name="Groupe 465"><path id="Tracé_2529" data-name="Tracé 2529" class="cls-9" d="M5.61,48.38c-.05,1.23-2.66,2.14-5.83,2S-5.93,49.18-5.89,48s2.66-2.14,5.83-2S5.65,47.15,5.61,48.38Z"/><path id="Tracé_2530" data-name="Tracé 2530" class="cls-10" d="M-5.85,47.81A10.1,10.1,0,0,0-1,49c3.05.11,5.56-.72,5.79-1.88a10,10,0,0,0-4.8-1.22C-3.11,45.82-5.61,46.65-5.85,47.81Z"/></g><g id="Groupe_466" data-name="Groupe 466"><path id="Tracé_2531" data-name="Tracé 2531" class="cls-9" d="M2,78.06c-.07,1.26-2.72,2.14-5.95,2s-5.78-1.3-5.72-2.55,2.72-2.15,5.94-2S2,76.81,2,78.06Z"/><path id="Tracé_2532" data-name="Tracé 2532" class="cls-10" d="M-9.66,77.35A10,10,0,0,0-4.8,78.64c3.1.15,5.64-.66,5.9-1.83a10,10,0,0,0-4.86-1.29C-6.85,75.36-9.41,76.18-9.66,77.35Z"/></g><g id="Groupe_469" data-name="Groupe 469"><path id="Tracé_2537" data-name="Tracé 2537" class="cls-9" d="M1.48,62.62c.05,1.27-2.55,2.41-5.82,2.55s-6-.77-6-2,2.55-2.42,5.82-2.56S1.42,61.35,1.48,62.62Z"/><path id="Tracé_2538" data-name="Tracé 2538" class="cls-10" d="M-10.33,63a10.24,10.24,0,0,0,5,.86c3.14-.14,5.64-1.2,5.79-2.4a10.24,10.24,0,0,0-5-.86C-7.68,60.71-10.18,61.76-10.33,63Z"/></g><g id="Groupe_470" data-name="Groupe 470"><path id="Tracé_2539" data-name="Tracé 2539" class="cls-9" d="M22,75.1c0,1.56-3.24,2.81-7.24,2.8s-7.23-1.27-7.23-2.82,3.24-2.81,7.24-2.8S22,73.54,22,75.1Z"/><path id="Tracé_2540" data-name="Tracé 2540" class="cls-10" d="M7.62,74.9a12.45,12.45,0,0,0,6.09,1.31c3.83,0,7-1.15,7.2-2.62a12.62,12.62,0,0,0-6.09-1.31C11,72.27,7.86,73.43,7.62,74.9Z"/></g><g id="Groupe_471" data-name="Groupe 471"><path id="Tracé_2541" data-name="Tracé 2541" class="cls-9" d="M47.54,62.21c.22,1.51-2.76,3.2-6.65,3.76s-7.23-.2-7.45-1.72,2.76-3.2,6.65-3.76S47.32,60.69,47.54,62.21Z"/><path id="Tracé_2542" data-name="Tracé 2542" class="cls-10" d="M33.46,64.07a12.34,12.34,0,0,0,6.12.41c3.74-.54,6.6-2.12,6.63-3.58a12.34,12.34,0,0,0-6.12-.41C36.35,61,33.49,62.6,33.46,64.07Z"/></g><g id="Groupe_472" data-name="Groupe 472"><path id="Tracé_2543" data-name="Tracé 2543" class="cls-9" d="M69.72,55.19c.14,1.2-2.26,2.47-5.36,2.83s-5.72-.33-5.85-1.53,2.25-2.47,5.35-2.83S69.58,54,69.72,55.19Z"/><path id="Tracé_2544" data-name="Tracé 2544" class="cls-10" d="M58.52,56.34a9.85,9.85,0,0,0,4.84.47c3-.35,5.28-1.53,5.34-2.69a9.72,9.72,0,0,0-4.84-.46C60.88,54,58.58,55.18,58.52,56.34Z"/></g><g id="Groupe_473" data-name="Groupe 473"><path id="Tracé_2545" data-name="Tracé 2545" class="cls-9" d="M30,60.58c.1,1.19-2.3,2.35-5.35,2.6s-5.6-.51-5.7-1.7,2.3-2.35,5.35-2.6S30,59.4,30,60.58Z"/><path id="Tracé_2546" data-name="Tracé 2546" class="cls-10" d="M19,61.34a9.56,9.56,0,0,0,4.73.62c2.93-.24,5.24-1.32,5.33-2.46a9.58,9.58,0,0,0-4.74-.61C21.42,59.12,19.11,60.2,19,61.34Z"/></g><g id="Groupe_474" data-name="Groupe 474"><path id="Tracé_2547" data-name="Tracé 2547" class="cls-9" d="M35.47,86.86c-.24,1.48-3.52,2.19-7.33,1.57s-6.71-2.31-6.47-3.79,3.52-2.18,7.33-1.57S35.71,85.38,35.47,86.86Z"/><path id="Tracé_2548" data-name="Tracé 2548" class="cls-10" d="M21.74,84.48a12.06,12.06,0,0,0,5.62,2.17c3.65.59,6.8,0,7.25-1.4A12.11,12.11,0,0,0,29,83.07C25.34,82.48,22.21,83.11,21.74,84.48Z"/></g><g id="Groupe_475" data-name="Groupe 475"><path id="Tracé_2549" data-name="Tracé 2549" class="cls-9" d="M66.3,65.56c.12,1.43-2.76,2.84-6.43,3.15s-6.75-.59-6.87-2,2.75-2.83,6.43-3.14S66.18,64.14,66.3,65.56Z"/><path id="Tracé_2550" data-name="Tracé 2550" class="cls-10" d="M53,66.53a11.67,11.67,0,0,0,5.7.72c3.52-.3,6.29-1.61,6.4-3a11.44,11.44,0,0,0-5.7-.72C55.9,63.84,53.14,65.16,53,66.53Z"/></g><g id="Groupe_476" data-name="Groupe 476"><path id="Tracé_2551" data-name="Tracé 2551" class="cls-11" d="M20.73,46.38c0,2.29-2.65,4.15-5.92,4.15s-5.93-1.86-5.93-4.15,2.65-4.16,5.93-4.16S20.73,44.08,20.73,46.38Z"/><path id="Tracé_2552" data-name="Tracé 2552" class="cls-12" d="M15.61,44.66c0-.18-.1-.36-.15-.56-.07-.4-.23-.81-.35-1.24l-.3,0a6.05,6.05,0,0,0-3.88,1.29c.64.45,1.27.91,1.93,1.35A4.66,4.66,0,0,1,15.61,44.66Z"/><path id="Tracé_2553" data-name="Tracé 2553" class="cls-12" d="M10.88,47.73a5.8,5.8,0,0,1,.82-1.26c-.52-.48-1-1-1.54-1.46a2.65,2.65,0,0,0-.39,1.37,2.53,2.53,0,0,0,.21,1l.82.34Z"/><path id="Tracé_2554" data-name="Tracé 2554" class="cls-13" d="M15.28,43.42l-.18-.56-.29,0a6.08,6.08,0,0,0-3.89,1.29l.86.6A4.91,4.91,0,0,1,15.28,43.42Z"/><path id="Tracé_2555" data-name="Tracé 2555" class="cls-13" d="M10.08,47.4a8.14,8.14,0,0,1,.78-1.63l0-.05L10.16,45a2.62,2.62,0,0,0-.39,1.36,2.41,2.41,0,0,0,.21,1Z"/></g><g id="Groupe_477" data-name="Groupe 477"><path id="Tracé_2556" data-name="Tracé 2556" class="cls-11" d="M1,54.88C1,57.17-1.65,59-4.92,59s-5.93-1.85-5.93-4.15,2.66-4.16,5.93-4.16S1,52.59,1,54.88Z"/></g><g id="Groupe_478" data-name="Groupe 478"><path id="Tracé_2561" data-name="Tracé 2561" class="cls-11" d="M19,66.15c0,2.3-2.65,4.16-5.93,4.16s-5.93-1.86-5.93-4.16S9.83,62,13.1,62,19,63.86,19,66.15Z"/><path id="Tracé_2562" data-name="Tracé 2562" class="cls-12" d="M13.89,64.44c0-.19-.1-.36-.14-.56-.08-.39-.23-.82-.36-1.24l-.3,0A6.1,6.1,0,0,0,9.21,63.9c.64.46,1.27.92,1.93,1.36A4.59,4.59,0,0,1,13.89,64.44Z"/><path id="Tracé_2563" data-name="Tracé 2563" class="cls-12" d="M9.17,67.51A5.8,5.8,0,0,1,10,66.25L8.45,64.79a2.62,2.62,0,0,0-.39,1.36,2.58,2.58,0,0,0,.21,1l.82.33Z"/><path id="Tracé_2564" data-name="Tracé 2564" class="cls-13" d="M13.57,63.19c-.06-.18-.12-.37-.17-.56h-.3A6.07,6.07,0,0,0,9.21,63.9l.86.6A5,5,0,0,1,13.57,63.19Z"/><path id="Tracé_2565" data-name="Tracé 2565" class="cls-13" d="M8.37,67.18a8,8,0,0,1,.79-1.64l0-.05-.74-.7a2.68,2.68,0,0,0-.39,1.37,2.53,2.53,0,0,0,.21,1Z"/></g><g id="Groupe_480" data-name="Groupe 480"><path id="Tracé_2571" data-name="Tracé 2571" class="cls-11" d="M20.73,84.86c0,2.3-2.65,4.16-5.92,4.16s-5.93-1.86-5.93-4.16,2.65-4.15,5.93-4.15S20.73,82.57,20.73,84.86Z"/><path id="Tracé_2572" data-name="Tracé 2572" class="cls-12" d="M15.61,83.15c0-.19-.1-.36-.15-.56-.07-.39-.23-.82-.35-1.24l-.3,0a6.1,6.1,0,0,0-3.88,1.28c.64.46,1.27.92,1.93,1.36A4.66,4.66,0,0,1,15.61,83.15Z"/><path id="Tracé_2573" data-name="Tracé 2573" class="cls-12" d="M10.88,86.22A5.8,5.8,0,0,1,11.7,85L10.16,83.5a2.62,2.62,0,0,0-.39,1.36,2.41,2.41,0,0,0,.21,1l.82.33Z"/><path id="Tracé_2574" data-name="Tracé 2574" class="cls-13" d="M15.28,81.9l-.18-.56h-.29a6.07,6.07,0,0,0-3.89,1.28l.86.6A5,5,0,0,1,15.28,81.9Z"/><path id="Tracé_2575" data-name="Tracé 2575" class="cls-13" d="M10.08,85.89a8.49,8.49,0,0,1,.78-1.64.1.1,0,0,0,0,0l-.74-.7a2.68,2.68,0,0,0-.39,1.37,2.37,2.37,0,0,0,.21,1Z"/></g><g id="Groupe_481" data-name="Groupe 481"><path id="Tracé_2576" data-name="Tracé 2576" class="cls-11" d="M40.46,56.24c0,2-2.29,3.59-5.12,3.59s-5.12-1.61-5.12-3.59,2.29-3.59,5.12-3.59S40.46,54.26,40.46,56.24Z"/><path id="Tracé_2577" data-name="Tracé 2577" class="cls-12" d="M36,54.76c0-.16-.09-.31-.12-.48-.07-.34-.2-.7-.31-1.07l-.25,0A5.23,5.23,0,0,0,32,54.3c.55.39,1.1.79,1.67,1.17A4,4,0,0,1,36,54.76Z"/><path id="Tracé_2578" data-name="Tracé 2578" class="cls-12" d="M32,57.42a4.35,4.35,0,0,1,.71-1.09l-1.33-1.26A2.31,2.31,0,0,0,31,56.24a2.27,2.27,0,0,0,.18.85l.71.29Z"/><path id="Tracé_2579" data-name="Tracé 2579" class="cls-13" d="M35.74,53.68l-.15-.47-.25,0A5.2,5.2,0,0,0,32,54.3l.74.52A4.26,4.26,0,0,1,35.74,53.68Z"/><path id="Tracé_2580" data-name="Tracé 2580" class="cls-13" d="M31.26,57.13a6.32,6.32,0,0,1,.68-1.41l0,0-.64-.61A2.31,2.31,0,0,0,31,56.24a2.27,2.27,0,0,0,.18.85Z"/></g><g id="Groupe_482" data-name="Groupe 482"><path id="Tracé_2581" data-name="Tracé 2581" class="cls-11" d="M58.31,52.67c0,2.29-2.65,4.15-5.93,4.15S46.45,55,46.45,52.67s2.66-4.16,5.93-4.16S58.31,50.37,58.31,52.67Z"/><path id="Tracé_2582" data-name="Tracé 2582" class="cls-12" d="M53.18,51c0-.19-.11-.37-.15-.56a11.31,11.31,0,0,0-.35-1.25h-.3a6,6,0,0,0-3.88,1.28c.64.45,1.28.91,1.93,1.35A4.58,4.58,0,0,1,53.18,51Z"/><path id="Tracé_2583" data-name="Tracé 2583" class="cls-12" d="M48.46,54a5.51,5.51,0,0,1,.82-1.27l-1.54-1.45a2.53,2.53,0,0,0-.39,1.36,2.37,2.37,0,0,0,.21,1l.82.34Z"/><path id="Tracé_2584" data-name="Tracé 2584" class="cls-13" d="M52.85,49.71c-.06-.19-.12-.37-.17-.56h-.29a6,6,0,0,0-3.89,1.28l.86.6A4.91,4.91,0,0,1,52.85,49.71Z"/><path id="Tracé_2585" data-name="Tracé 2585" class="cls-13" d="M47.66,53.7a7.52,7.52,0,0,1,.79-1.64l0-.05-.74-.7a2.62,2.62,0,0,0-.39,1.36,2.41,2.41,0,0,0,.21,1Z"/></g><g id="Groupe_484" data-name="Groupe 484"><path id="Tracé_2588" data-name="Tracé 2588" class="cls-9" d="M11.55,89.54C11.4,90.7,8.87,91.34,5.89,91S.61,89.35.75,88.19s2.68-1.79,5.66-1.42S11.7,88.38,11.55,89.54Z"/><path id="Tracé_2589" data-name="Tracé 2589" class="cls-10" d="M.81,88.06A9.35,9.35,0,0,0,5.23,89.6c2.86.36,5.29-.21,5.61-1.29a9.46,9.46,0,0,0-4.42-1.54C3.55,86.41,1.12,87,.81,88.06Z"/></g><g id="Groupe_485" data-name="Groupe 485"><path id="Tracé_2590" data-name="Tracé 2590" class="cls-9" d="M28.17,50.92c.22,1.51-2.74,3.19-6.63,3.75s-7.2-.2-7.42-1.71,2.75-3.19,6.63-3.75S28,49.41,28.17,50.92Z"/><path id="Tracé_2591" data-name="Tracé 2591" class="cls-10" d="M14.14,52.78a12.25,12.25,0,0,0,6.1.41c3.73-.54,6.58-2.1,6.61-3.57a12.25,12.25,0,0,0-6.1-.41C17,49.74,14.17,51.32,14.14,52.78Z"/></g><g id="Groupe_486" data-name="Groupe 486"><path id="Tracé_2592" data-name="Tracé 2592" class="cls-14" d="M42.74,49c-.49-1.87-1.3-3.85-3.13-4.75a5.26,5.26,0,0,0-3.1-.42,16,16,0,0,0-3.32,1.29.24.24,0,0,0-.34.08l0,.06,0,0a2.17,2.17,0,0,0-.35-.15c-.14,0-.28-.09-.42-.15a.14.14,0,0,0,0-.11,4.57,4.57,0,0,0-4.93-3c-2.08.24-5.33,3.67-5.16,3.82,1.3,1.18,3.37,1.29,5,1.17a8.54,8.54,0,0,0,4.68-1.56,1.76,1.76,0,0,0,.44.15l.49.12.28,0a3.66,3.66,0,0,0,3,3.52c1.24.14,2.48-.09,3.72,0a8.41,8.41,0,0,0,3,.09A.24.24,0,0,0,42.74,49Z"/><path id="Tracé_2593" data-name="Tracé 2593" class="cls-15" d="M35.32,43.94a6.76,6.76,0,0,0-1.3-4l-.11-.48a.32.32,0,0,0-.4-.21.34.34,0,0,0-.18.15,20,20,0,0,0-1.59,3.13A2.53,2.53,0,0,0,32,44.94a.92.92,0,0,0-.09.23.21.21,0,0,0,0,.11c-1-.29-1.92.82-2.25,1.68a5.45,5.45,0,0,0-.14,3.63.3.3,0,0,0,.38.19.09.09,0,0,0,.06,0,10.33,10.33,0,0,0,3.55-2.88A1.82,1.82,0,0,0,34,46.26a1.38,1.38,0,0,0-1-.84l0-.09,0-.09s0,0,0-.07a1.34,1.34,0,0,0,.4,0C34.27,45.24,35.21,45,35.32,43.94Z"/></g><g id="Groupe_487" data-name="Groupe 487"><path id="Tracé_2594" data-name="Tracé 2594" class="cls-14" d="M13.59,54.71a5.32,5.32,0,0,0-3.1-.42,15.67,15.67,0,0,0-3.31,1.29.37.37,0,0,0-.18,0c0,.15-.09.3-.14.45a.54.54,0,0,1-.05.11h0a3.64,3.64,0,0,0,3,3.51c1.25.15,2.49-.07,3.72,0a8.41,8.41,0,0,0,3,.09.24.24,0,0,0,.17-.29C16.23,57.59,15.43,55.62,13.59,54.71Z"/><path id="Tracé_2595" data-name="Tracé 2595" class="cls-15" d="M7.62,56.3a1.6,1.6,0,0,1-1.32-.46A4,4,0,0,1,6,55.46a.65.65,0,0,0-.08.22.11.11,0,0,0,0,.11c-1.05-.28-1.93.83-2.26,1.68A5.45,5.45,0,0,0,3.5,61.1a.31.31,0,0,0,.39.19l.06,0a10.44,10.44,0,0,0,3.54-2.89,1.86,1.86,0,0,0,.45-1.61A1,1,0,0,0,7.62,56.3Z"/></g><g id="Groupe_488" data-name="Groupe 488"><path id="Tracé_2596" data-name="Tracé 2596" class="cls-14" d="M28.28,75.76a4.14,4.14,0,0,0-2.45-.33,12.45,12.45,0,0,0-2.62,1,.22.22,0,0,0-.14,0c0,.12-.07.23-.1.35l0,.09h0a2.89,2.89,0,0,0,2.37,2.78c1,.11,2-.07,2.94,0a6.51,6.51,0,0,0,2.37.07.18.18,0,0,0,.13-.23A5.37,5.37,0,0,0,28.28,75.76Z"/><path id="Tracé_2597" data-name="Tracé 2597" class="cls-15" d="M23.57,77a1.28,1.28,0,0,1-1.05-.36,2.48,2.48,0,0,1-.25-.3,1.22,1.22,0,0,0-.07.17.14.14,0,0,0,0,.09c-.82-.23-1.52.65-1.78,1.33a4.2,4.2,0,0,0-.1,2.86.24.24,0,0,0,.3.15l0,0a8.14,8.14,0,0,0,2.8-2.28,1.44,1.44,0,0,0,.36-1.27A.94.94,0,0,0,23.57,77Z"/></g><g id="Groupe_489" data-name="Groupe 489"><path id="Tracé_2599" data-name="Tracé 2599" class="cls-15" d="M-1.8,73a6.77,6.77,0,0,0,2.9-3,4.32,4.32,0,0,1,.38-.32.34.34,0,0,0,0-.46.43.43,0,0,0-.21-.09,19.7,19.7,0,0,0-3.52.1,2.49,2.49,0,0,0-2,1.37,1,1,0,0,0-.24,0,.17.17,0,0,0-.1.06c-.24-1.06-1.64-1.31-2.54-1.19A5.41,5.41,0,0,0-10.4,71a.3.3,0,0,0,0,.43l.05,0a10.32,10.32,0,0,0,4.23,1.75,1.85,1.85,0,0,0,1.63-.37,1.4,1.4,0,0,0,.24-1.32h.09l.1,0,.06,0a3.13,3.13,0,0,0,.19.36C-3.45,72.66-2.75,73.35-1.8,73Z"/></g><g id="Groupe_490" data-name="Groupe 490"><path id="Tracé_2600" data-name="Tracé 2600" class="cls-14" d="M54.58,66.77a4.62,4.62,0,0,0-2.12-3.21,3.66,3.66,0,0,0-2.09-.29,10.54,10.54,0,0,0-2.24.88.17.17,0,0,0-.23,0,.08.08,0,0,0,0,0h0a.67.67,0,0,0-.23-.1l-.29-.1a.11.11,0,0,0,0-.08A3.08,3.08,0,0,0,44,62c-1.41.16-3.6,2.47-3.49,2.58a4.67,4.67,0,0,0,3.4.79,5.67,5.67,0,0,0,3.15-1.06,1.18,1.18,0,0,0,.3.1l.33.08a.63.63,0,0,0,.19,0,2.49,2.49,0,0,0,2,2.38c.84.1,1.68-.06,2.51,0a5.78,5.78,0,0,0,2,.06A.16.16,0,0,0,54.58,66.77Z"/><path id="Tracé_2601" data-name="Tracé 2601" class="cls-15" d="M63.32,61.33a6.72,6.72,0,0,0,2.9-3L66.6,58a.33.33,0,0,0,0-.45.43.43,0,0,0-.22-.09,19.62,19.62,0,0,0-3.51.1,2.5,2.5,0,0,0-2,1.37,1,1,0,0,0-.24,0l-.1,0c-.24-1-1.63-1.3-2.54-1.18a5.41,5.41,0,0,0-3.26,1.6.3.3,0,0,0,0,.43l.05,0A10.36,10.36,0,0,0,59,61.6a1.82,1.82,0,0,0,1.63-.37,1.39,1.39,0,0,0,.24-1.32.17.17,0,0,0,.1,0h.09l.07,0a2,2,0,0,0,.18.36C61.68,61,62.37,61.72,63.32,61.33Z"/></g></g><g id="Groupe_501" data-name="Groupe 501"><g id="Groupe_493" data-name="Groupe 493"><path id="Tracé_2605" data-name="Tracé 2605" class="cls-5" d="M107,77.09h0v0Z"/><path id="Tracé_2606" data-name="Tracé 2606" class="cls-5" d="M106,75.2a2.73,2.73,0,0,0-2.43-.09l-.12,0a5.09,5.09,0,0,0-3,.67,4.2,4.2,0,0,0-1,.75A152.83,152.83,0,0,0,82.7,74.37c-8.71-.46-17.38,0-26.09,0-4.93,0-12-.81-17.07,1.1C44.75,83.49,52,89.69,59.15,96c2.41,2.15,4.72,4.48,7,6.84-1.3-1-2.49-2.13-3.56-3-2.71-2.24-5.63-4.21-8.43-6.32-5-3.8-8.78-9-13.83-12.76-.18-.14-.5,0-.39.26,3.12,7,10.06,12.29,15.73,17.2,4,3.5,8.7,9.43,14.3,10.33a1.63,1.63,0,0,0,.44.3l.18.08a1.9,1.9,0,0,0,1.63,0s0,0,0,0c8.11-3,17.36-7.82,23.54-14.5a42.8,42.8,0,0,0,6.88-7.9,31.24,31.24,0,0,0,3.87-8.17,2.27,2.27,0,0,0,.27-.48,2.4,2.4,0,0,0,.15-.84A1.81,1.81,0,0,0,106,75.2Z"/></g><path id="Tracé_2607" data-name="Tracé 2607" class="cls-6" d="M103.48,77.18a1.59,1.59,0,0,0-1.12-1.83,2.75,2.75,0,0,0-1.93.47,3.5,3.5,0,0,0-1.33,1.29,2.36,2.36,0,0,0-.24.91,3.51,3.51,0,0,0-.57.85c-.18.25-.47.48-.67.73a5.5,5.5,0,0,0-.69,1,.77.77,0,0,0-.07.37c-9.5,9.71-18.65,17.2-30,21.34-1.5-1-3.5-2.8-4-3.2-2.72-2-5.3-4.32-7.9-6.52s-5-4.5-7.39-6.9-6.06-5.27-7.11-8.75c-.19-.61-1.27-.59-1.32.1-.21,2.87,1.25,4.9,3.13,7A125.58,125.58,0,0,0,53,94.78c3.54,3.14,7,6.3,10.67,9.3,1.77,1.46,3.6,3,6,2.43l.09,0,.07.07c6.16-2.2,16.52-6.75,23.58-14.4A41,41,0,0,0,100,84.52a29.85,29.85,0,0,0,3.57-7.31A.27.27,0,0,0,103.48,77.18Z"/><path id="Tracé_2608" data-name="Tracé 2608" class="cls-7" d="M82.7,74.37c-8.71-.46-17.38,0-26.09,0-4.7,0-11.35-.71-16.33.88a.71.71,0,0,0-.57.06c-3.44,2.12,9.55,13.31,10.78,14.52,2.28,2.25,4.82,4.25,7.07,6.53,1.86,1.89,5.12,6.64,8.31,6.24l.28.27c12.79-4.2,22.5-12.55,32.09-22.47a2.33,2.33,0,0,1,.75-.53,28.07,28.07,0,0,0,1.16-3.22A155.06,155.06,0,0,0,82.7,74.37Z"/><path id="Tracé_2609" data-name="Tracé 2609" class="cls-8" d="M86.49,74.67c-.61.54-1.22,1.1-1.8,1.71a3.11,3.11,0,0,0-.52-1.9l-1.47-.11c-3.07-.16-6.14-.21-9.2-.2.26.15.53.3.78.47-.73.7-1.45,1.42-2.23,2.12A2.6,2.6,0,0,0,71.28,78a16.63,16.63,0,0,0-1.54,1.6,1.55,1.55,0,0,0-.24-.27l-.06-.08a3.36,3.36,0,0,0-2.18-1.71,2.47,2.47,0,0,0-2,.43,9.91,9.91,0,0,0,.2-3.68c-3,0-5.92.1-8.88.09-4.93,0-12-.81-17.07,1.1a60.44,60.44,0,0,0,6.31,8l.35-.18A1.79,1.79,0,0,0,47,81.8,2.24,2.24,0,0,0,45.91,80c.39-.4.77-.8,1.14-1.23a2.63,2.63,0,0,0,1.93,0c.1,0,.13,0,.13-.06a2.7,2.7,0,0,0,.7-.26,5.76,5.76,0,0,0-.44.41A2.9,2.9,0,0,0,49.72,83a3.25,3.25,0,0,0,.55.36c1.55.76,3.86-.14,4.06-2,0-.31.06-.63.07-.94.07-.63,0-.85-.17-.71a2,2,0,0,0-2-2,1.77,1.77,0,0,0-.56.09,3,3,0,0,0-.94.12l.1-.07a4.27,4.27,0,0,0,2.27-2.8,3.43,3.43,0,0,0,0-.56,14.69,14.69,0,0,0,2,1,1.43,1.43,0,0,0,.2.23l.3.2s0,0,0,0,.89.64.32.24a3.47,3.47,0,0,0,1.1.56h.1a1.69,1.69,0,0,0,0,.38c0,.1,0,.23,0,.45a1.93,1.93,0,0,0,.12.67,2.08,2.08,0,0,0,.67,1c-.81,2.07-2.88,4.56-3.62,5.87a3,3,0,0,0,.73,4l-.81.27c-.64-1-1.06-2.21-1.64-3.19A6.26,6.26,0,0,0,47,83.52l-1,.14c4.07,4.4,8.63,8.37,13.15,12.39,1.22,1.09,2.41,2.23,3.6,3.39h0c.09-.06.32-.26.44-.37l.44-.33a3.94,3.94,0,0,0,.7-.12c-1,.26.07,0,.42-.1A2.71,2.71,0,0,0,66.37,95a2.77,2.77,0,0,0-.81-1.13,17.25,17.25,0,0,0,1.3-1.9c.64-.19,1.26-.42,1.88-.64-.89,2.87,2.4,4.8,4.93,3.5,4.87-2.5,8.67-6.41,12.33-10.41A24.37,24.37,0,0,0,89.36,83a20.63,20.63,0,0,0,7.33-6.93C93.29,75.5,89.9,75,86.49,74.67Z"/><g id="Groupe_494" data-name="Groupe 494"><path id="Tracé_2610" data-name="Tracé 2610" class="cls-9" d="M63.13,85.43c-.13,1.49-3.35,2.43-7.2,2.1s-6.86-1.82-6.73-3.32,3.35-2.43,7.2-2.1S63.25,83.93,63.13,85.43Z"/><path id="Tracé_2611" data-name="Tracé 2611" class="cls-10" d="M49.26,84.05A12.1,12.1,0,0,0,55,85.81c3.69.32,6.78-.54,7.14-1.92a12,12,0,0,0-5.75-1.77C52.71,81.8,49.62,82.66,49.26,84.05Z"/></g><g id="Groupe_495" data-name="Groupe 495"><path id="Tracé_2612" data-name="Tracé 2612" class="cls-9" d="M81.63,77.66c.07,1.2-2.37,2.34-5.47,2.53s-5.66-.63-5.74-1.83S72.8,76,75.89,75.84,81.55,76.46,81.63,77.66Z"/><path id="Tracé_2613" data-name="Tracé 2613" class="cls-10" d="M70.45,78.22a9.76,9.76,0,0,0,4.78.72c3-.19,5.32-1.24,5.44-2.39a9.76,9.76,0,0,0-4.78-.72C72.92,76,70.57,77.07,70.45,78.22Z"/></g><g id="Groupe_496" data-name="Groupe 496"><path id="Tracé_2614" data-name="Tracé 2614" class="cls-9" d="M84.5,88.57c.23,1.42-2.54,3-6.18,3.61s-6.78-.1-7-1.52,2.54-3,6.19-3.61S84.28,87.16,84.5,88.57Z"/><path id="Tracé_2615" data-name="Tracé 2615" class="cls-10" d="M71.34,90.49a11.48,11.48,0,0,0,5.73.31c3.5-.55,6.16-2.06,6.17-3.44a11.49,11.49,0,0,0-5.73-.3C74,87.61,71.35,89.12,71.34,90.49Z"/></g><g id="Groupe_497" data-name="Groupe 497"><path id="Tracé_2616" data-name="Tracé 2616" class="cls-11" d="M75.16,82.24c.17,2.29-2.35,4.34-5.61,4.58s-6-1.43-6.21-3.72,2.34-4.33,5.61-4.57S75,80,75.16,82.24Z"/><path id="Tracé_2617" data-name="Tracé 2617" class="cls-12" d="M69.92,80.91c-.06-.19-.13-.36-.19-.55-.1-.39-.29-.8-.44-1.22H69a6.07,6.07,0,0,0-3.78,1.56c.67.41,1.34.82,2,1.21A4.64,4.64,0,0,1,69.92,80.91Z"/><path id="Tracé_2618" data-name="Tracé 2618" class="cls-12" d="M65.43,84.32A6.11,6.11,0,0,1,66.15,83l-1.64-1.34A2.68,2.68,0,0,0,64.22,83a2.52,2.52,0,0,0,.28,1l.84.27Z"/><path id="Tracé_2619" data-name="Tracé 2619" class="cls-13" d="M69.5,79.69l-.21-.55H69a6.07,6.07,0,0,0-3.77,1.56l.9.54A4.88,4.88,0,0,1,69.5,79.69Z"/><path id="Tracé_2620" data-name="Tracé 2620" class="cls-13" d="M64.61,84a7.6,7.6,0,0,1,.66-1.69l0,0-.8-.65A2.68,2.68,0,0,0,64.22,83a2.52,2.52,0,0,0,.28,1Z"/></g><g id="Groupe_498" data-name="Groupe 498"><path id="Tracé_2621" data-name="Tracé 2621" class="cls-11" d="M93.63,81.07c.17,2.28-2.35,4.33-5.61,4.57s-6-1.43-6.21-3.71,2.34-4.34,5.61-4.58S93.46,78.78,93.63,81.07Z"/><path id="Tracé_2622" data-name="Tracé 2622" class="cls-12" d="M88.39,79.73c-.06-.18-.14-.36-.19-.55A12,12,0,0,0,87.76,78h-.3a6.07,6.07,0,0,0-3.78,1.56c.67.41,1.34.82,2,1.21A4.64,4.64,0,0,1,88.39,79.73Z"/><path id="Tracé_2623" data-name="Tracé 2623" class="cls-12" d="M83.9,83.14a5.49,5.49,0,0,1,.73-1.32L83,80.48a2.53,2.53,0,0,0-.28,1.38,2.36,2.36,0,0,0,.28,1l.84.27Z"/><path id="Tracé_2624" data-name="Tracé 2624" class="cls-13" d="M88,78.51,87.76,78h-.3a6.07,6.07,0,0,0-3.78,1.56c.3.19.6.36.9.54A5,5,0,0,1,88,78.51Z"/><path id="Tracé_2625" data-name="Tracé 2625" class="cls-13" d="M83.08,82.87a7.7,7.7,0,0,1,.66-1.69l0-.05-.8-.65a2.65,2.65,0,0,0-.29,1.38,2.54,2.54,0,0,0,.29,1Z"/></g><g id="Groupe_499" data-name="Groupe 499"><path id="Tracé_2626" data-name="Tracé 2626" class="cls-14" d="M54.48,73.35a5.44,5.44,0,0,0-3.12-.2,15.76,15.76,0,0,0-3.21,1.53.31.31,0,0,0-.19,0c0,.15-.06.3-.1.45s0,.07,0,.11h0a3.66,3.66,0,0,0,3.26,3.3c1.25,0,2.47-.26,3.71-.25a8.4,8.4,0,0,0,3-.12.25.25,0,0,0,.15-.31C57.32,76,56.38,74.12,54.48,73.35Z"/><path id="Tracé_2627" data-name="Tracé 2627" class="cls-15" d="M48.65,75.38A1.64,1.64,0,0,1,47.29,75a3.73,3.73,0,0,1-.34-.35.81.81,0,0,0-.07.22.24.24,0,0,0,0,.12c-1.06-.22-1.86,1-2.12,1.83a5.3,5.3,0,0,0,.13,3.62.29.29,0,0,0,.38.17.15.15,0,0,0,.07,0,10.34,10.34,0,0,0,3.32-3.13A1.87,1.87,0,0,0,49,75.82,1.09,1.09,0,0,0,48.65,75.38Z"/></g><g id="Groupe_500" data-name="Groupe 500"><path id="Tracé_2628" data-name="Tracé 2628" class="cls-14" d="M70.58,92.7a5.38,5.38,0,0,0-2.53-1.85,16.16,16.16,0,0,0-3.53-.43.24.24,0,0,0-.34-.1l-.06.05h0a2.26,2.26,0,0,0-.23-.29l-.25-.27-.35.31.1.11.37.34.24.17a3.64,3.64,0,0,0,1,4.52c1,.72,2.22,1.1,3.26,1.79a8.45,8.45,0,0,0,2.6,1.5.24.24,0,0,0,.29-.18C71.53,96.48,71.76,94.37,70.58,92.7Z"/><path id="Tracé_2629" data-name="Tracé 2629" class="cls-15" d="M66.92,90.43a6.67,6.67,0,0,0,.76-4.13c0-.18.1-.35.13-.48s-.26-.47-.48-.33a19.73,19.73,0,0,0-2.88,2,2.52,2.52,0,0,0-.92,2.25.9.9,0,0,0-.19.15.47.47,0,0,0-.05.1c-.78-.75-2.08-.19-2.78.41a5.35,5.35,0,0,0-1.84,3.12.31.31,0,0,0,.25.36H59A10.22,10.22,0,0,0,63.47,93a1.81,1.81,0,0,0,1.16-1.2,1.39,1.39,0,0,0-.52-1.23l.08-.06.07-.06a.21.21,0,0,0,0-.06,1.75,1.75,0,0,0,.35.2C65.38,91.08,66.34,91.28,66.92,90.43Z"/></g></g></g></g></g><g id="Pizza" class="cls-16"><text class="cls-17" transform="translate(82 32)">Piz<tspan class="cls-18" x="30.18" y="0">z</tspan><tspan x="41.12" y="0">a</tspan></text></g></g></svg>