<svg id="Calque_1" data-name="Calque 1" xmlns="http://www.w3.org/2000/svg" viewBox="0 0 92 135"><defs><style>.cls-1{fill:#fff;}.cls-2,.cls-3,.cls-6,.cls-8{isolation:isolate;}.cls-3{font-size:16px;fill:#2b2b2b;font-family:SofiaPro-Bold, Sofia Pro;font-weight:700;}.cls-4{fill:#86888c;}.cls-5{fill:#ceebf8;}.cls-6,.cls-7{fill:#aadff5;}.cls-6,.cls-8{opacity:0.5;}.cls-8,.cls-9{fill:#5c9fd2;}.cls-10{fill:#a8def5;}.cls-11{fill:#fcdb98;}.cls-12{fill:#fac48f;}.cls-13{fill:#fff0c8;}.cls-14{fill:#c32a57;}.cls-15{fill:#3b4f73;}.cls-16{fill:#2f292b;}</style></defs><title>app-icon</title><g id="Groupe_1884" data-name="Groupe 1884"><rect id="Rectangle_10-2" data-name="Rectangle 10-2" class="cls-1" width="92" height="135" rx="6"/><g id="_30_min_à_1h30" data-name=" 30 min à 1h30" class="cls-2"><text class="cls-3" transform="translate(20.91 97)">30 min </text><text class="cls-3" transform="translate(21.93 116)">à 1h30</text></g><g id="Groupe_12" data-name="Groupe 12"><g id="Groupe_11" data-name="Groupe 11"><g id="Groupe_8" data-name="Groupe 8"><path id="Tracé_26" data-name="Tracé 26" class="cls-4" d="M75.77,32.22c-.65.29-1.27.6-1.9.94s-1,.68-1.51,1c0,0,0,.12,0,.1.6-.29,1.16-.65,1.76-.94a11,11,0,0,0,1.74-.89C76,32.35,75.89,32.18,75.77,32.22Z"/><path id="Tracé_27" data-name="Tracé 27" class="cls-4" d="M78.6,32.71c-3.09.74-5.84,2.51-8.56,4.07a45.33,45.33,0,0,0-3.76,2.65A14.71,14.71,0,0,0,64.47,41c-.46.44-.85.94-1.3,1.38-.05,0,0,.12,0,.07.43-.36.74-.82,1.18-1.18.6-.51,1.15-1,1.8-1.5,1.28-.91,2.58-1.85,4-2.65a51,51,0,0,1,8.49-4.17C78.74,32.83,78.69,32.68,78.6,32.71Z"/><path id="Tracé_28" data-name="Tracé 28" class="cls-4" d="M77.49,35a37.56,37.56,0,0,0-5.77,2.82c-.84.48-1.66,1-2.46,1.54s-1.56,1.26-2.38,1.84c0,0,0,.1,0,.07.8-.48,1.52-1.11,2.3-1.64A27.38,27.38,0,0,1,72,37.89c1.8-1,3.66-1.88,5.54-2.75C77.68,35.07,77.61,34.9,77.49,35Z"/></g><g id="Groupe_10" data-name="Groupe 10"><path id="Tracé_29" data-name="Tracé 29" class="cls-5" d="M60.08,34.66c0-.53-.46-1.52-1.13-1.42a1,1,0,0,0-.51.24.57.57,0,0,0-.53-.6c-.58,0-.89.55-1.06,1.06a1.39,1.39,0,0,0-.24-.68c-.22-.26-.51,0-.63.22a2.09,2.09,0,0,0-.19,1.25,1.65,1.65,0,0,0,.1.44,2.29,2.29,0,0,0,1.47,1.9,1.3,1.3,0,0,0,.87,0,1.48,1.48,0,0,0,1.11-.28A2.31,2.31,0,0,0,60.08,34.66Z"/><path id="Tracé_30" data-name="Tracé 30" class="cls-6" d="M59.62,36.2c-1.3,0-1.47-2.07-.8-2.94a1.55,1.55,0,0,0-.36.19,1.62,1.62,0,0,1,0,.44c-.07.5-.29,1.2-.87,1.3-.38.07-.55-.46-.58-.75a1.89,1.89,0,0,1,0-.67,1.39,1.39,0,0,1,.21-.6,2.48,2.48,0,0,0-.41.77,1.28,1.28,0,0,0-.21-.63,1.51,1.51,0,0,1-.41,1.11.38.38,0,0,1-.44,0,1.5,1.5,0,0,0,0,.29,1.28,1.28,0,0,0,.1.43,2.29,2.29,0,0,0,1.47,1.9,1.33,1.33,0,0,0,.86,0,1.5,1.5,0,0,0,1.11-.29,1.63,1.63,0,0,0,.51-.68A.37.37,0,0,1,59.62,36.2Z"/><path id="Tracé_31" data-name="Tracé 31" class="cls-6" d="M59,36.45c-.6-.22-.89-.78-1.35-1.16a2.86,2.86,0,0,0-1.88-.53,2.07,2.07,0,0,0,.1.43,2.31,2.31,0,0,0,1.47,1.9,1.36,1.36,0,0,0,.87,0,1.48,1.48,0,0,0,1.11-.29,1.45,1.45,0,0,0,.39-.43A.75.75,0,0,1,59,36.45Z"/><path id="Tracé_32" data-name="Tracé 32" class="cls-7" d="M62.3,46a2.42,2.42,0,0,0-2-.21,4.29,4.29,0,0,0-.58.26,11.54,11.54,0,0,0,.43-1.25,14.69,14.69,0,0,0,.41-1.86,10.58,10.58,0,0,0,0-1.78A7,7,0,0,0,57,35.26a6.25,6.25,0,0,0-3.35-.65,8.69,8.69,0,0,0-3.64.87,23.15,23.15,0,0,0-3.45,2c-.53.38-1,.72-1.56,1.11a4.71,4.71,0,0,0-.53.43c-.6.39-1.23.77-1.88,1.11-1,.53-2,1.18-3,1.71-.44.22-.87.53-1.3.8a12.11,12.11,0,0,0-1.28.82,14,14,0,0,0-4.29,4.63A5.74,5.74,0,0,0,31.8,51a4.53,4.53,0,0,0,.12,1.16c-.19.12-.39.26-.55.38a8.68,8.68,0,0,0-1.5,1.4,13.51,13.51,0,0,0-2.41,4.15c-.43,1.16-1,2.87-.34,4,.19.31.68.05.82-.19a.56.56,0,0,0,.56.5c.38,0,.55-.34.7-.63a.08.08,0,0,0,0,.08.69.69,0,0,0,.72.48c.44,0,.58-.82.7-1.13a18.07,18.07,0,0,1,4-6.25,6.68,6.68,0,0,0,3.28,1.64c-.2.31-.37.63-.56.94a20.6,20.6,0,0,0-2.07,4.68c-.12.41-1,3.18.21,3.13a.59.59,0,0,0,.6-.48.83.83,0,0,0,.13.41.5.5,0,0,0,.48.27.82.82,0,0,0,.58-.41,1.15,1.15,0,0,0,.12-.25c.07.22.24.34.58.2s.53-1,.62-1.28c.24-.68.44-1.37.7-2a10.18,10.18,0,0,1,3.6-4.15A12.63,12.63,0,0,0,46,57.14a15.67,15.67,0,0,0,3.61-1.7,22.43,22.43,0,0,0,3.64-2.87,9.17,9.17,0,0,0,1.13-1.2l.25.19a4.29,4.29,0,0,0,3.54.14l.14,0a5.49,5.49,0,0,1-.48.6,2.63,2.63,0,0,0-.72,1.59,1,1,0,0,0,.51,1,.51.51,0,0,0,.48,0,.39.39,0,0,0,.1.16c.19.29.6.17.82,0a.91.91,0,0,0,.24-.24A.57.57,0,0,0,60,55l.09-.06A6.28,6.28,0,0,0,61.41,53a26,26,0,0,0,1.23-2.41C63.14,49.18,63.63,47.05,62.3,46Z"/><g id="Groupe_9" data-name="Groupe 9"><path id="Tracé_33" data-name="Tracé 33" class="cls-8" d="M62.27,48.12a17.43,17.43,0,0,1-1.2,1.4,12,12,0,0,1-1.62,1.13,5.83,5.83,0,0,1-3.64.89,2.4,2.4,0,0,1-1.9-1.11,3.3,3.3,0,0,1-.24-2.1A9.35,9.35,0,0,1,55,45.17c0-.07-.05-.1-.1-.05-1.52,1.6-2.73,6,.31,6.7a7.09,7.09,0,0,0,7.26-3.59A.09.09,0,0,0,62.27,48.12Z"/><path id="Tracé_34" data-name="Tracé 34" class="cls-8" d="M60,44.4a12.84,12.84,0,0,1-1.81,3.79c0,.07.05.12.1.07a7.91,7.91,0,0,0,1.81-3.84.05.05,0,0,0-.05-.05A.05.05,0,0,0,60,44.4Z"/><path id="Tracé_35" data-name="Tracé 35" class="cls-8" d="M58.63,53a1.72,1.72,0,0,0-.72,1.74s.05,0,.05,0a3,3,0,0,1,.19-.94,2.27,2.27,0,0,1,.51-.75S58.66,52.94,58.63,53Z"/><path id="Tracé_36" data-name="Tracé 36" class="cls-8" d="M59.5,53s0-.05,0,0a1.89,1.89,0,0,0-.38,1.59s.12,0,.12,0a3.08,3.08,0,0,1,0-.68C59.28,53.61,59.43,53.32,59.5,53Z"/><path id="Tracé_37" data-name="Tracé 37" class="cls-8" d="M39.68,54.05a8.19,8.19,0,0,0-1.4,1.54,6,6,0,0,0-.51.8h0a7.62,7.62,0,0,1-4.05-2.68s0,0,0,0a6,6,0,0,0,.82,1.06,12.28,12.28,0,0,0,1,.87,3.53,3.53,0,0,0,2.19.84c-.17.34-.33.7-.5,1.09,0,0,0,0,0,0,.42-.58.66-1.23,1.07-1.78s1-1.14,1.44-1.72C39.78,54.07,39.73,54,39.68,54.05Z"/><path id="Tracé_38" data-name="Tracé 38" class="cls-8" d="M45,55.59a5.16,5.16,0,0,0-1.42.94,6.19,6.19,0,0,0-1,1.08s0,0,0,0c.38-.29.75-.65,1.13-.94s.92-.65,1.35-1C45.08,55.64,45,55.57,45,55.59Z"/></g><path id="Tracé_39" data-name="Tracé 39" class="cls-9" d="M36.26,63.16a3.25,3.25,0,0,0-.32,1.59c0,.07.1,0,.1,0,.1-.53.1-1.06.25-1.57C36.33,63.14,36.28,63.14,36.26,63.16Z"/><path id="Tracé_40" data-name="Tracé 40" class="cls-9" d="M28.13,60.24a3.35,3.35,0,0,0-.31,1.59c0,.08.1.05.1,0,.1-.53.1-1.06.24-1.56C28.18,60.24,28.16,60.22,28.13,60.24Z"/><path id="Tracé_41" data-name="Tracé 41" class="cls-9" d="M37.46,63.55a2.52,2.52,0,0,0-.17,1.25,0,0,0,0,0,0,0s0,0,0,0h0a5.65,5.65,0,0,1,.13-1.23S37.46,63.52,37.46,63.55Z"/><path id="Tracé_42" data-name="Tracé 42" class="cls-9" d="M29.29,60.48a2.37,2.37,0,0,0-.17,1.26,0,0,0,0,0,0,0s0,0,0,0h0a5,5,0,0,1,.12-1.23S29.3,60.48,29.29,60.48Z"/><path id="Tracé_43" data-name="Tracé 43" class="cls-6" d="M62.3,46a2.46,2.46,0,0,0-2-.22,5.14,5.14,0,0,0-.58.27,11.54,11.54,0,0,0,.43-1.25,14.69,14.69,0,0,0,.41-1.86,10.58,10.58,0,0,0,0-1.78,4.89,4.89,0,0,0,0-.66,15.24,15.24,0,0,1-.77,3.35,19.84,19.84,0,0,1-1.23,3.52c-.46.92-1.13,2.15-2.19,2.46a1.55,1.55,0,0,1-2-1,.49.49,0,0,1,0-.11,4.85,4.85,0,0,1,1.09-4.29c0-.14,0-.26,0-.29-.29-.14-1.06.58-1.25.72-1.11.87-2.13,1.86-3.16,2.83a23.46,23.46,0,0,1-2,1.68A14.51,14.51,0,0,1,45,51.66c-1,.36-2.65.74-3.67.07-.77-.51-.62-1.38-.31-2.12a10.27,10.27,0,0,1,1.59-2.46,26.57,26.57,0,0,0,3.09-4.22,7.82,7.82,0,0,0,1.13-4.32,4,4,0,0,0-.31-1.18c-.51.36-1,.72-1.54,1.09a4.71,4.71,0,0,0-.53.43,21.8,21.8,0,0,1-1.89,1.11c-1,.53-2,1.18-3,1.71-.43.22-.86.53-1.3.8s-.86.53-1.27.82A14.11,14.11,0,0,0,32.66,48a5.83,5.83,0,0,0-.91,2.89,4.53,4.53,0,0,0,.12,1.16,5.94,5.94,0,0,0-.55.39,8,8,0,0,0-1.5,1.4s0,0-.05,0a4.85,4.85,0,0,1,.75-.29c.65-.16,1.86-.36,2.29.39.53.94-.39,1.93-.94,2.63a8.3,8.3,0,0,0-1.33,2.26,6.8,6.8,0,0,1-.65,1.69c0,.07-.19.07-.21,0a3.15,3.15,0,0,1,0-.44c0-.45-.36,0-.43.17a1.05,1.05,0,0,1-.53.51.12.12,0,0,1-.15,0,2.82,2.82,0,0,1-.1-.58c0-.24-.17-.72-.48-.38a.92.92,0,0,0-.24.43c-.17.46-.19,1-.39,1.42,0,0-.07.08-.1,0a.4.4,0,0,1-.38-.26,2.16,2.16,0,0,0,.26.65c.2.31.68.05.82-.2a.57.57,0,0,0,.56.51c.38,0,.55-.34.7-.63a.08.08,0,0,0,0,.08.72.72,0,0,0,.73.48c.43,0,.57-.82.7-1.14a18.09,18.09,0,0,1,4-6.24,6.62,6.62,0,0,0,3.21,1.61c.74-1,1.49-2.17,2.77-2.5.72-.2,2.1-.15,1.69,1a7.28,7.28,0,0,1-1.3,1.9,14.78,14.78,0,0,0-1.62,2.29A6.6,6.6,0,0,0,38.43,62a2.82,2.82,0,0,1-.32,1.54s-.14.1-.19,0a1.91,1.91,0,0,1-.26-.7c-.17.38-.22,1-.66,1.13s-.38-.29-.41-.5,0-.44,0-.66c0-.5-.32.11-.37.29a11.81,11.81,0,0,1-.36,1.45c-.24.63-.67.51-1,.15,0,.38.24.62.63.62a.61.61,0,0,0,.6-.48.73.73,0,0,0,.12.41.5.5,0,0,0,.48.27.8.8,0,0,0,.58-.41,1.34,1.34,0,0,0,.12-.24c.07.21.24.33.58.19s.53-1,.62-1.28c.25-.67.44-1.37.7-2a10.18,10.18,0,0,1,3.6-4.15A12.63,12.63,0,0,0,46,57.11a15.86,15.86,0,0,0,3.61-1.69,23.53,23.53,0,0,0,3.65-2.87,9.25,9.25,0,0,0,1.13-1.21,1.59,1.59,0,0,0,.24.2,4.33,4.33,0,0,0,3.54.14.88.88,0,0,0,.15,0,7,7,0,0,1-.48.6,2.69,2.69,0,0,0-.73,1.59,1,1,0,0,0,.51,1,.48.48,0,0,0,.48,0,1,1,0,0,0,.1.17c.19.29.6.17.82,0a.69.69,0,0,0,.24-.24.57.57,0,0,0,.79.21l.08-.06a6.52,6.52,0,0,0,1.3-2,22,22,0,0,0,1.23-2.42C63.14,49.18,63.62,47.05,62.3,46Z"/><path id="Tracé_44" data-name="Tracé 44" class="cls-6" d="M60.78,46.19a2.25,2.25,0,0,1,1.08-.42,2.94,2.94,0,0,0-1.61,0,6.11,6.11,0,0,0-.58.27,11.54,11.54,0,0,0,.43-1.25,14.69,14.69,0,0,0,.41-1.86,4.5,4.5,0,0,0,0-1.16c0,.45,0,.89-.1,1.33a11.63,11.63,0,0,1-.73,2.51,7.49,7.49,0,0,1-1.56,2.67C59.19,48.21,60,46.74,60.78,46.19Z"/><path id="Tracé_45" data-name="Tracé 45" class="cls-6" d="M59.24,54.87s0,0,.07,0c.46.07.89-.89,1.06-1.2s.36-.73.55-1.11c.63-1.26,1.52-2.9,1.38-4.37-.68.48-1.35.94-2,1.38a10.18,10.18,0,0,1-2.34,1.15c-1.09.34-2.65.56-3.5-.43A3.23,3.23,0,0,1,54.48,46l.22-.46a6,6,0,0,0-1.45,2.29,16.31,16.31,0,0,1-1.37,3.64c-1.33,2.12-3.91,3.28-6.27,3.76a8.19,8.19,0,0,0-2,.58,7.55,7.55,0,0,0-1.83,1.45,11.89,11.89,0,0,0-2.73,3.64,2.44,2.44,0,0,0-.1.24c0,.07-.05.12-.07.19-.19.6-.27,1.21-.46,1.81a.61.61,0,0,1-.05.12A3,3,0,0,1,38,64.49a.41.41,0,0,1-.56,0s0,0-.06-.07a.05.05,0,0,1,0,0,.77.77,0,0,1-.84.58A.66.66,0,0,1,36,64.7a1.17,1.17,0,0,1-.58.58h0a.6.6,0,0,0,.6-.48.93.93,0,0,0,.12.41.53.53,0,0,0,.49.27.78.78,0,0,0,.57-.41,1.41,1.41,0,0,0,.13-.24c.07.21.24.33.57.19s.53-1,.63-1.28c.24-.68.44-1.37.7-2.05a10.11,10.11,0,0,1,3.6-4.15,12.48,12.48,0,0,0,3.1-.45,15.93,15.93,0,0,0,3.62-1.69,23,23,0,0,0,3.64-2.87,8.69,8.69,0,0,0,1.14-1.21,1.59,1.59,0,0,0,.24.2,4.33,4.33,0,0,0,3.54.14.88.88,0,0,0,.15,0,5.58,5.58,0,0,1-.49.6A2.68,2.68,0,0,0,57,53.8a1,1,0,0,0,.51,1,.48.48,0,0,0,.48,0,.59.59,0,0,0,.1.17c.19.29.6.17.82,0a.69.69,0,0,0,.24-.24Z"/><path id="Tracé_46" data-name="Tracé 46" class="cls-6" d="M38.09,56a8.6,8.6,0,0,1,1.66-1.85,5.77,5.77,0,0,1-3.08.67,6,6,0,0,1-3-1,7.86,7.86,0,0,1-1.61,3.56,20.19,20.19,0,0,0-1.26,2c-.34.65-.53,1.37-.87,2-.21.43-.72.6-.82,0a1.27,1.27,0,0,1-.57.53c-.56.24-.68-.29-.63-.85,0,.07-.05.13-.07.2a1.42,1.42,0,0,1-.39.58,1.21,1.21,0,0,1-.46.12s0,0,0,0c.19.32.67.05.82-.19a.57.57,0,0,0,.55.51c.39,0,.56-.34.7-.63a.14.14,0,0,0,0,.07.72.72,0,0,0,.73.49c.43,0,.58-.83.7-1.14a18,18,0,0,1,4-6.24,6.84,6.84,0,0,0,3.21,1.61C37.85,56.31,38,56.14,38.09,56Z"/></g><path id="Tracé_47" data-name="Tracé 47" class="cls-7" d="M31.29,52.45c2,1.23,4.65.66,6.87.27A17.66,17.66,0,0,0,43,51.1a18.58,18.58,0,0,0,2-1,1.53,1.53,0,0,0,.89-1.14,1.07,1.07,0,0,1,.17-.48.16.16,0,0,1,.17-.05,1.92,1.92,0,0,1,.43.32c0-.22.06-.44.1-.65a1.86,1.86,0,0,1,0-.34.11.11,0,0,1,.13-.08h0c.48.1.77.53,1.1.86a6.62,6.62,0,0,1,.08-1.4.15.15,0,0,1,.12-.1,2.15,2.15,0,0,1,.94.32,6.21,6.21,0,0,1-.22-1.14q.09-.68.24-1.35A9.81,9.81,0,0,0,47.84,39a7,7,0,0,0-1.38-1.5c-.48.36-1,.7-1.49,1a6.16,6.16,0,0,0-.53.43c-.6.39-1.23.77-1.88,1.11-1,.53-2,1.18-3,1.71-.44.22-.87.53-1.3.8A15.52,15.52,0,0,0,32.7,48a5.77,5.77,0,0,0-.92,2.89,4.53,4.53,0,0,0,.12,1.16,3.67,3.67,0,0,0-.6.36Z"/><path id="Tracé_48" data-name="Tracé 48" class="cls-5" d="M57.5,22.48c-.15-.12-.44,0-.6,0a8.45,8.45,0,0,0-1.21.27,34.63,34.63,0,0,0-5,2.19A14.92,14.92,0,0,0,44,32a10.6,10.6,0,0,0-.77,2.24,9.37,9.37,0,0,0-3.69-1.64h-.07c.19-.48.36-1,.55-1.47a16.82,16.82,0,0,0,1.16-4.68,18.55,18.55,0,0,0,.17-5c0-.31-.31-3.28-1.06-2.65a18.09,18.09,0,0,0-3.14,3.4,24.66,24.66,0,0,0-2.43,4,10.43,10.43,0,0,0-1,4.53A11.25,11.25,0,0,0,34,33.23a7.07,7.07,0,0,0,.44,1.19.28.28,0,0,1-.2.21L33.7,35c-1,.58-2,1.19-3,1.74a3.54,3.54,0,0,0-1.95,2,6.9,6.9,0,0,0-.15,2.48h-.46c-.34,0-.67,0-1,0-.12,0-.15.13-.12.22s.43.36.6.48l.21.15a5.56,5.56,0,0,0-.91.14c-.29.08-.75.12-.92.39a.17.17,0,0,0,0,.23l.09,0a3,3,0,0,1,1.45.53.5.5,0,0,0-.19.13c-.46.31-1.11.55-1.28,1.13s.34,1.32.6,1.76a25.26,25.26,0,0,0,1.35,2.22,18.84,18.84,0,0,0,1.57,1.9,9.28,9.28,0,0,0,1.92,1.78,3,3,0,0,0,2.17.31,13.07,13.07,0,0,0,4.54-.91,48.15,48.15,0,0,0,5.66-2.46l1.21-.63c.24-.12.38-.19.43-.48a.83.83,0,0,0-.1-.51,13.48,13.48,0,0,1,1.67-.26.16.16,0,0,0,.14-.18.14.14,0,0,0,0-.06,2.44,2.44,0,0,0-.63-.92c.07,0,.12,0,.19,0a2.59,2.59,0,0,1,1.14.36.14.14,0,0,0,.19,0l0,0a.11.11,0,0,0,0-.14,2.1,2.1,0,0,0-.41-.85c-.14-.21-.29-.45-.46-.67.27.07.87.39,1.11.19s.15-.65.15-.91a17.15,17.15,0,0,0-.1-1.9A8.19,8.19,0,0,0,47.38,39a9.59,9.59,0,0,0-1.27-1.64,9.29,9.29,0,0,0,2.72-1.33,14.47,14.47,0,0,0,3.59-3.3,34.07,34.07,0,0,0,2.95-4.1A18.63,18.63,0,0,0,57.42,24C57.57,23.67,57.84,22.75,57.5,22.48Z"/><path id="Tracé_49" data-name="Tracé 49" class="cls-5" d="M41.29,21.4A9.84,9.84,0,0,0,40.81,19a3.12,3.12,0,0,1-.89,1.23A17.68,17.68,0,0,0,38.52,22c-1.81,2.51-3.35,5.43-3.25,8.59,0,.63.21,1.25.19,1.88,0,.26-.07.63-.39.72-.65.17-1-.53-1.23-1,0,0,0-.1-.05-.13A9.92,9.92,0,0,0,34,33.21a6.26,6.26,0,0,0,.43,1.19.27.27,0,0,1-.19.21L33.7,35l-1,.58c.34-.14.7-.26,1.06-.38a6.17,6.17,0,0,1,2.54-.51c.36.05.8.05,1.23.1h0l.1,0a11.85,11.85,0,0,1-1.42-.48.14.14,0,0,1,0-.18l0,0a4.64,4.64,0,0,1,2.67-.63c-.28-.24-.6-.43-.91-.65a.12.12,0,0,1,0-.17.12.12,0,0,1,.1-.05,2.35,2.35,0,0,1,.7,0,1.31,1.31,0,0,0,.68,0h0c.19-.48.36-1,.55-1.47a17.08,17.08,0,0,0,1.16-4.68A20.32,20.32,0,0,0,41.29,21.4Z"/><path id="Tracé_50" data-name="Tracé 50" class="cls-5" d="M41.29,21.4a9.63,9.63,0,0,0-.45-2.32,4.89,4.89,0,0,1-.39,2.27,39.57,39.57,0,0,1-2.1,3.76,5.9,5.9,0,0,0-.84,2.8,19.24,19.24,0,0,0,.38,2.51,2.35,2.35,0,0,1-.1,1.59,1.58,1.58,0,0,1-.43.34c-.34.22-.19.36-.1.65a.11.11,0,0,1,0,.14,10.26,10.26,0,0,1-1.23.37c-.22.07-.72.19-.48.48a1.33,1.33,0,0,1,.22.34.13.13,0,0,1,0,.17l-.75.36a3.89,3.89,0,0,1,1.4-.15c.36,0,.8,0,1.23.1h0l.1,0a11.85,11.85,0,0,1-1.42-.48.12.12,0,0,1,0-.17.1.1,0,0,1,0,0,4.65,4.65,0,0,1,2.68-.63c-.29-.24-.6-.43-.92-.65a.11.11,0,0,1,0-.16.11.11,0,0,1,.1-.06,2.34,2.34,0,0,1,.7,0,1.31,1.31,0,0,0,.68,0h0c.19-.48.36-1,.55-1.47a16.75,16.75,0,0,0,1.16-4.67A20.34,20.34,0,0,0,41.29,21.4Z"/><path id="Tracé_51" data-name="Tracé 51" class="cls-5" d="M53.74,25.42a70.17,70.17,0,0,0-7.43,5.26c-.43.36-.8.8-1.23,1.16a1.19,1.19,0,0,1-.82.36.39.39,0,0,1-.34-.24,12.86,12.86,0,0,0-.75,2.19l0,0a5.8,5.8,0,0,0,.07,2.31,5.6,5.6,0,0,0,.44,1c.1.19.31.63.62.19a.9.9,0,0,1,.15-.19.56.56,0,0,1,.7,0,3.7,3.7,0,0,1,1,1.38,14.4,14.4,0,0,1,.73,1.71c.16.51.41,1,.6,1.52a2.88,2.88,0,0,1,.14,1.13c0,.1-.07.12-.14.12a9.58,9.58,0,0,0-1.07-.19,9.15,9.15,0,0,1,.51,1.93.12.12,0,0,1-.12.12h0c-.25-.07-1.4-.55-1.09.19A2.73,2.73,0,0,1,46,46.47a.12.12,0,0,1-.19.1,12.27,12.27,0,0,0-1.42-.67c-.1.53.1,1-.1,1.54a3.19,3.19,0,0,1-1.16,1.09,11.8,11.8,0,0,1-3,1.56c-.75.24-1.84.49-2.46-.12s-.7-1.81-1.06-2.7c-.63-1.59-2.66-1.85-4.18-1.88a32.5,32.5,0,0,1-4.07,0c-.65-.07-1.33-.68-.8-1.33.22-.26.87-.82.29-1.18a1.45,1.45,0,0,0-1.11-.19,2.77,2.77,0,0,0-.41.12,3,3,0,0,1,1.28.51.47.47,0,0,0-.2.12c-.45.31-1.1.55-1.27,1.13s.33,1.33.6,1.76a25.26,25.26,0,0,0,1.35,2.22,20.18,20.18,0,0,0,1.56,1.9,9.31,9.31,0,0,0,1.93,1.78,3.1,3.1,0,0,0,2.17.32,13.32,13.32,0,0,0,4.54-.92,48.88,48.88,0,0,0,5.66-2.46l1.21-.63c.24-.12.38-.19.43-.48a.8.8,0,0,0-.1-.5,11.85,11.85,0,0,1,1.67-.27.17.17,0,0,0,.14-.18.14.14,0,0,0,0-.06,2.52,2.52,0,0,0-.63-.92c.07,0,.12,0,.19,0a2.72,2.72,0,0,1,1.14.36.14.14,0,0,0,.19,0l0,0a.13.13,0,0,0,0-.15,2.35,2.35,0,0,0-.41-.84c-.14-.22-.29-.46-.46-.68.27.07.87.39,1.11.2s.15-.66.15-.92a17.15,17.15,0,0,0-.1-1.9A8.34,8.34,0,0,0,47.37,39a9.59,9.59,0,0,0-1.27-1.64A9.29,9.29,0,0,0,48.82,36a14.46,14.46,0,0,0,3.59-3.3,35.21,35.21,0,0,0,3-4.1,18.33,18.33,0,0,0,2-4.62,3.78,3.78,0,0,0,.13-.56A22.06,22.06,0,0,0,53.74,25.42Z"/><path id="Tracé_52" data-name="Tracé 52" class="cls-5" d="M51.16,33.48a2.75,2.75,0,0,0,.26-.22,13.92,13.92,0,0,0,2.82-3.69c.73-1.32,1.33-2.72,1.93-4.1.12-.29.29-.6.39-.91,0-.12.19-.6-.1-.63a20.09,20.09,0,0,0-2.73,1.5,79.62,79.62,0,0,0-7,4.87c-.51.8-1.09,1.56-1.57,2.38a12.46,12.46,0,0,0-.87,2.65,5.05,5.05,0,0,0,1.86-.14,11.16,11.16,0,0,0,2.36-.44A11.67,11.67,0,0,0,51.16,33.48Z"/><path id="Tracé_53" data-name="Tracé 53" class="cls-5" d="M38.67,51.37c-.65.14-1.71.43-2.29,0a.88.88,0,0,1-.32-.8,1.74,1.74,0,0,1,.2-.58,1.85,1.85,0,0,0,.14-1A2.92,2.92,0,0,1,34.57,50a3,3,0,0,1-2.22-.5,3,3,0,0,1-.8-.85c-.12-.24-.19-.53-.29-.77a3.85,3.85,0,0,1-.55,1.38,1.05,1.05,0,0,1-1.3.48c-.65-.27-.8-1.13-.85-1.81a1,1,0,0,1-1.06-.17c.17.29.37.58.56.84a17.79,17.79,0,0,0,1.57,1.9,9.06,9.06,0,0,0,1.92,1.79,3.1,3.1,0,0,0,2.17.31,13.07,13.07,0,0,0,4.54-.91L40.14,51C39.66,51.1,39.17,51.25,38.67,51.37Z"/><path id="Tracé_54" data-name="Tracé 54" class="cls-10" d="M31.22,48.16h0a3,3,0,0,1-.5,1.11,1.3,1.3,0,0,1-.56.48,2.73,2.73,0,0,0,.65,1.64c.34.32.65.17,1,.29a1.6,1.6,0,0,0,.89.12l.5-.29a2.33,2.33,0,0,0,.58-1.25A2.86,2.86,0,0,1,31.22,48.16Z"/><path id="Tracé_55" data-name="Tracé 55" class="cls-9" d="M38.35,37.51a.65.65,0,0,0-.53.24.82.82,0,0,0-.19.48c0,.05.07.07.12,0a.76.76,0,0,1,.63-.41c.26,0,.26.27.39.46s.24.05.26-.07a.67.67,0,0,0-.61-.72Z"/><path id="Tracé_56" data-name="Tracé 56" class="cls-9" d="M32.59,37a.81.81,0,0,0-.77.8.08.08,0,0,0,.07.08.07.07,0,0,0,.07,0c.15-.17.27-.45.51-.5s.24.24.39.41.17.05.21,0a.53.53,0,0,0-.31-.69A.47.47,0,0,0,32.59,37Z"/><path id="Tracé_57" data-name="Tracé 57" class="cls-11" d="M33.17,50.19a2.57,2.57,0,0,1-.92-.6,3.76,3.76,0,0,1-.84-1.43h-.1a2.11,2.11,0,0,1-1,1.57,2.73,2.73,0,0,0,0,.41,2.81,2.81,0,0,0,.38,1,.71.71,0,0,0,.94.32l.15-.1a.38.38,0,0,0,.26.19C32.86,51.9,33.27,50.86,33.17,50.19Z"/><path id="Tracé_58" data-name="Tracé 58" class="cls-12" d="M31.7,50.94c-.07-.27-.22-.78,0-1s.26-.07.41,0a3.4,3.4,0,0,0,.8.48.61.61,0,0,1,.29.19,1.55,1.55,0,0,0,0-.43,2.57,2.57,0,0,1-.92-.6,3.52,3.52,0,0,1-.84-1.43h-.1a2.14,2.14,0,0,1-1,1.57,1.85,1.85,0,0,0,0,.41,3.79,3.79,0,0,0,.94-.75.15.15,0,0,1,.19,0,.16.16,0,0,1,0,.09,2.83,2.83,0,0,0,.34,1.89v0h0a.38.38,0,0,0,.26.19l.12,0A1.37,1.37,0,0,1,31.7,50.94Z"/><path id="Tracé_59" data-name="Tracé 59" class="cls-13" d="M30.78,51c.1.15.34.44.56.39s.12-.05.14-.12l-.14-.44c0-.17,0-.34-.17-.43s-.6-.22-.58.07A1,1,0,0,0,30.78,51Z"/><path id="Tracé_60" data-name="Tracé 60" class="cls-13" d="M31.84,51.06c.1.14.32.45.51.43a.18.18,0,0,0,.15-.1,2.17,2.17,0,0,1-.13-.56.41.41,0,0,0-.19-.36c-.12-.1-.36-.17-.48,0S31.75,50.91,31.84,51.06Z"/><path id="Tracé_61" data-name="Tracé 61" class="cls-9" d="M36.26,48.52a2.39,2.39,0,0,1-3,1.46L33,49.9a2.74,2.74,0,0,1-1.28-1.26,8.06,8.06,0,0,1-.39-1.83.13.13,0,0,0-.15-.11.12.12,0,0,0-.11.11v.12L31,47a4.36,4.36,0,0,1-.53,2.32.78.78,0,0,1-1.1.16,1,1,0,0,1-.2-.21,2.41,2.41,0,0,1-.45-1.18s-.1,0-.1,0c-.1.92.43,2,1.44,1.86.7-.08,1-.82,1.16-1.57a3.06,3.06,0,0,0,1.95,2c1.21.41,3.07-.45,3.09-1.85C36.33,48.5,36.26,48.5,36.26,48.52Z"/><path id="Tracé_62" data-name="Tracé 62" class="cls-14" d="M31.58,45.1h-.43a10,10,0,0,0-1.23,0,1.05,1.05,0,0,0-.73.29.76.76,0,0,0,0,.82,2.11,2.11,0,0,0,2.72,1.2l.17-.07A2.44,2.44,0,0,0,33.29,46C33.56,45.08,32.64,45.17,31.58,45.1Z"/><path id="Tracé_63" data-name="Tracé 63" class="cls-15" d="M37.51,46.55a6.16,6.16,0,0,0-1.52.38,12.35,12.35,0,0,0-1.71.6c-.07,0,0,.12,0,.1,1.06-.31,2.19-.5,3.25-.89a.1.1,0,0,0-.07-.19Z"/><path id="Tracé_64" data-name="Tracé 64" class="cls-15" d="M38,47.87c-.6,0-1.18,0-1.79.05a8.07,8.07,0,0,0-1.83.19c-.07,0,0,.13,0,.1,1.18-.14,2.41,0,3.59-.16C38.07,48,38.09,47.87,38,47.87Z"/><path id="Tracé_65" data-name="Tracé 65" class="cls-15" d="M37.32,49a13.24,13.24,0,0,0-2.73-.34c-.07,0-.1.12,0,.12a13.15,13.15,0,0,0,2.72.34s.07,0,.07-.06A.05.05,0,0,0,37.32,49Z"/><path id="Tracé_66" data-name="Tracé 66" class="cls-15" d="M29,47.44a13.3,13.3,0,0,0-2.82-.12.05.05,0,0,0-.05.07.05.05,0,0,0,.05,0,19.05,19.05,0,0,0,2.82.24C29.14,47.66,29.14,47.44,29,47.44Z"/><path id="Tracé_67" data-name="Tracé 67" class="cls-15" d="M29.39,48a16.77,16.77,0,0,0-3.09.17c-.1,0-.1.17,0,.17a16,16,0,0,0,3.09-.15C29.48,48.14,29.48,48,29.39,48Z"/><path id="Tracé_68" data-name="Tracé 68" class="cls-15" d="M29.27,48.57a13.3,13.3,0,0,0-2.85.82.09.09,0,0,0,0,.11.1.1,0,0,0,.09,0c.94-.31,1.9-.44,2.84-.77C29.41,48.72,29.37,48.55,29.27,48.57Z"/><path id="Tracé_69" data-name="Tracé 69" class="cls-16" d="M38,41.51a1.7,1.7,0,0,0,.05-1.09.55.55,0,0,0-.7-.32.51.51,0,0,0-.31.3,4.9,4.9,0,0,0-.58,1.47,1.94,1.94,0,0,0-.12.58c0,.26.1.67.43.7.68,0,.92-.72,1.09-1.21A3.62,3.62,0,0,1,38,41.51Z"/><path id="Tracé_70" data-name="Tracé 70" class="cls-1" d="M38.07,40.83a.74.74,0,0,0-.15-.5c-.24-.24-.36.24-.43.43a.5.5,0,0,0,0,.32c.07.14.29.45.46.28S38.07,41,38.07,40.83Z"/><path id="Tracé_71" data-name="Tracé 71" class="cls-16" d="M32.81,40.71a1.74,1.74,0,0,0,0-1.08.55.55,0,0,0-.7-.33.59.59,0,0,0-.32.3,5.63,5.63,0,0,0-.58,1.47,3,3,0,0,0-.12.58c0,.27.1.68.44.7.67,0,.91-.72,1.08-1.2C32.71,41,32.76,40.86,32.81,40.71Z"/><path id="Tracé_72" data-name="Tracé 72" class="cls-1" d="M32.81,40.06a.74.74,0,0,0-.15-.5c-.24-.24-.36.24-.43.43a.47.47,0,0,0,0,.31c.08.15.29.46.46.29A.59.59,0,0,0,32.81,40.06Z"/><path id="Tracé_73" data-name="Tracé 73" class="cls-9" d="M39.51,32.54a3,3,0,0,0-1.69,0,.1.1,0,0,0,0,.13l0,0a4.12,4.12,0,0,0,.77.48,5,5,0,0,0-2.87.89.16.16,0,0,0,0,.22l0,0a3.1,3.1,0,0,0,.68.1,11,11,0,0,1,1.25.34.1.1,0,0,0,0-.19,3.84,3.84,0,0,0-.91-.39,4.58,4.58,0,0,0-.63-.1,5.66,5.66,0,0,1,1-.39A5.8,5.8,0,0,1,39,33.41c.1,0,.12-.13,0-.2s-.36-.26-.55-.41a1.28,1.28,0,0,0-.41-.19,7.5,7.5,0,0,1,1.42,0C39.53,32.64,39.56,32.56,39.51,32.54Z"/><path id="Tracé_74" data-name="Tracé 74" class="cls-9" d="M54.8,24.56a34.57,34.57,0,0,0-3.62,2.24,28.93,28.93,0,0,0-3.74,2.77,9.71,9.71,0,0,0-3.11,5.74.39.39,0,0,0,0,.15,5.82,5.82,0,0,0,0,1.18.11.11,0,0,0,.13.09.14.14,0,0,0,.09-.09c0-.37,0-.7.07-1a11.45,11.45,0,0,0,1.16-.07l1.37-.24a8.71,8.71,0,0,0,2.43-.87s0-.07,0-.07c-.85.26-1.79.48-2.66.67s-1.49.12-2.21.22c0-.15,0-.27,0-.41a9.1,9.1,0,0,1,.73-1.9A10.63,10.63,0,0,1,48,29.58a24.6,24.6,0,0,1,3.38-2.53c1.18-.8,2.31-1.62,3.52-2.39C54.9,24.61,54.85,24.53,54.8,24.56Z"/></g></g></g></svg>