<svg id="Calque_1" data-name="Calque 1" xmlns="http://www.w3.org/2000/svg" viewBox="0 0 42.57 41.57"><defs><style>.cls-1{fill:#575d90;}.cls-2{fill:#949acb;}.cls-3{fill:#32365f;}.cls-4{fill:#565e9e;}.cls-5{fill:#fff;}.cls-6{fill:#faf0c3;}</style></defs><title>app-icon</title><g id="Groupe_1873" data-name="Groupe 1873"><g id="restaurant"><circle id="Ellipse_5" data-name="Ellipse 5" class="cls-1" cx="21.43" cy="20.77" r="20.5"/><circle id="Ellipse_6" data-name="Ellipse 6" class="cls-2" cx="21.27" cy="20.6" r="13.8"/><path id="Tracé_533" data-name="Tracé 533" class="cls-3" d="M10.37,20.6A20.34,20.34,0,0,1,26,.82a20.34,20.34,0,1,0,0,39.56A20.33,20.33,0,0,1,10.37,20.6Z"/><path id="Tracé_534" data-name="Tracé 534" class="cls-4" d="M14.19,32.43a20.24,20.24,0,0,1,0-23.66,13.76,13.76,0,0,0,0,23.66Z"/><path id="Tracé_535" data-name="Tracé 535" class="cls-5" d="M35.13,11.82a.71.71,0,0,0-1,0h0L30,16a.77.77,0,0,1-1.1,0l-.1-.1a.78.78,0,0,1,0-1.1l4.13-4.13a.72.72,0,1,0-1-1l-4.14,4.14a.78.78,0,0,1-1.1,0h0a.78.78,0,0,1,0-1.1l4.15-4.15a.73.73,0,1,0-1-1l-4.43,4.43a3.64,3.64,0,0,0-1.11,2.41l0,1.89a.77.77,0,0,1-.24.53l-13.7,12.6a2.06,2.06,0,0,0,2.92,2.92h0L25.75,18.57a.75.75,0,0,1,.54-.24l1.94,0h.05a3.48,3.48,0,0,0,2.42-1.08l4.43-4.42a.74.74,0,0,0,0-1Z"/><path id="Tracé_536" data-name="Tracé 536" class="cls-6" d="M22.35,18.19l-5.79,5.32,1.3,1.3a3.09,3.09,0,0,0,1.42.8l5-5.47Z"/><path id="Tracé_537" data-name="Tracé 537" class="cls-5" d="M11.32,9.21,31.5,29.38a2.08,2.08,0,0,1,0,2.92h0a2.08,2.08,0,0,1-2.92,0h0l-4.9-4.9a1.67,1.67,0,0,1-.34-1.86.82.82,0,0,0-.12-.94l-.83-.82a.82.82,0,0,0-1.17,0h0a1.65,1.65,0,0,1-2.33,0h0L13.31,18.2c-4.13-4.14-3.74-7.29-3.17-8.76a.71.71,0,0,1,.94-.39A.63.63,0,0,1,11.32,9.21Z"/></g></g></svg>