<svg id="Calque_1" data-name="Calque 1" xmlns="http://www.w3.org/2000/svg" xmlns:xlink="http://www.w3.org/1999/xlink" viewBox="0 0 147 110"><defs><style>.cls-1{fill:none;}.cls-2{fill:#fff;}.cls-3{clip-path:url(#clip-path);}.cls-4{fill:#f4f4f4;}.cls-5{fill:#ebeaea;}.cls-6{fill:#e3e2e2;}.cls-10,.cls-7{fill:#ffd9a6;}.cls-15,.cls-8{fill:#f9ce9b;}.cls-8{opacity:0.6;}.cls-10,.cls-11,.cls-14,.cls-15,.cls-17,.cls-20,.cls-22,.cls-23,.cls-8{isolation:isolate;}.cls-9{fill:#006ec3;}.cls-10{opacity:0.5;}.cls-11{fill:#ddc09f;}.cls-11,.cls-14,.cls-15{opacity:0.8;}.cls-12{fill:#459e3c;}.cls-13{fill:#79bc3c;}.cls-14{fill:#a1ba11;}.cls-16,.cls-17{fill:#f99900;}.cls-17,.cls-20{opacity:0.7;}.cls-18{fill:#ffc32c;}.cls-19,.cls-20{fill:#4aaa41;}.cls-21{fill:#c10000;}.cls-23{font-size:22px;font-family:SofiaProSemiBold, Sofia Pro;}</style><clipPath id="clip-path"><rect class="cls-1" width="147" height="110" rx="6"/></clipPath></defs><title>app-icon</title><g id="Groupe_1895" data-name="Groupe 1895"><rect id="Rectangle_15-4" data-name="Rectangle 15-4" class="cls-2" width="147" height="110" rx="6"/><g class="cls-3"><g id="Groupe_de_masques_11" data-name="Groupe de masques 11"><g id="Groupe_630" data-name="Groupe 630"><g id="Groupe_604" data-name="Groupe 604"><g id="Groupe_603" data-name="Groupe 603"><g id="Groupe_601" data-name="Groupe 601"><path id="Tracé_4141" data-name="Tracé 4141" class="cls-4" d="M172.06,66.85l-.89.63-50.94,5.76-21,0L48.26,67.43l-.88-.64s4.78,47.77,49.86,56.9a61.47,61.47,0,0,0,26.3-.21C167.52,113.85,172.06,66.85,172.06,66.85Z"/><path id="Tracé_4142" data-name="Tracé 4142" class="cls-2" d="M172.55,63.88c0,13.08-28.1,23.68-62.78,23.68S47,77,47,63.88s28.1-23.69,62.77-23.69S172.55,50.79,172.55,63.88Z"/><ellipse id="Ellipse_36" data-name="Ellipse 36" class="cls-5" cx="109.77" cy="62.69" rx="62.77" ry="23.69"/><g id="Groupe_597" data-name="Groupe 597"><path id="Tracé_4143" data-name="Tracé 4143" class="cls-2" d="M109.74,39.77c34.1,0,62.15,10.52,62.15,23.73,0,2.59-1.47,5.27-3.43,7.6,2.64-2.61,4.09-5.45,4.09-8.42,0-13.08-28.1-23.68-62.78-23.68S47,49.6,47,62.68c0,2.82,1.31,5.53,3.71,8-1.76-2.22-3.05-4.85-3.05-7.3C47.66,50.21,75.64,39.77,109.74,39.77Z"/></g><g id="Groupe_598" data-name="Groupe 598"><path id="Tracé_4144" data-name="Tracé 4144" class="cls-6" d="M85.93,84.6a161.43,161.43,0,0,0,47.68,0c-5.91-2.43-14.4-4-23.84-4S91.84,82.17,85.93,84.6Z"/></g><g id="Groupe_599" data-name="Groupe 599"><path id="Tracé_4145" data-name="Tracé 4145" class="cls-7" d="M109.77,49.36c-32.17,0-58.24,9.84-58.24,22v.2c9.29,8.7,31.87,14.83,58.24,14.83s49-6.14,58.24-14.83c0-.07,0-.14,0-.2C168,59.2,141.94,49.36,109.77,49.36Z"/></g><path id="Tracé_4146" data-name="Tracé 4146" class="cls-8" d="M109.77,49.36c-32.17,0-58.24,9.84-58.24,22v.2c9.29,8.7,31.87,14.83,58.24,14.83s49-6.14,58.24-14.83c0-.07,0-.14,0-.2C168,59.2,141.94,49.36,109.77,49.36Zm0,31.28c-27.54,0-49.87-6.7-49.87-15s22.33-15,49.87-15,49.87,6.7,49.87,15S137.31,80.64,109.77,80.64Z"/><g id="Groupe_600" data-name="Groupe 600"><path id="Tracé_4147" data-name="Tracé 4147" class="cls-8" d="M74.41,53.87c9.5-2.56,21.85-4.11,35.36-4.11s25.87,1.55,35.36,4.11a140.72,140.72,0,0,0-70.72,0Z"/></g></g><g id="Groupe_602" data-name="Groupe 602"><path id="Tracé_4148" data-name="Tracé 4148" class="cls-9" d="M162,81.41C148,87.9,129.5,91.47,109.77,91.47S71.52,87.89,57.59,81.41A56,56,0,0,1,49.52,77l.54,1.82c13.57,8.49,35.62,14.47,59.71,14.47s46.08-6,59.66-14.41L170,77A55.76,55.76,0,0,1,162,81.41Z"/></g></g><path id="Tracé_4149" data-name="Tracé 4149" class="cls-10" d="M67.33,67.12c0-7.41,20.26-13.42,45.25-13.42A122.77,122.77,0,0,1,142.23,57c-8.3-2.83-20.53-4.62-34.17-4.62-25,0-45.26,6-45.26,13.42,0,4,6,7.68,15.6,10.14C71.51,73.56,67.33,70.49,67.33,67.12Z"/></g><g id="Groupe_612" data-name="Groupe 612"><path id="Tracé_4150" data-name="Tracé 4150" class="cls-11" d="M129.67,65.06a10.35,10.35,0,0,0-6.79-1.1s1.75-1,2-2.22A7.32,7.32,0,0,0,120,63.55a5.31,5.31,0,0,0,1.11-3.43,15.4,15.4,0,0,0-3.63,2.28s1.07-1.67.56-2.83A4.44,4.44,0,0,0,116,61.34h0a2.66,2.66,0,0,0-.26-2,6.65,6.65,0,0,0,.33-.58,4.89,4.89,0,0,0-2.86.55h0a6.68,6.68,0,0,0,2.57-3.7,2.58,2.58,0,0,0-1.36.29,8.63,8.63,0,0,0,.16-6.62s-3.38,1.72-4.29,4.87a4.38,4.38,0,0,0-1-2.76,6.51,6.51,0,0,0-.78,4.84A5.62,5.62,0,0,0,106,53.59a14.38,14.38,0,0,0,.23,4.09s-.94-1.72-2.21-1.91a3.94,3.94,0,0,0,.76,2.83,3.07,3.07,0,0,0-2.09-1.05s-.64,4.29,4.9,6.37h0a6.77,6.77,0,0,1-1.42,2.72,10.44,10.44,0,0,1-2.66,1.74s.38-3.54-.49-5.18h0c.8-3.87-3.42-5.48-3.42-5.48a6.5,6.5,0,0,0,.36,2,4.36,4.36,0,0,0-2.82-1.65,3.14,3.14,0,0,0,.79,2.14c.07.07,0,0,0,0a6.19,6.19,0,0,0-3.79-1.43,1.75,1.75,0,0,0,.4,1,10.16,10.16,0,0,0-6.37.89,8,8,0,0,0,5.06,2.59,5.21,5.21,0,0,0-2.55,1.18,7.37,7.37,0,0,0,4.71-.13,5.63,5.63,0,0,0-2.33,2.33,17.34,17.34,0,0,0,3.9-.81s-1.57,1-1.64,2a4.66,4.66,0,0,0,2.65-1,2.44,2.44,0,0,0-.81,1.79,6.51,6.51,0,0,0,5.46-4.23h0a10.69,10.69,0,0,1-.18,4.36,18.83,18.83,0,0,1-3,1.69,1.38,1.38,0,0,0,.7,1.12c8-4.67,11.49-5,12.42-5,1.29,4.79,6.9,5.83,6.9,5.83a9.74,9.74,0,0,0-1.56-2.16,6,6,0,0,0,3.92.86A4.8,4.8,0,0,0,119.71,69h0a7.63,7.63,0,0,0,4.79.27,2.57,2.57,0,0,0-1-1A9.63,9.63,0,0,0,129.67,65.06Zm-22.8,2a5.48,5.48,0,0,0,1.58-2.83,6.46,6.46,0,0,0,3.82-.08,6.36,6.36,0,0,0,0,1.51,15.89,15.89,0,0,0-5.45,1.4Zm9-5.37.05-.15,0,0a1.34,1.34,0,0,0-.07.18Z"/><g id="Groupe_611" data-name="Groupe 611"><path id="Tracé_4151" data-name="Tracé 4151" class="cls-12" d="M101.88,68.24a10.69,10.69,0,0,0,.18-4.36l.39-1.26c.88,1.64.5,5.19.5,5.19a10.71,10.71,0,0,0,2.66-1.74A6.75,6.75,0,0,0,107,63.34l.87.28a5.46,5.46,0,0,1-1.59,2.84,16,16,0,0,1,5.47-1.4l.45,1s-3.12-.6-12.69,5a1.38,1.38,0,0,1-.7-1.12A18.41,18.41,0,0,0,101.88,68.24Z"/><g id="Groupe_606" data-name="Groupe 606"><g id="Groupe_605" data-name="Groupe 605"><path id="Tracé_4152" data-name="Tracé 4152" class="cls-13" d="M122.32,63.4s1.75-1,2-2.22a7.36,7.36,0,0,0-4.86,1.8,5.32,5.32,0,0,0,1.11-3.42,15.79,15.79,0,0,0-3.64,2.28s1.07-1.67.56-2.83a4.23,4.23,0,0,0-2.19,2.08,0,0,0,0,1,0,0v0a2.8,2.8,0,0,0-.17-2.28,6,6,0,0,0-3.27,6.93,38.83,38.83,0,0,1,17.24-1.23S125.71,62.55,122.32,63.4Z"/><path id="Tracé_4153" data-name="Tracé 4153" class="cls-12" d="M121.21,70.58a4.94,4.94,0,0,0-2-2.12c-.11,0-.06,0,0,0a7.56,7.56,0,0,0,4.79.27,2.67,2.67,0,0,0-1-1,9.66,9.66,0,0,0,6.17-3.23,38.84,38.84,0,0,0-17.24,1.23c1.12,5.06,7,6.14,7,6.14a10.33,10.33,0,0,0-1.56-2.16A6,6,0,0,0,121.21,70.58Z"/></g><path id="Tracé_4154" data-name="Tracé 4154" class="cls-14" d="M117.49,59.09s-2.4,1-2.41,3.12a4.14,4.14,0,0,1,2.48-2.62Z"/><path id="Tracé_4155" data-name="Tracé 4155" class="cls-14" d="M120.47,59.69a9.64,9.64,0,0,0-3.7,2.77,19,19,0,0,1,3.77-2.27Z"/><path id="Tracé_4156" data-name="Tracé 4156" class="cls-14" d="M115.25,59.48a.92.92,0,0,0-.24-.54,6.77,6.77,0,0,0-3.09,4.19S112.41,61.42,115.25,59.48Z"/></g><g id="Groupe_608" data-name="Groupe 608"><g id="Groupe_607" data-name="Groupe 607"><path id="Tracé_4157" data-name="Tracé 4157" class="cls-13" d="M92.67,62.75a5.35,5.35,0,0,0-2.56,1.19,7.41,7.41,0,0,0,4.72-.14,5.54,5.54,0,0,0-2.33,2.34,17.46,17.46,0,0,0,3.9-.81s-1.57,1-1.64,2a4.69,4.69,0,0,0,2.65-1l0,0,0,0a2.51,2.51,0,0,0-.82,1.79A6.59,6.59,0,0,0,102.35,63a110.55,110.55,0,0,0-14.74-2.86A7.87,7.87,0,0,0,92.67,62.75Z"/><path id="Tracé_4158" data-name="Tracé 4158" class="cls-12" d="M96.57,57.54a3.15,3.15,0,0,0,.79,2.15c.07.07,0,0,0,0a6.13,6.13,0,0,0-3.79-1.43,1.7,1.7,0,0,0,.4,1,10.17,10.17,0,0,0-6.37.9A110.38,110.38,0,0,1,102.35,63c1.2-4.16-3.32-5.88-3.32-5.88a6.24,6.24,0,0,0,.37,2.05A4.42,4.42,0,0,0,96.57,57.54Z"/></g><path id="Tracé_4159" data-name="Tracé 4159" class="cls-14" d="M94.8,67.23s2.39-.19,3.27-1.77A4.68,4.68,0,0,1,95,66.83Z"/><path id="Tracé_4160" data-name="Tracé 4160" class="cls-14" d="M92.63,66.07a10.86,10.86,0,0,0,4.17-1.18,20.29,20.29,0,0,1-4,.77Z"/><path id="Tracé_4161" data-name="Tracé 4161" class="cls-14" d="M96.8,67.56a.72.72,0,0,0,0,.48,7.75,7.75,0,0,0,4.17-2.47S99.91,66.8,96.8,67.56Z"/></g><g id="Groupe_610" data-name="Groupe 610"><g id="Groupe_609" data-name="Groupe 609"><path id="Tracé_4162" data-name="Tracé 4162" class="cls-13" d="M109.7,53.61a4.48,4.48,0,0,0-1-2.76,6.52,6.52,0,0,0-.78,4.84A5.6,5.6,0,0,0,105.48,53a14.42,14.42,0,0,0,.23,4.09s-.94-1.72-2.21-1.92a3.92,3.92,0,0,0,.76,2.83l0,0,0,0a3.1,3.1,0,0,0-2.09-1s-.67,4.46,5.23,6.49A41.6,41.6,0,0,1,114,48.74S110.61,50.46,109.7,53.61Z"/><path id="Tracé_4163" data-name="Tracé 4163" class="cls-12" d="M115.48,58.22a4.93,4.93,0,0,0-2.87.55h0a6.58,6.58,0,0,0,2.58-3.7,2.82,2.82,0,0,0-1.37.29,8.63,8.63,0,0,0,.17-6.62,41.52,41.52,0,0,0-6.59,14.74c5,1.72,8.08-2.69,8.08-2.69a9.89,9.89,0,0,0-2.66.13A5.42,5.42,0,0,0,115.48,58.22Z"/></g><path id="Tracé_4164" data-name="Tracé 4164" class="cls-14" d="M103.56,55.25s-.25,2.47,1.56,3.56A4.13,4.13,0,0,1,104,55.46Z"/><path id="Tracé_4165" data-name="Tracé 4165" class="cls-14" d="M105.54,53.17a9.1,9.1,0,0,0,.63,4.41,17.37,17.37,0,0,1-.15-4.2Z"/><path id="Tracé_4166" data-name="Tracé 4166" class="cls-14" d="M102.81,57.26a1,1,0,0,0-.59-.09,6.68,6.68,0,0,0,2.18,4.65S103.14,60.54,102.81,57.26Z"/></g></g></g><g id="Groupe_629" data-name="Groupe 629"><g id="Groupe_613" data-name="Groupe 613"><path id="Tracé_4167" data-name="Tracé 4167" class="cls-15" d="M90.52,55c-.89.71-.19,2,1.12,1.3S91.64,54.14,90.52,55Z"/><path id="Tracé_4168" data-name="Tracé 4168" class="cls-15" d="M101.72,52.88c-1.3.22-1,1.25.25,1.21S103,52.65,101.72,52.88Z"/><path id="Tracé_4169" data-name="Tracé 4169" class="cls-15" d="M136.65,54.47c-1.79-.17-1.55,1.61,0,1.52S137.58,54.56,136.65,54.47Z"/><path id="Tracé_4170" data-name="Tracé 4170" class="cls-15" d="M128.33,59.11c-1.23-.22-1.47,1.53,0,1.41S129.49,59.32,128.33,59.11Z"/><path id="Tracé_4171" data-name="Tracé 4171" class="cls-15" d="M144.06,62.24c-2,.19-1.11,1.37-.12,1.33S145.49,62.11,144.06,62.24Z"/><path id="Tracé_4172" data-name="Tracé 4172" class="cls-15" d="M135.93,68.84c-1,.23-.94,1.46.43,1.23S137,68.59,135.93,68.84Z"/><path id="Tracé_4173" data-name="Tracé 4173" class="cls-15" d="M85.83,75.81c-1,.23-.93,1.46.43,1.23S86.94,75.56,85.83,75.81Z"/><path id="Tracé_4174" data-name="Tracé 4174" class="cls-15" d="M112.48,73.46c-1,.06-1.43,1.39,0,1.26S114.15,73.37,112.48,73.46Z"/><path id="Tracé_4175" data-name="Tracé 4175" class="cls-15" d="M102.64,79.1c-1.4-.2-1.3,1.56,0,1.3S103.88,79.28,102.64,79.1Z"/><path id="Tracé_4176" data-name="Tracé 4176" class="cls-15" d="M92.44,68c-.85-.29-1.86,1-.5,1.21S93.87,68.49,92.44,68Z"/><path id="Tracé_4177" data-name="Tracé 4177" class="cls-15" d="M127.63,75.83c-.85-.3-1.87,1-.5,1.21S129.05,76.32,127.63,75.83Z"/><path id="Tracé_4178" data-name="Tracé 4178" class="cls-15" d="M120,54.38c-.85-.29-1.86,1-.5,1.21S121.45,54.87,120,54.38Z"/><path id="Tracé_4179" data-name="Tracé 4179" class="cls-15" d="M75.9,64.09c-1.37-.22-1.74,1.35-.5,1.53S77.26,64.32,75.9,64.09Z"/><path id="Tracé_4180" data-name="Tracé 4180" class="cls-15" d="M81.7,59.77c-1.38-.07-1.46,1.58,0,1.41S83.09,59.83,81.7,59.77Z"/></g><g id="Groupe_628" data-name="Groupe 628"><g id="Groupe_614" data-name="Groupe 614"><path id="Tracé_4181" data-name="Tracé 4181" class="cls-16" d="M90.15,54.77c-.89.71-.19,2,1.11,1.3S91.26,53.87,90.15,54.77Z"/><path id="Tracé_4182" data-name="Tracé 4182" class="cls-17" d="M90.15,54.77c-.89.71-.19,2,1.11,1.3S91.26,53.87,90.15,54.77Zm.76,1c-.88.45-1.35-.4-.75-.88C90.91,54.25,91.78,55.28,90.91,55.73Z"/></g><g id="Groupe_615" data-name="Groupe 615"><path id="Tracé_4183" data-name="Tracé 4183" class="cls-18" d="M101.35,52.61c-1.3.22-1,1.25.25,1.21S102.65,52.38,101.35,52.61Z"/><path id="Tracé_4184" data-name="Tracé 4184" class="cls-18" d="M101.35,52.61c-1.3.22-1,1.25.25,1.21S102.65,52.38,101.35,52.61Zm.07.93c-.91,0-1.09-.7-.17-.85s1.08.81.17.85Z"/></g><g id="Groupe_616" data-name="Groupe 616"><path id="Tracé_4185" data-name="Tracé 4185" class="cls-18" d="M136.28,54.2c-1.79-.17-1.55,1.61,0,1.52S137.21,54.29,136.28,54.2Z"/><path id="Tracé_4186" data-name="Tracé 4186" class="cls-18" d="M136.28,54.2c-1.79-.17-1.55,1.61,0,1.52S137.21,54.29,136.28,54.2Zm0,1.18c-1.14.06-1.31-1.24,0-1.12.68.07,1.13,1.05,0,1.12Z"/></g><g id="Groupe_617" data-name="Groupe 617"><path id="Tracé_4187" data-name="Tracé 4187" class="cls-19" d="M128,58.84c-1.23-.22-1.47,1.53,0,1.41S129.12,59.05,128,58.84Z"/><path id="Tracé_4188" data-name="Tracé 4188" class="cls-20" d="M128,58.84c-1.23-.22-1.47,1.53,0,1.41S129.12,59.05,128,58.84Zm-.16,1c-1,.07-.83-1.1,0-1s1,.87,0,1Z"/></g><g id="Groupe_618" data-name="Groupe 618"><path id="Tracé_4189" data-name="Tracé 4189" class="cls-21" d="M143.69,62c-2,.18-1.11,1.36-.12,1.32S145.11,61.84,143.69,62Z"/><path id="Tracé_4190" data-name="Tracé 4190" class="cls-21" d="M143.69,62c-2,.18-1.11,1.36-.12,1.32S145.11,61.84,143.69,62Zm-.24,1c-.68,0-1.29-.79.08-.92,1-.09.6.89-.08.91Z"/></g><g id="Groupe_619" data-name="Groupe 619"><path id="Tracé_4191" data-name="Tracé 4191" class="cls-16" d="M135.55,68.57c-1,.23-.93,1.46.43,1.23S136.67,68.32,135.55,68.57Z"/><path id="Tracé_4192" data-name="Tracé 4192" class="cls-17" d="M135.55,68.57c-1,.23-.93,1.46.43,1.23S136.67,68.32,135.55,68.57Zm.21,1c-.86.15-.93-.63-.27-.78s1.14.64.28.78Z"/></g><g id="Groupe_620" data-name="Groupe 620"><path id="Tracé_4193" data-name="Tracé 4193" class="cls-21" d="M85.45,75.54c-1,.23-.93,1.46.44,1.23S86.57,75.29,85.45,75.54Z"/><path id="Tracé_4194" data-name="Tracé 4194" class="cls-21" d="M85.45,75.54c-1,.23-.93,1.46.44,1.23S86.57,75.29,85.45,75.54Zm.26.92c-1,.16-1.06-.73-.31-.9s1.3.74.31.9Z"/></g><g id="Groupe_621" data-name="Groupe 621"><path id="Tracé_4195" data-name="Tracé 4195" class="cls-21" d="M112.11,73.19c-1,.06-1.43,1.39,0,1.26S113.78,73.1,112.11,73.19Z"/><path id="Tracé_4196" data-name="Tracé 4196" class="cls-21" d="M112.11,73.19c-1,.06-1.43,1.39,0,1.26S113.78,73.1,112.11,73.19Zm-.1.94c-.9.09-.62-.75,0-.79,1.06,0,.9.71,0,.79Z"/></g><g id="Groupe_622" data-name="Groupe 622"><path id="Tracé_4197" data-name="Tracé 4197" class="cls-19" d="M102.27,78.83c-1.4-.2-1.3,1.57,0,1.3S103.51,79,102.27,78.83Z"/><path id="Tracé_4198" data-name="Tracé 4198" class="cls-20" d="M102.27,78.83c-1.4-.2-1.3,1.57,0,1.3S103.51,79,102.27,78.83Zm-.18.94c-.81.16-.87-.93,0-.81s.81.64,0,.81Z"/></g><g id="Groupe_623" data-name="Groupe 623"><path id="Tracé_4199" data-name="Tracé 4199" class="cls-16" d="M92.07,67.72c-.85-.29-1.86,1-.5,1.21S93.49,68.22,92.07,67.72Z"/><path id="Tracé_4200" data-name="Tracé 4200" class="cls-17" d="M92.07,67.72c-.85-.29-1.86,1-.5,1.21S93.49,68.22,92.07,67.72Zm-.53.87c-.92-.12-.24-1,.33-.81,1,.33.59.93-.33.81Z"/></g><g id="Groupe_624" data-name="Groupe 624"><path id="Tracé_4201" data-name="Tracé 4201" class="cls-18" d="M127.25,75.56c-.84-.3-1.86,1-.5,1.21S128.68,76.05,127.25,75.56Z"/><path id="Tracé_4202" data-name="Tracé 4202" class="cls-18" d="M127.25,75.56c-.84-.3-1.86,1-.5,1.21S128.68,76.05,127.25,75.56Zm-.56,1c-1-.13-.26-1.11.36-.9,1.06.37.65,1-.36.9Z"/></g><g id="Groupe_625" data-name="Groupe 625"><path id="Tracé_4203" data-name="Tracé 4203" class="cls-16" d="M119.66,54.11c-.85-.29-1.86,1-.5,1.21S121.08,54.6,119.66,54.11Z"/><path id="Tracé_4204" data-name="Tracé 4204" class="cls-17" d="M119.66,54.11c-.85-.29-1.86,1-.5,1.21S121.08,54.6,119.66,54.11Zm-.4.92c-1-.13-.26-1.09.35-.88,1,.36.63,1-.36.88Z"/></g><g id="Groupe_626" data-name="Groupe 626"><path id="Tracé_4205" data-name="Tracé 4205" class="cls-19" d="M75.53,63.82c-1.37-.22-1.74,1.35-.5,1.53S76.89,64.05,75.53,63.82Z"/><path id="Tracé_4206" data-name="Tracé 4206" class="cls-20" d="M75.53,63.82c-1.37-.22-1.74,1.35-.5,1.53S76.89,64.05,75.53,63.82ZM74.91,65c-.87-.12-.61-1.22.35-1.06s.52,1.19-.35,1.06Z"/></g><g id="Groupe_627" data-name="Groupe 627"><path id="Tracé_4207" data-name="Tracé 4207" class="cls-18" d="M81.33,59.5c-1.38-.06-1.47,1.59,0,1.41S82.72,59.56,81.33,59.5Z"/><path id="Tracé_4208" data-name="Tracé 4208" class="cls-18" d="M81.33,59.5c-1.38-.06-1.47,1.59,0,1.41S82.72,59.56,81.33,59.5Zm-.23,1.09c-1,.13-1-1.06,0-1S82.15,60.46,81.1,60.59Z"/></g></g></g></g></g></g><g id="Soupes" class="cls-22"><text class="cls-23" transform="translate(10 32)">Soupes</text></g></g></svg>