<svg id="Calque_1" data-name="Calque 1" xmlns="http://www.w3.org/2000/svg" viewBox="0 0 138.12 132"><defs><style>.cls-1{fill:#fff;}.cls-2,.cls-3,.cls-8{isolation:isolate;}.cls-3{font-size:16px;fill:#2b2b2b;font-family:SofiaPro-Bold, Sofia Pro;font-weight:700;}.cls-4{fill:#6d9933;}.cls-5{fill:#578021;}.cls-6{fill:#96c655;}.cls-7{fill:#fbb03b;}.cls-8{fill:#ed861f;opacity:0.5;}.cls-9{fill:#fbc571;}.cls-10{fill:#89ba49;}</style></defs><title>app-icon</title><g id="Groupe_1888" data-name="Groupe 1888"><rect id="Rectangle_50-2" data-name="Rectangle 50-2" class="cls-1" x="0.12" width="138" height="132" rx="6"/><g id="de_10_à" data-name="de 10 à" class="cls-2"><text class="cls-3" transform="translate(43.12 90)">de 10 à </text><text class="cls-3" transform="translate(51.81 109)">20 €</text></g><g id="Groupe_1867" data-name="Groupe 1867"><g id="Groupe_1865" data-name="Groupe 1865"><path id="Tracé_8961" data-name="Tracé 8961" class="cls-4" d="M91.8,25.93,89.69,39.51C83.19,42.08,70.3,63.64,65.5,65.57c-6.29-3.62-20-10.88-20-10.88-.09-6.35.15-9.44.15-9.44l1.78-1.84S90,25.42,91.8,25.93Z"/><path id="Tracé_8962" data-name="Tracé 8962" class="cls-5" d="M89.69,39.54c-6.44,2.54-19.11,23.71-24,26a26,26,0,0,0,.21-4.32s.64-1.15.09-1V58.28L66.16,57l1.24-1.63L66,56.5a9.69,9.69,0,0,1,.24-3.6c3.09-2.51,18.18-21.11,24.35-26.7a3.91,3.91,0,0,1,1.27-.28Z"/><path id="Tracé_8963" data-name="Tracé 8963" class="cls-5" d="M46.84,44.08l.64-.67s.36-.15,1-.45c4,2,20.74,10.61,20.74,10.61l-3.09,1.49C64.65,54.17,49.08,45.65,46.84,44.08Z"/><path id="Tracé_8964" data-name="Tracé 8964" class="cls-4" d="M92.41,25.51c-3.81-1.85-16.06-7-18.72-7.26-5.74,3-18.38,24.92-28.57,23.38C54,47.89,65.83,54.51,65.83,54.51,73.42,49.25,83.76,30.29,92.41,25.51Z"/><path id="Tracé_8965" data-name="Tracé 8965" class="cls-6" d="M85.09,27.62c-1.15-1-1.66-2-.54-2.54-4.9-2-8.44-3.59-8.44-3.59a3.6,3.6,0,0,1-4.17,1.78c-3.66,4.11-12.7,15.87-18.69,18,1.69,1,.15,2.87.15,2.87,2.72,1.85,7,4,9.65,5.81,2.33-2.75,4.71-.76,4.71-.76C69.19,47.19,81,32.7,85.09,27.62Z"/><path id="Tracé_8966" data-name="Tracé 8966" class="cls-5" d="M56.21,36.55h0C59.6,37.76,72.15,45,74,46c2.51-3.18,5.14-6.71,7.77-10-3-1.54-15.45-6.89-17.53-7.86A93.69,93.69,0,0,1,56.21,36.55Z"/><path id="Tracé_8967" data-name="Tracé 8967" class="cls-7" d="M82.16,46.67c0-3.17,0-10.37,0-11.06-2.85-1.51-16.6-7.41-17.9-8a36.09,36.09,0,0,0-7.78,8.53c3.66,1.3,18,9.56,18,9.56.81,2.33.12,10.07.12,10.07S80.89,48.94,82.16,46.67Z"/></g><g id="Groupe_1866" data-name="Groupe 1866"><path id="Tracé_8968" data-name="Tracé 8968" class="cls-5" d="M61.2,61.52l.37.09A1,1,0,0,1,61.2,61.52Z"/><path id="Tracé_8969" data-name="Tracé 8969" class="cls-5" d="M60.14,54.75c-4.29-2.12-14.27-7.44-14.27-7.44l-.12,1.12-.12,3.2s5.11,3.48,5.47,3.87c-1.3-.81-4.9-3-5.59-3.41,0-2.39,0-4.15.09-5.26C46.17,47,57.57,53,60.14,54.75Z"/><path id="Tracé_8970" data-name="Tracé 8970" class="cls-5" d="M45.54,53.9V52.66l.12.73s12.94,7.2,15.54,8.1C56.82,60.28,47.44,55.23,45.54,53.9Z"/></g><path id="Tracé_8971" data-name="Tracé 8971" class="cls-8" d="M82.13,35.61h0c0,.72.06,7.89,0,11.07-1.27,2.26-7.56,9.07-7.56,9.07s.7-7.74-.12-10.07l-.34-.18C76.53,44.11,80.71,38,82.13,35.61Z"/><path id="Tracé_8972" data-name="Tracé 8972" class="cls-4" d="M75.57,25.42a1.94,1.94,0,1,0,2.84.7A2.09,2.09,0,0,0,75.57,25.42Z"/><path id="Tracé_8973" data-name="Tracé 8973" class="cls-4" d="M62.5,41.29A2,2,0,0,0,60.15,43V43a2.24,2.24,0,0,0,2.26,2,2,2,0,0,0,2.35-1.62s0-.07,0-.1A2.25,2.25,0,0,0,62.5,41.29Z"/><path id="Tracé_8974" data-name="Tracé 8974" class="cls-9" d="M67.43,30c1.64,1,12.07,5.14,12.07,5.78l0,.63s-4.57,7-5.5,7.78c2-.58,6.41-7.47,6.86-8.32C80.13,34.79,70.58,30.68,67.43,30Z"/><path id="Tracé_8975" data-name="Tracé 8975" class="cls-10" d="M68.49,24.36a61.36,61.36,0,0,1,5.26-4.54c.58-.33,8.59,2.82,11.85,4-2.32-2-10.82-5-12.1-4.6C72.09,19.7,68.79,23.76,68.49,24.36Z"/></g></g></svg>