<svg id="Calque_1" data-name="Calque 1" xmlns="http://www.w3.org/2000/svg" viewBox="0 0 42.57 41.57"><defs><style>.cls-1{fill:#575d90;}.cls-2{fill:#949acb;}.cls-3{fill:#32365f;}.cls-4{fill:#565e9e;}.cls-5{fill:#e7eced;}.cls-6{fill:#f4b321;}.cls-7{fill:#7383bf;}.cls-8{fill:#424a60;}</style></defs><title>app-icon</title><g id="Groupe_1870" data-name="Groupe 1870"><g id="Groupe_1868" data-name="Groupe 1868"><g id="restaurant-3"><circle id="Ellipse_5-3" data-name="Ellipse 5-3" class="cls-1" cx="21.43" cy="20.76" r="20.5"/><circle id="Ellipse_6-3" data-name="Ellipse 6-3" class="cls-2" cx="21.33" cy="20.66" r="13.8"/><path id="Tracé_533-3" data-name="Tracé 533-3" class="cls-3" d="M10.43,20.66A20.42,20.42,0,0,1,26,.86a20.35,20.35,0,1,0-9.4,39.6,21.3,21.3,0,0,0,9.4,0A20.32,20.32,0,0,1,10.43,20.66Z"/><path id="Tracé_534-3" data-name="Tracé 534-3" class="cls-4" d="M14.23,32.46a20.27,20.27,0,0,1,0-23.7,13.79,13.79,0,0,0,0,23.7Z"/></g><g id="Groupe_5" data-name="Groupe 5"><g id="Ellipse_3" data-name="Ellipse 3"><circle id="Ellipse_7" data-name="Ellipse 7" class="cls-5" cx="21.2" cy="20.42" r="11.9"/></g><g id="Tracé_1" data-name="Tracé 1"><path id="Tracé_541" data-name="Tracé 541" class="cls-6" d="M21.29,10.22a10.4,10.4,0,1,1-10.4,10.4h0a10.45,10.45,0,0,1,10.4-10.4m0-1.7a12.1,12.1,0,1,0,12.1,12.1h0A12.08,12.08,0,0,0,21.33,8.52Z"/></g><g id="Groupe_1" data-name="Groupe 1"><g id="Tracé_2" data-name="Tracé 2"><path id="Tracé_542" data-name="Tracé 542" class="cls-7" d="M21.32,10.55a.31.31,0,0,0-.3.3h0v.3a.32.32,0,0,0,.3.3.47.47,0,0,0,.3-.3h0v-.3A.31.31,0,0,0,21.32,10.55Z"/></g><g id="Tracé_3" data-name="Tracé 3"><path id="Tracé_543" data-name="Tracé 543" class="cls-7" d="M21.32,29.53a.32.32,0,0,0-.3.3h0v.3a.32.32,0,0,0,.3.3.45.45,0,0,0,.3-.3h0v-.3A.32.32,0,0,0,21.32,29.53Z"/></g><g id="Tracé_4" data-name="Tracé 4"><path id="Tracé_544" data-name="Tracé 544" class="cls-7" d="M30.94,20.21h-.3a.32.32,0,0,0-.3.3.45.45,0,0,0,.3.3h.3a.3.3,0,1,0,0-.6Z"/></g><g id="Tracé_5" data-name="Tracé 5"><path id="Tracé_545" data-name="Tracé 545" class="cls-7" d="M12,20.21h-.3a.31.31,0,0,0-.3.3.43.43,0,0,0,.3.3H12a.3.3,0,1,0,0-.6Z"/></g><g id="Tracé_6" data-name="Tracé 6"><path id="Tracé_546" data-name="Tracé 546" class="cls-7" d="M28.51,12.86l-.2.2a.36.36,0,0,0,0,.5.36.36,0,0,0,.48,0h0l.2-.2a.35.35,0,0,0-.5-.5Z"/></g><g id="Tracé_7" data-name="Tracé 7"><path id="Tracé_547" data-name="Tracé 547" class="cls-7" d="M13.87,27.5l-.2.2a.36.36,0,0,0,0,.5.37.37,0,0,0,.48,0h0l.2-.2a.33.33,0,0,0,0-.47l0,0A.45.45,0,0,0,13.87,27.5Z"/></g><g id="Tracé_8" data-name="Tracé 8"><path id="Tracé_548" data-name="Tracé 548" class="cls-7" d="M28.73,27.52a.36.36,0,0,0-.5,0,.34.34,0,0,0,0,.48l.2.2a.35.35,0,0,0,.5-.5h0Z"/></g><g id="Tracé_9" data-name="Tracé 9"><path id="Tracé_549" data-name="Tracé 549" class="cls-7" d="M14.07,12.86a.36.36,0,0,0-.5,0,.36.36,0,0,0,0,.48h0l.2.2a.35.35,0,0,0,.5-.5h0Z"/></g></g><g id="Tracé_540" data-name="Tracé 540"><path id="Tracé_550" data-name="Tracé 550" class="cls-8" d="M19.69,21.15h-2.8a.6.6,0,0,1-.6-.6.6.6,0,0,1,.6-.6h2.8a.6.6,0,0,1,.6.6A.59.59,0,0,1,19.69,21.15Z"/></g><g id="Tracé_539" data-name="Tracé 539"><path id="Tracé_551" data-name="Tracé 551" class="cls-8" d="M21.27,19.37a.65.65,0,0,1-.6-.6V15a.6.6,0,1,1,1.2,0h0v3.8a.57.57,0,0,1-.55.6Z"/></g><g id="Tracé_538" data-name="Tracé 538"><path id="Tracé_552" data-name="Tracé 552" class="cls-8" d="M21.34,22.22a1.6,1.6,0,1,1,1.6-1.6h0a1.58,1.58,0,0,1-1.56,1.6Zm0-2.1a.4.4,0,1,0,0,.8.4.4,0,0,0,.4-.4h0A.43.43,0,0,0,21.34,20.12Z"/></g></g></g></g></svg>