<svg id="Calque_1" data-name="Calque 1" xmlns="http://www.w3.org/2000/svg" viewBox="0 0 138.39 132"><defs><style>.cls-1{fill:#fff;}.cls-2,.cls-3,.cls-6,.cls-8{isolation:isolate;}.cls-3{font-size:16px;fill:#2b2b2b;font-family:SofiaPro-Bold, Sofia Pro;font-weight:700;}.cls-4{fill:#d99658;}.cls-5{fill:#e3ac78;}.cls-6{fill:#bd702a;opacity:0.5;}.cls-7{fill:#603813;}.cls-8{fill:#402308;opacity:0.6;}.cls-9{fill:#8f5825;}</style></defs><title>app-icon</title><g id="Groupe_1889" data-name="Groupe 1889"><rect id="Rectangle_51-2" data-name="Rectangle 51-2" class="cls-1" width="138" height="132" rx="6"/><g id="de_20_à" data-name="de 20 à" class="cls-2"><text class="cls-3" transform="translate(41.83 90)">de 20 à </text><text class="cls-3" transform="translate(51.78 109)">30 €</text></g><g id="Groupe_1864" data-name="Groupe 1864"><g id="Groupe_1863" data-name="Groupe 1863"><path id="Tracé_8950" data-name="Tracé 8950" class="cls-4" d="M65.83,27c1.35,4.77-11.91,1-16.44,21.85-2.19,10,5,17.1,19.5,17.25s22-9.27,19.42-19.11C85.43,36.09,74.84,30.78,71.09,28.86c-1.54-3,3-6,3.6-8.31s-4.15,1.05-4.5-.69-1.2-6.12-5.53-2.4-2,4.5-.39,6.45S65.74,26.73,65.83,27Z"/><path id="Tracé_8951" data-name="Tracé 8951" class="cls-5" d="M63.43,19.77c.54-.54,3.09-2.28,3.06-1.62s-.09,4.68.48,5c.3-2,1.56-6,1.17-6.33S66,16.11,63.43,19.77Z"/><path id="Tracé_8952" data-name="Tracé 8952" class="cls-5" d="M54,52.93c.24,3.9,13,9.66,21.58,5.49S84,45.37,80.12,42.85C77.75,42,78.8,54,68.8,54.25S54.22,51.7,54,52.93Z"/><g id="Groupe_1862" data-name="Groupe 1862"><path id="Tracé_8953" data-name="Tracé 8953" class="cls-6" d="M70.82,27c.39-2.22,3.06-4.38,3.75-6.18a22.21,22.21,0,0,1-5.26,4.74c-1.29.63-2.4.63-2.43-.15s-4-3.36-4.41-5.7c-1.08,1.86.54,2.67,1.74,4.11A5.31,5.31,0,0,1,65.8,27h0c1.59.06,3.25.09,3.81.12A2.75,2.75,0,0,0,70.82,27Z"/><path id="Tracé_8954" data-name="Tracé 8954" class="cls-6" d="M69.2,23.52c1,.45,3.12-3.15,4.74-3.81-1.23.12-3.54,1.35-3.78.15A8,8,0,0,0,69,16.77C69.26,18.81,68.09,23,69.2,23.52Z"/></g><path id="Tracé_8955" data-name="Tracé 8955" class="cls-6" d="M71.05,28.83a2.75,2.75,0,0,1-.29-1.44c-1.66,0-3.37,0-4.87,0,.09.9-.39,1.44-1.26,2,1-.12,2.07-.24,3.06-.27,3.84-.12,10.75,7.08,14.08,12.48,3.18,5.17,4.83,11-3,17.11-3.93,3.09-12.9,2.94-19.51,1.35-5.22-1.26-10-5.94-9.93-10.86C47.38,59.05,54.55,66,68.89,66.13c14.53.18,22-9.27,19.42-19.11C85.43,36.09,74.81,30.78,71.05,28.83Z"/><path id="Tracé_8956" data-name="Tracé 8956" class="cls-7" d="M71.33,26.4c-.09-1.17-3.63-2.16-6.4-.66s.48,2.58,1.44,2S71.33,26.4,71.33,26.4Z"/><path id="Tracé_8957" data-name="Tracé 8957" class="cls-8" d="M70.4,25.44c0,.15-.1.3-.45.3-.85.06-2.17.57-3.37.81s-2.1-.51-.87-1.2a4.17,4.17,0,0,0-.81.36c-2.76,1.5.48,2.58,1.44,1.95s5-1.29,5-1.29C71.3,26,70.93,25.71,70.4,25.44Z"/><path id="Tracé_8958" data-name="Tracé 8958" class="cls-7" d="M64.9,29.22c-.21-1.44,4-3.93,7-2.7,2.85,1.14.65,3-.85,2.4A10.5,10.5,0,0,0,64.9,29.22Z"/></g><path id="Tracé_8959" data-name="Tracé 8959" class="cls-9" d="M65.2,57.43l-.09-2.61a9.56,9.56,0,0,1-4.44-1.32c.24-.75.51-1.5.75-2.25a8.17,8.17,0,0,0,4.14,1.35c1.86.06,3.06-.81,3.09-2.16s-.9-2.1-3-3c-2.91-1.17-4.59-2.46-4.44-4.89s1.92-4,4.65-4.3l.27-2.61,2,.09c-.09.84-.18,1.65-.27,2.49a8,8,0,0,1,3.6,1.11l-.9,2.16A6.46,6.46,0,0,0,67,40.41c-2-.09-2.79,1-2.88,2-.09,1.2.78,1.87,3.21,2.89,2.94,1.17,4.26,2.67,4.23,5.07,0,2.19-1.56,4.14-4.5,4.5l.09,2.7C66.55,57.46,65.89,57.46,65.2,57.43Z"/><path id="Tracé_8960" data-name="Tracé 8960" class="cls-8" d="M71.93,26.52a2.18,2.18,0,0,0-.6-.18c1.44.51.87,1.86.18,1.65a16.87,16.87,0,0,0-4.14,0c-1,.12-1.26-.24-.27-1l0,0c-1.28.66-2.22,1.56-2.09,2.25a10.49,10.49,0,0,1,6.15-.3C72.59,29.46,74.75,27.66,71.93,26.52Z"/></g></g></svg>