<svg xmlns="http://www.w3.org/2000/svg" xmlns:xlink="http://www.w3.org/1999/xlink" width="88" height="88" viewBox="0 0 88 88">
  <defs>
    <filter id="Ellipse_1" x="0" y="0" width="88" height="88" filterUnits="userSpaceOnUse">
      <feOffset dy="3" input="SourceAlpha"/>
      <feGaussianBlur stdDeviation="3" result="blur"/>
      <feFlood flood-color="#575d90" flood-opacity="0.502"/>
      <feComposite operator="in" in2="blur"/>
      <feComposite in="SourceGraphic"/>
    </filter>
  </defs>
  <g id="Groupe_6" data-name="Groupe 6" transform="translate(-251 -54)">
    <g transform="matrix(1, 0, 0, 1, 251, 54)" filter="url(#Ellipse_1)">
      <circle id="Ellipse_1-2" data-name="Ellipse 1" cx="35" cy="35" r="35" transform="translate(9 6)" fill="#575d90"/>
    </g>
    <path id="Soustraction_1" data-name="Soustraction 1" d="M56.336,44.914a20.463,20.463,0,0,1-5.616-.786v.022L48.844,43.5h-.008A20.565,20.565,0,0,1,53.187,4L52.61,1.12A.936.936,0,0,1,53.528,0h5.616a.936.936,0,0,1,.918,1.12L59.485,4A20.343,20.343,0,0,1,70.9,9.774a20.764,20.764,0,0,1,2.634,3.231,20.5,20.5,0,0,1,3.011,7.4,20.672,20.672,0,0,1-1.129,11.679,20.51,20.51,0,0,1-1.882,3.582A20.764,20.764,0,0,1,70.9,38.894,20.446,20.446,0,0,1,63.823,43.5v.006l-1.868.652h0v-.032A20.464,20.464,0,0,1,56.336,44.914ZM53.554,5.84a18.74,18.74,0,1,0,5.563,0l-.369,1.844a17.135,17.135,0,0,1,3.189.775A16.941,16.941,0,0,1,67.407,11.6a17.056,17.056,0,0,1,5.136,7.734,16.953,16.953,0,0,1,.683,3.119,17.156,17.156,0,0,1-.465,6.516,16.937,16.937,0,0,1-2.75,5.678,17.059,17.059,0,0,1-7.348,5.673,16.956,16.956,0,0,1-3.062.9,17.132,17.132,0,0,1-3.266.314h0a17.134,17.134,0,0,1-3.267-.314,16.94,16.94,0,0,1-5.86-2.34,17.056,17.056,0,0,1-6.181-6.927A16.953,16.953,0,0,1,39.9,28.968a17.152,17.152,0,0,1-.464-6.517,16.938,16.938,0,0,1,1.918-6.011,17.057,17.057,0,0,1,6.47-6.658,16.955,16.955,0,0,1,2.9-1.328,17.132,17.132,0,0,1,3.189-.774Zm2.781,21.14h0L51.928,38.634a14.972,14.972,0,0,0,8.816,0L56.336,26.98Zm1.61-1.036L62.5,37.974a14.827,14.827,0,0,0,7.481-7.481Zm-3.219,0L42.7,30.493a14.827,14.827,0,0,0,7.481,7.481Zm15.911-6.017L59.931,23.975l-.949.359.949.359,10.706,4.049a14.917,14.917,0,0,0,0-8.815Zm-28.6,0a14.919,14.919,0,0,0,0,8.815l10.706-4.049.949-.359-.949-.359ZM62.5,10.694h0l-4.55,12.031,12.031-4.55A14.826,14.826,0,0,0,62.5,10.694Zm-12.319,0A14.827,14.827,0,0,0,42.7,18.174l12.031,4.55-4.55-12.031Zm4.117-1.162h0a15.024,15.024,0,0,0-2.365.5l4.408,11.654,4.408-11.654a15.09,15.09,0,0,0-2.365-.5l-1.126,5.627a.936.936,0,0,1-1.835,0L54.293,9.532Zm.377-7.66L56.336,10.2,58,1.872H54.669ZM37.617,40.245a.934.934,0,0,1-.719-.337l-.485-.582A19.067,19.067,0,0,1,32,27.142a.936.936,0,0,1,1.872,0A17.225,17.225,0,0,0,37.85,38.127l.485.582a.936.936,0,0,1-.718,1.536ZM65.7,16.846H63.824V14.975H65.7v1.872Z" transform="matrix(0.799, 0.602, -0.602, 0.799, 264.887, 42.5)" fill="#fff"/>
  </g>
</svg>
