<svg id="Calque_1" data-name="Calque 1" xmlns="http://www.w3.org/2000/svg" xmlns:xlink="http://www.w3.org/1999/xlink" viewBox="0 0 147 110.52"><defs><style>.cls-1,.cls-22,.cls-23{fill:none;}.cls-2{fill:#fff;}.cls-3{clip-path:url(#clip-path);}.cls-4{fill:#f2f2f2;}.cls-5{fill:#d5d4d7;}.cls-6{fill:#bfbdc2;}.cls-7{fill:#a4cb00;}.cls-8{fill:#bbd840;}.cls-9{fill:#84b200;}.cls-10{fill:#976e3f;}.cls-11{fill:#85551e;}.cls-12{fill:#b60000;}.cls-13{fill:red;}.cls-14{fill:#ffb44d;}.cls-15{fill:#ff980b;}.cls-16{fill:#a98760;}.cls-17{fill:#515b43;}.cls-18{fill:#364226;}.cls-19{fill:#c2ac84;}.cls-20{fill:#ffcd88;}.cls-21{fill:#e08d48;}.cls-22{stroke:#0b454b;}.cls-22,.cls-23{stroke-miterlimit:10;stroke-width:0.25px;}.cls-23{stroke:#71814b;}.cls-24,.cls-25{isolation:isolate;}.cls-25{font-size:22px;font-family:SofiaProSemiBold, Sofia Pro;}.cls-26{letter-spacing:0em;}.cls-27{letter-spacing:-0.01em;}</style><clipPath id="clip-path"><rect class="cls-1" width="147" height="110" rx="6"/></clipPath></defs><title>app-icon</title><g id="Groupe_1893" data-name="Groupe 1893"><rect id="Rectangle_15-3" data-name="Rectangle 15-3" class="cls-2" width="147" height="110" rx="6"/><g class="cls-3"><g id="Groupe_de_masques_7" data-name="Groupe de masques 7"><g id="Groupe_233" data-name="Groupe 233"><path id="Tracé_1198" data-name="Tracé 1198" class="cls-4" d="M152.17,93c0,17.94-29.33,35.35-65.5,35.35S21.18,111,21.18,93,50.5,60.53,86.67,60.53,152.17,75.08,152.17,93Z"/><path id="Tracé_1199" data-name="Tracé 1199" class="cls-5" d="M150.34,93c0,16.8-28.5,30.41-63.67,30.41S23,109.81,23,93,46.79,60.53,86.67,60.53,150.34,76.22,150.34,93Z"/><path id="Tracé_1200" data-name="Tracé 1200" class="cls-6" d="M135.47,94.85a11.17,11.17,0,0,0-3.22-3.31c-13.5-10.1-31.38-12.31-48.2-11.36s-33.44,4.67-50.29,5l-2.51.55a6.5,6.5,0,0,0-4.9,7.78,8.2,8.2,0,0,0,.3,1,6.93,6.93,0,0,1,.93,2.31c.09,1.11-.6,2.43.17,3.24s2.06.34,2.83,1c1,.83.31,2.63,1.16,3.6,1.16,1.33,3.27-.3,5-.18,2,.13,3.18,2.59,5.15,3.1,1.17.3,2.4-.16,3.6-.37s2.67,0,3.24,1.05a10.3,10.3,0,0,1,.44,2c.4,1.43,1.84,2.26,3.16,3a22.56,22.56,0,0,0,5.77,2.37,20.68,20.68,0,0,1,2.68.59A14.14,14.14,0,0,1,64,118.08c7.44,5.1,17.17,4.87,26.18,4.45,2.09-.1,4.3-.23,6-1.42a18.41,18.41,0,0,1,2.08-1.55c1.46-.74,3.21-.38,4.84-.54,2.1-.2,4-1.28,6-2,3.9-1.32,8.13-1.09,12.24-1.4s8.49-1.37,11.16-4.5c1.83-2.15,2.6-5,3.23-7.74S136.9,97.4,135.47,94.85Z"/><g id="Groupe_166" data-name="Groupe 166"><path id="Tracé_1201" data-name="Tracé 1201" class="cls-7" d="M156.29,77a20.14,20.14,0,0,0,2.9-3c-.23-.72-1.47-.28-2-.82-.38-.37-.21-1,.05-1.5a2.31,2.31,0,0,0,.54-1.48c-.68.14-1.3-.52-1.45-1.2a11.13,11.13,0,0,1-.05-2.08,1.81,1.81,0,0,0-1-1.7.72.72,0,0,0-.56,0c-.4.22-.36.79-.39,1.24s-.44,1-.82.77a2,2,0,0,1-.24-.26c-.42-.46-1.2-.25-1.66.17a16,16,0,0,1-1.26,1.35c-.5.35-1.36.36-1.6-.22-.34-.83,1-1.49,1-2.38a.9.9,0,0,0-.9-.92.92.92,0,0,0-.9.73c-.07.44.19.91,0,1.32a1.11,1.11,0,0,1-1.17.53,9,9,0,0,0-1.37-.19,2.81,2.81,0,0,1-.65,0,1,1,0,0,1-.75-1,3,3,0,0,1,.4-1.31c-.64,0-1.1.6-1.62,1s-1.44.45-1.65-.16.4-1,.84-1.37.82-1.1.35-1.43a.87.87,0,0,0-.45-.12c-.76,0-1.7.12-2.13-.51s-.06-1.26.22-1.86.46-1.4,0-1.82a1.92,1.92,0,0,1-2.61-.77,2.06,2.06,0,0,1-.2-.54c-.14-.33-.7-.22-.86.11a1.7,1.7,0,0,0,0,1.07,1.18,1.18,0,0,1-.11,1.05c-.36.42-1.05.2-1.58.38-1.32.46-.7,2.92-2,3.5-.62.29-.61.23-1.17-.16a5.72,5.72,0,0,1-1.9-1.48,1.94,1.94,0,0,1-.12-2.25,7.63,7.63,0,0,1,1.09-.88,1,1,0,0,0,.33-1.24,1.1,1.1,0,0,0-.84-.35,3.41,3.41,0,0,0-3.36,2.41c-.16.56-.16,1.15-.34,1.7a1.53,1.53,0,0,1-1.19,1.14c-.54,0-1-.35-1.54-.46-1.15-.23-2.37.87-3.42.35S119,60.43,118,60.42c-.57,0-1.07.5-1.62.38s-.89-1.08-1.53-1.32c-.22-.08-.47-.06-.69-.14a1.79,1.79,0,0,1-.87-.89A7.3,7.3,0,0,1,112,55.09c-.71-.06-1.28.8-2,.66s-.78-.74-1.09-1.2-1.1-.77-1.35-.27l-.3-2A4.72,4.72,0,0,0,104.63,54,13.5,13.5,0,0,1,106,49.91a2.25,2.25,0,0,0-2.57,1.81,4.45,4.45,0,0,1-.22,1.49c-.23.45-1.05.57-1.17.08.06.55-.81.66-1.27.36s-.89-.8-1.44-.74c-.82.09-1.24,1.37-2,1.2A1,1,0,0,1,96.59,53c0-1.2.93-2.17,1.8-3a4.07,4.07,0,0,0-4.17,3.25l-1-1.06c-.32.61-1,1.32-1.57.9-.3-.23-.33-.67-.51-1a1.17,1.17,0,0,0-1.64-.28,1.09,1.09,0,0,0-.4.5c-.5.08-.92,0-.88-.52a1,1,0,0,1-1.19-.34,2.81,2.81,0,0,1-.39-1.29,2.07,2.07,0,0,1-1.69,0,3.73,3.73,0,0,0-.53-3.14l-.93.23.06,1.2L82,47.28a2.78,2.78,0,0,1-1.56,2.9,1.93,1.93,0,0,1-.45-2c.12-.32.34-.65.23-1A.42.42,0,0,0,79.7,47c.1-.55-.65-1.13-1.26-1A2.73,2.73,0,0,0,77,47.56c-.08-.59-.29-1.32-.87-1.4s-1,.67-1.25,1.26-.81,1.28-1.38,1l-.21-1.69a2,2,0,0,0-1.35,1.92l-.7-.46a4.75,4.75,0,0,1,.1,1.95A3,3,0,0,1,70,48.86a4.3,4.3,0,0,0-.75,3.3,6.3,6.3,0,0,0-1.81-2,5.25,5.25,0,0,1-.19,3.3,5.34,5.34,0,0,1-2.47-2.9,2.08,2.08,0,0,1-2.53-.24,2.9,2.9,0,0,1-.26,2.5c-.53.69-1.86.67-2.1-.16A3.05,3.05,0,0,1,60,51.39c.05-.42-.1-.94-.52-1-.44.49-1.1,1-1.7.74a1.09,1.09,0,0,1-.35-1.41,3.11,3.11,0,0,1,1.14-1.11,2.53,2.53,0,0,0-2.81,1.2c0-.6,0-1.2,0-1.79-.47-.3-1,.22-1.28.72s-.52,1.13-1.07,1.18a3.72,3.72,0,0,1-.66-.08,1.08,1.08,0,0,0-1,.63c-.12.27-.16.64-.43.77-.49.23-.8-.57-.67-1.09s.29-1.23-.2-1.46-.95.4-1.4.74c-1.5,1.16-4.06-1-5.43.29-.55.52-.6,1.4-1.08,2a1.75,1.75,0,0,1-2.46.07,1.81,1.81,0,0,1-.25-.3c-.85.64-.62,2-.26,2.94s.75,2.21.06,3c-.22.26-.54.45-.69.76a2.2,2.2,0,0,0,0,1.27c.07.43,0,1-.44,1.1s-.68-.11-1,0c-.47.23-.22.94.08,1.37s.51,1.18,0,1.36c-.31.11-.64-.14-1-.09-.48.06-.64.66-1,1a1.37,1.37,0,0,1-1.91-.3l0,0a3,3,0,0,1-.38-2.15A1.86,1.86,0,0,0,32,63.36a2.94,2.94,0,0,0,.7,2,2,2,0,0,0,1.19.79,1,1,0,0,0,1.16-.66,28.72,28.72,0,0,0,8.65,12.55l42.9,10.3c6.81,3.31,11.83,9.4,16.14,15.64a47.43,47.43,0,0,0,4.3,5.69,13.16,13.16,0,0,0,5.9,3.84c6,1.65,12.38-2.69,18.44-1.26a2.88,2.88,0,0,0,2.23,0c.63-.42.76-1.29,1.26-1.86.88-1,2.48-.7,3.78-1s2.59-.81,2.88-2.12c.14-.9,1.42-1,2.29-.69s2,.59,2.53-.15a1.2,1.2,0,0,1-.64-1.56l0,0a1.12,1.12,0,1,0,.54-2.18,1.66,1.66,0,0,0-.32,0,1.17,1.17,0,0,1-.16-1.31c.27-.42.89-.6,1-1.09.15-.76-1.12-1.16-1.14-1.93a4.28,4.28,0,0,1,2.94.63,7.27,7.27,0,0,0,1,.93c.39.22,1,.16,1.15-.27s-.2-.76-.1-1.14c.15-.63,1.11-.49,1.62-.09s1.08,1,1.69.74a1.05,1.05,0,0,0,.44-1.36,3.16,3.16,0,0,0-1-1.17,1.75,1.75,0,0,1,1.54-.46,4.58,4.58,0,0,0,1.15.27,1.27,1.27,0,0,0,1.06-1.44s0-.06,0-.09a2.05,2.05,0,0,0-1.44-1.4,5.89,5.89,0,0,0-2.09-.17l.9-1.87c-.49.4-1.24-.3-1.15-.93A2.61,2.61,0,0,1,154.47,89a2.09,2.09,0,0,0,1-1.54,4.59,4.59,0,0,1-2.13-1.38l1.9-.38-.42-.52c0-.61.85-.76,1.46-.76s1.44-.27,1.33-.87-1.23-.63-1.46-1.25a3.88,3.88,0,0,1,2-.76l-1.6-2.12a4.2,4.2,0,0,0,1.82-1Z"/><g id="Groupe_165" data-name="Groupe 165"><path id="Tracé_1202" data-name="Tracé 1202" class="cls-8" d="M33.39,63.22a3.83,3.83,0,0,1-.07-1.47A1.81,1.81,0,0,0,32,63.36a2.89,2.89,0,0,0,.69,2,2.35,2.35,0,0,0,.91.71A3.47,3.47,0,0,1,33.18,65,2.72,2.72,0,0,1,33.39,63.22Z"/><path id="Tracé_1203" data-name="Tracé 1203" class="cls-8" d="M39.05,65.17a.63.63,0,0,0,.37-.12c.48-.35,0-1.21.32-1.69L41,64.49a10.5,10.5,0,0,0-.15-4.86.81.81,0,0,1,.93.63c1-1.57.31-3.7.86-5.48a1,1,0,0,1,.36-.56c.34-.22.8,0,1.19-.08.78-.17.82-1.28,1.29-1.93.92-1.32,3.1-.47,4.52-1.24a1.93,1.93,0,0,0,.53-.41,1.19,1.19,0,0,1,0-.42c.13-.52.29-1.23-.19-1.46s-.95.4-1.4.74c-1.5,1.15-4.07-1-5.44.28-.55.53-.6,1.41-1.08,2a1.73,1.73,0,0,1-2.45.08,1.48,1.48,0,0,1-.26-.3c-.84.64-.62,2-.25,2.94s.75,2.21,0,3c-.22.26-.54.45-.68.75a2.23,2.23,0,0,0,0,1.28c.07.43,0,1-.44,1.1s-.68-.11-1,0c-.47.23-.21.94.09,1.37s.5,1.17,0,1.36c-.3.11-.64-.14-1-.09a.92.92,0,0,0-.6.47c.29.18.56.37.83.57A3.38,3.38,0,0,0,39.05,65.17Z"/><path id="Tracé_1204" data-name="Tracé 1204" class="cls-8" d="M132.42,64.91a.78.78,0,0,0,.21.46c.49.4,1.15-.65,1.73-.41s.31.93.59,1.36a1,1,0,0,0,1.2.24,5.81,5.81,0,0,0,1.09-.74,1.45,1.45,0,0,1,1.23-.32l.35.13a.84.84,0,0,0,.56-.13,3.21,3.21,0,0,0,1.07-1.67,7.16,7.16,0,0,1,.45-.87,1.39,1.39,0,0,1-1.14-.49c-.37-.54-.06-1.27.22-1.86s.46-1.4,0-1.82a1.93,1.93,0,0,1-2.61-.77,2.06,2.06,0,0,1-.2-.54c-.14-.34-.7-.22-.86.11a1.71,1.71,0,0,0,0,1.07,1.16,1.16,0,0,1-.11,1c-.36.42-1.05.2-1.58.38-1.32.46-.7,2.93-2,3.51l-.3.13A8,8,0,0,0,132.42,64.91Z"/><path id="Tracé_1205" data-name="Tracé 1205" class="cls-8" d="M52,51.85a.46.46,0,0,0,.33-.13,6.68,6.68,0,0,0,.91-.85c.17-.19.4-.4.63-.3s.22.28.35.41A.75.75,0,0,0,55,51a2.66,2.66,0,0,0,1.48-2,2.3,2.3,0,0,0-.72.8c0-.59,0-1.19,0-1.79-.47-.3-1,.23-1.29.73s-.51,1.13-1.07,1.18a4.62,4.62,0,0,1-.65-.08,1.08,1.08,0,0,0-.9.42l-.07,1C51.71,51.52,51.74,51.81,52,51.85Z"/><path id="Tracé_1207" data-name="Tracé 1207" class="cls-9" d="M119.23,110.78l-4.74-.36a9.29,9.29,0,0,1,5.94-2.41,5.8,5.8,0,0,0,1.76-.18,4.72,4.72,0,0,0,1.66-1.28,32.22,32.22,0,0,1,10.3-7c.47-.2,1.2-.28,1.35.21a52.47,52.47,0,0,0-10.56,8.14c-.32.32-.58,1-.15,1.13l4.92-1.48-3.2,3a2.78,2.78,0,0,0,2.6,0,11.63,11.63,0,0,1,2.5-1c1.09-.2,2.33.13,3.24-.49s1.05-2.24.92-3.5c-.05-.52-.23-1.17-.75-1.23,2.54-1.22,5.26-2.61,6.49-5.15.34-.69.61-1.51,1.3-1.83a3.57,3.57,0,0,0,.7,2,3.74,3.74,0,0,0,1.66-1.81,1.5,1.5,0,0,0,0-1.38c-.43-.69-1.47-.52-2.24-.27l-4.48,1.45c-.31-.36,0-.91.41-1.21,1.53-1.29,3.51-1.88,5.28-2.8a18.09,18.09,0,0,0,7.31-7.5,8,8,0,0,0,.69-1.59,14.39,14.39,0,0,0,.33-2.07c.26-1.9.94-3.95,0-5.65a5.23,5.23,0,0,0-2.91-2.23c-4.38-1.64-9.27-.4-13.73,1A184.76,184.76,0,0,0,94.66,94.13a65,65,0,0,1,8.1,9.88,48.43,48.43,0,0,0,4.29,5.69,13.24,13.24,0,0,0,5.91,3.84,11.78,11.78,0,0,0,3.18.38C117.22,112.92,118.25,111.88,119.23,110.78Z"/><path id="Tracé_1208" data-name="Tracé 1208" class="cls-7" d="M153.16,86.06l1.9-.38-.41-.51-.34-.17c-.36-.19-.79-.5-.72-.9s.4-.51.67-.7.54-.56.34-.84-.76-.21-.86-.55A19.68,19.68,0,0,1,156,78.78c-.47.13-1.14.14-1.26-.33a.72.72,0,0,1,0-.41c.18-.51.57-.93.7-1.45s-.24-1.23-.76-1.11c-.19,0-.36.19-.55.17-.37,0-.41-.56-.29-.91s.28-.79,0-1-.69,0-1,.21-.82.28-.94-.06a.69.69,0,0,1,0-.35l.25-1.27c-.53-.13-1,.31-1.44.64s-1.18.5-1.44,0a1.08,1.08,0,0,1,0-.77c.27-1.22.55-2.44.84-3.65l0,0c-.5.36-1.37.36-1.6-.22-.35-.83,1-1.49,1-2.38a.91.91,0,0,0-1.8-.19c-.07.44.18.91,0,1.32a1.11,1.11,0,0,1-1.17.53,9.08,9.08,0,0,0-1.36-.19,2.88,2.88,0,0,1-.65,0,1,1,0,0,1-.75-1,2.87,2.87,0,0,1,.4-1.3c-.64,0-1.1.6-1.63,1s-1.44.45-1.64-.16.39-1,.84-1.37.82-1.1.35-1.43a.93.93,0,0,0-.46-.12c-.31,0-.66,0-1,0a7.16,7.16,0,0,0-.45.87,3.34,3.34,0,0,1-1.07,1.68.86.86,0,0,1-.56.12,3.59,3.59,0,0,1-.35-.12,1.44,1.44,0,0,0-1.23.31,5.66,5.66,0,0,1-1.09.74,1,1,0,0,1-1.2-.24c-.29-.43-.11-1.17-.59-1.36s-1.24.82-1.73.42a.73.73,0,0,1-.21-.47,6.75,6.75,0,0,1-.1-1.19c-.34.12-.42,0-.87-.29a5.72,5.72,0,0,1-1.9-1.48,1.94,1.94,0,0,1-.12-2.26,8.32,8.32,0,0,1,1.09-.87,1,1,0,0,0,.32-1.24,1.07,1.07,0,0,0-.83-.35,3.4,3.4,0,0,0-3.36,2.4c-.16.56-.16,1.16-.34,1.71A1.54,1.54,0,0,1,125,62.48c-.54,0-1-.35-1.54-.46-1.15-.24-2.37.87-3.42.35-.9-.45-1.19-1.93-2.19-1.95-.57,0-1.08.5-1.62.39s-.89-1.09-1.53-1.32c-.22-.08-.47-.06-.69-.14a1.79,1.79,0,0,1-.87-.89,7.34,7.34,0,0,1-1.27-3.37c-.71-.06-1.28.8-2,.67s-.78-.74-1.09-1.2-1.1-.78-1.35-.27l-.3-2A4.73,4.73,0,0,0,104.45,54a13.5,13.5,0,0,1,1.34-4,2.24,2.24,0,0,0-2.57,1.8,4.51,4.51,0,0,1-.22,1.5c-.23.44-1,.57-1.17.07.06.55-.81.67-1.27.37s-.89-.8-1.44-.74c-.82.08-1.24,1.37-2.05,1.2a1.06,1.06,0,0,1-.66-1.07c0-1.2.93-2.17,1.79-3A4.07,4.07,0,0,0,94,53.29l-1-1c-.33.61-1,1.31-1.57.9-.3-.22-.33-.66-.51-1a1,1,0,0,0-.19-.23c-.08,9-1.12,17.92-1.89,27A64.2,64.2,0,0,1,87.1,88.7a31.9,31.9,0,0,1,7.4,5.44A185.24,185.24,0,0,1,135.73,75.2c4.46-1.41,9.35-2.65,13.73-1a5.25,5.25,0,0,1,2.91,2.24c.9,1.7.22,3.74,0,5.64a14.75,14.75,0,0,1-.33,2.08,7.65,7.65,0,0,1-.69,1.58,18,18,0,0,1-7.31,7.5c-1.77.93-3.75,1.52-5.28,2.8-.37.31-.72.85-.41,1.21l4.48-1.44c.77-.25,1.81-.42,2.24.27a1.5,1.5,0,0,1,0,1.38,3.74,3.74,0,0,1-1.66,1.81,3.63,3.63,0,0,1-.7-2c-.7.32-1,1.15-1.3,1.84-1.23,2.53-3.95,3.93-6.49,5.15.52,0,.7.71.75,1.22.13,1.27.13,2.79-.92,3.5s-2.15.29-3.24.49a12.73,12.73,0,0,0-2.5,1,2.78,2.78,0,0,1-2.6,0l3.2-3L124.63,109c-.43-.14-.17-.8.15-1.13a52.42,52.42,0,0,1,10.56-8.13c-.15-.5-.88-.42-1.35-.21a32,32,0,0,0-10.3,7,4.7,4.7,0,0,1-1.66,1.27,5.8,5.8,0,0,1-1.76.18,9.3,9.3,0,0,0-5.94,2.42l4.74.35a41.48,41.48,0,0,1-3.08,3.14c5-.07,10.26-2.82,15.26-1.64a2.88,2.88,0,0,0,2.23,0c.63-.41.76-1.29,1.25-1.86.72-.81,1.9-.77,3-.9-.27-.25-.65-.4-.86-.71-.36-.56.08-1.31.62-1.69a7.3,7.3,0,0,0,1.65-1.1l-1.63-.8a4,4,0,0,1,2.29-1.6l4.44-1.72a2,2,0,0,1,.6-2.3,1.91,1.91,0,0,1,1.29-.36c-.3-.29-.62-.58-.63-1a4.28,4.28,0,0,1,2.94.64l0,0s0,0,0-.05c0-.19.23-.34.27-.53.13-.52-.67-1-.44-1.46.17-.33.65-.27,1-.21a4.27,4.27,0,0,0,2.24-.21,4.28,4.28,0,0,0-1.67-1.25c0-.47.92-.6.78-1-.07-.2-.33-.25-.55-.26l-2.2-.11a10.74,10.74,0,0,1,2.71-1.87l-2.82.23c-.1-.49.38-.89.81-1.15a15.6,15.6,0,0,1,3.2-1.44c.42-.14.94-.36,1-.8a1.62,1.62,0,0,1,0-.44.57.57,0,0,1,.26-.25,3.09,3.09,0,0,1,2.21-.36,1.27,1.27,0,0,0,0-.28A4.53,4.53,0,0,1,153.16,86.06Z"/><path id="Tracé_1209" data-name="Tracé 1209" class="cls-9" d="M91,51.91a1.2,1.2,0,0,0-1.69.17,1.17,1.17,0,0,0-.17.28c-.49.08-.91,0-.87-.52a.94.94,0,0,1-1.19-.34,2.79,2.79,0,0,1-.4-1.29,2.11,2.11,0,0,1-1.69,0,3.71,3.71,0,0,0-.52-3.15l-.94.23.06,1.2L82,47.29a2.79,2.79,0,0,1-1.56,2.9,1.91,1.91,0,0,1-.46-2c.12-.32.34-.65.23-1A.41.41,0,0,0,79.7,47c.1-.55-.66-1.13-1.27-1s-1.11.9-1.46,1.54c-.07-.59-.28-1.32-.87-1.4s-1,.67-1.24,1.26-.82,1.28-1.38,1l-.22-1.69a2,2,0,0,0-1.35,1.92l-.7-.46a4.75,4.75,0,0,1,.1,2A3,3,0,0,1,70,48.87a4.26,4.26,0,0,0-.74,3.3,6.32,6.32,0,0,0-1.82-2,5.25,5.25,0,0,1-.18,3.3,5.34,5.34,0,0,1-2.47-2.9A1.53,1.53,0,0,0,62.89,53c-.17.23-.42.4-.58.64a6.38,6.38,0,0,0-.46,1.4c-.18.46-.73.88-1.14.61-.17-.1-.26-.28-.41-.4a.93.93,0,0,0-1.14.1,2.68,2.68,0,0,0-.65,1l-1.19-1.51-.77,1.29a.67.67,0,0,1-.22.25c-.3.17-.64-.17-.76-.5s-.25-.72-.59-.78-.68.38-1.07.45c-.64.1-1-.83-1.62-1s-1.18.6-1.85.74c-.52.12-1.07-.17-1.6,0-.72.17-1.17,1-1.91,1s-1.39-1-2.15-.8-.66,1.35-.08,1.82a5.31,5.31,0,0,0,2.12.7,3.15,3.15,0,0,0,.81.16c.55,0,1.06-.41,1.61-.34s1,.57,1.52.57.85-.37,1.31-.36c1,0,1.5,1.6,2.43,1.34.41-.11.7-.58,1.12-.57A.78.78,0,0,1,56,59a1.49,1.49,0,0,1,.33,2.09,1.36,1.36,0,0,1-.45.41,5.48,5.48,0,0,0-.79.33c-.17.11-.34.28-.53.22s-.22-.21-.34-.3c-.31-.23-.74,0-1,.34s-.53.67-.92.61c-.21,0-.38-.2-.59-.23-.86-.18-1,1.56-1.92,1.53-.69,0-1-1.17-1.66-1.1-.5,0-.65.7-.71,1.2s-.34,1.14-.84,1c-.34-.06-.51-.44-.63-.76L44.69,60.6a3.13,3.13,0,0,0-.43,2.67,8.72,8.72,0,0,1,.37,2.78l-.81-.45a2.49,2.49,0,0,0-.38,1.76,2.37,2.37,0,0,1-.4,1.75c-.41.45-1.38.33-1.42-.29-.74.19-.79,1.2-.7,2s-.07,1.79-.83,1.86c-.33,0-.7-.16-1,0a.6.6,0,0,0-.19.25,29.08,29.08,0,0,0,4.8,5.17l.25.06a12.09,12.09,0,0,1,1-5,2.72,2.72,0,0,1,1.37-1.6c.4-.15.86-.12,1.26-.27,1.72-.65,1.11-3.8,2.81-4.49,1.09-.44,2.73.35,3.3-.67.2-.36.16-.82.4-1.15.66-.87,2.12.3,3.1-.17.8-.38.83-1.65,1.63-2,.51-.24,1.16,0,1.65-.3,1.06-.59.15-2.28.6-3.39a1.47,1.47,0,0,1,2-.64,1.34,1.34,0,0,1,.44.34A5.57,5.57,0,0,0,64.41,57c.31-.59,1.08-1.09,1.62-.69.27.21.38.59.66.79.88.62,1.85-1.15,2.91-.94.58.12.86.8.89,1.39a6.18,6.18,0,0,0,.1,1.77c.38,1.1,1.74,1.47,2.59,2.27,1.71,1.63.93,4.48,1.58,6.75a15.58,15.58,0,0,0,2.4,4,17.73,17.73,0,0,1,2.32,14.28l7.14,1.71.66.33a64.2,64.2,0,0,0,1.82-9.83C89.86,69.82,90.9,60.92,91,51.91Z"/><path id="Tracé_1210" data-name="Tracé 1210" class="cls-8" d="M145,99.6a2,2,0,0,0-.6,2.29L140,103.61a4,4,0,0,0-2.29,1.6l1.63.8a7.3,7.3,0,0,1-1.65,1.1c-.55.38-1,1.13-.62,1.69.2.32.59.46.85.72a6.53,6.53,0,0,0,.77-.14c1.3-.33,2.59-.81,2.89-2.12.14-.9,1.42-1,2.28-.69s2,.59,2.54-.15a1.2,1.2,0,0,1-.65-1.56l0,0a1.12,1.12,0,0,0,.55-2.18,1.84,1.84,0,0,0-.33,0,1.18,1.18,0,0,1-.16-1.32c.27-.41.89-.6,1-1.08s-.2-.67-.5-1A2,2,0,0,0,145,99.6Z"/></g></g><g id="Groupe_183" data-name="Groupe 183"><g id="Groupe_168" data-name="Groupe 168"><path id="Tracé_1212" data-name="Tracé 1212" class="cls-10" d="M88.36,51.42a2.35,2.35,0,0,0-.34-.67,3.31,3.31,0,0,1-.37-2.42,3.38,3.38,0,0,0-3,.67,10.21,10.21,0,0,0-2.1,2.44,1,1,0,0,0-.73-.73,1.31,1.31,0,0,1-.42-.11,1,1,0,0,1-.34-.69,8.46,8.46,0,0,0-1-2.56,1.25,1.25,0,0,0-.35-.41c-.41-.26-1,.05-1.25.44a7.23,7.23,0,0,0-.84,2.51A36.17,36.17,0,0,1,76,53.63a4.83,4.83,0,0,0-.15,3.94l0,.35,2.49,3.62a6.93,6.93,0,0,0,1.14,1.39,3.58,3.58,0,0,0,3.93.42,5.46,5.46,0,0,0,2.36-3.42c.39-1.37.53-2.8,1-4.14a38.36,38.36,0,0,0,1.48-3.66A1.55,1.55,0,0,0,88.36,51.42Z"/><g id="Groupe_167" data-name="Groupe 167"><path id="Tracé_1213" data-name="Tracé 1213" class="cls-11" d="M83.51,59.12A1.33,1.33,0,0,1,83,59a1.1,1.1,0,0,1-.17-1.51,5,5,0,0,1,1.29-1.09A1.88,1.88,0,0,0,85,55c0-.52-.36-1-.22-1.54s.66-.8.71-1.3-.68-1-1.23-.8a1.69,1.69,0,0,0-1,1.38,17,17,0,0,0,0,1.75c0,.5-.32,1.14-.8,1s-.48-.73-.47-1.2a4.29,4.29,0,0,0-.33-1.77c-.38.31-.32.89-.33,1.39s-.3,1.11-.78,1a17.33,17.33,0,0,0,0-3.14A2.1,2.1,0,0,0,80,53.51a5.69,5.69,0,0,1-.07,1.84,1.24,1.24,0,0,1-1.38.93,1.58,1.58,0,0,1-.88-1.11,7.15,7.15,0,0,1-.32-3,12.62,12.62,0,0,0,.19-1.94c-.38,1.18-1,2.26-1.49,3.4a4.84,4.84,0,0,0-.15,3.94l0,.35,2.49,3.63a6.87,6.87,0,0,0,1.14,1.38,3.57,3.57,0,0,0,3.94.42,5.43,5.43,0,0,0,2.35-3.42c.1-.34.18-.69.26-1A6.17,6.17,0,0,1,83.51,59.12Z"/></g></g><g id="Groupe_170" data-name="Groupe 170"><path id="Tracé_1214" data-name="Tracé 1214" class="cls-12" d="M95.58,51.11a1.57,1.57,0,0,0-.43-1,1.88,1.88,0,0,0-1.25-.36,9.49,9.49,0,0,0-6.38,2.5,10.77,10.77,0,0,0-3.27,6.06,7.1,7.1,0,0,0,.36,4.1,4,4,0,0,0,3.13,2.45,4.63,4.63,0,0,0,2.5-.57A5.75,5.75,0,0,0,93.18,61l-.57-.81L94.9,54.3A6.77,6.77,0,0,0,95.58,51.11Z"/><g id="Groupe_169" data-name="Groupe 169"><path id="Tracé_1215" data-name="Tracé 1215" class="cls-13" d="M95.58,51.11a1.57,1.57,0,0,0-.43-1,1.88,1.88,0,0,0-1.25-.36,9.38,9.38,0,0,0-5.06,1.49,13.16,13.16,0,0,0-3.52,5.61,3.2,3.2,0,0,0,.13,2.8l1.06-2.13c1.23-2.48,2.75-5.2,5.41-6-2,2.1-4,4.36-4.46,7.18a7.49,7.49,0,0,0,1.18,5.4,6.55,6.55,0,0,0,.45.59A6.05,6.05,0,0,0,93.17,61l-.56-.81,2.29-5.87A6.85,6.85,0,0,0,95.58,51.11Z"/></g></g><g id="Groupe_172" data-name="Groupe 172"><path id="Tracé_1216" data-name="Tracé 1216" class="cls-14" d="M100.27,57.29,100.13,55a3.43,3.43,0,0,0-3-2.26A5.21,5.21,0,0,0,93.51,54,11.43,11.43,0,0,0,91,57c-.4.66-.78,1.32-1.16,2a2,2,0,0,0-.22,2l1.58,5.27,8,.52C100.41,63.83,100.35,60.51,100.27,57.29Z"/><g id="Groupe_171" data-name="Groupe 171"><path id="Tracé_1217" data-name="Tracé 1217" class="cls-15" d="M93,62.66c.09-2,1.29-3.83,2.44-5.51a3.48,3.48,0,0,0-2.36,1c-.66.57-1.22,1.26-1.9,1.81a.69.69,0,0,1-.39.19c-.43,0-.51-.63-.38-1a9,9,0,0,1,3.1-4.25,21,21,0,0,1,3.27-2.08A5.48,5.48,0,0,0,93.51,54,11.41,11.41,0,0,0,91,57c-.4.65-.79,1.32-1.16,2a2,2,0,0,0-.22,2l1.57,5.26,2.76.18A8.08,8.08,0,0,1,93,62.66Z"/></g></g><g id="Groupe_174" data-name="Groupe 174"><path id="Tracé_1218" data-name="Tracé 1218" class="cls-10" d="M113,56.35a4,4,0,0,0-3.11-1.74,5,5,0,0,1-1.09-.07c-1.05-.27-1.58-1.55-2.62-1.87-.21-.06-.43-.08-.64-.16a4.29,4.29,0,0,1-1.12-.83,3,3,0,0,0-3.27-.19c-.5.3-.89.73-1.37,1-1.13.74-2.83.94-3.25,2.23-.1.31-.1.65-.22.95a4.2,4.2,0,0,1-.9,1.19,1.43,1.43,0,0,0-.4,1.36l1.2.08c0,.34,0,.68-.08,1,.26.12.54-.09.78-.24s.63-.22.75,0-.05.41-.17.58A8.11,8.11,0,0,0,96,65.86a2.19,2.19,0,0,0,.84,1.58c.22.13.47.19.68.32a2.55,2.55,0,0,1,.72.78l1.85,2.66c.78,1.12,1.75,2.35,3.1,2.44,1.58.1,2.8-1.43,3.27-2.93s.5-3.16,1.22-4.57c1.2-2.34,4-3.49,5.31-5.77l.43-.49A4,4,0,0,0,113,56.35Z"/><g id="Groupe_173" data-name="Groupe 173"><path id="Tracé_1219" data-name="Tracé 1219" class="cls-11" d="M113,56.35a4,4,0,0,0-3.11-1.74,5,5,0,0,1-1.09-.07,2.91,2.91,0,0,1-1.3-.91,1.91,1.91,0,0,1-.9.29,1.17,1.17,0,0,0-.32,0c-.32.13-.31.64-.06.9a2.36,2.36,0,0,0,.94.46A3.44,3.44,0,0,1,109.3,58a.93.93,0,0,1,0,.47,1,1,0,0,1-.27.35l-2.27,2.27c-.74-.85,1-2.3.23-3.16a11.79,11.79,0,0,0-3.74,5.28c-.36,1-.65,2.24-1.58,2.84l-.53-.91L99.37,67a5.14,5.14,0,0,1,0-4.07,17,17,0,0,0,1.18-4,3.63,3.63,0,0,0-2,2,16,16,0,0,0-1.74,6.39l.11.08c.21.13.46.2.68.33a2.45,2.45,0,0,1,.72.78l1.85,2.66c.78,1.12,1.74,2.34,3.1,2.43,1.58.1,2.8-1.42,3.27-2.93s.5-3.16,1.22-4.56c1.2-2.35,4-3.49,5.31-5.78l.43-.48A4,4,0,0,0,113,56.35Z"/><path id="Tracé_1220" data-name="Tracé 1220" class="cls-16" d="M99,54c.17.17.45.1.68,0,.44-.16,1.08-.22,1.25.22a1,1,0,0,1-.16.77l-.47.9c-.14.26-.27.6-.09.84s.65.2.87.45.1.59,0,.89-.09.7.19.83.5-.06.71-.22a2.68,2.68,0,0,0,.93-1.07,1,1,0,0,0-.38-1.24c-.1,0-.23-.09-.24-.2a.23.23,0,0,1,.09-.18,3.17,3.17,0,0,0,.58-.86.93.93,0,0,0-.15-1c-.17-.17-.42-.23-.59-.4a.87.87,0,0,1-.14-.9,2.06,2.06,0,0,1,.55-.76,4,4,0,0,1,1.07-.81,3,3,0,0,0-2.6.19c-.49.3-.88.73-1.36,1a5.18,5.18,0,0,1-.57.31c-.08.16-.15.32-.22.48A.63.63,0,0,0,99,54Z"/></g></g><g id="Groupe_176" data-name="Groupe 176"><path id="Tracé_1221" data-name="Tracé 1221" class="cls-17" d="M113.42,57.91c-1.76.13-3.11,1.55-4.2,2.94-1.6,2-3.09,4.3-3.34,6.86A13.58,13.58,0,0,0,107.16,74a4.26,4.26,0,0,0,1.08,1.74c1.21,1,3,.5,4.52-.07A3.14,3.14,0,0,0,115.31,73l3.16-11.33v-.53C117.23,59.46,115.5,57.75,113.42,57.91Z"/><g id="Groupe_175" data-name="Groupe 175"><path id="Tracé_1222" data-name="Tracé 1222" class="cls-18" d="M110.54,64.72a.56.56,0,0,0-.41.14c-.76.59-.67,1.73-.63,2.68,0,.37,0,.8-.35,1a.82.82,0,0,1-.93-.23,3.51,3.51,0,0,1-.73-3.2,25.17,25.17,0,0,1,.59-2.71,11.65,11.65,0,0,0-2.2,5.35A13.51,13.51,0,0,0,107.16,74a4.26,4.26,0,0,0,1.08,1.75c1.21,1,3,.49,4.52-.08A3.14,3.14,0,0,0,115.31,73l1.4-5a36.37,36.37,0,0,1-5.88-3A.59.59,0,0,0,110.54,64.72Z"/></g><path id="Tracé_1223" data-name="Tracé 1223" class="cls-19" d="M118.7,61.63a2.35,2.35,0,0,0-2.46-.67A5.6,5.6,0,0,0,114,62.41a12.59,12.59,0,0,0-3.36,4.85,7.53,7.53,0,0,0,.18,5.8,2.58,2.58,0,0,0,2.12,1.66c1.21,0,1.95-1.31,2.42-2.44,1-2.45,1.94-4.93,2.78-7.46a10.36,10.36,0,0,0,.7-3.4"/></g><g id="Groupe_178" data-name="Groupe 178"><path id="Tracé_1224" data-name="Tracé 1224" class="cls-10" d="M126.4,62.59l-2.89-4a2.5,2.5,0,0,0-1-1c-1.05-.42-2.05.62-3.05,1.15a24.16,24.16,0,0,1-3,.92,10.07,10.07,0,0,0-2,1.15l-3.65,2.43a25.57,25.57,0,0,1,2.5,1.14c.43.23.91.57.88,1s-.74.84-.84,1.38a4,4,0,0,0,.1.91c0,.77-.73,1.31-1.14,2a3.14,3.14,0,0,0,0,2.92A9.24,9.24,0,0,0,114.14,75a2.12,2.12,0,0,0,1,.7,2,2,0,0,0,.9-.1,8.57,8.57,0,0,0,2.74-1.4,17.15,17.15,0,0,0,3.44-4l5-7.09Z"/><g id="Groupe_177" data-name="Groupe 177"><path id="Tracé_1225" data-name="Tracé 1225" class="cls-11" d="M122.13,59.24c-.32-.26-.77-.52-1.11-.29s-.27.77,0,1.1a7,7,0,0,1,.75,1c.17.38,0,.95-.4,1s-.49-.23-.68-.43a1.79,1.79,0,0,0-1.47-.63.91.91,0,0,0-.78,1,1.16,1.16,0,0,0,0,.18,1.58,1.58,0,0,1,.21.38c.1.45-.53.61-.94.81a2.3,2.3,0,0,0-1,2.15,5.85,5.85,0,0,1-.22,2.46c-.36.75-1.48,1.2-2,.57s-.11-1.45.33-2.07,1-1.36.65-2.06a2.11,2.11,0,0,0-1.3-.94,2.62,2.62,0,0,0-1.43-.24,1.45,1.45,0,0,0-.86.55c.47.21.92.43,1.37.67s.91.56.88,1-.74.84-.84,1.38a4.05,4.05,0,0,0,.1.92c0,.77-.73,1.3-1.14,2a3.14,3.14,0,0,0,0,2.92A9.08,9.08,0,0,0,114.14,75a2.12,2.12,0,0,0,1,.7,1.85,1.85,0,0,0,.9-.1,8.86,8.86,0,0,0,2.74-1.39,17.36,17.36,0,0,0,3.44-4L126,64.88A12.87,12.87,0,0,0,122.13,59.24Z"/></g></g><g id="Groupe_180" data-name="Groupe 180"><path id="Tracé_1226" data-name="Tracé 1226" class="cls-14" d="M131.28,64.43a3.34,3.34,0,0,0-1.63-2.18,11.54,11.54,0,0,0-2.1-.53,4.26,4.26,0,0,1-2.72-2.47,28.6,28.6,0,0,0-8.1,10.93,2,2,0,0,0-.22.91,2.16,2.16,0,0,0,.23.69l1.09,2.41c.71,1.56,1.69,3.33,3.39,3.54a3.41,3.41,0,0,0,2.58-.9,10.28,10.28,0,0,0,1.75-2.19l4.91-7.45,1,0A10.08,10.08,0,0,0,131.28,64.43Z"/><g id="Groupe_179" data-name="Groupe 179"><path id="Tracé_1227" data-name="Tracé 1227" class="cls-20" d="M119.3,69.72a2.3,2.3,0,0,0-.13,1.44,1.15,1.15,0,0,0,1.06.85,1.79,1.79,0,0,0,1.17-.78c2-2.41,4-4.9,5.85-7.48-.33-.37-.94-.15-1.34.15s-.83.68-1.31.57c.78-1,1.6-2,2.45-2.94a4.53,4.53,0,0,1-1.17-.76c-1.85,2.15-3.61,4.39-5.28,6.7A9.7,9.7,0,0,0,119.3,69.72Z"/></g></g><g id="Groupe_182" data-name="Groupe 182"><path id="Tracé_1228" data-name="Tracé 1228" class="cls-10" d="M150.1,72A4.67,4.67,0,0,0,148,70.37a23.43,23.43,0,0,0-4.53-1.52,9.23,9.23,0,0,0-1.9-1.74c-1-.56-2.27-.28-3.42-.38a6.44,6.44,0,0,1-4.55-2.91c-.25-.36-.5-.77-.93-.88a1.43,1.43,0,0,0-1.27.53c-1,1-1.42,2.53-2.29,3.7-.71,1-1.7,1.66-2.43,2.6a11.43,11.43,0,0,0-1.55,3.13,8.1,8.1,0,0,0-.7,4.06,4.28,4.28,0,0,0,1.76,2.76c.47.32,1,.55,1.42.91.75.63,1.2,1.66,2.14,1.94,1.28.37,2.56-.92,3.87-.67.89.18,1.47,1,2.15,1.62a5.6,5.6,0,0,0,5,1.18,6.9,6.9,0,0,0,4.16-3.1c.32-.53.59-1.1.93-1.62.9-1.35,2.32-2.28,3.38-3.52S151,73.38,150.1,72Z"/><g id="Groupe_181" data-name="Groupe 181"><path id="Tracé_1229" data-name="Tracé 1229" class="cls-16" d="M136.53,67.47c-1,.78-1.88,1.61-2.76,2.48a.73.73,0,0,0-.24.38c-.06.38.46.59.84.51a4.34,4.34,0,0,0,1.75-1.1,2.2,2.2,0,0,1,1.9-.65c.17,0,.36.14.53.06s.21-.46.1-.7a1,1,0,0,1-.17-.75c.12-.31.53-.34.86-.35a6.84,6.84,0,0,0,1.95-.35,10.62,10.62,0,0,0-3.18-.27,6.17,6.17,0,0,1-.84-.15,1.22,1.22,0,0,1-.07.17A2.42,2.42,0,0,1,136.53,67.47Z"/><path id="Tracé_1230" data-name="Tracé 1230" class="cls-16" d="M140,68.71c0,.69,1.17.74,1.42,1.38a1.26,1.26,0,0,0,.16.42c.2.22.58.09.83.24a.55.55,0,0,1,.2.65,1.73,1.73,0,0,1-.38.62,4.91,4.91,0,0,0-1.13,3.17.53.53,0,0,0,.11.34c.17.18.47,0,.67-.11a4.25,4.25,0,0,0,1.47-2.5c.11-.63.2-1.45.81-1.62a3.37,3.37,0,0,1,1,.06,2.15,2.15,0,0,0,.93-.22,4,4,0,0,0,1.46-.93,24,24,0,0,0-4.15-1.37,13.83,13.83,0,0,0-1.26-1.28,5.12,5.12,0,0,0-1.44.39C140.4,68.09,140,68.34,140,68.71Z"/><path id="Tracé_1231" data-name="Tracé 1231" class="cls-11" d="M147,72.57a6.32,6.32,0,0,0-1.94.1,2.45,2.45,0,0,0-1.35,2.13c-.13,1.29.25,2.79-.62,3.75a2.12,2.12,0,0,1-2.63.29,2.88,2.88,0,0,1-1.24-2.45c0-.42,0-.93-.33-1.13s-.84.13-1,.53-.1.84-.2,1.25-.46.83-.88.74c-.82-.18-.31-1.65-1-2.17a.93.93,0,0,0-1.12.08,2.89,2.89,0,0,0-.67,1,8.15,8.15,0,0,1,1.81-3.86,8.21,8.21,0,0,0,2-2.69,3.15,3.15,0,0,0-2.6,1.68,13.21,13.21,0,0,1-1.81,2.69,5.49,5.49,0,0,1-1.77,1,1.76,1.76,0,0,1-.64.15,1.44,1.44,0,0,1-1.23-1.1,3.41,3.41,0,0,1,.43-2.71,9.81,9.81,0,0,1,1.84-2.12l2.35-2.26A17.29,17.29,0,0,0,128.61,72c-.66.8-1.42,1.74-2.45,1.67-.34,0-.66-.16-1-.2h-.27a7,7,0,0,0-.49,3.46,4.28,4.28,0,0,0,1.76,2.76,14.9,14.9,0,0,1,1.42.91c.75.63,1.2,1.66,2.14,1.94,1.28.37,2.56-.92,3.87-.67.89.18,1.47,1,2.15,1.61a5.57,5.57,0,0,0,5,1.19,6.94,6.94,0,0,0,4.16-3.1c.32-.53.58-1.1.93-1.62.9-1.35,2.31-2.28,3.38-3.52a4.85,4.85,0,0,0,1.29-3.28,2.76,2.76,0,0,0-1.52-.74A14.19,14.19,0,0,0,147,72.57Z"/></g></g><path id="Tracé_1232" data-name="Tracé 1232" class="cls-21" d="M143.71,76.23v1.14a102.42,102.42,0,0,1,10.06,3.38.28.28,0,0,0,.2,0c.1,0,.13-.15.15-.25l.19-.84Z"/></g><g id="Groupe_201" data-name="Groupe 201"><path id="Tracé_1233" data-name="Tracé 1233" class="cls-21" d="M60.66,58.71a2,2,0,0,0-.76-.15.68.68,0,0,0-.61.42c-.13.4.26.76.62,1,2.34,1.38,5.31,1.34,7.65,2.71l.35-.86A55.79,55.79,0,0,0,60.66,58.71Z"/><g id="Groupe_185" data-name="Groupe 185"><path id="Tracé_1234" data-name="Tracé 1234" class="cls-10" d="M80.36,58.74c-.73-.53-1.82-.21-2.57-.7a4.65,4.65,0,0,1-.81-.85,3.48,3.48,0,0,0-1.77-1.06,1.44,1.44,0,0,1-.58-.21,1.1,1.1,0,0,1-.31-.54,8,8,0,0,0-.83-2.27,1.53,1.53,0,0,0-2.1-.51h0c-.5.43-.59,1.3-1.22,1.48a2.69,2.69,0,0,1-.75,0A2.33,2.33,0,0,0,67.48,56c-.27.92-.25,1.91-.54,2.82-.52,1.65-2,2.84-2.69,4.42a10.72,10.72,0,0,0-.51,4.93,6.11,6.11,0,0,0,.81,3.26c.45.62,1.15,1.09,1.36,1.83A10.42,10.42,0,0,1,66,74.68a3.12,3.12,0,0,0,1.83,2.22,9.14,9.14,0,0,0,2.91.67l4.59.54a2.31,2.31,0,0,0,3-1.32,2.34,2.34,0,0,0,.15-1l2-10.44.08-.87L81,61.38C81.11,60.43,81.14,59.29,80.36,58.74Z"/><g id="Groupe_184" data-name="Groupe 184"><path id="Tracé_1235" data-name="Tracé 1235" class="cls-16" d="M74.86,56.87a3.76,3.76,0,0,1,.2.73c0,.4-.4.68-.77.81a2.44,2.44,0,0,0-1.06.51c-.33.36-.32.93-.63,1.31a1.92,1.92,0,0,1-.88.54,1.82,1.82,0,0,0-.85.56.64.64,0,0,0,.12.91h0a.94.94,0,0,0,.62,0,2.71,2.71,0,0,0,1.13-.41c.5-.38.68-1.05,1.17-1.44a3,3,0,0,1,1-.46,17.9,17.9,0,0,0,2.3-1.09,3.83,3.83,0,0,0,1-.64,1.84,1.84,0,0,1-.4-.19,4.68,4.68,0,0,1-.81-.85,3.44,3.44,0,0,0-1.76-1l-.12,0A.91.91,0,0,0,74.86,56.87Z"/><path id="Tracé_1236" data-name="Tracé 1236" class="cls-16" d="M65.4,63.37a1,1,0,0,1-.31,1,2,2,0,0,0-.58.89c-.06.35.26.78.59.66.72-.89,2.49-.3,3-1.3.37-.66-.11-1.58.32-2.2s1.44-.54,1.78-1.19c-.44-.46-.13-1.26.38-1.65s1.15-.54,1.69-.89.94-1.08.6-1.62-1.28-.52-1.77-1a7.67,7.67,0,0,1,3-1.39,4.4,4.4,0,0,0-.62-1.52,1.54,1.54,0,0,0-2.1-.52h0c-.5.42-.59,1.3-1.22,1.48a2.69,2.69,0,0,1-.75,0A2.34,2.34,0,0,0,67.47,56c-.27.92-.24,1.91-.53,2.82-.48,1.52-1.75,2.65-2.5,4l.22,0A.94.94,0,0,1,65.4,63.37Z"/><path id="Tracé_1237" data-name="Tracé 1237" class="cls-11" d="M80.14,60.62c-.68.32-1.43.82-2.1.5a3.92,3.92,0,0,1-.62-.45c-.8-.57-2.23-.17-2.3.82a4,4,0,0,1,0,.91,1.34,1.34,0,0,1-1.08.75,2.78,2.78,0,0,0-1.31.42c-.35.29-.41,1,0,1.14a1.24,1.24,0,0,0,.47.05,1.78,1.78,0,0,1,1.62,1.75,2.17,2.17,0,0,1-1.48,2,1.1,1.1,0,0,0-.43.22c-.29.31,0,.79.08,1.21.14.91-.91,1.5-1.78,1.81l-1.46.52a.94.94,0,0,1-.55.08c-.39-.1-.49-.6-.47-1a6.61,6.61,0,0,1,1.86-4.39c-1.43.15-2.34,1.59-3.6,2.31a3.85,3.85,0,0,1-3.13.27,4.15,4.15,0,0,0,.68,1.86c.45.62,1.15,1.09,1.37,1.83a11.81,11.81,0,0,1,.12,1.47,3.14,3.14,0,0,0,1.83,2.22,9.41,9.41,0,0,0,2.91.67l4.59.54a2.31,2.31,0,0,0,3-1.32,2.37,2.37,0,0,0,.15-1q1-5.22,2-10.44l.09-.87c.12-1,.25-2.08.38-3.12a7.46,7.46,0,0,0,.06-1A2.08,2.08,0,0,0,80.14,60.62Z"/></g></g><g id="Groupe_187" data-name="Groupe 187"><path id="Tracé_1238" data-name="Tracé 1238" class="cls-14" d="M89.79,61c-1.84-1.05-4.13-.62-6.19-.17l-4.7,1a1,1,0,0,0-.92.74,27.79,27.79,0,0,0-2.16,10.64A9.72,9.72,0,0,0,76,75.39a5.85,5.85,0,0,0,7,4.42,6.07,6.07,0,0,0,1-.33c1.93-.83,3.26-2.61,4.49-4.32l3.07-8.57A4.48,4.48,0,0,0,89.79,61Z"/><g id="Groupe_186" data-name="Groupe 186"><path id="Tracé_1239" data-name="Tracé 1239" class="cls-15" d="M83.3,63.26a3.51,3.51,0,0,0-1.82.76c-.4.4-.72,1-1.29,1s-1-.62-1.46-.45a4.81,4.81,0,0,0,.42,2.67A6.26,6.26,0,0,1,79,70.93c-.34,1-1.26,2-2.22,1.62a1.5,1.5,0,0,1-.9-1.15c-.05.61-.07,1.23-.07,1.84A9.71,9.71,0,0,0,76,75.39a5.85,5.85,0,0,0,7,4.42,6.07,6.07,0,0,0,1-.33c1.93-.83,3.26-2.61,4.49-4.32l3.07-8.57a4.28,4.28,0,0,0,.11-3.24A8.59,8.59,0,0,0,89,62.69,19.29,19.29,0,0,0,83.3,63.26Z"/></g></g><g id="Groupe_189" data-name="Groupe 189"><path id="Tracé_1240" data-name="Tracé 1240" class="cls-10" d="M101.33,68.68A2.94,2.94,0,0,0,99,66.47a6.66,6.66,0,0,0-1.72.23,5.68,5.68,0,0,1-4.79-1.5,12.27,12.27,0,0,0-1.71-1.67A4.59,4.59,0,0,0,88.14,63a10.11,10.11,0,0,0-8.7,5.75,5.78,5.78,0,0,0-.61,2.77c.19,1,.34,1.91.44,2.88a15.36,15.36,0,0,1-.53,2.42,2.27,2.27,0,0,0,.63,2.27,5.5,5.5,0,0,1,.64.43,2.43,2.43,0,0,1,.45,1.13c.17.68.71,1.41,1.41,1.3.18,0,.35-.11.54-.15.86-.16,1.45.8,1.89,1.56a6.15,6.15,0,0,0,3.75,3.06,3.64,3.64,0,0,0,4.16-1.92,7.23,7.23,0,0,0,.33-2,14.81,14.81,0,0,1,7.37-11.3l1.45.95A8,8,0,0,0,101.33,68.68Z"/><g id="Groupe_188" data-name="Groupe 188"><path id="Tracé_1241" data-name="Tracé 1241" class="cls-16" d="M89.62,63.87a1.5,1.5,0,0,0,.52.45,3.5,3.5,0,0,1,1.08,1.9.68.68,0,0,1,0,.37c-.08.39-.68.47-.79.86s.22.62.15.93-.56.45-.93.49a4.19,4.19,0,0,0-1.47.49.52.52,0,0,0-.23.21c-.12.27.25.49.55.5a2.38,2.38,0,0,0,2-.88c.26-.33.46-.75.86-.86s.75.06,1.09-.08c.17-.08.3-.23.48-.31a1.3,1.3,0,0,1,.55-.09A5.3,5.3,0,0,0,95,67.58a1.58,1.58,0,0,0,1-.83,5.7,5.7,0,0,1-3.57-1.55,12.27,12.27,0,0,0-1.71-1.67,3.06,3.06,0,0,0-.89-.39A.63.63,0,0,0,89.62,63.87Z"/><path id="Tracé_1242" data-name="Tracé 1242" class="cls-16" d="M84.87,67.14c-.16,1.32-1,2.51-1,3.84a.56.56,0,0,0,.08.33c.16.22.53.14.7-.08a2.1,2.1,0,0,0,.25-.78,3,3,0,0,1,1.4-1.87,4.29,4.29,0,0,1,2.3-.59,8.54,8.54,0,0,1-2.26-2.9,3.57,3.57,0,0,1-.19-1.86,10.05,10.05,0,0,0-1.52.51A22.76,22.76,0,0,1,84.87,67.14Z"/><path id="Tracé_1243" data-name="Tracé 1243" class="cls-11" d="M98.05,69.36a2.62,2.62,0,0,0-2.49-.07c.07-.31-.38-.48-.68-.37s-.54.35-.85.38c-.46,0-.92-.4-1.36-.23s-.42.91-.25,1.42a1.72,1.72,0,0,0-1.81,1.65.93.93,0,0,0,0,.29,1.06,1.06,0,0,1,0,.68c-.33.67-1.59-.38-2.07.2-.29.35.08.85.3,1.26a3.57,3.57,0,0,1,.07,2.37c-.18.86-.35,1.72-.52,2.58A2.56,2.56,0,0,1,88,80.59a.88.88,0,0,1-1,.32c-.31-.15-.46-.53-.77-.69-.81-.4-1.86,1-2.52.4a1,1,0,0,1-.12-1c.46-1.43,1.91-2.27,3.25-3-1.12,0-2.49-.23-2.92-1.27A3,3,0,0,1,84.31,73c-.5-.06-.91.46-1,1a4.7,4.7,0,0,0,.26,1.48.77.77,0,0,1,0,.52.92.92,0,0,1-.39.34l-2.46,1.4L81.23,75a.58.58,0,0,0-.07-.54.44.44,0,0,0-.34-.12,2.75,2.75,0,0,0-1.5.7.59.59,0,0,1-.17.1c-.12.54-.31,1.06-.4,1.6A2.24,2.24,0,0,0,79.37,79a5.5,5.5,0,0,1,.64.43,2.4,2.4,0,0,1,.45,1.14c.18.68.72,1.4,1.41,1.3.18,0,.35-.12.54-.15.86-.16,1.45.8,1.89,1.55a6.19,6.19,0,0,0,3.76,3.07,3.64,3.64,0,0,0,4.15-1.92,7.25,7.25,0,0,0,.34-2,14.79,14.79,0,0,1,6.18-10.55l-.38-.28a1.51,1.51,0,0,0-.16-2.14Z"/></g></g><g id="Groupe_192" data-name="Groupe 192"><path id="Tracé_1244" data-name="Tracé 1244" class="cls-17" d="M106.17,72.19c-1.93-2-4.42-4-7.22-3.78a6.71,6.71,0,0,0-2.52.72c-3.37,1.69-5.15,5.61-5.37,9.38a9.56,9.56,0,0,0,.59,4.27A8.3,8.3,0,0,0,94,85.84a5.43,5.43,0,0,0,1.7,1,4.91,4.91,0,0,0,4.54-1,11.62,11.62,0,0,0,2.85-3.88,38.08,38.08,0,0,0,3.23-8.9Z"/><g id="Groupe_190" data-name="Groupe 190"><path id="Tracé_1245" data-name="Tracé 1245" class="cls-18" d="M101.28,69.92a7.61,7.61,0,0,0-6.14,4.62c-.55,1.38-.68,2.89-1.11,4.32-.16.54-.53,1.18-1.09,1.11s-.74-.7-.83-1.23a21.42,21.42,0,0,1-.27-4.08,13.66,13.66,0,0,0-.78,3.85,9.7,9.7,0,0,0,.59,4.27A8.3,8.3,0,0,0,94,85.84a5.43,5.43,0,0,0,1.7,1,4.91,4.91,0,0,0,4.54-1,11.62,11.62,0,0,0,2.85-3.88,38.08,38.08,0,0,0,3.23-8.9l-.15-.84a19.19,19.19,0,0,0-2.27-2A7.46,7.46,0,0,0,101.28,69.92Z"/></g><g id="Groupe_191" data-name="Groupe 191"><path id="Tracé_1246" data-name="Tracé 1246" class="cls-22" d="M105.27,72.62l0,.28.09.19Z"/><path id="Tracé_1247" data-name="Tracé 1247" class="cls-19" d="M101.26,70.6A5.63,5.63,0,0,0,98,72.45a10.43,10.43,0,0,0-2.9,7.21,5.65,5.65,0,0,0,.8,3.14,3,3,0,0,0,2.76,1.45,4.28,4.28,0,0,0,2.65-1.8,17.88,17.88,0,0,0,3.93-9.55A4,4,0,0,0,101.26,70.6Z"/></g></g><g id="Groupe_194" data-name="Groupe 194"><path id="Tracé_1248" data-name="Tracé 1248" class="cls-10" d="M108.52,73.58a8,8,0,0,0-1.85-2,4,4,0,0,0-1.66-.66,2,2,0,0,0-1.92.56c-.19.25-.29.57-.49.81-.64.76-1.92.48-2.7,1.07-1,.71-.73,2.21-1.35,3.21-.48.76-1.39,1.15-1.89,1.89s-.49,1.86-.83,2.77c-.52,1.36-1.88,2.31-2.28,3.71-.52,1.82.86,3.77,2.62,4.48a9.59,9.59,0,0,0,5.59,0,7.8,7.8,0,0,0,3.68-1.62,8.87,8.87,0,0,0,2-3.56l2.79-8.37Z"/><g id="Groupe_193" data-name="Groupe 193"><path id="Tracé_1249" data-name="Tracé 1249" class="cls-11" d="M108.33,75.15c-.9-.17-1.59.77-2,1.6s-.91,1.81-1.83,1.85c-.63-.67-.31-1.75,0-2.62s.35-2.08-.48-2.48c-.19,1.53-.51,3.26-1.83,4.06a3.68,3.68,0,0,0-.73.45,3.34,3.34,0,0,0-.61,1.6c-.16.56-.64,1.16-1.2,1a10.57,10.57,0,0,1-.19,3,3.54,3.54,0,0,1-1.73,2.33,5.23,5.23,0,0,0,.71-3,.75.75,0,0,0-.25-.6c-.68-.46-1.3,1.4-2,1a3.17,3.17,0,0,1-.34-.39.9.9,0,0,0-1-.08,6.76,6.76,0,0,0-1.32,2.16c-.52,1.82.86,3.77,2.61,4.47a9.51,9.51,0,0,0,5.59.06,7.88,7.88,0,0,0,3.69-1.62,8.87,8.87,0,0,0,2-3.56l2.38-7.15C109.45,76.28,109.17,75.31,108.33,75.15Z"/></g></g><g id="Groupe_196" data-name="Groupe 196"><path id="Tracé_1250" data-name="Tracé 1250" class="cls-14" d="M112.74,68.56a.81.81,0,0,0-.57-.36c-.26,0-.45.24-.59.45a30.49,30.49,0,0,0-2.7,5.35l-1.4,3.33-5.5,13a1.14,1.14,0,0,0-.07,1.09,1,1,0,0,0,.37.27,6.37,6.37,0,0,0,4.87.14,18.66,18.66,0,0,0,4.37-2.42c1.71-1.17,3.5-2.46,4.24-4.39l.5-8.94A14.66,14.66,0,0,0,112.74,68.56Z"/><g id="Groupe_195" data-name="Groupe 195"><path id="Tracé_1251" data-name="Tracé 1251" class="cls-15" d="M114.61,71.23a1.54,1.54,0,0,1-1.73-.84,1,1,0,0,0-.39,1.07c.08.4.3.77.39,1.17a2.9,2.9,0,0,1-.55,2.17c-.42.64-1,1.18-1.45,1.79a45,45,0,0,0-2.4,4.36,11,11,0,0,1-2,2.46,2.86,2.86,0,0,1,.25-2.48,77.6,77.6,0,0,1,3.56-7.2,2.9,2.9,0,0,0,.44-1.08c0-.21-.36-.66-.78-1.05-.38.79-.72,1.6-1.06,2.4l-1.41,3.33-5.5,13a1.14,1.14,0,0,0-.06,1.09,1.07,1.07,0,0,0,.36.27,6.4,6.4,0,0,0,4.88.14,18.28,18.28,0,0,0,4.36-2.43c1.71-1.16,3.5-2.45,4.24-4.38l.5-8.94A14.39,14.39,0,0,0,114.61,71.23Z"/></g></g><g id="Groupe_197" data-name="Groupe 197"><path id="Tracé_1252" data-name="Tracé 1252" class="cls-13" d="M117.18,72.63a1.11,1.11,0,0,1-.07.72c-.35,1-1.34,1.68-1.35,2.7a5.66,5.66,0,0,0,.13.92c.17,1.34-.66,2.57-1.28,3.77a13.28,13.28,0,0,0-1,9.37,43.32,43.32,0,0,1,4.18-9.54,1.6,1.6,0,0,1,.57-.64c.19-.1.41-.11.6-.21.5-.28.46-1,.33-1.56s-.26-1.23.16-1.61,1-.24,1.45-.37a1.38,1.38,0,0,0,.5-.25,13.47,13.47,0,0,0-3.4-4.07,1.74,1.74,0,0,0-.91-.45,1.19,1.19,0,0,0-1,.48A1.18,1.18,0,0,1,117.18,72.63Z"/><path id="Tracé_1253" data-name="Tracé 1253" class="cls-12" d="M122.67,79.1a13.33,13.33,0,0,0-1.25-3.17,1.24,1.24,0,0,1-.5.25c-.49.13-1.08,0-1.45.37s-.29,1.06-.16,1.61.16,1.28-.33,1.56c-.19.1-.41.12-.61.21a1.57,1.57,0,0,0-.56.64,43.32,43.32,0,0,0-4.18,9.54,13.28,13.28,0,0,1,1-9.37c.62-1.2,1.44-2.43,1.27-3.77a7,7,0,0,1-.12-.92c0-1,1-1.74,1.35-2.7a1,1,0,0,0-.46-1.36,1,1,0,0,0-.52-.1,3.59,3.59,0,0,0-.53.8l-6.24,11.69a1.41,1.41,0,0,0-.22.59,1.66,1.66,0,0,0,.66,1.19,16.86,16.86,0,0,1,2.51,3.26c.87,1.48,1.5,3.31.79,4.87a4.44,4.44,0,0,0-.5,1.14.83.83,0,0,0,.52,1,1.12,1.12,0,0,0,.71-.18c4.44-2.37,7.1-7,9.3-11.55Z"/></g><g id="Groupe_200" data-name="Groupe 200"><path id="Tracé_1254" data-name="Tracé 1254" class="cls-10" d="M137.8,85a4,4,0,0,0-.65-2.26,2.56,2.56,0,0,1-.39-.48,1.91,1.91,0,0,1,0-1.06,3.74,3.74,0,0,0-1.48-3.42,3.38,3.38,0,0,0-3.69-.13,3.13,3.13,0,0,0-1.37,3,1.39,1.39,0,0,0-.68-.35,3.49,3.49,0,0,0-1.6.21A3,3,0,0,0,125.54,77h0c-1.87-.27-3.44,1.26-5,2.39-2.59,1.92-5.92,3-7.71,5.71.35.29.87.13,1.31.24.63.17,1,.84,1.27,1.42s.76,1.22,1.42,1.2a3.72,3.72,0,0,0,.88-.26,2.09,2.09,0,0,1,2.24.73,1.62,1.62,0,0,0-1.46,1.76,1.64,1.64,0,0,0,.21.67c-.27.24-.72,0-1.07.11a.69.69,0,0,0-.3.88,2.11,2.11,0,0,0,.65.8,14.29,14.29,0,0,1,2.65,3.25,1.23,1.23,0,0,1,.24,1c-.08.21-.26.36-.35.56-.27.61.4,1.27,1.06,1.36a18.82,18.82,0,0,0,2-.13c1.36,0,2.62,1.14,3.94.84a10,10,0,0,0,1.5-.66c1.31-.51,2.9-.11,4.09-.85s1.51-2.38,2-3.71c.69-1.72,2-3.18,2.45-5A12.41,12.41,0,0,0,137.8,85Z"/><g id="Groupe_198" data-name="Groupe 198"><path id="Tracé_1255" data-name="Tracé 1255" class="cls-16" d="M133.14,87.91c-.28.35-.3.88-.63,1.17a2.08,2.08,0,0,1-1.14.28,2.33,2.33,0,0,0-1.48.71,1.76,1.76,0,0,0-.46,1.55c0,.11.1.26.22.25s.15-.11.2-.2a2.1,2.1,0,0,1,1.66-1.09,4.91,4.91,0,0,0,.67,0,1.64,1.64,0,0,0,.66-.36,6.32,6.32,0,0,0,1.37-1.41c.2-.29.38-.69.21-1A1,1,0,0,0,133.14,87.91Z"/></g><g id="Groupe_199" data-name="Groupe 199"><path id="Tracé_1256" data-name="Tracé 1256" class="cls-11" d="M122.64,80.77a1.89,1.89,0,0,1,2.48.3c.67.63,1.06,1.5,1.67,2.18a2.13,2.13,0,0,0,2.43.77,3.32,3.32,0,0,1,.59-.31.45.45,0,0,1,.57.21c.7-1.85,3.53-2,4.47-3.71a.48.48,0,0,0,.07-.23.35.35,0,0,0-.4-.27h0A1,1,0,0,0,134,80a10.88,10.88,0,0,1-3.95,1.59l-1,.25c-.84.22-1.87.38-2.44-.27s-.39-1.4-.77-2a4,4,0,0,1-.47-.73c.61-.28,1.23-.55,1.86-.79a2.81,2.81,0,0,0-1.76-1,2.72,2.72,0,0,0-.9,0c-.06.24-.05.5-.1.75C124.27,78.92,122.55,79.55,122.64,80.77Z"/><path id="Tracé_1257" data-name="Tracé 1257" class="cls-16" d="M132,83.84a1.35,1.35,0,0,0-.74.81,4.14,4.14,0,0,1,3.32,1.93,4.21,4.21,0,0,0,1.09,1.51,2.4,2.4,0,0,0,1.44.28l.76-.07a16.84,16.84,0,0,0,0-3.33,7.5,7.5,0,0,0-.22-1.42c-.55-.1-1.08-.28-1.62-.39A5.88,5.88,0,0,0,132,83.84Z"/><path id="Tracé_1258" data-name="Tracé 1258" class="cls-11" d="M119.72,87a2.61,2.61,0,0,1,2-.75,7.88,7.88,0,0,0,2.16-.2,4.7,4.7,0,0,0-3-2.51,1.09,1.09,0,0,1-.43-.18c-.27-.26-.1-.72.1-1s.42-.74.2-1-.72-.25-1-.52a.73.73,0,0,1,0-.79c-2.43,1.58-5.25,2.72-6.84,5.11.34.29.87.14,1.31.25.63.16,1,.83,1.27,1.41s.76,1.22,1.42,1.2a3.07,3.07,0,0,0,.88-.26,2.08,2.08,0,0,1,1.49.13l0-.06A8.23,8.23,0,0,1,119.72,87Z"/><path id="Tracé_1259" data-name="Tracé 1259" class="cls-11" d="M136.75,89.88c-.91-.83-2.52-.18-3,1a6,6,0,0,1-.81,1.84c-.74.78-2.18.58-2.84,1.43a10.78,10.78,0,0,0-.56,1.13,1.91,1.91,0,0,1-2.65.51,1.68,1.68,0,0,1-.29-.24c-.4-.45-.56-1.1-1-1.51a2,2,0,0,0-2-.28,6.13,6.13,0,0,0-1.73,1.1,9.31,9.31,0,0,1,3.9-3,5.32,5.32,0,0,0,1.28-.53c.8-.55,1.06-1.58,1.64-2.35a3.36,3.36,0,0,1,2.44-1.33,5.12,5.12,0,0,0-3.76.7,15,15,0,0,0-3,2.53l-2.28,2.3a.91.91,0,0,1-.42.3,1.14,1.14,0,0,1-.55,0,3,3,0,0,0-2.08.32,13.29,13.29,0,0,1,1.58,2.16,1.23,1.23,0,0,1,.24,1c-.07.2-.25.36-.34.56-.27.61.4,1.27,1.06,1.36a19,19,0,0,0,2-.13c1.36,0,2.61,1.14,3.94.84a10.51,10.51,0,0,0,1.5-.66c1.31-.51,2.9-.11,4.09-.85s1.51-2.38,2-3.71,1.45-2.57,2.05-3.9A5.76,5.76,0,0,0,136.75,89.88Z"/></g></g><path id="Tracé_1260" data-name="Tracé 1260" class="cls-21" d="M135,91.11a7.9,7.9,0,0,1-.9,1.6,12.14,12.14,0,0,0,5.48,2C138.13,93.9,136.34,92,135,91.11Z"/></g><g id="Groupe_215" data-name="Groupe 215"><path id="Tracé_1261" data-name="Tracé 1261" class="cls-21" d="M43,68.75a21.53,21.53,0,0,0-2.52-1.09.52.52,0,0,0-.25,0,.49.49,0,0,0-.18.14l-.55.61a.17.17,0,0,0-.07.13.2.2,0,0,0,.08.14,9.78,9.78,0,0,0,2.72,1.41,31.79,31.79,0,0,1,3.46,1.84l1.1-1.3Z"/><g id="Groupe_203" data-name="Groupe 203"><path id="Tracé_1263" data-name="Tracé 1263" class="cls-10" d="M61.24,70.05a6,6,0,0,1-1.7-.56c-.88-.6-1.29-2-2.35-2a3.5,3.5,0,0,1-.56,0c-.67-.12-.9-1.31-1.56-1.15a1,1,0,0,0-.42.29,8.37,8.37,0,0,1-5.27,1.84c-1.62.1-3.53.14-4.42,1.49-.2.3-.32.65-.54.94-.63.8-2,1.06-2.18,2.06-.15.66.29,1.3.43,2a4.19,4.19,0,0,1-.39,2.31,5.56,5.56,0,0,0-.56,2.3,1.71,1.71,0,0,0,1.42,1.66c.54,0,1-.3,1.59-.28.89,0,1.48.94,2.32,1.24,1.26.46,2.55-.57,3.87-.84a11.31,11.31,0,0,0,1.9-.34A4.3,4.3,0,0,0,54,80.17l4.84-4.38a11.06,11.06,0,0,1,4.44-2.87l.76-.4A4.41,4.41,0,0,0,61.24,70.05Z"/><g id="Groupe_202" data-name="Groupe 202"><path id="Tracé_1264" data-name="Tracé 1264" class="cls-11" d="M60.62,71.19a4,4,0,0,1-.3.94.66.66,0,0,1-.84.3c-.31-.2-.26-.65-.24-1s-.19-.86-.54-.77c-.06.53-.85.62-1.29.32s-.7-.82-1.14-1.12a1.56,1.56,0,0,0-1.84.07,2.43,2.43,0,0,1,1.17.85A.87.87,0,0,1,55.38,72l-.05,0a1.28,1.28,0,0,1-.66,2.39c-.54,0-1.16-.34-1.58,0s-.35.69-.7.79a1.25,1.25,0,0,1-.66-.14,1.53,1.53,0,0,0-1.79.76A7.69,7.69,0,0,0,49.61,77a1.09,1.09,0,0,1-.8.82c-.92.11-1.15-1.49-2.05-1.7-.47-.1-1.2,0-1.23-.43s.89-.44,1.14-.88-.08-.72-.4-.89a9.16,9.16,0,0,1-1-.43c.18-.41.72-.46,1.17-.53s1-.37.85-.8c-.05-.2-.24-.34-.37-.5s-.2-.44,0-.56a2.33,2.33,0,0,0,1.83.16,4.25,4.25,0,0,1,.81-.51c1-.3,1.84,1.23,2.77.85.67-.28.56-1.38,0-1.79a3.08,3.08,0,0,0-2.13-.26l-4,.46a6.74,6.74,0,0,1-1.19,0,7.26,7.26,0,0,1-.52.9c-.62.81-1.95,1.07-2.18,2.07-.14.66.3,1.3.43,2a4.12,4.12,0,0,1-.39,2.32,5.4,5.4,0,0,0-.55,2.3,1.7,1.7,0,0,0,1.41,1.66c.54,0,1-.3,1.59-.28.89,0,1.49.94,2.32,1.24,1.27.46,2.55-.57,3.87-.85a10.21,10.21,0,0,0,1.9-.33A4.32,4.32,0,0,0,54,80.16l4.84-4.37a11,11,0,0,1,4.43-2.87l.77-.4a4.45,4.45,0,0,0-2.69-2.44A2.31,2.31,0,0,0,60.62,71.19Z"/></g></g><g id="Groupe_204" data-name="Groupe 204"><path id="Tracé_1265" data-name="Tracé 1265" class="cls-15" d="M63.72,80.55c.08-2.33,1.75-4.4,1.74-6.72a1.05,1.05,0,0,0-.13-.61c-.26-.4-.87-.37-1.32-.21-1.5.52-2.6,1.81-4,2.6-.24.14-.58.25-.76,0,.3-1.3,1.46-2.19,2.39-3.15a5,5,0,0,0,1.17-1.92,6.34,6.34,0,0,0-1.67.92A46.26,46.26,0,0,0,57.77,75c-1.38,1.3-3.13,2.2-4.42,3.6s-2,3.65-.89,5.19a4.42,4.42,0,0,0,3.63,1.48,14,14,0,0,0,7.84-2.94A5.75,5.75,0,0,1,63.72,80.55Z"/><path id="Tracé_1266" data-name="Tracé 1266" class="cls-14" d="M70.24,76.52a9.12,9.12,0,0,0-1.39-4.41,5,5,0,0,0-3.7-1.9,5.86,5.86,0,0,0-2.34.37,4.82,4.82,0,0,1-1.16,1.91c-.93,1-2.09,1.85-2.39,3.16.17.21.52.1.76,0,1.38-.79,2.48-2.07,4-2.6.45-.15,1-.2,1.32.21a1.18,1.18,0,0,1,.13.61c0,2.33-1.66,4.4-1.74,6.72a5.71,5.71,0,0,0,.21,1.75c1-.71,2-1.5,3-2.27Z"/></g><g id="Groupe_206" data-name="Groupe 206"><path id="Tracé_1267" data-name="Tracé 1267" class="cls-10" d="M80.94,79a7.66,7.66,0,0,0-2.14-1.16c-1-.49-1.83-1.23-2.8-1.76a3.79,3.79,0,0,0-3.16-.47c-.37.14-.77.38-1.14.24a1.42,1.42,0,0,1-.55-.45,4.7,4.7,0,0,0-3.8-1.52,9,9,0,0,0-3,.92l-4.32,1.89a6.33,6.33,0,0,0-2.61,1.7c-.65.84-.86,2-1.59,2.74a9.76,9.76,0,0,0-.73.71A2.61,2.61,0,0,0,54.69,84a5.78,5.78,0,0,0,2,3.3,17.36,17.36,0,0,0,3.36,2.07l5.68,2.91a2.94,2.94,0,0,0,4.12-.45,2.83,2.83,0,0,0,.4-.67l5-6.32a13.38,13.38,0,0,1,1.45-1.65A7,7,0,0,1,80.4,81.4l.75-.21A1.52,1.52,0,0,0,80.94,79Z"/><g id="Groupe_205" data-name="Groupe 205"><path id="Tracé_1268" data-name="Tracé 1268" class="cls-11" d="M80.94,79a7.93,7.93,0,0,0-2.14-1.16c-1-.49-1.83-1.23-2.8-1.76a4.21,4.21,0,0,0-2.66-.61A2.6,2.6,0,0,0,72,77.23a4.21,4.21,0,0,1-.11.6,1.7,1.7,0,0,1-1.22.94,5.14,5.14,0,0,0-1.52.51,1.07,1.07,0,0,0-.44,1.38,1,1,0,0,0,.57.38,3,3,0,0,0,2.54-.86,4.32,4.32,0,0,1,2.44-1.25.64.64,0,0,1,.44.11c.41.32,0,.94-.47,1.23a63.65,63.65,0,0,1-6.8,4,1.33,1.33,0,0,1-1,.21c-.62-.19-.64-1.07-1.08-1.54-.64-.68-1.8-.24-2.67-.58-.11-.58.83-.88.88-1.46,0-.23-.1-.44-.09-.67,0-.38.41-.62.76-.79a33.36,33.36,0,0,1,5.4-2.1c-.45-.65-1.38-.66-2.17-.63-1.72.08-3.64,0-4.94-1.1l-2.5,1.09a6.36,6.36,0,0,0-2.61,1.71c-.65.84-.86,2-1.59,2.73-.24.25-.52.45-.74.71A2.63,2.63,0,0,0,54.68,84a5.68,5.68,0,0,0,2,3.3,17.25,17.25,0,0,0,3.36,2.07l5.67,2.9a2.94,2.94,0,0,0,4.13-.44,3.49,3.49,0,0,0,.4-.67l5-6.33a14.06,14.06,0,0,1,1.45-1.64,6.86,6.86,0,0,1,3.65-1.75l.75-.21A1.54,1.54,0,0,0,80.94,79Z"/></g></g><g id="Groupe_207" data-name="Groupe 207"><path id="Tracé_1269" data-name="Tracé 1269" class="cls-17" d="M75.75,86.49a6.73,6.73,0,0,0,1.06,1.14,5,5,0,0,0,1.21.69,3.36,3.36,0,0,0,1.5.3,1.57,1.57,0,0,0,1.27-.77,1.67,1.67,0,0,0-.17-1.63A5.51,5.51,0,0,0,79.41,85a35,35,0,0,1-3.58-3.41,11.1,11.1,0,0,0-2.21,1.16c-.16.11-.31.23-.46.35a10,10,0,0,0,.93,1.31Z"/><path id="Tracé_1270" data-name="Tracé 1270" class="cls-18" d="M88,84.82a5.5,5.5,0,0,0-1.45-2.14,7.81,7.81,0,0,0-2.45-1.22l-2.66-.94a3.73,3.73,0,0,0-1.15-.28,3.56,3.56,0,0,0-1.16.22c-.8.24-1.59.51-2.38.8l-.91.35A34.85,34.85,0,0,0,79.41,85a5.15,5.15,0,0,1,1.21,1.21,1.64,1.64,0,0,1,.17,1.63,1.55,1.55,0,0,1-1.27.76,3.25,3.25,0,0,1-1.5-.3,4.85,4.85,0,0,1-1.21-.69,7.17,7.17,0,0,1-1.06-1.14L74.1,84.43a10,10,0,0,1-.94-1.3,8.63,8.63,0,0,0-2.93,4.77,10,10,0,0,0,.62,6.16,7.93,7.93,0,0,0,6,4.93,8.18,8.18,0,0,0,5.79-1.84,24,24,0,0,0,4.23-4.54l1,.31A10.19,10.19,0,0,0,88,84.82Z"/></g><g id="Groupe_209" data-name="Groupe 209"><path id="Tracé_1271" data-name="Tracé 1271" class="cls-10" d="M90.13,86.13A5.69,5.69,0,0,0,87,81.44a2.47,2.47,0,0,0-1.85-.1,4.72,4.72,0,0,0-1.22,1A6.67,6.67,0,0,1,80.3,84c-1,.13-2.17.09-2.86.83-.23.25-.39.57-.61.83-.67.74-1.78.82-2.74,1.07s-2,1-1.8,2c.1.46.47.82.6,1.27.41,1.5-2,2.86-1.33,4.28.29.67,1.11.91,1.61,1.43.92.93.66,2.48,1.13,3.7a3.94,3.94,0,0,0,2.87,2.26,7,7,0,0,0,3.73-.39,11.55,11.55,0,0,0,7.3-8.58L89.44,92A16.16,16.16,0,0,0,90.13,86.13Z"/><g id="Groupe_208" data-name="Groupe 208"><path id="Tracé_1272" data-name="Tracé 1272" class="cls-11" d="M89.92,85.05l-.34,0a1.89,1.89,0,0,0-1.31,1.37,3.3,3.3,0,0,1-.33,1.38c-.36.47-1.06.45-1.6.7a.69.69,0,0,0-.28.2.87.87,0,0,0-.08.5,2.86,2.86,0,0,1-.17,1.56.93.93,0,0,1-1.23.45l-.09-.05c-.41-.36-.25-1-.09-1.54a9.21,9.21,0,0,0,.35-3.26,1.16,1.16,0,0,0-.23-.74.86.86,0,0,0-1.08,0,1.83,1.83,0,0,0-.62,1,4.39,4.39,0,0,0-.17,1.57,12.12,12.12,0,0,1,.11,1.47,1.44,1.44,0,0,1-.66,1.24c-.53.28-1.25.06-1.7.45a1.77,1.77,0,0,0-.45.93,3.06,3.06,0,0,1-1.07,1.67,1.56,1.56,0,0,1-1.87,0,2.33,2.33,0,0,1-.37-2.23,2.94,2.94,0,0,0-.13-2.29,9.45,9.45,0,0,0-.78-.77.85.85,0,0,1-.18-1,1.75,1.75,0,0,1,.47-.35,1.8,1.8,0,0,0,.8-1.66c-.66.74-1.77.81-2.73,1.06s-2,1-1.8,2c.1.46.48.82.6,1.27.42,1.5-2,2.86-1.33,4.29.3.66,1.11.9,1.62,1.42.92.93.66,2.48,1.13,3.7a3.89,3.89,0,0,0,2.86,2.26,6.93,6.93,0,0,0,3.74-.39,11.57,11.57,0,0,0,7.3-8.58L89.45,92a16.61,16.61,0,0,0,.7-5.86A7.67,7.67,0,0,0,89.92,85.05Z"/></g></g><g id="Groupe_210" data-name="Groupe 210"><path id="Tracé_1273" data-name="Tracé 1273" class="cls-14" d="M86.8,100.14a3.92,3.92,0,0,1-.87.43.74.74,0,0,1-.85-.28,1,1,0,0,1-.06-.6c.48-3.53,3.7-6,5-9.33,1.27-3.1.78-6.64,1.59-9.88a25,25,0,0,0,2.66,3.14l-.69-1.45-1.92-4c-.7.26-.75,1.5-1.49,1.57s-1.06-.81-1.68-.71a30.71,30.71,0,0,1-6.26,19.43,11.76,11.76,0,0,0-2.37,3.88,1.41,1.41,0,0,0,0,1,1.49,1.49,0,0,0,.61.53,18.35,18.35,0,0,0,4.4,1.8,1.43,1.43,0,0,0,.68.07,1.47,1.47,0,0,0,.66-.46l4.57-4.67-.38-.29A3.6,3.6,0,0,0,86.8,100.14Z"/><path id="Tracé_1274" data-name="Tracé 1274" class="cls-15" d="M99.66,92.57a42.26,42.26,0,0,1-5.35-8.95,25,25,0,0,1-2.66-3.14c-.81,3.24-.32,6.78-1.59,9.88-1.34,3.3-4.57,5.8-5,9.33a1,1,0,0,0,.06.6.75.75,0,0,0,.85.28,3.92,3.92,0,0,0,.87-.43,3.6,3.6,0,0,1,3.68.15,3.47,3.47,0,0,1,.38.29l7.06-7.21Z"/></g><g id="Groupe_212" data-name="Groupe 212"><path id="Tracé_1275" data-name="Tracé 1275" class="cls-13" d="M90,87.49a.73.73,0,0,0-.64.09.65.65,0,0,0-.16.46c-.14,1.42-.27,2.84-.4,4.25a18.65,18.65,0,0,1-.46,3.07c-.22.88-.58,1.73-.77,2.62a13.93,13.93,0,0,0-.25,2.58l-.2,5.12a.68.68,0,0,0,.07.44.73.73,0,0,0,.66.23c3.1,0,5.75-2.14,8.14-4.14l4.94-3.52A80.36,80.36,0,0,0,103.46,90Z"/><g id="Groupe_211" data-name="Groupe 211"><path id="Tracé_1276" data-name="Tracé 1276" class="cls-12" d="M96.76,92.35a3.1,3.1,0,0,0-1.52,2.11,2.61,2.61,0,0,0-2.91.29,6.46,6.46,0,0,0-1.8,2.52,29.7,29.7,0,0,0-2.68,9.08h0c3.11,0,5.76-2.14,8.14-4.13l4.94-3.53c.47-1.34.9-2.68,1.3-4a20.06,20.06,0,0,0-3.38-2A2.86,2.86,0,0,0,96.76,92.35Z"/><path id="Tracé_1277" data-name="Tracé 1277" class="cls-12" d="M92.13,88.51c-.49,0-1.06.12-1.27.55,3.76,1.78,8.1,2,12.06,3.15.16-.62.31-1.24.46-1.85L96.58,89A20.82,20.82,0,0,0,92.13,88.51Z"/></g></g><g id="Groupe_214" data-name="Groupe 214"><path id="Tracé_1278" data-name="Tracé 1278" class="cls-10" d="M119.92,98.23a5.23,5.23,0,0,0-3.26-2.86,6.23,6.23,0,0,1-1.2-.39,1.14,1.14,0,0,1-.66-1c0-.34.24-.7,0-1s-.65-.18-1-.08c-2.18.62-4.34-.84-6.55-1.34a1,1,0,0,0-.57,0,1.53,1.53,0,0,0-.52.46,2.33,2.33,0,0,1-2.33.33,17.44,17.44,0,0,0-2.34-.8c-1.77-.28-3.4.88-4.75,2.05a11.59,11.59,0,0,0-3.8,5c-.29.9-.44,2-1.22,2.51a6.69,6.69,0,0,1-1.3.53,3.32,3.32,0,0,0-.18,6.08l.2-.12c.07.77.9,1.26,1.66,1.38a14.91,14.91,0,0,1,2.3.29,5.2,5.2,0,0,1,2.34,2.18,18.23,18.23,0,0,1,1.9,3.14,14.66,14.66,0,0,0,.86,1.94,2.44,2.44,0,0,0,1.65,1.23c1.2.16,2.18-1,2.68-2.06s.82-2.37,1.77-3.11c1.46-1.15,3.56-.52,5.41-.41a7.12,7.12,0,0,0,4-.88,5.11,5.11,0,0,0,2.44-3.24c.13-.63.13-1.3.3-1.92.36-1.33,1.44-2.33,2-3.58A5.2,5.2,0,0,0,119.92,98.23Z"/><g id="Groupe_213" data-name="Groupe 213"><path id="Tracé_1279" data-name="Tracé 1279" class="cls-11" d="M108.83,100.12a.74.74,0,0,1,0,.44.83.83,0,0,1-.39.37,4.92,4.92,0,0,0-1.6,1.64,9.35,9.35,0,0,1,4.65-2c1.6-.22,3.36,0,4.7-1a1,1,0,0,0,.52-.75,1.06,1.06,0,0,0-.19-.51,5,5,0,0,0-2-1.85.65.65,0,0,0-.66-.06.69.69,0,0,0-.21.54,22.69,22.69,0,0,0,0,2.33l-3.81.62a4.25,4.25,0,0,0,.45-3.2,3.27,3.27,0,0,0-.75-2,6.38,6.38,0,0,0-1.52-.82,3.36,3.36,0,0,1-1.62-2l-.21.23a1.86,1.86,0,0,1-1.34.49C106.93,94.44,108,97.37,108.83,100.12Z"/><path id="Tracé_1280" data-name="Tracé 1280" class="cls-11" d="M103,112.89a1.19,1.19,0,0,0-1.23-.27c-.19.09-.34.26-.53.36a1.25,1.25,0,0,1-1.51-.49,3.25,3.25,0,0,1-.44-1.66,19.8,19.8,0,0,1,.07-3.61,5.09,5.09,0,0,1,.52-2c.72-1.26,2.26-1.77,3.65-2.18l-1.13-2.31a3.76,3.76,0,0,0-1.49-1.87,1.94,1.94,0,0,0-2.4.64,3.44,3.44,0,0,0-.17,2.65,5.8,5.8,0,0,1,.27,2.68c-.22.88-1.19,1.65-2,1.27s-1.1-1.34-1.87-1.23a5.33,5.33,0,0,0-.63.23,1.54,1.54,0,0,1-1.47-.48,8.84,8.84,0,0,1-1-1.32A4.63,4.63,0,0,0,90,101.86a3.32,3.32,0,0,0,.25,5.86l.2-.12c.08.78.9,1.26,1.67,1.38a14.91,14.91,0,0,1,2.3.29,5.25,5.25,0,0,1,2.34,2.18,18.88,18.88,0,0,1,1.9,3.14,14.66,14.66,0,0,0,.86,1.94,2.44,2.44,0,0,0,1.65,1.23c1.2.16,2.17-1,2.67-2.06.21-.46.39-1,.6-1.42a2.85,2.85,0,0,1-.6-.43C103.57,113.54,103.33,113.17,103,112.89Z"/></g></g><path id="Tracé_1281" data-name="Tracé 1281" class="cls-21" d="M113,104.72a2.54,2.54,0,0,0-1.47,1.66q3.16,1.26,6.39,2.36Z"/></g><g id="Groupe_232" data-name="Groupe 232"><g id="Groupe_217" data-name="Groupe 217"><path id="Tracé_1284" data-name="Tracé 1284" class="cls-10" d="M41.72,73.37a5.1,5.1,0,0,0-4.35-1.46c-1.21.25-2.3,1.1-3.53,1-.94,0-2-.58-2.74,0-.56.42-.63,1.28-1.18,1.73s-1.17.34-1.77.51c-1,.27-1.76,1.15-2.73,1.55a1,1,0,0,1-.63.09c-.56-.16-.57-1-.46-1.52-1.21-.52-2.55.31-3.55,1.17A1.84,1.84,0,0,0,20,77.61a2,2,0,0,0,.2.92l3.88,9.63a2.41,2.41,0,0,1,.24.91c0,.87-.94,1.64-.67,2.47s1.43.9,2,1.56c.26.32.36.77.64,1.07.65.69,1.78.31,2.62-.11l2.3-1.15a15,15,0,0,0,2.48-1.45,13.24,13.24,0,0,0,2-2A69.94,69.94,0,0,0,42,80.75l2.41-3.48A15.35,15.35,0,0,0,41.72,73.37Z"/><g id="Groupe_216" data-name="Groupe 216"><path id="Tracé_1285" data-name="Tracé 1285" class="cls-16" d="M29.41,76.09a.56.56,0,0,0,0,.44c.12.23.47.11.67-.06a12.39,12.39,0,0,0,1.05-1.34,1.69,1.69,0,0,1,1.46-.71c.23,0,.43.15.66.2a3,3,0,0,0,1.52-.34,1.43,1.43,0,0,1,1.5.11,2.37,2.37,0,0,0,.34.37c.32.23.76,0,1.1-.19a2.06,2.06,0,0,0,.94-.93c.23-.67-.28-1.35-.84-1.79l-.41.06c-1.2.25-2.29,1.1-3.52,1-.94,0-2-.58-2.74,0-.56.42-.63,1.28-1.18,1.73a1.57,1.57,0,0,1-.55.27A1.41,1.41,0,0,1,29.41,76.09Z"/><path id="Tracé_1286" data-name="Tracé 1286" class="cls-11" d="M41.06,75c-.94.38-1.81,1.13-2.83,1.06A3.57,3.57,0,0,0,37.1,76c-.47.14-.73.64-1.06,1s-1,.61-1.29.22c-.42-.54.44-1.47,0-2s-1,0-1.32.39a24.15,24.15,0,0,0-3.08,4.1A5.76,5.76,0,0,1,29,81.38a8,8,0,0,0-.84.6c-.76.73-.64,1.94-.64,3a9.38,9.38,0,0,1-1.37,4.81c-.21-.5.33-1,.6-1.42a3.08,3.08,0,0,0-.08-2.4l-.9-2.83a5.39,5.39,0,0,1-.37-1.9c.07-1.7,1.6-2.92,3-3.9a1.77,1.77,0,0,0-1.9.19A7.09,7.09,0,0,0,25.17,79a12.89,12.89,0,0,1-1.59,1.71,2.9,2.9,0,0,1-2.1,1l2.61,6.47a2.36,2.36,0,0,1,.24.91c0,.87-.94,1.64-.67,2.46s1.43.9,2,1.57c.26.32.35.76.64,1.07.64.68,1.78.31,2.62-.11l2.3-1.15a15,15,0,0,0,2.48-1.45,13.24,13.24,0,0,0,2-2A69.94,69.94,0,0,0,42,80.74l2.4-3.48a23.48,23.48,0,0,0-1.57-2.59A4.1,4.1,0,0,0,41.06,75Z"/></g></g><g id="Groupe_219" data-name="Groupe 219"><path id="Tracé_1287" data-name="Tracé 1287" class="cls-14" d="M49.13,75.79A29.44,29.44,0,0,0,35.44,79a44.25,44.25,0,0,0-4.75,3.13A6.58,6.58,0,0,0,29,83.68c-.83,1.23-.73,2.83-.57,4.3.24,2.15.54,4.3.9,6.43a13.49,13.49,0,0,0,1.1,3.9,2.33,2.33,0,0,0,1.17,1.24,2.41,2.41,0,0,0,1,.1,10.11,10.11,0,0,0,5.66-1.87,17.12,17.12,0,0,0,2.39-2.35A65.63,65.63,0,0,0,45,90.2,32.2,32.2,0,0,0,48,85l2.5-1.1Z"/><g id="Groupe_218" data-name="Groupe 218"><path id="Tracé_1288" data-name="Tracé 1288" class="cls-15" d="M38.64,80.1a16.75,16.75,0,0,0-5.31,2.61,6.7,6.7,0,0,0-2.7,5.08c0,2.26,1.51,4.32,1.54,6.58,0,.42-.23,1-.63.86a.7.7,0,0,1-.36-.36C29.5,92,29.54,88.5,29.67,85.18c0-.78.07-1.58.15-2.36a4.07,4.07,0,0,0-.8.86c-.83,1.23-.73,2.83-.57,4.3.24,2.15.54,4.3.9,6.43a13.49,13.49,0,0,0,1.1,3.9,2.33,2.33,0,0,0,1.17,1.24,2.38,2.38,0,0,0,1,.1,10.11,10.11,0,0,0,5.67-1.87,17.12,17.12,0,0,0,2.39-2.35A65.63,65.63,0,0,0,45,90.2,33,33,0,0,0,48,85l2.5-1.1L49.41,77.4A69.84,69.84,0,0,0,38.64,80.1Z"/></g></g><g id="Groupe_220" data-name="Groupe 220"><path id="Tracé_1289" data-name="Tracé 1289" class="cls-16" d="M45.23,80.37a6.92,6.92,0,0,1,.88.39,5,5,0,0,0,1.68.26,1.72,1.72,0,0,0,.64-.06c.44-.14.82-.62,1.25-.47a3.38,3.38,0,0,1,.41.24c.14.06.35,0,.41-.09s-.09-.32-.23-.43a4.72,4.72,0,0,1-.87-.86,1.13,1.13,0,0,1-.33-.95,1.45,1.45,0,0,0,.1-.41.74.74,0,0,0,0-.14,4.86,4.86,0,0,1-.55-.1c-.94-.21-1.81-.64-2.73-.92a.83.83,0,0,0-.75,0,.82.82,0,0,0-.23.44,8.42,8.42,0,0,0-.25,2.78,1,1,0,0,1,0,.25A1.76,1.76,0,0,1,45.23,80.37Z"/><path id="Tracé_1290" data-name="Tracé 1290" class="cls-23" d="M36.2,97.83a3.92,3.92,0,0,0-.07.68A1,1,0,0,0,36.2,97.83Z"/><path id="Tracé_1291" data-name="Tracé 1291" class="cls-10" d="M60.75,82.84c-.68-1.12-2.18-1.33-3.38-1.86-1.55-.69-2.76-2.06-4.37-2.61a21.05,21.05,0,0,0-3.88-.52.35.35,0,0,1,.05.13,1.45,1.45,0,0,1-.1.41,1.13,1.13,0,0,0,.32,1,5.12,5.12,0,0,0,.88.86c.14.1.3.26.23.42s-.27.16-.41.09l-.41-.23c-.43-.15-.81.32-1.25.47a2,2,0,0,1-.64.05,4.58,4.58,0,0,1-1.68-.26,8.64,8.64,0,0,0-.88-.38,1.78,1.78,0,0,0-.61,0,.48.48,0,0,1-.07.23.75.75,0,0,1-.3.2l-2.12.94a1.85,1.85,0,0,0-2-.83,5.8,5.8,0,0,1-.84.24,5.59,5.59,0,0,1-1.57-.35c-1.42-.25-2.63,1-3.55,2-.28.34-.57.68-.84,1a.46.46,0,0,0,.23.35.72.72,0,0,0,.5.06c1.33-.23,2-2,3.34-2.12q-.42.8-.81,1.59c-.11.23-.21.53-.06.73s.72,0,.95-.24.5-.69.88-.64a7.15,7.15,0,0,0-1,2.55c-.11.62-.13,1.24-.27,1.85a17.18,17.18,0,0,0-.46,1.88,1.79,1.79,0,0,0,.67,1.71l2.2-2.37A5.84,5.84,0,0,0,40.45,88a11.22,11.22,0,0,0,.67-1.78,7.63,7.63,0,0,1,1.42-2.41,8,8,0,0,1-.79,3.86,6.62,6.62,0,0,0-.63,1.5,11.5,11.5,0,0,1-.18,1.55c-.51,1.49-2.8,1.58-3.53,3-.37.7-.25,1.56-.56,2.28A11.33,11.33,0,0,1,36,97.3a1.39,1.39,0,0,0-.08,1.48,1,1,0,0,0,.2-.28,5.08,5.08,0,0,1,.07-.67,1,1,0,0,1-.07.67,5.16,5.16,0,0,0,.56,2.56.78.78,0,0,0,.52.47.63.63,0,0,0,.35-.09,1.66,1.66,0,0,0,.71-1.39,7.2,7.2,0,0,0-.24-1.6,2.4,2.4,0,0,1,.1-1.52,1,1,0,0,1,1.3-.47h0c.44.28.45.91.49,1.43s.36,1.16.88,1.09a.9.9,0,0,0,.6-.51,4.57,4.57,0,0,0,0-3c-.1-.46-.14-1,.25-1.29s.61-.13.87-.31a1.27,1.27,0,0,0,.37-.82,14.8,14.8,0,0,1,1.52-4.38,7.07,7.07,0,0,0,1.12-2.79c0-.65-.13-1.29-.05-1.93s.56-1.31,1.2-1.27q.14.81.27,1.59c0,.26.13.56.37.63.5.16.67-.7,1.13-.93s.91.16,1.37.07.61-.41.93-.61a1.33,1.33,0,0,1,1.8.52.3.3,0,0,0,0,.08,2.74,2.74,0,0,0,.15.4c.36.6,1.34.36,1.87.8s.29,1.66.83,2.29,1.36.42,2.06.2a2.41,2.41,0,0,1,2.11-.07,1.42,1.42,0,0,1,.3.3c.2-.76.57-1.47.84-2.21A3.4,3.4,0,0,0,60.75,82.84Z"/><path id="Tracé_1292" data-name="Tracé 1292" class="cls-11" d="M59.6,87.65a2.41,2.41,0,0,0-2.11.06c-.7.23-1.58.36-2.06-.19s-.18-1.77-.82-2.29-1.52-.2-1.87-.8a2.23,2.23,0,0,1-.16-.4,1.32,1.32,0,0,0-1.75-.65l-.09.05c-.32.2-.56.54-.93.61s-1-.29-1.37-.07-.63,1.09-1.13.93c-.24-.08-.32-.38-.36-.63l-.28-1.59c-.64-.05-1.12.63-1.2,1.26s.1,1.29.06,1.93a7.24,7.24,0,0,1-1.13,2.79A15.09,15.09,0,0,0,42.88,93a1.2,1.2,0,0,1-.37.82c-.25.18-.61.14-.87.31s-.35.83-.25,1.29a4.45,4.45,0,0,1,0,3,.88.88,0,0,1-.59.51c-.52.08-.84-.57-.88-1.09s-.05-1.15-.49-1.43a1,1,0,0,0-1.3.47h0a2.27,2.27,0,0,0-.1,1.52,7.91,7.91,0,0,1,.23,1.61,1.62,1.62,0,0,1-.71,1.38.53.53,0,0,1-.35.09c-.24,0-.4-.25-.52-.47a5.14,5.14,0,0,1-.56-2.55,1.05,1.05,0,0,1-.2.27A1.39,1.39,0,0,1,36,97.3,12.91,12.91,0,0,0,36.85,96c.3-.72.18-1.58.55-2.28.74-1.39,3-1.48,3.53-3a11.86,11.86,0,0,0,.19-1.56,6.26,6.26,0,0,1,.62-1.49,8,8,0,0,0,.79-3.86,7.42,7.42,0,0,0-1.42,2.41A10.64,10.64,0,0,1,40.44,88a6.87,6.87,0,0,1-.92,1.17l-2.2,2.37a1.82,1.82,0,0,1-.68-1.72A15.65,15.65,0,0,1,37.11,88c.13-.6.16-1.23.26-1.84a7.13,7.13,0,0,1,1-2.56c-.38,0-.64.34-.87.64s-.72.54-.95.24-.06-.5.06-.72c.26-.54.52-1.07.8-1.6-1.33.15-2,1.89-3.33,2.12a.69.69,0,0,1-.51-.06.46.46,0,0,1-.23-.34,8.71,8.71,0,0,0-1.8,3.38,2.72,2.72,0,0,0,0,1.17,3.63,3.63,0,0,0,.92,1.5,12.25,12.25,0,0,1,2.34,3.61,1.69,1.69,0,0,1,.15.7,2.4,2.4,0,0,1-.27.91,26.09,26.09,0,0,0-1.29,3.42,7.15,7.15,0,0,0-.41,2.86,3,3,0,0,0,1.43,2.4,2,2,0,0,0,2.57-.57,1.35,1.35,0,0,1,.36-.52c.54-.34,1.28.55,1.82.22a1.62,1.62,0,0,0,.32-.32c.67-.7,1.89-.23,2.48.52a25.57,25.57,0,0,0,1.56,2.42c1.17,1.18,3.13,1.09,4.67.46a11.45,11.45,0,0,0,5.22-4.73,34.37,34.37,0,0,0,2.9-6.53l1.32-3.63,2.22-2.57q0-.3.12-.6A1.42,1.42,0,0,0,59.6,87.65Z"/></g><g id="Groupe_222" data-name="Groupe 222"><path id="Tracé_1294" data-name="Tracé 1294" class="cls-17" d="M64.12,87.74c-1.1-1.29-2.92-1.67-4.6-1.93a20.35,20.35,0,0,0-3.81-.32,11.61,11.61,0,0,0-11.21,12,10.55,10.55,0,0,0,.11,1.25,5.11,5.11,0,0,0,1,2.67,6.54,6.54,0,0,0,2.87,1.63l2.39.87a5.81,5.81,0,0,0,7.54-1.58A32.38,32.38,0,0,0,62.58,98a11.24,11.24,0,0,0,2.3-5.44Z"/><g id="Groupe_221" data-name="Groupe 221"><path id="Tracé_1295" data-name="Tracé 1295" class="cls-18" d="M51,90.59a4,4,0,0,1-2.35-1,6.55,6.55,0,0,1,5.23-2.07A16.55,16.55,0,0,1,59.52,89a37.28,37.28,0,0,1,5.18,2.48l-.58-3.69c-1.1-1.29-2.92-1.67-4.6-1.93a20.28,20.28,0,0,0-3.81-.32,11.62,11.62,0,0,0-11.21,12,10.2,10.2,0,0,0,.11,1.24,5.11,5.11,0,0,0,1,2.68,6.54,6.54,0,0,0,2.87,1.63l2.39.87a5.81,5.81,0,0,0,7.54-1.58A31.16,31.16,0,0,0,62.58,98c.08-.1.15-.21.23-.32A21.45,21.45,0,0,0,51,90.59Z"/></g><path id="Tracé_1296" data-name="Tracé 1296" class="cls-19" d="M58.45,87.6A10.09,10.09,0,0,0,52.57,92a14.43,14.43,0,0,0-2.16,7.1,4.51,4.51,0,0,0,.34,2.35,3.43,3.43,0,0,0,4,1.39,8,8,0,0,0,3.63-2.75,26,26,0,0,0,4.85-8.78l2.64-.92C64.73,89,60.2,87.17,58.45,87.6Z"/></g><g id="Groupe_224" data-name="Groupe 224"><path id="Tracé_1298" data-name="Tracé 1298" class="cls-10" d="M71.37,89.42A5.8,5.8,0,0,0,67,87.58a3.34,3.34,0,0,1-1.26,0c-.68-.2-1-.93-1.49-1.47a4.44,4.44,0,0,0-3.14-1.45,9.17,9.17,0,0,0-3.48.59,3.49,3.49,0,0,0-1.94,1.24A1.39,1.39,0,0,0,56,88.43l.12.07a1.23,1.23,0,0,0-1.42.88,2,2,0,0,0,.43,1.73,3.09,3.09,0,0,1,.6.83c.28.74-.4,1.55-1.16,1.76a6,6,0,0,1-2.36-.1,2.83,2.83,0,0,0-2.26.41,1,1,0,0,0-.34.5,1.09,1.09,0,0,0,.25.82c.56.76,1.6,1.23,1.75,2.15.07.46-.1,1,.1,1.37s.82.66,1.08,1.1c.38.66-.13,1.49,0,2.22s1.12,1.21,1.75,1.78a6.47,6.47,0,0,1,1.18,1.7c.79,1.41,2,2.95,3.58,2.87a9.24,9.24,0,0,1-4.27.42,4.41,4.41,0,0,0-2,0c-.63.19-1.15,1-.82,1.53.44.77,1.6.39,2.48.49s1.68.86,2.59,1.16c.62.2,1.3.18,1.93.37,1,.33,1.9,1.23,3,1.27a3.54,3.54,0,0,0,2.08-.85,29.56,29.56,0,0,0,4.63-4.59,21.55,21.55,0,0,0,2.44-3.19c1.76-3,2.12-6.5,2.44-9.91l.3-1.66A15.84,15.84,0,0,0,71.37,89.42Z"/><g id="Groupe_223" data-name="Groupe 223"><path id="Tracé_1299" data-name="Tracé 1299" class="cls-11" d="M70.79,95.77a2.84,2.84,0,0,1-.91.71,1,1,0,0,1-1.09-.14,1.16,1.16,0,0,1-.26-.86,2.74,2.74,0,0,1,.76-1.78,2.62,2.62,0,0,0-3-.69c-1.11.5-1.83,1.77-3,2a12.6,12.6,0,0,0-1.84.09c-1.18.38-1.44,2-2.49,2.68a.58.58,0,0,1-.4.1c-.22,0-.32-.31-.34-.54A3.32,3.32,0,0,1,59.35,95l1.89-2.09c.9-1,1.92-2.05,3.26-2.18.42,0,.93,0,1.17-.38a4.27,4.27,0,0,0-1.47-1.3,1.78,1.78,0,0,0-1.87.16c-.39.33-.57.86-.95,1.21-.56.5-1.52.59-1.79,1.29-.2.5.08,1.11-.17,1.59-.39.77-1.64.5-2.25,1.1s-.16,2-.78,2.71a1.13,1.13,0,0,1-1.6,0,1.05,1.05,0,0,1-.28-.53c0-.37.11-.8-.09-1.12s-.46-.35-.63-.58a1,1,0,0,1,.1-1.08,10.79,10.79,0,0,1-1.7-.19,2.85,2.85,0,0,0-2.27.41.94.94,0,0,0-.33.5,1.08,1.08,0,0,0,.24.83c.56.75,1.6,1.22,1.75,2.15.07.45-.1,1,.1,1.37s.82.65,1.08,1.1c.38.65-.13,1.48,0,2.22s1.12,1.2,1.75,1.77a6.44,6.44,0,0,1,1.19,1.7c.78,1.42,2,3,3.57,2.87a9.1,9.1,0,0,1-4.27.42,4.52,4.52,0,0,0-2-.05c-.64.2-1.15,1-.83,1.53.44.78,1.6.39,2.48.49s1.69.86,2.59,1.16c.62.21,1.3.18,1.93.38,1,.32,1.9,1.23,3,1.26a3.5,3.5,0,0,0,2.08-.85,29.43,29.43,0,0,0,4.62-4.58,22.9,22.9,0,0,0,2.45-3.19c1.75-3,2.12-6.5,2.44-9.92l.3-1.66-.05-.08-.24.08A9.29,9.29,0,0,0,70.79,95.77Z"/></g></g><g id="Groupe_226" data-name="Groupe 226"><path id="Tracé_1300" data-name="Tracé 1300" class="cls-14" d="M77.12,96.07l-.4-.8C76,94.15,74.51,94,73.2,93.93a22.72,22.72,0,0,0-3.69.09c-6.53.83-11.37,6.54-17.61,8.61l4.32,5.19a14.82,14.82,0,0,0,2.2,2.28,22.06,22.06,0,0,0,3.83,2.06,27.17,27.17,0,0,0,3,1.43,8.54,8.54,0,0,0,9.55-3.06,14.8,14.8,0,0,0,1.62-3.32,21.1,21.1,0,0,0,1-3.2A23.54,23.54,0,0,0,77.12,96.07Z"/><g id="Groupe_225" data-name="Groupe 225"><path id="Tracé_1301" data-name="Tracé 1301" class="cls-15" d="M77.12,96.07l-.4-.8C76,94.15,74.51,94,73.2,93.93a22.72,22.72,0,0,0-3.69.09c-4.42.56-8.07,3.36-11.9,5.76l.09.09a2.66,2.66,0,0,0,2.8.28,8.76,8.76,0,0,0,2.38-1.76,6.33,6.33,0,0,1,2.48-1.59,1,1,0,0,1,.69,0c.38.19.42.71.47,1.13A16.24,16.24,0,0,0,68,101.42a6.71,6.71,0,0,1-.5,5.81.88.88,0,0,1-.43.42.75.75,0,0,1-.51,0A2.41,2.41,0,0,1,65,106a2.19,2.19,0,0,0-.3-.82c-.49-.63-1.48-.18-2.21.13a4.9,4.9,0,0,1-3.25.19,3.66,3.66,0,0,0-1-.24.89.89,0,0,0-.86.53.9.9,0,0,0,0,.4,3,3,0,0,0,1.68,2,11.54,11.54,0,0,1,2.31,1.33c.75.7,1.2,1.75,2.12,2.2a9.12,9.12,0,0,0,1.42.4A3.57,3.57,0,0,1,67,114a8.57,8.57,0,0,0,7.79-3.45,14.8,14.8,0,0,0,1.62-3.32,20,20,0,0,0,1-3.2A23.59,23.59,0,0,0,77.12,96.07Z"/></g></g><g id="Groupe_229" data-name="Groupe 229"><path id="Tracé_1302" data-name="Tracé 1302" class="cls-12" d="M83.17,104.93a19.56,19.56,0,0,0-1.69-6.54,8.15,8.15,0,0,0-1.71-3,6.45,6.45,0,0,0-2.06-1.27,17.14,17.14,0,0,0-5.07-1.3,9.8,9.8,0,0,0-4,.31,5.39,5.39,0,0,0-3.11,2.37A6.39,6.39,0,0,0,65,99.27c.14,1.31.51,2.58.74,3.87a36.65,36.65,0,0,1,.39,7.1,18.52,18.52,0,0,0,.63,6.28,6,6,0,0,0,4.37,4.17c2.37.4,4.66-1.2,6.13-3.11s2.42-4.18,3.94-6a6.94,6.94,0,0,0,1.29-1.84L82.9,108A20.3,20.3,0,0,0,83.17,104.93Z"/><g id="Groupe_227" data-name="Groupe 227"><path id="Tracé_1303" data-name="Tracé 1303" class="cls-13" d="M74.85,95.1a8.13,8.13,0,0,1-.52,1.07,4.84,4.84,0,0,0-.44,2.73l1-.44c.19-.08.43-.15.57,0a.47.47,0,0,1,.06.43l-.13.85c0,.29-.06.65.2.79a.67.67,0,0,0,.42,0l1-.12c.63-.07,1.37-.22,1.63-.8s-.15-1.29-.29-2a5.1,5.1,0,0,1,.69-3,9.05,9.05,0,0,0-1.28-.65,16.44,16.44,0,0,0-3-1A3,3,0,0,1,74.85,95.1Z"/></g><g id="Groupe_228" data-name="Groupe 228"><path id="Tracé_1304" data-name="Tracé 1304" class="cls-13" d="M68.55,102.62a.54.54,0,0,0,.68.35l.1,0a.64.64,0,0,0,.22-.41.75.75,0,0,0-.5-.81.59.59,0,0,0-.72.42s0,.06,0,.09l.57-.45A.81.81,0,0,0,68.55,102.62Z"/><path id="Tracé_1305" data-name="Tracé 1305" class="cls-13" d="M71,102a.4.4,0,0,0-.58,0,.39.39,0,0,0-.09.23l.37-.24c-.5,1.44-1.65,2.54-2.53,3.78-.13.19-.25.45-.1.62a.48.48,0,0,0,.55,0,3.63,3.63,0,0,0,1.65-1.57,8.14,8.14,0,0,0,.79-2.18A.75.75,0,0,0,71,102Z"/></g></g><g id="Groupe_231" data-name="Groupe 231"><path id="Tracé_1306" data-name="Tracé 1306" class="cls-10" d="M96.3,110.5a1.45,1.45,0,0,0-.56-.54l-7-4.74c.54.11.85-.71.55-1.17a2.45,2.45,0,0,0-1.42-.78,5.3,5.3,0,0,1-2-1c-.63-.56-1-1.34-1.71-1.86-1.57-1.24-3.9-.65-5.59.42a1.56,1.56,0,0,1,.22,2.2l0,0a4.73,4.73,0,0,1-2.16,1.28,4.15,4.15,0,0,0-2.11,1.36c-.63.93-.45,2.22-1,3.18-.68,1.17-2.25,1.57-2.93,2.74a.63.63,0,0,0-.09.62c.15.27.53.26.83.31a1.38,1.38,0,0,1,1,1.66.23.23,0,0,1,0,.11c-.2.54-.75.9-1,1.42a2.6,2.6,0,0,0,.47,2.51,7.78,7.78,0,0,0,6.16,3.4c1.35,0,2.7-.29,4-.19a22.12,22.12,0,0,0,3.26.36,8.55,8.55,0,0,0,2.37-.62l3.84-1.42a6.85,6.85,0,0,0,2.4-1.27,2.32,2.32,0,0,0,.68-2.47l.46-.43a10.3,10.3,0,0,0,1.43-4.39A1.43,1.43,0,0,0,96.3,110.5Z"/><g id="Groupe_230" data-name="Groupe 230"><path id="Tracé_1307" data-name="Tracé 1307" class="cls-11" d="M80.54,101.87c.09.69-.93,1-1.17,1.65a2.82,2.82,0,0,0,0,1.26,4.13,4.13,0,0,1-1.31,2.79c-.26.31-.48.86-.11,1a.55.55,0,0,0,.45,0c1.15-.48,1.7-1.77,2.32-2.85s1.74-2.18,3-1.86A.57.57,0,0,1,84,104c.16.2,0,.5-.1.71a5.43,5.43,0,0,1-2,1.84c-.3.17-.67.44-.55.76s.48.29.74.19a2.18,2.18,0,0,1,.79-.27c.52,0,.82.68.64,1.18a2.29,2.29,0,0,1-1.08,1.09,3,3,0,0,0-1.18,1A1.66,1.66,0,0,1,81,111a1.07,1.07,0,0,1-.65.18l-2.11.08a1.48,1.48,0,0,0-1.12.36c-.49.58.22,1.5,1,1.55a5.14,5.14,0,0,0,2.14-.69.63.63,0,0,1,.9.21,4.83,4.83,0,0,0,.73.83.94.94,0,0,0,1,.12c.38-.25.4-.8.44-1.26a4.23,4.23,0,0,1,1.31-2.65.92.92,0,0,1,.5-.27c.65-.06,1,1,1.62.88.41-.11.45-.66.44-1.08s.11-1,.54-1,.87.71,1.27.46-.1-.83-.23-1.29a1.06,1.06,0,0,1,.63-1.17,2.09,2.09,0,0,1,.59-.17l-1.3-.87c.54.11.86-.71.55-1.17a2.45,2.45,0,0,0-1.42-.78,5.45,5.45,0,0,1-2-1c-.63-.56-1-1.34-1.71-1.86-1.57-1.24-3.9-.65-5.59.42a1.06,1.06,0,0,1,.46.54l.3-.08C79.81,101.15,80.48,101.36,80.54,101.87Z"/><path id="Tracé_1308" data-name="Tracé 1308" class="cls-11" d="M94.48,111.33a.6.6,0,0,1-.57-.06c-.13-.15-.08-.34-.09-.52a1.31,1.31,0,0,0-1.51-1.06,1.18,1.18,0,0,0-.3.1,2.12,2.12,0,0,0-1.09,2,5.47,5.47,0,0,1,0,1.4c-.18.75-1,1.48-.59,2.17.13.25.4.42.47.69a1.12,1.12,0,0,1-.23.85c-.5.86-1.26,1.84-2.24,1.68a.87.87,0,0,1-.48,1,2.34,2.34,0,0,1-1.14.17,13.08,13.08,0,0,1-3.45-.6.65.65,0,0,1-.48-.34c-.08-.2,0-.42.08-.64.08-.57-.69-1-1.21-.74a1.32,1.32,0,0,0-.57,1.5.65.65,0,0,1,0,.51.57.57,0,0,1-.4.18c-1.26.2-2.75.31-3.57-.66-.33-.38-.52-.93-1-1.11-.68-.26-1.5.42-2.13.06-1-.55,0-2.53-1-2.91a1.2,1.2,0,0,0-.65,0,6.48,6.48,0,0,0-.63.17,2.67,2.67,0,0,0-.45.61,2.62,2.62,0,0,0,.47,2.51,7.78,7.78,0,0,0,6.17,3.4c1.35,0,2.7-.28,4-.19a23.92,23.92,0,0,0,3.26.37,8.74,8.74,0,0,0,2.37-.63l3.85-1.42a6.72,6.72,0,0,0,2.39-1.27,2.29,2.29,0,0,0,.68-2.47l.46-.42a10.26,10.26,0,0,0,1.44-4.4,1.29,1.29,0,0,0,0-.28h-.11A8.45,8.45,0,0,0,94.48,111.33Z"/></g></g></g></g></g></g><g id="Brésilien" class="cls-24"><text class="cls-25" transform="translate(10 32)"><tspan class="cls-26">B</tspan><tspan class="cls-27" x="13.93" y="0">r</tspan><tspan x="22.51" y="0">ésilien</tspan></text></g></g></svg>