<svg id="Calque_1" data-name="Calque 1" xmlns="http://www.w3.org/2000/svg" xmlns:xlink="http://www.w3.org/1999/xlink" viewBox="0 0 147 110"><defs><style>.cls-1{fill:none;}.cls-2{clip-path:url(#clip-path);}.cls-3{fill:#e79357;}.cls-4{fill:#ffcaa6;}.cls-5{fill:#ad915a;}.cls-6{fill:#e2c086;}.cls-7{fill:#fff;}.cls-8{clip-path:url(#clip-path-2);}.cls-9{fill:#f89945;}.cls-10{fill:#d77124;}.cls-11{fill:#cd4200;}.cls-11,.cls-20{opacity:0.55;}.cls-11,.cls-20,.cls-22,.cls-24,.cls-25,.cls-26,.cls-27{isolation:isolate;}.cls-12{fill:#be5b2a;}.cls-13{fill:#ae4d25;}.cls-14{fill:#953e25;}.cls-15{fill:#7bb027;}.cls-16{fill:#9fcc29;}.cls-17{fill:#ffcf08;}.cls-18{fill:#efa708;}.cls-19{fill:#e72124;}.cls-20{fill:#c42124;}.cls-21{fill:#e8761f;}.cls-22{fill:#fde5c1;}.cls-22,.cls-25{opacity:0.32;}.cls-23{fill:#fbd198;}.cls-24{fill:#d48745;opacity:0.35;}.cls-25{fill:#ba773d;}.cls-27{font-size:22px;font-family:SofiaProSemiBold, Sofia Pro;}.cls-28{letter-spacing:0em;}.cls-29{letter-spacing:-0.01em;}.cls-30{letter-spacing:-0.03em;}</style><clipPath id="clip-path"><rect class="cls-1" x="1.14" y="-137.98" width="147" height="110" rx="6"/></clipPath><clipPath id="clip-path-2"><rect class="cls-1" width="147" height="110" rx="6"/></clipPath></defs><title>app-icon</title><g id="Groupe_1902" data-name="Groupe 1902"><g class="cls-2"><g id="Groupe_de_masques_12" data-name="Groupe de masques 12"><g id="Groupe_1705" data-name="Groupe 1705"><g id="Groupe_1696" data-name="Groupe 1696"><g id="Groupe_1693" data-name="Groupe 1693"><path id="Tracé_8542" data-name="Tracé 8542" class="cls-3" d="M118.56,39.7l-2.42.25s-5.14-7.23-6-11.63l2.61-1.68A67,67,0,0,0,118.56,39.7Z"/><path id="Tracé_8543" data-name="Tracé 8543" class="cls-3" d="M120.16,7.12l-1.48.72a32.48,32.48,0,0,0-8.56,20.48l2.43-.93A39.25,39.25,0,0,1,120.16,7.12Z"/><path id="Tracé_8544" data-name="Tracé 8544" class="cls-4" d="M124.8,18.13s-8,4.67-6.24,21.58a61.35,61.35,0,0,1-6-12.32s-1.09-9.74,7.61-20.27Z"/></g><g id="Groupe_1694" data-name="Groupe 1694"><path id="Tracé_8546" data-name="Tracé 8546" class="cls-5" d="M84.56-47.84c17.86,33.38,40.55,75.73,40.55,75.73s.35.27.56-.28L86.29-48.95l.55-.37c17.53,34.33,39.86,78,39.86,78-.55,1.82-1.78.68-1.78.68s-23.83-42.56-42.47-76A23.71,23.71,0,0,0,84.56-47.84Z"/><path id="Tracé_8550" data-name="Tracé 8550" class="cls-6" d="M125.67,27.62c-.21.54-.57.28-.57.28S102.42-14.46,84.56-47.85c.63-.37,1.23-.76,1.73-1.09Z"/></g><g id="Groupe_1695" data-name="Groupe 1695"><path id="Tracé_8553" data-name="Tracé 8553" class="cls-5" d="M81.16-35.89c20.63,31.75,46.83,72,46.83,72s.38.24.54-.32L82.79-37.13l.52-.42c20.38,32.72,46.33,74.29,46.33,74.29-.39,1.86-1.71.83-1.71.83S100.58-2.82,79.16-34.58A22.18,22.18,0,0,0,81.16-35.89Z"/><path id="Tracé_8557" data-name="Tracé 8557" class="cls-6" d="M128.53,35.81c-.16.56-.54.32-.54.32s-26.2-40.27-46.83-72c.6-.43,1.16-.86,1.63-1.24Z"/></g></g></g></g></g></g><g id="Groupe_1707" data-name="Groupe 1707"><rect id="Rectangle_15-2" data-name="Rectangle 15-2" class="cls-7" width="147" height="110" rx="6"/><g class="cls-8"><g id="Groupe_de_masques_3" data-name="Groupe de masques 3"><g id="Groupe_351" data-name="Groupe 351"><path id="Tracé_1766" data-name="Tracé 1766" class="cls-9" d="M87.61,88.15S89,98.29,91.43,100.44s44.82,8.38,71.38-.3a2.93,2.93,0,0,0,1.77-1.62c1.23-2.76,4-9.58,3.35-12.8C167.07,81.62,150,95.15,87.61,88.15Z"/><path id="Tracé_1767" data-name="Tracé 1767" class="cls-10" d="M99.87,95.6c3.7,1.49,6.47-1.43,9.73.05s4,2,6.61.14c.48-.35,1.2,0,1.66.09,3.74,1,5.82,1.52,10.17-.06a4,4,0,0,1,2.74-.26,12,12,0,0,0,8.15-1.42,1.13,1.13,0,0,1,.57-.15c2.2,0,3,1.33,5.26,1.74,3.4.63,6.52,1.18,8.48-2.25a2.48,2.48,0,0,1,1.44-.94c3.28-.9,4.42,2.64,7.71-.65,1.7-1.7,3.17-.19,4.65.14.72-2.37,1.21-4.76.88-6.31-.85-4.1-17.91,9.43-80.31,2.43a59.37,59.37,0,0,0,1.69,8C92.32,98.57,96.75,94.35,99.87,95.6Z"/><path id="Tracé_1768" data-name="Tracé 1768" class="cls-11" d="M140.15,100.26c-3.89-2.21-9.19-5.57-11.49-9.75a279.46,279.46,0,0,1-39-1.5s1.2,8.27,3.43,10c1.78,1.4,27.33,5,49.65,2.54C141.85,101.16,141,100.73,140.15,100.26Z"/><path id="Tracé_1769" data-name="Tracé 1769" class="cls-12" d="M122.2,67.57S89.14,71.35,87.61,75s-.56,10.75,2,12.72,36,1.86,41.51,2.22c21,1.39,33.63-6.11,34.49-6.24s5.44-9,0-14.56C160.58,63.94,128.29,67.91,122.2,67.57Z"/><path id="Tracé_1770" data-name="Tracé 1770" class="cls-13" d="M131.36,83.46c-3.77-2.25-7.56-4.68-10.52-8a54.39,54.39,0,0,1-5-7.13c-6.87.93-17.65,2.55-23.72,4.35-.2,7.06,2.22,12.8,8.3,16.62,11.09.83,27.13,1.11,30.75.6,1.61-.24,5.25-.87,9.58-1.65A74.15,74.15,0,0,1,131.36,83.46Z"/><path id="Tracé_1771" data-name="Tracé 1771" class="cls-14" d="M111.43,74.56c5.41-.16,10.27,1.31,15.55,2.2a84.34,84.34,0,0,1,12.85,2.79c3.37,1.12,10.52,6.23,12.84,2.43,1.77-2.89,4.93-4.2,7.63-6a23.94,23.94,0,0,1,7.47-3.35,8.88,8.88,0,0,0-2.13-3.54c-5.06-5.19-37.35-1.23-43.44-1.57,0,0-33.06,3.78-34.59,7.42a10.26,10.26,0,0,0-.68,3.14C94.89,75.46,102.9,74.8,111.43,74.56Z"/><path id="Tracé_1772" data-name="Tracé 1772" class="cls-15" d="M87.61,87.43a37.52,37.52,0,0,1,6.65-2.5c2.5-.5,9.57,1.79,16.43.58s6.49,3,14.44,1.35,10.14,1.43,12.71.57,10.08-.26,11.72.16,10.37-5.12,13.51-4.45,6.14-2.07,6.86-.79,2.07,4.29-2.29,5.25-6.36,2.54-8.29,1.68-12.43,5.08-13.79,3.36-5.86-1.5-9.79-.93-5.43-.71-10.14.29-11.39-.89-13.44.14-8.5,1.93-10.14.5-7.15-2.28-8.58-1.5S87.83,88.43,87.61,87.43Z"/><path id="Tracé_1773" data-name="Tracé 1773" class="cls-16" d="M91.81,84.76c0-.12-.11-.2.1-.14A4.78,4.78,0,0,1,93,84l0-.13c.53-.15,1-.53,1.54-.65,0,0,0-.07,0-.11A27.67,27.67,0,0,0,98,82.61c1.17.06,2.75,1,1.84,2.22-.41.58-1.13.65-1,1.55a2.29,2.29,0,0,0,1.22,1.48,13.08,13.08,0,0,0,4.83.21c1.24-.13,3.83-.34,3.89-2,.12-.48-.63-.79-.73-1.3a1.54,1.54,0,0,1,.75-1.46,8.12,8.12,0,0,0,2.07-.43,13.12,13.12,0,0,0,2.73-.2,21.55,21.55,0,0,1,2.41.2c.5.25,1,.61,1.54.81.41.47,1.1,1.2.75,2-.21.45-.82.5-1.17.76a6.14,6.14,0,0,0-1,1.07,1.76,1.76,0,0,0,.75,1,.93.93,0,0,1,.43.19c1.83-.2,3.72.51,5.52.13a.93.93,0,0,0,.81-.1,4.71,4.71,0,0,0,1.35,0,.59.59,0,0,0,0-.14.41.41,0,0,0,.22,0,.19.19,0,0,0,0-.14c1.18-.51-1.15-1.43-1.47-1.75-1.16-1.14.55-1.82,1.6-2,2.49-.45,6.13-.64,8.36.9a1.82,1.82,0,0,1-1.33,2.1c-.2.24-.68.57-.93.91V89a2.46,2.46,0,0,0,.63.31c.52.39,1.49.19,2,.17a.66.66,0,0,0,.28,0,3.09,3.09,0,0,0,.8,0c0-.05,0-.09,0-.14.38,0,1.07-.21,1-.75.72-1-1.06-2.69,1.08-2.8,1.22-.07,2.89.53,3.67-.63a3.24,3.24,0,0,1,2.29-.26c1.18,1.58-.25,2.34-1.3,3.56a1.13,1.13,0,0,1-.1.13,4.2,4.2,0,0,1,0,.51,1.8,1.8,0,0,1,.19.2.3.3,0,0,0,0-.1,2.47,2.47,0,0,0,2.19.48c1.46.64,2.68-1.69,3.42-2.66a9.75,9.75,0,0,1,1.64-1.88c.72-.57,1.4-.36,2.05-.7A5,5,0,0,1,154.13,86c.61.68,1,2,2.11,1.78,3.51.61,4.63-5.19,7.32-6.5a1.5,1.5,0,0,1,2.05.46c.42.65.19,1.47.59,2.1a1.32,1.32,0,0,0,1.82.35l.09-.07c.69-.51.55-1.41,1-2a2.05,2.05,0,0,1,3.74,1.26c0,1.27-1.8,3.91-3,4.25-.08.62-1.75,2-2.47,2.21a2,2,0,0,1-2.4-1.36,1.58,1.58,0,0,1-.07-.53c-.11-1,.13-2.67-1-3.09a1.94,1.94,0,0,0-2.26,1.57h0a10.53,10.53,0,0,0-.56,2.65,7.27,7.27,0,0,1-.92,2.32c-.15.12-.17.12-.21.21-2.14,1-4.46-.5-5.22-2.81-.75-.72-2.08-2.41-2.63-.29a7.65,7.65,0,0,0,0,2.19,16.44,16.44,0,0,0-.13,2.1c-.86,1.44-1.9,1.88-3.71,2a10.56,10.56,0,0,1-5.3-1.29c-1.32-.62-2.43-1.06-2.06-2.71.1-.48.51-1.41.25-1.94a1.36,1.36,0,0,0-1.78-.51c-1.8,0-1.4,2.17-1.77,3.37-.53,1.72-2,2.39-3.71,2.55-1.2.12-5,.19-4.91-1.6,0-.78,1-1.28,1.1-2,.15-.92-.64-1.56-1.41-1.91-.59-.27-2.83-.5-2.28.67,0,.38.38.82.49,1.26a8.9,8.9,0,0,0,.19,1.36c-.42.46-.43,1.22-.66,1.69a3.69,3.69,0,0,1-1.37,1.43,1.69,1.69,0,0,0-.43.15c-2.2-.12-4.06-.06-6.11-1.13a5.85,5.85,0,0,1-1.8-1.18c-.52-.7-.14-1.56-.53-2.32-.65-1.29-3.75-2-3.3.17.22,1.06,1.06,1.49,1,2.69a2,2,0,0,1-.86,1.91.07.07,0,0,0,0,.1c-3.95,1.22-2.08-4.65-4.94-5.15-.91-.16-3,.11-3.56.93-.87,1.26,1.29,2,.08,3.32a2,2,0,0,0-.32,0c-1.74.42-4.53-.22-5.14-2.21-.23-.78.37-1.65.06-2.34A2.79,2.79,0,0,0,97.47,89a1.58,1.58,0,0,0-1.67.16c-.75.51-.55,1-.16,1.69.92,1.7,1.14,2.69-.07,4.34a5.64,5.64,0,0,1-4.44-.41c-1-.7-1.28-2.57-1.66-3.6-.5-.71-2.42-.53-3.14-.38-3.44-.33-4.43-5.36-.44-5.29,1.52,0,2.79,1,4.1,1.79,1,.56,3.22,1.4,3.52-.46.24-1.45-1.5-1.21-1.9-2.26C91.83,84.5,91.65,84.87,91.81,84.76Z"/><path id="Tracé_1774" data-name="Tracé 1774" class="cls-17" d="M96.86,65.14s-11.18,3.63-14.53,9L83.57,76S102,71.13,116.2,73s29.66,5.45,34.22,7.33c0,0,9.86-12,23.08-11.44V66.71a24,24,0,0,0-10.67-3.52C157.07,62.9,118.77,68.66,96.86,65.14Z"/><path id="Tracé_1775" data-name="Tracé 1775" class="cls-18" d="M153.68,74.8c-2.18,1.52-4,2.9-4,2.9-15-3.69-26.2-6.76-36.85-6.76a138.46,138.46,0,0,0-30.51,3.2L83.56,76S102,71.13,116.19,73s29.66,5.45,34.23,7.33c0,0,9.86-12,23.08-11.45V66.71C162.78,67.14,156.59,72.77,153.68,74.8Z"/><path id="Tracé_1776" data-name="Tracé 1776" class="cls-19" d="M163.16,57.61s1.91.88,2.12,2.46-.24,4.76-1.06,5.35c-1.74,1.28-42,5.62-73.44,2.24,0,0-1-.52-1.59-6.6,0,0,9.19,3.41,42.08,2.17C157.33,62.25,163.16,57.61,163.16,57.61Z"/><path id="Tracé_1777" data-name="Tracé 1777" class="cls-20" d="M129.15,66.55c6.74-.07,13.54-1.14,20.24-1.92,6-.69,11-1.4,15.86-4.68a4,4,0,0,0-2.09-2.34s-5.83,4.64-31.89,5.62c-32.89,1.24-42.08-2.16-42.08-2.16a29.77,29.77,0,0,0,.75,4.77C102.71,68.63,116.22,66.68,129.15,66.55Z"/><path id="Tracé_1778" data-name="Tracé 1778" class="cls-9" d="M127.39,32.27a82.69,82.69,0,0,0-20.86,3,45,45,0,0,0-13.06,5.56,20.51,20.51,0,0,0-8,9.84,12.86,12.86,0,0,0,2.1,11.43c4.2,5.68,68.13,3.26,77.13-3.23,0,0,3.28-3.87,1.07-10.08-1.16-3.27-4.41-6.32-7.19-8.23A46.05,46.05,0,0,0,144,34.21,65.45,65.45,0,0,0,127.39,32.27Z"/><path id="Tracé_1779" data-name="Tracé 1779" class="cls-21" d="M151.09,54.44c-9.08,2.76-18,1.87-27.37,2-9.6.18-19.49,1.16-29-.66C90.49,55,87.3,53.76,85.42,51a13,13,0,0,0,2.2,11.09c4.2,5.68,68.14,3.26,77.13-3.23,0,0,3.09-3.66,1.23-9.57C161.54,52,156.48,52.8,151.09,54.44Z"/><path id="Tracé_1780" data-name="Tracé 1780" class="cls-22" d="M129,35.13c-2-.63-7.69-1.17-8.27,1.9-.49,2.64,4.52,3.16,6.18,3.24,1.87.09,4.85-.32,5.08-2.25C132.13,36.54,130.65,35.65,129,35.13Z"/><path id="Tracé_1781" data-name="Tracé 1781" class="cls-22" d="M144.42,41.27c-4.72-.45-10-.14-13.44,2.81-2.81,2.4-.07,4.1,2.45,4.89a31.13,31.13,0,0,0,12.28,1.33c2.7-.32,7.6-.88,7.07-4.52a4.17,4.17,0,0,0-1.9-2.56A19,19,0,0,0,144.42,41.27Z"/><path id="Tracé_1782" data-name="Tracé 1782" class="cls-23" d="M111,41.18c.32.64-.31,1.61-1.42,2.17s-2.26.5-2.58-.15.31-1.6,1.41-2.16S110.68,40.54,111,41.18Z"/><path id="Tracé_1783" data-name="Tracé 1783" class="cls-23" d="M129.22,50.85c.32.63-.31,1.6-1.42,2.16s-2.26.5-2.58-.14.31-1.61,1.41-2.17S128.9,50.21,129.22,50.85Z"/><path id="Tracé_1784" data-name="Tracé 1784" class="cls-23" d="M144.37,49.44c.32.64-.31,1.61-1.42,2.17s-2.26.5-2.58-.14.31-1.61,1.41-2.17S144,48.81,144.37,49.44Z"/><path id="Tracé_1785" data-name="Tracé 1785" class="cls-23" d="M100.28,45.39c.32.64-.31,1.61-1.42,2.16s-2.26.5-2.58-.14.31-1.61,1.41-2.17S100,44.75,100.28,45.39Z"/><path id="Tracé_1787" data-name="Tracé 1787" class="cls-23" d="M134,47.37c-.31.64-1.47.73-2.59.19s-1.76-1.49-1.45-2.13,1.46-.74,2.58-.2S134.3,46.73,134,47.37Z"/><path id="Tracé_1788" data-name="Tracé 1788" class="cls-23" d="M147.31,43.06c.14.7-.72,1.47-1.94,1.72s-2.31-.11-2.45-.81.72-1.47,1.93-1.72S147.16,42.36,147.31,43.06Z"/><path id="Tracé_1789" data-name="Tracé 1789" class="cls-23" d="M111,52.09c-.31.64-1.47.73-2.58.19s-1.77-1.49-1.46-2.14,1.46-.73,2.58-.19S111.33,51.44,111,52.09Z"/><path id="Tracé_1790" data-name="Tracé 1790" class="cls-23" d="M121.48,47.92c-.29.55-1.42.52-2.52-.06s-1.75-1.49-1.46-2,1.41-.52,2.51.06S121.77,47.37,121.48,47.92Z"/><path id="Tracé_1791" data-name="Tracé 1791" class="cls-23" d="M97.88,52.6c-.15.6-1.25.85-2.45.55s-2.07-1-1.92-1.62S94.76,50.68,96,51,98,52,97.88,52.6Z"/><path id="Tracé_1792" data-name="Tracé 1792" class="cls-23" d="M139.17,38.69c-.31.59-1.42.61-2.48.05s-1.66-1.49-1.35-2.07,1.42-.61,2.48-.05S139.48,38.1,139.17,38.69Z"/><ellipse id="Ellipse_10" data-name="Ellipse 10" class="cls-23" cx="114.89" cy="36.83" rx="1.2" ry="2.16" transform="translate(28.62 121.17) rotate(-62.12)"/><path id="Tracé_1794" data-name="Tracé 1794" class="cls-24" d="M165.32,47.64c-9,4.49-20.64,6.1-30,6.92-6.74.6-14.1,1.28-20.7-.63s-11.25-6.31-10.45-13.51a10.83,10.83,0,0,1,2-5.06,44.63,44.63,0,0,0-12.71,5.46,20.51,20.51,0,0,0-8,9.84,12.86,12.86,0,0,0,2.1,11.43c4.2,5.68,68.14,3.26,77.13-3.23,0,0,3.29-3.87,1.07-10.08A8.94,8.94,0,0,0,165.32,47.64Z"/><path id="Tracé_1795" data-name="Tracé 1795" class="cls-25" d="M126.67,56.71c-1.14,0-2.3,0-3.46,0-9.29.15-18.86,1-28.06-.56-4.1-.69-7.18-1.76-9-4.1a9.92,9.92,0,0,0,2.13,9.43c2.29,2.73,23,3.26,42.18,2.22A29.35,29.35,0,0,1,126.67,56.71Z"/></g></g></g><g id="Burger" class="cls-26"><text class="cls-27" transform="translate(10 32)"><tspan class="cls-28">B</tspan><tspan x="13.93" y="0">u</tspan><tspan class="cls-29" x="26.69" y="0">r</tspan><tspan x="35.27" y="0">ge</tspan><tspan class="cls-30" x="61.05" y="0">r</tspan></text></g></g></svg>