<svg id="Calque_1" data-name="Calque 1" xmlns="http://www.w3.org/2000/svg" xmlns:xlink="http://www.w3.org/1999/xlink" viewBox="0 0 147 110"><defs><style>.cls-1{fill:none;}.cls-2{fill:#fff;}.cls-3{clip-path:url(#clip-path);}.cls-4{fill:#dadada;}.cls-5{fill:#f4f4f4;}.cls-6{fill:#ebeaea;}.cls-7{fill:#f2d038;}.cls-8{fill:#bc2921;}.cls-9{fill:#e83426;}.cls-10{fill:#ee523b;}.cls-11{fill:#ca2c21;}.cls-12{fill:#ffbe60;}.cls-13{fill:#8ed20d;}.cls-14{fill:#b9ff2b;}.cls-15{fill:#7c3800;}.cls-16{fill:#851e15;}.cls-17{fill:#4a1c0d;}.cls-18{fill:#591b04;}.cls-19{fill:#b32c19;}.cls-20{opacity:0.5;}.cls-21{fill:#803728;}.cls-22{fill:#0b480c;}.cls-23{fill:#4b8b2d;}.cls-24{fill:#68b42e;}.cls-25{fill:#abdb91;}.cls-26{fill:#e8ca5c;}.cls-27{fill:#9e6a1e;}.cls-28{fill:#955913;}.cls-29{fill:#c09336;}.cls-30{fill:#faed8d;}.cls-31{fill:#c4903c;}.cls-32{fill:#a97623;}.cls-33,.cls-34{isolation:isolate;}.cls-34{font-size:22px;font-family:SofiaProSemiBold, Sofia Pro;}.cls-35{letter-spacing:0em;}.cls-36{letter-spacing:-0.01em;}.cls-37{letter-spacing:0em;}</style><clipPath id="clip-path"><rect class="cls-1" width="147" height="110" rx="6"/></clipPath></defs><title>app-icon</title><g id="Groupe_1903" data-name="Groupe 1903"><rect id="Rectangle_17-4" data-name="Rectangle 17-4" class="cls-2" width="147" height="110" rx="6"/><g class="cls-3"><g id="Groupe_de_masques_13" data-name="Groupe de masques 13"><g id="Groupe_596" data-name="Groupe 596"><g id="Groupe_546" data-name="Groupe 546"><g id="Groupe_545" data-name="Groupe 545"><path id="Tracé_3932" data-name="Tracé 3932" class="cls-4" d="M127.58,89.15c0,16.92-34.6,30.64-77.29,30.64S-27,106.07-27,89.15,7.6,58.52,50.29,58.52,127.58,72.23,127.58,89.15Z"/><path id="Tracé_3933" data-name="Tracé 3933" class="cls-5" d="M127.58,87.61c0,16.93-34.6,30.64-77.29,30.64S-27,104.54-27,87.61,7.6,57,50.29,57,127.58,70.69,127.58,87.61Z"/><path id="Tracé_3934" data-name="Tracé 3934" class="cls-6" d="M103,84.46c0,11.54-23.6,20.9-52.72,20.9S-2.42,96-2.42,84.46s23.6-20.9,52.71-20.9S103,72.92,103,84.46Z"/><path id="Tracé_3935" data-name="Tracé 3935" class="cls-5" d="M101.17,84.84c0,11-22.78,19.83-50.88,19.83S-.59,95.79-.59,84.84,22.19,65,50.29,65,101.17,73.89,101.17,84.84Z"/></g></g><path id="Tracé_3936" data-name="Tracé 3936" class="cls-6" d="M95.34,85.71q-.34-.43-.72-.84a29.63,29.63,0,0,0-2.74-2.63h0l0,0-.11-.09,0,0L91.57,82l0,0-.1-.08,0,0-.09-.07,0,0,0,0a11.13,11.13,0,0,0,1.3-4.43,12.27,12.27,0,0,0-.43-2.48,3.86,3.86,0,0,0-1.46-2.14c-1.19-.85-3.92-1.55-14.15,2.17-1.73.67-3.42,1.41-5,2.2l-.32,0,.6-.3c4-2,6.94-3.5,7.89-3.84a8.68,8.68,0,0,0,3.3-2.45c1.5-1.55,3-3.1,3.54-3.7a2,2,0,0,0,.32-1.86.29.29,0,0,0,0-.09c-.14-.75-.84-1.4-2.3-2.05A102.7,102.7,0,0,1,73.9,57c-2.4-1.87-3.46-2.87-4.4-2.87s-8.25.27-11.78-.53c-3.26-1-7.66-3-14.85-2.53-5.46.53-5.93.6-10.06,1.06A21.91,21.91,0,0,0,22,56.74c-1.53,1.4-2.86,1.53-5.66,2.46a11.18,11.18,0,0,0-6.81,5.62,2.44,2.44,0,0,0-.14.28,2.49,2.49,0,0,0,.1,3c1.19,1.49.8,1.69,1.29,4.08A19.88,19.88,0,0,1,11.22,75c-.93.36-6,2.42-6.58,4.47s1.1,2.47,2.3,3.17H7l.1.06h0l.1.07h0l.11.08c1.2.86,1.26,1.26.07,2.33l-.13.11a.08.08,0,0,0,0,0l-.13.11,0,0-.15.13v0l-.14.12h0l-.28.28h0a2.11,2.11,0,0,0-.31,3l0,0a3.84,3.84,0,0,0,1.55,1.41h0a3,3,0,0,0,.5.19h0a4.54,4.54,0,0,0,.53.12h0l.55.08h0l.68.07h.05l.3,0c1.73.2,2.25.44,2.52,1.45a2.64,2.64,0,0,0,.08.62v.08a2.68,2.68,0,0,0,1.77,2.52,1.32,1.32,0,0,1-.24.66c-.69,1.06-.58,1.64.15,2.08,0,.1,0,.2,0,.3a2.54,2.54,0,0,0,.07.61v.08a2.68,2.68,0,0,0,5.13,1.1,1.45,1.45,0,0,1,.4.42c.4.74,2.86.74,4.93-.13l.43-.17.07,0,.42-.15h0c.32-.11.67-.22,1-.32h0l.67-.18c1.07,1.74,3.37,4,8,3.66,5.88-.49,7.58-4.33,7.69-7,.74-.26,1.46-.53,2.13-.8L47,95.23a6.8,6.8,0,0,0,1.37.63c-3.63,2-5.88,5-5.13,7.42h0s1.84,7.3,10.58,4.3c4.8-2,6.79-6.84,5.15-10.34l0,0a2.88,2.88,0,0,0-.35-.83,4.1,4.1,0,0,0-2.1-1.68,6.43,6.43,0,0,0,2.65-5.42c.44-.27.84-.52,1.17-.76a16.13,16.13,0,0,0,1.15,4.68c.81,1.73,5.3,2.94,9.83,3.18l.13.17h0c.1.14.21.29.34.44h0a15.78,15.78,0,0,0,5.79,4.41,8.2,8.2,0,0,0,2.11.6c4.29.61,8.92-2,11.58-3.45,3.1-1.65,4-2.1,4.84-4.85S97.43,88.3,95.34,85.71Zm-61-7.54h0ZM51.4,74.75l-.09,0,.1,0Zm.76-.18-.18.05Zm.72-.16-.22,0,.22,0Zm.7-.16-.24.06ZM54.9,74l-.24,0Zm-.65.14-.25,0Zm1.28-.27-.22,0,.22,0ZM76.29,91.25h0Zm-.35,0-.11,0,.12,0Zm-.4.06h0Zm-.63.06-.14,0,.14,0Zm-3.73.09h0Zm-.55,0-.54,0,.54,0Zm-.72,0-.42,0,.41,0Zm-.61,0-.52,0,.51,0Zm2.43.1h0Zm.68,0h0Zm2.08-.07h0Zm-.45,0h0Zm-.65,0h0Zm-.48,0h0Zm7.18,5.1h0Zm-.49-.12,0,0Zm-.5-.16,0,0ZM67.23,91.25l-.66-.07.66.06Zm1.46.13-.61,0,.61,0Zm-.79-.07-.48,0ZM81.41,96.8h0Zm-.27,0Z"/><g id="Groupe_595" data-name="Groupe 595"><path id="Tracé_3937" data-name="Tracé 3937" class="cls-7" d="M11.11,74S5,76.22,4.38,78.49,5.85,81,7.05,81.89s1.26,1.26.07,2.33-2.4,2.06-1.2,3.86S8.45,89.81,10.18,90s2.25.44,2.52,1.45,2.6,2.35,1.6,3.88-.33,2.07,1.47,2.6,3.86,1.27,4.26,2,2.86.73,4.93-.13a41.51,41.51,0,0,1,9.52-2.13A45.21,45.21,0,0,0,45.4,94.81c3.07-1.26,12.12-5.26,15-7.46s6.46-4.46,7.12-6.19,1.6-1.4,2.8-1.86a2.71,2.71,0,0,0,2-2.27c.2-1.2-1.6-1.2-3.46-.93S53.93,80,44.74,82s-16.51,2.13-21.11.2S11.11,74,11.11,74Z"/><path id="Tracé_3938" data-name="Tracé 3938" class="cls-7" d="M9.84,76a6,6,0,0,0,.51,2.79A3.56,3.56,0,0,0,13,80.07a25.93,25.93,0,0,1,2.91.47,10.07,10.07,0,0,1,3,1.56c1,.71,2,1.5,3.1,2.14a10.92,10.92,0,0,0,3.91,1.4,9.12,9.12,0,0,1,3.87,1.13,30.66,30.66,0,0,0,3.81,2.31,4.6,4.6,0,0,0,3.84.49c1.14-.48,2.12-1.27,3.23-1.8a91.94,91.94,0,0,1,9.08-3.57c3.07-1.06,6.18-1.91,9.3-2.8,1.51-.42,3-.88,4.47-1.44s2.83-1.3,4.25-1.94a6.56,6.56,0,0,1,3.24-.79,4.34,4.34,0,0,1,1.27.29,4.05,4.05,0,0,0,.12-.5c.2-1.2-1.6-1.2-3.46-.93S53.93,80,44.74,82s-16.52,2.13-21.11.2S11.11,74,11.11,74s-.65.23-1.54.63A4.08,4.08,0,0,1,9.84,76Z"/><path id="Tracé_3939" data-name="Tracé 3939" class="cls-7" d="M7.05,81.88c1.2.87,1.27,1.27.07,2.34-.84.75-1.69,1.46-1.69,2.45a3.8,3.8,0,0,1,.41-.49,16.68,16.68,0,0,1,2.63-1.94c.48-.33,1.41-.91,1.14-1.62a2.6,2.6,0,0,0-1.13-1.19c-1.33-.86-3-1.51-4-2.79a.76.76,0,0,1-.08-.11C3.81,80.75,5.86,81,7.05,81.88Z"/><path id="Tracé_3940" data-name="Tracé 3940" class="cls-7" d="M25.23,98.72a9.33,9.33,0,0,0-1.82.9,1.39,1.39,0,0,1-.82.24,4.94,4.94,0,0,1-1.17-.47,12.85,12.85,0,0,0-1.61-.58A15.37,15.37,0,0,1,17.24,98a2.49,2.49,0,0,1-1.41-1.76,14.33,14.33,0,0,1,.07-3.07,4.93,4.93,0,0,0-.6-2.79,3.71,3.71,0,0,0-2.88-1.54c-1.7-.09-3.62.91-5.27.48a7.07,7.07,0,0,0,3,.69c1.73.2,2.25.44,2.53,1.45s2.6,2.35,1.6,3.88-.34,2.06,1.46,2.6,3.87,1.26,4.27,2,2.86.73,4.92-.13a18.18,18.18,0,0,1,2-.69A2.17,2.17,0,0,0,25.23,98.72Z"/><g id="Groupe_562" data-name="Groupe 562"><g id="Groupe_551" data-name="Groupe 551"><path id="Tracé_3941" data-name="Tracé 3941" class="cls-8" d="M43.65,90.18s1.43,5.64,8.12,5.08,7.52-5.82,7-7.94C56,89.4,43.65,90.18,43.65,90.18Z"/><path id="Tracé_3942" data-name="Tracé 3942" class="cls-9" d="M58.48,86.52c1.3,2.45-1.42,4.73-6,5.74-4.1.91-8.34-.15-8.86-2.08s2.74-4.05,6.8-5.13C53.77,84.17,57.36,84.41,58.48,86.52Z"/><path id="Tracé_3943" data-name="Tracé 3943" class="cls-10" d="M57.82,86.57c1.19,2.24-1.3,4.33-5.46,5.26-3.76.83-7.64-.14-8.12-1.9s2.51-3.71,6.22-4.7C53.51,84.42,56.79,84.64,57.82,86.57Z"/><path id="Tracé_3944" data-name="Tracé 3944" class="cls-11" d="M51.55,85.5a2.9,2.9,0,0,0-1.67.17c-.43.21-.84.48-1.26.72s-1,.49-1.44.75c-1.15.61-2.72,1.82-1.43,3.12.54.56.88,1.25,2,.48A22.52,22.52,0,0,0,50,89.2a9.22,9.22,0,0,0,1.51-2,2.73,2.73,0,0,0,.37-1.07C51.9,85.79,51.79,85.53,51.55,85.5Z"/><path id="Tracé_3945" data-name="Tracé 3945" class="cls-11" d="M51.69,85.56a1,1,0,0,1-.15.2,1.61,1.61,0,0,1-.6.36c-.7.28-.69.87-.73,1.45a2.13,2.13,0,0,1-.59,1.21A2.94,2.94,0,0,0,49,89.94a7.49,7.49,0,0,0,1-.74,9.47,9.47,0,0,0,1.51-2,2.9,2.9,0,0,0,.37-1.07A.56.56,0,0,0,51.69,85.56Z"/><path id="Tracé_3946" data-name="Tracé 3946" class="cls-11" d="M49.47,90.74s.63-.59,1.17-1.13.19-.81,1.16-1.73A4.28,4.28,0,0,1,54,86.64c1.16-.44,1.67-.9,1.94-.79s2,1.35,1.65,2.49-.94,1.43-2.46,2a6.75,6.75,0,0,1-3.62.68,2.89,2.89,0,0,0-1.57.05C49.29,91.31,49.23,91.07,49.47,90.74Z"/><path id="Tracé_3947" data-name="Tracé 3947" class="cls-11" d="M51.13,89.49a10.21,10.21,0,0,0,1.1-.83,3.4,3.4,0,0,1,1.67-.81c.46-.06,1.47-.09,1.53-.72a7.32,7.32,0,0,1,.12-.94,1.32,1.32,0,0,1,.1-.3c-.31.12-.81.44-1.63.75a4.28,4.28,0,0,0-2.22,1.24c-1,.92-.62,1.19-1.16,1.73l-.17.18A3.93,3.93,0,0,0,51.13,89.49Z"/><g id="Groupe_549" data-name="Groupe 549"><g id="Groupe_547" data-name="Groupe 547"><path id="Tracé_3948" data-name="Tracé 3948" class="cls-12" d="M46.9,88.86s-.1,0-.15,0a.47.47,0,0,0-.21.06.35.35,0,0,0-.15.17c0,.05,0,.15,0,.17a.39.39,0,0,0,.29-.13s.08,0,.11-.07a.27.27,0,0,0,.09-.12A0,0,0,0,0,46.9,88.86Z"/><path id="Tracé_3949" data-name="Tracé 3949" class="cls-12" d="M47.43,89.69c-.06,0-.1,0-.17,0s-.23.1-.26.17,0,.2.15.12.14-.12.23-.17S47.46,89.72,47.43,89.69Z"/><path id="Tracé_3950" data-name="Tracé 3950" class="cls-12" d="M48.18,87.79c-.06,0-.06,0-.09-.08l-.06,0a.12.12,0,0,0-.1,0l0,0c-.08,0-.28.24-.13.3s.15,0,.21-.08l.19-.09S48.19,87.78,48.18,87.79Z"/><path id="Tracé_3951" data-name="Tracé 3951" class="cls-12" d="M49.26,86.8a2.53,2.53,0,0,1-.27,0,.33.33,0,0,0-.29.21c-.05.1,0,.21.12.17a.92.92,0,0,0,.44-.25S49.34,86.8,49.26,86.8Z"/></g><g id="Groupe_548" data-name="Groupe 548"><path id="Tracé_3952" data-name="Tracé 3952" class="cls-12" d="M53.05,89.11c0-.13-.18,0-.19.09l-.12.24a2.26,2.26,0,0,0-.11.22s0,.08,0,.09.25-.15.3-.25l0-.09s0,0,0,0l0-.06A.46.46,0,0,0,53.05,89.11Z"/><path id="Tracé_3953" data-name="Tracé 3953" class="cls-12" d="M54.4,89.62s0-.06,0-.08a1.53,1.53,0,0,1-.11-.16s-.06,0,0,0,0,.15,0,.22a.38.38,0,0,1,0,.1s0,0,0,.08a.06.06,0,0,0,.06.06h0a.22.22,0,0,0,.18-.2C54.49,89.59,54.45,89.6,54.4,89.62Z"/><path id="Tracé_3954" data-name="Tracé 3954" class="cls-12" d="M56,88.71a.28.28,0,0,1-.09-.1l-.11-.12s-.11.06-.1.1a.51.51,0,0,1,0,.3c0,.1.08.11.14.08a.31.31,0,0,0,.12-.14S56.08,88.73,56,88.71Z"/><path id="Tracé_3955" data-name="Tracé 3955" class="cls-12" d="M56.74,88.24a.28.28,0,0,0-.06-.18s-.13.07-.12.11a.33.33,0,0,1,0,.17,1.27,1.27,0,0,1,0,.2c0,.17.24,0,.22-.11S56.75,88.31,56.74,88.24Z"/></g></g><g id="Groupe_550" data-name="Groupe 550"><path id="Tracé_3956" data-name="Tracé 3956" class="cls-2" d="M51.92,85a13,13,0,0,0-4.11,1.1c-1.11.5-2.71,1.3-3.28,2.45-.07.15.08.18.18.09,2-1.93,4.58-2.82,7.2-3.59C51.92,85,51.94,85,51.92,85Z"/><path id="Tracé_3957" data-name="Tracé 3957" class="cls-2" d="M44.46,88.94a1.1,1.1,0,0,0-.38.86c0,.08.08.07.13,0a.26.26,0,0,0,.12-.19,1.19,1.19,0,0,1,.18-.64C44.55,89,44.53,88.88,44.46,88.94Z"/></g></g><g id="Groupe_556" data-name="Groupe 556"><path id="Tracé_3958" data-name="Tracé 3958" class="cls-8" d="M43,102.29s1.84,7.3,10.58,4.3c4.79-2,6.79-6.84,5.14-10.34C57,99,43,102.29,43,102.29Z"/><path id="Tracé_3959" data-name="Tracé 3959" class="cls-9" d="M58.34,95.45c1.5,2.45-.68,6.53-4.86,8.63s-9,1.25-10.29-1.32,1.31-6.12,5.51-8.19C52.15,92.88,56.68,92.75,58.34,95.45Z"/><path id="Tracé_3960" data-name="Tracé 3960" class="cls-10" d="M57.91,95.41c1.4,2.26-.71,6.09-4.71,8.09s-8.55,1.28-9.75-1.1,1.32-5.71,5.33-7.69C52.07,93.1,56.38,92.92,57.91,95.41Z"/><path id="Tracé_3961" data-name="Tracé 3961" class="cls-11" d="M52.61,94.2a10.63,10.63,0,0,0-3.93,1.43,10,10,0,0,0-3.33,2.85.17.17,0,0,0,0,.13l-.24.4a4.6,4.6,0,0,0-.31,1.65c-.08.6-.44,1.51-.2,2.12,1.17,2.91,4.63-1.23,5.31-2.59a15,15,0,0,1,2.63-4.25C52.87,95.56,53.84,94.12,52.61,94.2Z"/><path id="Tracé_3962" data-name="Tracé 3962" class="cls-11" d="M53,94.27a3.32,3.32,0,0,1-.71,1.35,4.26,4.26,0,0,1-2.25,1.12c-.7.2-1.47.5-1.39,1.4.05.57.27,1.13.29,1.71a4.89,4.89,0,0,1-.48,2.22,10,10,0,0,0,1.37-1.87,15.23,15.23,0,0,1,2.63-4.26C52.82,95.62,53.55,94.54,53,94.27Z"/><path id="Tracé_3963" data-name="Tracé 3963" class="cls-11" d="M56.16,94.88a3,3,0,0,0-1.93.71,4.23,4.23,0,0,0-1.6,1.9A8,8,0,0,1,51.48,100c-.58.7-1.28,1.31-1.88,2-.19.21-1.71,1.88-1.13,2.23,1,.61,2.8-.8,3.65-1.2a10.11,10.11,0,0,0,3.4-2A6.6,6.6,0,0,0,57,97.92c.25-.82.49-2.36-.28-2.82A1.68,1.68,0,0,0,56.16,94.88Z"/><path id="Tracé_3964" data-name="Tracé 3964" class="cls-11" d="M51.66,99.93c.37-.17.74-.31,1.12-.45a2.58,2.58,0,0,0,1.16-.6c.6-.77-.4-1.86-.26-2.74l0-.12a3.62,3.62,0,0,0-1.08,1.48A8.35,8.35,0,0,1,51.5,100Z"/><g id="Groupe_554" data-name="Groupe 554"><g id="Groupe_552" data-name="Groupe 552"><path id="Tracé_3965" data-name="Tracé 3965" class="cls-12" d="M45.92,102.12c0-.07-.13,0-.15.07l-.09.1a.39.39,0,0,1-.08.1c-.06.07-.17.23-.12.32s.16,0,.2,0a1.32,1.32,0,0,0,.19-.29C45.91,102.31,46,102.2,45.92,102.12Z"/><path id="Tracé_3966" data-name="Tracé 3966" class="cls-12" d="M45.76,100.81l-.2.15a.76.76,0,0,0-.24.23.17.17,0,0,0,0,.14h0a.08.08,0,0,0,.08,0,.69.69,0,0,0,.25-.26s.06-.11.1-.16a.75.75,0,0,0,.07-.12S45.78,100.79,45.76,100.81Z"/><path id="Tracé_3967" data-name="Tracé 3967" class="cls-12" d="M45.5,99.61a1.15,1.15,0,0,0-.45.33c0,.06,0,.19.06.14a1.3,1.3,0,0,0,.43-.41S45.55,99.59,45.5,99.61Z"/><path id="Tracé_3968" data-name="Tracé 3968" class="cls-12" d="M47,97.91l-.27.08a.72.72,0,0,0-.31.2s-.1.14,0,.16.25-.12.34-.18A.79.79,0,0,0,47,98S47.06,97.9,47,97.91Z"/></g><g id="Groupe_553" data-name="Groupe 553"><path id="Tracé_3969" data-name="Tracé 3969" class="cls-12" d="M51.13,101.65c0-.07-.11,0-.12.07-.06.2-.15.4-.22.6a.11.11,0,0,0,0,.11h0s.08,0,.1,0a.82.82,0,0,0,.19-.4A.78.78,0,0,0,51.13,101.65Z"/><path id="Tracé_3970" data-name="Tracé 3970" class="cls-12" d="M52.19,101.45s0,0,0,0a1,1,0,0,1,0,.24A3,3,0,0,1,52,102a.08.08,0,0,0,0,.07l0,0s.12,0,.14-.07A.76.76,0,0,0,52.19,101.45Z"/><path id="Tracé_3971" data-name="Tracé 3971" class="cls-12" d="M53.88,101c-.05-.1,0-.22-.11-.29s-.12.06-.11.1-.06.25,0,.37S53.92,101.12,53.88,101Z"/><path id="Tracé_3972" data-name="Tracé 3972" class="cls-12" d="M55.29,100a.87.87,0,0,1-.1-.08.61.61,0,0,0-.18,0s-.09,0-.06.08a2.61,2.61,0,0,1,.17.28s.1,0,.13,0a.31.31,0,0,0,.07-.09S55.33,100,55.29,100Z"/></g></g><g id="Groupe_555" data-name="Groupe 555"><path id="Tracé_3973" data-name="Tracé 3973" class="cls-2" d="M52.17,93.82c-3.6.59-7.7,2.5-8.66,6.38-.06.23.24,0,.28-.06A8,8,0,0,1,47.19,96a24.88,24.88,0,0,1,2.69-1.33c.74-.29,1.52-.46,2.25-.75C52.17,93.94,52.25,93.81,52.17,93.82Z"/><path id="Tracé_3974" data-name="Tracé 3974" class="cls-2" d="M43.57,100.9c0-.1.06-.23,0-.36s-.17.07-.16.14a.35.35,0,0,1-.06.24.87.87,0,0,0-.05.22c0,.14,0,.29.11.35s.21-.12.2-.2S43.58,101,43.57,100.9Z"/></g></g><g id="Groupe_561" data-name="Groupe 561"><path id="Tracé_3975" data-name="Tracé 3975" class="cls-8" d="M26.79,97.1s1.55,6.1,8.8,5.5,8.14-6.3,7.54-8.6C40.13,96.25,26.79,97.1,26.79,97.1Z"/><path id="Tracé_3976" data-name="Tracé 3976" class="cls-9" d="M42.84,93.14c1.4,2.65-1.53,5.11-6.46,6.21-4.43,1-9-.17-9.59-2.25s3-4.38,7.36-5.55C37.74,90.6,41.63,90.86,42.84,93.14Z"/><path id="Tracé_3977" data-name="Tracé 3977" class="cls-10" d="M42.13,93.2c1.29,2.42-1.4,4.68-5.91,5.68-4.07.9-8.27-.15-8.79-2.06s2.72-4,6.74-5.08C37.46,90.86,41,91.1,42.13,93.2Z"/><path id="Tracé_3978" data-name="Tracé 3978" class="cls-11" d="M35.34,92a3.18,3.18,0,0,0-1.8.19c-.47.23-.91.51-1.36.78s-1.05.53-1.57.81c-1.24.66-2.93,2-1.55,3.38.59.6,1,1.35,2.16.51A24.55,24.55,0,0,0,33.63,96a9.81,9.81,0,0,0,1.63-2.16,3,3,0,0,0,.4-1.16C35.73,92.35,35.6,92.07,35.34,92Z"/><path id="Tracé_3979" data-name="Tracé 3979" class="cls-11" d="M35.5,92.1a1.84,1.84,0,0,1-.17.22,1.79,1.79,0,0,1-.65.39c-.76.3-.74,1-.79,1.57a2.28,2.28,0,0,1-.63,1.31,3.24,3.24,0,0,0-.72,1.26,9.54,9.54,0,0,0,1.09-.8,10.11,10.11,0,0,0,1.63-2.17,3,3,0,0,0,.4-1.16A.6.6,0,0,0,35.5,92.1Z"/><path id="Tracé_3980" data-name="Tracé 3980" class="cls-11" d="M33.1,97.71s.67-.64,1.26-1.23.2-.88,1.26-1.87A4.65,4.65,0,0,1,38,93.26c1.25-.46,1.81-1,2.1-.84s2.17,1.46,1.79,2.69-1,1.55-2.66,2.22a7.4,7.4,0,0,1-3.92.73,3.07,3.07,0,0,0-1.7.06C32.9,98.33,32.84,98.06,33.1,97.71Z"/><path id="Tracé_3981" data-name="Tracé 3981" class="cls-11" d="M34.9,96.35a13.11,13.11,0,0,0,1.18-.9,3.62,3.62,0,0,1,1.8-.87c.5-.07,1.59-.1,1.66-.79a8.86,8.86,0,0,1,.12-1,2.08,2.08,0,0,1,.12-.32c-.35.14-.88.48-1.77.81a4.56,4.56,0,0,0-2.4,1.35c-1,1-.67,1.28-1.26,1.87l-.19.19A4,4,0,0,0,34.9,96.35Z"/><g id="Groupe_559" data-name="Groupe 559"><g id="Groupe_557" data-name="Groupe 557"><path id="Tracé_3982" data-name="Tracé 3982" class="cls-12" d="M30.31,95.67l-.16,0a.63.63,0,0,0-.23.08.4.4,0,0,0-.16.18s0,.16,0,.17a.39.39,0,0,0,.32-.13s.09,0,.12-.08a.29.29,0,0,0,.1-.12S30.35,95.66,30.31,95.67Z"/><path id="Tracé_3983" data-name="Tracé 3983" class="cls-12" d="M30.89,96.56c-.06,0-.12,0-.18,0s-.25.11-.28.18,0,.21.15.13a2.4,2.4,0,0,1,.26-.18S30.93,96.59,30.89,96.56Z"/><path id="Tracé_3984" data-name="Tracé 3984" class="cls-12" d="M31.69,94.5c-.06,0-.05,0-.09-.08l-.06,0a.09.09,0,0,0-.11,0h0c-.09,0-.3.26-.14.33s.16,0,.22-.08l.2-.1S31.72,94.5,31.69,94.5Z"/><path id="Tracé_3985" data-name="Tracé 3985" class="cls-12" d="M32.86,93.44h-.29a.36.36,0,0,0-.31.23c0,.11,0,.23.13.18a1,1,0,0,0,.48-.27S33,93.44,32.86,93.44Z"/></g><g id="Groupe_558" data-name="Groupe 558"><path id="Tracé_3986" data-name="Tracé 3986" class="cls-12" d="M37,95.93c0-.13-.19,0-.21.1a1.26,1.26,0,0,1-.13.26,1.89,1.89,0,0,0-.11.25s0,.08,0,.09.27-.17.32-.27a.42.42,0,0,0,0-.1s0,0,0,0l0-.07A.42.42,0,0,0,37,95.93Z"/><path id="Tracé_3987" data-name="Tracé 3987" class="cls-12" d="M38.44,96.49s0-.06,0-.09a1.77,1.77,0,0,1-.12-.17s-.06,0-.06,0a1.55,1.55,0,0,1,.05.23.38.38,0,0,1,0,.1s0,.06,0,.09a.07.07,0,0,0,.07.06h0c.09,0,.19-.13.19-.22S38.49,96.47,38.44,96.49Z"/><path id="Tracé_3988" data-name="Tracé 3988" class="cls-12" d="M40.2,95.51a.47.47,0,0,1-.1-.1s-.08-.09-.11-.14-.12.07-.11.11a.62.62,0,0,1,0,.33c0,.11.08.12.15.07a.29.29,0,0,0,.13-.14S40.24,95.53,40.2,95.51Z"/><path id="Tracé_3989" data-name="Tracé 3989" class="cls-12" d="M41,95a.48.48,0,0,0-.07-.2c0-.05-.15.08-.13.13a.4.4,0,0,1,0,.19,1.48,1.48,0,0,1,0,.21c0,.19.26,0,.24-.11S41,95.07,41,95Z"/></g></g><g id="Groupe_560" data-name="Groupe 560"><path id="Tracé_3990" data-name="Tracé 3990" class="cls-2" d="M35.75,91.48a14,14,0,0,0-4.45,1.19c-1.2.54-2.93,1.4-3.55,2.65-.08.16.09.2.19.1,2.18-2.09,5-3.06,7.79-3.89C35.74,91.52,35.77,91.48,35.75,91.48Z"/><path id="Tracé_3991" data-name="Tracé 3991" class="cls-2" d="M27.67,95.76a1.2,1.2,0,0,0-.41.92c0,.09.09.08.14,0a.28.28,0,0,0,.13-.2,1.32,1.32,0,0,1,.2-.69C27.77,95.77,27.75,95.69,27.67,95.76Z"/></g></g></g><g id="Groupe_563" data-name="Groupe 563"><path id="Tracé_3992" data-name="Tracé 3992" class="cls-7" d="M17.19,95.72a2.69,2.69,0,1,0,2.68,2.69h0a2.69,2.69,0,0,0-2.68-2.69Z"/><path id="Tracé_3993" data-name="Tracé 3993" class="cls-7" d="M18.14,92.15a2.69,2.69,0,1,0-2.69,2.68h0A2.68,2.68,0,0,0,18.14,92.15Z"/><path id="Tracé_3994" data-name="Tracé 3994" class="cls-7" d="M22.24,91.92a2.69,2.69,0,1,0,2.68,2.68,2.68,2.68,0,0,0-2.68-2.68Z"/><path id="Tracé_3995" data-name="Tracé 3995" class="cls-7" d="M15.79,89.2a2.68,2.68,0,1,0-2.68-2.68,2.67,2.67,0,0,0,2.68,2.68Z"/><path id="Tracé_3996" data-name="Tracé 3996" class="cls-7" d="M21.61,91.32a2.68,2.68,0,1,0-2.68-2.68,2.68,2.68,0,0,0,2.68,2.68Z"/><path id="Tracé_3997" data-name="Tracé 3997" class="cls-7" d="M27.1,88.55a2.69,2.69,0,1,0,2.68,2.69,2.69,2.69,0,0,0-2.68-2.69Z"/></g><g id="Groupe_564" data-name="Groupe 564"><path id="Tracé_3998" data-name="Tracé 3998" d="M7.78,77.85a.17.17,0,0,0-.06-.11c-.08-.1-.23,0-.31,0a.69.69,0,0,0-.2.28.64.64,0,0,0-.08.14,7142690978659,7142690978659,0,0,1,0,.2.19.19,0,0,0,.17.21h0a.51.51,0,0,0,.38-.3.73.73,0,0,0,.06-.3.08.08,0,0,0,0-.07A.08.08,0,0,0,7.78,77.85Z"/><path id="Tracé_3999" data-name="Tracé 3999" d="M9.36,80.39c-.1,0-.24.13-.25.22a.56.56,0,0,0,.06.4.09.09,0,0,0,.1,0,.58.58,0,0,0,.17.18c.08,0,.2-.07.22-.14A.52.52,0,0,0,9.36,80.39Z"/><path id="Tracé_4000" data-name="Tracé 4000" d="M11.44,82.54a.16.16,0,0,0-.08-.1l-.14-.08c-.11,0-.24.12-.25.22s0,.32.12.37c.1.22.32,0,.38-.12A.37.37,0,0,0,11.44,82.54Z"/><path id="Tracé_4001" data-name="Tracé 4001" d="M14.16,82.15a.12.12,0,0,0-.06-.08L14,82c-.08,0-.17.08-.18.15s0,.23.09.27.23,0,.27-.09A.27.27,0,0,0,14.16,82.15Z"/><path id="Tracé_4002" data-name="Tracé 4002" d="M13.84,81.1c-.18-.1-.46.16-.33.33l.05,0a.43.43,0,0,0,0,.11c0,.2.25.1.34,0a.29.29,0,0,0,0-.41Z"/><path id="Tracé_4003" data-name="Tracé 4003" d="M9.67,85.79c-.05-.12-.21.07-.23.11a.65.65,0,0,0-.08.22.72.72,0,0,0-.12.21.27.27,0,0,0,.06.27c.1.08.26,0,.35-.07a.41.41,0,0,0,.16-.36A1.24,1.24,0,0,0,9.67,85.79Z"/><path id="Tracé_4004" data-name="Tracé 4004" d="M26,86a.46.46,0,0,0-.12-.12.17.17,0,0,0-.18,0l0,0s-.14,0-.18,0a.28.28,0,0,0-.1.24c0,.14.22.15.33.2S26,86.13,26,86Z"/><path id="Tracé_4005" data-name="Tracé 4005" d="M20.6,83.41h0s0,0-.07,0l-.08,0a.42.42,0,0,0-.26.32.21.21,0,0,0,0,.25c.06.09.18,0,.24,0a.66.66,0,0,0,.23-.47A.07.07,0,0,0,20.6,83.41Z"/><path id="Tracé_4006" data-name="Tracé 4006" d="M32.31,89.11h0c-.19-.06-.34.15-.39.3a1.77,1.77,0,0,0-.09.56.09.09,0,0,0,.06.08.56.56,0,0,0,.53-.41C32.45,89.48,32.5,89.2,32.31,89.11Z"/><path id="Tracé_4007" data-name="Tracé 4007" d="M37.17,89.18a.29.29,0,0,0-.17.14.44.44,0,0,0-.11.33h0a.57.57,0,0,0,0,.18c0,.06.06.07.1,0,.27-.09.31-.41.31-.65C37.27,89.15,37.22,89.16,37.17,89.18Z"/><path id="Tracé_4008" data-name="Tracé 4008" d="M41,89.23a.69.69,0,0,0-.13.11h0a.47.47,0,0,0-.22.34c0,.1,0,.24,0,.33s.27,0,.37-.07a.86.86,0,0,0,.19-.58.15.15,0,0,0-.13-.17A.11.11,0,0,0,41,89.23Z"/><path id="Tracé_4009" data-name="Tracé 4009" d="M42.32,88.11h0s0-.1,0-.1c-.28,0-.38.53-.31.73a.07.07,0,0,0,.07,0C42.34,88.75,42.45,88.32,42.32,88.11Z"/><path id="Tracé_4010" data-name="Tracé 4010" d="M41.92,90.27c0-.1-.17-.06-.23,0a.46.46,0,0,0-.28.34c0,.07,0,.12.09.12h0c0,.13.1.1.17,0S42,90.42,41.92,90.27Z"/><path id="Tracé_4011" data-name="Tracé 4011" d="M56.53,82.85a.42.42,0,0,0-.09-.14v0a.43.43,0,0,0-.26-.13c-.22,0-.51.19-.47.43a.4.4,0,0,0,.24.27H56a.34.34,0,0,0,.24-.06s0,0,0,0a.3.3,0,0,0,.23-.36A.14.14,0,0,0,56.53,82.85Z"/><path id="Tracé_4012" data-name="Tracé 4012" d="M59.38,82.14a.12.12,0,0,0-.05-.09h0a.4.4,0,0,0-.27.12c-.09.07-.22.27-.15.4a.27.27,0,0,0,0,.12.25.25,0,0,0,0,.17c.07.08.2,0,.24-.1a.8.8,0,0,0,.19-.32l0-.08h0A.45.45,0,0,0,59.38,82.14Z"/><path id="Tracé_4013" data-name="Tracé 4013" d="M60,83.86a.6.6,0,0,0-.78.32.5.5,0,0,0,0,.13.18.18,0,0,0,0,.1s0,0,0,0a.12.12,0,0,0,.11.07.29.29,0,0,0,.18,0,.55.55,0,0,0,.42-.33.33.33,0,0,0,0-.17C60,84,60.11,83.88,60,83.86Z"/><path id="Tracé_4014" data-name="Tracé 4014" d="M61.08,82.11a.45.45,0,0,0-.11-.19l0,0a.06.06,0,0,0-.09,0h-.09a.27.27,0,0,0-.23.17c-.08.2.07.34.26.35l.09,0C61,82.41,61.13,82.23,61.08,82.11Z"/><path id="Tracé_4015" data-name="Tracé 4015" class="cls-2" d="M9.35,80.43a.18.18,0,0,0-.15.21c0,.09.13,0,.14-.07h0a.13.13,0,0,0,0-.09S9.38,80.42,9.35,80.43Z"/><path id="Tracé_4016" data-name="Tracé 4016" class="cls-2" d="M11.19,82.47c-.07,0-.17.17-.07.17S11.29,82.47,11.19,82.47Z"/><path id="Tracé_4017" data-name="Tracé 4017" class="cls-2" d="M32.11,89.29a2.69,2.69,0,0,0-.16.29.06.06,0,0,0,.08.07c.15-.06.19-.22.25-.35S32.16,89.21,32.11,89.29Z"/><path id="Tracé_4018" data-name="Tracé 4018" class="cls-2" d="M37.09,89.36h0c-.06,0-.17.16-.07.16h0C37.09,89.53,37.19,89.35,37.09,89.36Z"/><path id="Tracé_4019" data-name="Tracé 4019" class="cls-2" d="M59.7,84c-.08,0-.19.18-.08.18S59.81,84,59.7,84Z"/><path id="Tracé_4020" data-name="Tracé 4020" class="cls-2" d="M56.25,82.63c-.1,0-.25.24-.1.24S56.39,82.63,56.25,82.63Z"/></g><g id="Groupe_571" data-name="Groupe 571"><g id="Groupe_565" data-name="Groupe 565"><path id="Tracé_4021" data-name="Tracé 4021" class="cls-13" d="M19.8,97.71A2.68,2.68,0,1,1,17.12,95a2.68,2.68,0,0,1,2.68,2.68Z"/><path id="Tracé_4022" data-name="Tracé 4022" class="cls-14" d="M17.52,95.75c.26.46-.08,1.15-.77,1.54s-1.46.33-1.72-.14.09-1.15.77-1.54S17.26,95.28,17.52,95.75Z"/><path id="Tracé_4023" data-name="Tracé 4023" class="cls-2" d="M16.2,95.37c-.63.23-1.41.94-1.35,1.67,0,.12.18,0,.2-.08a2.46,2.46,0,0,1,1.14-1.45S16.3,95.33,16.2,95.37Z"/><path id="Tracé_4024" data-name="Tracé 4024" class="cls-2" d="M15,97.84l0-.3c0-.1-.15,0-.16.07s-.14.55,0,.69.2-.1.2-.17A2.89,2.89,0,0,0,15,97.84Z"/></g><g id="Groupe_566" data-name="Groupe 566"><path id="Tracé_4025" data-name="Tracé 4025" class="cls-13" d="M18.07,91.46a2.69,2.69,0,1,1-2.68-2.68,2.68,2.68,0,0,1,2.68,2.68Z"/><path id="Tracé_4026" data-name="Tracé 4026" class="cls-14" d="M15.79,89.49c.26.47-.08,1.16-.77,1.55s-1.46.33-1.72-.14.08-1.16.77-1.54S15.53,89,15.79,89.49Z"/><path id="Tracé_4027" data-name="Tracé 4027" class="cls-2" d="M14.47,89.11c-.63.23-1.41.94-1.35,1.67,0,.13.18,0,.2-.07a2.43,2.43,0,0,1,1.13-1.45C14.5,89.23,14.57,89.07,14.47,89.11Z"/><path id="Tracé_4028" data-name="Tracé 4028" class="cls-2" d="M13.25,91.59c0-.1,0-.2,0-.3s-.15,0-.16.07-.15.55,0,.69.2-.1.2-.17A2.54,2.54,0,0,0,13.25,91.59Z"/></g><g id="Groupe_567" data-name="Groupe 567"><path id="Tracé_4029" data-name="Tracé 4029" class="cls-13" d="M24.85,93.91a2.68,2.68,0,1,1-2.68-2.68,2.68,2.68,0,0,1,2.68,2.68Z"/><path id="Tracé_4030" data-name="Tracé 4030" class="cls-14" d="M22.57,92c.26.46-.08,1.15-.77,1.54s-1.46.33-1.72-.14.08-1.15.77-1.54S22.31,91.48,22.57,92Z"/><path id="Tracé_4031" data-name="Tracé 4031" class="cls-2" d="M21.25,91.57c-.62.23-1.41.93-1.34,1.66,0,.13.18,0,.2-.07a2.45,2.45,0,0,1,1.13-1.45S21.35,91.53,21.25,91.57Z"/><path id="Tracé_4032" data-name="Tracé 4032" class="cls-2" d="M20,94c0-.1,0-.2,0-.3s-.15,0-.15.07-.15.55,0,.69.2-.1.2-.17S20,94.13,20,94Z"/></g><g id="Groupe_568" data-name="Groupe 568"><path id="Tracé_4033" data-name="Tracé 4033" class="cls-13" d="M18.41,85.83a2.69,2.69,0,1,1-2.69-2.69,2.69,2.69,0,0,1,2.69,2.69Z"/><path id="Tracé_4034" data-name="Tracé 4034" class="cls-14" d="M16.13,83.86c.26.47-.09,1.16-.77,1.55s-1.46.32-1.72-.14.08-1.16.77-1.55S15.87,83.4,16.13,83.86Z"/><path id="Tracé_4035" data-name="Tracé 4035" class="cls-2" d="M14.8,83.48c-.62.23-1.41.94-1.34,1.67,0,.13.18,0,.2-.07a2.39,2.39,0,0,1,1.13-1.45C14.84,83.6,14.91,83.44,14.8,83.48Z"/><path id="Tracé_4036" data-name="Tracé 4036" class="cls-2" d="M13.58,86c0-.1,0-.2,0-.3s-.16,0-.16.08-.15.55,0,.69.2-.1.2-.17A1.57,1.57,0,0,0,13.58,86Z"/></g><g id="Groupe_569" data-name="Groupe 569"><path id="Tracé_4037" data-name="Tracé 4037" class="cls-13" d="M24.23,88a2.69,2.69,0,1,1-2.69-2.69h0a2.68,2.68,0,0,1,2.68,2.68Z"/><path id="Tracé_4038" data-name="Tracé 4038" class="cls-14" d="M22,86c.26.47-.08,1.16-.77,1.55s-1.46.32-1.72-.14.08-1.16.77-1.55S21.69,85.52,22,86Z"/><path id="Tracé_4039" data-name="Tracé 4039" class="cls-2" d="M20.63,85.6c-.63.23-1.41.94-1.35,1.67,0,.12.18,0,.2-.08a2.45,2.45,0,0,1,1.13-1.45C20.66,85.72,20.73,85.56,20.63,85.6Z"/><path id="Tracé_4040" data-name="Tracé 4040" class="cls-2" d="M19.41,88.07c0-.1,0-.2,0-.3s-.15,0-.16.08-.15.55,0,.69.2-.1.2-.17A2.72,2.72,0,0,0,19.41,88.07Z"/></g><g id="Groupe_570" data-name="Groupe 570"><path id="Tracé_4041" data-name="Tracé 4041" class="cls-13" d="M29.71,90.54A2.68,2.68,0,1,1,27,87.86a2.68,2.68,0,0,1,2.68,2.68Z"/><path id="Tracé_4042" data-name="Tracé 4042" class="cls-14" d="M27.43,88.58c.27.46-.08,1.16-.77,1.54s-1.45.33-1.72-.13.09-1.16.77-1.55S27.17,88.11,27.43,88.58Z"/><path id="Tracé_4043" data-name="Tracé 4043" class="cls-2" d="M26.11,88.2c-.63.23-1.41.93-1.35,1.67,0,.12.18,0,.2-.08a2.46,2.46,0,0,1,1.14-1.45S26.22,88.16,26.11,88.2Z"/><path id="Tracé_4044" data-name="Tracé 4044" class="cls-2" d="M24.89,90.67l0-.3c0-.1-.15,0-.15.07s-.15.55,0,.69.2-.1.2-.17S24.9,90.77,24.89,90.67Z"/></g></g><g id="Groupe_586" data-name="Groupe 586"><g id="Groupe_582" data-name="Groupe 582"><path id="Tracé_4045" data-name="Tracé 4045" class="cls-15" d="M11.6,65.88c3.1,1.07,4.88,2.79,8.34,5.5s9.25,5.73,13.8,5.78,15.78-3.25,22.13-4.45c3.1-.6,3.64-.85,4.64-1.7s6.3-3,10.64-3.75c4-.7,12-2.16,15.35-3.45,0,0,0-.06,0-.09-.15-.75-.85-1.4-2.3-2A100.73,100.73,0,0,1,73.65,56c-2.4-1.86-3.47-2.86-4.4-2.86s-8.26.26-11.79-.54c-3.26-1-7.65-3-14.85-2.53-5.46.54-5.92.6-10,1.07A22,22,0,0,0,21.7,55.72c-1.53,1.4-2.86,1.54-5.66,2.47A11.13,11.13,0,0,0,9.23,63.8C9.39,64.52,10,65.34,11.6,65.88Z"/><path id="Tracé_4046" data-name="Tracé 4046" class="cls-16" d="M34.94,83.12A8.33,8.33,0,0,1,34.52,79a2.9,2.9,0,0,0-.2-1.86h-.58c-4.55,0-10.35-3.08-13.8-5.78s-5.23-4.43-8.33-5.5c-1.63-.54-2.22-1.36-2.38-2.07a2.44,2.44,0,0,0-.14.28,2.49,2.49,0,0,0,.1,3c1.19,1.49.79,1.69,1.29,4.08s.6,2.88.4,4.07-.3,2.79,1.69,3.58,4.08.2,7.26,2.69,6.17,3,7.76,3.68,6.28,3.23,7.83,3.47C36.43,85.72,35.23,84.26,34.94,83.12Z"/><path id="Tracé_4047" data-name="Tracé 4047" class="cls-17" d="M86.5,63.81c-3.32,1.29-11.32,2.76-15.35,3.46C66.8,68,61.51,70.17,60.51,71s-1.55,1.1-4.65,1.7c-6.08,1.15-16.67,4.23-21.54,4.44a2.9,2.9,0,0,1,.2,1.86,8.33,8.33,0,0,0,.42,4.11c.29,1.14,1.49,2.6.47,5.52l.13,0c1.39.1,6.39-3.13,18-6.67C63,79.11,67.4,77.71,71.45,75.66s6.94-3.5,7.89-3.84a8.68,8.68,0,0,0,3.3-2.45c1.5-1.55,3-3.1,3.54-3.7A2,2,0,0,0,86.5,63.81Z"/><g id="Groupe_574" data-name="Groupe 574"><g id="Groupe_572" data-name="Groupe 572"><path id="Tracé_4048" data-name="Tracé 4048" class="cls-18" d="M40.43,80.18c.35.08-1.49-2.6-2.15-3.54l-.88.15A24.39,24.39,0,0,0,40.43,80.18Z"/></g><g id="Groupe_573" data-name="Groupe 573"><path id="Tracé_4049" data-name="Tracé 4049" class="cls-18" d="M48.2,78A8.82,8.82,0,0,0,51,81.24,6.25,6.25,0,0,0,48.2,78Z"/><path id="Tracé_4050" data-name="Tracé 4050" class="cls-18" d="M55.92,76.13s.92,1.16,1.35,1.25S55.77,75.4,55.92,76.13Z"/><path id="Tracé_4051" data-name="Tracé 4051" class="cls-18" d="M61.57,73.42A7.29,7.29,0,0,0,63.3,75C64,75.26,62.34,73.47,61.57,73.42Z"/><path id="Tracé_4052" data-name="Tracé 4052" class="cls-18" d="M77.3,68.6s.29.91.72.82S77.2,67.68,77.3,68.6Z"/><path id="Tracé_4053" data-name="Tracé 4053" class="cls-18" d="M69.43,69.66a6.87,6.87,0,0,1,1.26,1.21c.62.77,1,.82,1.35,1.4s-.53-1.35-.77-1.93S69.24,69.18,69.43,69.66Z"/></g></g><path id="Tracé_4054" data-name="Tracé 4054" class="cls-19" d="M10.31,66.2s-.58,0-.05,1a15,15,0,0,1,1.52,3.46,9.2,9.2,0,0,0,.05,2.62c.26,1.16.95,4,1.16,3.94s.1-2.36.26-2.31.68,2.41,1.1,2.36.47-.26,1,.42A3.57,3.57,0,0,0,17.55,79c.73.06,1,.79,1.68,1.21s1.62.68,1.1.05a3.89,3.89,0,0,1-.84-2c.1-.16,1.62,2,2.41,3s2.15,1.47,3.25,2.1,1.68,1,1.1,0-.68-1.83-1.2-2.88-1.26-2.41-.95-2.41,1.1,1.73,2,3.14a11.11,11.11,0,0,0,2.62,3,12.8,12.8,0,0,1,2.94,1.46c.73.63,2.36,1.58,2.78,1.42s-.32-1.89-1-2.73-.47-1.62-.68-2.78-.79-2.78-1.26-3-.89-.36-.63.47,1,3,.42,2.1-1.42-2.83-2.15-3-1.1-.57-1.31,0c-1.42-1.78-3.52-4-4-3.88s-.68.79-.68,1.31-.84-1.26-1.74-2-2.51-.84-4.2-2.31-2.78-2.41-3.67-3.1,1,2.31,1.31,4.72C13.09,69.61,11.35,66.36,10.31,66.2Z"/><g id="Groupe_575" data-name="Groupe 575"><path id="Tracé_4055" data-name="Tracé 4055" class="cls-16" d="M15.5,72.71a20.91,20.91,0,0,1,1.9,3.67C17.55,77.27,15.71,74.6,15.5,72.71Z"/><path id="Tracé_4056" data-name="Tracé 4056" class="cls-16" d="M18.7,74.6s1.26,2.72,1.94,3S19.49,75.17,18.7,74.6Z"/><path id="Tracé_4057" data-name="Tracé 4057" class="cls-16" d="M27.41,79.43s.89,2.3,1.42,2.41S28.78,80.68,27.41,79.43Z"/></g><g id="Groupe_576" data-name="Groupe 576" class="cls-20"><path id="Tracé_4058" data-name="Tracé 4058" class="cls-21" d="M19.28,62.31c-1.16.1-1.6.1-1.2-.65s-.15-.65-1-.2-1.95.5-1.75-.2,3.21-1.56,3.21-1.56c.7-.25.6-.25.65.35s.9,1.06,1.81,1.66,1.6.8,2.41,1.3,1.1.05,2.05-.25,2.41.2,2,1.1.25.6,1,1,.35,1.2,1.06,1.56,2.75.1,3,.5-.15.85-1.36,1.15-.7-.5-1.5-1-1.91-.15-2.81-1a5.62,5.62,0,0,0-2.66-1.4,8.81,8.81,0,0,1-3-1.7C20.24,62.36,19.89,62.26,19.28,62.31Z"/><path id="Tracé_4059" data-name="Tracé 4059" class="cls-21" d="M28.53,56.36a2.76,2.76,0,0,0,1.68-.17c.72-.4.93-.29.75.32s.68.5,1.32.35,1.07-.1,1.65,1a9,9,0,0,0,2.78,3c1,.58,1.46.43,1.82,1s1.22.54,1.68.61.75,1,1.32.5,1-1.72,0-1.43a4,4,0,0,1-3.11-.64c-1.21-.65-1.57-1.5-2.28-2s-1.79-1.15-1.75-1.83-.47-1-1.07-1.28-.68-.64-.5-1.29-.86-.67-2.29-.14S27.5,56.47,28.53,56.36Z"/><path id="Tracé_4060" data-name="Tracé 4060" class="cls-21" d="M33.9,70.67a1.18,1.18,0,0,0,.77-.89,1.87,1.87,0,0,1,1.54-1.2c.44,0-1.36,1.5-.59,1.28s1.36-.33,1.54.25.4.88,1.32.85.71.37,1,1,.92.91,2.16,1.1,1.76.15,1.18.55a1.45,1.45,0,0,1-1.84,0,2.46,2.46,0,0,0-1.76-.48c-.8,0-1.21-.55-1.46-1.35s-.89-.85-1.73-.37C34.67,72.17,33.17,71.29,33.9,70.67Z"/><path id="Tracé_4061" data-name="Tracé 4061" class="cls-21" d="M47.21,66.47s1.43-1.18,1.64-.4.36,1,1.21.94,2.32-.27,2.32.45.18,1.79,1.24,1.94,2-.12,1.63.51-1.87,1.18-2.5.61-1.15-.73-1.36-1.33-1-.36-1.51-.33-1.15-.27-.91-1.09-.54-.85-1.24-.73S47,66.8,47.21,66.47Z"/><path id="Tracé_4062" data-name="Tracé 4062" class="cls-21" d="M42.46,51.68a15,15,0,0,0,2.08-.61c.86-.36,1.26-.4.86.25s-1,1.12-.4,1,1.11-.2,1.52.36A4,4,0,0,0,48.34,54a9.14,9.14,0,0,1,2.73,1.72c.86.81,1.32.4,1.42,1.07s.5.4.91-.16,1.26-1.06,1.06-.4-1.36,1-1.06,1.37,1.21.1,1.32.51.35.6,1.26.5,1,.26-.25.66a5.91,5.91,0,0,1-2.53.41c-.26-.1.55-.91.1-1a1.82,1.82,0,0,1-1.37-.92c-.35-.65-1.37-.65-1.82-1.16s-1.52-.35-1.42-1.11-.66-.86-1.57-1.07-.4-.81-1.92-1-2.38.25-3.14-.1S41.5,52.38,42.46,51.68Z"/><path id="Tracé_4063" data-name="Tracé 4063" class="cls-21" d="M58.71,62.91s1.67-1,2.38-.45,1.21-.2,1.57.81.45.91,1.21.91,1.57-.2,1.82.65.4.46,1,.2,1.52-.25,1.57.36-1.62.66-2.79.91-1.47,0-1.62-.3-.3-.1-.5-.76-.3-.71-1.32-.76a3.72,3.72,0,0,1-2.23-.71C59.32,63.37,58.25,63.37,58.71,62.91Z"/><path id="Tracé_4064" data-name="Tracé 4064" class="cls-21" d="M63.6,54a3.64,3.64,0,0,1-1.52.7c-.79.11-1.06.35-1.17.9s.25.78,1.3.73,2-.16,1.14.57-.25.82,1.7.77,2,0,2.7.8a7,7,0,0,0,2.4,1.5c.8.4,1,1,1.45,1.1s2.6.35,2.35,1.2-.4.9.7.85,1.35-.2,1.2.6.05.75,1.25.4,2.55-.45,1.65-.8-1.1-.5-.8-1-.2-.45-1-.2-1.6.75-2.1-.3-1.45-.85-2.45-1.65a8.38,8.38,0,0,0-2.65-1.65c-1.1-.4.15-2-.9-1.95s-2.9.15-2.64-.4,0-.55-1.15-.75-1.2-.55-.55-.94S64.74,53.38,63.6,54Z"/></g><g id="Groupe_577" data-name="Groupe 577" class="cls-20"><path id="Tracé_4065" data-name="Tracé 4065" class="cls-21" d="M29.88,67A24.15,24.15,0,0,0,25,64.24a34,34,0,0,1-4.82-2.15c-1.08-.65-2-1.62-3.23-1.84-.76.3-1.51.67-1.6,1-.2.7.9.65,1.75.2s1.4-.55,1,.2,0,.75,1.2.65c.6-.05,1,0,1.81.75a9,9,0,0,0,3,1.7,5.55,5.55,0,0,1,2.66,1.41c.9.85,2,.55,2.81,1s.3,1.25,1.5,1a4,4,0,0,0,.49-.15C31,67.65,30.43,67.33,29.88,67Z"/><path id="Tracé_4066" data-name="Tracé 4066" class="cls-21" d="M35.56,59.54a11.76,11.76,0,0,1-1.36-1.63A7.93,7.93,0,0,0,33,56.46a8.4,8.4,0,0,0-3.17-1.73c-1.18.66-2.17,1.72-1.31,1.64a2.84,2.84,0,0,0,1.68-.18c.72-.4.93-.29.75.32s.68.5,1.32.36,1.07-.11,1.65,1a9,9,0,0,0,2.78,3c1,.58,1.46.43,1.82,1s1.22.54,1.68.61.75,1,1.32.5a2.12,2.12,0,0,0,.33-.41C39.6,61.93,37.28,61.25,35.56,59.54Z"/><path id="Tracé_4067" data-name="Tracé 4067" class="cls-21" d="M38.93,72a13.06,13.06,0,0,0-4.3-2.11,1.17,1.17,0,0,1-.73.74c-.73.62.77,1.5,2.16.7.84-.49,1.47-.44,1.73.37s.66,1.32,1.46,1.35a2.46,2.46,0,0,1,1.76.48,1.64,1.64,0,0,0,1,.35A15.17,15.17,0,0,1,38.93,72Z"/><path id="Tracé_4068" data-name="Tracé 4068" class="cls-21" d="M51.91,68.92a34.23,34.23,0,0,0-4.28-2.75,3.45,3.45,0,0,0-.41.3c-.25.33-.19.7.51.57s1.48-.09,1.24.73.42,1.11.91,1.08,1.3-.27,1.51.34.72.75,1.36,1.33a1.54,1.54,0,0,0,1.47.11A16,16,0,0,1,51.91,68.92Z"/><path id="Tracé_4069" data-name="Tracé 4069" class="cls-21" d="M52.33,57.74a44.54,44.54,0,0,1-3.77-2.82A14,14,0,0,0,47,53.5a8.62,8.62,0,0,0-1.92-.56c-.77-.29-1.44-1-2.21-1.36l-.41.1c-1,.7-1.16,1.26-.4,1.62s1.62-.1,3.14.1,1,.81,1.92,1,1.67.3,1.57,1.06,1,.61,1.41,1.11,1.47.51,1.83,1.17a1.82,1.82,0,0,0,1.36.91c.46.1-.35.91-.1,1a4.59,4.59,0,0,0,1.88-.21C54.14,58.92,53.22,58.35,52.33,57.74Z"/><path id="Tracé_4070" data-name="Tracé 4070" class="cls-21" d="M65.24,65.54c-.92-.46-1.76-1.05-2.67-1.51-.69-.35-1.45-.55-2.16-.84a5.46,5.46,0,0,1-1.1-.57,5.55,5.55,0,0,0-.6.29c-.46.46.61.46,1.11.86a3.72,3.72,0,0,0,2.23.71c1,0,1.11.1,1.31.76s.36.5.51.76.46.56,1.62.3c.34-.07.73-.13,1.1-.19A13.3,13.3,0,0,1,65.24,65.54Z"/><path id="Tracé_4071" data-name="Tracé 4071" class="cls-21" d="M74.83,62.13c-1.47-.81-3.08-1.42-4.47-2.37-.73-.5-1.38-1.09-2.1-1.61s-1.48-1-2.25-1.51c-1.2-.74-2.44-1.4-3.7-2l-.22,0c-.79.11-1.06.35-1.17.9s.25.78,1.3.73,2-.16,1.14.57-.25.82,1.7.77,2,0,2.7.8a7,7,0,0,0,2.4,1.5c.8.4,1,1,1.45,1.1s2.6.35,2.35,1.2-.4.9.7.85,1.34-.2,1.2.6,0,.75,1.25.4c.26-.08.53-.14.78-.2C76.85,63.32,75.86,62.69,74.83,62.13Z"/></g><g id="Groupe_578" data-name="Groupe 578" class="cls-20"><path id="Tracé_4072" data-name="Tracé 4072" class="cls-15" d="M52.12,63.35a2.93,2.93,0,0,1-1.2-3.85c-.25.25-2.25,2.5.3,4.3a3.68,3.68,0,0,0,5-.45S53.56,64.05,52.12,63.35Z"/><path id="Tracé_4073" data-name="Tracé 4073" class="cls-15" d="M51.52,59l-.08,0a11.62,11.62,0,0,1,1.27-.84c-.6.32-1.15.64-1.66,1-2.13.61-10.94,2.81-14.62-1,0,1.59,4,6.11,14,1.44a17.38,17.38,0,0,0-2.21,1.71c-2.92,1.89-9.2,5.45-13.13,4.11,1.32,1.64,4.1,2.31,9.71-1.36-2.74,2.91-1.88,5.65-.6,6.74-1-4.09,1.43-7,3.11-8.52a5.84,5.84,0,0,0-1,5.5c.06-4.27,3.24-7.26,5.12-8.65Z"/><path id="Tracé_4074" data-name="Tracé 4074" class="cls-15" d="M50.92,59.17s-5.26.13-2.4-5.73a3.12,3.12,0,0,0,2.4,5.73Z"/></g><g id="Groupe_580" data-name="Groupe 580"><g id="Groupe_579" data-name="Groupe 579"><path id="Tracé_4075" data-name="Tracé 4075" class="cls-22" d="M49.94,59.39s-9.46,7-14.72,5.2C36.89,66.65,40.88,67.19,49.94,59.39Z"/><path id="Tracé_4076" data-name="Tracé 4076" class="cls-23" d="M48.87,60.38s-6,3.54-4.54,9.59C42.63,68.52,41.68,64.17,48.87,60.38Z"/><path id="Tracé_4077" data-name="Tracé 4077" class="cls-23" d="M51.07,58.73a2.91,2.91,0,0,0,1.2,3.84c1.45.7,4.1,0,4.1,0a3.69,3.69,0,0,1-5,.45C48.82,61.23,50.82,59,51.07,58.73Z"/><path id="Tracé_4078" data-name="Tracé 4078" class="cls-24" d="M52.87,57.42s-6.38,3.47-6.46,9.52C45.68,63.79,46.08,61.05,52.87,57.42Z"/><path id="Tracé_4079" data-name="Tracé 4079" class="cls-23" d="M51.67,58.23s-10.89,3.5-15.08-.9C36.59,59,40.88,63.77,51.67,58.23Z"/><path id="Tracé_4080" data-name="Tracé 4080" class="cls-24" d="M51.07,58.39s-5.26.14-2.4-5.72a3.11,3.11,0,0,0,2.4,5.72Z"/></g><path id="Tracé_4081" data-name="Tracé 4081" class="cls-25" d="M37.24,58.14s3.93,3.12,12.27.75C46.8,60.34,39.89,60.88,37.24,58.14Z"/><path id="Tracé_4082" data-name="Tracé 4082" class="cls-25" d="M46.38,62.22s-3.82,3.49-2.25,7C42.93,68.17,43.53,64.67,46.38,62.22Z"/></g><g id="Groupe_581" data-name="Groupe 581"><path id="Tracé_4083" data-name="Tracé 4083" class="cls-15" d="M40.9,51.57a49.35,49.35,0,0,0-8.67.65,16.84,16.84,0,0,0-3.71.81,13,13,0,0,0-3.2,2.09,32.7,32.7,0,0,1-3.56,2.52,17.24,17.24,0,0,1-4.2,1.44,11.2,11.2,0,0,0-3.7,1.61A17.18,17.18,0,0,0,11.31,63c-.09.08,0,.22.08.11a16.46,16.46,0,0,1,3.06-2.26,12.8,12.8,0,0,1,4.25-1.12,14.21,14.21,0,0,0,6.08-3.07,16.53,16.53,0,0,1,3.47-2.4A14.48,14.48,0,0,1,32,53.47c2.8-.33,5.63-.42,8.41-.88C40.82,52.54,41.55,51.59,40.9,51.57Z"/><path id="Tracé_4084" data-name="Tracé 4084" class="cls-15" d="M59.88,53.5c-1.21-.32-2.45-.43-3.68-.66a33.67,33.67,0,0,1-4-1,24.43,24.43,0,0,0-3.75-.92c-1.26-.17-2.5.19-3.75,0-.07,0-.21.15-.11.19a12.32,12.32,0,0,0,3.42.46,12.73,12.73,0,0,1,3.67,1c2.43,1.15,7.6,1.06,10.31,1.22C62.43,53.92,60.45,53.65,59.88,53.5Z"/></g></g><g id="Groupe_583" data-name="Groupe 583" class="cls-20"><path id="Tracé_4085" data-name="Tracé 4085" class="cls-21" d="M56.58,70.7c-.39.07-.65.46-1,.49a.49.49,0,0,0-.18-.14c-.24-.12-.56.33-.55.52a.65.65,0,0,0,.46.61,1.2,1.2,0,0,0,1-.32,1.89,1.89,0,0,0,.37-.32c-.1.13.17-.09.23-.13a.73.73,0,0,0,.4-.57C57.27,70.53,56.73,70.67,56.58,70.7Z"/><path id="Tracé_4086" data-name="Tracé 4086" class="cls-21" d="M57.5,60.08a3,3,0,0,0-.66.16,2.75,2.75,0,0,0-.45.17.49.49,0,0,0-.13.12,2.56,2.56,0,0,0-.47.23c-.11.07-.28.26-.21.4.16.38.58.1.83,0a4.32,4.32,0,0,1,.88-.1,1,1,0,0,0,.52-.3.37.37,0,0,0,.08-.53A.37.37,0,0,0,57.5,60.08Z"/><path id="Tracé_4087" data-name="Tracé 4087" class="cls-21" d="M58.69,60.88a1.27,1.27,0,0,0-.38.11,3.32,3.32,0,0,1-.51.23.34.34,0,0,0-.2.22.3.3,0,0,0,0,.1.11.11,0,0,0,0,.13c.38.26,1-.22,1.16-.53C58.8,61.07,58.85,60.87,58.69,60.88Z"/><path id="Tracé_4088" data-name="Tracé 4088" class="cls-21" d="M79.58,64.44c-.06-.14-.18-.13-.31-.12s-.47-.07-.71,0a.81.81,0,0,0-.45.2,1,1,0,0,0-.56.65c0,.09,0,.14.07.18a1.43,1.43,0,0,0,.82-.06,2.19,2.19,0,0,0,1-.49C79.54,64.67,79.62,64.54,79.58,64.44Z"/></g><g id="Groupe_585" data-name="Groupe 585"><path id="Tracé_4089" data-name="Tracé 4089" d="M33.05,70.19a1.33,1.33,0,0,0,.18-.38c.05-.17.07-.55-.19-.53l-.1,0a.33.33,0,0,0-.29.12,1.13,1.13,0,0,0-.33.64c0,.21.09.44.33.4a.64.64,0,0,0,.32-.18l0,0,0,0Z"/><path id="Tracé_4090" data-name="Tracé 4090" d="M30.9,73.88a.11.11,0,0,0-.09-.17.14.14,0,0,0-.11,0h0a.29.29,0,0,0-.29.2c0,.06,0,.12,0,.14s.26.12.36,0a1.13,1.13,0,0,0,.1-.13A.16.16,0,0,0,30.9,73.88Z"/><path id="Tracé_4091" data-name="Tracé 4091" d="M33.94,74.61v0a.2.2,0,0,0-.08-.1l-.07-.07c-.07-.08-.22,0-.27.1l-.08.12h0a.3.3,0,0,0-.05.27c0,.07.1.11.15.14a.36.36,0,0,0,.3-.08A.32.32,0,0,0,33.94,74.61Z"/><path id="Tracé_4092" data-name="Tracé 4092" d="M22.58,70a.69.69,0,0,0-.13.11.26.26,0,0,0-.08.13.42.42,0,0,0,0,0c-.05.1-.12.24,0,.34a.15.15,0,0,0,.19,0s0,0,0,0h0a.42.42,0,0,0,.31-.43C22.89,70,22.77,69.87,22.58,70Z"/><path id="Tracé_4093" data-name="Tracé 4093" d="M20.81,67.28c0-.13-.14-.22-.25-.28A.5.5,0,0,0,20,67a.33.33,0,0,0-.12.38.48.48,0,0,0,.23.17c.16.09.38.22.56.13a.38.38,0,0,0,.22-.21C20.91,67.4,20.91,67.28,20.81,67.28Z"/><path id="Tracé_4094" data-name="Tracé 4094" d="M16,64.67s0-.09,0-.11-.25.08-.3.14-.15.28-.06.37.4-.15.42-.29S16,64.69,16,64.67Z"/><path id="Tracé_4095" data-name="Tracé 4095" d="M13,61.7c-.2,0-.49.48-.21.48S13.28,61.7,13,61.7Z"/><path id="Tracé_4096" data-name="Tracé 4096" d="M28.88,59.62c-.09-.11-.23-.26-.39-.24s-.37.51-.31.74.3.48.53.26l0,0a.35.35,0,0,0,.2-.23A.53.53,0,0,0,28.88,59.62Z"/><path id="Tracé_4097" data-name="Tracé 4097" d="M23.66,56.69h0v0a1.1,1.1,0,0,0-.13-.47c0-.07-.12,0-.16,0a.32.32,0,0,0-.16.2,1.49,1.49,0,0,0,0,.42c0,.19.13.3.32.22S23.75,56.8,23.66,56.69Z"/><g id="Groupe_584" data-name="Groupe 584"><path id="Tracé_4098" data-name="Tracé 4098" d="M39.23,54.78Z"/><path id="Tracé_4099" data-name="Tracé 4099" d="M39.9,54.46l0,0a.45.45,0,0,0-.23,0,.7.7,0,0,0-.21.11.87.87,0,0,0-.13.15l-.06.09a.63.63,0,0,0-.07.5.26.26,0,0,0,.31.15.65.65,0,0,0,.44-.33C40,55,40.21,54.47,39.9,54.46Z"/></g><path id="Tracé_4100" data-name="Tracé 4100" d="M26.08,63.67a.47.47,0,0,0-.65-.05.84.84,0,0,0-.46.7.6.6,0,0,0,.27.48.47.47,0,0,0,.55-.07C26.09,64.51,26.42,64,26.08,63.67Z"/><path id="Tracé_4101" data-name="Tracé 4101" d="M56.21,66.57a.26.26,0,0,0-.34-.18l-.1,0,0,0a.83.83,0,0,0-.41.49.41.41,0,0,0,.18.53h0c.22.09.46-.17.57-.33A.69.69,0,0,0,56.21,66.57Z"/><path id="Tracé_4102" data-name="Tracé 4102" d="M48.07,71.07a.41.41,0,0,0-.15-.33c-.19-.14-.41,0-.45.25a.34.34,0,0,0,.28.4.24.24,0,0,0,.12,0,.3.3,0,0,0,.19-.14S48.14,71.1,48.07,71.07Z"/><path id="Tracé_4103" data-name="Tracé 4103" d="M44,70.15c-.23-.07-.46.16-.57.32l0,0-.06.11a.86.86,0,0,0-.06.23.3.3,0,0,0,.18.3c.11,0,.25,0,.34-.11a.69.69,0,0,0,.16-.18C44.19,70.7,44.31,70.24,44,70.15Z"/><path id="Tracé_4104" data-name="Tracé 4104" d="M57.5,57.15c-.1,0-.22,0-.3.09a.74.74,0,0,0-.22.57.27.27,0,0,0,.14.2.37.37,0,0,0,.27.05C57.73,57.92,57.87,57.33,57.5,57.15Z"/><path id="Tracé_4105" data-name="Tracé 4105" d="M64.29,59.93a.2.2,0,0,0-.13-.12.33.33,0,0,0-.21-.26c-.23-.07-.48.17-.57.35-.19.38.2.91.63.69A.56.56,0,0,0,64.29,59.93Z"/><path id="Tracé_4106" data-name="Tracé 4106" d="M70.52,62.2a.76.76,0,0,0-.26-.15c-.15,0-.33.15-.4.25s-.19.57.07.64.34-.1.44-.21a.71.71,0,0,0,.12-.18.24.24,0,0,0,0-.35Z"/><path id="Tracé_4107" data-name="Tracé 4107" d="M61.26,53.69h0a1,1,0,0,0-.45,0,.5.5,0,0,1-.34-.06c-.08,0-.14-.12-.22-.17s-.39.16-.36.31.42.45.67.48a.67.67,0,0,0,.53-.15h0c.07,0,.2-.14.2-.24l0,0C61.38,53.74,61.35,53.64,61.26,53.69Z"/><path id="Tracé_4108" data-name="Tracé 4108" d="M44.09,74.25h0a.06.06,0,0,0,0-.06h0a.34.34,0,0,0-.38-.09.75.75,0,0,0-.42.48.13.13,0,0,0,0,.13.56.56,0,0,0,.49,0,.69.69,0,0,0,.27-.24C44.09,74.4,44.13,74.3,44.09,74.25Z"/><path id="Tracé_4109" data-name="Tracé 4109" class="cls-2" d="M43.78,70.25c-.12,0-.29.29-.12.29S44,70.25,43.78,70.25Z"/><path id="Tracé_4110" data-name="Tracé 4110" class="cls-2" d="M33,69.43h-.12c-.1,0-.23.16-.23.26s-.07.14,0,.18a.2.2,0,0,0,.23-.06l.08-.07,0-.06s0,0,0,0S33.14,69.43,33,69.43Z"/><path id="Tracé_4111" data-name="Tracé 4111" class="cls-2" d="M39.71,54.58c-.15,0-.38.38-.16.38S39.93,54.58,39.71,54.58Z"/><path id="Tracé_4112" data-name="Tracé 4112" class="cls-2" d="M25.54,64.14a.26.26,0,0,0,.09-.17.14.14,0,0,0-.05-.18h0c-.13-.1-.37.19-.27.31v0c0,.05,0,.05,0,0a.06.06,0,0,0,.05.08h.09l0,0,.06,0Z"/><path id="Tracé_4113" data-name="Tracé 4113" class="cls-2" d="M64,59.74h0c-.05-.11-.2,0-.23.08a.15.15,0,0,0,0,.13c0,.05.09,0,.12,0l0,0C64,59.89,64.07,59.75,64,59.74Z"/></g></g><g id="Groupe_594" data-name="Groupe 594"><path id="Tracé_4114" data-name="Tracé 4114" class="cls-26" d="M81.49,95.78c4.15-.15,5.6-1.9,8-3.4s4.85-2.54,5.55-4c.54-1.17.42-2.62-.66-4.48A30.8,30.8,0,0,0,90.08,80L73.84,92.15C75.26,93.43,78.42,95.89,81.49,95.78Z"/><g id="Groupe_587" data-name="Groupe 587"><path id="Tracé_4115" data-name="Tracé 4115" class="cls-27" d="M73.84,92.14,70.5,94.63a15.12,15.12,0,0,0,6.8,5.85,8.09,8.09,0,0,0,2.11.6l.9-5.38C77.64,95.28,75.08,93.26,73.84,92.14Z"/><path id="Tracé_4116" data-name="Tracé 4116" class="cls-28" d="M95.08,84.7q-.35-.44-.72-.84c1.08,1.87,1.21,3.31.67,4.48-.7,1.5-3.15,2.55-5.55,4s-3.84,3.24-8,3.4a6.69,6.69,0,0,1-1.18-.08l-.9,5.38c4.29.61,8.92-2,11.57-3.45,3.1-1.65,4-2.1,4.85-4.85S97.17,87.29,95.08,84.7Z"/></g><g id="Groupe_588" data-name="Groupe 588"><path id="Tracé_4117" data-name="Tracé 4117" class="cls-29" d="M94.21,87c-.07-.22-.36-.32-.56-.39-.68-.24-.75-.21-.86-1s-1-.7-1.66-1.06c-.43-.22-.32-.66-.55-1a1.57,1.57,0,0,0-.69-.53c-.06,0-.14,0-.2.09l-.07.05c-.22.49-.88,1.17-.7,1.74,0,.1.61.25.65.27.23.16.27.61.61.64.59.07,1.1-.11,1.6.33a9.76,9.76,0,0,1,.83,1.29c.34.44.9.87,1.4.45A.77.77,0,0,0,94.21,87Z"/><path id="Tracé_4118" data-name="Tracé 4118" class="cls-29" d="M89.28,89.67c-.89.16,0-1.18-.6-1.28a.62.62,0,0,1-.54-.69v0c0-.28-.06-.35-.3-.47s-.4.28-.23.36.14.44.09.68a1.13,1.13,0,0,0-.32.56c0,.21,0,.19.08.35s.52,0,.62,0c.45-.06.07,1,.15,1.18a.24.24,0,0,0,.26.12l.42-.08c.33-.07.3.52.33.67.07.48.27.65.69.36a1.29,1.29,0,0,0,.5-1C90.36,89.73,90,89.55,89.28,89.67Z"/><path id="Tracé_4119" data-name="Tracé 4119" class="cls-29" d="M86.23,92.45c-.06-.12-.21-.13-.33-.15s-.14,0-.2-.14,0-.16,0-.26c0-.35-.48-.06-.59.06a.28.28,0,0,0-.06.25c-.07.08-.14.17-.23.26s-.32.46,0,.45.36-.2.51-.29c0,0,.08.33.1.36s.09.25.14.37.44-.08.51-.2S86.36,92.68,86.23,92.45Z"/></g><g id="Groupe_589" data-name="Groupe 589"><path id="Tracé_4120" data-name="Tracé 4120" class="cls-29" d="M93.28,86.75c-.63-.82-1.62-.77-2.41-1.33A8.67,8.67,0,0,0,89,84.18a1,1,0,0,0-.12.74c0,.1.62.25.65.27.23.16.27.61.61.64.59.07,1.1-.11,1.6.33a9.76,9.76,0,0,1,.83,1.29c.31.4.8.8,1.26.54A3.83,3.83,0,0,0,93.28,86.75Z"/><path id="Tracé_4121" data-name="Tracé 4121" class="cls-29" d="M89.13,90.34a2.1,2.1,0,0,0-1-1.47c-.21-.14-.43-.26-.65-.4a.85.85,0,0,0-.14.34c0,.21,0,.19.09.35s.51,0,.61,0c.46-.06.07,1,.16,1.18a.23.23,0,0,0,.25.12l.43-.08c.33-.08.3.52.32.67.07.44.26.62.62.4A1.9,1.9,0,0,1,89.13,90.34Z"/><path id="Tracé_4122" data-name="Tracé 4122" class="cls-29" d="M85,92.13a.22.22,0,0,0,0,.08c-.07.08-.14.17-.23.26s-.32.47,0,.46.36-.2.51-.29c0,0,.08.32.1.36s.09.24.14.37.44-.09.51-.2l0-.07A4,4,0,0,0,85,92.13Z"/></g><path id="Tracé_4123" data-name="Tracé 4123" class="cls-26" d="M74.42,95.79a19,19,0,0,0,2.12-.22,12.79,12.79,0,0,0,1.91-.42,12.43,12.43,0,0,0,5.69-2.85,10,10,0,0,0,2.38-3,47,47,0,0,1,2.4-4.12c.73-1.08,1.53-2.09,2.22-3.19.15-.25.31-.5.48-.74-.9-.76-1.54-1.23-1.54-1.23L73.84,92.15,70.5,94.64a10.86,10.86,0,0,0,1,1.43C72.46,96,73.46,95.83,74.42,95.79Z"/><g id="Groupe_593" data-name="Groupe 593"><path id="Tracé_4124" data-name="Tracé 4124" class="cls-30" d="M66.31,90.17c7.92.84,12.27.23,15.84-2.39,3.94-2.9,9.25-7.09,9.65-14a3.92,3.92,0,0,0-1.46-2.15c-1.19-.84-3.92-1.54-14.15,2.18C67.93,77,60.57,81.69,59.94,86.18c0,0,0,.33.06.87C60.7,88.35,62.39,89.75,66.31,90.17Z"/><g id="Groupe_590" data-name="Groupe 590"><path id="Tracé_4125" data-name="Tracé 4125" class="cls-31" d="M66.31,90.17c-3.92-.42-5.61-1.82-6.31-3.12a17.09,17.09,0,0,0,1.2,5.22c1.12,2.38,9.18,3.78,14.78,3a23.9,23.9,0,0,0,3.34-.81l-.17-5C76.07,90.62,72.17,90.79,66.31,90.17Z"/><path id="Tracé_4126" data-name="Tracé 4126" class="cls-32" d="M91.8,73.75c-.4,6.94-5.7,11.14-9.66,14a13,13,0,0,1-3,1.65l.17,5c2.79-.94,4.93-2.63,7.45-6.69,1.82-3.08,5.46-8.2,5.46-11.55A12.27,12.27,0,0,0,91.8,73.75Z"/></g><g id="Groupe_591" data-name="Groupe 591"><path id="Tracé_4127" data-name="Tracé 4127" class="cls-29" d="M65,80.25s-1,.88-1.46,1.38-.69,1,.08.66.73-.31.65.15.43.34.89.31.54.23.61.61,2.27,1.31,3,1.58,1.93.54,2.16,1.15.53.39,1,.46A10.57,10.57,0,0,1,74.48,88a3.11,3.11,0,0,0,2,.46,3.12,3.12,0,0,1,2,.38c.5.35.89.39,1.16.19s-.23-.61-1.23-.84-1-.12-1.15-.62-.31-.27-1-.38-.58-.16-.54-.77-.35-.73-1.31-.54-1,.42-2.15-.42A13.75,13.75,0,0,0,69,83.21c-1.23-.43-2.15-.39-2.19-1.08s-.19-.46-.76-.69-.47-.81-.35-1.19S65.41,79.91,65,80.25Z"/><path id="Tracé_4128" data-name="Tracé 4128" class="cls-29" d="M72.1,76.45s-1.16.42-.81.76,1.42,0,.85.58S71,79.21,72,79.25s1.19-.15,1.35.54.57.42,1.42.27,1.23-.12,1.27.69A1.27,1.27,0,0,0,77.31,82a1.12,1.12,0,0,0,.32,0c.77-.31.58-1.27-.19-1s-.34,0-.27-1-.42-1-1.27-1a13.82,13.82,0,0,0-2-.2c-.7.12-.46-.42-.31-1.27S73,76.41,72.1,76.45Z"/><path id="Tracé_4129" data-name="Tracé 4129" class="cls-29" d="M79.87,81.75s-.89.62-.7,1,1.39-.38,1.23.35,0,1.23.93,1.11a1.84,1.84,0,0,1,1.76.46,8.85,8.85,0,0,0,1.81.93s1.31-.69,1.12-1.27-.85-.77-1.39-1.15c-.84-.62-.93-.45-1.56-.32s-.8,0-.93-.72-.6-1-.94-.59-.16.63-.59.34S80.13,81.45,79.87,81.75Z"/><path id="Tracé_4130" data-name="Tracé 4130" class="cls-29" d="M89.17,78.73c-.28-.68-1.33.24-1.44-.93,0-.47-.1-.9-.56-1.1a6.17,6.17,0,0,0-1-.06c-.52-.1-1-.65-1.43-.94a1.29,1.29,0,0,0-.61-.19,2.27,2.27,0,0,1-1.77-.83c-.51-.46-2,.11-1.67-.91.48-1.54-1.86,0-2.24.3-.17.15-.14.46.1.26l.15-.12c0,.15,0,.29.1.32.48.13,1.15-.21,1.21.57,0,.17-.1.5,0,.64s.19.25.46.24a6.88,6.88,0,0,1,1.92.12c1,.24,2.12.27,2.81,1.05.26.29.46.63.72.92a4,4,0,0,1,.77,1.4,1.44,1.44,0,0,0,1.93.68,1.46,1.46,0,0,0,.41-.29A1.09,1.09,0,0,0,89.17,78.73Z"/><path id="Tracé_4131" data-name="Tracé 4131" class="cls-29" d="M89.91,73.38c-.63,0-.12-.66-.24-.87a.79.79,0,0,0-.53-.36c-.5-.18-.7-.37-1.12-.09a1.39,1.39,0,0,0-.78.52c-.31.43.29.55.58.55,1,0,.17,1.14.84,1.44a2.82,2.82,0,0,0,1.7,0C91.38,74.33,90.73,73.34,89.91,73.38Z"/></g><g id="Groupe_592" data-name="Groupe 592" class="cls-20"><path id="Tracé_4132" data-name="Tracé 4132" class="cls-29" d="M77.49,88.05a17.38,17.38,0,0,1-2.38-1c-.89-.45-1.81-.86-2.74-1.24a34.78,34.78,0,0,1-5.22-2.42c-.71-.44-1.34-1-2.05-1.41a4.92,4.92,0,0,1-1-.77l-.5.48c-.5.5-.69,1,.08.65s.73-.31.65.15.43.35.89.31.54.23.61.62,2.27,1.3,3,1.57,1.93.54,2.16,1.16.54.38,1,.46A10.33,10.33,0,0,1,74.48,88a3.05,3.05,0,0,0,2,.46,3.11,3.11,0,0,1,2,.39,1.12,1.12,0,0,0,1,.25A8.85,8.85,0,0,0,77.49,88.05Z"/><path id="Tracé_4133" data-name="Tracé 4133" class="cls-29" d="M71.43,76.79c-.17.13-.28.29-.14.42s.76.14.95.23A2.05,2.05,0,0,0,71.43,76.79Z"/><path id="Tracé_4134" data-name="Tracé 4134" class="cls-29" d="M77.9,81.56a4,4,0,0,1-.6-.57c-.36.09-.35,0-.27-.29A2.52,2.52,0,0,0,76.1,80c-.6-.21-1.26-.11-1.87-.32a2.45,2.45,0,0,1-1.6-1.44,2.41,2.41,0,0,0-.33-.73c0,.06,0,.14-.17.26-.57.62-1.11,1.42-.15,1.46s1.19-.15,1.34.54.58.42,1.43.27,1.23-.12,1.26.69A1.29,1.29,0,0,0,77.3,82a1.26,1.26,0,0,0,.33,0,.79.79,0,0,0,.41-.33Z"/><path id="Tracé_4135" data-name="Tracé 4135" class="cls-29" d="M82.42,83.34a20.55,20.55,0,0,0-2.66-1l-.44-.14c-.13.16-.22.34-.15.47.19.35,1.39-.38,1.23.35s0,1.23.92,1.11a1.85,1.85,0,0,1,1.77.46,8.85,8.85,0,0,0,1.81.93,4.51,4.51,0,0,0,.68-.46A29.57,29.57,0,0,0,82.42,83.34Z"/><path id="Tracé_4136" data-name="Tracé 4136" class="cls-29" d="M88.2,79.51c-.42-.43-.8-.88-1.24-1.3A9.17,9.17,0,0,0,85.28,77a13.69,13.69,0,0,0-2.22-1.14A17,17,0,0,1,81,75a19.07,19.07,0,0,0-1.57-1.09,2.19,2.19,0,0,0-.57-.16c-.15.1-.3.2-.45.32s-.14.46.1.26l.15-.12c0,.15,0,.29.1.32.48.13,1.15-.21,1.21.57,0,.17-.1.5,0,.64s.19.25.46.24a6.88,6.88,0,0,1,1.92.12c1,.24,2.12.27,2.81,1,.26.29.46.63.72.92a4,4,0,0,1,.77,1.4,1.5,1.5,0,0,0,2,.68l.13-.08A6.19,6.19,0,0,1,88.2,79.51Z"/><path id="Tracé_4137" data-name="Tracé 4137" class="cls-29" d="M87.43,72.38a1.8,1.8,0,0,0-.19.2c-.31.43.29.55.58.55,1,0,.18,1.14.85,1.44a2,2,0,0,0,.94.14C89,73.88,88.4,72.84,87.43,72.38Z"/></g><path id="Tracé_4138" data-name="Tracé 4138" class="cls-30" d="M76.27,74.74A57.81,57.81,0,0,0,66.2,79.48c-2.24,1.43-4.84,3.13-5,6.07,0,.2.3,0,.31-.16.63-3.1,3.42-4.42,5.91-5.9,2.76-1.64,5.93-2.45,8.77-3.95C76.47,75.4,76.83,74.52,76.27,74.74Z"/><path id="Tracé_4139" data-name="Tracé 4139" class="cls-30" d="M86.5,72.21a8.92,8.92,0,0,0-4.38.32A30.19,30.19,0,0,0,78,73.91c-.12,0-.5.45-.23.53a1.9,1.9,0,0,0,1.3-.2,14.2,14.2,0,0,1,2-.6c.81-.2,1.62-.34,2.43-.48s1.7.06,2.54-.12C86.28,73,87,72.35,86.5,72.21Z"/></g></g></g></g></g></g><g id="Gastronomie" class="cls-33"><text class="cls-34" transform="translate(5 32)">Ga<tspan class="cls-35" x="30.05" y="0">s</tspan><tspan x="40" y="0">t</tspan><tspan class="cls-36" x="47.61" y="0">r</tspan><tspan class="cls-37" x="56.19" y="0">onomie</tspan></text></g></g></svg>