<svg id="Calque_1" data-name="Calque 1" xmlns="http://www.w3.org/2000/svg" xmlns:xlink="http://www.w3.org/1999/xlink" viewBox="0 0 147 110"><defs><style>.cls-1{fill:none;}.cls-2{fill:#fff;}.cls-3{clip-path:url(#clip-path);}.cls-4{fill:#19160e;}.cls-5{fill:#ad915a;}.cls-6{fill:#3f3622;}.cls-7{fill:#e2c086;}.cls-8{fill:#0f161e;}.cls-9{fill:#141d28;}.cls-10{fill:#2b3b4c;}.cls-11{fill:#202d3f;}.cls-12{fill:#d9f3f9;}.cls-13{fill:#514a2d;}.cls-14{fill:#f99410;}.cls-15{clip-path:url(#clip-path-2);}.cls-16{fill:#ffb65f;}.cls-17{fill:#ffe1bd;}.cls-18{fill:#e2c342;}.cls-19{fill:#f9e385;}.cls-20{fill:#d6cd9d;}.cls-21{fill:#fff4c7;}.cls-22{fill:#85c2cc;}.cls-23{clip-path:url(#clip-path-3);}.cls-24{fill:#bfe3e8;}.cls-25{fill:#846538;}.cls-26{fill:#1d1d1b;}.cls-27{fill:#ff9c0d;}.cls-28{clip-path:url(#clip-path-4);}.cls-29{fill:#ffb24d;}.cls-30{fill:#dd820a;}.cls-31{fill:#ffdfb8;}.cls-32{fill:#729aa0;}.cls-33{fill:#1e2b2d;}.cls-34{fill:#ff6957;}.cls-35{clip-path:url(#clip-path-5);}.cls-36{fill:#ff9a92;}.cls-37{fill:#ffcdcc;}.cls-38{fill:#e5da15;}.cls-39{fill:#fff13e;}.cls-40{fill:#b7b17d;}.cls-41{fill:#f7f2ba;}.cls-42{fill:#a0d179;}.cls-43{fill:#c6eaa7;}.cls-44{fill:#6d9947;}.cls-45{fill:#ce7c45;}.cls-46{fill:#e79357;}.cls-47{fill:#ffcaa6;}.cls-48{fill:#9b4632;}.cls-49{clip-path:url(#clip-path-6);}.cls-50{fill:#3d1f15;}.cls-51{fill:#23110c;}.cls-52,.cls-53{isolation:isolate;}.cls-53{font-size:22px;font-family:SofiaProSemiBold, Sofia Pro;}.cls-54{letter-spacing:-0.01em;}</style><clipPath id="clip-path"><rect class="cls-1" width="147" height="110" rx="6"/></clipPath><clipPath id="clip-path-2"><path class="cls-1" d="M118.88,54.94c-3.89.27-8.33,1.13-10,2,0,0,1.62,5,2.46,5.52s16.31-1.5,17.5-2.34c0,0-3.36-5.63-4-5.93S120.44,54.82,118.88,54.94Z"/></clipPath><clipPath id="clip-path-3"><path class="cls-1" d="M144.29,70.24c-4.28.3-9.15,1.25-11,2.24,0,0,1.77,5.46,2.7,6s17.9-1.64,19.21-2.56c0,0-3.68-6.19-4.41-6.52S146,70.12,144.29,70.24Z"/></clipPath><clipPath id="clip-path-4"><path class="cls-1" d="M91.9,87.93a8.6,8.6,0,0,1,3.15-4.24,30.85,30.85,0,0,1,16.86-5c7.51.09,14.75,5,17.51,10.38s3.23,12.08,2.5,13.58-2.67,2.87-4.31,2.38-3.93-3.26-4.64-4.57-1.4-9.55-3.26-12-4.07-5.43-8.69-6.69a18.81,18.81,0,0,0-13.35,1.61C94.39,85.35,93,87.57,91.9,87.93Z"/></clipPath><clipPath id="clip-path-5"><path class="cls-1" d="M100.45,101.66a5.85,5.85,0,0,1,.73-1.73,3.9,3.9,0,0,1,1.32-1.2c1.94-1.47,4.24-2.27,6.57-1.26a8.53,8.53,0,0,1,3.16,2c.26.27.76.71.73,1.14s-.52.7-.84.94a16.91,16.91,0,0,1-5.51,3.12,12.7,12.7,0,0,1-5.25.79c-.84-.12-1-.37-1-1.21A10.38,10.38,0,0,1,100.45,101.66Z"/></clipPath><clipPath id="clip-path-6"><path class="cls-1" d="M42.25,93.05c-7.86,0-14.32,2.44-15.16,5.58,2.82,2,8.55,3.41,15.16,3.41s12.34-1.39,15.17-3.41C56.58,95.49,50.11,93.05,42.25,93.05Z"/></clipPath></defs><title>app-icon</title><g id="Groupe_1902" data-name="Groupe 1902"><rect id="Rectangle_16-4" data-name="Rectangle 16-4" class="cls-2" width="147" height="110" rx="6"/><g class="cls-3"><g id="Groupe_de_masques_12" data-name="Groupe de masques 12"><g id="Groupe_1705" data-name="Groupe 1705"><g id="Groupe_1696" data-name="Groupe 1696"><g id="Groupe_1694" data-name="Groupe 1694"><path id="Tracé_8545" data-name="Tracé 8545" class="cls-4" d="M67.53,54.78l.74-.28C72,61.74,78.41,74.4,85.7,88.66l-.56.37Z"/><path id="Tracé_8546" data-name="Tracé 8546" class="cls-5" d="M83.42,90.13C101.27,123.52,124,165.86,124,165.86s.36.28.57-.27L85.15,89l.55-.37c17.53,34.32,39.85,78,39.85,78-.54,1.81-1.77.67-1.77.67s-23.83-42.56-42.47-76C82,90.92,82.73,90.54,83.42,90.13Z"/><path id="Tracé_8547" data-name="Tracé 8547" class="cls-4" d="M65,48.06c0,.12,1.23,2.47,3.24,6.44l-.74.28-3-5.78c-1.16-2.39-3.87-1.76-2.27,1.52.15.31,1.15,2.19,2.79,5.27-.93.41-1.87.86-2.71,1.32-1.61-3-2.62-4.83-2.84-5.3C57.66,47.73,64,45.22,65,48.06Z"/><path id="Tracé_8548" data-name="Tracé 8548" class="cls-4" d="M65.08,55.79c3.66,6.89,10.54,19.76,18.33,34.34a23.54,23.54,0,0,1-2.1,1.13C73.24,76.78,66.15,64,62.37,57.1,63.21,56.65,64.15,56.2,65.08,55.79Z"/><path id="Tracé_8549" data-name="Tracé 8549" class="cls-6" d="M62.29,50.52c-1.6-3.28,1.11-3.91,2.27-1.52l3,5.78c-.74.29-1.58.63-2.45,1C63.44,52.72,62.44,50.83,62.29,50.52Z"/><path id="Tracé_8550" data-name="Tracé 8550" class="cls-7" d="M124.53,165.59c-.21.54-.57.28-.57.28s-22.69-42.35-40.54-75.74c.63-.38,1.23-.77,1.73-1.1Z"/><path id="Tracé_8551" data-name="Tracé 8551" class="cls-6" d="M83.41,90.13C75.62,75.55,68.74,62.68,65.08,55.79c.86-.38,1.72-.73,2.45-1L85.14,89C84.65,89.37,84.05,89.75,83.41,90.13Z"/></g><g id="Groupe_1695" data-name="Groupe 1695"><path id="Tracé_8552" data-name="Tracé 8552" class="cls-4" d="M61.19,68.21l.71-.35c4.29,6.92,11.8,19,20.27,32.57l-.52.42Z"/><path id="Tracé_8553" data-name="Tracé 8553" class="cls-5" d="M80,102.09c20.63,31.75,46.83,72,46.83,72s.38.23.54-.32L81.65,100.85l.52-.42c20.38,32.71,46.33,74.29,46.33,74.29-.39,1.86-1.71.82-1.71.82S99.43,135.16,78,103.39A22.24,22.24,0,0,0,80,102.09Z"/><path id="Tracé_8554" data-name="Tracé 8554" class="cls-4" d="M58.13,61.73c0,.11,1.43,2.36,3.77,6.14l-.71.34-3.45-5.5c-1.36-2.28-4-1.42-2.13,1.71.18.29,1.33,2.09,3.23,5-.89.49-1.79,1-2.59,1.55-1.86-2.81-3-4.59-3.28-5C50.76,62,56.9,59,58.13,61.73Z"/><path id="Tracé_8555" data-name="Tracé 8555" class="cls-4" d="M58.83,69.43C63.07,76,71,88.22,80,102.09a22.18,22.18,0,0,1-2,1.31C68.75,89.65,60.6,77.52,56.25,71,57.05,70.44,57.94,69.92,58.83,69.43Z"/><path id="Tracé_8556" data-name="Tracé 8556" class="cls-6" d="M55.61,64.42c-1.87-3.13.77-4,2.13-1.71l3.45,5.5c-.71.35-1.53.77-2.36,1.22C56.94,66.5,55.79,64.71,55.61,64.42Z"/><path id="Tracé_8557" data-name="Tracé 8557" class="cls-7" d="M127.39,173.79c-.16.55-.54.32-.54.32s-26.2-40.27-46.83-72c.6-.43,1.16-.87,1.63-1.24Z"/><path id="Tracé_8558" data-name="Tracé 8558" class="cls-6" d="M80,102.09C71,88.22,63.07,76,58.83,69.43c.83-.45,1.65-.87,2.36-1.22l20.46,32.64C81.18,101.22,80.62,101.66,80,102.09Z"/></g></g><g id="Groupe_1672" data-name="Groupe 1672"><g id="Groupe_1651" data-name="Groupe 1651"><path id="Tracé_8485" data-name="Tracé 8485" class="cls-8" d="M139.33,58.23s-1.4,14.15-1.72,17.67-1,9.43-1.28,10.87-4.08,4.56-5.67,5,1.3-19.44,1.91-24S135.85,59.27,139.33,58.23Z"/><g id="Groupe_1650" data-name="Groupe 1650"><path id="Tracé_8486" data-name="Tracé 8486" class="cls-9" d="M97.24,61.75s1,5.91,2.16,9.67,2.08,14.07,2.32,15.19,6.55,8.15,18.46,7.91,14.39-5.6,14.71-6a11.81,11.81,0,0,0,.4-5.84,12.34,12.34,0,0,1,.22-6.63c.66-1.84,1.22-6.08.74-8s.8-4.42.72-5.11a2.11,2.11,0,0,0-.7-1.2Z"/><path id="Tracé_8487" data-name="Tracé 8487" class="cls-10" d="M108.06,68.48c-1.06-.25-2,.27-3.07,0-.57-.14-1.93-1.15-2.52-.55-1,1,1.3,4.93,1.22,6.24s-.78,2.53-.8,3.85.79,2.23.9,3.44c.09,1-.23,2.16.2,3.07a18.27,18.27,0,0,0,1.53,2.6c.71,1,2.22,1.62,3.26,2.29a11.2,11.2,0,0,0,4.27,1.4c1.32.25,2.19.54,2.82-.76a5.05,5.05,0,0,0,.18-4.1c-.36-1.12-1.3-2.41-1.18-3.62s1.41-2.46,1.78-3.79a4.11,4.11,0,0,0-.1-2.87c-.45-1-1.29-1.85-1.16-3s.92-1.73-.41-2.3c-1-.44-2.27-.18-3.33-.48C110.41,69.54,109.31,68.79,108.06,68.48Z"/></g><path id="Tracé_8488" data-name="Tracé 8488" class="cls-11" d="M118.46,51.76c-7.5.88-21,4-21.22,9.71-.14,3.28,5.25,5,10.47,5.68,1.05.14,2.35.53,3.44.59,3,.18,4.81-.32,7.31-.51a59.69,59.69,0,0,0,12.93-2.33c4.42-1.43,7.87-3.57,7.94-6.66C139.45,52.24,124.3,51.07,118.46,51.76Z"/></g><g id="Groupe_1671" data-name="Groupe 1671"><g id="Groupe_1652" data-name="Groupe 1652"><path id="Tracé_8489" data-name="Tracé 8489" class="cls-12" d="M120.9,65.68s-1.56,2.3-4.44.5c0,0-3.63,2.25-5,.1,0,0-3,.8-4.28-.6,0,0-2.88,1.81-3.7-.49,0,0-2.55,1.07-3-.91,0,0-3.06.3-2.24-1.68,0,0-1.39-1.47.23-2.21a1.8,1.8,0,0,1,1.35-2.16l.25,0s.33-1.48,2.88-1.07c0,0,.17-1.81,2.39-1.57a3.61,3.61,0,0,1,4.36-1,2.91,2.91,0,0,1,3.79-.91s2.3-2.33,4.28-.38c0,0,2.3-2.19,4.61-.78a3.56,3.56,0,0,1,4.28.5s3.54-1.48,4.61.74c0,0,3.29-1.07,3.87,1.4,0,0,3-.16,2.72,2.14,0,0,2.27,1.44,0,2.33,0,0,.06,3.27-3.48,2.36,0,0-.58,3-3.95,1.4,0,0-.58,2.8-3.54,1.57,0,0-.83,1.81-3,.41C123.86,65.35,123,67.66,120.9,65.68Z"/><path id="Tracé_8490" data-name="Tracé 8490" class="cls-2" d="M118.76,64.63s-1.35,2-3.84.43c0,0-3.13,2-4.34.09,0,0-2.56.7-3.7-.51,0,0-2.49,1.56-3.2-.43,0,0-2.2.92-2.56-.78,0,0-2.64.25-1.94-1.46,0,0-1.51-1-.1-1.6a2.18,2.18,0,0,1,1.69-2.21s.28-1.28,2.49-.92c0,0,.14-1.57,2.06-1.36a3.13,3.13,0,0,1,3.77-.85,2.52,2.52,0,0,1,3.27-.78s2-2,3.7-.33c0,0,2-1.89,4-.67a3.07,3.07,0,0,1,3.7.43s3.06-1.28,4,.64c0,0,2.85-.93,3.35,1.21,0,0,2.63-.14,2.35,1.85,0,0,2,1.24,0,2,0,0,.05,2.83-3,2,0,0-.5,2.57-3.42,1.21,0,0-.5,2.42-3.06,1.36,0,0-.71,1.56-2.63.35C121.33,64.35,120.61,66.34,118.76,64.63Z"/></g><g id="Groupe_1657" data-name="Groupe 1657"><path id="Tracé_8491" data-name="Tracé 8491" class="cls-13" d="M124.94,55.19a2.92,2.92,0,0,1,1.8-.59c.84.12,1.84,1,1.44,1.64a2,2,0,0,1-2.84-.27A2.07,2.07,0,0,1,124.94,55.19Z"/><g id="Groupe_1654" data-name="Groupe 1654"><path id="Tracé_8492" data-name="Tracé 8492" class="cls-14" d="M118.88,54.94c-3.89.27-8.33,1.13-10,2,0,0,1.62,5,2.46,5.52s16.31-1.5,17.5-2.34c0,0-3.36-5.63-4-5.93S120.44,54.82,118.88,54.94Z"/><g class="cls-15"><g id="Groupe_1653" data-name="Groupe 1653"><path id="Tracé_8493" data-name="Tracé 8493" class="cls-16" d="M118,55.52c-3.23.23-6.91.95-8.3,1.69,0,0,1.34,4.13,2,4.57s13.52-1.24,14.52-1.93c0,0-2.78-4.68-3.33-4.93S119.29,55.43,118,55.52Z"/><path id="Tracé_8494" data-name="Tracé 8494" class="cls-17" d="M115.4,54.63s-.42,2.76-5.63,6.18c0,0-.48,1.21,1.38-.24s4-3.42,4.55-4.92S115.64,53.92,115.4,54.63Z"/><path id="Tracé_8495" data-name="Tracé 8495" class="cls-17" d="M120.68,53.8A20.72,20.72,0,0,1,111.75,63s-.6,1.43,1.2.5,8-6.46,8.66-9.33S120.68,53.8,120.68,53.8Z"/><path id="Tracé_8496" data-name="Tracé 8496" class="cls-17" d="M117.38,63s3.18-3.12,4.23-4.2a61.49,61.49,0,0,0,3.72-5.1c.27-.36.69-.42.57,0a31.34,31.34,0,0,1-3.84,5.57c-1.2,1.14-3.17,3.86-4.68,3.94S117.38,63,117.38,63Z"/><path id="Tracé_8497" data-name="Tracé 8497" class="cls-17" d="M122.9,62.28a28.73,28.73,0,0,0,4.26-5.55h1.31S125.54,61.23,122.9,62.28Z"/></g></g></g><g id="Groupe_1655" data-name="Groupe 1655"><path id="Tracé_8499" data-name="Tracé 8499" class="cls-18" d="M105.57,59.5c.6-.49,3.61-1.6,3.73-1.27s1.91,3.9,1.85,4.35-3.06,1.05-3.48.93S105.57,59.5,105.57,59.5Z"/><path id="Tracé_8500" data-name="Tracé 8500" class="cls-19" d="M105.69,59.67c.48-.38,2.86-1.26,3-1a27.3,27.3,0,0,1,1.46,3.44c0,.36-2.42.83-2.75.74S105.69,59.67,105.69,59.67Z"/></g><g id="Groupe_1656" data-name="Groupe 1656"><path id="Tracé_8501" data-name="Tracé 8501" class="cls-20" d="M132.17,58.23s-2.73-3-3.16-3a12,12,0,0,0-2.43,1.33s1.88,3.7,2.25,3.62A7.73,7.73,0,0,0,132.17,58.23Z"/><path id="Tracé_8502" data-name="Tracé 8502" class="cls-21" d="M131.56,58a17.85,17.85,0,0,0-2.47-2.37,9.5,9.5,0,0,0-1.9,1s1.47,2.89,1.76,2.83A6.17,6.17,0,0,0,131.56,58Z"/></g></g><g id="Groupe_1670" data-name="Groupe 1670"><g id="Groupe_1658" data-name="Groupe 1658"><path id="Tracé_8503" data-name="Tracé 8503" class="cls-22" d="M125.32,61.57s.06-.09.18-.24a1.84,1.84,0,0,1,.59-.48,2.15,2.15,0,0,1,1.93,0l-.21,0-.57.09A4.84,4.84,0,0,0,125.32,61.57Z"/></g><g id="Groupe_1659" data-name="Groupe 1659"><path id="Tracé_8504" data-name="Tracé 8504" class="cls-22" d="M116.61,63l0-.08a.56.56,0,0,1,.11-.2,2.09,2.09,0,0,1,.6-.51,3.82,3.82,0,0,1,.46-.21,1.23,1.23,0,0,1,.57,0,2.45,2.45,0,0,1,.93.42h-.22c-.14,0-.35,0-.59,0a1.86,1.86,0,0,0-.81.12c-.16.06-.34.11-.53.19A1.57,1.57,0,0,0,116.61,63Z"/></g><g id="Groupe_1660" data-name="Groupe 1660"><path id="Tracé_8505" data-name="Tracé 8505" class="cls-22" d="M132.68,57.58a2.33,2.33,0,0,0-.29,1.63.37.37,0,0,1-.15,0,.6.6,0,0,1-.25-.36,1,1,0,0,1,.06-.67A.93.93,0,0,1,132.68,57.58Z"/></g><g id="Groupe_1661" data-name="Groupe 1661"><path id="Tracé_8506" data-name="Tracé 8506" class="cls-22" d="M127.19,61.83a2,2,0,0,1,.06-.34,1.53,1.53,0,0,1,.5-.73,1.68,1.68,0,0,1,1.1-.37,1.43,1.43,0,0,1,1.05.45l-.24-.05a3.33,3.33,0,0,0-.63,0,2.88,2.88,0,0,0-.9.21A1.9,1.9,0,0,0,127.19,61.83Z"/></g><g id="Groupe_1662" data-name="Groupe 1662"><path id="Tracé_8507" data-name="Tracé 8507" class="cls-22" d="M106.1,63.81a.8.8,0,0,1,.27-.18,1.84,1.84,0,0,1,.77-.17,2.23,2.23,0,0,1,1,.18,1.37,1.37,0,0,1,.45.34.7.7,0,0,1,.15.52l-.13-.18a1.1,1.1,0,0,0-.46-.28,5,5,0,0,0-.85-.2A2.79,2.79,0,0,0,106.1,63.81Z"/></g><g id="Groupe_1663" data-name="Groupe 1663"><path id="Tracé_8508" data-name="Tracé 8508" class="cls-22" d="M105.05,58.73l.07,0a.62.62,0,0,1,.14.14,1.31,1.31,0,0,1,.27.6,1.64,1.64,0,0,1,0,.85,1,1,0,0,1-.26.4.49.49,0,0,1-.44.1l.15-.11a.77.77,0,0,0,.17-.38,5.08,5.08,0,0,0,.07-.67v-.45A1,1,0,0,0,105.05,58.73Z"/></g><g id="Groupe_1664" data-name="Groupe 1664"><path id="Tracé_8509" data-name="Tracé 8509" class="cls-22" d="M105.65,61.56h.17a1.09,1.09,0,0,1,.78.55.57.57,0,0,1,0,.58,2.91,2.91,0,0,0-.26-.33,3.15,3.15,0,0,1-.27-.31A6.26,6.26,0,0,0,105.65,61.56Z"/></g><g id="Groupe_1665" data-name="Groupe 1665"><path id="Tracé_8510" data-name="Tracé 8510" class="cls-22" d="M106.36,58.3l.29-.06.3-.09a2.09,2.09,0,0,0,.35-.13,1.9,1.9,0,0,0,1-1.32l.06.21,0,.26-.06.37a1.34,1.34,0,0,1-.71.73A1.88,1.88,0,0,1,106.36,58.3Z"/></g><g id="Groupe_1666" data-name="Groupe 1666"><path id="Tracé_8511" data-name="Tracé 8511" class="cls-22" d="M114.86,64l.06-.08.18-.23a2.48,2.48,0,0,1,.8-.6,1.94,1.94,0,0,1,1.34-.12,1.75,1.75,0,0,1,1,.85,1.48,1.48,0,0,1-.23-.14,3.31,3.31,0,0,0-.67-.29,2.16,2.16,0,0,0-1.07,0A3.69,3.69,0,0,0,114.86,64Z"/></g><g id="Groupe_1667" data-name="Groupe 1667"><path id="Tracé_8512" data-name="Tracé 8512" class="cls-22" d="M120.3,64.61a2.06,2.06,0,0,1,.61-1,.78.78,0,0,1,.22-.15,1.51,1.51,0,0,1,.26-.12l.3-.07h.3a1.59,1.59,0,0,1,.55.17,2.47,2.47,0,0,1,.41.33l-.23,0-.26-.05-.34,0-.4,0-.21,0a1.09,1.09,0,0,0-.23.09A3,3,0,0,0,120.3,64.61Z"/></g><g id="Groupe_1668" data-name="Groupe 1668"><path id="Tracé_8513" data-name="Tracé 8513" class="cls-22" d="M133.69,58.91a1.87,1.87,0,0,0-1,.39,1.39,1.39,0,0,0-.46.79,2.64,2.64,0,0,0,0,1,1.3,1.3,0,0,1-.41-.85,1.34,1.34,0,0,1,.42-1.07A1.38,1.38,0,0,1,133.69,58.91Z"/></g><g id="Groupe_1669" data-name="Groupe 1669"><path id="Tracé_8514" data-name="Tracé 8514" class="cls-22" d="M124.6,62.53l-.24-.09a1.08,1.08,0,0,0-.59.07,3.62,3.62,0,0,0-1.29,1,.67.67,0,0,1,0-.2,1.14,1.14,0,0,1,.24-.54,1.53,1.53,0,0,1,.74-.56,1.22,1.22,0,0,1,.6-.06A.77.77,0,0,1,124.6,62.53Z"/></g></g></g></g><g id="Groupe_1697" data-name="Groupe 1697"><g id="Groupe_1651-2" data-name="Groupe 1651-2"><g id="Groupe_1650-2" data-name="Groupe 1650-2"><path id="Tracé_8486-2" data-name="Tracé 8486-2" class="cls-9" d="M120.52,77.72s1.15,6.5,2.38,10.62,2.28,15.44,2.54,16.67,7.2,8.95,20.27,8.69,15.8-6.14,16.15-6.58a12.92,12.92,0,0,0,.44-6.41,13.54,13.54,0,0,1,.24-7.28c.72-2,1.34-6.67.81-8.78s.87-4.86.79-5.61a2.29,2.29,0,0,0-.77-1.32Z"/><path id="Tracé_8487-2" data-name="Tracé 8487-2" class="cls-10" d="M132.4,85.12c-1.16-.29-2.24.29-3.37,0-.62-.16-2.11-1.26-2.77-.61-1.1,1.1,1.43,5.42,1.35,6.85s-.86,2.78-.88,4.23.87,2.45,1,3.78c.1,1.1-.25,2.37.22,3.37a19.85,19.85,0,0,0,1.67,2.85c.79,1.08,2.44,1.78,3.58,2.51a12.64,12.64,0,0,0,4.7,1.54c1.44.28,2.4.59,3.1-.84a5.6,5.6,0,0,0,.19-4.5c-.4-1.23-1.43-2.64-1.29-4s1.55-2.7,2-4.16a4.53,4.53,0,0,0-.11-3.16c-.49-1.09-1.41-2-1.27-3.3s1-1.9-.45-2.53c-1.1-.47-2.5-.19-3.65-.52C135,86.28,133.78,85.45,132.4,85.12Z"/></g><path id="Tracé_8488-2" data-name="Tracé 8488-2" class="cls-11" d="M143.82,66.75c-8.23,1-23,4.35-23.3,10.67-.15,3.6,5.77,5.5,11.5,6.23,1.15.15,2.57.58,3.78.65,3.3.19,5.28-.36,8-.57A64.54,64.54,0,0,0,158,81.17c4.85-1.56,8.64-3.91,8.71-7.31C166.86,67.28,150.23,66,143.82,66.75Z"/></g><g id="Groupe_1671-2" data-name="Groupe 1671-2"><g id="Groupe_1652-2" data-name="Groupe 1652-2"><path id="Tracé_8489-2" data-name="Tracé 8489-2" class="cls-12" d="M146.5,82s-1.72,2.53-4.88.54c0,0-4,2.48-5.51.11,0,0-3.25.89-4.7-.65,0,0-3.16,2-4.07-.54,0,0-2.8,1.17-3.25-1,0,0-3.35.33-2.46-1.85,0,0-1.53-1.61.25-2.42a2,2,0,0,1,1.48-2.37,1.26,1.26,0,0,1,.28,0s.36-1.63,3.16-1.18c0,0,.18-2,2.62-1.72a4,4,0,0,1,4.79-1.08,3.2,3.2,0,0,1,4.16-1s2.53-2.56,4.7-.42c0,0,2.53-2.4,5.06-.86a3.91,3.91,0,0,1,4.7.55s3.88-1.62,5.06.82c0,0,3.61-1.18,4.25,1.53,0,0,3.34-.18,3,2.35,0,0,2.49,1.58,0,2.56,0,0,.06,3.59-3.83,2.6,0,0-.63,3.25-4.33,1.53,0,0-.64,3.07-3.89,1.72,0,0-.9,2-3.34.45C149.75,81.68,148.85,84.21,146.5,82Z"/><path id="Tracé_8490-2" data-name="Tracé 8490-2" class="cls-2" d="M144.16,80.89s-1.49,2.19-4.22.47c0,0-3.44,2.14-4.77.1,0,0-2.81.76-4.06-.57,0,0-2.73,1.72-3.51-.46,0,0-2.43,1-2.82-.86,0,0-2.9.27-2.12-1.6,0,0-1.66-1.06-.12-1.76a2.4,2.4,0,0,1,1.85-2.42s.32-1.41,2.74-1c0,0,.15-1.72,2.26-1.48a3.44,3.44,0,0,1,4.14-.94,2.77,2.77,0,0,1,3.59-.86s2.19-2.21,4.07-.36c0,0,2.18-2.08,4.37-.74a3.37,3.37,0,0,1,4.06.48s3.36-1.41,4.38.7c0,0,3.12-1,3.67,1.32,0,0,2.89-.15,2.58,2,0,0,2.15,1.36,0,2.2,0,0,0,3.11-3.3,2.25,0,0-.55,2.81-3.75,1.33,0,0-.55,2.65-3.36,1.48,0,0-.78,1.72-2.89.39C147,80.58,146.19,82.77,144.16,80.89Z"/></g><g id="Groupe_1657-2" data-name="Groupe 1657-2"><g id="Groupe_1654-2" data-name="Groupe 1654-2"><path id="Tracé_8492-2" data-name="Tracé 8492-2" class="cls-14" d="M144.29,70.24c-4.28.3-9.15,1.25-11,2.24,0,0,1.77,5.46,2.7,6s17.9-1.64,19.21-2.56c0,0-3.68-6.19-4.41-6.52S146,70.12,144.29,70.24Z"/><g class="cls-23"><g id="Groupe_1653-2" data-name="Groupe 1653-2"><path id="Tracé_8493-2" data-name="Tracé 8493-2" class="cls-16" d="M143.31,70.89c-3.54.25-7.58,1-9.11,1.85,0,0,1.47,4.53,2.24,5s14.84-1.36,15.93-2.13c0,0-3.05-5.13-3.65-5.4S144.73,70.79,143.31,70.89Z"/><path id="Tracé_8494-2" data-name="Tracé 8494-2" class="cls-17" d="M140.47,69.91s-.46,3-6.19,6.78c0,0-.52,1.34,1.52-.25s4.41-3.76,5-5.41S140.74,69.13,140.47,69.91Z"/><path id="Tracé_8495-2" data-name="Tracé 8495-2" class="cls-17" d="M146.26,69a22.64,22.64,0,0,1-9.81,10.07s-.65,1.58,1.32.55,8.75-7.1,9.51-10.24S146.26,69,146.26,69Z"/><path id="Tracé_8496-2" data-name="Tracé 8496-2" class="cls-17" d="M142.64,79.06s3.49-3.42,4.64-4.61a67.81,67.81,0,0,0,4.09-5.59c.29-.39.75-.46.62,0A33.81,33.81,0,0,1,147.77,75c-1.31,1.25-3.48,4.24-5.13,4.32S142.64,79.06,142.64,79.06Z"/></g></g></g><g id="Groupe_1655-2" data-name="Groupe 1655-2"><path id="Tracé_8499-2" data-name="Tracé 8499-2" class="cls-18" d="M129.68,75.25c.65-.53,4-1.76,4.09-1.39s2.09,4.28,2,4.77-3.36,1.16-3.82,1S129.68,75.25,129.68,75.25Z"/><path id="Tracé_8500-2" data-name="Tracé 8500-2" class="cls-19" d="M129.81,75.44c.52-.42,3.13-1.39,3.24-1.1a31.49,31.49,0,0,1,1.6,3.78c-.06.39-2.66.91-3,.81S129.81,75.44,129.81,75.44Z"/></g></g><g id="Groupe_1670-2" data-name="Groupe 1670-2"><g id="Groupe_1659-2" data-name="Groupe 1659-2"><path id="Tracé_8504-2" data-name="Tracé 8504-2" class="cls-22" d="M141.79,79.07l0-.09a.76.76,0,0,1,.13-.23,2.34,2.34,0,0,1,.66-.55,2.5,2.5,0,0,1,.5-.23,1.49,1.49,0,0,1,.63,0,2.84,2.84,0,0,1,1,.46l-.25,0c-.15,0-.38,0-.64-.06a2.05,2.05,0,0,0-.89.13c-.18.07-.38.13-.58.22A1.4,1.4,0,0,0,141.79,79.07Z"/></g><g id="Groupe_1662-2" data-name="Groupe 1662-2"><path id="Tracé_8507-2" data-name="Tracé 8507-2" class="cls-22" d="M130.25,80a1.21,1.21,0,0,1,.3-.2,2.19,2.19,0,0,1,.84-.19,2.51,2.51,0,0,1,1.12.2,1.26,1.26,0,0,1,.5.38.76.76,0,0,1,.17.56l-.15-.2a1.1,1.1,0,0,0-.51-.3,5.9,5.9,0,0,0-.92-.23A3.41,3.41,0,0,0,130.25,80Z"/></g><g id="Groupe_1663-2" data-name="Groupe 1663-2"><path id="Tracé_8508-2" data-name="Tracé 8508-2" class="cls-22" d="M129.11,74.4l.06,0a.61.61,0,0,1,.17.15,1.73,1.73,0,0,1,.29.65,1.88,1.88,0,0,1,0,.94,1,1,0,0,1-.29.44.55.55,0,0,1-.48.11,1,1,0,0,0,.16-.12.81.81,0,0,0,.19-.42,4.51,4.51,0,0,0,.07-.73,4,4,0,0,0,0-.49A1.14,1.14,0,0,0,129.11,74.4Z"/></g><g id="Groupe_1664-2" data-name="Groupe 1664-2"><path id="Tracé_8509-2" data-name="Tracé 8509-2" class="cls-22" d="M129.76,77.52H130a1.11,1.11,0,0,1,.43.15,1.14,1.14,0,0,1,.42.45.64.64,0,0,1,0,.63,2.54,2.54,0,0,0-.29-.36,3.94,3.94,0,0,1-.3-.34A4.42,4.42,0,0,0,129.76,77.52Z"/></g><g id="Groupe_1665-2" data-name="Groupe 1665-2"><path id="Tracé_8510-2" data-name="Tracé 8510-2" class="cls-22" d="M130.54,73.93l.32-.06.33-.09a2.26,2.26,0,0,0,.39-.15,2.1,2.1,0,0,0,1.11-1.45.86.86,0,0,1,.06.23.92.92,0,0,1,0,.29c0,.13,0,.26-.07.4a1.43,1.43,0,0,1-.78.8A2,2,0,0,1,130.54,73.93Z"/></g><g id="Groupe_1666-2" data-name="Groupe 1666-2"><path id="Tracé_8511-2" data-name="Tracé 8511-2" class="cls-22" d="M139.87,80.18l.07-.09a1.57,1.57,0,0,1,.2-.25,2.68,2.68,0,0,1,.87-.66,2.07,2.07,0,0,1,1.47-.12,1.84,1.84,0,0,1,1.1.93l-.26-.16a3.37,3.37,0,0,0-.73-.32,2.48,2.48,0,0,0-1.18,0A4.17,4.17,0,0,0,139.87,80.18Z"/></g><g id="Groupe_1667-2" data-name="Groupe 1667-2"><path id="Tracé_8512-2" data-name="Tracé 8512-2" class="cls-22" d="M145.84,80.86a2.5,2.5,0,0,1,.67-1.07,1.32,1.32,0,0,1,.25-.16,1.47,1.47,0,0,1,.28-.14l.32-.06a1.22,1.22,0,0,1,.33,0,1.6,1.6,0,0,1,.6.18,2.6,2.6,0,0,1,.46.36l-.26,0-.28-.06a2.6,2.6,0,0,1-.37,0l-.44,0-.23.06a1.06,1.06,0,0,0-.25.09A3.57,3.57,0,0,0,145.84,80.86Z"/></g></g></g></g><g id="Groupe_1649" data-name="Groupe 1649"><g id="Groupe_1609" data-name="Groupe 1609"><g id="Groupe_1606" data-name="Groupe 1606"><path id="Tracé_8416" data-name="Tracé 8416" class="cls-24" d="M100.47,81.46A6,6,0,0,1,104.18,80s2.35-1.25,3.49,0a2.5,2.5,0,0,1,2.75.07s2.44-1,3,.25c0,0,2-.3,2.19.77,0,0,2.37-.44,2.53.75,0,0,3,.26,3.08,1.74,0,0,2.49-.22,2.44,1.16,0,0,2.54.29,2.58,2,0,0,2.08.9,1.92,2.35,0,0,1.2.64.72,1.66,0,0,1.1,1.79.43,3.05,0,0,1.28.4.46,1.68,0,0,1.15,2.25.23,2.84a1.81,1.81,0,0,1,.23,2.55l-.06.07a1.73,1.73,0,0,1,.2,2.27,1.53,1.53,0,0,1-.41,1.93s.28,1.81-.93,2.37c0,0-.73,2.24-2.29,1.41a1.48,1.48,0,0,1-2,.42s-1.87,1.66-2.59.56c0,0-2,1.58-3.09.71,0,0-1.71.73-2.46-.06s3.54-6.61,3.77-8-2.24-13.77-6-16S98.79,82.49,100.47,81.46Z"/><g id="Groupe_1605" data-name="Groupe 1605"><path id="Tracé_8417" data-name="Tracé 8417" class="cls-25" d="M125.73,106.49c-.69-.39.17-2.85,1.6-2.07C128.35,105,126.14,106.73,125.73,106.49Z"/><path id="Tracé_8418" data-name="Tracé 8418" class="cls-25" d="M124.16,107.89c-.8,0,.07-2.19.7-2.15S125.39,107.9,124.16,107.89Z"/><path id="Tracé_8419" data-name="Tracé 8419" class="cls-26" d="M124.88,105.28c-.7,0-.27-2.41.82-2.39S125.59,105.25,124.88,105.28Z"/><path id="Tracé_8420" data-name="Tracé 8420" class="cls-25" d="M123.76,101.18c-.75-.08-.94,3.13.12,3.16S124.61,101.28,123.76,101.18Z"/><path id="Tracé_8421" data-name="Tracé 8421" class="cls-26" d="M122.76,106.64c-.5-.46.69-2.54,1.61-1.69C125,105.51,123.28,107.11,122.76,106.64Z"/><path id="Tracé_8422" data-name="Tracé 8422" class="cls-26" d="M125.81,107.75c-.34-.45,1.77-2,2.12-1.42S126.3,108.4,125.81,107.75Z"/><path id="Tracé_8423" data-name="Tracé 8423" class="cls-25" d="M124,109.45c-.42-.28.66-2,1.5-1.47S124.83,110,124,109.45Z"/><path id="Tracé_8424" data-name="Tracé 8424" class="cls-26" d="M122.09,109.78c-.56-.37.85-2,1.5-1.64S122.85,110.27,122.09,109.78Z"/><path id="Tracé_8425" data-name="Tracé 8425" class="cls-25" d="M128.07,108c-.31-.49-2.22.51-1.81,1.36S128.69,108.93,128.07,108Z"/><path id="Tracé_8426" data-name="Tracé 8426" class="cls-26" d="M128.63,103.93c-.7-.25-1.22,2.1-.44,2.22S129.54,104.25,128.63,103.93Z"/><path id="Tracé_8427" data-name="Tracé 8427" class="cls-26" d="M129.93,106.12c-.38-.61-2.19.83-1.66,1.61S130.37,106.82,129.93,106.12Z"/><path id="Tracé_8428" data-name="Tracé 8428" class="cls-25" d="M123.3,107.37c-.35-.49-1.78.11-1.69.82S123.84,108.11,123.3,107.37Z"/><path id="Tracé_8429" data-name="Tracé 8429" class="cls-25" d="M130.49,103.48c-.71-.09-1.66,1.77-.56,2C130.63,105.61,131.19,103.57,130.49,103.48Z"/></g></g><g id="Groupe_1608" data-name="Groupe 1608"><path id="Tracé_8430" data-name="Tracé 8430" class="cls-27" d="M91.9,87.93a8.6,8.6,0,0,1,3.15-4.24,30.85,30.85,0,0,1,16.86-5c7.51.09,14.75,5,17.51,10.38s3.23,12.08,2.5,13.58-2.67,2.87-4.31,2.38-3.93-3.26-4.64-4.57-1.4-9.55-3.26-12-4.07-5.43-8.69-6.69a18.81,18.81,0,0,0-13.35,1.61C94.39,85.35,93,87.57,91.9,87.93Z"/><g class="cls-28"><g id="Groupe_1607" data-name="Groupe 1607"><path id="Tracé_8431" data-name="Tracé 8431" class="cls-29" d="M106.35,79.5c2-1,8.53-.72,12.87,1.22s7.69,5.39,8.93,8.33-3,3.88-4.25,2c-1.72-2.52-6-8.86-9.11-10S105.42,80,106.35,79.5Z"/><path id="Tracé_8432" data-name="Tracé 8432" class="cls-30" d="M92.44,85.3s5.75-4.38,10.39-5,9.74.11,13.61,3.1a16.51,16.51,0,0,1,6.8,11.66c.34,4.55-.32,6.3,2.11,8.42s-2.07-.37-3.25-3.32-2.37-12-6-14.9-13.54-5.06-18.62-1S89.58,90.53,92.44,85.3Z"/><path id="Tracé_8433" data-name="Tracé 8433" class="cls-31" d="M132.79,102.79a6.69,6.69,0,0,1-3.6-1.92c-1.64-1.69-4-4.78-5.92-5.4a2.91,2.91,0,0,0-1.64.79,2.3,2.3,0,0,1,1.69,0c.81.39,3.8,2.53,4.56,4s2.55,3,4.21,3S132.79,102.79,132.79,102.79Z"/><path id="Tracé_8434" data-name="Tracé 8434" class="cls-31" d="M119.51,88.26s1.06-.79,1.36-.7a7.32,7.32,0,0,1,6.28,3.12c2.84,3.59,4.46,5.22,5.31,5.43s.29-.94-.1-1.19a37.81,37.81,0,0,1-4.19-4.39c-1.35-1.71-4.27-4.38-8-3.42a2.81,2.81,0,0,0-.9.78C118.83,88.43,119.51,88.26,119.51,88.26Z"/><path id="Tracé_8435" data-name="Tracé 8435" class="cls-31" d="M113.45,82.75a3.11,3.11,0,0,1,.39-.92c.25-.37,4.4-1.81,8.68.13s1.32-.15-.07-.72-6.94-1.68-9.1.37a6.75,6.75,0,0,0-.28,1.26C113,83.54,113.45,82.75,113.45,82.75Z"/><path id="Tracé_8436" data-name="Tracé 8436" class="cls-31" d="M110.49,78.75a36.82,36.82,0,0,0-6.56,1.47s-.83.75-.63,1.32c0,0-.6.39-.58.13s-.37-.94.11-1.34S107.66,77.75,110.49,78.75Z"/><path id="Tracé_8437" data-name="Tracé 8437" class="cls-31" d="M98.25,81.72s.06,1.27.17,1.93-1,0-.83-1.53S98.25,81.72,98.25,81.72Z"/></g></g></g></g><g id="Groupe_1640" data-name="Groupe 1640"><g id="Groupe_1610" data-name="Groupe 1610"><path id="Tracé_8439" data-name="Tracé 8439" class="cls-12" d="M91.13,109.6a1.16,1.16,0,0,1-1.63.05.41.41,0,0,1-.09-.1,2,2,0,0,1-.61-2.36,2,2,0,0,1-.47-2.77s-2.11-1.82.06-3.21c0,0-1.85-1.5-.08-2.86,0,0-1.22-1.84.2-2.54,0,0-.65-2,1-2.43a2.14,2.14,0,0,1,1.15-2.8l.09,0a1.5,1.5,0,0,1,.47-2.06,1.54,1.54,0,0,1,.54-.2,1.82,1.82,0,0,1,1.61-2h0a2.37,2.37,0,0,1,2.8-1.85h0a2.1,2.1,0,0,1,2.44-1.59,2.09,2.09,0,0,1,2.71-1.15l.11,0a2.68,2.68,0,0,1,3.44-.63s2.06-1.29,3.17.28c0,0,2.58-.63,3.12.93a2.38,2.38,0,0,1,3,1.28s1.88-.16,1.91,1.56a1.56,1.56,0,0,1,2,1,1.64,1.64,0,0,1,.07.66,2,2,0,0,1,1.63,2.31h0a1.58,1.58,0,0,1,1,2,1.43,1.43,0,0,1-.08.22s2,.39.73,2.51a1.74,1.74,0,0,1,.33,2.43l0,.07a1.86,1.86,0,0,1,.27,2.63,2.09,2.09,0,0,1-.2.22s1.21,2-.12,3.22a2,2,0,0,1-.1,2.76,2,2,0,0,1-.15,2.75,1.86,1.86,0,0,1-.28.21s-.13,2.42-2.92,2a2.41,2.41,0,0,1-2.84.88s-1.27,1.24-2.26.42a2.35,2.35,0,0,1-2.94-.2,2.31,2.31,0,0,1-3.09,0s-1.68,1.12-2.58-.06a2,2,0,0,1-2.76-.22l-.08-.11s-1.77,1.36-2.64,0c0,0-2.06,1.32-2.88-.21,0,0-1.83,1.3-2.37-.25C93.82,110.26,91.52,111.4,91.13,109.6Z"/><path id="Tracé_8440" data-name="Tracé 8440" class="cls-2" d="M92,108.34a1.07,1.07,0,0,1-1.52,0,.76.76,0,0,1-.09-.09,1.88,1.88,0,0,1-.57-2.19,1.89,1.89,0,0,1-.44-2.58s-2-1.7.06-3c0,0-1.72-1.4-.07-2.66,0,0-1.13-1.72.18-2.37,0,0-.6-1.81.91-2.26a2,2,0,0,1,1.06-2.63l.1,0a1.38,1.38,0,0,1,.43-1.91,1.39,1.39,0,0,1,.5-.19,1.72,1.72,0,0,1,1.5-1.9h.05a2.21,2.21,0,0,1,2.6-1.73h0A2,2,0,0,1,99,83.38a1.93,1.93,0,0,1,2.52-1.08l.11,0a2.49,2.49,0,0,1,3.21-.59s1.92-1.19,3,.26c0,0,2.4-.58,2.9.87a2.22,2.22,0,0,1,2.82,1.19s1.75-.15,1.78,1.45a1.46,1.46,0,0,1,1.9,1.54,1.85,1.85,0,0,1,1.52,2.15h0a1.47,1.47,0,0,1,1,1.86.7.7,0,0,1-.08.2s1.9.37.69,2.34a1.62,1.62,0,0,1,.3,2.27l0,.06a1.75,1.75,0,0,1,.27,2.45,2,2,0,0,1-.2.21s1.13,1.87-.11,3a1.84,1.84,0,0,1-.09,2.57,1.83,1.83,0,0,1-.14,2.57,2.48,2.48,0,0,1-.26.19s-.13,2.25-2.72,1.84a2.25,2.25,0,0,1-2.65.82s-1.18,1.15-2.1.39a2.2,2.2,0,0,1-2.74-.18,2.16,2.16,0,0,1-2.88,0s-1.56,1-2.41-.06a1.81,1.81,0,0,1-2.56-.21l-.08-.09s-1.65,1.27-2.46-.05c0,0-1.92,1.23-2.68-.19,0,0-1.71,1.21-2.21-.24C94.52,109,92.38,110,92,108.34Z"/><path id="Tracé_8441" data-name="Tracé 8441" class="cls-32" d="M116.27,97.19s-.47,2.13,1,2.8c0,0-.87,1-.28,1.84,0,0-1,.52-.92,1.42,0,0-1.71.49-1.4,2,0,0-1.88.16-1.59,1.8,0,0-1.77-.22-2.1,1.21,0,0-1.62-.15-1.93,1.2,0,0-1.72.15-1.92,1,0,0,0-1.17,1.65-1.38a1.71,1.71,0,0,1,1.93-1.23,1.83,1.83,0,0,1,1.87-1.25s0-1.88,1.56-1.82a1.49,1.49,0,0,1,1.27-1.67l.19,0a1.44,1.44,0,0,1,.89-1.44s-.74-1,.13-1.56A2.24,2.24,0,0,1,116.27,97.19Z"/></g><g id="Groupe_1639" data-name="Groupe 1639"><g id="Groupe_1611" data-name="Groupe 1611"><path id="Tracé_8442" data-name="Tracé 8442" class="cls-22" d="M115,106.78l.21-.06.55-.06a3.51,3.51,0,0,0,.65-.09,1.53,1.53,0,0,0,.58-.3.71.71,0,0,1-.37.49,1.33,1.33,0,0,1-.71.16A5.56,5.56,0,0,1,115,106.78Z"/></g><g id="Groupe_1612" data-name="Groupe 1612"><path id="Tracé_8443" data-name="Tracé 8443" class="cls-22" d="M116.26,106.68l.19.13a1.33,1.33,0,0,0,.52.17,1.13,1.13,0,0,0,.65-.11,1.19,1.19,0,0,0,.46-.51s0,.11,0,.17a.78.78,0,0,1-.21.47.94.94,0,0,1-.78.25A1,1,0,0,1,116.26,106.68Z"/></g><g id="Groupe_1613" data-name="Groupe 1613"><path id="Tracé_8444" data-name="Tracé 8444" class="cls-22" d="M113,108.68l.21.15a.94.94,0,0,0,.57.13,1.51,1.51,0,0,0,.7-.3,2.42,2.42,0,0,0,.54-.61,1,1,0,0,1-.26.69,1.25,1.25,0,0,1-.77.45.94.94,0,0,1-.57-.08A.92.92,0,0,1,113,108.68Z"/></g><g id="Groupe_1614" data-name="Groupe 1614"><path id="Tracé_8445" data-name="Tracé 8445" class="cls-22" d="M118.09,102.1a1.7,1.7,0,0,0,.32.1,1.67,1.67,0,0,0,.8,0,2,2,0,0,0,.9-.49,2.1,2.1,0,0,0,.57-.89,1,1,0,0,1,0,.25,1.44,1.44,0,0,1-.25.66,1.64,1.64,0,0,1-.93.66A1.53,1.53,0,0,1,118.09,102.1Z"/></g><g id="Groupe_1615" data-name="Groupe 1615"><path id="Tracé_8446" data-name="Tracé 8446" class="cls-22" d="M119.32,102.34l.15.1.18.08a.87.87,0,0,0,.22,0,1.32,1.32,0,0,0,1-.36.65.65,0,0,1,0,.13.67.67,0,0,1-.23.34.82.82,0,0,1-1.28-.34Z"/></g><g id="Groupe_1616" data-name="Groupe 1616"><path id="Tracé_8447" data-name="Tracé 8447" class="cls-22" d="M101.22,109l.21,0a1,1,0,0,0,.24,0,.82.82,0,0,0,.27,0,1.53,1.53,0,0,0,1-.84v.16a1.5,1.5,0,0,1,0,.2,2.72,2.72,0,0,1-.11.25,1.18,1.18,0,0,1-.23.27l-.18.11a1,1,0,0,1-.21.07A1.13,1.13,0,0,1,101.22,109Z"/></g><g id="Groupe_1617" data-name="Groupe 1617"><path id="Tracé_8448" data-name="Tracé 8448" class="cls-22" d="M102.64,108.89l.24,0a1.79,1.79,0,0,0,.56-.07,2.11,2.11,0,0,0,1.09-.91,1.1,1.1,0,0,1,0,.18,1.46,1.46,0,0,1-.05.2,2.1,2.1,0,0,1-.13.26,2.33,2.33,0,0,1-.26.28,1.18,1.18,0,0,1-.19.11.85.85,0,0,1-.22.09A1.3,1.3,0,0,1,102.64,108.89Z"/></g><g id="Groupe_1618" data-name="Groupe 1618"><path id="Tracé_8449" data-name="Tracé 8449" class="cls-22" d="M107.1,107.52h.2a1.64,1.64,0,0,0,.44-.09,3.87,3.87,0,0,0,1-.67.7.7,0,0,1,0,.14,1.07,1.07,0,0,1-.2.36,1.06,1.06,0,0,1-1.39.26Z"/></g><g id="Groupe_1619" data-name="Groupe 1619"><path id="Tracé_8450" data-name="Tracé 8450" class="cls-22" d="M97.26,109.32a1.22,1.22,0,0,1,0-.27,1.39,1.39,0,0,1,.27-.62,1.21,1.21,0,0,1,.75-.51.83.83,0,0,1,.82.36,1.18,1.18,0,0,0-.64-.12,1.16,1.16,0,0,0-.62.32A1.85,1.85,0,0,0,97.26,109.32Z"/></g><g id="Groupe_1620" data-name="Groupe 1620"><path id="Tracé_8451" data-name="Tracé 8451" class="cls-22" d="M92.08,106.61l.08,0,.22,0a2.62,2.62,0,0,0,.74,0,2,2,0,0,0,1.6-.87.78.78,0,0,1,0,.22,1.14,1.14,0,0,1-.38.54,1.74,1.74,0,0,1-1,.36A2,2,0,0,1,92.08,106.61Z"/></g><g id="Groupe_1621" data-name="Groupe 1621"><path id="Tracé_8452" data-name="Tracé 8452" class="cls-22" d="M93.92,106.62l0,0,.15,0a2.11,2.11,0,0,0,.49.09,1.57,1.57,0,0,0,.61-.1,1.52,1.52,0,0,0,.52-.38.75.75,0,0,1-.29.54,1,1,0,0,1-.71.21A1.26,1.26,0,0,1,93.92,106.62Z"/></g><g id="Groupe_1622" data-name="Groupe 1622"><path id="Tracé_8453" data-name="Tracé 8453" class="cls-22" d="M91.43,108.27l.17.12a1,1,0,0,0,.46.12,1.72,1.72,0,0,0,1.15-.45.73.73,0,0,1-.33.5,1.07,1.07,0,0,1-.69.22A.87.87,0,0,1,91.43,108.27Z"/></g><g id="Groupe_1623" data-name="Groupe 1623"><path id="Tracé_8454" data-name="Tracé 8454" class="cls-22" d="M90.91,101.73l.21.07a1.52,1.52,0,0,0,.52,0,1.87,1.87,0,0,0,1.13-.71l0,.16a.73.73,0,0,1-.07.19c0,.08-.1.16-.15.24a1.16,1.16,0,0,1-.69.36A1.06,1.06,0,0,1,90.91,101.73Z"/></g><g id="Groupe_1624" data-name="Groupe 1624"><path id="Tracé_8455" data-name="Tracé 8455" class="cls-22" d="M89.57,101.39l.22.08a1.18,1.18,0,0,0,.56,0,1.72,1.72,0,0,0,1.17-.84.85.85,0,0,1-.23.66,1.2,1.2,0,0,1-.72.41A1,1,0,0,1,89.57,101.39Z"/></g><g id="Groupe_1625" data-name="Groupe 1625"><path id="Tracé_8456" data-name="Tracé 8456" class="cls-22" d="M90.87,95.37l.25,0a3,3,0,0,0,.6,0,1.19,1.19,0,0,0,.68-.21,1.54,1.54,0,0,0,.43-.61,1.1,1.1,0,0,1,0,.18.87.87,0,0,1-.17.51.92.92,0,0,1-.78.38A1.69,1.69,0,0,1,90.87,95.37Z"/></g><g id="Groupe_1626" data-name="Groupe 1626"><path id="Tracé_8457" data-name="Tracé 8457" class="cls-22" d="M91.89,94.65l.19,0c.12,0,.29,0,.47-.07a1.5,1.5,0,0,0,1-.55.71.71,0,0,1,0,.14,1.09,1.09,0,0,1-.05.17c0,.07-.09.14-.14.21a1,1,0,0,1-.61.27A1.67,1.67,0,0,1,91.89,94.65Z"/></g><g id="Groupe_1627" data-name="Groupe 1627"><path id="Tracé_8458" data-name="Tracé 8458" class="cls-22" d="M91.07,91.48V91.4a1.23,1.23,0,0,1,0-.2,1.35,1.35,0,0,1,.31-.66,1.45,1.45,0,0,1,.85-.45,1.56,1.56,0,0,1,.92.16H93a4.52,4.52,0,0,0-.53.06,2.11,2.11,0,0,0-.73.29A1.69,1.69,0,0,0,91.07,91.48Z"/></g><g id="Groupe_1628" data-name="Groupe 1628"><path id="Tracé_8459" data-name="Tracé 8459" class="cls-22" d="M92,89.74a.64.64,0,0,1,0-.2.63.63,0,0,1,.24-.49,1.2,1.2,0,0,1,.63-.25,1.77,1.77,0,0,1,.65,0l-.13.07L93,89a3.54,3.54,0,0,0-.54.16A.69.69,0,0,0,92,89.74Z"/></g><g id="Groupe_1629" data-name="Groupe 1629"><path id="Tracé_8460" data-name="Tracé 8460" class="cls-22" d="M88.49,99.37s0-.06,0-.17a.75.75,0,0,1,.25-.38.93.93,0,0,1,1.09,0l-.12,0-.31,0A3.13,3.13,0,0,0,89,99,.87.87,0,0,0,88.49,99.37Z"/></g><g id="Groupe_1630" data-name="Groupe 1630"><path id="Tracé_8461" data-name="Tracé 8461" class="cls-22" d="M100.41,85.06a.93.93,0,0,1,0-.23.75.75,0,0,1,.25-.56,1.62,1.62,0,0,1,1.44-.3l-.16.06-.41.13a4,4,0,0,0-.6.24A.8.8,0,0,0,100.41,85.06Z"/></g><g id="Groupe_1631" data-name="Groupe 1631"><path id="Tracé_8462" data-name="Tracé 8462" class="cls-22" d="M107.62,85.21l.22.07a1,1,0,0,0,.53,0,3.06,3.06,0,0,0,1.15-.86,1,1,0,0,1,0,.17,1.49,1.49,0,0,1-.23.43,1.3,1.3,0,0,1-.65.46,1,1,0,0,1-.52,0A.93.93,0,0,1,107.62,85.21Z"/></g><g id="Groupe_1632" data-name="Groupe 1632"><path id="Tracé_8463" data-name="Tracé 8463" class="cls-22" d="M108.84,84.13l.08,0,.2,0a1.52,1.52,0,0,0,.67,0,1.56,1.56,0,0,0,.74-.39c.24-.21.45-.44.66-.66a1.18,1.18,0,0,1-.07.2,2,2,0,0,1-.29.52,1.48,1.48,0,0,1-.8.54A1.4,1.4,0,0,1,108.84,84.13Z"/></g><g id="Groupe_1633" data-name="Groupe 1633"><path id="Tracé_8464" data-name="Tracé 8464" class="cls-22" d="M111.67,87.08a1.12,1.12,0,0,0,.22,0,2.36,2.36,0,0,0,.53,0,1.59,1.59,0,0,0,.6-.21,1.62,1.62,0,0,0,.45-.49.74.74,0,0,1-.19.6,1.06,1.06,0,0,1-.67.34A1.43,1.43,0,0,1,111.67,87.08Z"/></g><g id="Groupe_1634" data-name="Groupe 1634"><path id="Tracé_8465" data-name="Tracé 8465" class="cls-22" d="M114.67,87.22l.07,0,.19,0a2.65,2.65,0,0,0,.63,0,2.23,2.23,0,0,0,.75-.26,2.29,2.29,0,0,0,.6-.56,1,1,0,0,1-.33.67,1.36,1.36,0,0,1-.81.38A1.5,1.5,0,0,1,114.67,87.22Z"/></g><g id="Groupe_1635" data-name="Groupe 1635"><path id="Tracé_8466" data-name="Tracé 8466" class="cls-22" d="M116,89.17l.21.07a1,1,0,0,0,.25.05.93.93,0,0,0,.29,0,1.68,1.68,0,0,0,1.16-.69l0,.17a1.46,1.46,0,0,1-.07.19c0,.07-.1.15-.16.24a1.11,1.11,0,0,1-.73.34A1.15,1.15,0,0,1,116,89.17Z"/></g><g id="Groupe_1636" data-name="Groupe 1636"><path id="Tracé_8467" data-name="Tracé 8467" class="cls-22" d="M114.81,90.08l.06,0,.17.09a1.23,1.23,0,0,0,.62.14,1.2,1.2,0,0,0,.72-.28,2.1,2.1,0,0,0,.5-.68,1.08,1.08,0,0,1-.21.74,1.1,1.1,0,0,1-.81.47A1.16,1.16,0,0,1,114.81,90.08Z"/></g><g id="Groupe_1637" data-name="Groupe 1637"><path id="Tracé_8468" data-name="Tracé 8468" class="cls-22" d="M117,93.32l.1,0a.75.75,0,0,0,.26,0,1,1,0,0,0,.75-.34,1.12,1.12,0,0,0,.18-.2,2.54,2.54,0,0,0,.2-.23l.09-.12,0,0,0,0,.07,0,.18.07.28.07a1.71,1.71,0,0,0,1.11-.17l0,0a.93.93,0,0,1-.14.14,1.3,1.3,0,0,1-.73.26,1.57,1.57,0,0,1-.57-.07l-.11,0a2.52,2.52,0,0,1-.21.25,1.57,1.57,0,0,1-.66.41A1,1,0,0,1,117,93.32Z"/></g><g id="Groupe_1638" data-name="Groupe 1638"><path id="Tracé_8469" data-name="Tracé 8469" class="cls-22" d="M119.58,92.88l.1.07.25.13a1.19,1.19,0,0,0,.32.1,1.49,1.49,0,0,0,.36,0l-.06.08a.44.44,0,0,1-.25.14.6.6,0,0,1-.43-.1A.64.64,0,0,1,119.58,92.88Z"/></g></g></g><g id="Groupe_1648" data-name="Groupe 1648"><path id="Tracé_8470" data-name="Tracé 8470" class="cls-33" d="M105.48,106.43s1.09-1.58,2.48-.79a1.42,1.42,0,0,1,1.68-1.1,1.31,1.31,0,0,1,.35.12s.81-2,2.29-1.4c0,0,.13-2.42,2.24-1.92,0,0,.14-1.67,1.28-1.71,0,0-1.2-2,.27-2.78,0,0-1.6-2-.47-2.82,0,0-2.15-1-1.72-2.66,0,0-1.69-.31-1.46-1.65,0,0-2.12,0-2.11-1.19,0,0-1.31.06-1.24-1.09,0,0-2,.46-2.29-.6,0,0-1.5,1.21-2.25.19,0,0-1.47,1.1-2.3.2,0,0-.77,1.68-2,.64,0,0-.61,2.28-2.18,1.33,0,0-.23,2-1.79,1.7,0,0,.27,1.81-1.33,1.89,0,0,.58,2-1.11,2.39a1,1,0,0,1,.37,1.38.93.93,0,0,1-.22.27,1.16,1.16,0,0,1-.35,1.93s1.34,1,.17,1.94c0,0,1.42.56.81,1.41,0,0,2.08.91,1.62,2.21a1,1,0,0,1,.81,1.2v0a1.29,1.29,0,0,1,1.82.07,1.19,1.19,0,0,1,.22.33s1.38-.64,1.85.12a1.65,1.65,0,0,1,2.3.39l.09.15S104.41,105.09,105.48,106.43Z"/><g id="Groupe_1642" data-name="Groupe 1642"><path id="Tracé_8471" data-name="Tracé 8471" class="cls-34" d="M100.45,101.66a5.85,5.85,0,0,1,.73-1.73,3.9,3.9,0,0,1,1.32-1.2c1.94-1.47,4.24-2.27,6.57-1.26a8.53,8.53,0,0,1,3.16,2c.26.27.76.71.73,1.14s-.52.7-.84.94a16.91,16.91,0,0,1-5.51,3.12,12.7,12.7,0,0,1-5.25.79c-.84-.12-1-.37-1-1.21A10.38,10.38,0,0,1,100.45,101.66Z"/><g class="cls-35"><g id="Groupe_1641" data-name="Groupe 1641"><path id="Tracé_8472" data-name="Tracé 8472" class="cls-36" d="M100.85,101.34a5.23,5.23,0,0,1,.6-1.42,3.23,3.23,0,0,1,1.09-1c1.6-1.22,3.49-1.87,5.41-1a6.94,6.94,0,0,1,2.6,1.61c.22.23.63.59.61.94s-.43.58-.69.78a14.19,14.19,0,0,1-4.54,2.57,10.48,10.48,0,0,1-4.33.65c-.69-.1-.82-.31-.86-1A7.84,7.84,0,0,1,100.85,101.34Z"/><path id="Tracé_8473" data-name="Tracé 8473" class="cls-37" d="M99.83,101.67s3.46-1.48,7,2.89c0,0-.41.94-.72.62s-1.81-5.46-6.35-2C99.76,103.21,99,102.29,99.83,101.67Z"/><path id="Tracé_8474" data-name="Tracé 8474" class="cls-37" d="M101.78,98.59c.61.41,5.81,1.47,6.87,5.45l.3-.4s-.37-3.92-6.61-5.53C102.34,98.11,100.69,97.85,101.78,98.59Z"/><path id="Tracé_8475" data-name="Tracé 8475" class="cls-37" d="M107.37,97c.09,0,3.44,2.62,3.71,5.33s.39-.15.37-.27c-.27-1.71-1.77-4.92-3.85-5.75S106.94,96.83,107.37,97Z"/></g></g></g><g id="Groupe_1643" data-name="Groupe 1643"><path id="Tracé_8477" data-name="Tracé 8477" class="cls-38" d="M101.05,98.65a2,2,0,0,0,.71-.22c1.17-.56,2.84-2.05,2.91-2.55s-4.44-5.94-5-5.95-4,2.88-4.07,4S100.25,98.68,101.05,98.65Z"/><path id="Tracé_8478" data-name="Tracé 8478" class="cls-39" d="M100.06,97.11a1.36,1.36,0,0,0,.53-.16A5.47,5.47,0,0,0,102.78,95c.07-.46-3.33-4.46-3.76-4.47s-3,2.16-3,3S99.46,97.14,100.06,97.11Z"/></g><g id="Groupe_1644" data-name="Groupe 1644"><path id="Tracé_8479" data-name="Tracé 8479" class="cls-40" d="M95.15,97.35c1-1.38,2.85-.24,4.22,1.36,1.1,1.29.46,5.28-1.28,5.44C96.78,104.26,93.47,99.77,95.15,97.35Z"/><path id="Tracé_8480" data-name="Tracé 8480" class="cls-41" d="M95.26,97.71c.75-1.08,2.2-.2,3.27,1.05.85,1,.35,4.1-1,4.22C96.52,103.07,94,99.58,95.26,97.71Z"/></g><g id="Groupe_1647" data-name="Groupe 1647"><path id="Tracé_8481" data-name="Tracé 8481" class="cls-42" d="M102.9,92.51a14.52,14.52,0,0,0,2,2.19,5.51,5.51,0,0,0,1.38.62c.56.22.83.71,1.43.77a6,6,0,0,1,1.47.1c.43.14.65.5,1,.71s.88-.08,1.42.07.83.46,1.31.57a1.38,1.38,0,0,0,1.67-1,1.56,1.56,0,0,0,0-.53,4.91,4.91,0,0,0-1.38-2.63c-.74-.82-1.31-1.7-2-2.57a11.54,11.54,0,0,0-2.59-2.24,5.59,5.59,0,0,0-3.07-.48c-1,0-2,.06-2.92,0-.78,0-1.77.31-1.8,1.25S102.29,91.78,102.9,92.51Z"/><path id="Tracé_8482" data-name="Tracé 8482" class="cls-43" d="M103.64,92.23A12.26,12.26,0,0,0,105.22,94a4.82,4.82,0,0,0,1.09.48c.43.18.65.56,1.12.61a5.56,5.56,0,0,1,1.15.07c.33.12.51.4.81.56s.69-.06,1.12.06.65.36,1,.44a1.08,1.08,0,0,0,1.31-.77.9.9,0,0,0,0-.43,3.89,3.89,0,0,0-1.08-2.06c-.58-.64-1-1.33-1.58-2a8.9,8.9,0,0,0-2-1.75,4.35,4.35,0,0,0-2.41-.37c-.77,0-1.53,0-2.29,0-.6,0-1.38.24-1.4,1S103.16,91.65,103.64,92.23Z"/><g id="Groupe_1645" data-name="Groupe 1645"><path id="Tracé_8483" data-name="Tracé 8483" class="cls-44" d="M107.45,89.51l-.22,0-.26,0-.34,0c-.26,0-.57,0-.91,0s-.72-.07-1.12-.07a4.15,4.15,0,0,0-.61,0,1.21,1.21,0,0,0-.56.16.27.27,0,0,0-.13.18.57.57,0,0,0,0,.26,2.05,2.05,0,0,0,.31.56,14.29,14.29,0,0,0,1.81,1.92l-.47-.32a8.35,8.35,0,0,1-1.24-1.07,2.77,2.77,0,0,1-.68-1,.91.91,0,0,1,0-.4.6.6,0,0,1,.26-.36,1.57,1.57,0,0,1,.76-.2,7.29,7.29,0,0,1,1.62.14A7.23,7.23,0,0,0,107.45,89.51Z"/></g><g id="Groupe_1646" data-name="Groupe 1646"><path id="Tracé_8484" data-name="Tracé 8484" class="cls-44" d="M106,93.31l.41.26.49.27c.2.11.43.21.69.32a17.48,17.48,0,0,0,1.88.67L110,95c.2.07.39.14.59.19a1.1,1.1,0,0,0,.57,0c.13,0,.15-.23.09-.43a5.05,5.05,0,0,0-1.66-2.19,8.12,8.12,0,0,0-1.24-.79l-.34-.17a3.84,3.84,0,0,1-.35-.18l-.68-.35c-.22-.12-.45-.23-.68-.33a2.79,2.79,0,0,0-.7-.19c-.22,0-.34.11-.26.31a1.81,1.81,0,0,0,.41.57,3.17,3.17,0,0,0,.56.47l.29.2c.11.06.22.1.32.16a4.5,4.5,0,0,0,1.35.36l-.32,0a4.18,4.18,0,0,1-.92-.19l-.31-.12-.17-.07-.16-.1-.34-.21-.35-.28-.34-.34a1.16,1.16,0,0,1-.26-.49.43.43,0,0,1,0-.16.42.42,0,0,1,.09-.16.47.47,0,0,1,.3-.16,1.56,1.56,0,0,1,.61.09,20.73,20.73,0,0,1,2.39,1.11,6.74,6.74,0,0,1,2.42,2c.08.11.16.24.23.36s.14.26.21.39a2.19,2.19,0,0,1,.15.43.59.59,0,0,1-.06.52.38.38,0,0,1-.25.16.83.83,0,0,1-.27,0,2.66,2.66,0,0,1-.47-.11,3.89,3.89,0,0,1-.44-.16l-.44-.15A12.65,12.65,0,0,1,106,93.31Z"/></g></g></g></g><g id="Groupe_1704" data-name="Groupe 1704"><g id="Groupe_1701" data-name="Groupe 1701"><g id="Groupe_1698" data-name="Groupe 1698"><path id="Tracé_8559" data-name="Tracé 8559" class="cls-45" d="M42,106.72c-4,0-7.54.41-7.71,2.43-.23,2.87,15.19,2.92,15.2.18C49.47,106.34,44,106.73,42,106.72Z"/><path id="Tracé_8560" data-name="Tracé 8560" class="cls-46" d="M36.85,110.23c-2.54-.75-2-2.07-1.33-2.07s5,1.15,7.56.87,2.86,1.14.46,1.72A14.32,14.32,0,0,1,36.85,110.23Z"/></g><g id="Groupe_1700" data-name="Groupe 1700"><path id="Tracé_8561" data-name="Tracé 8561" class="cls-46" d="M23,95.77c.26,4.37,7.63,9.86,12.61,11.72,12.84,4.78,25.78-8,25.88-11.56.09-3.39-6-5.81-19.46-5.05S22.85,93.15,23,95.77Z"/><g id="Groupe_1699" data-name="Groupe 1699"><ellipse id="Ellipse_39" data-name="Ellipse 39" class="cls-47" cx="42.25" cy="95.77" rx="19.24" ry="7.08"/><path id="Tracé_8562" data-name="Tracé 8562" class="cls-46" d="M59.29,95.77c0-3.46-7.63-6.27-17-6.27s-17,2.81-17,6.27a3.69,3.69,0,0,0,1.87,2.85c.84-3.13,7.31-5.57,15.16-5.57s14.33,2.44,15.17,5.57A3.72,3.72,0,0,0,59.29,95.77Z"/></g></g></g><g id="Groupe_1703" data-name="Groupe 1703"><path id="Tracé_8563" data-name="Tracé 8563" class="cls-48" d="M42.25,93.05c-7.86,0-14.32,2.44-15.16,5.58,2.82,2,8.55,3.41,15.16,3.41s12.34-1.39,15.17-3.41C56.58,95.49,50.11,93.05,42.25,93.05Z"/><g class="cls-49"><g id="Groupe_1702" data-name="Groupe 1702"><path id="Tracé_8564" data-name="Tracé 8564" class="cls-50" d="M29.37,100.45s-.61-3.22,1-4.18,4-1.13,5.77-1.48,3.55-1.13,6.77-1.13,3.57.87,5.09,1,4.74.52,6.3,1.74,3.94,2.61-.68,4S37.47,104.71,29.37,100.45Z"/><path id="Tracé_8565" data-name="Tracé 8565" class="cls-51" d="M41.07,102.73c-4,0-8.62-1.9-8.75-2.93s1.24-2,5.09-2.85,9.88-.18,12.28.46,5.06,1.43,3.76,3.36S47.68,102.73,41.07,102.73Z"/><path id="Tracé_8566" data-name="Tracé 8566" class="cls-48" d="M35.67,96.89c-2.42.15-3.21-2.08.1-2.17C40.25,94.6,40.61,96.6,35.67,96.89Z"/><path id="Tracé_8567" data-name="Tracé 8567" class="cls-48" d="M47.27,94.56c-3,.4-3.1,1.32-.4,1.21S49,94.33,47.27,94.56Z"/><path id="Tracé_8568" data-name="Tracé 8568" class="cls-48" d="M32.89,97.37c-1.94.32-1.78-1,0-1S35,97,32.89,97.37Z"/></g></g></g></g></g></g></g><g id="Japonais" class="cls-52"><text class="cls-53" transform="translate(12 32)"><tspan class="cls-54">J</tspan><tspan x="6.53" y="0">aponais</tspan></text></g></g></svg>