<svg id="Calque_1" data-name="Calque 1" xmlns="http://www.w3.org/2000/svg" viewBox="0 0 138.12 132"><defs><style>.cls-1{fill:#fff;}.cls-2,.cls-3,.cls-5,.cls-6{isolation:isolate;}.cls-3{font-size:16px;fill:#2b2b2b;font-family:SofiaPro-Bold, Sofia Pro;font-weight:700;}.cls-4{fill:#fbb03b;}.cls-5{fill:#fcee21;}.cls-5,.cls-6{opacity:0.5;}.cls-6{fill:#ed861f;}</style></defs><title>app-icon</title><g id="Groupe_1890" data-name="Groupe 1890"><rect id="Rectangle_49-2" data-name="Rectangle 49-2" class="cls-1" x="0.12" width="138" height="132" rx="6"/><g id="plus_de" data-name="plus de" class="cls-2"><text class="cls-3" transform="translate(42.9 90)">plus de </text><text class="cls-3" transform="translate(52.39 109)">30 €</text></g><g id="Groupe_1723" data-name="Groupe 1723"><g id="Groupe_1720" data-name="Groupe 1720"><path id="Tracé_8591" data-name="Tracé 8591" class="cls-4" d="M46.47,48.87c1.08-3.18,2.39-6.45,2.62-7.33s1.14-1.42,2.19-2.27,19.21-15.2,22-17.39,3-2.42,5.94-.6,5.88,3.61,7.39,4.43,1.82.82,3.15,3.84,1.51,3.83,1.88,4.51,1.14,2-1,3.7S67.45,58.85,65.86,60.35s-3.1,2-5.66.54-10.63-7.22-11.82-8S45.39,52.05,46.47,48.87Z"/><path id="Tracé_8592" data-name="Tracé 8592" class="cls-5" d="M77.85,37.36c9.46-8.64,9.75-8,10.63-10.31a4.82,4.82,0,0,0-1.82-1.34c-1.51-.82-4.43-2.64-7.39-4.43s-3.1-1.59-5.94.6-21,16.57-22,17.39c-.23.17-.46.34-.66.51l.09.17C54,38.53,75,36.8,77.85,37.36Z"/><path id="Tracé_8593" data-name="Tracé 8593" class="cls-6" d="M91.69,34.1c-.37-.69-.54-1.51-1.88-4.52-1-2.19-1.42-2.79-2.16-3.27.54,1.73-3.46,5.11-7.53,8.75C75.86,38.87,66.62,47.51,64,48.42s-8.24-3.1-11.4-4.77-1.9-3.81-2-3.73c-1,.83-1.34.77-1.56,1.65s-1.54,4.18-2.62,7.33.74,3.27,1.93,4,9.27,6.48,11.83,8,4.06,1,5.65-.54S88.44,39.52,90.63,37.79,92.06,34.78,91.69,34.1Z"/><path id="Tracé_8594" data-name="Tracé 8594" class="cls-6" d="M91.69,34.1c-.37-.68-.54-1.51-1.88-4.52a4.11,4.11,0,0,0-.28-.6C86.6,28.75,72,42.88,68.47,45.83s-4.83,5.43-4.83,7.79c0,2.13-.43,5.8-.62,8.18a4.35,4.35,0,0,0,2.84-1.42c1.59-1.5,22.59-20.86,24.78-22.59S92.06,34.78,91.69,34.1Z"/><path id="Tracé_8595" data-name="Tracé 8595" class="cls-1" d="M87.46,29.07c-2.82,1.42-9.89,8.78-20.6,17.64-1.43,1.2-.46,1.34,1.73-.48S87.46,29.07,87.46,29.07Z"/><path id="Tracé_8596" data-name="Tracé 8596" class="cls-1" d="M50.71,40c-.71.88.23,2.59,2,3.47s8.5,4.94,9.8,5.11a6,6,0,0,0,2.62-.34,6.71,6.71,0,0,0-1.54,3.64c-.08,1.14-.4,6.25-.57,6.34s-.08-5.43-.14-6.57A2.57,2.57,0,0,0,61.36,49c-1.22-.63-10.37-5.77-11.17-6.4S49.17,41.2,50.71,40Z"/></g><path id="Tracé_8597" data-name="Tracé 8597" class="cls-1" d="M78.1,35.21c-2.07.68-2.61,1.22-3.3,3.3-.68-2.08-1.22-2.62-3.3-3.3,2.08-.68,2.62-1.22,3.3-3.3C75.49,34,76,34.55,78.1,35.21Z"/><path id="Tracé_8598" data-name="Tracé 8598" class="cls-1" d="M70.46,37.5a1.91,1.91,0,1,1-3.81,0,2.32,2.32,0,0,0,1.9-1.9A2.23,2.23,0,0,0,70.46,37.5Z"/><path id="Tracé_8599" data-name="Tracé 8599" class="cls-1" d="M60.29,50.21a2.05,2.05,0,0,1-4.1,0h0a2.05,2.05,0,0,1,4.1,0Z"/></g></g></svg>