<svg id="Calque_1" data-name="Calque 1" xmlns="http://www.w3.org/2000/svg" xmlns:xlink="http://www.w3.org/1999/xlink" viewBox="0 0 147 110"><defs><style>.cls-1{fill:none;}.cls-2{clip-path:url(#clip-path);}.cls-3{fill:#aab3b8;opacity:0.3;}.cls-11,.cls-13,.cls-16,.cls-3,.cls-33,.cls-34{isolation:isolate;}.cls-4{fill:#fff;}.cls-5{clip-path:url(#clip-path-2);}.cls-6{fill:#dadada;}.cls-7{fill:#f4f4f4;}.cls-8{fill:#ebeaea;}.cls-9{fill:#006ec3;}.cls-10,.cls-11{fill:#58991f;}.cls-11,.cls-13,.cls-16{opacity:0.5;}.cls-12,.cls-13{fill:#97c740;}.cls-14{fill:#68b42e;}.cls-15,.cls-16{fill:#d8b523;}.cls-17{fill:#3e9f32;}.cls-18{fill:#f2d038;}.cls-19{fill:#6c8424;}.cls-20{fill:#e39042;}.cls-21{fill:#89bd27;}.cls-22{fill:#f5aca2;}.cls-23{fill:#ef7e8a;}.cls-24{fill:#f39b99;}.cls-25{fill:#e1ccbb;}.cls-26{fill:#bc2921;}.cls-27{fill:#e83426;}.cls-28{fill:#ee523b;}.cls-29{fill:#ca2c21;}.cls-30{fill:#ffbe60;}.cls-31{fill:#cc752e;}.cls-32{fill:#fffbdc;}.cls-34{font-size:22px;font-family:SofiaProSemiBold, Sofia Pro;}</style><clipPath id="clip-path"><rect class="cls-1" y="-131" width="147" height="110" rx="6"/></clipPath><clipPath id="clip-path-2"><rect class="cls-1" width="147" height="110" rx="6"/></clipPath></defs><title>app-icon</title><g id="Groupe_1892" data-name="Groupe 1892"><g class="cls-2"><g id="Groupe_de_masques_6" data-name="Groupe de masques 6"><g id="Groupe_508" data-name="Groupe 508"><g id="Groupe_503" data-name="Groupe 503"><path id="Tracé_2630" data-name="Tracé 2630" class="cls-3" d="M95.5-15.54c.55-9.88-18.31-19-42.13-20.3S9.8-30.24,9.25-20.36,27.55-1.4,51.37-.07,94.94-5.67,95.5-15.54Z"/></g></g></g></g></g><g id="Groupe_1894" data-name="Groupe 1894"><rect id="Rectangle_14-4" data-name="Rectangle 14-4" class="cls-4" width="147" height="110" rx="6"/><g class="cls-5"><g id="Groupe_de_masques_10" data-name="Groupe de masques 10"><g id="Groupe_687" data-name="Groupe 687"><g id="Groupe_632" data-name="Groupe 632"><g id="Groupe_631" data-name="Groupe 631"><path id="Tracé_4209" data-name="Tracé 4209" class="cls-6" d="M92,86.26c0,14.67-30,26.56-67,26.56s-67-11.89-67-26.56S-12,59.7,25,59.7,92,71.59,92,86.26Z"/><path id="Tracé_4210" data-name="Tracé 4210" class="cls-7" d="M92.2,85.06c0,14.67-30,26.56-67,26.56s-67-11.89-67-26.56,30-26.56,67-26.56S92.2,70.4,92.2,85.06Z"/><path id="Tracé_4211" data-name="Tracé 4211" class="cls-8" d="M70.69,82.19c0,10-20.45,18.11-45.69,18.11s-45.69-8.11-45.69-18.11S-.24,64.08,25,64.08,70.69,72.19,70.69,82.19Z"/><path id="Tracé_4212" data-name="Tracé 4212" class="cls-7" d="M69.1,82.52C69.1,92,49.36,99.71,25,99.71S-19.1,92-19.1,82.52.64,65.34,25,65.34,69.1,73,69.1,82.52Z"/></g><path id="Tracé_4213" data-name="Tracé 4213" class="cls-9" d="M25,60.38c17.34,0,33.63,2.6,45.86,7.33,5.9,2.27,10.5,4.91,13.71,7.83s4.83,6,4.83,9.13-1.63,6.2-4.83,9.13-7.81,5.56-13.71,7.83C58.63,106.36,42.34,109,25,109s-33.63-2.6-45.87-7.33c-5.89-2.27-10.5-4.91-13.7-7.83s-4.83-6-4.83-9.13,1.63-6.2,4.83-9.13,7.81-5.56,13.7-7.83C-8.63,63,7.66,60.38,25,60.38Zm0-.94c-36.09,0-65.34,11.3-65.34,25.23S-11.09,109.91,25,109.91s65.34-11.3,65.34-25.24S61.09,59.44,25,59.44Z"/><path id="Tracé_4214" data-name="Tracé 4214" class="cls-9" d="M25,61.44c16.68,0,32.36,2.43,44.15,6.84,5.7,2.13,10.17,4.61,13.28,7.36s4.77,5.75,4.77,8.77-1.6,6-4.77,8.77-7.58,5.23-13.28,7.37C57.36,105,41.69,107.39,25,107.39S-7.37,105-19.15,100.55c-5.7-2.14-10.17-4.61-13.28-7.37s-4.77-5.74-4.77-8.77,1.6-6,4.77-8.77,7.58-5.23,13.28-7.36C-7.37,63.87,8.31,61.44,25,61.44ZM25,61c-34.61,0-62.67,10.5-62.67,23.44S-9.61,107.86,25,107.86s62.67-10.5,62.67-23.45S59.61,61,25,61Z"/></g><g id="Groupe_686" data-name="Groupe 686"><g id="Groupe_633" data-name="Groupe 633"><path id="Tracé_4215" data-name="Tracé 4215" class="cls-8" d="M50.2,100.11l-1-1.59-5.13,1-.59,1.12,1,1.09a15.51,15.51,0,0,0,5.57-.83c0-.54,0-.73,0-.8h0S50.21,100.09,50.2,100.11Z"/><path id="Tracé_4216" data-name="Tracé 4216" class="cls-8" d="M31,57a1.75,1.75,0,0,0,.2.35h-.22C31,57.27,31,57.16,31,57Z"/><path id="Tracé_4217" data-name="Tracé 4217" class="cls-8" d="M63.45,87.9a35,35,0,0,0-4.73-1.14l.42-.06c1.72-.26,1.72-2,2.6-1.36.44.3,1.28,1.23,2.29.48s.53-2,1-3.09,1.32-1,2.12-.66,1.54.36,2.29-1.28a2.09,2.09,0,0,0-.61-2.89l-.1-.06c-.75-.57-1.45-1.14-1.14-1.8,0-.06,0-.12.08-.19l0,0,.08-.21v0a3.64,3.64,0,0,0,.14-.47h0a1.9,1.9,0,0,0,0-.75h0a1.13,1.13,0,0,0-.08-.24h0a1.14,1.14,0,0,0-.23-.38c-.49-.56-1.21-.64-2.63,0l1.32-1.57a16.3,16.3,0,0,0,.22-2.7,13,13,0,0,1-6.27-3,1.1,1.1,0,0,0-.08-.69,1.12,1.12,0,0,1,0-.13.08.08,0,0,1,0,0,.19.19,0,0,1,0-.07v0a.06.06,0,0,1,0-.06v0a.13.13,0,0,1,0-.06h0l0,0s0,0,0,0l0,0a7,7,0,0,0,.69-.23h0a1.55,1.55,0,0,0,.49-.43,1.83,1.83,0,0,0,.34-.7l-.46.08a7.22,7.22,0,0,1-2.31-.21,16,16,0,0,0-2.48-.31c-1.78-.1-3.56-.11-5.34-.13s-3.77,0-5.65-.19-3.6-.35-5.41-.47c-3.53-.24-7.07-.34-10.62-.33-4,0-8,.12-12.07.27a113.61,113.61,0,0,0-12.08.94c-2,.28-3.94.6-5.91.91-1.77.29-3.54.64-5.32.81-1.4.13-2.93.18-4.42.39a16.77,16.77,0,0,0-.26,2.92c-.31.1-.82.26-1.64.49l-.3.09c-2.17.59-3.57,2.88-2.42,4.32.8.89,0,2-1.95,3.05s-2.93,2.89-2.21,4.29,2.21.55,2.08,1.65-.43,1.7,1.1,2.68,1.4,1.65.38,3.3-.55,2.46.68,3.52a2.93,2.93,0,0,0,1.31.67h0a2.54,2.54,0,0,0,.87,0h0l.25-.06h0a1.78,1.78,0,0,0,.43-.18l0,0,.13-.09,0,0a.86.86,0,0,0,.13-.14c.51-.68,1.36-.73,2.37,0l.05,0a3,3,0,0,0-2.23,1c-1.08,1.4.47,2.67,2,2.2s2-.46,1.61.56a2.44,2.44,0,0,0,.12,2h0l.06.09,0,0,.06.08.06.06.06.06.13.1,0,0,.1.06.07,0,.12,0,0,0,.2,0c1.22.17,1.24-1.17,2-1s.85,1,.82,1.75a2.31,2.31,0,0,0,2.71,1.66c1.34-.38,1.56,0,2,.46a1.26,1.26,0,0,0,1.62.47,2.56,2.56,0,0,0,.37-.22,10.37,10.37,0,0,0,2.29.25,11,11,0,0,0,4.5-.78,4.41,4.41,0,0,0,2.16,1.54h0l.21,0h.26l.23,0c2.31-.27,2-1.44,2.54-2.28s.92-.56,1.39-.08a1,1,0,0,0,1.34.09l5.07,1a10.22,10.22,0,0,1,2.27-2.87h0c.58.77,1.34,1.58,1.94,1.5,1.11-.13.74-1.75,1.79-1.58s1,2.06,2.1,2a16.47,16.47,0,0,1,3.14,0,2.53,2.53,0,0,0,1.33-.18h0l.13-.06,0,0,.19-.11.09-.06.1-.07a1.06,1.06,0,0,0,.12-.1l.1-.09.13-.14.08-.08.15-.19,0-.06.16-.24.06-.09c.05-.09.11-.19.16-.3a0,0,0,0,1,0,0A5.06,5.06,0,0,0,38,99a10.14,10.14,0,0,0,10.64-6.3,1.5,1.5,0,0,0,0,.56c.19,1.13,1,.49,1.27,1.54s-.9,2,.83,2.67,2.26-1.09,3.72-1,.94,2.1,2.9,2.36,4.24-2.1,4.24-2.1a2,2,0,0,0,1.32,1.62,2.9,2.9,0,0,0,3.57-1.54,4.18,4.18,0,0,1,1.24-2.22l.17-.12.14-.09,0,0,.13-.1,0,0,.14-.12h0l.16-.15h0a3.2,3.2,0,0,0,1-2.5C69.54,89.4,67.06,87.82,63.45,87.9ZM48.82,92.1c0-.14.1-.28.14-.43a.71.71,0,0,1-.14.43Zm.72-4.4a3.3,3.3,0,0,0-.25-.81,2.71,2.71,0,0,0-.21-.37,16.82,16.82,0,0,0,2.11.44,6.78,6.78,0,0,0-1.65.74Z"/></g><g id="Groupe_685" data-name="Groupe 685"><g id="Groupe_683" data-name="Groupe 683"><g id="Groupe_682" data-name="Groupe 682"><path id="Tracé_4218" data-name="Tracé 4218" class="cls-10" d="M-4.37,81S-9,75.7-2.33,69.92,27.38,57,37.91,60.06s17,7.82,17.23,13.26-17,13.26-23.35,15.75a22.29,22.29,0,0,1-16.21.35C11.17,87.83-4.37,81-4.37,81Z"/><path id="Tracé_4219" data-name="Tracé 4219" class="cls-11" d="M37.7,60.13C27.16,57.07,4.15,64.21-2.54,70s-2,11.11-2,11.11,15.53,6.8,20,8.39a22.34,22.34,0,0,0,16.21-.34c6.35-2.49,23.58-10.32,23.35-15.76S48.25,63.19,37.7,60.13ZM-1.22,76.73a1.26,1.26,0,0,1-1.42-1.08.92.92,0,0,1,0-.33c.05-.5.52-.74.94-.9.68-.24,1.43-.14,2.12-.35,0,0,0,0,0,0A2,2,0,0,1-.81,76.64a1.51,1.51,0,0,1-.41.09Zm21.43-7.94c-.37.54-1,.57-1.6.8A3.64,3.64,0,0,0,16.92,71a2,2,0,0,1-.55.57c-.57.32-.16-.63-.15-.83.07-.61-.2-1.25.05-1.85a1.61,1.61,0,0,1,1.06-.94,6.88,6.88,0,0,1,1.43-.15,2.21,2.21,0,0,1,1.38.24.59.59,0,0,1,.07.8ZM29.94,85a7.29,7.29,0,0,1-4,1.49,0,0,0,0,1,0,0A4.34,4.34,0,0,1,26.07,84c.19-.56.57-1,.75-1.59a3.87,3.87,0,0,0,0-.9c0-.3.26-.38.46-.57s.56-.5.81-.77a3.67,3.67,0,0,1,1.26-1c1.37-.56,1.9,1.11,2,2.18A4.14,4.14,0,0,1,30,85ZM48.6,74.21a3.66,3.66,0,0,1-3.22,1,1.27,1.27,0,0,1-1-1.2,11.46,11.46,0,0,0-.06-2,2.65,2.65,0,0,1,.4-2.61c.3-.31.68.48.8.67.25.46.55.92,1.13.95a3.67,3.67,0,0,1,2.15.43C50,72.2,49.43,73.4,48.6,74.21Z"/><path id="Tracé_4220" data-name="Tracé 4220" class="cls-10" d="M-.77,74.41a2.31,2.31,0,0,0-1.12.29c-.32.5-.48,1.2.13,1.56a1.69,1.69,0,0,0,1.44.06,1.69,1.69,0,0,0,.86-2A5.74,5.74,0,0,0-.77,74.41Z"/><g id="Groupe_634" data-name="Groupe 634"><path id="Tracé_4221" data-name="Tracé 4221" class="cls-12" d="M.67,85.46A20.63,20.63,0,0,0-8.16,91c-1.35,1-2.6.22-3.68,1.62s.47,2.66,2,2.2,2-.46,1.61.57-.09,2.47,1.13,2.63,1.23-1.16,2-1,.85,1,.82,1.76a2.32,2.32,0,0,0,2.71,1.65c1.35-.38,1.56,0,2,.47a1.29,1.29,0,0,0,1.63.47c.59-.35.62-.28.53-1.22s2.95-6.4,4-8.56,1.29-2.58,2.16-2.13S11.08,88.34,9,86,2.66,84.76.67,85.46Z"/><path id="Tracé_4222" data-name="Tracé 4222" class="cls-13" d="M9,86q-.16-.18-.33-.33c-.41.9-1.3,1.24-2.16,1.71-1.34.71-2.8,1.08-4.18,1.65s-2.65,1.23-3.95,1.84a6.67,6.67,0,0,0-2.26,1.52,9.36,9.36,0,0,0-1.25,2.28,4.69,4.69,0,0,1-2.12,2.4,6.76,6.76,0,0,1-.89.33,1.35,1.35,0,0,0,1,.66c1.21.17,1.24-1.17,2-1s.85,1,.82,1.75a2.32,2.32,0,0,0,2.71,1.66c1.34-.38,1.56,0,2,.47a1.27,1.27,0,0,0,1.62.46c.59-.34.63-.28.53-1.21s3-6.41,4-8.57S7.87,89,8.75,89.5,11.08,88.33,9,86Z"/><path id="Tracé_4223" data-name="Tracé 4223" class="cls-14" d="M-2.52,91.66a13.87,13.87,0,0,1,1.21-.84c.18-.12.39-.25.61-.37s.44-.28.68-.4l.76-.4c.25-.14.52-.27.79-.4l.8-.36c.26-.12.53-.22.79-.32l.74-.28.35-.13.33-.1,1-.29.39-.1-.38.15-1,.38-.32.12-.34.15-.73.31c-.25.1-.51.22-.77.34l-.79.37-.79.38-.76.38c-.48.26-.95.48-1.33.7l-.93.51Z"/></g><path id="Tracé_4224" data-name="Tracé 4224" class="cls-15" d="M.6,78s0-6.27,8.47-8.64a6.64,6.64,0,0,1,5.85,4.66l-7,8Z"/><path id="Tracé_4225" data-name="Tracé 4225" class="cls-16" d="M9.07,69.4A14.49,14.49,0,0,0,4.8,71.3h0a11.48,11.48,0,0,1,4.52.27c.69.22,2.87,1.28,2.12,2.29-.45.59-1.22.85-1.74,1.37A18.86,18.86,0,0,0,7.4,78s-.08.1-.12.07A12.58,12.58,0,0,0,1,76.15,6.81,6.81,0,0,0,.6,78l7.29,4.07,7-8A6.65,6.65,0,0,0,9.07,69.4Z"/><path id="Tracé_4226" data-name="Tracé 4226" class="cls-14" d="M20.1,65.67a18,18,0,0,0,2,4.82c1.17,1.58-1.16,4.82,2.75,8.48,2.33,2,3.32.5,3.82-.91s1.17-.17,2-.08,1.59.33,2.25-1.25,2.41-.67,3.49-2,4.08-13.64-1.25-16.88S18.77,59.43,20.1,65.67Z"/><path id="Tracé_4227" data-name="Tracé 4227" class="cls-14" d="M24.48,75.52c-.37-1.65-.23-3.4-1-5a2.25,2.25,0,0,0-1.78-1.42,1.93,1.93,0,0,0-.34,0,7.75,7.75,0,0,0,.77,1.34c1.16,1.58-1.17,4.83,2.74,8.49,1.17,1,2,1.12,2.61.82A7.51,7.51,0,0,1,24.48,75.52Z"/><path id="Tracé_4228" data-name="Tracé 4228" class="cls-14" d="M35.15,57.85c-5.32-3.24-16.38,1.58-15,7.82a22.67,22.67,0,0,0,1.28,3.57,3.58,3.58,0,0,1,.85-1.9c.78-.75,1.34.57,1.46,1.15.23,1,.21,2.12.36,3.17a3.74,3.74,0,0,0,1.72,3.1c1.42.71,3,.58,4.52,1.07.89.29,1.93.89,2,1.89a3,3,0,0,0,.62-1c.67-1.58,2.41-.66,3.49-2S40.48,61.09,35.15,57.85Z"/><path id="Tracé_4229" data-name="Tracé 4229" class="cls-14" d="M7.83,98.56s1.95,4,4.26,3.67,2-1.45,2.53-2.28.92-.56,1.39-.09,1.28.56,2.06-.75,2.45-7.29.41-9.16S7.75,87,5.75,90.58,7.83,98.56,7.83,98.56Z"/><path id="Tracé_4230" data-name="Tracé 4230" class="cls-17" d="M18.48,90c-2-1.87-10.73-2.91-12.73.63a4.45,4.45,0,0,0-.53,2.58,3.49,3.49,0,0,1,2.19-1.65,2.7,2.7,0,0,1,1.79.18A7.34,7.34,0,0,1,10.58,93,1.94,1.94,0,0,0,13,93.3c.5-.33,1-1,1.53-1.16,1.36-.48,1.69,1.53,1.45,2.47a3.71,3.71,0,0,1-.84,1.62c-.45.5-1,.91-1.41,1.45-.81,1-.53,2.44-1.33,3.47a3.43,3.43,0,0,1-1.2,1,2.07,2.07,0,0,0,.92.11c2.31-.28,2-1.45,2.54-2.28s.92-.56,1.39-.09,1.28.56,2.06-.75S20.52,91.82,18.48,90Z"/><path id="Tracé_4233" data-name="Tracé 4233" class="cls-14" d="M15.88,65.82a37.33,37.33,0,0,0-.26,4.35A3.5,3.5,0,0,1,14.71,73,2,2,0,0,1,12,72.76a2.43,2.43,0,0,1-.14-.2c-.83-1.13-1.92-2-4.61-1.91s-3.35,0-3.65-1.35a8.88,8.88,0,0,1-.17-4.13c.3-2-3.4-6-2.61-7.7s-1.66-2-.26-3.61c1-.91,1.56-.48,2.38-.13s2.57.31,2.53-.43a1.85,1.85,0,0,1,1.67-2h.11c1.35,0,2.09,1.52,2,2.65S11,62.53,15.88,65.82Z"/><path id="Tracé_4234" data-name="Tracé 4234" class="cls-14" d="M14,73.41a6.52,6.52,0,0,0,.29-.73c.16-.5.32-1.26-.19-1.63s-1.43-.26-2.14-.24a8.91,8.91,0,0,1-3.23-.61,9,9,0,0,1-1.44-.58c-.39-.22-.66-.66-1.07-.84C5,68.22,4.4,69.16,4,70.22c.46.5,1.35.52,3.25.43,2.69-.13,3.78.78,4.6,1.91A2.14,2.14,0,0,0,14,73.41Z"/><path id="Tracé_4235" data-name="Tracé 4235" class="cls-17" d="M15.88,65.82C11,62.53,9.23,55.09,9.27,54s-.69-2.65-2-2.65a1.83,1.83,0,0,0-1.79,1.88v.12c0,.46-.64.65-1.36.64a3,3,0,0,0,.77.81,2.27,2.27,0,0,0,1.37.33,1.2,1.2,0,0,1,1,.32c.58.64-.16,1.57-.62,2a5.8,5.8,0,0,0-2.15,3.06,4.83,4.83,0,0,1-1,2.52,4.59,4.59,0,0,1-.41.36,3.69,3.69,0,0,1,.38,1.82,9,9,0,0,0,.18,4.12,2.06,2.06,0,0,0,.31.8c.33-.89.79-1.71,1.79-1.68A1.87,1.87,0,0,1,7,69.08a4.86,4.86,0,0,0,1.7.85,9.62,9.62,0,0,0,4,.62c.57,0,1.45,0,1.77.54a1.87,1.87,0,0,1,0,1.43,8.09,8.09,0,0,1-.34.86A1.13,1.13,0,0,0,14.7,73a3.47,3.47,0,0,0,.91-2.83A39.68,39.68,0,0,1,15.88,65.82Z"/><path id="Tracé_4236" data-name="Tracé 4236" class="cls-12" d="M-7.88,77.91a17.14,17.14,0,0,1-2.69-13.6c1.31-5.42,3.93-8,5.18-7.36s1.47.19,2.13-.68a1.85,1.85,0,0,1,2.62-.18,1.93,1.93,0,0,1,.27.3c.87,1,1.44,1,2.06.81s2.68.35,2.4,2.19,0,1.77.44,3.08a5.67,5.67,0,0,1-1.31,5.84c-.82.62-.9,1.28-.94,2.5s-.56,2.9-3.21,2.86c-1.75-.12-2.84.1-3.43,1.4S-4.72,77.62-6,78.35C-6.95,78.88-7.88,77.91-7.88,77.91Z"/><path id="Tracé_4237" data-name="Tracé 4237" class="cls-13" d="M4.53,62.48c-.41-1.32-.72-1.25-.44-3.09S2.31,57,1.69,57.2s-1.19.16-2.06-.81a2,2,0,0,0-2.44-.53,4.3,4.3,0,0,1-.36,2.69c-1.41,3.36-4,6-5.4,9.4a13.31,13.31,0,0,0-.83,5.52,2.37,2.37,0,0,1-.22,1.31,14.12,14.12,0,0,0,1.74,3.13s.93,1,1.87.44c1.3-.73,1.06-2,1.65-3.27s1.68-1.53,3.43-1.4c2.65,0,3.18-1.65,3.21-2.87s.13-1.87.94-2.5A5.64,5.64,0,0,0,4.53,62.48Z"/><path id="Tracé_4241" data-name="Tracé 4241" class="cls-12" d="M7.92,81.38a13,13,0,0,1,6.51-7.91c1.49-.74,1.66-.66,2.57-1.88a5.28,5.28,0,0,1,5-1.87c1.93.4,2.09,2,1.64,3.85s.08,2.16,1.24,3.79,1.79,4.15.67,5.69-1.08,1.5-1.17,2.66-.75,1.5-1.95,1.75-1.46.63-2.17,2-1.91,1.74-3.44,1.62-1.34-1.74-2.58-.71-2.7,2.25-4.54,1S8.58,89.71,8.79,89s-.83-.67-1.62-.58c-1.13.13-.88-.58-.5-2.2S7.46,83.66,7.92,81.38Z"/><path id="Tracé_4242" data-name="Tracé 4242" class="cls-13" d="M24.84,77.35c-1.16-1.62-1.7-1.95-1.24-3.78.41-1.65.32-3.12-1.12-3.7a2.39,2.39,0,0,1-.26.67,5.94,5.94,0,0,1-1.13,1.32c-.63.57-1.24,1.15-1.84,1.75a29.26,29.26,0,0,0-5.87,9,20.11,20.11,0,0,0-1,2.68c-.2.72-.3,1.48-.56,2.18a5.21,5.21,0,0,1-1.68,2.35,5.73,5.73,0,0,1-1.45.81,3.78,3.78,0,0,0,1,.85c1.83,1.21,3.28,0,4.53-1s1,.58,2.58.71,2.74-.21,3.45-1.62,1-1.79,2.16-2,1.87-.59,2-1.75,0-1.12,1.16-2.66S26,79,24.84,77.35Z"/><path id="Tracé_4243" data-name="Tracé 4243" class="cls-14" d="M47.26,77.53s-.09-2.11,1.71-1.89c1.41.09,1.72-.66,1.94-1.81a2.31,2.31,0,0,1,2.59-2,2.25,2.25,0,0,1,.67.2c2.07.66,7,3,9.25,1.71s3.22-1.27,3.84-.57a2.05,2.05,0,0,1-.05,2.29c-.31.66.4,1.24,1.15,1.81a2.08,2.08,0,0,1,.76,2.85l-.06.1c-.75,1.63-1.5,1.63-2.29,1.28s-1.68-.44-2.12.66,0,2.34-1,3.08-1.85-.18-2.29-.48c-.88-.62-.88,1.1-2.6,1.36a31.36,31.36,0,0,1-7.92.28c-2.25-.38-4.18-.69-4.49-3.06S47.56,79.71,47.26,77.53Z"/><path id="Tracé_4244" data-name="Tracé 4244" class="cls-17" d="M68.36,77.27c-.75-.57-1.45-1.15-1.15-1.81a2.46,2.46,0,0,0,.28-1.91,4.88,4.88,0,0,0-1.73.8,6.71,6.71,0,0,0-2,2.15c-.37.68-.58,1.42-.89,2.14a2.55,2.55,0,0,1-.74,1.07,5.34,5.34,0,0,1-1.94.71,18.43,18.43,0,0,1-2.44.47,5.1,5.1,0,0,0-1.4.26,7.15,7.15,0,0,0-.85.59,5.36,5.36,0,0,1-2,.69,8,8,0,0,0-2.33,1c-.73.4-2.34,1.33-2.71.06-.08-.27-.1-.56-.2-.82s-.3-.65-.41-1a2,2,0,0,1,.32-1.47,3,3,0,0,0,.47-1.33,3.25,3.25,0,0,0-.4-1.36,5.71,5.71,0,0,0-.6-1.08l-.12-.15a2.63,2.63,0,0,0-.3,1.26c.31,2.18-1.19,3.44-.87,5.81S48.61,86,50.86,86.4a31.83,31.83,0,0,0,7.92-.28c1.72-.26,1.72-2,2.6-1.36.44.3,1.28,1.23,2.29.48s.53-2,1-3.08,1.32-1,2.11-.66,1.54.35,2.29-1.28a2.08,2.08,0,0,0-.6-2.89Z"/><path id="Tracé_4245" data-name="Tracé 4245" class="cls-12" d="M23.84,96.77s1.69,3,2.8,2.81.75-1.76,1.79-1.59,1,2.06,2.1,2a16.58,16.58,0,0,1,3.15,0c.91.1,2.37-.1,3.31-2.67a41,41,0,0,1,9.2-12.66c1.88-1.69,1.58-1.75,1.22-3s.14-1.13.59-1.81.23-2-.76-3.22-2.07-.34-3.06,0-.84,0-1.5-.77-1.84-.34-3.22.46-1.55,1.81-2.77,1.1a2.27,2.27,0,0,0-3.14.73,2.14,2.14,0,0,0-.2.4c-.65,1.44.32,3.51-1.13,5.63-2.06,3-2.18,3.62-4.74,5.12S23,94.73,23.84,96.77Z"/><path id="Tracé_4246" data-name="Tracé 4246" class="cls-13" d="M48,79.85c.45-.68.23-2-.76-3.22a1.54,1.54,0,0,0-.28-.29,45.68,45.68,0,0,0-5.2,3,34.54,34.54,0,0,0-3.29,2.52c-.48.42-.95.84-1.46,1.23a4.43,4.43,0,0,0-1.42,1.53,4.1,4.1,0,0,1-1.63,2,2.51,2.51,0,0,1-1.94.13,6.39,6.39,0,0,1-1.22-.56,8.4,8.4,0,0,1-3.32,3c-2.55,1.5-4.47,5.46-3.64,7.5.27.45.56.89.87,1.31a4.84,4.84,0,0,1,2.39-1.91,2.9,2.9,0,0,1,2.58.15c.31.26.6.66,1,.68s.82-.34,1.28-.36c1.39-.07,2.23,1.7,2.59,2.78,0,.16.1.32.14.49.77-.23,1.63-.89,2.26-2.6a41,41,0,0,1,9.2-12.66c1.88-1.69,1.58-1.75,1.22-3S47.55,80.53,48,79.85Z"/><path id="Tracé_4247" data-name="Tracé 4247" class="cls-12" d="M49.75,55.64a7.41,7.41,0,0,1,3.62-.7c1.79.2,1.62,1,1.5,1.62s.58.62,2,.08,2.41-.46,3.12.38.45,1.53-.09,2.41-.58,1.58.46,1.91a1.71,1.71,0,0,1,.89,2.24A1.88,1.88,0,0,1,61,64c-.7.92-1.58.29-1.2,1.17a.8.8,0,0,1-.25,1.11l-.08,0-9.94-3.57S46.51,60.22,49.75,55.64Z"/><path id="Tracé_4248" data-name="Tracé 4248" class="cls-12" d="M60.53,64.42a3.35,3.35,0,0,1-1.21-.86,9.48,9.48,0,0,1-1.41-2.29c-.3-.62-.66-1.89-1.52-2a10.88,10.88,0,0,0-2.63.59c-.63.12-1.69.41-2.25-.06s-.3-1.75-.19-2.5a6,6,0,0,0-.1-2.23,8.27,8.27,0,0,0-1.47.52c-3.24,4.58-.21,7.11-.21,7.11l9.94,3.58a.82.82,0,0,0,.38-1.08.41.41,0,0,0,0-.09C59.53,64.49,60,64.71,60.53,64.42Z"/><g id="Groupe_637" data-name="Groupe 637"><path id="Tracé_4249" data-name="Tracé 4249" class="cls-18" d="M55.65,59.26l-6.27,2.87,0,.06c-.23,1.78,0,4.56,2.85,7.52,4.7,5,9.81,5.18,9.81,5.18l4.17-6C57.73,67.3,55.65,59.26,55.65,59.26Z"/><g id="Groupe_636" data-name="Groupe 636"><path id="Tracé_4250" data-name="Tracé 4250" class="cls-19" d="M52.18,69.71c-2.79-3-3.08-5.75-2.84-7.52-.1.17-.44.76-1.15,1.94.37,10.29,13.91,12,13.91,12L62,74.89S56.89,74.7,52.18,69.71Z"/><path id="Tracé_4251" data-name="Tracé 4251" class="cls-20" d="M66.17,68.87l-4.17,6,.11,1.25,3.83-4.56A15.33,15.33,0,0,0,66.17,68.87Z"/></g></g><g id="Groupe_639" data-name="Groupe 639"><path id="Tracé_4252" data-name="Tracé 4252" class="cls-14" d="M32.42,60.66s3.93.9,3.88,2.42.3,2.72,3.17,3.57,4.64.76,6.86,2.57,3.77,1.52,4.43-1.86a7.85,7.85,0,0,0-1.46-6.45c-.81-1.31-.25-2.06.8-3.13s.55-2.67-1.66-3.77-.66-1.57-1.66-3.13A3,3,0,0,0,43,49.77c-1.21.4-1.62,0-1.52-1.41s-1.3-2.21-2.67-2S37,47.74,36.55,48.16c-.81.71-.7.4-1.72-.15s-2.72.05-2.57,2.42-.25,2.47-.85,3.38S29.9,56,31.05,57.08,29.64,59.74,32.42,60.66Z"/><path id="Tracé_4253" data-name="Tracé 4253" class="cls-17" d="M48.68,68.08a28.46,28.46,0,0,1-5.08-6.23c-.93-1.41-1.92-3.26-3.7-3.66a5.13,5.13,0,0,1-3.09-1.49c-1.36-1.6-1.11-4.1-.66-6a18.51,18.51,0,0,1,1.2-3.52c-.33.38-.56.77-.79,1-.81.7-.7.4-1.72-.15s-2.72.05-2.57,2.41-.25,2.47-.85,3.38-1.51,2.22-.35,3.28-1.42,2.65,1.36,3.57c0,0,3.92.91,3.87,2.42s.3,2.72,3.18,3.58,4.64.76,6.85,2.57c1.73,1.41,3.05,1.54,3.87-.06A11,11,0,0,1,48.68,68.08Z"/><g id="Groupe_638" data-name="Groupe 638"><path id="Tracé_4254" data-name="Tracé 4254" class="cls-14" d="M35.38,55.06s.16.21.46.56A14.14,14.14,0,0,0,37.14,57a4,4,0,0,0,1,.71c.41.2.85.35,1.32.53s.94.34,1.42.55c.13.05.24.12.36.18a2.37,2.37,0,0,1,.35.19,3.37,3.37,0,0,1,.35.22l.15.12s.1.1.16.14a7.51,7.51,0,0,1,1,1.28c.28.44.52.89.76,1.33s.45.86.67,1.25c.11.19.24.36.36.54s.24.34.36.5l.62.88.48.67.43.59-.47-.56c-.14-.18-.33-.39-.52-.64l-.66-.86-.37-.49c-.14-.18-.27-.36-.39-.55-.24-.38-.47-.8-.71-1.23S43.31,61.47,43,61a6.51,6.51,0,0,0-.94-1.22L42,59.69l-.15-.12-.32-.21-.34-.19c-.11-.05-.22-.12-.34-.17-.47-.21-1-.38-1.41-.56a11.72,11.72,0,0,1-1.31-.56,4.23,4.23,0,0,1-1-.78,9.35,9.35,0,0,1-.74-.8l-.51-.65C35.52,55.28,35.38,55.06,35.38,55.06Z"/><path id="Tracé_4255" data-name="Tracé 4255" class="cls-14" d="M45.13,64.43l-.46-.09-.22,0-.25-.05-.53-.13a8.31,8.31,0,0,1-1-.32,3.43,3.43,0,0,1-.44-.19l.47,0c.34.06.67.13,1,.22l.53.16a3.38,3.38,0,0,1,.44.18A2.78,2.78,0,0,1,45.13,64.43Z"/><path id="Tracé_4256" data-name="Tracé 4256" class="cls-14" d="M38.72,52.07a3.42,3.42,0,0,0,0,.44A7.36,7.36,0,0,0,39,53.64a6.34,6.34,0,0,0,.26.73,2.11,2.11,0,0,0,.17.38c.06.14.12.27.19.4s.3.53.46.79l.26.39a3.8,3.8,0,0,0,.29.38c.19.26.41.48.62.73l.61.71c.2.22.35.48.52.7a5.74,5.74,0,0,1,.43.66,4.15,4.15,0,0,1,.29.6l.06.13,0,.13.07.23a1.22,1.22,0,0,1,0,.33.36.36,0,0,1,0,.11.2.2,0,0,0,0-.11,1.19,1.19,0,0,0-.05-.32,1.8,1.8,0,0,0-.08-.21,1.12,1.12,0,0,0,0-.13.67.67,0,0,0-.06-.12,4.34,4.34,0,0,0-.33-.56,7.17,7.17,0,0,0-.45-.63c-.09-.11-.17-.22-.27-.33a4.19,4.19,0,0,0-.28-.34l-.62-.69c-.21-.24-.44-.47-.63-.73l-.3-.39c-.09-.13-.18-.27-.26-.41s-.32-.54-.46-.82a3.65,3.65,0,0,1-.18-.41,3.25,3.25,0,0,1-.15-.4,6.61,6.61,0,0,1-.22-.76,5.7,5.7,0,0,1-.17-1.16A2.26,2.26,0,0,1,38.72,52.07Z"/><path id="Tracé_4257" data-name="Tracé 4257" class="cls-14" d="M42.75,54.32a2.32,2.32,0,0,1,0,.23c0,.14.06.35.09.6s.07.53.1.84,0,.65.05,1,0,.66,0,1,0,.6,0,.85-.06.46-.08.6,0,.23,0,.23,0-.09,0-.23,0-.35,0-.6,0-.54,0-.85,0-.64,0-1,0-.66,0-1,0-.6,0-.84v-.6C42.74,54.41,42.75,54.32,42.75,54.32Z"/></g><path id="Tracé_4258" data-name="Tracé 4258" class="cls-21" d="M50.06,56.28a3.61,3.61,0,0,0-1.38-1.86,5.12,5.12,0,0,0-1.41-.53c-1-.32-.87-1.24-.88-2,0-2-1.64-2.36-3.23-1.65-.07,0-.33.14-.21.1,1.24-.33,2.57-.36,3,1.11.23.7-.1,1.44.17,2.14a1.78,1.78,0,0,0,1.24.86,4.15,4.15,0,0,1,2.75,2.27C50.23,56.85,50.1,56.41,50.06,56.28Z"/></g><g id="Groupe_640" data-name="Groupe 640"><path id="Tracé_4259" data-name="Tracé 4259" class="cls-12" d="M20.22,72.58l-.49.56c-.3.36-.72.88-1.21,1.52-.24.32-.51.66-.78,1l-.41.57-.42.62c-.29.41-.56.85-.84,1.3s-.54.91-.81,1.38-.52.94-.75,1.41l-.33.71c0,.12-.11.23-.17.35s-.09.23-.14.35-.18.46-.28.68-.09.22-.13.33a2.24,2.24,0,0,0-.11.34c-.08.21-.15.43-.22.63s-.13.4-.18.6L12.68,86c-.08.32-.11.6-.16.83-.08.47-.12.73-.12.73s0-.26.08-.73c0-.23,0-.52.11-.85s.14-.68.22-1.08a4.5,4.5,0,0,1,.17-.6c.06-.21.13-.43.2-.65s.07-.22.1-.34.08-.22.12-.34l.27-.7c.05-.12.1-.24.14-.35s.11-.24.17-.36l.33-.72c.22-.48.49-1,.74-1.43s.54-.93.82-1.38.57-.89.87-1.3c.14-.2.28-.41.43-.61l.43-.57c.27-.36.56-.7.81-1,.51-.62,1-1.12,1.29-1.46S20.22,72.58,20.22,72.58Z"/><path id="Tracé_4260" data-name="Tracé 4260" class="cls-12" d="M16.46,77.31l-.09.36c-.05.23-.12.57-.2,1,0,.2-.07.42-.1.65S16,79.76,16,80a6.53,6.53,0,0,0-.05.78c0,.27,0,.54,0,.81s0,.54,0,.81,0,.52.06.78.06.49.09.72,0,.23.05.34a2.84,2.84,0,0,0,.06.31c0,.2.07.38.11.55s.08.3.11.41l.09.36s-.05-.12-.13-.34l-.16-.41-.16-.54c0-.1,0-.2-.08-.31a3.4,3.4,0,0,1-.07-.34,5.86,5.86,0,0,1-.13-.73,6.6,6.6,0,0,1-.08-.79c0-.28,0-.55,0-.82s0-.55,0-.82.05-.54.07-.8A13.44,13.44,0,0,1,16,78.61c.08-.32.17-.64.28-1Z"/><path id="Tracé_4261" data-name="Tracé 4261" class="cls-12" d="M17.08,76.43l-.24.09-.61.28c-.25.12-.54.27-.83.44l-.45.28c-.15.1-.31.2-.45.31l-.43.33c-.14.12-.28.23-.4.35s-.24.23-.36.34-.21.22-.31.32l-.25.28-.18.23-.17.2.13-.23.15-.25a3.45,3.45,0,0,1,.21-.32c.09-.12.18-.24.28-.35a4.17,4.17,0,0,1,.34-.38,4.61,4.61,0,0,1,.4-.37l.44-.35c.16-.11.31-.22.47-.31l.47-.27a6.15,6.15,0,0,1,.88-.38,5.46,5.46,0,0,1,.66-.19Z"/></g><path id="Tracé_4262" data-name="Tracé 4262" class="cls-12" d="M9.44,58.82s-2.36-5.37,1.84-7.69c1.52-.52,3.87.19,5.19-1.37S18.6,48,20,48.63a6,6,0,0,0,4.9.28,5.33,5.33,0,0,1,5.19.29c1.51,1,2.65,3.16,1.47,4.9a5,5,0,0,0-1,3.45,3.37,3.37,0,0,1-3.44,2.83c-2.46.14-3.07.47-3.59,2s-1.46,5.29-4.9,5.15S11.33,62.46,9.44,58.82Z"/><path id="Tracé_4263" data-name="Tracé 4263" class="cls-13" d="M30.06,49.2a4.47,4.47,0,0,0-1.22-.6,8.39,8.39,0,0,1-1.52,1c-1.36.7-2.84,1.06-4.25,1.63a17.43,17.43,0,0,0-8.31,8.5c-.85,2.06-.39,2.86-1.1,5,1.58,1.6,3.33,2.77,5,2.83,3.44.14,4.39-3.63,4.9-5.14s1.14-1.84,3.59-2a3.37,3.37,0,0,0,3.44-2.83,5,5,0,0,1,1-3.45C32.7,52.36,31.57,50.24,30.06,49.2Z"/><path id="Tracé_4264" data-name="Tracé 4264" class="cls-22" d="M43.78,99l-.59,1.12,1,1.09.35-.87Z"/><g id="Groupe_641" data-name="Groupe 641"><path id="Tracé_4265" data-name="Tracé 4265" class="cls-23" d="M44.23,101.19a15.43,15.43,0,0,0,5.56-.84c.06-1,.08-.8.08-.8l-5.29.76Z"/><path id="Tracé_4266" data-name="Tracé 4266" class="cls-24" d="M43.78,99l.8,1.33,5.29-.76-1-1.61Z"/></g><g id="Groupe_643" data-name="Groupe 643"><path id="Tracé_4267" data-name="Tracé 4267" class="cls-12" d="M48.83,87.39S52.4,84,63.11,87.32c3.61-.08,6.09,1.5,6,3.57A3.27,3.27,0,0,1,67.36,94a4.25,4.25,0,0,0-1.24,2.22,2.9,2.9,0,0,1-3.57,1.54c-1.12-.26-1.31-1.62-1.31-1.62S59,98.52,57,98.26,55.56,96,54.1,95.89s-2,1.69-3.72,1-.57-1.62-.83-2.67-1.09-.42-1.28-1.54.68-1.32.23-1.77A3.45,3.45,0,0,1,48.83,87.39Z"/><path id="Tracé_4268" data-name="Tracé 4268" class="cls-13" d="M65.36,93a12,12,0,0,1-4.63-1,33.33,33.33,0,0,0-4.49-2.3A14.81,14.81,0,0,0,52,89a12.46,12.46,0,0,0-3.84.53,2.12,2.12,0,0,0,.32,1.32c.46.45-.41.64-.22,1.77s1,.48,1.28,1.53-.9,2,.83,2.67,2.25-1.08,3.72-1S55,98,57,98.25s4.25-2.1,4.25-2.1a2,2,0,0,0,1.31,1.62,2.9,2.9,0,0,0,3.57-1.55A4.22,4.22,0,0,1,67.36,94a4,4,0,0,0,1.31-1.19A12.69,12.69,0,0,1,65.36,93Z"/><g id="Groupe_642" data-name="Groupe 642"><path id="Tracé_4269" data-name="Tracé 4269" class="cls-12" d="M49.46,89,50,89c.34,0,.84,0,1.43,0l1,.07c.34,0,.69.07,1.06.13s.74.12,1.12.19.77.16,1.15.26l.57.17.28.08.28.1c.36.14.73.25,1.06.41a6.63,6.63,0,0,1,1,.46l.43.23.21.11.19.13.67.45c.2.13.35.28.49.38l.41.35-.44-.31-.51-.35c-.2-.13-.44-.25-.69-.4l-.19-.12-.21-.1L58.79,91c-.3-.15-.63-.28-1-.42s-.69-.26-1.06-.39l-.27-.09L56.21,90l-.56-.15-1.14-.28c-.37-.07-.74-.16-1.11-.2s-.71-.12-1-.16l-.94-.11c-.59,0-1.08-.09-1.42-.1Z"/><path id="Tracé_4270" data-name="Tracé 4270" class="cls-12" d="M55.37,89.58a1.64,1.64,0,0,1,.22-.14,4.15,4.15,0,0,1,.6-.29l.43-.16a3.37,3.37,0,0,1,.48-.15c.17,0,.35-.09.53-.12l.55-.09.56,0a4.91,4.91,0,0,1,.54,0,3.94,3.94,0,0,1,.5,0l.45.05a2,2,0,0,1,.38.06l.29.06.24.06h-.25l-.29,0h-.38a3.38,3.38,0,0,0-.45,0h-.5a9.89,9.89,0,0,0-1.06.09l-.55.07-.52.1c-.33.07-.64.15-.91.23A8.69,8.69,0,0,0,55.37,89.58Z"/><path id="Tracé_4271" data-name="Tracé 4271" class="cls-12" d="M51.92,89a3.6,3.6,0,0,1,.54.22c.19.09.37.19.54.29s.38.26.57.39l.28.23a2.73,2.73,0,0,1,.25.23l.22.24a2,2,0,0,1,.19.22c.1.15.18.28.23.37a1,1,0,0,1,.09.14l-.12-.11-.3-.3-.21-.19-.24-.2c-.08-.08-.18-.14-.26-.21l-.27-.22-.28-.21-.27-.2-.48-.34Z"/></g></g><g id="Groupe_644" data-name="Groupe 644"><path id="Tracé_4272" data-name="Tracé 4272" class="cls-14" d="M14.45,60.24s0,0,0,0l0-.09c0-.08.08-.2.14-.35a12.88,12.88,0,0,1,.55-1.23c.12-.25.27-.52.43-.79a6.68,6.68,0,0,1,.54-.85c.2-.29.41-.59.63-.87s.47-.58.72-.86a18.79,18.79,0,0,1,1.59-1.5c.27-.22.54-.43.8-.61l.75-.51c.23-.15.45-.28.65-.39s.37-.21.52-.28l.46-.22-.44.26c-.14.08-.3.2-.49.32l-.62.42c-.22.17-.47.34-.72.54l-.77.64a16.76,16.76,0,0,0-1.54,1.5c-.25.27-.49.55-.72.83s-.45.56-.65.84a18.69,18.69,0,0,0-1,1.59c-.27.48-.48.89-.62,1.19-.08.14-.13.25-.17.33l0,.09Z"/><path id="Tracé_4273" data-name="Tracé 4273" class="cls-14" d="M18.27,51.61l-.15.6-.14.6c0,.11-.05.23-.08.35a3.59,3.59,0,0,0-.08.35,3.59,3.59,0,0,1-.08.35c0,.12,0,.24-.06.35s-.09.43-.11.61-.06.34-.07.44l0,.17s0-.06,0-.17,0-.26,0-.45a4.44,4.44,0,0,1,0-.63,2.23,2.23,0,0,1,.05-.36c0-.12,0-.24.07-.36s.12-.48.18-.7a4.46,4.46,0,0,1,.23-.6A3.55,3.55,0,0,1,18.27,51.61Z"/></g><g id="Groupe_645" data-name="Groupe 645"><path id="Tracé_4274" data-name="Tracé 4274" class="cls-12" d="M34.27,87.28l.24-.45a13.32,13.32,0,0,1,.69-1.14l.5-.74.6-.8c.22-.27.45-.55.69-.81s.49-.55.75-.82l.39-.39.4-.37c.27-.25.54-.48.81-.7a9.24,9.24,0,0,1,.79-.61l.37-.28.37-.23c.23-.15.44-.29.64-.4l.51-.28.45-.24L42,79.3l-.48.31-.61.44-.35.25c-.13.09-.24.19-.36.29s-.51.4-.77.63-.53.45-.78.71l-.39.37-.39.4c-.26.25-.5.52-.75.79s-.47.54-.69.8-.43.52-.62.77-.38.49-.54.71c-.33.44-.59.82-.76,1.09Z"/><path id="Tracé_4275" data-name="Tracé 4275" class="cls-12" d="M34.7,86.7a1.36,1.36,0,0,1,.12-.12,3.51,3.51,0,0,1,.36-.3,2.71,2.71,0,0,1,.25-.17l.3-.18.34-.16a2.17,2.17,0,0,1,.35-.15l.36-.13c.11,0,.24-.06.35-.09l.34-.08a1.54,1.54,0,0,1,.3,0l.46,0h.17l-.16.06-.44.13a1.82,1.82,0,0,0-.29.08l-.32.11-.34.11-.35.13-.34.13c-.11.06-.22.1-.33.15l-.31.14-.27.13c-.16.09-.31.15-.4.21Z"/><path id="Tracé_4276" data-name="Tracé 4276" class="cls-12" d="M35.77,84.81a4,4,0,0,1,0-.6,8.1,8.1,0,0,1,.16-1.3,6.14,6.14,0,0,1,.17-.68,4.94,4.94,0,0,1,.2-.58c.07-.17.14-.3.18-.4l.08-.15,0,.16a4,4,0,0,1-.1.42c0,.17-.07.38-.12.6a3.2,3.2,0,0,0-.07.33c0,.11,0,.23-.07.34s-.09.47-.14.68-.09.42-.12.6-.07.32-.1.42Z"/></g><g id="Groupe_646" data-name="Groupe 646"><path id="Tracé_4277" data-name="Tracé 4277" class="cls-14" d="M48.8,84.74s.18-.13.5-.33.79-.48,1.36-.79,1.25-.66,2-1l1.15-.5c.4-.16.8-.33,1.21-.48s.82-.3,1.23-.42.81-.26,1.21-.36.77-.21,1.14-.28.71-.16,1-.2l.88-.13c.27,0,.5,0,.69-.06l.6,0-.59.09-.68.1c-.26,0-.55.12-.86.18s-.66.15-1,.24-.74.2-1.13.31-.79.24-1.19.37-.8.29-1.22.43l-1.2.46c-.39.17-.78.32-1.15.49l-1.07.48-1,.45c-.58.28-1.06.53-1.4.71Z"/><path id="Tracé_4278" data-name="Tracé 4278" class="cls-14" d="M55.28,81.19a1.62,1.62,0,0,1,.1-.18,5.45,5.45,0,0,1,.31-.45l.24-.28.28-.3.32-.3.35-.29.36-.27c.12-.09.25-.16.37-.24l.35-.2a2.59,2.59,0,0,1,.33-.17l.51-.21.19-.07-.17.12-.46.29-.3.2-.33.23-.35.25-.35.27-.34.28-.33.28-.3.27a2.09,2.09,0,0,0-.26.25c-.16.15-.3.28-.39.38Z"/></g><g id="Groupe_650" data-name="Groupe 650"><g id="Groupe_648" data-name="Groupe 648"><path id="Tracé_4279" data-name="Tracé 4279" class="cls-20" d="M35.3,66.92c-1.12-.82-1.58-2.17-.46-4.35l-.12-.94S32,64.8,35.3,66.92Z"/><g id="Groupe_647" data-name="Groupe 647"><path id="Tracé_4280" data-name="Tracé 4280" class="cls-19" d="M31.45,74c-7.33-2.43-7.56-6.9-7.53-7.72a8.11,8.11,0,0,0,.44,4.25c2.25,6,14.54,7,19.28,3.12-.08-.56-.17-1.15-.26-1.72C41.85,73,37,75.87,31.45,74Z"/><path id="Tracé_4281" data-name="Tracé 4281" class="cls-18" d="M31.45,74C37,75.87,41.85,73,43.38,72c-.31-2-.62-3.83-.62-3.83s-5.14.51-7.46-1.19c-3.33-2.13-.58-5.3-.58-5.3s-1-.6-3.81-.46-3.54-.31-3.54-.31a9.16,9.16,0,0,0-3.45,5.44C23.89,67.12,24.12,71.59,31.45,74Z"/></g></g><g id="Groupe_649" data-name="Groupe 649"><path id="Tracé_4282" data-name="Tracé 4282" class="cls-18" d="M30.7,71.57c-1.63-.86-3.18-1.44-4.36-2.94a4.33,4.33,0,0,1-.89-3.29c.19-1.28,1-2,1.61-3,.13-.22,0-.46-.22-.21s-.8.66-1.08,1.09a7.59,7.59,0,0,0-.77,1.5,5.27,5.27,0,0,0-.06,3.42c.64,2.24,3.17,4,5.37,4.32C30.6,72.47,31,71.73,30.7,71.57Z"/><path id="Tracé_4283" data-name="Tracé 4283" class="cls-18" d="M32.65,72.57a2.45,2.45,0,0,1-1-.5c-.17-.2-.46.29-.36.46a1.16,1.16,0,0,0,1.2.58C32.58,73.08,32.87,72.66,32.65,72.57Z"/></g></g><g id="Groupe_651" data-name="Groupe 651"><path id="Tracé_4284" data-name="Tracé 4284" class="cls-4" d="M41.84,84.43a14.49,14.49,0,0,0-5.34,2.44s-.09.23,0,.16a21.32,21.32,0,0,1,5.3-2.35C41.88,84.64,42,84.39,41.84,84.43Z"/><path id="Tracé_4285" data-name="Tracé 4285" class="cls-4" d="M43.91,84.09c-.3,0-.6,0-.91.06-.1,0-.21.28-.1.27l.91-.06C43.92,84.35,44,84.08,43.91,84.09Z"/></g><g id="Groupe_652" data-name="Groupe 652"><path id="Tracé_4286" data-name="Tracé 4286" class="cls-4" d="M6.63,91.39a14.65,14.65,0,0,0-5.86.29c-.06,0-.17.18-.06.16A21.61,21.61,0,0,1,6.5,91.6C6.59,91.61,6.77,91.41,6.63,91.39Z"/><path id="Tracé_4287" data-name="Tracé 4287" class="cls-4" d="M8.68,91.84l-.86-.28c-.1,0-.3.18-.2.22.29.1.59.17.87.27C8.6,92.09,8.79,91.88,8.68,91.84Z"/></g><g id="Groupe_654" data-name="Groupe 654"><path id="Tracé_4292" data-name="Tracé 4292" class="cls-25" d="M40.92,59.69l-.87,1.45L40,62l5.7,2.25,1.78-1.91-.29-1.52S42.85,59.42,40.92,59.69Z"/><path id="Tracé_4293" data-name="Tracé 4293" class="cls-25" d="M21.5,79.29a26.41,26.41,0,0,0-6.52.48l-.65,2,.16,1.55,7.39,0-.09-1.74Z"/><path id="Tracé_4294" data-name="Tracé 4294" class="cls-25" d="M1.91,63.25l-3.28-.4A18.32,18.32,0,0,0-3,70l.53,1.74,1.89.16L2.3,64.56l-.37-1.25Z"/><path id="Tracé_4295" data-name="Tracé 4295" class="cls-25" d="M17.67,57l.09,2.07.8.46a14.31,14.31,0,0,1,8.14-1.12l.28-.7.78-2A10.93,10.93,0,0,0,17.67,57Z"/><path id="Tracé_4296" data-name="Tracé 4296" class="cls-25" d="M59.25,76.21l-1.64-1.46s-7.49,0-8.15,6.47l0,.08.2,1.06,2.59.9s.89-4.26,7.1-5.81Z"/><path id="Tracé_4297" data-name="Tracé 4297" class="cls-25" d="M54,73.79l.27.36,2.63-.05s.08-.15.21-.43a13.43,13.43,0,0,0,1.06-7.21c-1.91,0-3.16,0-3.16,0l0,0-.4.5s.51,4.2-.67,6.63Z"/></g><g id="Groupe_656" data-name="Groupe 656"><path id="Tracé_4298" data-name="Tracé 4298" class="cls-24" d="M47.2,60s-4.35-1.35-6.28-1.08l-.87,1.45L45.77,62Z"/><g id="Groupe_655" data-name="Groupe 655"><path id="Tracé_4299" data-name="Tracé 4299" class="cls-22" d="M40.05,60.39l0,.82,5.7,2.26L45.77,62Z"/><path id="Tracé_4300" data-name="Tracé 4300" class="cls-23" d="M47.2,60l-1.43,2-.06,1.47,1.78-1.92Z"/></g></g><g id="Groupe_657" data-name="Groupe 657"><path id="Tracé_4301" data-name="Tracé 4301" class="cls-24" d="M21.5,78.54A26.41,26.41,0,0,0,15,79l-.64,2,7.45-.16Z"/><path id="Tracé_4302" data-name="Tracé 4302" class="cls-23" d="M14.34,81.05l.15,1.54,7.39,0-.09-1.75Z"/></g><g id="Groupe_659" data-name="Groupe 659"><path id="Tracé_4303" data-name="Tracé 4303" class="cls-24" d="M1.93,62.57l0-.07-3.29-.4A18.53,18.53,0,0,0-3,69.27l2.09.4S.54,64.54,1.93,62.57Z"/><g id="Groupe_658" data-name="Groupe 658"><path id="Tracé_4305" data-name="Tracé 4305" class="cls-23" d="M1.93,62.57C.54,64.54-1,69.68-1,69.68l.33,1.5L2.3,63.82Z"/></g></g><g id="Groupe_661" data-name="Groupe 661"><path id="Tracé_4306" data-name="Tracé 4306" class="cls-24" d="M17.67,56.27l1,1.5A9.31,9.31,0,0,1,27,57l.79-2A11,11,0,0,0,17.67,56.27Z"/><g id="Groupe_660" data-name="Groupe 660"><path id="Tracé_4307" data-name="Tracé 4307" class="cls-22" d="M17.67,56.27l.09,2.07.8.46.16-1Z"/><path id="Tracé_4308" data-name="Tracé 4308" class="cls-23" d="M18.71,57.78l-.16,1a14.24,14.24,0,0,1,8.14-1.11L27,57A9.28,9.28,0,0,0,18.71,57.78Z"/></g></g><g id="Groupe_663" data-name="Groupe 663"><path id="Tracé_4309" data-name="Tracé 4309" class="cls-24" d="M59.25,75.47,57.61,74s-7.49,0-8.15,6.47l0,.09a8.89,8.89,0,0,1,2.42,1C51.87,79.55,54.57,76.47,59.25,75.47Z"/><g id="Groupe_662" data-name="Groupe 662"><path id="Tracé_4310" data-name="Tracé 4310" class="cls-22" d="M49.47,80.56l.21,1.06,2.59.89-.38-1A8.76,8.76,0,0,0,49.47,80.56Z"/><path id="Tracé_4311" data-name="Tracé 4311" class="cls-23" d="M59.38,76.7l-.13-1.23c-4.68,1-7.38,4.09-7.36,6.06l.39,1S53.16,78.25,59.38,76.7Z"/></g></g><g id="Groupe_665" data-name="Groupe 665"><path id="Tracé_4312" data-name="Tracé 4312" class="cls-22" d="M55.45,69.43A11.48,11.48,0,0,0,55,65.79l-.4.5s.51,4.2-.67,6.62C55,73.13,55.32,71.3,55.45,69.43Z"/><g id="Groupe_664" data-name="Groupe 664"><path id="Tracé_4313" data-name="Tracé 4313" class="cls-23" d="M54.3,73.4l2.63-.05a4.26,4.26,0,0,0,.21-.42L54,73Z"/><path id="Tracé_4314" data-name="Tracé 4314" class="cls-24" d="M58.2,65.71c-1.91,0-3.16,0-3.16,0l0,.06a11.48,11.48,0,0,1,.45,3.64c-.13,1.87-.48,3.7-1.52,3.48L54,73l3.11-.11A13.45,13.45,0,0,0,58.2,65.71Z"/></g></g><g id="Groupe_666" data-name="Groupe 666"><path id="Tracé_4315" data-name="Tracé 4315" class="cls-25" d="M4.68,91.48c-4.53,0-8.2,1.68-8.2,3.76a1.53,1.53,0,0,0,0,.3h0s1.16,5.83,8.24,5.89,8.08-4.34,8.17-6h0c0-.06,0-.12,0-.17C12.89,93.16,9.21,91.48,4.68,91.48Z"/><path id="Tracé_4316" data-name="Tracé 4316" class="cls-25" d="M15.45,61.42c-2.36-3.18-6.17-4.35-8.5-2.61s-2.31,5.72,0,8.9,6.17,4.34,8.5,2.61S17.81,64.59,15.45,61.42Z"/><path id="Tracé_4317" data-name="Tracé 4317" class="cls-25" d="M7.7,87.66h.08A19.79,19.79,0,0,0,9.7,83.18a4.68,4.68,0,0,0-.37-.7C8.39,80.91,5.47,77.3-1.2,77.85c-2,.17-7,1.73-8.61,4.9,0,0,0,.09-.07.13-.33,2.15-.33,2.34-.33,2.34l3.08,4.62S-1.62,86.28,7.7,87.66Z"/><path id="Tracé_4318" data-name="Tracé 4318" class="cls-25" d="M49,86.32c-1.19-2.56-5.49-2.7-9.89-.65a15.53,15.53,0,0,0-4,2.61c-1.86-.76-5.46-1.58-10.69.09A11.53,11.53,0,0,0,16,98.14l.58,1.67,5.82,1.12a9.8,9.8,0,0,1,10.66-5.05c.12-.21.24-.42.35-.63a5.18,5.18,0,0,0,4.18,3.14,10.28,10.28,0,0,0,11.4-9v-.09h0A4.17,4.17,0,0,0,49,86.32Z"/></g><g id="Groupe_668" data-name="Groupe 668"><path id="Tracé_4319" data-name="Tracé 4319" class="cls-26" d="M-3.89,94.92s1.15,5.82,8.23,5.89,8.08-4.34,8.17-6Z"/><path id="Tracé_4320" data-name="Tracé 4320" class="cls-27" d="M12.51,94.62c0,2.07-3.67,3.76-8.2,3.76s-8.2-1.69-8.2-3.76,3.67-3.76,8.2-3.76S12.51,92.54,12.51,94.62Z"/><path id="Tracé_4321" data-name="Tracé 4321" class="cls-28" d="M11.42,94.31c0,1.62-3.18,2.94-7.11,2.94s-7.12-1.32-7.12-2.94,3.19-3,7.12-3S11.42,92.68,11.42,94.31Z"/><path id="Tracé_4322" data-name="Tracé 4322" class="cls-29" d="M7.24,94s2.68.28,2.62-.5-3-1.87-7.39-1.28-6.33,2.53-2.81,3.22,8.39,1.21,9.55.15S8.93,94.41,7.24,94Z"/><g id="Groupe_667" data-name="Groupe 667"><path id="Tracé_4323" data-name="Tracé 4323" class="cls-30" d="M5.93,94.64s.81.31.73.65S5.21,94.41,5.93,94.64Z"/><path id="Tracé_4324" data-name="Tracé 4324" class="cls-30" d="M6,93.46s.84-.59,1.13-.36S5.32,94,6,93.46Z"/><path id="Tracé_4325" data-name="Tracé 4325" class="cls-30" d="M4.65,93.16s.5-.66.8-.48S4.25,93.76,4.65,93.16Z"/><path id="Tracé_4326" data-name="Tracé 4326" class="cls-30" d="M3.32,93.12s.2-.53.43-.46S3.18,93.58,3.32,93.12Z"/><path id="Tracé_4327" data-name="Tracé 4327" class="cls-30" d="M2,93.22s.12-.31.25-.27S1.89,93.49,2,93.22Z"/><path id="Tracé_4328" data-name="Tracé 4328" class="cls-30" d="M4.19,94.52s.38.4.23.57S3.84,94.2,4.19,94.52Z"/><path id="Tracé_4329" data-name="Tracé 4329" class="cls-30" d="M2.31,94.57s.21.22.13.31S2.12,94.39,2.31,94.57Z"/></g></g><g id="Groupe_672" data-name="Groupe 672"><g id="Groupe_670" data-name="Groupe 670"><path id="Tracé_4330" data-name="Tracé 4330" class="cls-27" d="M15.08,60.79c2.37,3.18,2.39,7.16.05,8.9s-6.14.57-8.5-2.61-2.39-7.16,0-8.9S12.71,57.62,15.08,60.79Z"/><path id="Tracé_4331" data-name="Tracé 4331" class="cls-28" d="M14.53,61.17c2.18,2.92,2.29,6.53.25,8s-5.46.38-7.64-2.55-2.29-6.54-.25-8.06S12.35,58.24,14.53,61.17Z"/><path id="Tracé_4332" data-name="Tracé 4332" class="cls-29" d="M9.65,61.63s-1.1-2.57-.73-2.84,3.5.77,5.19,3.66S15.4,67.59,15,68s-2-1.42-2-1.42,1,2.11.6,2.37-4.4.56-6.73-4.19C5.56,62,6.23,56.37,9.65,61.63Z"/><g id="Groupe_669" data-name="Groupe 669"><path id="Tracé_4333" data-name="Tracé 4333" class="cls-30" d="M11.69,66.87s0,.64-.26.67S11.66,66.32,11.69,66.87Z"/><path id="Tracé_4334" data-name="Tracé 4334" class="cls-30" d="M13.78,65s.5,0,.52.21S13.35,65.05,13.78,65Z"/><path id="Tracé_4335" data-name="Tracé 4335" class="cls-30" d="M12.69,63.89s.54-.16.64,0S12.24,64.07,12.69,63.89Z"/><path id="Tracé_4336" data-name="Tracé 4336" class="cls-30" d="M11.94,62.44s.54-.17.63,0S11.48,62.61,11.94,62.44Z"/><path id="Tracé_4337" data-name="Tracé 4337" class="cls-30" d="M11,61s0-.56.23-.6S11,61.5,11,61Z"/><path id="Tracé_4338" data-name="Tracé 4338" class="cls-30" d="M9.67,64.88s-.6.19-.7,0S10.16,64.68,9.67,64.88Z"/><path id="Tracé_4339" data-name="Tracé 4339" class="cls-30" d="M8.94,63.64s-.8.12-.9-.19S9.61,63.49,8.94,63.64Z"/><path id="Tracé_4340" data-name="Tracé 4340" class="cls-30" d="M8.59,62.36s-1.09-.13-1.19-.48S9.51,62.42,8.59,62.36Z"/><path id="Tracé_4341" data-name="Tracé 4341" class="cls-30" d="M10.77,66s-.34.54-.58.44S11,65.55,10.77,66Z"/></g></g><g id="Groupe_671" data-name="Groupe 671"><path id="Tracé_4342" data-name="Tracé 4342" class="cls-4" d="M6.42,65.39A7.6,7.6,0,0,1,6,59.83c.06-.16-.1-.12-.15,0a7.25,7.25,0,0,0,.37,5.87C6.26,65.83,6.47,65.51,6.42,65.39Z"/><path id="Tracé_4343" data-name="Tracé 4343" class="cls-4" d="M7,66.28A2,2,0,0,1,6.75,66c-.08-.09-.24.15-.17.22a1.86,1.86,0,0,0,.27.29C6.92,66.57,7.06,66.34,7,66.28Z"/></g></g><g id="Groupe_676" data-name="Groupe 676"><g id="Groupe_674" data-name="Groupe 674"><path id="Tracé_4344" data-name="Tracé 4344" class="cls-18" d="M32.45,94.32C34,91.14,35,89,35.44,88c-1.5-.78-5.38-2.18-11.43-.25a11.55,11.55,0,0,0-8.36,9.77l5.86,1.83S23.93,92.2,32.45,94.32Z"/><path id="Tracé_4345" data-name="Tracé 4345" class="cls-31" d="M15.65,97.52l.58,1.67,5.83,1.12-.55-1Z"/><g id="Groupe_673" data-name="Groupe 673"><path id="Tracé_4346" data-name="Tracé 4346" class="cls-20" d="M21.52,99.35l.54,1a9.78,9.78,0,0,1,10.66-5.06l-.27-.93C23.93,92.2,21.52,99.35,21.52,99.35Z"/><path id="Tracé_4347" data-name="Tracé 4347" class="cls-31" d="M35.44,88c-.45,1-1.43,3.14-3,6.32l.27.93c2.34-4.24,3.19-6.09,3.19-6.09C35.73,88.78,35.58,88.39,35.44,88Z"/></g></g><g id="Groupe_675" data-name="Groupe 675"><path id="Tracé_4348" data-name="Tracé 4348" class="cls-18" d="M28.83,87.32a10.92,10.92,0,0,1-2,0,11.53,11.53,0,0,0-2.1.44,12.54,12.54,0,0,0-3.64,1.86,16.09,16.09,0,0,0-2.71,2.57,10.08,10.08,0,0,0-2,3.3c-.12.41.23.45.41.12a16,16,0,0,1,5-5.63,12.29,12.29,0,0,1,3.62-1.62,11.47,11.47,0,0,1,2.47-.4,2.2,2.2,0,0,0,.94-.19C28.91,87.75,29.1,87.24,28.83,87.32Z"/><path id="Tracé_4349" data-name="Tracé 4349" class="cls-18" d="M31.08,87.31a5.36,5.36,0,0,0-1.06,0c-.2,0-.44.51-.2.52a5.77,5.77,0,0,0,1.1,0C31.08,87.82,31.32,87.35,31.08,87.31Z"/></g></g><g id="Groupe_679" data-name="Groupe 679"><path id="Tracé_4350" data-name="Tracé 4350" class="cls-18" d="M6.8,85.71,9,81.85C8,80.29,5.1,76.68-1.57,77.23c-2,.17-7,1.72-8.61,4.9L-7,87.29S-2.19,83,6.8,85.71Z"/><g id="Groupe_677" data-name="Groupe 677"><path id="Tracé_4352" data-name="Tracé 4352" class="cls-31" d="M9.33,82.56a5.83,5.83,0,0,0-.37-.7c-.36.64-1,1.8-2.17,3.86L7.32,87v0H7.4A19.83,19.83,0,0,0,9.33,82.56Z"/><path id="Tracé_4353" data-name="Tracé 4353" class="cls-20" d="M6.79,85.71C-2.19,83-7,87.29-7,87.29l-.5,1.93S-2,85.66,7.33,87v0Z"/></g><g id="Groupe_678" data-name="Groupe 678"><path id="Tracé_4354" data-name="Tracé 4354" class="cls-18" d="M6.77,80.27c-.7-1.1-2.08-1.54-3.25-2a11.47,11.47,0,0,0-5-.52,10.74,10.74,0,0,0-7.35,3.39c-.12.15-.11.54.14.32a12.09,12.09,0,0,1,7.8-3c2.78-.14,5,.94,7.25,2.33C6.6,81,6.88,80.46,6.77,80.27Z"/><path id="Tracé_4355" data-name="Tracé 4355" class="cls-18" d="M7.71,81.18a1.58,1.58,0,0,0-.29-.34c-.13-.12-.39.3-.28.42a1.21,1.21,0,0,1,.24.35c0,.11.22,0,.25-.08A.35.35,0,0,0,7.71,81.18Z"/></g></g><g id="Groupe_681" data-name="Groupe 681"><path id="Tracé_4356" data-name="Tracé 4356" class="cls-26" d="M32.35,92s.33,5.18,4.9,5.76a10.27,10.27,0,0,0,11.4-9v-.09C46.39,91.64,32.35,92,32.35,92Z"/><path id="Tracé_4357" data-name="Tracé 4357" class="cls-27" d="M48.58,85.7c1.19,2.56-1.09,6.75-5.49,8.8s-9.28,1.17-10.47-1.39,1.67-6,6.06-8.07S47.38,83.14,48.58,85.7Z"/><path id="Tracé_4358" data-name="Tracé 4358" class="cls-28" d="M47.92,85.9c1.19,2-1.15,5.49-5.19,7.37s-8.42,1.31-9.4-.8,1.71-5.16,5.76-7C42.41,83.94,46.61,83.7,47.92,85.9Z"/><path id="Tracé_4359" data-name="Tracé 4359" class="cls-29" d="M41.71,87.71l5.34-1.65s2.33,1.18-1.57,4.61-9,4.15-10.89,2.31c-1.12-1.43.6-5.62,6.49-7.7,1.4-.41,3.15-.47,3.53,0S41.71,87.71,41.71,87.71Z"/><g id="Groupe_680" data-name="Groupe 680"><path id="Tracé_4360" data-name="Tracé 4360" class="cls-30" d="M38.28,90.53s-2.22,2-2.78,1.65S37.36,90.86,38.28,90.53Z"/><path id="Tracé_4361" data-name="Tracé 4361" class="cls-30" d="M41.15,87.35a2.89,2.89,0,0,1,.73-1.74C42.16,85.33,41.94,86.85,41.15,87.35Z"/><path id="Tracé_4362" data-name="Tracé 4362" class="cls-30" d="M39.66,87.89a2.17,2.17,0,0,1,.11-1.26C40.05,86,40.05,87,39.66,87.89Z"/><path id="Tracé_4363" data-name="Tracé 4363" class="cls-30" d="M38.4,87.64s.25.67,0,.81S38.14,87.07,38.4,87.64Z"/><path id="Tracé_4364" data-name="Tracé 4364" class="cls-30" d="M36.82,88.68s.46.44.31.64S36.41,88.33,36.82,88.68Z"/><path id="Tracé_4365" data-name="Tracé 4365" class="cls-30" d="M36,89.74s.43.24.37.43S35.59,89.56,36,89.74Z"/><path id="Tracé_4366" data-name="Tracé 4366" class="cls-30" d="M39.15,92.94s-.25-.43-.09-.56S39.39,93.29,39.15,92.94Z"/><path id="Tracé_4367" data-name="Tracé 4367" class="cls-30" d="M40.3,92.49s-.5-.47-.35-.7S40.76,92.87,40.3,92.49Z"/><path id="Tracé_4368" data-name="Tracé 4368" class="cls-30" d="M41.93,91.62s-.58-.37-.47-.63S42.45,91.91,41.93,91.62Z"/><path id="Tracé_4369" data-name="Tracé 4369" class="cls-30" d="M43.62,90.33s-.87-.13-.87-.49S44.36,90.4,43.62,90.33Z"/><path id="Tracé_4370" data-name="Tracé 4370" class="cls-30" d="M45.31,88.66s-1,.26-1.16-.12S46.15,88.39,45.31,88.66Z"/></g></g></g><path id="Tracé_4371" data-name="Tracé 4371" class="cls-12" d="M39.52,77.3c-.72.37-1.08.92-1.92.93-.43,0-1.16-.57-1.55-.57a2.14,2.14,0,0,0-1.71.62C32.87,79.61,34,82.39,33.12,84c-.1.19.05.27.17.1a4.47,4.47,0,0,0,.65-1.6c.3-1.34-.24-3.41,1.49-4.11.55-.22,1.51.33,2.12.32s1.21-.63,1.76-1C39.46,77.56,39.89,77.11,39.52,77.3Z"/><path id="Tracé_4372" data-name="Tracé 4372" class="cls-12" d="M20.6,70.28a2.77,2.77,0,0,0-2.44.88c-.44.41-.8.89-1.23,1.3a8.76,8.76,0,0,1-2.47,1.31,8.28,8.28,0,0,0-4.39,5c-.15.38-.25.79-.1.49a19.17,19.17,0,0,1,2-3.17A7.85,7.85,0,0,1,15.35,74a6.22,6.22,0,0,0,2-1.29c1-1,1.56-1.84,3.13-2C20.59,70.67,20.81,70.31,20.6,70.28Z"/></g><g id="Groupe_684" data-name="Groupe 684"><path id="Tracé_4373" data-name="Tracé 4373" class="cls-32" d="M36.32,69.54a.4.4,0,0,0-.31.19.62.62,0,0,0-.16.37c0,.1,0,.25.16.26s.46-.38.46-.6S36.43,69.54,36.32,69.54Z"/><path id="Tracé_4374" data-name="Tracé 4374" class="cls-32" d="M41.11,71c-.25,0-.52.64-.24.64S41.4,71,41.11,71Z"/><path id="Tracé_4375" data-name="Tracé 4375" class="cls-32" d="M30.94,67.77c-.33,0-.67.82-.31.82S31.29,67.77,30.94,67.77Z"/><path id="Tracé_4376" data-name="Tracé 4376" class="cls-32" d="M35.37,72.6h0s0,0,0,0-.19,0-.26,0a.63.63,0,0,0-.19.38.7.7,0,0,0,0,.25.14.14,0,0,0,.17.09.09.09,0,0,0,.06,0,.24.24,0,0,0,.09-.08.55.55,0,0,0,.2-.39v0C35.42,72.72,35.43,72.62,35.37,72.6Z"/><path id="Tracé_4377" data-name="Tracé 4377" class="cls-32" d="M39.05,63.36a.19.19,0,0,0-.18,0c-.15,0-.26.1-.35.23s-.08.66.28.6a.55.55,0,0,0,.34-.37C39.19,63.67,39.21,63.45,39.05,63.36Z"/><path id="Tracé_4378" data-name="Tracé 4378" class="cls-32" d="M34.38,57.8c0-.22-.3-.18-.41,0a.41.41,0,0,0-.13.46c.11.2.35,0,.41-.12a.08.08,0,0,0,0,0A.36.36,0,0,0,34.38,57.8Z"/><path id="Tracé_4379" data-name="Tracé 4379" class="cls-32" d="M52.63,64.83a.27.27,0,0,1-.12,0c-.16-.09-.32.21-.34.31s0,.36.2.36.35-.29.33-.47S52.71,64.85,52.63,64.83Z"/><path id="Tracé_4380" data-name="Tracé 4380" class="cls-32" d="M27.49,64.3c-.13,0-.26.32-.12.32S27.63,64.3,27.49,64.3Z"/><path id="Tracé_4381" data-name="Tracé 4381" class="cls-32" d="M21.48,60.41l0,0c-.06.08-.06.24,0,.2s.12-.09.13-.12a.19.19,0,0,0,0-.14C21.62,60.29,21.51,60.37,21.48,60.41Z"/><path id="Tracé_4382" data-name="Tracé 4382" class="cls-32" d="M18,63.06c-.14,0-.28.34-.13.34S18.13,63.06,18,63.06Z"/><path id="Tracé_4383" data-name="Tracé 4383" class="cls-32" d="M28,69.43c-.11,0-.22.28-.1.28S28.15,69.43,28,69.43Z"/><path id="Tracé_4384" data-name="Tracé 4384" class="cls-32" d="M36.2,51.6c-.1,0-.21.26-.1.26S36.31,51.6,36.2,51.6Z"/><path id="Tracé_4385" data-name="Tracé 4385" class="cls-32" d="M13.11,56.53a.13.13,0,0,0-.07-.06.08.08,0,0,0,0-.07.32.32,0,0,0-.28.08.26.26,0,0,0-.05.28c.11.21.33.1.43-.06A.2.2,0,0,0,13.11,56.53Z"/><path id="Tracé_4386" data-name="Tracé 4386" class="cls-32" d="M3.51,58.13a.21.21,0,0,0-.2-.08l-.09,0a.16.16,0,0,0-.08.06c-.1.1-.2.34-.05.44h0c0,.06.07.12.13.12a.34.34,0,0,0,.27-.23h0l0-.07A.29.29,0,0,0,3.51,58.13Z"/><path id="Tracé_4387" data-name="Tracé 4387" class="cls-32" d="M.41,61.14h0A.3.3,0,0,0,.46,61a.08.08,0,0,0,0-.06.15.15,0,0,0-.14-.17H.24c-.11,0-.2.11-.22.23a.33.33,0,0,0,0,.24c.09.16.27.08.37-.06Z"/><path id="Tracé_4390" data-name="Tracé 4390" class="cls-32" d="M6.61,75.33c0-.13-.16-.23-.3-.15a.43.43,0,0,0-.11.12.29.29,0,0,0-.1.25.3.3,0,0,0,.24.3c.13,0,.22-.12.27-.24l0-.07A.26.26,0,0,0,6.61,75.33Z"/><path id="Tracé_4391" data-name="Tracé 4391" class="cls-32" d="M2.89,79a.11.11,0,0,0-.12,0h0c-.07,0-.15.1-.17.16a.2.2,0,0,0,0,.21h0l0,0h0a.14.14,0,0,0,.14,0C2.9,79.36,3,79.13,2.89,79Z"/><path id="Tracé_4398" data-name="Tracé 4398" class="cls-32" d="M1,88.53H.88a.32.32,0,0,0-.2.1A.31.31,0,0,0,.62,89,.18.18,0,0,0,.85,89C1,89,1.24,88.55,1,88.53Z"/><path id="Tracé_4399" data-name="Tracé 4399" class="cls-32" d="M11.69,90c-.14-.17-.35.07-.33.24v0s0,.12.05.12a.35.35,0,0,0,.24-.1A.23.23,0,0,0,11.69,90Z"/><path id="Tracé_4400" data-name="Tracé 4400" class="cls-32" d="M17.13,86.93a.07.07,0,0,0,0-.07.14.14,0,0,0-.19-.06h0a.37.37,0,0,0-.14.29.15.15,0,0,0,0,.13c.15.18.34,0,.37-.2A.38.38,0,0,0,17.13,86.93Z"/><path id="Tracé_4401" data-name="Tracé 4401" class="cls-32" d="M21.17,84.82c-.31,0-.38.65,0,.6l0,0,.08,0C21.45,85.26,21.47,84.81,21.17,84.82Z"/><path id="Tracé_4402" data-name="Tracé 4402" class="cls-32" d="M20.37,73.87a.3.3,0,0,0,0-.08.07.07,0,0,0,0-.07.4.4,0,0,0-.54.18.41.41,0,0,0,0,.4.29.29,0,0,0,.31.12.41.41,0,0,0,.26-.41A.33.33,0,0,0,20.37,73.87Z"/><path id="Tracé_4403" data-name="Tracé 4403" class="cls-32" d="M13.36,75.92h0s0-.1,0-.1a.24.24,0,0,0-.27.2v0c0,.14.13.15.23.1S13.43,76,13.36,75.92Z"/><path id="Tracé_4404" data-name="Tracé 4404" class="cls-32" d="M22.71,93.57a.23.23,0,0,0-.2.08.52.52,0,0,0-.21.49.28.28,0,0,0,.3.22.5.5,0,0,0,.32-.25.35.35,0,0,0-.08-.48A.31.31,0,0,0,22.71,93.57Z"/><path id="Tracé_4405" data-name="Tracé 4405" class="cls-32" d="M22,96.16h0a.15.15,0,0,0-.22,0h0a.33.33,0,0,0-.13.19h0a.19.19,0,0,0,.07.26.18.18,0,0,0,.23,0C22,96.54,22.21,96.28,22,96.16Z"/><path id="Tracé_4406" data-name="Tracé 4406" class="cls-32" d="M18.54,95.1h-.08c-.1,0-.18.24-.09.23h.09C18.53,95.31,18.64,95.11,18.54,95.1Z"/><path id="Tracé_4407" data-name="Tracé 4407" class="cls-32" d="M31.44,90s0,0-.05,0H31.3a.22.22,0,0,0-.21.07h0a.56.56,0,0,0-.09.17h0v0s0,0,0,.05a.19.19,0,0,0,0,.13c.15.3.53,0,.5-.25A.22.22,0,0,0,31.44,90Z"/><path id="Tracé_4408" data-name="Tracé 4408" class="cls-32" d="M39.5,82.52a.28.28,0,0,0-.37-.11h0a.29.29,0,0,0-.17.14.44.44,0,0,0-.06.16.34.34,0,0,0,0,.2.16.16,0,0,0,.15.17.34.34,0,0,0,.36,0A.43.43,0,0,0,39.5,82.52Z"/><path id="Tracé_4409" data-name="Tracé 4409" class="cls-32" d="M44.36,80.25s0,0,0,0h-.09c-.06,0-.12.08-.13.12s0,.24.08.25a.22.22,0,0,0,.19-.22A.09.09,0,0,0,44.36,80.25Z"/><path id="Tracé_4410" data-name="Tracé 4410" class="cls-32" d="M53.77,87.17c0-.1-.13-.15-.21-.19s-.17,0-.23.16a.4.4,0,0,0-.12.27.23.23,0,0,0,.16.23.3.3,0,0,0,.31-.15A.46.46,0,0,0,53.77,87.17Z"/><path id="Tracé_4411" data-name="Tracé 4411" class="cls-32" d="M53.81,93.84c0-.07-.13-.07-.19-.06a.1.1,0,0,0-.08,0,.2.2,0,0,0-.14.06c-.17.15-.14.44.13.4a.36.36,0,0,0,.29-.41Z"/><path id="Tracé_4412" data-name="Tracé 4412" class="cls-32" d="M57.58,83.58a.12.12,0,0,0-.1,0,.4.4,0,0,0-.15.1.37.37,0,0,0,0,.52l0,0c.19.12.4-.15.43-.31A.32.32,0,0,0,57.58,83.58Z"/><path id="Tracé_4413" data-name="Tracé 4413" class="cls-32" d="M62.12,81a.28.28,0,0,0-.2,0,.59.59,0,0,0-.4.66.33.33,0,0,0,.38.22.51.51,0,0,0,.46-.42A.36.36,0,0,0,62.12,81Z"/><path id="Tracé_4414" data-name="Tracé 4414" class="cls-32" d="M58.25,71.55a.22.22,0,0,0-.27-.1l0,0h0a.37.37,0,0,0-.22.31.44.44,0,0,0,.1.41.23.23,0,0,0,.25,0,.49.49,0,0,0,.23-.35A.38.38,0,0,0,58.25,71.55Z"/><path id="Tracé_4415" data-name="Tracé 4415" class="cls-32" d="M61.92,71.39c-.07-.11-.17-.09-.26,0s-.27.28-.2.43l0,.1c.06.09.19,0,.25,0a.49.49,0,0,0,.13-.27C61.91,71.53,62,71.43,61.92,71.39Z"/><path id="Tracé_4416" data-name="Tracé 4416" class="cls-32" d="M46.4,74.28a.16.16,0,0,0-.15,0c-.06,0-.14.1-.15.14s0,.27.12.3a.31.31,0,0,0,.33-.24.18.18,0,0,0-.12-.23Z"/></g></g></g></g></g></g><g id="Salades" class="cls-33"><text class="cls-34" transform="translate(56 32)">Salades</text></g></g></svg>