<svg id="Calque_1" data-name="Calque 1" xmlns="http://www.w3.org/2000/svg" xmlns:xlink="http://www.w3.org/1999/xlink" viewBox="0 0 147 110"><defs><style>.cls-1{fill:none;}.cls-2{fill:#fff;}.cls-3{clip-path:url(#clip-path);}.cls-4,.cls-5{fill:#ec9936;}.cls-13,.cls-25,.cls-5,.cls-8{opacity:0.55;}.cls-13,.cls-23,.cls-24,.cls-25,.cls-26,.cls-27,.cls-5,.cls-8{isolation:isolate;}.cls-6{fill:#6f9e23;}.cls-7{fill:#9fcc29;}.cls-8{fill:#b87936;}.cls-9{fill:#ffcf08;}.cls-10{fill:#efa708;}.cls-11{fill:#f73333;}.cls-12,.cls-13{fill:#d63333;}.cls-14{fill:#ea3333;}.cls-15{fill:#c91d1d;}.cls-16{fill:#c92222;}.cls-17{fill:#ff7e70;}.cls-18{fill:#db4c51;}.cls-19{fill:#f27162;}.cls-20{fill:#ea8d1e;}.cls-21{fill:#f89f16;}.cls-22,.cls-24,.cls-25{fill:#f9c22d;}.cls-23{fill:#e39700;}.cls-23,.cls-24{opacity:0.32;}.cls-27{font-size:22px;font-family:SofiaProSemiBold, Sofia Pro;}</style><clipPath id="clip-path"><rect class="cls-1" width="147" height="110" rx="6"/></clipPath></defs><title>app-icon</title><g id="Groupe_1709" data-name="Groupe 1709"><rect id="Rectangle_16-3" data-name="Rectangle 16-3" class="cls-2" width="147" height="110" rx="6"/><g class="cls-3"><g id="Groupe_de_masques_5" data-name="Groupe de masques 5"><g id="Groupe_380" data-name="Groupe 380"><path id="Tracé_2093" data-name="Tracé 2093" class="cls-4" d="M124.35,83.44,65.23,93.08l.52,8.22,97.84-1.17,1.16-6.92Z"/><path id="Tracé_2094" data-name="Tracé 2094" class="cls-5" d="M124.35,83.44,65.23,93.08l.52,8.22,42.54-.5c.61-2.51,1.66-4.87,4.15-5.91a21.9,21.9,0,0,1,11.94-1c3.78.64,6.64,3.63,8.89,6.55l30.32-.36,1.17-6.92Z"/><path id="Tracé_2095" data-name="Tracé 2095" class="cls-6" d="M147,94.65C138.8,93,130.35,93,122,93.29c-5.74.21-13.55-.34-18.83,1.92-10.66,4.55-19.44,1.92-29.83,4.15-2.51.53-5.15,1.1-7.6.36S61.14,96.43,61.85,94s3.55-3.44,6-4a183.79,183.79,0,0,1,18.31-3.42,205,205,0,0,1,81.37,5.31c-2,3.06-5.94,4.42-9.62,4.49S150.63,95.36,147,94.65Z"/><path id="Tracé_2096" data-name="Tracé 2096" class="cls-7" d="M77.92,98.8,62.61,97.37A9.77,9.77,0,0,1,58,96.14c-1.35-.91-2.18-2.8-1.37-4.2s3-1.64,4.69-1.09,3.14,1.6,4.86,1.85c1.91.26,3.79-.49,5.66-1A33.46,33.46,0,0,1,78.27,91c3.1-.15,6.21-.19,9.32-.23,8.83-.11,15.94-3,24.78-3.11,7.73-.09,17.19,2.58,24.92,2.48,10.24-.13,20.55-.26,30.57-2.34,1.83-.38,4-.71,5.3.67s.48,4.06-1.2,5.16-3.81,1.14-5.82,1.14l-3.95,0a26.38,26.38,0,0,0-5.88.46c-3.11.73-6,2.58-9.15,2.66S141,96.22,138,95c-8.55-3.62-18.15-3.48-27.43-3.28-4,.09-8.06.19-11.73,1.71-3.23,1.33-6,3.69-9.27,4.84C85.86,99.51,81.82,99.16,77.92,98.8Z"/><path id="Tracé_2097" data-name="Tracé 2097" class="cls-8" d="M116.24,89.89a11.71,11.71,0,0,1,4.13-.15c3.61.15,7.22,0,10.82,0-6.28-.7-13-2.18-18.82-2.11-8.84.11-16,3-24.78,3.11-3.11,0-6.22.07-9.32.23a33.36,33.36,0,0,0-6.46.79c-1.87.46-3.75,1.21-5.66.94a12,12,0,0,1-3.27-1.17c-2.06,3.24,5,2.83,6.74,2.76,3.09-.13,6.11-.06,9.2,0,7.39.23,14.64-1.11,22-1.61a39.53,39.53,0,0,1,9.75-1l3.93-.07C115.08,91,115.44,90.11,116.24,89.89Z"/><path id="Tracé_2098" data-name="Tracé 2098" class="cls-8" d="M150.61,90.9c2.86-.14,5.7-.42,8.55-.64.47,0,2.37.09,3.76-.08a4.45,4.45,0,0,1-.69-1.46,194.47,194.47,0,0,1-24.49,1.38A90.87,90.87,0,0,0,150.61,90.9Z"/><g id="Groupe_375" data-name="Groupe 375"><path id="Tracé_2099" data-name="Tracé 2099" class="cls-9" d="M61.61,87.3l.25,5.79,53-2.3-.61-4.71-1.9-4.32-35.52-.49Z"/><path id="Tracé_2100" data-name="Tracé 2100" class="cls-10" d="M61.61,87.3l.25,5.79,53-2.3-.62-4.71Z"/></g><g id="Groupe_376" data-name="Groupe 376"><path id="Tracé_2101" data-name="Tracé 2101" class="cls-11" d="M111.28,82.8l.66,5.9,51.16.39L162,83.83s-13.16-9.67-26.67-10.12C122.82,73.3,114.23,77,111.28,82.8Z"/><path id="Tracé_2102" data-name="Tracé 2102" class="cls-12" d="M152,78.13a44.85,44.85,0,0,0-16.69-4.42A39.42,39.42,0,0,0,119.54,76Z"/><path id="Tracé_2103" data-name="Tracé 2103" class="cls-13" d="M129.62,85a6.65,6.65,0,0,1,1.69-3.57l-18.24-1.2a11.31,11.31,0,0,0-1.79,2.54l.66,5.9,17.92.13A10.14,10.14,0,0,1,129.62,85Z"/><path id="Tracé_2104" data-name="Tracé 2104" class="cls-14" d="M111.28,82.8l50.71,1s-13.16-9.67-26.67-10.12C122.82,73.3,114.23,77,111.28,82.8Z"/><path id="Tracé_2105" data-name="Tracé 2105" class="cls-15" d="M124,80.25c1.26.34,5.2,2.51,5.66,2.57s-2.55-3.42-2.55-3.42,3.79-1.59,11.65.31c0,0-2.39,1.79-.13,2.88S142,80.43,142,80s6.15.85,9.17,3.62l10.8.22s-13.16-9.67-26.67-10.12c-12.5-.42-21.1,3.28-24,9.09l9.08.18C121.36,81.84,123.14,80,124,80.25Z"/><path id="Tracé_2106" data-name="Tracé 2106" class="cls-16" d="M130.91,76.93c7.27-.1,16,.76,23.85,6.76l7.23.15s-13.16-9.67-26.67-10.12c-12.5-.42-21.1,3.27-24,9.08l4.26.09C118.65,77.87,124.79,77,130.91,76.93Z"/><path id="Tracé_2107" data-name="Tracé 2107" class="cls-17" d="M125.16,82.28c-.07.3-.54.42-1,.28s-.82-.49-.74-.78.54-.42,1-.28S125.24,82,125.16,82.28Z"/><path id="Tracé_2108" data-name="Tracé 2108" class="cls-17" d="M131.53,80.8c-.06.34-.55.5-1.09.36s-.91-.53-.85-.86.54-.49,1.07-.35S131.59,80.46,131.53,80.8Z"/><path id="Tracé_2109" data-name="Tracé 2109" class="cls-17" d="M135.29,81.86c0,.39-.56.59-1.16.43s-1-.61-1-1,.56-.56,1.15-.41S135.33,81.46,135.29,81.86Z"/><path id="Tracé_2110" data-name="Tracé 2110" class="cls-17" d="M145.45,82.05c0,.3-.41.45-.95.31s-1-.49-1-.79.41-.44.94-.31S145.43,81.74,145.45,82.05Z"/></g><g id="Groupe_377" data-name="Groupe 377"><path id="Tracé_2111" data-name="Tracé 2111" class="cls-11" d="M67.47,79.65l1,6.36L119,84.16l-.89-5.23s-12.3-9.64-25.72-9.85C79.46,68.87,70.4,73.16,67.47,79.65Z"/><path id="Tracé_2112" data-name="Tracé 2112" class="cls-13" d="M83.8,77.44c-.07-.29-.13-.58-.18-.88L70.3,75.69a13.1,13.1,0,0,0-2.83,4l1,6.36,19.06-.69C85.18,83.48,84.07,80.55,83.8,77.44Z"/><path id="Tracé_2113" data-name="Tracé 2113" class="cls-14" d="M67.47,79.65l50.67-.72s-12.3-9.65-25.72-9.86C79.46,68.87,70.4,73.16,67.47,79.65Z"/><path id="Tracé_2114" data-name="Tracé 2114" class="cls-15" d="M80.91,76.44c1.32.32,5.43,2.51,5.89,2.55s-2.68-3.57-2.68-3.57S88,73.6,96,75.4c0,0-2.38,2-.12,3s3.33-2.37,3.33-2.84,6,.7,8.86,3.47l10.13-.14s-12.31-9.64-25.72-9.86c-13-.2-22,4.09-25,10.58l9.67-.14C78.18,78.24,80,76.21,80.91,76.44Z"/><path id="Tracé_2115" data-name="Tracé 2115" class="cls-16" d="M88,72.65c7.37-.3,16,.39,23.45,6.37l6.73-.09s-12.3-9.64-25.72-9.86c-13-.2-22,4.09-25,10.58l4.59-.07C75.18,74,81.63,72.91,88,72.65Z"/><path id="Tracé_2116" data-name="Tracé 2116" class="cls-17" d="M82.15,78.58c-.07.32-.55.47-1.07.34s-.87-.5-.79-.82.55-.46,1.06-.33S82.22,78.26,82.15,78.58Z"/><path id="Tracé_2117" data-name="Tracé 2117" class="cls-17" d="M88.66,76.79c0,.36-.55.55-1.1.42s-.94-.54-.89-.9.55-.54,1.09-.41S88.71,76.42,88.66,76.79Z"/><path id="Tracé_2118" data-name="Tracé 2118" class="cls-17" d="M92.47,77.78c0,.42-.56.64-1.17.5s-1-.61-1-1,.57-.62,1.16-.48S92.51,77.37,92.47,77.78Z"/><path id="Tracé_2119" data-name="Tracé 2119" class="cls-17" d="M102.51,77.65c0,.32-.4.48-.93.36s-1-.48-1-.8.4-.47.92-.35S102.49,77.33,102.51,77.65Z"/></g><path id="Tracé_2120" data-name="Tracé 2120" class="cls-18" d="M140.11,71.1s-29.55-3-30.46-1.17,3.66,8.65,9.64,10.17,43.47,2.53,46.64.06l-.09-3.47S155.75,70.21,140.11,71.1Z"/><path id="Tracé_2121" data-name="Tracé 2121" class="cls-19" d="M155.9,78.41a175.74,175.74,0,0,1-21.16-.28c-6.42-.38-13.47.09-19.21-2.89a16.87,16.87,0,0,1-6-4.62c.12,2.45,4.35,8.11,9.73,9.48,6,1.52,43.47,2.52,46.64.06l-.08-3C163.52,78.93,158.74,78.23,155.9,78.41Z"/><path id="Tracé_2122" data-name="Tracé 2122" class="cls-7" d="M122.66,76.33c2.46.8,4.56,2.78,7.15,3,4.13.27,7.46-4.17,11.59-3.92,2.26.14,4.25,1.69,6.51,1.85s4.34-1.09,6.56-1.54c3.24-.65,6.57.44,9.58,1.81s5.91,3.08,9.14,3.76a4.66,4.66,0,0,0,3.38-.26,2,2,0,0,0,.81-2.76c0-.06-.07-.12-.11-.17a3.65,3.65,0,0,0-2.51-.71c-.89-.08-1.95-.46-2.08-1.35-.18-1.17,1.36-1.8,1.91-2.85A2.58,2.58,0,0,0,173.46,70a7,7,0,0,0-3.54-.79c-8.28-.25-16.7,1.28-24.78-.53C139.93,67.5,135.08,65,129.84,64a28,28,0,0,0-19.3,3.27,5.73,5.73,0,0,0-1.94,1.62c-1.2,1.78-.23,4.37,1.52,5.59s4,1.42,6.16,1.41A19.86,19.86,0,0,1,122.66,76.33Z"/><path id="Tracé_2123" data-name="Tracé 2123" class="cls-7" d="M108.42,73.27c1.46.29,2.58,1.51,4,1.91a4.43,4.43,0,0,0,5-2.47,6.07,6.07,0,0,0-.57-5.75,9.73,9.73,0,0,0-4.7-3.61c-4.5-1.78-9.59-1.12-14.27.11s-9.26,3-14.07,3.48c-4,.36-8.11-.15-11.71,1.49a41.62,41.62,0,0,0-5,3.25,8.65,8.65,0,0,1-5.61,1.74,23.3,23.3,0,0,1-3.68-1.11,4.15,4.15,0,0,0-3.69.34,3.18,3.18,0,0,0-.43,4.21,5,5,0,0,0,4.08,1.91,12.88,12.88,0,0,0,4.54-1,21.15,21.15,0,0,1,4.48-1.32c4.37-.58,9,2,13.09.43,2.91-1.09,5-4.08,8.08-4.5,4.52-.62,8.43,4.6,12.9,3.66C103.5,75.5,105.72,72.73,108.42,73.27Z"/><path id="Tracé_2124" data-name="Tracé 2124" class="cls-6" d="M109.05,72c-5.43-1.22-10.24,2.37-15.52,1.88,2.39,1.24,4.74,2.69,7.27,2.16,2.7-.57,4.92-3.34,7.62-2.8,1.46.29,2.58,1.51,4,1.91a4.07,4.07,0,0,0,3.08-.47C113.46,74.18,111.51,72.59,109.05,72Z"/><g id="Groupe_378" data-name="Groupe 378"><path id="Tracé_2125" data-name="Tracé 2125" class="cls-8" d="M66,76c5,.65,10,1.1,15.07,1.51,11.18.93,21.78.26,32.92-.74,10.55-1,21,1.64,31.6.38a131.3,131.3,0,0,1,14.13-1.43c2.61,0,5.21,0,7.82-.06h1.24a4.18,4.18,0,0,1-.28-.56,13.5,13.5,0,0,1-1-5.89c-7.49,0-15,1.12-22.34-.51-5.21-1.17-10-3.69-15.3-4.72a27.9,27.9,0,0,0-14.71,1.14,11.38,11.38,0,0,0-3-1.73c-4.5-1.78-9.59-1.12-14.27.11s-9.25,3-14.07,3.47c-4,.37-8.11-.15-11.71,1.5a40.44,40.44,0,0,0-5,3.25A10.36,10.36,0,0,1,63,73.4C63.49,74.7,62.36,75.48,66,76Z"/></g><g id="Groupe_379" data-name="Groupe 379"><path id="Tracé_2126" data-name="Tracé 2126" class="cls-6" d="M77.85,71.66c4-1.75,7.07-3.3,11.28-1.38,3.52,1.61,6.37,2.44,10.13,1.22a30,30,0,0,1,7-1.7c3.41-.28,7.63,3.75,11,3.13a1.79,1.79,0,0,0,.13-.22,6.1,6.1,0,0,0-.56-5.75,9.8,9.8,0,0,0-4.71-3.61c-4.5-1.78-9.59-1.12-14.27.11s-9.25,3-14.07,3.47c-4,.37-8.11-.14-11.71,1.5a23.93,23.93,0,0,0-3.84,2.43C71.5,72.26,75,72.91,77.85,71.66Z"/><path id="Tracé_2127" data-name="Tracé 2127" class="cls-20" d="M124.56,47.7,59.51,65.15l3,8.28s82.75,3.61,106.22.14l1.88-7.11Z"/><path id="Tracé_2128" data-name="Tracé 2128" class="cls-5" d="M147,56.84a60.74,60.74,0,0,1-3.72,14.71c-.45,1.07-.93,2.27-1.49,3.47,11.25-.15,21-.57,27-1.45l1.88-7.11Z"/><path id="Tracé_2129" data-name="Tracé 2129" class="cls-5" d="M105.47,64.77c-.74-4.07-.14-9.13,2.39-12.59l-48.35,13,3,8.28s25.25,1.1,51.81,1.5C110,72.89,106.36,69.66,105.47,64.77Z"/><path id="Tracé_2130" data-name="Tracé 2130" class="cls-21" d="M124.56,47.7,59.51,65.15l.52.13c17.24,3.43,39.63,3.51,60,2.94,19.78-.55,50.55-1.76,50.55-1.76Z"/><path id="Tracé_2131" data-name="Tracé 2131" class="cls-22" d="M123.71,48.73,64.77,64.53l.47.12c15.62,3.11,35.91,3.19,54.41,2.67,17.92-.5,45.8-1.6,45.8-1.6Z"/><path id="Tracé_2132" data-name="Tracé 2132" class="cls-23" d="M74.05,64.9,107.27,55c6.82-2,14.13-4.06,20.93-1.94a4.38,4.38,0,0,1,3,2.13c.49,1.16-.45,2.83-1.67,2.55A90.48,90.48,0,0,1,153,63.67a2.24,2.24,0,0,1-1.63,1.89,6.66,6.66,0,0,1-2.63.14C123.88,63.67,74.05,64.9,74.05,64.9Z"/><path id="Tracé_2133" data-name="Tracé 2133" class="cls-24" d="M120.23,55c.1.62-.71,1.27-1.81,1.44s-2.06-.19-2.16-.82.71-1.27,1.81-1.44S120.14,54.37,120.23,55Z"/><path id="Tracé_2134" data-name="Tracé 2134" class="cls-24" d="M142,61.38c.1.63-.71,1.27-1.81,1.45s-2.06-.2-2.16-.82.71-1.27,1.81-1.44S141.93,60.76,142,61.38Z"/><path id="Tracé_2135" data-name="Tracé 2135" class="cls-24" d="M112.07,61.78c.1.62-.71,1.27-1.81,1.44s-2.06-.19-2.16-.82.71-1.27,1.81-1.44S112,61.15,112.07,61.78Z"/><path id="Tracé_2136" data-name="Tracé 2136" class="cls-24" d="M92.6,61.65c.1.63-.71,1.27-1.81,1.45s-2.07-.2-2.17-.82.71-1.27,1.81-1.44S92.5,61,92.6,61.65Z"/><path id="Tracé_2137" data-name="Tracé 2137" class="cls-24" d="M122.63,59.28c.09.62-.72,1.26-1.81,1.44s-2.07-.2-2.17-.82.71-1.27,1.81-1.44S122.53,58.65,122.63,59.28Z"/><path id="Tracé_2138" data-name="Tracé 2138" class="cls-24" d="M128.93,54.57c.1.62-.71,1.27-1.81,1.44s-2.07-.19-2.17-.82.72-1.27,1.81-1.44S128.83,53.94,128.93,54.57Z"/><path id="Tracé_2139" data-name="Tracé 2139" class="cls-24" d="M130.51,61.68c0,.64-.87,1.17-2,1.2s-2-.47-2-1.1.87-1.17,2-1.19S130.5,61.06,130.51,61.68Z"/><path id="Tracé_2140" data-name="Tracé 2140" class="cls-24" d="M110.47,56.65c0,.63-.88,1.17-2,1.19s-2-.46-2-1.09.88-1.17,2-1.19S110.45,56,110.47,56.65Z"/><path id="Tracé_2141" data-name="Tracé 2141" class="cls-24" d="M101.23,61.33c0,.63-.87,1.16-2,1.19s-2-.47-2-1.1.87-1.16,2-1.19S101.22,60.7,101.23,61.33Z"/><path id="Tracé_2142" data-name="Tracé 2142" class="cls-25" d="M138.71,54.83c3.7,3.73,7.45,7.42,10.77,11.5,9.11-.33,16-.6,16-.6Z"/><path id="Tracé_2143" data-name="Tracé 2143" class="cls-25" d="M114.4,60.23c-3-2.23-6-4.39-9-6.59L96,56.16c1.79,1.21,3.56,2.27,4.7,3.07q5.67,3.93,11.46,7.67l.91.57q3.33-.06,6.59-.15l4.13-.12C120.63,64.9,117.52,62.56,114.4,60.23Z"/><path id="Tracé_2144" data-name="Tracé 2144" class="cls-25" d="M85.33,59,64.77,64.54l.47.11a177.09,177.09,0,0,0,29.25,2.79C91.39,64.69,88.35,61.87,85.33,59Z"/></g></g></g></g><g id="Sandwichs" class="cls-26"><text class="cls-27" transform="translate(10 32)">Sandwichs</text></g></g></svg>