<svg id="Calque_1" data-name="Calque 1" xmlns="http://www.w3.org/2000/svg" viewBox="0 0 92 135"><defs><style>.cls-1{fill:#fff;}.cls-12,.cls-18,.cls-2,.cls-20,.cls-24,.cls-3,.cls-6{isolation:isolate;}.cls-3{font-size:16px;fill:#2b2b2b;font-family:SofiaPro-Bold, Sofia Pro;font-weight:700;}.cls-4{fill:#340600;}.cls-5,.cls-6{fill:#898981;}.cls-12,.cls-20,.cls-24,.cls-6{opacity:0.5;}.cls-7{fill:#fbb01c;}.cls-8{fill:#f68f1e;}.cls-9{fill:#ef8023;}.cls-10{fill:#ec6d23;}.cls-11,.cls-12{fill:#f89c1b;}.cls-13{fill:#616366;}.cls-14{fill:#dbae11;}.cls-15{fill:#d88f5e;}.cls-16{fill:#f4b678;}.cls-17,.cls-18{fill:#747981;}.cls-18{opacity:0.3;}.cls-19,.cls-20{fill:#9c4d2f;}.cls-21{fill:#4f2600;}.cls-22{fill:#52444c;}.cls-23,.cls-24{fill:#d45a5a;}.cls-25{fill:#4ac7f2;}.cls-26{fill:#00aded;}.cls-27{fill:#2f292b;}</style></defs><title>app-icon</title><g id="Groupe_1885" data-name="Groupe 1885"><rect id="Rectangle_9-2" data-name="Rectangle 9-2" class="cls-1" width="92" height="135" rx="6"/><g id="plus_de_1h30" data-name="plus de 1h30" class="cls-2"><text class="cls-3" transform="translate(19.29 97)">plus de </text><text class="cls-3" transform="translate(29.25 116)">1h30</text></g><g id="Groupe_33" data-name="Groupe 33"><g id="Groupe_32" data-name="Groupe 32"><path id="Tracé_75" data-name="Tracé 75" class="cls-4" d="M64.49,41.6a2.21,2.21,0,0,0-.34-1,1.28,1.28,0,0,0-.27-.59A4.56,4.56,0,0,0,62,38.86c-1.5-.54-3.16-.18-4.71,0S54,40,52.5,40.67a18.9,18.9,0,0,0-2.28,1.18c-.81.51-1.6,1.1-2.4,1.64-1.42,1-3,1.79-4.34,2.82a12.24,12.24,0,0,0-3.29,3.51,6.93,6.93,0,0,0-.83,2.25,2.38,2.38,0,0,0,.24,1.79,8.41,8.41,0,0,0,3.48,1.92A5.61,5.61,0,0,0,45,56a7.79,7.79,0,0,0,.83,0c.42,0,.84-.15,1.28-.2a21.12,21.12,0,0,0,4.34-1.25,32.44,32.44,0,0,0,4.17-2,9.84,9.84,0,0,0,3.21-2.4c.95-1.26,1.57-2.73,2.57-3.93a19.17,19.17,0,0,1,1.45-1.4,7.23,7.23,0,0,0,1.25-1.5A2.66,2.66,0,0,0,64.49,41.6Z"/><g id="Groupe_31" data-name="Groupe 31"><g id="Groupe_14" data-name="Groupe 14"><path id="Tracé_76" data-name="Tracé 76" class="cls-5" d="M64.73,32.26c.08-.59.15-2.26-.63-2.48a.63.63,0,0,0-.64.2c-.35.34-.61.79-1,1.15a4.37,4.37,0,0,1-1.79,1.33,7.75,7.75,0,0,1-.78.24c-.35,0-.89,0-1.15.22-.67.64-.23,1.79.2,2.43a2.77,2.77,0,0,0,2.45,1.28,2.71,2.71,0,0,0,2.35-1.33A6.82,6.82,0,0,0,64.73,32.26Z"/><g id="Groupe_13" data-name="Groupe 13"><path id="Tracé_77" data-name="Tracé 77" class="cls-5" d="M64.44,31.13V31s0,0,0-.05h0a.13.13,0,0,0-.18.05s0,0,0,0v.13h0a.12.12,0,0,0,.15.08.1.1,0,0,0,0,0A.17.17,0,0,0,64.44,31.13Z"/><path id="Tracé_78" data-name="Tracé 78" class="cls-5" d="M63.58,33.19a.51.51,0,0,0,.08-.32v-.1a.19.19,0,0,0-.22-.14.21.21,0,0,0-.13.09s0,0,0,0h0l0,0c-.15.14-.2.41-.05.51a.18.18,0,0,0,.22,0h0A.14.14,0,0,0,63.58,33.19Z"/><path id="Tracé_79" data-name="Tracé 79" class="cls-5" d="M64.29,32.53c-.1,0-.1.15,0,.15S64.39,32.53,64.29,32.53Z"/><path id="Tracé_80" data-name="Tracé 80" class="cls-5" d="M63.85,34.47c0-.08-.09-.08-.14,0a.61.61,0,0,0-.05.12.09.09,0,0,0,.09.09.09.09,0,0,0,.08-.06A.17.17,0,0,0,63.85,34.47Z"/><path id="Tracé_81" data-name="Tracé 81" class="cls-5" d="M62.5,32.55v-.07c0-.15-.07-.27-.22-.27a.22.22,0,0,0-.17.07.66.66,0,0,0-.22.22c-.07.13-.1.4,0,.47a.32.32,0,0,0,.14,0,.2.2,0,0,0,.2,0l.13-.1A1.71,1.71,0,0,0,62.5,32.55Z"/><path id="Tracé_82" data-name="Tracé 82" class="cls-5" d="M62.87,34.12c-.07,0-.07.13,0,.13s.06,0,.05-.07A.06.06,0,0,0,62.87,34.12Z"/><path id="Tracé_83" data-name="Tracé 83" class="cls-5" d="M63.7,31.87c-.1,0-.1.12,0,.14a.07.07,0,1,0,0-.14Z"/><path id="Tracé_84" data-name="Tracé 84" class="cls-5" d="M64,33.58c-.12,0-.12.15,0,.17S64.07,33.58,64,33.58Z"/><path id="Tracé_85" data-name="Tracé 85" class="cls-5" d="M62.5,33.36s0,0,0,.08a0,0,0,0,0,0-.08Z"/><path id="Tracé_86" data-name="Tracé 86" class="cls-5" d="M63.68,30.39s0,0,0,0-.15.15,0,.13h0S63.73,30.42,63.68,30.39Z"/><path id="Tracé_87" data-name="Tracé 87" class="cls-5" d="M64.54,30.32h0c-.05-.05-.13,0-.1.05v0S64.59,30.37,64.54,30.32Z"/></g><path id="Tracé_88" data-name="Tracé 88" class="cls-6" d="M64.73,32.26c.08-.59.15-2.26-.63-2.48a.37.37,0,0,0-.18,0,1,1,0,0,1,.35.73A3.39,3.39,0,0,1,63,32.94a7.52,7.52,0,0,1-4.42,1.7,3,3,0,0,0,2.82,2,2.7,2.7,0,0,0,2.36-1.32A6.86,6.86,0,0,0,64.73,32.26Z"/><path id="Tracé_89" data-name="Tracé 89" class="cls-6" d="M64.73,32.26a4.66,4.66,0,0,0-.1-1.86,5.21,5.21,0,0,1-1.2,3.6,13.23,13.23,0,0,1-3,2.47,3.09,3.09,0,0,0,1,.15,2.7,2.7,0,0,0,2.36-1.32A6.86,6.86,0,0,0,64.73,32.26Z"/></g><path id="Tracé_90" data-name="Tracé 90" class="cls-7" d="M64.34,40.4a12.43,12.43,0,0,0-.41-2.5c-1.08-5-5.47-8.88-10.13-10.54A16.63,16.63,0,0,0,41.2,28a14.66,14.66,0,0,0-2.94,1.84,13.67,13.67,0,0,0-3.88,5.71,28.16,28.16,0,0,0-1.54,7.92,21.43,21.43,0,0,0-.12,2.4.72.72,0,0,0-.52.39,2.14,2.14,0,0,0,0,1.65A21.4,21.4,0,0,0,33,50.33c.35.86,1.13,2.35,2.26,1.74a1.05,1.05,0,0,0,.39-.42,8.23,8.23,0,0,0,5.45,4,3.11,3.11,0,0,0,1.71,0,1,1,0,0,0,.47.18c2,0,2.06-3.66,2.82-4.86,1.1-1.74,3-1,4.36-.1a6.91,6.91,0,0,0,2.9,1.32,4.9,4.9,0,0,0,3.48-1,5,5,0,0,0,1.91-3.48c.3-1.84-.32-3.75.76-5.39.91-1.38,2.23.05,3,.59a1.07,1.07,0,0,0,1.13.2C64.64,42.46,64.44,41.4,64.34,40.4Z"/><path id="Tracé_91" data-name="Tracé 91" class="cls-7" d="M64.34,40.4a12.43,12.43,0,0,0-.41-2.5c-1.08-5-5.47-8.88-10.13-10.54A16.63,16.63,0,0,0,41.2,28a14.66,14.66,0,0,0-2.94,1.84,13.67,13.67,0,0,0-3.88,5.71,28.16,28.16,0,0,0-1.54,7.92,21.43,21.43,0,0,0-.12,2.4.72.72,0,0,0-.52.39,2.14,2.14,0,0,0,0,1.65A21.4,21.4,0,0,0,33,50.33c.35.86,1.13,2.35,2.26,1.74a1.05,1.05,0,0,0,.39-.42,8.23,8.23,0,0,0,5.45,4,3.11,3.11,0,0,0,1.71,0,1,1,0,0,0,.47.18c2,0,2.06-3.66,2.82-4.86,1.1-1.74,3-1,4.36-.1a6.91,6.91,0,0,0,2.9,1.32,4.9,4.9,0,0,0,3.48-1,5,5,0,0,0,1.91-3.48c.3-1.84-.32-3.75.76-5.39.91-1.38,2.23.05,3,.59a1.07,1.07,0,0,0,1.13.2C64.64,42.46,64.44,41.4,64.34,40.4Z"/><path id="Tracé_92" data-name="Tracé 92" class="cls-8" d="M61.72,37.48s-.1-.1-.08-.15A12.85,12.85,0,0,0,62.26,34a15.79,15.79,0,0,0-4-4.21,23,23,0,0,0-2.19,1.17.12.12,0,0,1-.14,0,7.57,7.57,0,0,0-2.18-1.35c-.79-.39-1.57-.78-2.38-1.1-.54-.22-1.13-.24-1.3-.88a8.92,8.92,0,0,0-.52-1.08A16.49,16.49,0,0,0,41.17,28a15.43,15.43,0,0,0-2.94,1.84,9.83,9.83,0,0,0-1.3,1.28c.93-.42,1.91-.76,2.84-1.18h.12a4.7,4.7,0,0,1,1.72,1.71,1,1,0,0,1,0,.81c-.2.52-.39,1-.54,1.55-.17.71-.24,1.84-.83,2.35A18.87,18.87,0,0,1,38,38.12c-1.32.84-2.67,1.65-4,2.48l-.93.59c-.1.78-.17,1.57-.25,2.35s-.12,1.6-.12,2.4a.75.75,0,0,0-.51.39,2.14,2.14,0,0,0,0,1.65A19.62,19.62,0,0,0,33,50.43c.34.86,1.13,2.35,2.26,1.74a1.06,1.06,0,0,0,.39-.42,8.24,8.24,0,0,0,5.44,4,3.24,3.24,0,0,0,1.72,0,.89.89,0,0,0,.46.17,2,2,0,0,0,1.67-1.42c-.24-.32-.46-.64-.73-1a28.71,28.71,0,0,0-2-2.26c-.1,0-.22-.1-.14-.2,1.74-2.45,4.22-4.21,6-6.67,0-.07.14-.05.2,0,1,.29,2.08.34,3.11.56a13,13,0,0,0,3-.1.14.14,0,0,1,.16-.07.1.1,0,0,1,.06.05,15.32,15.32,0,0,1,2.13,4.78c.15.46.3.95.45,1.42a5.23,5.23,0,0,0,1.64-3.26c.29-1.84-.32-3.75.76-5.39.91-1.38,2.23,0,3,.58a1.07,1.07,0,0,0,1.13.2,1.4,1.4,0,0,0,.66-.86A13.8,13.8,0,0,0,61.72,37.48Z"/><path id="Tracé_93" data-name="Tracé 93" class="cls-9" d="M62.28,34a15.53,15.53,0,0,0-4-4.22c-.75.36-1.47.75-2.18,1.18l-.07,0a19.85,19.85,0,0,1,0,2c0,.47,0,1,0,1.42,0,.22.07,1.08,0,1.08-1.06.07-2.09.32-3.14.39a12.58,12.58,0,0,1-2.53.08.11.11,0,0,1-.07,0,.1.1,0,0,1-.07-.1c-.27-.46-.44-1-.69-1.45A8.57,8.57,0,0,0,47.4,31.5s0,0,0,0h0a.13.13,0,0,1-.06-.17s0,0,0,0A7.91,7.91,0,0,1,49,29.33c.42-.32.86-.58,1.3-.88a.54.54,0,0,0-.1-.2c-.24-.59-.56-1.2-.76-1.81a16.31,16.31,0,0,0-8.31,1.5L41,28c-.29.47-.66.94-1,1.38a4.53,4.53,0,0,0-.29.49h.07a4.78,4.78,0,0,1,1.72,1.71,1,1,0,0,1,0,.81c-.2.52-.39,1-.54,1.55A6.61,6.61,0,0,1,40.38,36a11.33,11.33,0,0,0,1,.71,17.64,17.64,0,0,1,1.42,1.17,10.68,10.68,0,0,0,1.79,1.26c.47.24,1,.34,1.45.58s.41.62.56.89c.3.58.54,1.17.79,1.76A18.83,18.83,0,0,1,48,44.17a.12.12,0,0,1,.12.07c1,.29,2.09.34,3.12.56a13,13,0,0,0,3-.1.13.13,0,0,1,.16-.07l.06,0h0c.69-1.35,1.3-2.77,2-4.12.32-.61,1.08-2.13,1.16-2.21s1.79-.46,2.57-.63a7.18,7.18,0,0,0,1.37-.4A10.49,10.49,0,0,0,62.28,34Z"/><path id="Tracé_94" data-name="Tracé 94" class="cls-10" d="M50.24,35.94c-.05,0-.07,0-.07-.1-.27-.47-.44-1-.69-1.45a8.51,8.51,0,0,0-2.06-2.87l0,0h0s0,0,0-.05a17.42,17.42,0,0,0-2,.1c-1.22.1-2.4.27-3.6.46a1,1,0,0,1-.1.42A13.31,13.31,0,0,0,41.08,34a6.71,6.71,0,0,1-.64,2.11,8.09,8.09,0,0,0,1,.71A17.91,17.91,0,0,1,42.82,38a10.08,10.08,0,0,0,1.79,1.25c.46.25,1,.35,1.44.59a.61.61,0,0,1,.22.2.35.35,0,0,1,.08,0,10.89,10.89,0,0,0,1.27-1.18c.86-1,1.74-1.86,2.63-2.8C50.27,35.94,50.24,35.94,50.24,35.94Z"/><path id="Tracé_95" data-name="Tracé 95" class="cls-10" d="M62.28,34a15.82,15.82,0,0,0-4-4.22,24,24,0,0,0-2.18,1.18s0,0-.07,0a19.72,19.72,0,0,1,0,2c0,.47,0,1,0,1.42,0,.22.07,1.08,0,1.08h0c.35.54.64,1.1,1,1.64s.57.84.84,1.26c.32-.1,1.81-.47,2.52-.62a6.76,6.76,0,0,0,1.38-.39A14.65,14.65,0,0,0,62.28,34Z"/><path id="Tracé_96" data-name="Tracé 96" class="cls-11" d="M46.79,49a18.85,18.85,0,0,0-4.22-2.48,33.86,33.86,0,0,1-4.1-2.23A40.49,40.49,0,0,0,34.21,42c-.4-.2-.81-.37-1.2-.56-.08.66-.15,1.32-.2,2a21.44,21.44,0,0,0-.13,2.4.74.74,0,0,0-.51.4,2.12,2.12,0,0,0,0,1.64A21.4,21.4,0,0,0,33,50.35c.35.86,1.13,2.36,2.26,1.74a1,1,0,0,0,.39-.41,8.22,8.22,0,0,0,5.44,3.94,3.14,3.14,0,0,0,1.72,0,.9.9,0,0,0,.47.17c2-.05,2.06-3.65,2.82-4.86a2,2,0,0,1,1.64-1C47.44,49.58,47.12,49.3,46.79,49Z"/><path id="Tracé_97" data-name="Tracé 97" class="cls-12" d="M40.78,52.24a12.35,12.35,0,0,1-5.94-2.6,10.85,10.85,0,0,1-2.15-2.48,4.94,4.94,0,0,1-.54-.88,2.26,2.26,0,0,0,0,1.6A21.45,21.45,0,0,0,33,50.33c.34.86,1.12,2.35,2.25,1.74a1.05,1.05,0,0,0,.39-.42,8.23,8.23,0,0,0,5.45,4,3.11,3.11,0,0,0,1.71,0,1,1,0,0,0,.47.18c1.45,0,1.89-1.92,2.3-3.44A14.87,14.87,0,0,1,40.78,52.24Z"/><path id="Tracé_98" data-name="Tracé 98" class="cls-12" d="M40.51,54.64a10.28,10.28,0,0,1-4.73-2.84,8.38,8.38,0,0,0,5.34,3.8,3.24,3.24,0,0,0,1.72,0,.83.83,0,0,0,.46.17,1.6,1.6,0,0,0,1.35-.86A8.09,8.09,0,0,1,40.51,54.64Z"/><g id="Groupe_15" data-name="Groupe 15"><path id="Tracé_99" data-name="Tracé 99" class="cls-13" d="M71,46.36c-1-.27-.35-1.89-1.62-2,0,0,0,0,0,.07,1,.42.44,1.4,1.08,2a1.46,1.46,0,0,0,.64.27,1.35,1.35,0,0,1,1,1.37s.07.08.07,0C72.48,47.12,71.92,46.6,71,46.36Z"/><path id="Tracé_100" data-name="Tracé 100" class="cls-13" d="M69.86,46.8a2.17,2.17,0,0,0-.74-.49c-.29-.15-.85-.12-.85-.59a2.41,2.41,0,0,0-.4-1.4,1.5,1.5,0,0,0-1.2-.56s0,.05,0,.07A1.51,1.51,0,0,1,67.92,45c.13.37,0,.76.15,1.1s.54.34.79.42c.88.27,1,.93,1,1.74,0,0,0,.06,0,.07a.08.08,0,0,0,.07-.05A1.5,1.5,0,0,0,69.86,46.8Z"/><path id="Tracé_101" data-name="Tracé 101" class="cls-13" d="M25.33,49a2,2,0,0,0-1,.71,1.4,1.4,0,0,0-.2.56.93.93,0,0,1-.81,1h0A1.91,1.91,0,0,0,22,52a1.42,1.42,0,0,0,0,1.3c0,.07.15,0,.12,0a1.18,1.18,0,0,1,.69-1.51.66.66,0,0,1,.2-.06,2.34,2.34,0,0,0,1-.37.79.79,0,0,0,.24-.71A1.66,1.66,0,0,1,25.3,49C25.35,49,25.35,48.93,25.33,49Z"/><path id="Tracé_102" data-name="Tracé 102" class="cls-13" d="M23.34,48.83a1.62,1.62,0,0,0-.93.67c-.17.27-.22.63-.37.93s-.73.27-1,.29a1.3,1.3,0,0,0-.81,2s.13,0,.13,0c-.08-.68-.15-1.32.66-1.61.27-.1.69,0,.93-.13a1,1,0,0,0,.42-.56c.22-.64.29-1.23,1.05-1.5C23.39,48.88,23.39,48.81,23.34,48.83Z"/></g><path id="Tracé_103" data-name="Tracé 103" class="cls-14" d="M64.34,40.4a11.77,11.77,0,0,0-.42-2.5A12.28,12.28,0,0,0,61.64,33a3.46,3.46,0,0,1,.25,1.23,2.77,2.77,0,0,1-2.6,2.84c-1.45.08-3.41-.49-4.54.74S54,40.65,53.53,42A3.06,3.06,0,0,1,51,44.18c-2.48,0-4.2-2.85-5.52-4.59-1.64-2.16-3.68-4.68-6.67-4.63a7.83,7.83,0,0,0-4.93,2,36.11,36.11,0,0,0-1.08,6.55,23.81,23.81,0,0,0-.12,2.4.73.73,0,0,0-.52.39,2.12,2.12,0,0,0,0,1.64A20.81,20.81,0,0,0,33,50.35c.34.86,1.13,2.36,2.25,1.74a1.05,1.05,0,0,0,.4-.41,8.22,8.22,0,0,0,5.44,3.94,3.05,3.05,0,0,0,1.72,0,.83.83,0,0,0,.46.17c2-.05,2.06-3.65,2.82-4.85,1.1-1.74,3-1,4.37-.1a7.05,7.05,0,0,0,2.89,1.32,5,5,0,0,0,3.48-1,5.07,5.07,0,0,0,1.92-3.48c.29-1.84-.32-3.75.76-5.4.9-1.37,2.23,0,3,.59a1.06,1.06,0,0,0,1.13.2C64.64,42.46,64.44,41.4,64.34,40.4Z"/><path id="Tracé_104" data-name="Tracé 104" class="cls-14" d="M64.34,40.4c0-.34-.07-.69-.1-1a2,2,0,0,1-.73,0,23.19,23.19,0,0,0-3.95-.86,3,3,0,0,0-3.21,2.62c-.35,2,.41,5.2-1.75,6.43-1.27.73-2.37,0-3.4-.79a3.63,3.63,0,0,0-2.92-1,15.77,15.77,0,0,1-1.91.39c-1.28,0-1.08-1.66-1.06-2.47A5.22,5.22,0,0,0,43,39.15c-2.08-1.33-4.68-1-6.94-.2A8.1,8.1,0,0,0,34,42.16c-.22.71-.41,2.23-1.25,2.55,0,.37,0,.74,0,1.13a.76.76,0,0,0-.52.39,2.12,2.12,0,0,0,0,1.64A21,21,0,0,0,33,50.33c.34.85,1.13,2.35,2.25,1.74a1.08,1.08,0,0,0,.4-.42,5.78,5.78,0,0,0,1.1,1.54,2.58,2.58,0,0,1-.2-2.37c.68-1.47,2.52-1.2,3.5-.18a3.75,3.75,0,0,1,1,2A4.2,4.2,0,0,1,41,55.16a1.36,1.36,0,0,1-.27.36c.12,0,.24.08.37.1a3,3,0,0,0,1.71,0,.9.9,0,0,0,.47.17c2-.05,2.06-3.65,2.82-4.85,1.1-1.74,3-1,4.36-.1a7.16,7.16,0,0,0,2.9,1.32,4.9,4.9,0,0,0,5.39-4.46c.3-1.84-.32-3.76.76-5.4.91-1.37,2.23,0,3,.59a1.07,1.07,0,0,0,1.13.2C64.64,42.46,64.44,41.41,64.34,40.4Z"/><g id="Groupe_23" data-name="Groupe 23"><g id="Groupe_17" data-name="Groupe 17"><path id="Tracé_105" data-name="Tracé 105" class="cls-5" d="M68.56,49a11.14,11.14,0,0,0-1.84-2.9,11.51,11.51,0,0,0-.88-.83c-.32-.27-.62-.54-.93-.79a21.45,21.45,0,0,0-2-1.25,2.39,2.39,0,0,0,.1-1,3.22,3.22,0,0,0-.74-1.71.12.12,0,0,0-.1,0c-.49-.64-1.84-.54-2.5-.47A3.59,3.59,0,0,0,57.18,42a5.09,5.09,0,0,0,.08,4.1c.1.2.34.27.63.32a12.28,12.28,0,0,1,2.68,2.8c.49.73,1.1,1.69,1.57,2.45s.54,1.42,1.2,1.81a2.33,2.33,0,0,0,2.2-.22c1.43-.66,3.29-2.16,3.19-3.41A5.26,5.26,0,0,0,68.56,49Z"/><path id="Tracé_106" data-name="Tracé 106" class="cls-6" d="M68.09,50.6a.86.86,0,0,0-.56-.17c-.22,0-.27.29-.32.49a.88.88,0,0,1-.1.22c-.07.12-.24,0-.32,0-.46-.51-1-.12-1,.49a4.89,4.89,0,0,1,0,.54.12.12,0,0,1-.13.11l-.07,0c-.34-.37-1-1.06-1.57-.64s-.29,2-.34,2.13a2.75,2.75,0,0,0,1.86-.37,6.68,6.68,0,0,0,3-2.52C68.36,50.75,68.24,50.67,68.09,50.6Z"/><path id="Tracé_107" data-name="Tracé 107" class="cls-15" d="M64.54,51.85c-.66,0-.69.67-.66,1.15a7.6,7.6,0,0,0,0,.76,3.09,3.09,0,0,0,1.59-.41c.12-.05.24-.13.37-.17C65.62,52.56,65.18,51.88,64.54,51.85Z"/><path id="Tracé_108" data-name="Tracé 108" class="cls-15" d="M67.77,50.63c-.46,0-.27.85,0,1.12a3.81,3.81,0,0,0,.62-.76A1,1,0,0,0,67.77,50.63Z"/><path id="Tracé_109" data-name="Tracé 109" class="cls-15" d="M66.33,51.26c-.39.1-.34.76-.22,1a4,4,0,0,0,.32.57,7.65,7.65,0,0,0,.9-.69C67.11,51.73,66.77,51.16,66.33,51.26Z"/><path id="Tracé_110" data-name="Tracé 110" class="cls-16" d="M64.12,52.64a2.44,2.44,0,0,0-.05.39,3.63,3.63,0,0,0,.08.73,3.48,3.48,0,0,0,1.4-.41l.14-.08C65.49,52.54,64.39,51.43,64.12,52.64Z"/><path id="Tracé_111" data-name="Tracé 111" class="cls-16" d="M68.07,50.87c-.22-.17-.52-.07-.44.24a1.44,1.44,0,0,0,.27.52c.15-.17.29-.34.42-.52Z"/><path id="Tracé_112" data-name="Tracé 112" class="cls-16" d="M66.92,51.73a.68.68,0,0,0-.4-.3c-.29,0-.39.27-.36.49a2.19,2.19,0,0,0,.36.86c.23-.15.45-.32.67-.49A1.93,1.93,0,0,0,66.92,51.73Z"/><g id="Groupe_16" data-name="Groupe 16"><path id="Tracé_113" data-name="Tracé 113" class="cls-5" d="M65.2,47.49a.25.25,0,0,0,0-.15.3.3,0,0,0-.12-.17c-.07-.05-.15-.1-.22-.05a.18.18,0,0,0,0,.29.3.3,0,0,0,.18.17s0,0,0,0h0a.11.11,0,0,0,.15,0h0S65.2,47.53,65.2,47.49Z"/><path id="Tracé_114" data-name="Tracé 114" class="cls-5" d="M63.48,48.42c-.07-.17-.22-.37-.41-.37a.23.23,0,0,0-.23.24v0a.7.7,0,0,0,.12.34.82.82,0,0,0,.12.2c.08.08.15.15.27.13C63.66,48.93,63.56,48.61,63.48,48.42Z"/><path id="Tracé_115" data-name="Tracé 115" class="cls-5" d="M62.23,47.63a2.29,2.29,0,0,0-.22-.76c-.2-.46-.49-.93-.83-.61a.56.56,0,0,0-.07.61,1.9,1.9,0,0,0,.46.89c.12.12.3.32.47.24S62.23,47.8,62.23,47.63Z"/><path id="Tracé_116" data-name="Tracé 116" class="cls-5" d="M64.34,45.82a.18.18,0,0,0-.07-.1.08.08,0,0,0-.15.05.29.29,0,0,0,.1.12C64.29,45.92,64.37,45.87,64.34,45.82Z"/><path id="Tracé_117" data-name="Tracé 117" class="cls-5" d="M65.23,46c0-.1-.22,0-.18.1a.39.39,0,0,0,.08.1.08.08,0,0,0,.11,0,.08.08,0,0,0,0,0C65.28,46.06,65.25,46,65.23,46Z"/><path id="Tracé_118" data-name="Tracé 118" class="cls-5" d="M63,50.23l0,0h0c-.05-.1-.2,0-.12.07l0,0a.1.1,0,0,0,.07,0h0S63.07,50.26,63,50.23Z"/><path id="Tracé_119" data-name="Tracé 119" class="cls-5" d="M65.45,49.4a.1.1,0,0,0-.13,0,.14.14,0,0,0,0,.09s0,.1.08.12.14,0,.14,0A.25.25,0,0,0,65.45,49.4Z"/><path id="Tracé_120" data-name="Tracé 120" class="cls-5" d="M62.65,45.89c-.07,0-.1.12,0,.12S62.72,45.89,62.65,45.89Z"/><path id="Tracé_121" data-name="Tracé 121" class="cls-5" d="M62.26,43.76c-.12,0-.12.15,0,.17S62.36,43.78,62.26,43.76Z"/><path id="Tracé_122" data-name="Tracé 122" class="cls-5" d="M59.93,45.28h0c-.2-.08-.2.27,0,.24h0C60,45.47,60.05,45.33,59.93,45.28Z"/><path id="Tracé_123" data-name="Tracé 123" class="cls-5" d="M59.86,47.39c-.1-.17-.22.12-.1.12s.07,0,.1,0Z"/><path id="Tracé_124" data-name="Tracé 124" class="cls-5" d="M67.45,48.47a.51.51,0,0,1,0-.1c-.08-.1-.2,0-.13.1l.08.07C67.41,48.59,67.48,48.54,67.45,48.47Z"/><path id="Tracé_125" data-name="Tracé 125" class="cls-5" d="M68.39,49.74c0-.05,0-.07,0-.12s-.14,0-.12,0a.14.14,0,0,0,.08.15S68.39,49.77,68.39,49.74Z"/></g><path id="Tracé_126" data-name="Tracé 126" class="cls-6" d="M63.39,53.37C62.5,51.46,63,49,61.15,47.54l-.51-.45a1.74,1.74,0,0,1-.42-.51,1.82,1.82,0,0,1-.29-.93,2.44,2.44,0,0,1,.64-1.84,2.09,2.09,0,0,1,1.79-.61,2.33,2.33,0,0,1,.44.1h.12a3,3,0,0,0,.1-1,3.21,3.21,0,0,0-.74-1.72.12.12,0,0,0-.1,0c-.49-.64-1.83-.54-2.5-.47a3.59,3.59,0,0,0-2.5,2.06,5.09,5.09,0,0,0,.08,4.1c.1.2.34.27.64.32a12.45,12.45,0,0,1,2.67,2.8c.49.73,1.1,1.69,1.57,2.45s.54,1.42,1.2,1.82a1.11,1.11,0,0,0,.27.12A1.9,1.9,0,0,1,63.39,53.37Z"/><path id="Tracé_127" data-name="Tracé 127" class="cls-6" d="M61.47,50a9.8,9.8,0,0,0-1.69-2.74,3.37,3.37,0,0,1-1.05-2,3.07,3.07,0,0,1,3-2.82A1.77,1.77,0,0,1,63,43a4,4,0,0,0,0-.77,3.28,3.28,0,0,0-.73-1.71.14.14,0,0,0-.1,0c-.49-.64-1.84-.54-2.5-.47A3.55,3.55,0,0,0,57.21,42a5,5,0,0,0,.07,4.1c.1.2.34.27.64.32a12.45,12.45,0,0,1,2.67,2.8c.42.64,1,1.5,1.4,2.18C61.79,51,61.67,50.48,61.47,50Z"/></g><g id="Groupe_21" data-name="Groupe 21"><path id="Tracé_128" data-name="Tracé 128" class="cls-5" d="M53.14,50.58s0,0,0,0a14.83,14.83,0,0,0-1.69-1A29,29,0,0,0,48.14,48a4.51,4.51,0,0,0-1.89,1,4.89,4.89,0,0,0-1.38,1.77,2.68,2.68,0,0,0-.24,1.37,5.49,5.49,0,0,0,.42,1.08,2.27,2.27,0,0,1-.18,1.45c-.22.73-.46,1.47-.66,2.2a17.16,17.16,0,0,0-.49,2.65,2.34,2.34,0,0,0,.57,1.13,5.33,5.33,0,0,0,3,1.59,8.83,8.83,0,0,0,2.5.3c1.23-.08,1.1-1.45,1.25-2.4s.25-2,.42-2.94c.07-.42.17-.84.24-1.26a9.74,9.74,0,0,1,.76-2.64c.35-.71.94-1.38.79-2.23A1.06,1.06,0,0,0,53.14,50.58Z"/><path id="Tracé_129" data-name="Tracé 129" class="cls-5" d="M46.88,51.21a3.43,3.43,0,0,0-1.12,1.33,7.42,7.42,0,0,0-.89,2.18c0,.05.08.1.1.05.3-.62.47-1.25.79-1.87.12-.24.24-.49.37-.71a6.86,6.86,0,0,1,.78-.93S46.91,51.19,46.88,51.21Z"/><g id="Groupe_18" data-name="Groupe 18"><path id="Tracé_130" data-name="Tracé 130" class="cls-5" d="M47.18,54.4a1.23,1.23,0,0,0,0-.54.34.34,0,0,0,0-.17.26.26,0,0,0-.32-.16h0a.19.19,0,0,0-.1.1s0,0,0,0a1.43,1.43,0,0,0-.27.66v.05a1.36,1.36,0,0,0,0,.29v.2a.46.46,0,0,0,.18.42c.17.12.34,0,.41-.2A2.49,2.49,0,0,0,47.18,54.4Z"/><path id="Tracé_131" data-name="Tracé 131" class="cls-5" d="M49.46,55.85a1.41,1.41,0,0,0-.05-.35c0-.22-.27-.36-.46-.2a8144038269614.63,8144038269614.63,0,0,1-.2.3,1.41,1.41,0,0,0-.12,1c0,.2.17.41.39.41s.32-.24.37-.44c0,0,0-.05,0-.07A1.94,1.94,0,0,0,49.46,55.85Z"/><path id="Tracé_132" data-name="Tracé 132" class="cls-5" d="M50.81,56.26v-.1a.2.2,0,0,0-.2-.12.25.25,0,0,0-.15.17.28.28,0,0,0,0,.13.16.16,0,0,1,0,.1.15.15,0,0,0,.1.14.2.2,0,0,0,.2,0A.34.34,0,0,0,50.81,56.26Z"/><path id="Tracé_133" data-name="Tracé 133" class="cls-5" d="M50.59,54.87v0h0v0h0c0-.14-.22-.2-.25,0h0a.17.17,0,0,0,0,.18.15.15,0,0,0,.19.08h.05s0-.05,0-.07,0,0,0-.05Z"/><path id="Tracé_134" data-name="Tracé 134" class="cls-5" d="M49.36,53.47a.15.15,0,0,0-.2-.06l0,0a.22.22,0,0,0,0,.22.38.38,0,0,0,0,.18.1.1,0,0,0,.13.06l0,0C49.46,53.81,49.43,53.59,49.36,53.47Z"/><path id="Tracé_135" data-name="Tracé 135" class="cls-5" d="M47.67,56.24v-.1c-.05-.12-.25-.12-.25,0v.08C47.4,56.44,47.69,56.39,47.67,56.24Z"/><path id="Tracé_136" data-name="Tracé 136" class="cls-5" d="M47.86,52.29c0-.07,0-.12-.1-.15a.14.14,0,0,0-.09,0c-.05,0-.05,0-.05.1h0v.07c0,.08.05.1.1.13s.12,0,.14-.1v0h0Z"/><path id="Tracé_137" data-name="Tracé 137" class="cls-5" d="M50.32,51.78c0-.05,0,0-.1,0h0s0,0,0,.1a.07.07,0,0,0,.09.06.07.07,0,0,0,.05,0Z"/><path id="Tracé_138" data-name="Tracé 138" class="cls-5" d="M45.71,55.65c-.13,0-.15.2,0,.22S45.85,55.67,45.71,55.65Z"/><path id="Tracé_139" data-name="Tracé 139" class="cls-5" d="M45.88,57.52h0a.08.08,0,0,0-.06-.08h0a.17.17,0,0,0-.1,0,.08.08,0,0,0,0,.12l.06,0C45.83,57.64,45.9,57.56,45.88,57.52Z"/><path id="Tracé_140" data-name="Tracé 140" class="cls-5" d="M49.68,58.45h0s.07,0,.1,0v0C49.8,58.3,49.61,58.37,49.68,58.45Z"/><path id="Tracé_141" data-name="Tracé 141" class="cls-5" d="M50,59.74c0-.07-.12,0-.12,0s0,0,0,.07a0,0,0,0,0,.06,0h0A.08.08,0,0,0,50,59.74Z"/><path id="Tracé_142" data-name="Tracé 142" class="cls-5" d="M50.71,58h0c-.05,0-.05,0,0,.07h0C50.76,58.08,50.78,57.93,50.71,58Z"/><path id="Tracé_143" data-name="Tracé 143" class="cls-5" d="M46.08,53.49a.05.05,0,0,0,0,0,0,0,0,0,0,0,.05.05.05,0,0,0,.05-.05A.06.06,0,0,0,46.08,53.49Z"/><path id="Tracé_144" data-name="Tracé 144" class="cls-5" d="M46.88,51.9a.05.05,0,0,0,0,.1S46.93,51.92,46.88,51.9Z"/><path id="Tracé_145" data-name="Tracé 145" class="cls-5" d="M51.47,53.15c-.07,0-.07.12,0,.12S51.54,53.15,51.47,53.15Z"/></g><g id="Groupe_20" data-name="Groupe 20"><path id="Tracé_146" data-name="Tracé 146" class="cls-6" d="M43.87,59.7c.27-.59,1.27-.62,1.84-.62a5.28,5.28,0,0,1,3.4,1.13,2.88,2.88,0,0,0,0-.83,1.21,1.21,0,0,0-.56-1,.48.48,0,0,0-.67.14l0,0a1.31,1.31,0,0,0-.57-.86c-.71-.37-1.15.25-1.4.91a2.07,2.07,0,0,0-.29-.62.82.82,0,0,0-1.08-.36,1.72,1.72,0,0,0-.69,1.32A1.77,1.77,0,0,0,43.87,59.7Z"/><g id="Groupe_19" data-name="Groupe 19"><path id="Tracé_147" data-name="Tracé 147" class="cls-15" d="M45.51,59a.69.69,0,0,1,.25,0,2.17,2.17,0,0,0-.13-.56c-.12-.35-.49-1-1-.74a1.73,1.73,0,0,0-.74,1.74A2.43,2.43,0,0,1,45.51,59Z"/><path id="Tracé_148" data-name="Tracé 148" class="cls-15" d="M46.17,59a2.81,2.81,0,0,1,1.45.3,1.45,1.45,0,0,0-.37-1.48c-.41-.27-.81.05-1,.45a2.26,2.26,0,0,0-.15.73Z"/><path id="Tracé_149" data-name="Tracé 149" class="cls-15" d="M48.72,59.84a.75.75,0,0,1,.2.15,2.89,2.89,0,0,0-.14-1.2c-.25-.51-.74-.27-.81.2l-.08.42A4.35,4.35,0,0,1,48.72,59.84Z"/><path id="Tracé_150" data-name="Tracé 150" class="cls-16" d="M45.51,59h0c-.07-.62-.37-1.62-1-.94a1.75,1.75,0,0,0-.42,1.25A2.62,2.62,0,0,1,45.51,59Z"/><path id="Tracé_151" data-name="Tracé 151" class="cls-16" d="M47.4,59.21a2.47,2.47,0,0,0,0-.47c0-.25-.07-.66-.31-.76-.52-.2-.76.51-.79,1A2.66,2.66,0,0,1,47.4,59.21Z"/><path id="Tracé_152" data-name="Tracé 152" class="cls-16" d="M48.72,59.84h0a1.8,1.8,0,0,0,0-.73c0-.12-.12-.47-.3-.42s-.24.2-.29.32a1.61,1.61,0,0,0-.07.49A4.77,4.77,0,0,1,48.72,59.84Z"/></g></g><path id="Tracé_153" data-name="Tracé 153" class="cls-6" d="M51.72,55.9a9.37,9.37,0,0,1,.76-2.65c.34-.71.93-1.37.78-2.23a3.59,3.59,0,0,0-.12-.47s0,0,0,0a16.48,16.48,0,0,0-1.69-1.06A29,29,0,0,0,48.14,48a4.51,4.51,0,0,0-1.89,1,4.89,4.89,0,0,0-1.38,1.77,2.7,2.7,0,0,0-.24,1.37,5.26,5.26,0,0,0,.42,1.08,1.44,1.44,0,0,1,0,1,8.89,8.89,0,0,1,1.28-1.65,2.88,2.88,0,0,1,1.81-1,1.82,1.82,0,0,1,1.59,1,7.34,7.34,0,0,1,.42,3.41,8.09,8.09,0,0,1-.83,4.27,5.55,5.55,0,0,1-2.5,1.94,3.89,3.89,0,0,0,.49.12,8.39,8.39,0,0,0,2.5.29C51,62.39,50.88,61,51,60.06s.24-2,.41-2.94C51.54,56.73,51.62,56.31,51.72,55.9Z"/><path id="Tracé_154" data-name="Tracé 154" class="cls-6" d="M51.72,55.9a9.37,9.37,0,0,1,.76-2.65c.34-.71.93-1.37.78-2.23a3.59,3.59,0,0,0-.12-.47s0,0,0,0a16.48,16.48,0,0,0-1.69-1.06A29,29,0,0,0,48.14,48a4.51,4.51,0,0,0-1.89,1,4.89,4.89,0,0,0-1.38,1.77,2.7,2.7,0,0,0-.24,1.37,5.26,5.26,0,0,0,.42,1.08,2.93,2.93,0,0,1,.05.29c.61-.44.88-1.81,1.27-2.3a2.21,2.21,0,0,1,2.5-.63A2.85,2.85,0,0,1,51,52.12a1,1,0,0,1,.2.44c.27,1-.39,2-.54,3-.25,1.64.07,3.33-.29,5a2.43,2.43,0,0,1-1.79,1.81,3.47,3.47,0,0,1-.64,0,8.65,8.65,0,0,0,1.76.14c1.23-.07,1.1-1.44,1.25-2.4s.25-2,.42-2.94C51.53,56.74,51.63,56.32,51.72,55.9Z"/><path id="Tracé_155" data-name="Tracé 155" class="cls-17" d="M50.71,61.9a.5.5,0,0,0,0-.12,2.07,2.07,0,0,0-1-1.3A7,7,0,0,0,46.59,59c-.74-.1-2.45-.07-2.82.69a2.38,2.38,0,0,0,.49.86,5.32,5.32,0,0,0,3,1.59,8.74,8.74,0,0,0,2.5.3A1,1,0,0,0,50.71,61.9Z"/><path id="Tracé_156" data-name="Tracé 156" class="cls-18" d="M50.71,61.78a2,2,0,0,0-1-1.3,13.18,13.18,0,0,0-1.18-.76c.69.62,1,1.28.3,1.65-1.08.51-2.82-.25-3.6-1a1.77,1.77,0,0,1-.59-1.18,1.27,1.27,0,0,0-.79.57,2.74,2.74,0,0,0,.49.86,5.38,5.38,0,0,0,3,1.59,8.43,8.43,0,0,0,2.5.29,1,1,0,0,0,.93-.59Z"/><path id="Tracé_157" data-name="Tracé 157" class="cls-18" d="M50.71,61.78a1.58,1.58,0,0,0-.61-1c.17,1.08-1,1.35-1.92,1.27a5.38,5.38,0,0,1-3.87-1.69,1.62,1.62,0,0,1-.37-.78.42.42,0,0,0-.1.17,2.53,2.53,0,0,0,.49.86,5.38,5.38,0,0,0,3,1.59,8.78,8.78,0,0,0,2.5.3,1,1,0,0,0,.93-.59A.77.77,0,0,1,50.71,61.78Z"/></g><g id="Groupe_22" data-name="Groupe 22"><path id="Tracé_158" data-name="Tracé 158" class="cls-19" d="M63.68,43.05a.68.68,0,0,0,.42-.66,3.81,3.81,0,0,0-1.54-1.82c-1.47-1-3.56-1.15-4.81.27a4.14,4.14,0,0,0-1.15,2.4,21.8,21.8,0,0,0,0,2.8,10.84,10.84,0,0,1,0,2.67,2.43,2.43,0,0,1-2.4,1.84c-1.42,0-2.33-1.64-3.39-2.38a5.58,5.58,0,0,0-4.88-.83,5.49,5.49,0,0,0-3.26,2.84,6.25,6.25,0,0,0-.49,2.63,4.78,4.78,0,0,0,.71,2.65,2.39,2.39,0,0,0,.23.22.53.53,0,0,0,.22,0c2-.05,2.06-3.65,2.82-4.85,1.1-1.74,3-1,4.36-.1a7,7,0,0,0,2.9,1.32,5,5,0,0,0,3.48-1,5.05,5.05,0,0,0,1.91-3.48c.29-1.84-.32-3.75.76-5.4.91-1.37,2.23,0,3,.59A1,1,0,0,0,63.68,43.05Z"/><path id="Tracé_159" data-name="Tracé 159" class="cls-20" d="M64.05,42.53c-.61.3-1.57-.73-2-1.05a2.66,2.66,0,0,0-1.94-.69,2.53,2.53,0,0,0-1.69.93c-.88,1.2-.78,2.65-.68,4.07,0,.35.12,1.35-.49,1.26s-.67-1-.74-1.43c0-.07,0-.17,0-.24,0,.24,0,.46,0,.69a10.37,10.37,0,0,1,0,2.67,2.42,2.42,0,0,1-2.4,1.84,2.52,2.52,0,0,1-1.61-.74.89.89,0,0,1-.08.17c-.56.66-1.76-.44-2.25-.68-1.3-.62-3-1.16-4.34-.49a3.25,3.25,0,0,0-1.6,1.44,7.92,7.92,0,0,0-.59,2.18c-.12.67-.61,1.75-1.37,1a1.12,1.12,0,0,1-.17-.2,4,4,0,0,0,.69,2.21,1.15,1.15,0,0,0,.22.22.78.78,0,0,0,.22,0c2,0,2.06-3.66,2.82-4.86,1.1-1.74,3-1,4.36-.1a7.05,7.05,0,0,0,2.9,1.33,4.9,4.9,0,0,0,5.39-4.47c.3-1.84-.32-3.75.76-5.39.91-1.37,2.23.05,3,.59a1.07,1.07,0,0,0,1.13.2.73.73,0,0,0,.42-.54S64.07,42.53,64.05,42.53Z"/><path id="Tracé_160" data-name="Tracé 160" class="cls-20" d="M63.8,42.88a.7.7,0,0,1-.66,0,3.87,3.87,0,0,1-.76-.57c-.12-.12-.24-.24-.39-.37a2.08,2.08,0,0,0-2.48-.24c-1.54,1.52-1,4.19-1.13,5.39a4.83,4.83,0,0,1-2,3.85,4.11,4.11,0,0,1-4.22.32,13.65,13.65,0,0,0-4-2,2.21,2.21,0,0,0-2.62,1.2,27.86,27.86,0,0,0-.81,3.11c-.32,1-.94,2.4-2.09,1.35l-.07-.07a2.32,2.32,0,0,0,.34.59,2.28,2.28,0,0,0,.22.22.55.55,0,0,0,.22,0c2,0,2.06-3.65,2.82-4.85,1.1-1.74,3.05-1,4.37-.1a7.05,7.05,0,0,0,2.89,1.32,5,5,0,0,0,3.48-1,5.07,5.07,0,0,0,1.92-3.48c.29-1.84-.32-3.75.76-5.4.9-1.37,2.23.05,3,.59a1.06,1.06,0,0,0,1.13.2.51.51,0,0,0,.24-.22A.14.14,0,0,1,63.8,42.88Z"/></g></g><g id="Groupe_27" data-name="Groupe 27"><g id="Groupe_24" data-name="Groupe 24"><path id="Tracé_161" data-name="Tracé 161" class="cls-19" d="M37.47,39.08a.12.12,0,0,1,0,.18l0,0a7.31,7.31,0,0,0-2,1.56,5,5,0,0,0-1,2.28,5.87,5.87,0,0,0,1.1,4.44,5.55,5.55,0,0,0,6.52,1.38c2.46-1.2,3.07-4.54,1.94-6.85S39.92,38,37.47,39.08Z"/><path id="Tracé_162" data-name="Tracé 162" class="cls-21" d="M40.63,39.86a3.49,3.49,0,0,0-3.9.89,5.74,5.74,0,0,0-.88,1.44,5.51,5.51,0,0,0-.37,3,3,3,0,0,0,2,2.5,4.91,4.91,0,0,0,2.89.07c2-.71,2.53-3,2.13-4.9A4,4,0,0,0,40.63,39.86Z"/><path id="Tracé_163" data-name="Tracé 163" class="cls-20" d="M44,42.09a6.2,6.2,0,0,0-1.94-2.25,1.9,1.9,0,0,1,.3.44,8.54,8.54,0,0,1,1.12,3.48A4.54,4.54,0,0,1,42.81,47c-.05.07-.12.12-.17.2a3,3,0,0,1-.91.76,5.27,5.27,0,0,1-7.13-2.28,5.39,5.39,0,0,0,.93,1.89,5.53,5.53,0,0,0,6.52,1.37C44.51,47.74,45.12,44.42,44,42.09Z"/><path id="Tracé_164" data-name="Tracé 164" class="cls-20" d="M44,42.09a6.38,6.38,0,0,0-2.62-2.7,5.41,5.41,0,0,1,2.18,2.48c.46,1.32.81,3.85-.12,5.25A3.61,3.61,0,0,1,40.8,49a5.85,5.85,0,0,1-5.27-1.42v0a5.53,5.53,0,0,0,6.52,1.37C44.51,47.73,45.12,44.42,44,42.09Z"/></g><path id="Tracé_165" data-name="Tracé 165" class="cls-5" d="M42.65,43.05a4.63,4.63,0,0,0-.47-1.4,5.19,5.19,0,0,0-1.35-1.25l-2.5-2.14a5.09,5.09,0,0,0-1.86-5.39,5.69,5.69,0,0,0-4.1-1.15,10.7,10.7,0,0,0-2,.41,8.87,8.87,0,0,0-4.44,3,7.64,7.64,0,0,0-1.83,4.37v.07a4.1,4.1,0,0,0,.2,2.4,5.78,5.78,0,0,0,2.13,2.23,6.88,6.88,0,0,0,6.15.47,9.39,9.39,0,0,0,1.33-.61A13.93,13.93,0,0,0,35.81,46a6.28,6.28,0,0,0,1.74,1.13c.07.12.12.25.2.37a.45.45,0,0,0,.42.34,3.77,3.77,0,0,0,4-1.3A5.07,5.07,0,0,0,42.65,43.05Z"/><path id="Tracé_166" data-name="Tracé 166" class="cls-22" d="M36.49,41.41a7.35,7.35,0,0,1-2.87,2.77s0,.07,0,.07a4.87,4.87,0,0,0,2.92-2.82S36.49,41.36,36.49,41.41Z"/><path id="Tracé_167" data-name="Tracé 167" class="cls-22" d="M30,44.4a1.45,1.45,0,0,1-1.18.44c-.76-.05-1-.62-1.25-1.25,0-.05-.07,0-.07,0,.1.71.34,1.35,1.1,1.5a1.2,1.2,0,0,0,1.47-.64,0,0,0,0,0,0-.07,0,0,0,0,0-.07,0Z"/><path id="Tracé_168" data-name="Tracé 168" class="cls-22" d="M29.35,42.7a1.42,1.42,0,0,0-.54-.39,1.25,1.25,0,0,0-.93-.07.71.71,0,0,0-.39.27c0,.05,0,.07.07.07a1.26,1.26,0,0,1,.57-.14c-.67.73.07,2.52,1.15,1.91C29.91,43.93,29.77,43.22,29.35,42.7Z"/><path id="Tracé_169" data-name="Tracé 169" class="cls-23" d="M29.2,44c-.54.4-1-.27-1-.73a.8.8,0,0,1,.37-.76.72.72,0,0,1,.27.15C29.2,42.85,29.67,43.64,29.2,44Z"/><path id="Tracé_170" data-name="Tracé 170" class="cls-24" d="M28.47,43.78s0,0,0,.08a.52.52,0,0,0,.71.16.1.1,0,0,1,.05,0c.34-.25.17-.74-.08-1A1.64,1.64,0,0,0,28.47,43.78Z"/><path id="Tracé_171" data-name="Tracé 171" class="cls-22" d="M34.28,33.66c-.42,0-.66.27-.83.61,0,.07,0,.15.12.12s.29-.22.46-.32c.35-.2.4.27.54.45a.18.18,0,0,0,.24,0,.15.15,0,0,0,0-.07.66.66,0,0,0-.54-.78Z"/><path id="Tracé_172" data-name="Tracé 172" class="cls-22" d="M30.87,33a.58.58,0,0,0-.81,0,.52.52,0,0,0-.14.19.16.16,0,0,0,.09.2h.11c.1,0,.2-.1.29-.12s.24.1.32.22.12.44.22.64a.08.08,0,0,0,.09,0s0,0,0,0A1.21,1.21,0,0,0,30.87,33Z"/><path id="Tracé_173" data-name="Tracé 173" class="cls-22" d="M27.27,39.84c-.08-.13-.2-.15-.18-.32a.64.64,0,0,1,.25-.35,0,0,0,0,0,0-.06h0a.56.56,0,0,0-.51.39A.4.4,0,0,0,27,40l.06,0C27.22,40.06,27.34,39.93,27.27,39.84Z"/><path id="Tracé_174" data-name="Tracé 174" class="cls-22" d="M28.74,39.71a.52.52,0,0,0-.12-.36c-.05-.08-.15,0-.13.07a.7.7,0,0,1,0,.32.41.41,0,0,0,0,.29s.08,0,.13,0S28.71,39.84,28.74,39.71Z"/><g id="Groupe_25" data-name="Groupe 25"><path id="Tracé_175" data-name="Tracé 175" class="cls-25" d="M36.07,36.4a5,5,0,0,0-.61,2.26c0,.29.1.73.42.86a.44.44,0,0,0,.55-.28s0,0,0,0a1.87,1.87,0,0,0,0-.91c-.05-.34-.1-.69-.18-1a4.28,4.28,0,0,1-.17-.79S36.1,36.43,36.07,36.4Z"/><path id="Tracé_176" data-name="Tracé 176" class="cls-26" d="M36.46,38.32h0a.7.7,0,0,1-.29.46c-.34.2-.42-.37-.44-.59a4.59,4.59,0,0,1,.1-1.17,3.55,3.55,0,0,0-.35,1.66c0,.3.1.74.42.86a.43.43,0,0,0,.55-.28s0,0,0,0A2.1,2.1,0,0,0,36.46,38.32Z"/></g><g id="Groupe_26" data-name="Groupe 26"><path id="Tracé_177" data-name="Tracé 177" class="cls-25" d="M25.94,30.66A7.53,7.53,0,0,0,26,29v-.08c-.2-.63-.63-1.27-1.32-1s-.42,1.82-.27,2.36A5.72,5.72,0,0,0,26,32.7l.07.1a.15.15,0,0,0,.13.07A4.15,4.15,0,0,1,25.94,30.66Z"/><path id="Tracé_178" data-name="Tracé 178" class="cls-25" d="M23.74,32.43a1.82,1.82,0,0,0-1.65-.15.77.77,0,0,0,.32,1.5c.21,0,.41,0,.62,0a8.13,8.13,0,0,0,1.2-.12c.29-.08.58-.13.9-.2s.71-.27.69-.35A5.25,5.25,0,0,1,23.74,32.43Z"/><path id="Tracé_179" data-name="Tracé 179" class="cls-26" d="M25.94,30.66a14,14,0,0,0,.13-1.44c0,.46-.2,1.76-.81,1.66a.62.62,0,0,1-.49-.49,5,5,0,0,1-.37-1.47,2.5,2.5,0,0,1,.14-.9c-.51.46-.22,1.74-.07,2.23A5.72,5.72,0,0,0,26,32.7l.07.1a.14.14,0,0,0,.13.07A4,4,0,0,1,25.94,30.66Z"/><path id="Tracé_180" data-name="Tracé 180" class="cls-26" d="M23.81,32.48a.44.44,0,0,1,.12.15c.49.68-.24.95-.85.95a2,2,0,0,1-1.48-.49.4.4,0,0,0,0,.22.93.93,0,0,0,.79.47,4.15,4.15,0,0,0,.61,0,6,6,0,0,0,1.2-.12l.91-.2c.39-.1.71-.27.68-.34A5.27,5.27,0,0,1,23.81,32.48Z"/></g><path id="Tracé_181" data-name="Tracé 181" class="cls-27" d="M33.52,36.87a1.4,1.4,0,0,0,.27-1.1c-.17-.66-.73-.64-1.08-.15a2.75,2.75,0,0,0-.49,1.57c0,.79.57.49.91.15A1.75,1.75,0,0,0,33.52,36.87Z"/><path id="Tracé_182" data-name="Tracé 182" class="cls-1" d="M33.42,35.55c-.22,0-.32.24-.32.46a.42.42,0,0,0,.13.42.3.3,0,0,0,.43-.12h0C33.86,36.08,33.82,35.52,33.42,35.55Z"/><path id="Tracé_183" data-name="Tracé 183" class="cls-27" d="M29.7,35.59a1.46,1.46,0,0,0,.34-1c-.1-.63-.64-.66-1-.22a2.58,2.58,0,0,0-.56,1.45c-.07.74.49.49.83.2A2.52,2.52,0,0,0,29.7,35.59Z"/><path id="Tracé_184" data-name="Tracé 184" class="cls-1" d="M29.7,34.34c-.23,0-.32.22-.32.42s0,.32.1.39a.32.32,0,0,0,.44-.1C30.06,34.86,30.06,34.34,29.7,34.34Z"/><path id="Tracé_185" data-name="Tracé 185" class="cls-6" d="M42.64,43.05a4.9,4.9,0,0,0-.46-1.4,2.64,2.64,0,0,0-.67-.74,3.62,3.62,0,0,1-.63,3.48c-1,1.16-2.58-.78-3.07-1.54A13.73,13.73,0,0,0,36.73,41a.71.71,0,0,0-.54-.25,4.08,4.08,0,0,0-1.81,1.45,7.29,7.29,0,0,1-1.77,1.69,6,6,0,0,1-4.83.54,6.33,6.33,0,0,1-3.5-2.65.87.87,0,0,0,.07.17,5.85,5.85,0,0,0,2.13,2.23,6.91,6.91,0,0,0,6.16.47A10.52,10.52,0,0,0,34,44.08,15.15,15.15,0,0,0,35.87,46a6.48,6.48,0,0,0,1.75,1.13c.07.12.12.25.2.37a.43.43,0,0,0,.41.34,3.6,3.6,0,0,0,2.18-.05,3.56,3.56,0,0,0,1.79-1.25A5.3,5.3,0,0,0,42.64,43.05Z"/><path id="Tracé_186" data-name="Tracé 186" class="cls-6" d="M42.64,43.05a4.71,4.71,0,0,0-.22-.84,5.6,5.6,0,0,1,.1.81c0,1.4-.3,3.19-1.79,3.76a3.37,3.37,0,0,1-2,.17c-.74-.17-1.1-.81-1.57-1.3s-1.33-1.16-1.47-1.87a2.39,2.39,0,0,1,.17-1.32,7.38,7.38,0,0,1-2.06,1.67v0s.07,0,.1,0a13.93,13.93,0,0,0,1.91,1.93,6.28,6.28,0,0,0,1.74,1.13c.08.12.13.25.2.37a.45.45,0,0,0,.42.34,3.77,3.77,0,0,0,4-1.3A5.39,5.39,0,0,0,42.64,43.05Z"/></g><g id="Groupe_30" data-name="Groupe 30"><path id="Tracé_187" data-name="Tracé 187" class="cls-5" d="M28.89,58.3c.44-.24.44-.95.68-1.35a10.84,10.84,0,0,1,1-1.52,22.2,22.2,0,0,1,2.52-2.7c.25-.22.52-.46.79-.68.07-.08.78-.54.76-.64a.86.86,0,0,1,0-.27,12.94,12.94,0,0,0-.69-2.58,7.13,7.13,0,0,0-.56-1.86,5.91,5.91,0,0,0-1.37.37c-.62.27-1.18.56-1.77.85A13,13,0,0,0,27,50.18c-1.18,1.23-3.11,3.31-3,4a4.42,4.42,0,0,0,.73,1.35A6,6,0,0,0,26,57a5,5,0,0,0,2.13,1.2C28.37,58.28,28.67,58.42,28.89,58.3Z"/><path id="Tracé_188" data-name="Tracé 188" class="cls-6" d="M25.18,53.86a3.83,3.83,0,0,1,1.84.69,5.5,5.5,0,0,1,1.5,1.54s0-.05.05-.07c.25-.44.74-1.87-.42-1.67-.07,0-.14-.07-.12-.15,0-.31,0-.85-.24-1.05-.52-.34-1,0-1.28.32-.05.07-.17.12-.17,0,0-.66-.05-1.17-.76-1.22a1,1,0,0,0-.49.07A5.19,5.19,0,0,0,24,54.13h0A2,2,0,0,1,25.18,53.86Z"/><path id="Tracé_189" data-name="Tracé 189" class="cls-15" d="M26.07,52.81a.8.8,0,0,0-1-.32,1,1,0,0,0-.23.12A3.75,3.75,0,0,0,24,54.13h0a1.72,1.72,0,0,1,1.15-.24,3.62,3.62,0,0,1,.73.14A1.3,1.3,0,0,0,26.07,52.81Z"/><path id="Tracé_190" data-name="Tracé 190" class="cls-15" d="M27.73,54.3c.15-.37.2-1.18-.44-1.08s-.76.52-1,.94a2.62,2.62,0,0,1,.74.39l.36.29A2.26,2.26,0,0,0,27.73,54.3Z"/><path id="Tracé_191" data-name="Tracé 191" class="cls-15" d="M28.71,55c0-.32-.24-.66-.58-.37a4.06,4.06,0,0,0-.44.49,3.43,3.43,0,0,1,.68.79A1.87,1.87,0,0,0,28.71,55Z"/><path id="Tracé_192" data-name="Tracé 192" class="cls-16" d="M25.92,53.22a.53.53,0,0,0-.51-.57.57.57,0,0,0-.4.13,2.35,2.35,0,0,0-.51.62,1.47,1.47,0,0,0-.3.63,1.45,1.45,0,0,1,1-.14,2.66,2.66,0,0,1,.49.1A2.32,2.32,0,0,0,25.92,53.22Z"/><path id="Tracé_193" data-name="Tracé 193" class="cls-16" d="M27.56,54.18c.05-.15.2-.86-.2-.79s-.59.54-.83.86a2.62,2.62,0,0,1,.51.3l.2.14A1.52,1.52,0,0,0,27.56,54.18Z"/><path id="Tracé_194" data-name="Tracé 194" class="cls-16" d="M28.49,55.4a1,1,0,0,0,.08-.49.23.23,0,0,0-.3-.08l-.05,0a1.9,1.9,0,0,0-.34.41c.15.15.29.32.44.49A1.56,1.56,0,0,0,28.49,55.4Z"/><g id="Groupe_28" data-name="Groupe 28"><path id="Tracé_195" data-name="Tracé 195" class="cls-5" d="M31.46,51.26a.17.17,0,0,0-.15-.19h-.07a.33.33,0,0,0-.24.24.23.23,0,0,0,.09.32h0s.1,0,.12,0S31.46,51.41,31.46,51.26Z"/><path id="Tracé_196" data-name="Tracé 196" class="cls-5" d="M30.82,53.62v-.13a.15.15,0,0,0-.17-.11h0a.31.31,0,0,0-.15.27.13.13,0,0,0,.13.13h0a.17.17,0,0,0,.1,0l.08-.07A.19.19,0,0,0,30.82,53.62Z"/><path id="Tracé_197" data-name="Tracé 197" class="cls-5" d="M29.25,50.8v0a.33.33,0,0,0-.07-.27.21.21,0,0,0-.3-.06h0a.78.78,0,0,0-.27.27s0,.08-.05.1a2.48,2.48,0,0,0-.17.37c0,.12,0,.32.07.39a.24.24,0,0,0,.3.13.7.7,0,0,0,.29-.3s0-.07,0-.12a1,1,0,0,0,.05-.12,2.6,2.6,0,0,0,.1-.25v-.05A.07.07,0,0,0,29.25,50.8Z"/><path id="Tracé_198" data-name="Tracé 198" class="cls-5" d="M30.73,49.74c-.1,0-.1.15,0,.17S30.85,49.77,30.73,49.74Z"/><path id="Tracé_199" data-name="Tracé 199" class="cls-5" d="M32.73,51.78a.08.08,0,0,0-.07-.1h0a.09.09,0,0,0-.1.08v0s0,0,0,0,.25.22.25.05Z"/><path id="Tracé_200" data-name="Tracé 200" class="cls-5" d="M27.24,50.82v0c0,.1.15.12.15,0v0C27.44,50.72,27.24,50.7,27.24,50.82Z"/><path id="Tracé_201" data-name="Tracé 201" class="cls-5" d="M29.43,53a.11.11,0,0,0-.13-.09l0,0h0a.19.19,0,0,0-.1,0,.16.16,0,0,0,0,.23h0a.11.11,0,0,0,.15,0A.2.2,0,0,0,29.43,53Z"/><path id="Tracé_202" data-name="Tracé 202" class="cls-5" d="M29.7,54.87c0-.08-.15,0-.15,0s0,0,0,.1a.08.08,0,0,0,.09.08h0A.19.19,0,0,0,29.7,54.87Z"/><path id="Tracé_203" data-name="Tracé 203" class="cls-5" d="M31.93,49.94a.1.1,0,0,0-.05.07s0,0,0,0h0C32,50,32,50,32,50S32,49.89,31.93,49.94Z"/><path id="Tracé_204" data-name="Tracé 204" class="cls-5" d="M30,48.81c-.1,0-.12.15,0,.17S30.06,48.81,30,48.81Z"/><path id="Tracé_205" data-name="Tracé 205" class="cls-5" d="M26.7,52.49s-.05,0-.05.07.18.27.22.1c0,0,0,0,0,0S26.78,52.39,26.7,52.49Z"/></g><path id="Tracé_206" data-name="Tracé 206" class="cls-6" d="M34.57,51.16a13.33,13.33,0,0,0-.68-2.57,6.86,6.86,0,0,0-.57-1.87,7.11,7.11,0,0,0-1.37.37c-.44.2-.88.42-1.3.64H31c1.13.17,1,1.3.59,2.08-.71,1.38-2.13,2.4-2.23,4A4.51,4.51,0,0,1,29,55.65a1.57,1.57,0,0,1-.35.42A2.54,2.54,0,0,1,29,58.18c.3-.3.32-.89.54-1.26a10.84,10.84,0,0,1,1-1.52,22.2,22.2,0,0,1,2.52-2.7c.25-.22.52-.46.79-.68.07-.08.78-.54.76-.64A1.32,1.32,0,0,1,34.57,51.16Z"/><path id="Tracé_207" data-name="Tracé 207" class="cls-6" d="M34.58,51.16a14.12,14.12,0,0,0-.69-2.57,6.86,6.86,0,0,0-.57-1.87c-.34.08-.71.15-1,.25a3.64,3.64,0,0,0,0,2.48c.2.88.61,1.84,0,2.67-.42.64-1,1.15-1.5,1.76a11.12,11.12,0,0,0-1,1.38c-.15.27-.25.54-.42.81a1.8,1.8,0,0,1-.56.54A2.13,2.13,0,0,1,29,58.2c.29-.29.32-.88.54-1.25a11.07,11.07,0,0,1,1-1.52,22.28,22.28,0,0,1,2.53-2.7c.24-.22.51-.47.78-.69.08-.07.79-.54.76-.64S34.6,51.24,34.58,51.16Z"/><g id="Groupe_29" data-name="Groupe 29"><path id="Tracé_208" data-name="Tracé 208" class="cls-19" d="M35.61,51.75c.44-.64,0-1.47-.15-2.13-.39-1.55-.84-3.58-2.77-3.75h0a.82.82,0,0,0-.52.37,2.12,2.12,0,0,0,0,1.64A21.45,21.45,0,0,0,33,50.33c.34.86,1.12,2.35,2.25,1.74A.89.89,0,0,0,35.61,51.75Z"/><path id="Tracé_209" data-name="Tracé 209" class="cls-20" d="M35.46,49.62c-.39-1.55-.84-3.58-2.77-3.75h0a.21.21,0,0,0-.13.05,1.18,1.18,0,0,1,.67.39,5.64,5.64,0,0,1,1,1.76c.2.49.51,1.25.22,1.77-.42.71-1.06.56-1.55.15,0,.12.1.24.15.39.34.86,1.13,2.35,2.26,1.74a1.15,1.15,0,0,0,.34-.32C36.05,51.14,35.61,50.28,35.46,49.62Z"/><path id="Tracé_210" data-name="Tracé 210" class="cls-20" d="M35.46,49.62c-.32-1.28-.69-2.87-1.92-3.48a3.71,3.71,0,0,1,1.16,2.2,3.43,3.43,0,0,1,.2.84A2.56,2.56,0,0,1,35,50.63c-.29.83-1.28.63-1.79.12.39.83,1.13,1.86,2.08,1.32a1.07,1.07,0,0,0,.35-.32C36.05,51.14,35.61,50.28,35.46,49.62Z"/></g><path id="Tracé_211" data-name="Tracé 211" class="cls-17" d="M27.78,54.91a5.21,5.21,0,0,0-2.06-1.1,3.26,3.26,0,0,0-1.08-.12,1,1,0,0,0-.49.2l-.17.32a4.55,4.55,0,0,0,.74,1.35A5.6,5.6,0,0,0,26,57a5,5,0,0,0,2.13,1.2c.2,0,.52.2.71.07a.9.9,0,0,0,.39-.56A4.06,4.06,0,0,0,27.78,54.91Z"/><path id="Tracé_212" data-name="Tracé 212" class="cls-18" d="M28.35,55.5c0,.86-.57,1.28-1.45,1s-2.72-1.47-2.77-2.6L24,54.2a4.55,4.55,0,0,0,.74,1.35A5.29,5.29,0,0,0,26,57a4.92,4.92,0,0,0,2.13,1.2c.2,0,.52.2.71.07a.9.9,0,0,0,.39-.56A3.44,3.44,0,0,0,28.35,55.5Z"/><path id="Tracé_213" data-name="Tracé 213" class="cls-18" d="M28.79,56.17h0c.1.81-.2,1.5-1.1,1.3a4.84,4.84,0,0,1-2.75-1.72,3.6,3.6,0,0,1-.39-.47,2,2,0,0,1,.17.27A5.64,5.64,0,0,0,26,57a4.8,4.8,0,0,0,2.14,1.2c.2,0,.51.2.71.08a1,1,0,0,0,.39-.57A2.57,2.57,0,0,0,28.79,56.17Z"/></g></g></g></g></g></svg>